<?xml version="1.0" encoding="iso-8859-1"?>
<!-- Generator: Adobe Illustrator 15.0.0, SVG Export Plug-In . SVG Version: 6.00 Build 0)  -->
<!DOCTYPE svg PUBLIC "-//W3C//DTD SVG 1.1//EN" "http://www.w3.org/Graphics/SVG/1.1/DTD/svg11.dtd">
<svg version="1.1" xmlns="http://www.w3.org/2000/svg" xmlns:xlink="http://www.w3.org/1999/xlink" x="0px" y="0px" width="80px"
	 height="80px" viewBox="0 0 80 80" style="enable-background:new 0 0 80 80;" xml:space="preserve">
<g id="ico-hair-type-3">
	<g>
		<defs>
			<rect id="SVGID_1_" y="0" width="80" height="80"/>
		</defs>
		<clipPath id="SVGID_2_">
			<use xlink:href="#SVGID_1_"  style="overflow:visible;"/>
		</clipPath>
		<g style="clip-path:url(#SVGID_2_);">
			<path style="fill:none;" d="M59.746,0H20.254C9.068,0,0,9.066,0,20.253v39.493C0,70.932,9.068,80,20.254,80h39.492
				C70.933,80,80,70.932,80,59.746V20.253C80,9.066,70.933,0,59.746,0z"/>
		</g>
	</g>
	<g>
		<g>
			<g>
				<path style="fill:#A7A9AC;" d="M25.566,63.135c-0.878-1.738-0.929-1.541,0.253-3.852c1.183-2.311-1.348-4.025-1.348-4.025
					l-0.925-0.436c-0.839,0.32-2.508,0.604-5.105-0.469c-1.294-0.537-2.103-1.145-2.598-1.744
					c-6.519,1.607-7.606,7.279-5.294,10.127c1.138,1.404,2.275,2.898,0.803,4.168c-1.472,1.27-3.176,0.131-3.176,0.131
					c0.201,2.121,2.607,1.834,2.607,1.834s-2.509,0.723-2.107,2.357c0.401,1.627,3.277,1.137,4.082,3.311
					c0.801,2.174-2.108,2.486-2.108,2.486c3.912,0.723,6.354-1.863,7.021-3.6c0.669-1.734,2.335-1.705,2.335-1.705
					c-0.34,0.824,0.924,1.264,0.924,1.264c-0.924-1.264,0.32-1.938,3.732-4.113C28.073,66.693,26.443,64.873,25.566,63.135z"/>
			</g>
			<g style="opacity:0.5;">
				<path style="fill:#A7A9AC;" d="M25.566,63.135c-0.878-1.738-0.929-1.541,0.253-3.852c1.183-2.311-1.348-4.025-1.348-4.025
					l-0.925-0.436c-0.839,0.32-2.508,0.604-5.105-0.469c-1.294-0.537-2.103-1.145-2.598-1.744
					c-6.519,1.607-7.606,7.279-5.294,10.127c1.138,1.404,2.275,2.898,0.803,4.168c-1.472,1.27-3.176,0.131-3.176,0.131
					c0.201,2.121,2.607,1.834,2.607,1.834s-2.509,0.723-2.107,2.357c0.401,1.627,3.277,1.137,4.082,3.311
					c0.801,2.174-2.108,2.486-2.108,2.486c3.912,0.723,6.354-1.863,7.021-3.6c0.669-1.734,2.335-1.705,2.335-1.705
					c-0.34,0.824,0.924,1.264,0.924,1.264c-0.924-1.264,0.32-1.938,3.732-4.113C28.073,66.693,26.443,64.873,25.566,63.135z
					 M23.024,59.941c-1.037,2.199-4.215,2.643-4.215,2.643c1.303,2.041-0.4,3.596-2.006,5.121c-1.606,1.527-0.87,3.648-0.87,3.648
					c-1.169-0.672-0.801-1.525-0.801-1.525c-0.771,0.568-1.338,1.268-0.605,2.406c1.055,1.639-0.666,2.535-0.666,2.535
					c0.302-0.826-0.1-1.863-2.207-2.793c-2.106-0.932-2.743-1.92-0.57-2.615c2.174-0.693,2.576-1.732,2.576-1.732
					c-2.04,1.139-3.779,0.207-3.779,0.207c1.739-0.025,5.72-1.477,3.078-4.039c-2.643-2.563-3.509-4.039-2.474-6.676
					c1.035-2.635,4.043-3.674,4.043-3.674s-1.469,1.063-1.034,2.691c0,0,0.635-1.891,2.842-2.098c0,0,0.299,2.018-1.037,3.572
					c0,0,2.474-1.109,2.642-2.561c0,0,1.503,1.207,1.204,3.311c0,0,2.35-0.232,2.815-2.742
					C21.959,55.621,24.059,57.742,23.024,59.941z"/>
			</g>
			<path style="opacity:0.8;fill:#A7A9AC;" d="M11.719,56.215c0,0-1.537,1.527-1.069,3.34c0.469,1.809,1.979,2.771,2.876,3.854
				c1.605,1.943,0.722,3.293-0.41,3.627c0,0,2.549,0.359,2.549-2.307c0-2.664-3.811-3.434-4.18-5.408
				C11.119,57.355,11.719,56.215,11.719,56.215z"/>
		</g>
		<g>
			<g>
				<g>
					<path style="fill:#A7A9AC;" d="M69.975,13.179C61.412,0.964,50.043,2.516,50.043,2.516s-8.295-4.344-21.938-0.634
						C15.121,5.414,3.138,19.05,4.61,32.92c1.47,13.871,14.744,19.341,14.744,19.341s-4.926-3.811-4.825-7.381
						c0.101-3.572,2.23-5.409,0.804-10.209c-1.458-4.891,1.805-6.911,1.805-6.911s0.352,1.206,1.154,2.213
						c0.801,1.01,0.25,1.787-0.852,2.952c-1.104,1.163-2.057,2.833-0.252,4.562c1.807,1.727,1.73,3.142,0.326,3.649
						c0,0,1.657,0.348,2.76-1.128c1.104-1.474,0.29-2.283-0.277-3.242c-0.552-0.932,0.18-2.975,2.86-4.359
						c3.061-1.579,4.314-2.938,3.11-5.771c-1.205-2.836-1.001-7.056,6.64-7.24c10.219-0.247,13.023-0.099,13.023-0.099
						s1.97-0.688,5.732,0.945c3.762,1.631,2.995,2.822,7.51,4.645c4.513,1.826,5.215,4.814,3.412,7.183
						c-1.807,2.369-2.308,4.387-0.201,5.514c2.107,1.123,2.158,3.22,0.801,4.076c0,0,3.16-0.469,2.813-3.105
						c-0.281-2.103-2.209-2.836,0.348-4.777c0,0,0.654,3.147,0.954,6.252c0.3,3.104-1.071,6.191-5.328,10.389
						C77.987,43.439,78.514,25.36,69.975,13.179z"/>
				</g>
				<g>
					<path style="fill:#A7A9AC;" d="M21.417,21.718c0,0-0.149,0.082-0.399,0.232c-0.254,0.144-0.596,0.371-0.997,0.647
						c-0.398,0.278-0.832,0.629-1.251,1.028c-0.409,0.402-0.817,0.855-1.101,1.35c-0.15,0.247-0.271,0.498-0.36,0.756
						c-0.053,0.128-0.075,0.258-0.119,0.385c-0.025,0.127-0.048,0.254-0.069,0.379c-0.024,0.255-0.033,0.498-0.015,0.733
						c0.015,0.116,0.029,0.229,0.042,0.339c0.025,0.11,0.049,0.215,0.071,0.317c0.064,0.198,0.119,0.385,0.185,0.546
						c0.069,0.159,0.119,0.303,0.185,0.413c0.115,0.23,0.183,0.357,0.183,0.357s-0.099-0.115-0.26-0.328
						c-0.084-0.104-0.157-0.243-0.258-0.399c-0.097-0.156-0.185-0.339-0.265-0.543c-0.037-0.104-0.074-0.212-0.114-0.322
						c-0.025-0.117-0.051-0.232-0.08-0.354c-0.044-0.247-0.066-0.507-0.049-0.778c0.024-0.269,0.067-0.552,0.163-0.827
						c0.092-0.274,0.216-0.549,0.372-0.812c0.159-0.261,0.343-0.512,0.548-0.747c0.197-0.238,0.431-0.45,0.655-0.654
						c0.459-0.399,0.953-0.719,1.384-0.982c0.436-0.257,0.831-0.436,1.104-0.56C21.25,21.774,21.417,21.718,21.417,21.718z"/>
				</g>
				<g>
					<path style="fill:#A7A9AC;" d="M65.026,26.275c0,0,0.168,0.07,0.438,0.226c0.264,0.159,0.652,0.391,1.039,0.728
						c0.391,0.331,0.812,0.756,1.137,1.271c0.15,0.258,0.301,0.535,0.389,0.829c0.094,0.294,0.156,0.601,0.16,0.909
						c0.016,0.309-0.039,0.614-0.105,0.911c-0.084,0.295-0.205,0.578-0.344,0.841c-0.081,0.13-0.146,0.26-0.23,0.381
						c-0.088,0.116-0.176,0.232-0.26,0.345c-0.19,0.215-0.359,0.421-0.545,0.592c-0.092,0.088-0.18,0.173-0.264,0.252
						c-0.092,0.073-0.175,0.145-0.26,0.212c-0.156,0.131-0.3,0.244-0.428,0.328c-0.248,0.175-0.395,0.275-0.395,0.275
						s0.125-0.116,0.332-0.317c0.109-0.096,0.234-0.221,0.37-0.368c0.143-0.142,0.288-0.307,0.445-0.49
						c0.169-0.179,0.312-0.388,0.472-0.606c0.07-0.11,0.14-0.227,0.216-0.345c0.063-0.119,0.128-0.244,0.194-0.368
						c0.063-0.125,0.109-0.258,0.164-0.388c0.045-0.133,0.085-0.271,0.125-0.408c0.059-0.275,0.102-0.561,0.088-0.844
						c-0.004-0.569-0.201-1.128-0.469-1.624c-0.281-0.493-0.625-0.929-0.977-1.271c-0.348-0.345-0.668-0.617-0.91-0.798
						C65.173,26.371,65.026,26.275,65.026,26.275z"/>
				</g>
				<g>
					<g>
						<path style="fill:#A7A9AC;" d="M26.686,27.371c0.212-0.696,0.552-1.375,0.954-2.026c0.402-0.652,0.885-1.281,1.443-1.866
							c0.558-0.585,1.185-1.132,1.877-1.625c0.177-0.121,0.352-0.244,0.531-0.363l0.554-0.336c0.383-0.209,0.77-0.416,1.175-0.594
							c0.2-0.095,0.409-0.178,0.618-0.26c0.208-0.082,0.412-0.171,0.628-0.238l0.642-0.215l0.655-0.185
							c0.217-0.063,0.439-0.108,0.663-0.158c0.223-0.048,0.444-0.107,0.671-0.141c0.448-0.075,0.898-0.159,1.352-0.202
							c0.455-0.062,0.91-0.087,1.367-0.11c0.457-0.036,0.909-0.021,1.366-0.032c0.453,0,0.906,0.026,1.357,0.038l1.35,0.103
							l-0.197,0.088c0.121-0.179,0.251-0.331,0.396-0.481c0.147-0.147,0.301-0.294,0.469-0.428c0.164-0.139,0.342-0.269,0.529-0.38
							c0.184-0.12,0.383-0.227,0.582-0.327c0.203-0.1,0.41-0.19,0.625-0.268c0.213-0.084,0.436-0.146,0.657-0.208
							c0.226-0.052,0.447-0.114,0.679-0.143c0.23-0.041,0.459-0.072,0.688-0.088c0.932-0.07,1.854,0.057,2.693,0.308
							c0.838,0.252,1.621,0.609,2.285,1.071c-0.348-0.213-0.73-0.39-1.119-0.554c-0.393-0.164-0.799-0.297-1.222-0.406
							c-0.839-0.209-1.739-0.303-2.617-0.22c-0.224,0.021-0.446,0.056-0.658,0.1c-0.224,0.033-0.433,0.094-0.645,0.15
							c-0.208,0.064-0.419,0.126-0.614,0.21c-0.203,0.078-0.396,0.167-0.583,0.264c-0.182,0.102-0.368,0.201-0.534,0.321
							c-0.173,0.111-0.337,0.234-0.492,0.36c-0.155,0.127-0.297,0.264-0.434,0.405c-0.128,0.14-0.256,0.29-0.354,0.432l-0.063,0.098
							l-0.135-0.01l-1.329-0.092c-0.446-0.01-0.891-0.03-1.337-0.029c-0.446,0.014-0.891,0-1.337,0.041
							c-0.445,0.025-0.891,0.057-1.333,0.115c-0.442,0.04-0.88,0.117-1.32,0.189c-0.223,0.03-0.436,0.089-0.654,0.129
							c-0.216,0.048-0.435,0.089-0.646,0.153l-0.638,0.173l-0.625,0.205c-0.209,0.064-0.409,0.149-0.613,0.225
							c-0.204,0.078-0.406,0.158-0.6,0.251c-0.396,0.17-0.776,0.369-1.151,0.568l-0.549,0.317c-0.181,0.111-0.351,0.229-0.529,0.341
							c-0.69,0.469-1.325,0.987-1.889,1.551c-0.565,0.566-1.074,1.169-1.51,1.801c-0.223,0.316-0.419,0.64-0.602,0.97
							C26.986,26.693,26.813,27.027,26.686,27.371z"/>
					</g>
				</g>
			</g>
			<g style="opacity:0.5;">
				<path style="fill:#A7A9AC;" d="M69.975,13.179C61.412,0.964,50.043,2.516,50.043,2.516s-8.295-4.344-21.938-0.634
					C15.121,5.414,3.262,19.271,4.734,33.14c1.47,13.872,12.269,17.717,12.269,17.717s-2.574-2.406-2.474-5.977
					c0.101-3.572,2.23-5.409,0.804-10.209c-1.458-4.891,1.805-6.911,1.805-6.911s0.352,1.206,1.154,2.213
					c0.801,1.01,0.25,1.787-0.852,2.952c-1.104,1.163-2.057,2.833-0.252,4.562c1.807,1.727,1.73,3.142,0.326,3.649
					c0,0,1.657,0.348,2.76-1.128c1.104-1.474,0.29-2.283-0.277-3.242c-0.552-0.932,0.18-2.975,2.86-4.359
					c3.061-1.579,4.314-2.938,3.11-5.771c-1.205-2.836-2.479-7.226,5.164-7.237c12.05-0.019,14.499-0.102,14.499-0.102
					s2.341-0.532,6.104,1.101c3.762,1.63,2.624,2.666,7.139,4.488c4.513,1.826,5.215,4.814,3.412,7.183
					c-1.807,2.369-2.308,4.387-0.201,5.514c2.107,1.123,2.158,3.22,0.801,4.076c0,0,3.16-0.469,2.813-3.105
					c-0.281-2.103-2.209-2.836,0.348-4.777c0,0,0.654,3.147,0.954,6.252c0.3,3.104-1.037,6.465-5.328,10.389
					C78.785,43.418,78.514,25.36,69.975,13.179z M38.855,7.148c0,0,2.46,0.04,2.961,1.126c0.502,1.087-3.411,0.97-3.411,0.97
					s6.521,1.359,7.223,3.184c0.701,1.823-9.43,1.37-9.43,1.37s4.246,0.362,5.217,1.529c0.969,1.163-5.863-2.041-13.117,2.264
					c-7.255,4.305-3.845,8.19-3.641,10.132c0.203,1.941-1,2.754-3.559,4.152c-2.558,1.398-3.927,3.326-1.656,6.277
					c0,0-2.8-0.792-2.809-2.484c-0.007-1.693,1.206-2.482,2.041-3.519c0.836-1.036,1.238-1.814-0.033-3.263
					c-1.271-1.449-1.839-4.865,4.482-8.074c0,0-3.813,0.271-6.42,3.108c-1.931,2.094-1.263,3.308-3.478,7.296
					c-2.008,3.611-4.868,4.854-6.422-0.156c-2.896-9.326,7.929-25.52,21.887-28.548c13.954-3.028,26.25,1.01,18.485,3.085
					C42.518,6.84,38.855,7.148,38.855,7.148z M72.582,33.146c-3.479,0.529-1.419-4.18-8.145-7.525c0,0,3.164,3.385,1.057,5.83
					c-2.11,2.445-2.077,3.838-1.005,5.377c1.206,1.727,0.351,3.23,0.351,3.23s-0.1-1.404-2.1-2.746
					c-1.996-1.344-2.063-2.873,0.396-5.086c2.458-2.214,2.482-6.405-2.86-7.919c-2.057-0.583-3.861-1.475-4.516-3.651
					c-0.651-2.17-3.324-5.889-7.875-3.803c-1.352,0.623,0.352-2.873,6.621-2.21c0,0-4.912-1.941-5.969-3.456
					c-1.055-1.515,2.241-3.391,5.016-3.054c0,0-1.324-2.14,0.703-1.684c0,0-2.717-2.258-1.914-3.053
					c1.046-1.033,11.145,0.13,18.77,12.37C76.151,23.857,76.06,32.614,72.582,33.146z"/>
			</g>
			<g style="opacity:0.8;">
				<path style="fill:#A7A9AC;" d="M42.117,1.961c0,0-16.307-2.137-26.788,9.95c-2.875,3.312,1.141,0.595,2.746-0.543
					c0,0-4.514,4.056-4.75,7.862c-0.133,2.154,2.041-4.37,8.527-7.112c0,0-3.712,3.572-3.844,6.47
					c-0.135,2.898,0.869-4.09,11.503-6.314c1.704-0.356-3.306,0.631-5.752,5.233c-1.072,2.012,1.997-2.27,11.084-2.944
					c2.118-0.156-2.216-1.067-5.315-0.076c-1.707,0.543,2.807-2.68,11.436-2.485c8.63,0.192-6.564-4.081-15.351-0.235
					c-2.658,1.166-0.099-1.124,2.811-2.562c2.909-1.435-5.418,0.351-8.454,2.33C16.937,13.516,24.962,2.414,42.117,1.961z"/>
			</g>
			<path style="opacity:0.8;fill:#A7A9AC;" d="M69.941,19.658c2.574,3.509,2.641,7.373,2.978,6.255
				c0.333-1.121,1.074-5.032-3.613-12.009c-6.034-8.977-15.317-9.834-15.317-9.834s10.822,4.078,13.993,11.892
				c0.522,1.279-1.544-3.719-7.855-4.698c-2.009-0.311,2.794,1.506,4.012,4.542c0.453,1.126-1.792-2.261-8.075-2.912
				c-3.243-0.334,2.238,0.872,4.379,3.028c1.439,1.449-3.04-1.577-8.994-0.62c-1.677,0.269,4.414,0.104,5.552,3.286
				s2.856,4.118,6.755,4.813c0.87,0.156-2.658-0.712-3.946-2.821c-1.706-2.793,0.282-0.374,2.874,0.311
				c1.475,0.387-0.869-0.543-2.104-3.099c-0.591-1.217,0.635-0.068,1.472,0.416c0.834,0.481,0.937-0.139-0.135-1.667
				c-1.07-1.525,2.908,1.268,4.315,3.546c0.702,1.14,1.239-1.276-0.08-3.807C65.381,14.804,67.137,15.831,69.941,19.658z"/>
			<path style="opacity:0.8;fill:#A7A9AC;" d="M19.495,31.875c2.057-2.29-1.253-4.121-0.754-6.254
				c0.653-2.788,3.813-3.719,3.813-3.719s-3.511,1.465-2.458,4.206C21.152,28.85,22.605,30.09,19.495,31.875z"/>
			<path style="opacity:0.8;fill:#A7A9AC;" d="M64.438,31.994c0,0-1.881,1.416-1.452,3.026c0.425,1.613,1.956,2.583,1.829,3.766
				c0,0-0.637-0.829-2.063-2.032C61.145,35.402,61.412,33.444,64.438,31.994z"/>
		</g>
		<g>
			<g>
				<path style="fill:#A7A9AC;" d="M17.002,50.857c0,0-0.691-0.303-1.734-0.992c-0.294,0.906-0.473,2.979,3.173,4.488
					c2.597,1.072,4.267,0.789,5.105,0.469C19.495,52.859,17.002,50.857,17.002,50.857z"/>
			</g>
			<g>
				<path style="fill:#A7A9AC;" d="M17.002,50.857c0,0-0.691-0.303-1.734-0.992c-0.042,0.133-0.082,0.287-0.107,0.463
					c1.017,0.498,3.115,1.613,5.22,3.262c2.624,2.051-2.688,0.484-5.137-2.063c0.274,0.908,1.104,1.959,3.196,2.826
					c2.597,1.072,4.267,0.789,5.105,0.469C19.495,52.859,17.002,50.857,17.002,50.857z"/>
			</g>
		</g>
	</g>
</g>
<g id="Layer_1">
</g>
</svg>
