<?xml version="1.0" encoding="iso-8859-1"?>
<!-- Generator: Adobe Illustrator 15.0.0, SVG Export Plug-In . SVG Version: 6.00 Build 0)  -->
<!DOCTYPE svg PUBLIC "-//W3C//DTD SVG 1.1//EN" "http://www.w3.org/Graphics/SVG/1.1/DTD/svg11.dtd">
<svg version="1.1" xmlns="http://www.w3.org/2000/svg" xmlns:xlink="http://www.w3.org/1999/xlink" x="0px" y="0px" width="80px"
	 height="80px" viewBox="0 0 80 80" style="enable-background:new 0 0 80 80;" xml:space="preserve">
<g id="ico-hair-type-2">
	<g>
		<defs>
			<rect id="SVGID_1_" y="0" width="80" height="80"/>
		</defs>
		<clipPath id="SVGID_2_">
			<use xlink:href="#SVGID_1_"  style="overflow:visible;"/>
		</clipPath>
		<g style="clip-path:url(#SVGID_2_);">
			<path style="fill:none;" d="M59.746,0H20.254C9.068,0,0,9.066,0,20.253v39.493C0,70.932,9.068,80,20.254,80h39.492
				C70.933,80,80,70.932,80,59.746V20.253C80,9.066,70.933,0,59.746,0z"/>
		</g>
	</g>
	<g>
		<g>
			<path style="fill:#A7A9AC;" d="M65.496,63.597c0,0-0.16,5.22,1.071,7.935c1.231,2.714,0.751,3.86-1.286,4.592
				c0,0,2.84,0.522,3.483-1.67c0.267,1.617,0.536,1.93,1.339,2.401c0.054-0.784,1.285-1.564,1.232-2.609
				c0.536,1.2,1.875,0.886,1.875,0.886s-1.07-0.678,0.162-2.086c1.232-1.41,0.748-3.029-1.608-4.644
				c-2.358-1.619-3.696-3.552-4.394-5.065C66.674,61.823,65.496,62.136,65.496,63.597z"/>
			<path style="fill:#A7A9AC;" d="M70.245,77.12l-0.224-0.132c-0.766-0.446-1.07-0.787-1.316-1.968
				c-0.621,1.13-1.924,1.314-2.707,1.314c-0.433,0-0.733-0.054-0.747-0.058l-0.571-0.105l0.547-0.195
				c0.93-0.333,1.472-0.74,1.709-1.281c0.297-0.686,0.133-1.672-0.514-3.101c-1.234-2.715-1.094-7.788-1.086-8.003
				c0-0.972,0.476-1.407,0.949-1.407c0.465,0,0.915,0.396,1.231,1.089c0.621,1.348,1.877,3.307,4.341,4.998
				c1.41,0.968,2.188,1.953,2.315,2.931c0.087,0.676-0.142,1.329-0.678,1.944c-0.418,0.476-0.603,0.908-0.547,1.283
				c0.058,0.382,0.347,0.568,0.347,0.568l0.317,0.2l-0.363,0.087c-0.007,0.002-0.179,0.039-0.423,0.039l0,0
				c-0.361,0-0.961-0.084-1.385-0.604c-0.118,0.434-0.399,0.813-0.655,1.161c-0.257,0.351-0.499,0.682-0.521,0.983L70.245,77.12z
				 M68.807,73.734l0.115,0.695c0.245,1.479,0.486,1.81,1.068,2.174c0.094-0.305,0.309-0.598,0.535-0.904
				c0.332-0.452,0.677-0.92,0.65-1.446l-0.045-0.858l0.354,0.788c0.305,0.686,0.898,0.829,1.342,0.829l0,0c0,0,0.025,0,0.035,0
				c-0.098-0.128-0.195-0.307-0.23-0.537c-0.068-0.467,0.14-0.981,0.619-1.531c0.476-0.543,0.678-1.117,0.602-1.703
				c-0.113-0.886-0.848-1.8-2.179-2.713c-2.524-1.73-3.813-3.743-4.448-5.127c-0.26-0.566-0.611-0.901-0.939-0.901
				c-0.369,0-0.629,0.452-0.629,1.098c-0.001,0.057-0.145,5.22,1.06,7.873c0.694,1.531,0.853,2.563,0.515,3.349
				c-0.213,0.489-0.631,0.882-1.293,1.203c0.973,0.007,2.273-0.251,2.673-1.61L68.807,73.734z"/>
		</g>
		<path style="opacity:0.3;fill:#A7A9AC;" d="M65.496,63.597c0,0-0.16,5.22,1.071,7.935c1.231,2.714,0.751,3.86-1.286,4.592
			c0,0,2.84,0.522,3.483-1.67c0.267,1.617,0.536,1.93,1.339,2.401c0.054-0.784,1.285-1.564,1.232-2.609
			c0.536,1.2,1.875,0.886,1.875,0.886s-1.07-0.678,0.162-2.086c1.232-1.41,0.748-3.029-1.608-4.644
			c-2.358-1.619-3.696-3.552-4.394-5.065C66.674,61.823,65.496,62.136,65.496,63.597z"/>
		<g>
			<path style="opacity:0.3;fill:#A7A9AC;" d="M71.765,68.401c-2.358-1.619-3.696-3.552-4.394-5.065
				c-0.697-1.513-1.875-1.2-1.875,0.261c0,0-0.16,5.22,1.071,7.935c1.231,2.714,0.751,3.86-1.286,4.592c0,0,2.84,0.522,3.483-1.67
				c0.248,1.503,0.497,1.882,1.177,2.304c-0.528-0.908,0.611-2.122-0.326-2.893c-1.266-1.042-0.791-3.74-0.158-3.78
				c0.635-0.038,1.743,1.467,1.9,2.161c0.16-1.66-1.464-3.048,0.199-2.855c1.512,0.313,2.152,1.493,2.423,2.52
				C74.225,70.795,73.51,69.597,71.765,68.401z"/>
		</g>
	</g>
	<g>
		<g>
			<path style="fill:#A7A9AC;" d="M15.178,64.123c0,0,0.235,2.229-2.052,2.305c-2.29,0.079-4.264,0.616-4.264,3.152
				c0.079,1.617,2.448,3.614-1.105,3.384c0.71,1.383,2.131,0.691,2.131,0.691c-1.026,1.462-0.63,2.153,0.158,2.614
				c0.79,0.464,3.631-3.306,5.999-4.921C18.414,69.734,18.493,66.352,15.178,64.123z"/>
			<path style="fill:#A7A9AC;" d="M10.204,76.466L10.204,76.466c-0.09,0-0.171-0.021-0.239-0.063
				c-0.469-0.271-0.737-0.59-0.823-0.974c-0.093-0.417,0.029-0.907,0.374-1.487c-0.126,0.024-0.271,0.045-0.425,0.045
				c-0.45,0-1.073-0.168-1.476-0.952l-0.126-0.245l0.279,0.02c0.974,0.063,1.535-0.04,1.711-0.303
				c0.191-0.279-0.046-0.811-0.295-1.374c-0.214-0.482-0.457-1.03-0.482-1.546c0-2.805,2.361-3.244,4.418-3.314
				c0.626-0.021,1.106-0.213,1.43-0.573c0.557-0.621,0.468-1.55,0.468-1.561l-0.035-0.336l0.285,0.192
				c1.676,1.125,2.64,2.671,2.645,4.237c0.005,1.291-0.642,2.473-1.775,3.247c-1.015,0.69-2.133,1.798-3.122,2.777
				C11.634,75.626,10.756,76.466,10.204,76.466z M10.372,73.244l-0.35,0.502c-0.466,0.664-0.657,1.208-0.566,1.616
				c0.068,0.299,0.281,0.544,0.675,0.775c0.019,0.011,0.042,0.015,0.074,0.015c0.447,0,1.534-1.075,2.584-2.117
				c0.997-0.988,2.126-2.106,3.167-2.813c1.044-0.714,1.644-1.804,1.638-2.99c-0.003-1.381-0.819-2.753-2.25-3.799
				c-0.017,0.37-0.116,0.986-0.549,1.471c-0.382,0.429-0.942,0.658-1.662,0.682c-2.031,0.066-4.108,0.478-4.108,2.995
				c0.022,0.447,0.243,0.946,0.456,1.428c0.286,0.643,0.554,1.248,0.269,1.672c-0.232,0.343-0.756,0.486-1.7,0.456
				c0.257,0.357,0.608,0.536,1.042,0.536c0.401,0,0.724-0.155,0.724-0.155L10.372,73.244z"/>
		</g>
		<g>
			<path style="opacity:0.3;fill:#A7A9AC;" d="M15.178,64.123c0,0,0.235,2.229-2.052,2.305c-2.29,0.079-4.264,0.616-4.264,3.152
				c0.079,1.617,2.448,3.614-1.105,3.384c0.71,1.383,2.131,0.691,2.131,0.691c-1.026,1.462-0.63,2.153,0.158,2.614
				c0.79,0.464,3.631-3.306,5.999-4.921C18.414,69.734,18.493,66.352,15.178,64.123z"/>
			<g>
				<path style="opacity:0.3;fill:#A7A9AC;" d="M15.178,64.123c0,0,0.235,2.229-2.052,2.305c-1.281,0.044-2.462,0.23-3.254,0.831
					c0.739-0.301,1.67-0.559,2.452-0.386c1.57,0.349,2.605-0.627,2.783-0.209c0.179,0.418,1.465,1.634-1.106,2.919
					c-2.569,1.287-1.105,1.01-0.999,2.155c0.105,1.146-0.963,2.118-2.248,2.295c-1.284,0.174,0.929-0.348,0.965-1.807
					c0.03-1.326-0.465,1.957-3.786,1.018c0.746,0.999,1.955,0.411,1.955,0.411c-1.026,1.462-0.63,2.153,0.158,2.614
					c0.79,0.464,3.631-3.306,5.999-4.921C18.414,69.734,18.493,66.352,15.178,64.123z"/>
			</g>
		</g>
	</g>
	<g>
		<path style="fill:#A7A9AC;" d="M69.791,29.601c0,0,2.126,0.23,2.361-0.767c-3.699-0.154-2.598-7.205-4.801-14.03
			c-2.203-6.823-6.611-7.434-8.735-6.438c0.63-1.532,2.124-2.299,2.124-2.299s-1.258-0.537-3.383,1.072
			c0.631-1.381-0.236-2.836-0.236-2.836S57.2,6.22,56.098,6.91c-0.552-2.147-4.329-6.058-14.244-6.132
			c-9.917-0.077-16.764,3.754-21.72,7.665c-4.959,3.91-5.824,1.687-5.824,1.687c0.142,0.552,1.142,1.692,2.479,1.903
			c-5.141,0.311-6.481,3.599-6.588,7.409c-0.108,3.447-3.055,2.715-3.055,2.715s0.696,0.991,1.931,1.252
			c-5.36,1.776-6.806,6.734-3.056,11.431c3.751,4.696,0.312,4.562,0.312,4.562s0.516,0.685,2.161,0.548
			c-4.604,3.383-1.458,8.187,3.848,10.428c5.306,2.241,5.212,3.156,6.2,5.123c-2.021,0.229-3.43,2.515-2.396,4.438
			c-2.771,2.284-0.704,4.663,1.597,4.663c2.3,0,5.307-1.968,4.366-4.345c0,0,2.817-1.281,2.63-3.567
			c5.728,1.416,8.64-1.188,10.565-1.509C28.09,53.055,16.277,48.269,16.751,39c0.389-3.144,0.916-5.191,0.695-6.514
			c0.482-0.297,0.877-1.324,0.877-1.324s0.307,0.683,1.312,1.623c-0.305-2.175,1.357-4.906,2.934-5.716
			c-0.832,1.578-0.394,3.327-0.394,3.327s1.017-3.518,7.929-4.926c-0.08,1.799,0.482,3.21,1.686,4.229
			c-0.641-2.35,1.369-3.524,3.459-4.072c2.088-0.548,5.304-1.88,6.587-3.757c-0.643,3.444-3.052,5.165-3.052,5.165
			s5.706-1.643,8.358-8.611c-0.885,6.733-3.938,7.751-3.938,7.751s7.315,2.897,11.011-4.854c2.091,3.054,0.724,6.654,0.724,6.654
			s3.215-1.332,3.536-3.992c0.241,1.332,1.044,1.644,1.044,1.644s-0.803,3.601,0.323,10.178c1.125,6.577-1.249,11.606-15.574,18.095
			c3.99,2.011,9.423,2.569,12.67,1.777c-1.625,3.251,2.073,4.832,4.777,4.656c-0.992,3.512,5.139,3.27,5.625,1.24
			c0.488-2.028-1.284-2.242-1.284-2.242c0.398-2.676-1.54-3.054-1.54-3.054s1.023-3.294,0.08-4.599
			c1.181-0.305,3.384-2.299,2.203-5.212c0,0,1.337,2.146,2.441,1.685c-1.575-0.535-1.184-2.759,0.549-4.981
			c1.967-3.451,0.944-6.364,0.944-6.364s0.866,1.688,0.71,3.067C75.771,33.971,69.791,29.601,69.791,29.601z"/>
		<path style="fill:#A7A9AC;" d="M69.791,29.601c0.445,0.039,0.895,0.03,1.334-0.05c0.109-0.021,0.216-0.048,0.322-0.084
			c0.055-0.013,0.104-0.039,0.154-0.059c0.053-0.021,0.104-0.045,0.148-0.077c0.046-0.028,0.097-0.054,0.136-0.094
			c0.036-0.038,0.087-0.065,0.116-0.115c0.029-0.043,0.067-0.086,0.089-0.135l0.059-0.152l0.003,0.003
			c-0.293-0.024-0.59-0.065-0.859-0.191c-0.264-0.125-0.516-0.29-0.71-0.509c-0.403-0.425-0.644-0.966-0.841-1.505
			c-0.377-1.091-0.555-2.235-0.736-3.368c-0.342-2.273-0.632-4.561-1.203-6.791c-0.139-0.558-0.303-1.109-0.475-1.659l-0.298-0.811
			l-0.148-0.406l-0.178-0.395c-0.124-0.259-0.227-0.528-0.366-0.782l-0.422-0.754c-0.154-0.245-0.325-0.479-0.484-0.719
			c-0.156-0.242-0.365-0.449-0.543-0.675c-0.382-0.436-0.816-0.823-1.283-1.169c-0.243-0.159-0.49-0.314-0.746-0.454
			c-0.265-0.118-0.523-0.26-0.807-0.337c-0.549-0.199-1.139-0.282-1.722-0.275c-0.582,0.011-1.169,0.12-1.696,0.367l-0.112,0.052
			l0.052-0.106l0.181-0.357l0.089-0.18c0.035-0.056,0.078-0.111,0.113-0.166c0.078-0.107,0.152-0.219,0.229-0.327l0.269-0.301
			c0.084-0.105,0.189-0.189,0.285-0.281c0.098-0.095,0.198-0.181,0.309-0.262c0.206-0.172,0.433-0.316,0.67-0.452l0.003,0.084
			c-0.064-0.026-0.142-0.038-0.212-0.055l-0.225-0.021c-0.072-0.012-0.149,0.003-0.225,0.003c-0.074,0.004-0.15,0.004-0.225,0.014
			l-0.444,0.086c-0.146,0.046-0.288,0.098-0.43,0.147c-0.071,0.027-0.147,0.042-0.212,0.082l-0.203,0.103l-0.405,0.206l-0.753,0.508
			l-0.133,0.09l0.053-0.152c0.038-0.115,0.096-0.223,0.121-0.34c0.035-0.116,0.059-0.234,0.074-0.354
			c0.012-0.059,0.014-0.12,0.017-0.18c0.003-0.061,0.014-0.12,0.009-0.18c0-0.12-0.006-0.24-0.02-0.36
			c-0.014-0.12-0.034-0.24-0.059-0.359c-0.025-0.117-0.059-0.234-0.095-0.35c-0.075-0.229-0.168-0.457-0.286-0.666l0.107-0.03
			c0.006,0.489-0.055,0.979-0.202,1.451c-0.013,0.06-0.04,0.116-0.062,0.175c-0.02,0.057-0.043,0.114-0.07,0.169
			c-0.05,0.116-0.115,0.223-0.18,0.329c-0.034,0.055-0.075,0.101-0.111,0.151c-0.036,0.053-0.081,0.097-0.128,0.141
			c-0.045,0.042-0.085,0.093-0.14,0.129l-0.153,0.114l-0.069,0.049l-0.025-0.088c-0.268-0.896-0.854-1.688-1.549-2.336
			c-0.695-0.658-1.514-1.184-2.365-1.628c-0.85-0.46-1.769-0.779-2.686-1.083c-0.471-0.123-0.936-0.257-1.408-0.366
			c-0.477-0.089-0.951-0.201-1.43-0.275c-0.481-0.063-0.961-0.14-1.444-0.193l-1.452-0.123c-0.976-0.037-1.943-0.079-2.917-0.043
			l-0.732,0.011l-0.727,0.049c-0.485,0.038-0.971,0.049-1.452,0.117c-0.483,0.06-0.967,0.105-1.446,0.178L34.99,1.475l-1.423,0.312
			c-0.469,0.116-0.937,0.25-1.406,0.375c-0.467,0.129-0.924,0.294-1.387,0.44c-0.462,0.147-0.909,0.335-1.364,0.5
			c-0.456,0.17-0.893,0.376-1.34,0.561c-0.444,0.194-0.875,0.414-1.312,0.622C26.327,4.5,25.904,4.734,25.475,4.96l-1.249,0.729
			c-0.821,0.509-1.63,1.038-2.41,1.604c-0.788,0.553-1.534,1.167-2.314,1.738c-0.786,0.566-1.604,1.11-2.519,1.481l-0.346,0.133
			c-0.119,0.039-0.24,0.067-0.359,0.101c-0.118,0.037-0.243,0.055-0.368,0.071l-0.187,0.026c-0.063,0.003-0.126,0-0.188,0.001
			c-0.254,0.013-0.513-0.047-0.751-0.145c-0.241-0.109-0.444-0.286-0.565-0.538l0.184-0.056l0.07,0.171
			c0.017,0.058,0.063,0.11,0.094,0.164c0.035,0.056,0.063,0.112,0.105,0.164l0.125,0.151c0.076,0.104,0.179,0.192,0.271,0.287
			c0.09,0.096,0.199,0.171,0.302,0.254c0.102,0.086,0.214,0.156,0.33,0.221l0.17,0.102c0.058,0.035,0.121,0.054,0.182,0.081
			c0.123,0.047,0.239,0.117,0.37,0.142l0.385,0.095l0.529,0.13l-0.539,0.061c-0.331,0.035-0.667,0.059-0.997,0.109l-0.492,0.092
			l-0.245,0.047l-0.242,0.07l-0.477,0.142c-0.155,0.06-0.307,0.125-0.461,0.188l-0.228,0.095l-0.217,0.121
			c-0.142,0.083-0.291,0.154-0.428,0.247l-0.397,0.291c-0.134,0.095-0.243,0.218-0.365,0.327c-0.06,0.059-0.122,0.112-0.177,0.171
			l-0.157,0.187c-0.101,0.128-0.22,0.243-0.302,0.385l-0.266,0.409l-0.223,0.435c-0.081,0.142-0.127,0.3-0.191,0.448
			c-0.065,0.151-0.12,0.304-0.161,0.462c-0.105,0.31-0.175,0.627-0.244,0.947c-0.056,0.32-0.115,0.643-0.144,0.966l-0.046,0.487
			l-0.023,0.49c-0.006,0.163-0.021,0.337-0.035,0.497c-0.015,0.165-0.022,0.328-0.067,0.496c-0.039,0.167-0.062,0.337-0.133,0.494
			c-0.057,0.161-0.116,0.322-0.21,0.468c-0.162,0.305-0.418,0.562-0.712,0.753c-0.294,0.195-0.644,0.301-0.989,0.345
			c-0.349,0.043-0.698,0.033-1.046-0.041l0.113-0.158c0.053,0.067,0.114,0.144,0.18,0.209c0.062,0.07,0.128,0.137,0.199,0.201
			c0.067,0.065,0.141,0.125,0.217,0.182c0.076,0.058,0.147,0.122,0.23,0.167l0.24,0.15l0.259,0.118
			c0.085,0.043,0.174,0.074,0.266,0.099l0.271,0.08l0.302,0.089l-0.289,0.112l-0.597,0.23c-0.198,0.075-0.397,0.15-0.582,0.253
			L7.364,24.28c-0.185,0.103-0.357,0.227-0.536,0.34l-0.264,0.173c-0.084,0.064-0.163,0.135-0.243,0.2
			c-0.158,0.139-0.327,0.267-0.476,0.412l-0.427,0.459c-0.151,0.151-0.249,0.336-0.375,0.501l-0.181,0.253l-0.144,0.276
			l-0.144,0.278c-0.05,0.09-0.094,0.183-0.123,0.282l-0.208,0.586l-0.123,0.606c-0.055,0.202-0.042,0.411-0.062,0.616l-0.018,0.309
			c-0.006,0.103,0.011,0.208,0.017,0.309c0.018,0.208,0.022,0.414,0.052,0.619l0.124,0.609c0.03,0.205,0.113,0.398,0.176,0.597
			c0.072,0.193,0.115,0.4,0.212,0.585c0.176,0.378,0.334,0.766,0.564,1.116c0.109,0.18,0.208,0.366,0.325,0.54l0.372,0.509
			C6.12,34.8,6.4,35.123,6.645,35.474c0.248,0.348,0.49,0.703,0.693,1.08c0.207,0.376,0.389,0.769,0.492,1.196
			c0.046,0.215,0.073,0.437,0.044,0.666c-0.024,0.225-0.118,0.454-0.278,0.631c-0.162,0.174-0.373,0.297-0.591,0.365
			c-0.221,0.072-0.443,0.104-0.68,0.104l0.101-0.184c0.017,0.023,0.055,0.056,0.082,0.083l0.105,0.076
			c0.073,0.052,0.155,0.087,0.232,0.134l0.254,0.095c0.086,0.026,0.178,0.041,0.269,0.062c0.176,0.047,0.368,0.042,0.549,0.066
			c0.188,0,0.375-0.008,0.563-0.013l0.361-0.009l-0.28,0.215c-0.364,0.281-0.721,0.577-1.026,0.917
			c-0.303,0.341-0.568,0.714-0.766,1.116c-0.406,0.808-0.482,1.748-0.257,2.615c0.22,0.872,0.697,1.677,1.289,2.373
			c0.296,0.352,0.624,0.681,0.97,0.981c0.347,0.307,0.714,0.591,1.097,0.851c0.765,0.527,1.593,0.967,2.448,1.337
			c0.432,0.192,0.867,0.369,1.294,0.57c0.43,0.193,0.855,0.403,1.275,0.618c0.419,0.221,0.832,0.453,1.228,0.717
			c0.398,0.257,0.774,0.554,1.111,0.896c0.335,0.342,0.608,0.742,0.824,1.161c0.216,0.416,0.4,0.84,0.606,1.251l0.077,0.15
			l-0.178,0.032l-0.353,0.063l-0.341,0.106l-0.325,0.149l-0.305,0.188c-0.092,0.072-0.19,0.143-0.279,0.221
			c-0.084,0.083-0.172,0.163-0.252,0.252c-0.072,0.093-0.152,0.181-0.221,0.277c-0.061,0.101-0.131,0.196-0.186,0.301
			c-0.049,0.105-0.111,0.209-0.152,0.319c-0.035,0.11-0.083,0.218-0.11,0.333c-0.022,0.115-0.06,0.227-0.069,0.343
			c-0.009,0.116-0.032,0.232-0.028,0.348c0.007,0.116-0.001,0.234,0.017,0.351c0.021,0.112,0.03,0.231,0.062,0.343
			c0.036,0.112,0.063,0.226,0.105,0.335l0.145,0.321l0.042,0.087l-0.071,0.07c-0.202,0.201-0.438,0.374-0.605,0.602
			c-0.192,0.208-0.337,0.45-0.463,0.696c-0.046,0.128-0.109,0.253-0.142,0.384c-0.02,0.134-0.066,0.266-0.063,0.401
			c0.005,0.134-0.017,0.272,0.024,0.402l0.041,0.2c0.017,0.063,0.049,0.126,0.074,0.188c0.026,0.063,0.046,0.128,0.081,0.184
			l0.11,0.176c0.064,0.123,0.173,0.213,0.26,0.321c0.092,0.102,0.208,0.182,0.313,0.273c0.116,0.079,0.235,0.154,0.357,0.226
			c0.129,0.058,0.253,0.128,0.386,0.174c0.135,0.037,0.267,0.094,0.407,0.119c0.276,0.063,0.563,0.09,0.845,0.082
			c0.303-0.008,0.577-0.05,0.856-0.109c0.282-0.06,0.559-0.146,0.827-0.249c0.131-0.059,0.269-0.108,0.397-0.17l0.381-0.201
			l0.362-0.232l0.339-0.261c0.108-0.093,0.206-0.193,0.309-0.289c0.099-0.103,0.183-0.214,0.275-0.321
			c0.084-0.11,0.153-0.231,0.229-0.347c0.065-0.124,0.115-0.252,0.175-0.376c0.037-0.132,0.07-0.265,0.106-0.395
			c0.006-0.138,0.024-0.272,0.028-0.407c-0.019-0.136-0.025-0.271-0.048-0.405l-0.118-0.396l-0.036-0.12l0.107-0.052
			c0.34-0.165,0.674-0.375,0.982-0.605c0.155-0.116,0.3-0.238,0.443-0.369c0.142-0.127,0.267-0.27,0.395-0.412l0.172-0.226
			c0.061-0.069,0.104-0.155,0.154-0.233c0.052-0.082,0.1-0.161,0.134-0.247c0.036-0.085,0.084-0.167,0.112-0.255l0.083-0.265
			c0.031-0.086,0.032-0.182,0.049-0.271c0.017-0.091,0.031-0.183,0.025-0.272l-0.001-0.277v-0.182l0.174,0.038l0.664,0.139
			c0.218,0.05,0.44,0.095,0.665,0.116l0.667,0.094l0.676,0.044c0.222,0.022,0.447,0.014,0.673,0.012
			c0.224-0.001,0.449,0,0.672-0.024c0.223-0.022,0.45-0.028,0.67-0.064c0.223-0.036,0.445-0.063,0.666-0.103l0.659-0.146l0.647-0.18
			c0.429-0.139,0.852-0.287,1.27-0.457l1.257-0.52c0.211-0.085,0.42-0.171,0.643-0.246c0.112-0.035,0.219-0.074,0.333-0.104
			l0.347-0.079l-0.018,0.278c-2.142-0.632-4.251-1.365-6.301-2.244c-1.026-0.438-2.034-0.915-3.018-1.438
			c-0.49-0.263-0.975-0.539-1.453-0.824l-0.71-0.439l-0.694-0.462l-0.68-0.485l-0.662-0.508c-0.216-0.176-0.426-0.359-0.64-0.536
			c-0.209-0.181-0.411-0.373-0.615-0.562c-0.204-0.19-0.393-0.396-0.59-0.59c-0.193-0.201-0.369-0.414-0.557-0.621
			c-0.18-0.211-0.347-0.435-0.52-0.648c-0.167-0.221-0.318-0.455-0.478-0.682c-0.151-0.233-0.288-0.474-0.431-0.711l-0.38-0.739
			l-0.32-0.766c-0.086-0.262-0.177-0.526-0.256-0.79c-0.063-0.269-0.135-0.536-0.189-0.806c-0.042-0.271-0.091-0.546-0.125-0.82
			c-0.018-0.275-0.043-0.548-0.056-0.825l0.008-0.826v-0.005v-0.006c0.074-0.544,0.141-1.089,0.225-1.63l0.249-1.626
			c0.039-0.27,0.083-0.54,0.12-0.809c0.031-0.27,0.079-0.541,0.098-0.809l0.035-0.404c0.016-0.134,0.009-0.268,0.014-0.401
			c0-0.134,0.015-0.27-0.005-0.4l-0.037-0.393l-0.007-0.09l0.079-0.065l0.131-0.108c0.024-0.014,0.042-0.042,0.063-0.065
			l0.059-0.069c0.042-0.044,0.076-0.099,0.112-0.152c0.036-0.051,0.073-0.101,0.104-0.158c0.134-0.219,0.248-0.459,0.344-0.692
			l0.139-0.338l0.153,0.329c0.063,0.137,0.171,0.281,0.257,0.423c0.103,0.134,0.209,0.266,0.314,0.401
			c0.099,0.137,0.231,0.251,0.348,0.377l0.358,0.372l-0.263,0.129l-0.036-0.433l0.01-0.434l0.048-0.429l0.083-0.422
			c0.069-0.279,0.151-0.553,0.253-0.82c0.046-0.136,0.111-0.266,0.165-0.396c0.052-0.134,0.125-0.259,0.187-0.387
			c0.06-0.129,0.138-0.253,0.208-0.376c0.07-0.125,0.15-0.246,0.231-0.362c0.076-0.124,0.162-0.239,0.25-0.353
			c0.086-0.117,0.174-0.23,0.273-0.336c0.092-0.111,0.191-0.216,0.295-0.318c0.099-0.106,0.21-0.202,0.321-0.297
			c0.107-0.099,0.231-0.182,0.35-0.27c0.115-0.089,0.254-0.155,0.379-0.233l0.398-0.245l-0.19,0.445l-0.162,0.38l-0.082,0.189
			l-0.053,0.198c-0.034,0.133-0.074,0.266-0.104,0.399l-0.058,0.412c-0.026,0.136-0.018,0.276-0.026,0.414
			c-0.008,0.139-0.006,0.278,0.001,0.415c0.004,0.14,0.016,0.278,0.036,0.414c0.012,0.138,0.039,0.277,0.063,0.402l-0.29-0.003
			c0.07-0.214,0.165-0.389,0.264-0.572c0.105-0.179,0.214-0.352,0.34-0.515c0.115-0.17,0.257-0.321,0.387-0.478
			c0.138-0.15,0.285-0.293,0.427-0.441l0.463-0.403l0.494-0.368c0.165-0.12,0.342-0.224,0.514-0.334
			c0.169-0.114,0.351-0.21,0.532-0.308c0.182-0.093,0.354-0.202,0.545-0.283l0.559-0.252c0.185-0.091,0.381-0.154,0.571-0.228
			l0.576-0.212c0.393-0.123,0.786-0.24,1.177-0.351l1.196-0.281l0.177-0.041v0.188v0.574c-0.005,0.097,0.013,0.193,0.02,0.288
			l0.027,0.285c0.016,0.191,0.073,0.375,0.106,0.563c0.034,0.189,0.112,0.364,0.166,0.547c0.026,0.094,0.073,0.177,0.112,0.263
			l0.124,0.26c0.035,0.088,0.097,0.163,0.146,0.247l0.152,0.241c0.054,0.079,0.121,0.15,0.181,0.226l0.184,0.223l0.418,0.398
			l-0.233,0.142l-0.091-0.431c-0.014-0.147-0.025-0.293-0.034-0.443c0.009-0.295,0.041-0.594,0.147-0.877l0.079-0.21l0.106-0.198
			c0.064-0.135,0.162-0.25,0.249-0.371c0.092-0.119,0.199-0.223,0.302-0.329c0.116-0.096,0.221-0.204,0.344-0.286
			c0.239-0.177,0.489-0.335,0.754-0.465c0.262-0.136,0.536-0.248,0.81-0.349c0.275-0.103,0.556-0.188,0.839-0.264
			c0.278-0.076,0.558-0.155,0.829-0.241c1.093-0.349,2.159-0.786,3.156-1.34c0.249-0.14,0.496-0.281,0.73-0.441
			c0.24-0.152,0.468-0.321,0.691-0.494c0.223-0.175,0.428-0.363,0.628-0.561l0.281-0.308l0.25-0.331l0.387-0.503l-0.138,0.602
			L41.89,22.27c-0.028,0.125-0.053,0.252-0.093,0.373l-0.111,0.374c-0.034,0.125-0.086,0.242-0.129,0.363
			c-0.048,0.121-0.087,0.244-0.141,0.361l-0.162,0.354c-0.047,0.119-0.114,0.229-0.174,0.346c-0.061,0.114-0.119,0.229-0.188,0.338
			c-0.129,0.224-0.272,0.44-0.42,0.653c-0.074,0.107-0.157,0.208-0.231,0.313c-0.079,0.106-0.165,0.202-0.246,0.302
			c-0.169,0.202-0.347,0.39-0.531,0.575c-0.191,0.182-0.381,0.357-0.598,0.52l-0.119-0.229c0.237-0.08,0.481-0.169,0.717-0.274
			c0.236-0.097,0.466-0.216,0.695-0.328c0.225-0.128,0.457-0.237,0.674-0.379c0.218-0.133,0.443-0.261,0.65-0.411
			c0.211-0.147,0.426-0.289,0.627-0.449c0.197-0.161,0.411-0.306,0.598-0.483c0.19-0.169,0.387-0.334,0.574-0.509l0.539-0.545
			c0.186-0.179,0.341-0.384,0.509-0.573c0.17-0.192,0.336-0.385,0.481-0.595l0.455-0.612l0.409-0.647
			c0.136-0.213,0.273-0.429,0.385-0.658l0.355-0.675c0.124-0.222,0.206-0.463,0.31-0.694l0.299-0.7l0.408-0.957L47.27,18.44
			l-0.176,1.114c-0.03,0.186-0.078,0.369-0.115,0.553l-0.121,0.551c-0.043,0.183-0.102,0.363-0.151,0.545
			c-0.053,0.181-0.099,0.363-0.158,0.542l-0.189,0.535c-0.058,0.18-0.134,0.354-0.21,0.525c-0.078,0.175-0.147,0.353-0.234,0.523
			l-0.263,0.504C45.56,24,45.452,24.16,45.353,24.322c-0.095,0.165-0.222,0.312-0.331,0.468c-0.107,0.158-0.247,0.295-0.369,0.442
			c-0.133,0.141-0.269,0.28-0.414,0.408l-0.222,0.188l-0.237,0.173c-0.171,0.107-0.329,0.21-0.534,0.286l0.009-0.225
			c0.247,0.094,0.516,0.172,0.781,0.237c0.268,0.066,0.54,0.12,0.813,0.163c0.271,0.047,0.547,0.074,0.822,0.098
			c0.274,0.02,0.549,0.025,0.826,0.025c0.275-0.005,0.551-0.021,0.825-0.048l0.409-0.055l0.405-0.076
			c0.27-0.06,0.536-0.125,0.796-0.212c0.132-0.036,0.26-0.09,0.388-0.137c0.129-0.046,0.256-0.098,0.38-0.156
			c0.253-0.108,0.49-0.241,0.73-0.372c0.23-0.146,0.466-0.286,0.682-0.455c0.226-0.153,0.426-0.339,0.636-0.512
			c0.19-0.195,0.399-0.37,0.574-0.58l0.271-0.304l0.252-0.322c0.175-0.209,0.315-0.442,0.47-0.663
			c0.152-0.227,0.281-0.465,0.422-0.698l0.374-0.723l0.099-0.189l0.105,0.173l0.229,0.378c0.079,0.126,0.155,0.254,0.214,0.387
			l0.189,0.4l0.152,0.414c0.054,0.136,0.096,0.278,0.13,0.421s0.077,0.283,0.105,0.426l0.075,0.433
			c0.027,0.145,0.031,0.291,0.047,0.436c0.02,0.146,0.026,0.292,0.029,0.437c0.002,0.146,0.011,0.292,0.004,0.44
			c-0.006,0.292-0.028,0.583-0.062,0.873c-0.036,0.29-0.083,0.577-0.147,0.862c-0.061,0.289-0.135,0.566-0.234,0.852l-0.15-0.142
			c0.207-0.089,0.414-0.196,0.611-0.311c0.203-0.111,0.399-0.234,0.59-0.364c0.188-0.13,0.376-0.266,0.549-0.414
			c0.178-0.142,0.342-0.303,0.506-0.462l0.229-0.252c0.078-0.083,0.14-0.178,0.211-0.266c0.071-0.088,0.136-0.181,0.191-0.279
			c0.061-0.096,0.127-0.188,0.174-0.288l0.146-0.302c0.05-0.101,0.076-0.212,0.113-0.316c0.038-0.106,0.072-0.211,0.088-0.322
			l0.064-0.329l0.093-0.493l0.125,0.488l0.059,0.234c0.023,0.079,0.036,0.16,0.064,0.235l0.092,0.222
			c0.025,0.077,0.066,0.147,0.109,0.214c0.045,0.066,0.076,0.142,0.129,0.2c0.053,0.062,0.098,0.127,0.154,0.184
			c0.061,0.052,0.111,0.113,0.178,0.156c0.061,0.046,0.132,0.092,0.19,0.117l0.083,0.039l-0.016,0.084
			c-0.136,0.724-0.199,1.474-0.237,2.217c-0.031,0.371-0.026,0.745-0.031,1.118c-0.003,0.374-0.015,0.748,0.011,1.12l0.045,1.12
			c0.012,0.373,0.062,0.743,0.092,1.116l0.102,1.116l0.16,1.11l0.314,2.226c0.078,0.749,0.121,1.509,0.078,2.262
			c-0.041,0.752-0.15,1.505-0.362,2.233c-0.073,0.373-0.239,0.719-0.37,1.074c-0.12,0.361-0.314,0.69-0.492,1.025
			c-0.094,0.166-0.176,0.338-0.273,0.499l-0.327,0.471c-0.218,0.311-0.426,0.632-0.688,0.91c-0.253,0.284-0.488,0.585-0.755,0.857
			l-0.824,0.795l-0.207,0.198l-0.221,0.182L55.2,47.664c-0.3,0.236-0.581,0.497-0.897,0.712l-0.933,0.667
			c-0.155,0.11-0.31,0.226-0.471,0.329l-0.483,0.304c-0.649,0.409-1.287,0.828-1.962,1.192c-0.668,0.375-1.328,0.763-2.016,1.099
			c-0.685,0.345-1.353,0.717-2.052,1.035l-2.078,0.978l0.003-0.159l0.729,0.343l0.746,0.31c0.25,0.098,0.505,0.185,0.757,0.277
			c0.254,0.092,0.514,0.161,0.771,0.246c0.256,0.083,0.521,0.143,0.78,0.215c0.26,0.074,0.526,0.127,0.788,0.188
			c0.263,0.063,0.528,0.112,0.794,0.161c0.266,0.053,0.531,0.095,0.8,0.132c0.266,0.042,0.534,0.078,0.804,0.104
			c0.269,0.031,0.538,0.062,0.807,0.076c0.271,0.021,0.54,0.043,0.811,0.048c0.271,0.009,0.54,0.02,0.812,0.014
			c0.269,0.001,0.538-0.003,0.809-0.019c0.27-0.009,0.537-0.031,0.806-0.061c0.27-0.019,0.538-0.065,0.803-0.104
			c0.268-0.035,0.526-0.103,0.792-0.156l0.164-0.029l-0.066,0.147c-0.07,0.152-0.145,0.305-0.196,0.462
			c-0.062,0.156-0.104,0.319-0.138,0.482c-0.064,0.325-0.074,0.659-0.01,0.984c0.029,0.16,0.08,0.318,0.148,0.469
			c0.063,0.153,0.152,0.295,0.248,0.432c0.096,0.135,0.21,0.259,0.326,0.379c0.123,0.117,0.253,0.225,0.389,0.324
			c0.554,0.396,1.204,0.657,1.874,0.82c0.669,0.164,1.365,0.23,2.054,0.188l0.106-0.007l-0.023,0.106l-0.071,0.323
			c-0.008,0.11-0.031,0.218-0.031,0.329c-0.003,0.219,0.023,0.438,0.097,0.641c0.079,0.202,0.183,0.397,0.341,0.553
			c0.152,0.155,0.33,0.295,0.531,0.396c0.197,0.105,0.412,0.184,0.631,0.241c0.219,0.064,0.446,0.093,0.673,0.12
			c0.456,0.038,0.918,0.011,1.37-0.074c0.444-0.093,0.889-0.233,1.264-0.481c0.19-0.118,0.36-0.269,0.486-0.446
			c0.129-0.181,0.198-0.372,0.228-0.604c0.026-0.112,0.035-0.223,0.038-0.33c0.014-0.108,0.002-0.218-0.008-0.327
			c-0.023-0.215-0.085-0.432-0.205-0.613c-0.227-0.372-0.654-0.612-1.088-0.686l-0.064-0.015l0.008-0.061l0.048-0.459l0.001-0.231
			c-0.001-0.077,0.006-0.151-0.002-0.229c-0.023-0.149-0.023-0.308-0.066-0.453c-0.02-0.075-0.033-0.151-0.055-0.224l-0.08-0.215
			c-0.023-0.072-0.068-0.135-0.102-0.204c-0.032-0.068-0.076-0.133-0.121-0.195c-0.041-0.064-0.088-0.123-0.143-0.177
			c-0.049-0.06-0.103-0.113-0.162-0.163c-0.111-0.106-0.244-0.188-0.376-0.267c-0.138-0.072-0.282-0.133-0.428-0.166l-0.063-0.017
			l0.017-0.06c0.22-0.749,0.38-1.523,0.45-2.3c0.021-0.194,0.027-0.391,0.029-0.585c0.003-0.098-0.004-0.194-0.006-0.291
			c-0.002-0.099-0.01-0.192-0.025-0.292c-0.012-0.095-0.016-0.193-0.041-0.284c-0.023-0.095-0.037-0.189-0.07-0.282
			c-0.033-0.089-0.063-0.182-0.1-0.269l-0.145-0.251L64.52,51.65l0.063-0.021c0.126-0.042,0.251-0.08,0.369-0.142
			c0.122-0.047,0.23-0.126,0.345-0.189c0.108-0.075,0.22-0.146,0.321-0.23c0.098-0.087,0.206-0.166,0.295-0.263
			c0.093-0.095,0.188-0.185,0.268-0.289c0.086-0.099,0.169-0.2,0.238-0.312c0.076-0.105,0.149-0.215,0.208-0.333
			c0.063-0.112,0.125-0.229,0.17-0.35c0.05-0.121,0.104-0.24,0.134-0.366c0.032-0.128,0.078-0.25,0.092-0.38
			c0.018-0.127,0.051-0.257,0.054-0.385l0.016-0.389l-0.034-0.389c-0.004-0.132-0.049-0.258-0.07-0.382
			c-0.025-0.132-0.051-0.258-0.102-0.38L66.76,46.48l-0.114-0.334l0.192,0.298c0.283,0.435,0.614,0.844,0.998,1.197
			c0.101,0.086,0.199,0.171,0.308,0.243c0.104,0.074,0.218,0.141,0.337,0.191c0.061,0.02,0.118,0.054,0.182,0.062
			c0.063,0.012,0.126,0.033,0.189,0.036c0.064-0.005,0.128,0.001,0.19-0.008l0.183-0.049l0.002,0.071
			c-0.111-0.056-0.236-0.09-0.338-0.163l-0.154-0.107c-0.049-0.039-0.089-0.091-0.133-0.134c-0.096-0.085-0.145-0.2-0.216-0.305
			c-0.038-0.115-0.102-0.229-0.116-0.349c-0.029-0.119-0.047-0.24-0.047-0.363c-0.012-0.122,0-0.244,0.01-0.364
			c0.004-0.121,0.034-0.24,0.053-0.359c0.018-0.121,0.059-0.237,0.089-0.354c0.028-0.117,0.075-0.229,0.116-0.345
			c0.039-0.115,0.088-0.225,0.137-0.335c0.096-0.225,0.213-0.437,0.326-0.651c0.123-0.211,0.248-0.417,0.387-0.615
			c0.13-0.207,0.285-0.396,0.427-0.592l-0.003,0.003l0.192-0.366c0.061-0.123,0.136-0.242,0.187-0.369
			c0.104-0.253,0.228-0.502,0.309-0.762l0.137-0.389l0.109-0.396c0.041-0.131,0.068-0.267,0.095-0.4
			c0.025-0.136,0.06-0.268,0.077-0.405l0.057-0.407l0.033-0.409c0.016-0.136,0.01-0.272,0.016-0.411
			c0.006-0.137-0.002-0.271-0.006-0.411c-0.008-0.273-0.038-0.544-0.075-0.816c-0.043-0.271-0.096-0.542-0.179-0.801l0.039-0.015
			c0.118,0.24,0.223,0.485,0.313,0.736c0.096,0.248,0.168,0.504,0.241,0.759l0.083,0.391c0.034,0.127,0.041,0.263,0.057,0.395
			c0.014,0.131,0.037,0.265,0.025,0.397l-0.011,0.399l-0.032-0.013c0.137-0.201,0.281-0.399,0.41-0.604
			c0.119-0.21,0.259-0.413,0.363-0.633c0.108-0.214,0.217-0.432,0.304-0.66c0.101-0.221,0.168-0.454,0.243-0.685
			c0.061-0.232,0.127-0.466,0.162-0.706c0.018-0.119,0.039-0.239,0.055-0.359l0.029-0.359c0.006-0.243,0.017-0.485-0.008-0.725
			c-0.01-0.243-0.051-0.482-0.088-0.719c-0.049-0.237-0.105-0.474-0.179-0.705c-0.073-0.23-0.152-0.46-0.251-0.681
			c-0.094-0.223-0.199-0.441-0.318-0.653c-0.115-0.215-0.242-0.424-0.379-0.626c-0.27-0.404-0.575-0.788-0.904-1.149
			C70.537,30.242,70.181,29.901,69.791,29.601z M69.791,29.601c0.39,0.299,0.747,0.639,1.081,0.996
			c0.331,0.359,0.638,0.744,0.909,1.149c0.136,0.202,0.264,0.409,0.381,0.623c0.119,0.213,0.227,0.431,0.321,0.657
			c0.099,0.221,0.18,0.45,0.255,0.68c0.073,0.232,0.129,0.468,0.179,0.706c0.04,0.239,0.079,0.478,0.091,0.72
			c0.025,0.241,0.015,0.484,0.008,0.726l-0.027,0.362c-0.014,0.12-0.037,0.238-0.053,0.359c-0.035,0.239-0.102,0.474-0.161,0.71
			c-0.076,0.23-0.144,0.464-0.242,0.687c-0.086,0.228-0.193,0.445-0.305,0.664c-0.103,0.221-0.241,0.422-0.358,0.635
			c-0.131,0.207-0.275,0.404-0.41,0.607l-0.034,0.048l0.003-0.06l0.008-0.394c0.016-0.13-0.013-0.262-0.023-0.395
			c-0.018-0.131-0.023-0.263-0.059-0.392l-0.082-0.387c-0.076-0.253-0.146-0.509-0.242-0.756c-0.093-0.249-0.196-0.493-0.313-0.731
			l0.041-0.017c0.083,0.268,0.136,0.537,0.18,0.806c0.041,0.276,0.068,0.551,0.078,0.826c0.004,0.138,0.014,0.273,0.008,0.411
			c-0.008,0.139,0.001,0.277-0.014,0.414l-0.031,0.411l-0.058,0.411c-0.016,0.136-0.05,0.271-0.076,0.407
			c-0.026,0.134-0.053,0.27-0.093,0.401l-0.109,0.398l-0.135,0.393c-0.082,0.264-0.205,0.512-0.313,0.769
			c-0.051,0.127-0.124,0.248-0.186,0.37l-0.19,0.368l-0.001,0.002l-0.002,0.004c-0.141,0.195-0.294,0.384-0.423,0.588
			c-0.138,0.197-0.26,0.405-0.381,0.613c-0.112,0.214-0.229,0.424-0.321,0.646c-0.052,0.108-0.098,0.221-0.137,0.333
			c-0.039,0.113-0.084,0.223-0.111,0.34c-0.03,0.115-0.07,0.229-0.088,0.348c-0.02,0.118-0.048,0.233-0.049,0.352
			c-0.012,0.118-0.023,0.236-0.011,0.355c0,0.118,0.021,0.235,0.046,0.35c0.016,0.119,0.078,0.224,0.114,0.332
			c0.068,0.097,0.112,0.21,0.204,0.288c0.042,0.043,0.076,0.089,0.124,0.126l0.147,0.101c0.096,0.07,0.215,0.102,0.322,0.155
			l0.092,0.046l-0.088,0.025l-0.204,0.056c-0.069,0.009-0.138,0.004-0.209,0.007c-0.069,0-0.137-0.023-0.202-0.035
			c-0.071-0.011-0.131-0.046-0.194-0.066c-0.126-0.053-0.243-0.121-0.354-0.197c-0.112-0.077-0.214-0.161-0.316-0.249
			c-0.392-0.359-0.728-0.773-1.016-1.214l0.077-0.038l0.131,0.378c0.049,0.124,0.079,0.254,0.104,0.385
			c0.022,0.129,0.067,0.255,0.071,0.389l0.036,0.397l-0.013,0.4c-0.002,0.131-0.035,0.262-0.055,0.395
			c-0.014,0.132-0.061,0.258-0.094,0.387c-0.029,0.132-0.084,0.254-0.135,0.377c-0.047,0.126-0.11,0.244-0.174,0.36
			c-0.06,0.117-0.135,0.232-0.212,0.341c-0.071,0.114-0.157,0.219-0.241,0.32c-0.083,0.108-0.18,0.2-0.275,0.295
			c-0.092,0.102-0.2,0.184-0.303,0.271c-0.104,0.088-0.216,0.162-0.327,0.24c-0.118,0.068-0.229,0.143-0.358,0.197
			c-0.123,0.063-0.253,0.105-0.385,0.146l0.029-0.079l0.154,0.266c0.038,0.092,0.072,0.188,0.108,0.281
			c0.032,0.096,0.048,0.194,0.069,0.291c0.029,0.098,0.033,0.198,0.047,0.296c0.015,0.099,0.023,0.198,0.025,0.297
			c0.002,0.1,0.01,0.197,0.007,0.297c-0.003,0.199-0.009,0.397-0.028,0.594c-0.07,0.787-0.228,1.563-0.446,2.325l-0.048-0.076
			c0.168,0.04,0.318,0.104,0.463,0.181c0.141,0.08,0.283,0.168,0.4,0.28c0.064,0.053,0.121,0.111,0.173,0.171
			c0.058,0.061,0.108,0.123,0.153,0.191c0.045,0.063,0.093,0.13,0.127,0.203c0.037,0.074,0.084,0.143,0.107,0.217l0.087,0.225
			c0.024,0.077,0.038,0.156,0.058,0.234c0.047,0.154,0.047,0.313,0.069,0.472c0.009,0.078,0.002,0.156,0.006,0.236l-0.003,0.238
			l-0.048,0.474l-0.056-0.075c0.245,0.04,0.467,0.126,0.677,0.249c0.205,0.123,0.383,0.293,0.511,0.496
			c0.133,0.199,0.198,0.434,0.225,0.668c0.009,0.117,0.022,0.233,0.009,0.353c-0.003,0.116-0.013,0.234-0.037,0.343
			c-0.027,0.218-0.109,0.471-0.25,0.658c-0.139,0.198-0.321,0.356-0.522,0.485c-0.398,0.261-0.855,0.409-1.316,0.506
			c-0.465,0.088-0.939,0.117-1.411,0.077c-0.234-0.024-0.471-0.055-0.7-0.12c-0.229-0.059-0.454-0.143-0.665-0.252
			c-0.213-0.107-0.403-0.258-0.572-0.426c-0.171-0.171-0.288-0.385-0.374-0.605c-0.082-0.225-0.112-0.462-0.106-0.696
			c-0.003-0.118,0.021-0.233,0.031-0.349l0.075-0.341l0.084,0.099c-0.707,0.043-1.42-0.024-2.105-0.19
			c-0.687-0.166-1.355-0.434-1.932-0.845c-0.143-0.104-0.278-0.218-0.407-0.34c-0.126-0.126-0.244-0.257-0.347-0.401
			c-0.103-0.144-0.195-0.296-0.264-0.459c-0.075-0.161-0.129-0.331-0.162-0.505c-0.069-0.345-0.059-0.702,0.012-1.046
			c0.035-0.17,0.078-0.339,0.142-0.503c0.054-0.166,0.132-0.321,0.203-0.479l0.097,0.115c-0.269,0.053-0.534,0.122-0.805,0.159
			c-0.27,0.039-0.539,0.085-0.811,0.104c-0.273,0.03-0.545,0.051-0.818,0.06c-0.272,0.021-0.545,0.022-0.816,0.022
			c-0.272,0.007-0.546-0.002-0.818-0.014c-0.273-0.006-0.543-0.025-0.816-0.048c-0.273-0.016-0.545-0.045-0.815-0.074
			c-0.269-0.027-0.54-0.063-0.809-0.107c-0.27-0.034-0.539-0.079-0.808-0.131c-0.268-0.05-0.535-0.1-0.799-0.161
			c-0.266-0.062-0.532-0.114-0.795-0.19c-0.262-0.071-0.527-0.131-0.786-0.217c-0.259-0.082-0.522-0.155-0.778-0.248
			c-0.254-0.091-0.514-0.178-0.766-0.278l-0.755-0.311l-0.89-1.17l-0.013,0.745l0.208-0.78l2.025-0.434
			c0.695-0.318,1.373-0.535,2.055-0.877c0.688-0.339,1.343-0.728,2.008-1.1c0.674-0.362,1.309-0.781,1.953-1.187l0.481-0.305
			c0.159-0.104,0.313-0.22,0.466-0.328l0.927-0.661c0.315-0.216,0.593-0.476,0.89-0.71l0.439-0.36l0.219-0.184l0.202-0.195
			l0.815-0.787c0.264-0.268,0.497-0.565,0.746-0.847c0.258-0.274,0.461-0.591,0.674-0.896l0.32-0.463
			c0.097-0.16,0.18-0.33,0.27-0.491c0.176-0.33,0.366-0.653,0.483-1.007c0.126-0.35,0.29-0.688,0.361-1.053
			c0.206-0.714,0.315-1.452,0.353-2.193c0.043-0.745,0-1.481-0.079-2.224l-0.316-2.226L59.4,33.479l-0.104-1.124
			c-0.03-0.373-0.082-0.746-0.093-1.122l-0.048-1.126c-0.021-0.374-0.013-0.751-0.01-1.126c0.004-0.376-0.002-0.752,0.029-1.127
			c0.038-0.753,0.1-1.499,0.237-2.252l0.067,0.123c-0.098-0.044-0.167-0.09-0.243-0.146c-0.075-0.051-0.136-0.121-0.202-0.177
			c-0.036-0.03-0.06-0.069-0.088-0.102l-0.084-0.104c-0.063-0.066-0.096-0.147-0.145-0.22c-0.046-0.075-0.092-0.15-0.119-0.234
			l-0.101-0.241c-0.03-0.081-0.044-0.168-0.068-0.25l-0.063-0.25l0.218-0.008l-0.064,0.349c-0.018,0.117-0.055,0.229-0.096,0.34
			c-0.039,0.111-0.066,0.228-0.117,0.333l-0.154,0.319c-0.052,0.109-0.121,0.205-0.181,0.305c-0.06,0.104-0.127,0.199-0.2,0.291
			c-0.074,0.093-0.141,0.191-0.222,0.278l-0.238,0.262c-0.169,0.165-0.338,0.331-0.522,0.478c-0.18,0.155-0.371,0.294-0.566,0.428
			s-0.395,0.259-0.602,0.375c-0.207,0.117-0.414,0.225-0.639,0.323l-0.234,0.103l0.084-0.24c0.093-0.264,0.168-0.544,0.227-0.821
			c0.063-0.278,0.106-0.56,0.141-0.843c0.032-0.283,0.055-0.568,0.061-0.852c0.006-0.142-0.004-0.283-0.006-0.426
			c-0.003-0.143-0.01-0.284-0.025-0.425c-0.018-0.142-0.021-0.285-0.048-0.423l-0.075-0.42c-0.025-0.14-0.068-0.274-0.103-0.413
			c-0.032-0.138-0.073-0.275-0.125-0.408l-0.147-0.398l-0.184-0.387c-0.059-0.13-0.13-0.253-0.207-0.373l-0.222-0.369l0.202-0.014
			l-0.38,0.736c-0.144,0.237-0.272,0.482-0.428,0.711c-0.161,0.229-0.304,0.465-0.481,0.679l-0.256,0.329l-0.278,0.313
			c-0.181,0.211-0.395,0.398-0.59,0.595c-0.217,0.179-0.421,0.371-0.653,0.529c-0.223,0.175-0.463,0.319-0.701,0.468
			c-0.248,0.136-0.496,0.274-0.754,0.384c-0.13,0.062-0.262,0.117-0.394,0.164c-0.132,0.05-0.265,0.103-0.399,0.142
			c-0.27,0.088-0.546,0.157-0.82,0.219l-0.42,0.077l-0.419,0.057c-0.283,0.027-0.565,0.044-0.851,0.052
			c-0.281,0-0.564-0.006-0.848-0.027c-0.282-0.021-0.563-0.05-0.843-0.097c-0.28-0.044-0.556-0.099-0.83-0.167
			c-0.277-0.07-0.545-0.145-0.819-0.247l-0.299-0.111l0.307-0.113c0.154-0.058,0.319-0.159,0.471-0.256l0.225-0.163l0.211-0.18
			c0.139-0.123,0.27-0.253,0.395-0.389c0.117-0.143,0.25-0.274,0.354-0.425c0.106-0.154,0.229-0.294,0.321-0.455
			c0.096-0.161,0.2-0.313,0.289-0.476l0.258-0.494c0.084-0.166,0.149-0.338,0.227-0.509c0.076-0.169,0.148-0.341,0.205-0.517
			l0.186-0.524c0.061-0.176,0.104-0.357,0.156-0.536c0.049-0.179,0.105-0.356,0.147-0.537l0.12-0.543
			c0.037-0.182,0.084-0.363,0.112-0.547l0.175-1.1l0.247,0.059l-0.302,0.71c-0.109,0.234-0.189,0.481-0.317,0.705l-0.358,0.685
			c-0.114,0.235-0.251,0.453-0.391,0.673l-0.415,0.654l-0.462,0.625c-0.148,0.213-0.316,0.41-0.49,0.604
			c-0.172,0.193-0.328,0.402-0.516,0.583l-0.549,0.556c-0.191,0.177-0.391,0.347-0.584,0.521c-0.19,0.179-0.408,0.326-0.611,0.49
			c-0.201,0.166-0.42,0.311-0.637,0.458c-0.213,0.154-0.439,0.285-0.664,0.424c-0.22,0.141-0.457,0.254-0.685,0.383
			c-0.237,0.115-0.469,0.237-0.715,0.339c-0.241,0.109-0.486,0.199-0.746,0.283l-0.741,0.24l0.625-0.47
			c0.194-0.145,0.384-0.32,0.566-0.494c0.176-0.178,0.351-0.362,0.513-0.555c0.08-0.1,0.165-0.192,0.239-0.294
			c0.073-0.101,0.152-0.202,0.226-0.304c0.144-0.209,0.28-0.418,0.406-0.636c0.067-0.106,0.125-0.218,0.184-0.33
			c0.057-0.112,0.121-0.221,0.17-0.335l0.154-0.343c0.053-0.115,0.09-0.234,0.137-0.35c0.042-0.119,0.092-0.234,0.125-0.355
			l0.107-0.36c0.04-0.118,0.061-0.242,0.09-0.364l0.083-0.365l0.247,0.098l-0.266,0.35l-0.295,0.326
			c-0.209,0.204-0.425,0.402-0.653,0.582c-0.23,0.18-0.465,0.354-0.709,0.512c-0.244,0.164-0.495,0.307-0.747,0.452
			c-1.018,0.566-2.099,1.009-3.209,1.364c-0.283,0.09-0.559,0.168-0.839,0.245c-0.275,0.076-0.548,0.158-0.816,0.256
			c-0.264,0.098-0.528,0.207-0.778,0.337c-0.253,0.125-0.49,0.275-0.712,0.439c-0.115,0.079-0.211,0.18-0.318,0.266
			c-0.094,0.099-0.192,0.194-0.274,0.3c-0.078,0.112-0.168,0.214-0.224,0.338l-0.097,0.175l-0.07,0.189
			c-0.093,0.249-0.123,0.518-0.13,0.784l0.032,0.403l0.083,0.397l0.099,0.458l-0.331-0.314c-0.147-0.141-0.298-0.28-0.443-0.424
			l-0.195-0.232c-0.065-0.08-0.134-0.155-0.19-0.241l-0.165-0.255c-0.051-0.088-0.117-0.169-0.156-0.263l-0.129-0.275
			c-0.043-0.091-0.092-0.181-0.12-0.279c-0.058-0.193-0.141-0.381-0.178-0.58c-0.037-0.196-0.092-0.392-0.11-0.592l-0.029-0.299
			c-0.008-0.101-0.026-0.199-0.022-0.299v-0.599l0.174,0.145l-1.177,0.277c-0.388,0.112-0.774,0.229-1.158,0.347l-0.565,0.21
			c-0.188,0.073-0.378,0.135-0.558,0.224l-0.547,0.247c-0.185,0.08-0.355,0.185-0.531,0.277c-0.176,0.093-0.354,0.188-0.518,0.299
			c-0.167,0.109-0.341,0.208-0.5,0.327l-0.477,0.355l-0.445,0.392c-0.137,0.137-0.279,0.276-0.411,0.422
			c-0.123,0.149-0.259,0.294-0.369,0.456c-0.118,0.154-0.221,0.317-0.318,0.484c-0.093,0.168-0.185,0.348-0.239,0.51l-0.175,0.54
			l-0.116-0.545c-0.032-0.149-0.058-0.29-0.072-0.437c-0.021-0.145-0.032-0.29-0.035-0.436c-0.012-0.145-0.014-0.291-0.004-0.437
			c0.008-0.145,0.001-0.292,0.026-0.436l0.062-0.435c0.031-0.142,0.073-0.284,0.109-0.425l0.056-0.212l0.089-0.205L22.434,27
			l0.206,0.202c-0.114,0.072-0.234,0.13-0.346,0.212c-0.11,0.081-0.224,0.158-0.324,0.251c-0.104,0.088-0.208,0.179-0.303,0.279
			c-0.098,0.097-0.193,0.198-0.279,0.305c-0.093,0.101-0.18,0.209-0.26,0.321c-0.085,0.109-0.166,0.221-0.24,0.336
			c-0.079,0.115-0.154,0.229-0.221,0.35c-0.069,0.117-0.143,0.236-0.2,0.362c-0.06,0.122-0.128,0.242-0.18,0.37
			c-0.051,0.129-0.114,0.251-0.157,0.38c-0.098,0.257-0.175,0.52-0.241,0.783l-0.078,0.404l-0.044,0.402l-0.008,0.406l0.034,0.4
			l0.036,0.438l-0.298-0.307l-0.374-0.384c-0.12-0.13-0.257-0.248-0.361-0.392c-0.11-0.142-0.222-0.281-0.331-0.425
			c-0.096-0.155-0.201-0.292-0.286-0.468l0.291-0.008c-0.105,0.258-0.219,0.502-0.365,0.741c-0.032,0.061-0.077,0.119-0.115,0.177
			c-0.04,0.057-0.078,0.117-0.128,0.169l-0.072,0.084c-0.025,0.026-0.042,0.057-0.076,0.08l-0.183,0.148l0.074-0.155l0.037,0.425
			c0.02,0.142,0.007,0.28,0.008,0.42c-0.005,0.141,0.001,0.28-0.014,0.419l-0.036,0.412c-0.023,0.277-0.067,0.547-0.1,0.823
			c-0.035,0.271-0.08,0.542-0.119,0.813l-0.246,1.624c-0.084,0.539-0.151,1.082-0.223,1.622v-0.01l-0.009,0.803
			c0.012,0.269,0.035,0.535,0.053,0.8c0.033,0.268,0.081,0.531,0.119,0.796c0.054,0.265,0.124,0.522,0.185,0.781
			c0.077,0.257,0.166,0.513,0.247,0.765l0.311,0.745l0.366,0.721c0.142,0.231,0.277,0.466,0.42,0.693
			c0.157,0.221,0.305,0.448,0.469,0.665c0.169,0.209,0.329,0.43,0.507,0.636c0.182,0.202,0.356,0.411,0.544,0.609
			c0.193,0.19,0.379,0.392,0.579,0.579c0.201,0.183,0.397,0.373,0.604,0.553c0.209,0.175,0.417,0.356,0.63,0.527l0.65,0.501
			l0.67,0.481l0.687,0.457l0.704,0.438c0.472,0.281,0.952,0.555,1.438,0.815c0.976,0.52,1.975,0.992,2.993,1.431
			c2.036,0.877,4.136,1.606,6.268,2.236l0.522,0.155l-0.542,0.123l-0.316,0.073c-0.107,0.027-0.212,0.066-0.316,0.1
			c-0.212,0.069-0.418,0.153-0.629,0.238l-1.257,0.52c-0.422,0.172-0.855,0.322-1.292,0.463l-0.665,0.184l-0.674,0.148
			c-0.227,0.04-0.456,0.067-0.682,0.104c-0.228,0.041-0.459,0.045-0.688,0.066c-0.23,0.025-0.462,0.022-0.691,0.025
			c-0.232,0-0.46,0.009-0.692-0.012l-0.688-0.047l-0.682-0.095c-0.229-0.026-0.453-0.071-0.676-0.122l-0.676-0.143l0.177-0.145
			l0.001,0.306c0.005,0.102-0.009,0.202-0.026,0.304c-0.019,0.102-0.022,0.203-0.057,0.3l-0.091,0.292
			c-0.032,0.096-0.081,0.188-0.121,0.28c-0.039,0.094-0.092,0.181-0.147,0.267c-0.054,0.084-0.1,0.176-0.167,0.254l-0.185,0.242
			c-0.134,0.149-0.27,0.299-0.419,0.434c-0.147,0.137-0.303,0.269-0.465,0.39c-0.324,0.239-0.661,0.454-1.035,0.635l0.071-0.173
			l0.13,0.437c0.026,0.151,0.036,0.304,0.053,0.455c-0.004,0.153-0.021,0.307-0.033,0.456c-0.037,0.147-0.076,0.297-0.119,0.443
			c-0.063,0.137-0.12,0.281-0.191,0.412c-0.084,0.128-0.159,0.26-0.252,0.38c-0.097,0.116-0.19,0.235-0.296,0.345
			c-0.108,0.103-0.215,0.212-0.33,0.31l-0.358,0.277l-0.382,0.242l-0.4,0.208c-0.137,0.067-0.279,0.122-0.417,0.182
			c-0.283,0.106-0.572,0.197-0.871,0.261c-0.297,0.063-0.611,0.104-0.902,0.112c-0.312,0.011-0.618-0.022-0.919-0.087
			c-0.152-0.026-0.295-0.09-0.442-0.133c-0.144-0.052-0.28-0.126-0.42-0.188c-0.133-0.076-0.263-0.16-0.39-0.245
			c-0.115-0.102-0.242-0.189-0.345-0.306c-0.098-0.116-0.216-0.22-0.291-0.355l-0.122-0.196c-0.041-0.065-0.062-0.142-0.094-0.211
			c-0.028-0.072-0.063-0.141-0.081-0.217l-0.047-0.226c-0.044-0.149-0.023-0.306-0.029-0.458c-0.003-0.153,0.047-0.302,0.072-0.452
			c0.036-0.149,0.104-0.286,0.157-0.428c0.141-0.271,0.298-0.53,0.5-0.754c0.183-0.243,0.426-0.423,0.64-0.634l-0.032,0.158
			l-0.16-0.35c-0.044-0.118-0.075-0.243-0.114-0.363c-0.034-0.124-0.042-0.251-0.065-0.376c-0.02-0.127-0.014-0.254-0.02-0.382
			c-0.003-0.125,0.021-0.252,0.031-0.38c0.012-0.127,0.052-0.25,0.077-0.373c0.029-0.124,0.082-0.242,0.121-0.36
			c0.045-0.121,0.111-0.232,0.164-0.349c0.061-0.111,0.136-0.217,0.203-0.323c0.072-0.105,0.159-0.2,0.239-0.302
			c0.086-0.096,0.183-0.18,0.272-0.271c0.098-0.085,0.201-0.161,0.303-0.239c0.107-0.071,0.22-0.137,0.332-0.205l0.354-0.161
			l0.372-0.119l0.387-0.068l-0.102,0.181c-0.209-0.416-0.393-0.843-0.604-1.245c-0.207-0.405-0.462-0.778-0.78-1.105
			c-0.318-0.321-0.678-0.609-1.067-0.861c-0.383-0.257-0.792-0.483-1.202-0.704c-0.418-0.212-0.835-0.42-1.264-0.613
			c-0.422-0.198-0.861-0.379-1.289-0.567c-0.87-0.378-1.71-0.828-2.49-1.364c-0.391-0.268-0.766-0.557-1.119-0.869
			c-0.355-0.311-0.691-0.647-0.994-1.008c-0.61-0.717-1.105-1.55-1.337-2.471c-0.236-0.913-0.151-1.917,0.276-2.772
			c0.21-0.425,0.49-0.816,0.806-1.167c0.317-0.356,0.686-0.658,1.061-0.948l0.082,0.207c-0.199,0.005-0.393,0.012-0.592,0.015
			c-0.196-0.024-0.395-0.021-0.591-0.072c-0.096-0.022-0.194-0.04-0.291-0.069l-0.284-0.108c-0.087-0.048-0.181-0.09-0.264-0.15
			l-0.126-0.093c-0.039-0.038-0.077-0.065-0.117-0.117l-0.146-0.184h0.245c0.393,0,0.83-0.111,1.085-0.388
			c0.259-0.283,0.269-0.709,0.182-1.097c-0.094-0.395-0.269-0.773-0.468-1.138c-0.201-0.367-0.434-0.717-0.678-1.056
			c-0.241-0.347-0.517-0.668-0.762-1.02L5.32,34.066c-0.12-0.177-0.223-0.367-0.333-0.55c-0.233-0.359-0.397-0.755-0.577-1.141
			c-0.099-0.19-0.143-0.403-0.217-0.604c-0.063-0.204-0.148-0.402-0.179-0.615l-0.128-0.628c-0.029-0.209-0.034-0.425-0.051-0.637
			c-0.006-0.107-0.024-0.215-0.017-0.321l0.02-0.319c0.017-0.213,0.008-0.431,0.064-0.637l0.131-0.632l0.211-0.605
			c0.031-0.103,0.08-0.2,0.13-0.295l0.148-0.286l0.149-0.286l0.188-0.264c0.131-0.172,0.234-0.365,0.388-0.518l0.442-0.473
			c0.155-0.15,0.33-0.281,0.492-0.422c0.085-0.071,0.166-0.142,0.251-0.208l0.272-0.178c0.183-0.114,0.359-0.242,0.549-0.349
			l0.582-0.296c0.19-0.105,0.391-0.181,0.595-0.256l0.609-0.234l0.011,0.202l-0.293-0.087c-0.099-0.027-0.196-0.059-0.287-0.106
			L8.197,23.19l-0.257-0.157c-0.088-0.051-0.164-0.119-0.244-0.179c-0.083-0.061-0.158-0.124-0.229-0.194
			c-0.076-0.065-0.146-0.138-0.212-0.213c-0.07-0.074-0.131-0.146-0.195-0.231l-0.167-0.22l0.282,0.059
			c0.307,0.066,0.646,0.076,0.967,0.037c0.32-0.04,0.636-0.134,0.901-0.311c0.264-0.173,0.496-0.401,0.645-0.685
			c0.086-0.131,0.143-0.28,0.195-0.432c0.068-0.145,0.086-0.304,0.123-0.458c0.043-0.151,0.052-0.318,0.065-0.482
			c0.016-0.167,0.03-0.32,0.036-0.487l0.024-0.496l0.049-0.495c0.029-0.33,0.087-0.658,0.147-0.985
			c0.068-0.325,0.139-0.65,0.249-0.966c0.044-0.162,0.099-0.319,0.165-0.473c0.067-0.155,0.113-0.315,0.197-0.462l0.23-0.45
			l0.276-0.422c0.086-0.147,0.208-0.266,0.314-0.399l0.163-0.196c0.057-0.062,0.121-0.116,0.184-0.177
			c0.127-0.111,0.239-0.238,0.379-0.339l0.414-0.302c0.141-0.096,0.295-0.17,0.445-0.254l0.221-0.125l0.237-0.098
			c0.159-0.065,0.315-0.133,0.475-0.193l0.492-0.146l0.244-0.071l0.253-0.047l0.502-0.095c0.336-0.05,0.677-0.073,1.016-0.11
			l-0.009,0.191l-0.411-0.102c-0.141-0.027-0.264-0.101-0.396-0.15c-0.063-0.03-0.132-0.05-0.19-0.087l-0.182-0.107
			c-0.121-0.068-0.24-0.143-0.346-0.232c-0.11-0.086-0.225-0.167-0.319-0.271c-0.097-0.098-0.204-0.188-0.286-0.299l-0.131-0.164
			c-0.045-0.052-0.077-0.117-0.117-0.176c-0.033-0.059-0.081-0.113-0.102-0.184l-0.082-0.201l0.185-0.058
			c0.087,0.18,0.263,0.346,0.465,0.433c0.208,0.085,0.436,0.145,0.67,0.13c0.058,0,0.116,0.001,0.175-0.001l0.175-0.025
			c0.117-0.014,0.233-0.03,0.348-0.068c0.114-0.033,0.23-0.059,0.342-0.095l0.335-0.128c0.889-0.362,1.696-0.896,2.477-1.454
			c0.779-0.572,1.524-1.182,2.318-1.739c0.785-0.567,1.599-1.096,2.422-1.61l1.259-0.73c0.431-0.225,0.855-0.463,1.291-0.679
			c0.44-0.204,0.874-0.429,1.319-0.623c0.45-0.185,0.892-0.392,1.348-0.563c0.458-0.166,0.909-0.354,1.373-0.502
			c0.466-0.146,0.925-0.309,1.396-0.44c0.471-0.125,0.938-0.261,1.414-0.376l1.43-0.313l1.445-0.243
			c0.483-0.074,0.97-0.119,1.455-0.178c0.482-0.068,0.976-0.081,1.464-0.117l0.731-0.047l0.731-0.013
			c0.972-0.034,1.956,0.009,2.93,0.047l1.462,0.124c0.484,0.054,0.967,0.133,1.451,0.2c0.482,0.074,0.959,0.188,1.439,0.28
			c0.476,0.11,0.944,0.248,1.416,0.374c0.926,0.308,1.852,0.63,2.709,1.1c0.859,0.452,1.687,0.986,2.391,1.656
			c0.705,0.663,1.303,1.464,1.578,2.399l-0.094-0.035l0.143-0.105c0.051-0.031,0.086-0.077,0.131-0.118
			c0.042-0.041,0.084-0.082,0.117-0.132c0.035-0.048,0.074-0.091,0.107-0.143c0.061-0.101,0.123-0.202,0.17-0.311
			c0.027-0.053,0.049-0.109,0.07-0.165c0.02-0.055,0.045-0.11,0.06-0.167c0.145-0.455,0.206-0.938,0.2-1.412l-0.002-0.23l0.11,0.198
			c0.124,0.224,0.216,0.454,0.292,0.691c0.039,0.118,0.072,0.241,0.097,0.361c0.028,0.121,0.048,0.245,0.061,0.368
			c0.015,0.125,0.02,0.25,0.02,0.374c0.005,0.063-0.007,0.125-0.009,0.187c-0.004,0.063-0.006,0.125-0.02,0.187
			c-0.015,0.124-0.04,0.246-0.076,0.366c-0.028,0.122-0.087,0.237-0.129,0.354l-0.082-0.063l0.764-0.512l0.414-0.207l0.207-0.106
			c0.065-0.038,0.143-0.053,0.215-0.082c0.147-0.049,0.293-0.103,0.441-0.149l0.457-0.088c0.08-0.008,0.157-0.008,0.234-0.014
			c0.079,0,0.156-0.013,0.234-0.001l0.236,0.023c0.076,0.022,0.152,0.027,0.233,0.06l0.089,0.035l-0.086,0.049
			c-0.227,0.131-0.453,0.273-0.657,0.442c-0.105,0.081-0.206,0.165-0.302,0.257c-0.094,0.09-0.2,0.173-0.283,0.275L59.26,7.375
			c-0.079,0.105-0.15,0.215-0.227,0.321l-0.11,0.162l-0.09,0.173l-0.178,0.351l-0.058-0.055c0.541-0.251,1.139-0.362,1.732-0.37
			c0.593-0.007,1.191,0.081,1.748,0.284c0.287,0.079,0.547,0.222,0.815,0.343c0.261,0.142,0.513,0.297,0.755,0.461
			c0.472,0.35,0.909,0.744,1.29,1.184c0.181,0.229,0.388,0.438,0.546,0.683c0.161,0.242,0.332,0.479,0.484,0.724l0.422,0.761
			c0.139,0.253,0.244,0.522,0.366,0.787l0.179,0.395l0.146,0.406l0.295,0.814c0.172,0.55,0.334,1.103,0.473,1.664
			c0.566,2.235,0.85,4.522,1.182,6.796c0.18,1.134,0.354,2.276,0.727,3.369c0.194,0.537,0.436,1.079,0.836,1.501
			c0.191,0.22,0.439,0.383,0.703,0.508c0.266,0.128,0.564,0.168,0.855,0.193h0.006l-0.002,0.005l-0.059,0.153
			c-0.021,0.051-0.063,0.092-0.09,0.137c-0.03,0.047-0.079,0.078-0.119,0.115c-0.039,0.042-0.089,0.066-0.137,0.097
			c-0.045,0.03-0.094,0.054-0.148,0.075c-0.05,0.021-0.1,0.047-0.152,0.06c-0.107,0.037-0.217,0.061-0.326,0.083
			C70.686,29.633,70.236,29.641,69.791,29.601z"/>
	</g>
	<g>
		<g>
			<path d="M19.75,16.173c-0.912,0.446-1.775,0.983-2.581,1.587c-0.804,0.602-1.557,1.279-2.169,2.064
				c-0.156,0.193-0.293,0.397-0.433,0.603c-0.127,0.212-0.255,0.424-0.358,0.646c-0.06,0.109-0.104,0.222-0.151,0.336
				c-0.047,0.112-0.095,0.225-0.128,0.343c-0.084,0.23-0.135,0.468-0.187,0.707c-0.029,0.241-0.065,0.482-0.061,0.725
				c-0.007,0.122-0.003,0.243,0.011,0.366c0.012,0.12,0.01,0.241,0.038,0.361l0.066,0.357c0.026,0.12,0.065,0.234,0.098,0.353
				c0.057,0.238,0.171,0.457,0.255,0.684l-0.206-0.013l0.344-0.454c0.11-0.153,0.241-0.29,0.365-0.43
				c0.248-0.284,0.509-0.551,0.778-0.819l0.173,0.15c-0.122,0.156-0.235,0.335-0.335,0.513c-0.104,0.178-0.196,0.362-0.274,0.553
				c-0.044,0.093-0.081,0.188-0.112,0.285c-0.033,0.097-0.07,0.193-0.092,0.293c-0.06,0.196-0.09,0.397-0.12,0.599
				c-0.013,0.201-0.035,0.404-0.012,0.605c0.001,0.203,0.059,0.4,0.094,0.6l0.102,0.287c0.028,0.099,0.071,0.188,0.123,0.278
				l0.142,0.27l0.18,0.25c0.114,0.169,0.256,0.33,0.389,0.493l0.399,0.496c0.128,0.167,0.257,0.335,0.377,0.509
				c0.123,0.175,0.24,0.351,0.345,0.537c0.107,0.182,0.2,0.379,0.267,0.583c0.066,0.204,0.104,0.424,0.073,0.64
				c-0.027,0.218-0.108,0.422-0.225,0.601c-0.11,0.183-0.255,0.341-0.401,0.5l-0.011-0.047c0.125,0.043,0.251,0.08,0.38,0.095
				c0.067,0.004,0.132,0.011,0.196,0.004c0.067,0,0.13-0.018,0.192-0.032c0.255-0.07,0.464-0.268,0.565-0.508
				c-0.092,0.245-0.297,0.452-0.555,0.536c-0.066,0.016-0.131,0.036-0.198,0.039c-0.068,0.011-0.136,0.005-0.203,0.002
				c-0.137-0.01-0.268-0.044-0.396-0.084l-0.04-0.012l0.028-0.031c0.274-0.31,0.536-0.666,0.564-1.072
				c0.023-0.2-0.022-0.401-0.086-0.592c-0.067-0.194-0.162-0.379-0.269-0.556c-0.105-0.179-0.224-0.35-0.348-0.517
				c-0.123-0.171-0.254-0.334-0.383-0.5l-0.406-0.481c-0.137-0.162-0.279-0.316-0.406-0.493l-0.193-0.258l-0.157-0.285
				c-0.058-0.093-0.102-0.189-0.136-0.295l-0.109-0.303c-0.042-0.212-0.102-0.423-0.104-0.639c-0.026-0.214-0.003-0.429,0.007-0.644
				c0.03-0.212,0.063-0.424,0.123-0.629c0.023-0.106,0.062-0.207,0.094-0.308c0.032-0.101,0.071-0.201,0.115-0.299
				c0.079-0.199,0.174-0.389,0.28-0.577c0.107-0.188,0.219-0.366,0.354-0.545l0.174,0.15c-0.26,0.265-0.519,0.532-0.759,0.811
				c-0.118,0.14-0.251,0.276-0.358,0.422l-0.337,0.436l-0.134,0.174l-0.07-0.193c-0.087-0.237-0.201-0.465-0.262-0.715
				c-0.032-0.122-0.072-0.243-0.099-0.366l-0.065-0.376c-0.028-0.125-0.024-0.255-0.038-0.38c-0.013-0.126-0.018-0.251-0.008-0.378
				c-0.003-0.256,0.035-0.507,0.069-0.76c0.056-0.246,0.109-0.496,0.197-0.735c0.037-0.12,0.086-0.238,0.136-0.354
				c0.049-0.117,0.097-0.237,0.16-0.346c0.111-0.229,0.247-0.443,0.383-0.659c0.145-0.207,0.29-0.415,0.454-0.61
				c0.159-0.196,0.328-0.384,0.504-0.569c0.177-0.181,0.36-0.355,0.545-0.528c0.38-0.338,0.776-0.655,1.193-0.945
				C17.939,17.097,18.822,16.588,19.75,16.173z"/>
			<path d="M19.476,25.79c0,0-0.051,0.074-0.137,0.208c-0.089,0.131-0.2,0.33-0.331,0.564c-0.13,0.233-0.268,0.517-0.397,0.823
				c-0.069,0.152-0.119,0.317-0.182,0.48c-0.051,0.165-0.113,0.332-0.148,0.503c-0.04,0.172-0.09,0.342-0.106,0.515
				c-0.028,0.172-0.056,0.339-0.059,0.504c-0.004,0.082-0.009,0.163-0.014,0.243c0.002,0.079,0.005,0.156,0.005,0.231
				c0.006,0.153,0.007,0.297,0.036,0.428c0.02,0.132,0.036,0.253,0.052,0.36c0.027,0.106,0.053,0.198,0.072,0.273
				c0.036,0.153,0.059,0.24,0.059,0.24s-0.038-0.081-0.104-0.227c-0.031-0.072-0.069-0.163-0.114-0.263
				c-0.033-0.106-0.063-0.229-0.097-0.362c-0.042-0.132-0.058-0.28-0.077-0.436c-0.009-0.079-0.021-0.159-0.028-0.24
				c0-0.084,0-0.168,0-0.255c-0.004-0.172,0.009-0.35,0.039-0.529c0.014-0.181,0.064-0.358,0.102-0.539
				c0.042-0.179,0.109-0.351,0.163-0.521c0.07-0.169,0.131-0.336,0.21-0.488c0.147-0.311,0.323-0.581,0.474-0.81
				C19.205,26.04,19.476,25.79,19.476,25.79z"/>
			<path d="M22.57,27.069c0,0,0.125-0.366,0.413-0.873c0.068-0.13,0.161-0.259,0.25-0.399c0.092-0.14,0.176-0.295,0.295-0.434
				c0.113-0.145,0.23-0.291,0.35-0.445c0.116-0.152,0.258-0.288,0.391-0.43c0.139-0.142,0.275-0.28,0.411-0.417
				c0.136-0.137,0.291-0.248,0.431-0.367c0.143-0.117,0.283-0.224,0.416-0.328c0.127-0.11,0.27-0.188,0.394-0.267
				c0.502-0.311,0.843-0.499,0.843-0.499S26.462,22.866,26,23.218c-0.114,0.088-0.247,0.174-0.363,0.292
				c-0.12,0.113-0.25,0.233-0.384,0.35c-0.134,0.123-0.279,0.24-0.411,0.374c-0.13,0.135-0.263,0.274-0.396,0.413
				s-0.275,0.268-0.391,0.419c-0.12,0.142-0.242,0.284-0.358,0.421c-0.12,0.134-0.218,0.275-0.321,0.405
				c-0.096,0.134-0.201,0.251-0.278,0.371c-0.077,0.121-0.155,0.229-0.223,0.325c-0.07,0.095-0.119,0.185-0.165,0.256
				C22.618,26.987,22.57,27.069,22.57,27.069z"/>
			<path d="M30.105,25.47c0,0,0.024-0.071,0.08-0.191c0.057-0.117,0.134-0.29,0.252-0.483c0.114-0.194,0.256-0.418,0.426-0.645
				c0.172-0.226,0.371-0.457,0.583-0.675c0.217-0.215,0.442-0.424,0.674-0.591c0.11-0.092,0.226-0.168,0.34-0.237
				c0.109-0.071,0.216-0.139,0.316-0.19c0.201-0.117,0.379-0.188,0.504-0.237c0.125-0.049,0.197-0.073,0.197-0.073
				s-0.064,0.041-0.176,0.114c-0.055,0.036-0.122,0.079-0.2,0.128c-0.073,0.054-0.156,0.117-0.249,0.178
				c-0.185,0.128-0.389,0.291-0.596,0.476c-0.108,0.087-0.213,0.185-0.32,0.285c-0.11,0.097-0.211,0.202-0.316,0.309
				c-0.21,0.208-0.405,0.432-0.589,0.642c-0.177,0.212-0.35,0.408-0.48,0.587C30.274,25.222,30.105,25.47,30.105,25.47z"/>
			<path d="M53.997,17.849c0,0,0.179,0.157,0.359,0.463c0.048,0.074,0.087,0.163,0.13,0.255c0.035,0.093,0.083,0.19,0.111,0.298
				c0.068,0.209,0.105,0.445,0.12,0.681c0.011,0.118-0.001,0.237-0.001,0.352c-0.008,0.117-0.031,0.229-0.047,0.338
				c-0.02,0.109-0.052,0.209-0.078,0.308c-0.023,0.098-0.069,0.185-0.101,0.264c-0.058,0.167-0.144,0.288-0.19,0.377
				c-0.052,0.088-0.084,0.136-0.084,0.136s0.013-0.057,0.039-0.154c0.029-0.096,0.072-0.232,0.106-0.4
				c0.013-0.082,0.044-0.168,0.053-0.264c0.016-0.095,0.031-0.195,0.044-0.297c0.018-0.208,0.033-0.427,0.018-0.648
				c-0.008-0.22-0.037-0.438-0.085-0.642c-0.044-0.202-0.103-0.389-0.162-0.548C54.116,18.052,53.997,17.849,53.997,17.849z"/>
			<path d="M58.406,14.3c0.563,0.208,1.097,0.481,1.609,0.792c0.512,0.313,0.99,0.681,1.407,1.111
				c0.209,0.215,0.403,0.447,0.565,0.7c0.164,0.253,0.307,0.522,0.397,0.812c0.089,0.289,0.147,0.588,0.149,0.892
				c-0.006,0.302-0.034,0.608-0.127,0.894c-0.082,0.294-0.205,0.567-0.314,0.835c-0.115,0.271-0.213,0.543-0.324,0.813
				c-0.098,0.275-0.204,0.547-0.288,0.825c-0.093,0.275-0.167,0.556-0.231,0.836c-0.062,0.281-0.111,0.564-0.127,0.85
				c-0.023,0.285,0.006,0.567,0.061,0.841c0.075,0.27,0.203,0.52,0.39,0.731c0.193,0.208,0.44,0.363,0.7,0.497l0.128,0.065
				l-0.121,0.057c-0.113,0.051-0.22,0.114-0.334,0.155l-0.177,0.062c-0.055,0.022-0.121,0.031-0.179,0.046
				c-0.119,0.033-0.243,0.04-0.366,0.053c-0.123,0-0.245,0.005-0.367-0.01c-0.063-0.006-0.125-0.012-0.184-0.024
				c-0.059-0.014-0.121-0.021-0.18-0.039c-0.117-0.03-0.233-0.066-0.346-0.112c-0.227-0.09-0.438-0.207-0.628-0.354
				c0.198,0.134,0.418,0.235,0.644,0.313c0.113,0.037,0.229,0.068,0.346,0.092c0.059,0.014,0.116,0.018,0.176,0.028
				c0.059,0.012,0.117,0.013,0.176,0.016c0.121,0.01,0.238-0.003,0.355-0.007c0.117-0.02,0.234-0.03,0.346-0.068
				c0.055-0.018,0.115-0.026,0.168-0.05l0.164-0.063c0.109-0.043,0.208-0.106,0.313-0.158l0.006,0.123
				c-0.275-0.132-0.544-0.289-0.762-0.51c-0.216-0.225-0.368-0.502-0.457-0.796c-0.074-0.295-0.103-0.6-0.08-0.899
				c0.012-0.3,0.061-0.594,0.12-0.885c0.065-0.288,0.138-0.575,0.229-0.856c0.082-0.282,0.188-0.557,0.285-0.838
				c0.104-0.274,0.211-0.553,0.327-0.819c0.115-0.272,0.238-0.539,0.317-0.806c0.088-0.272,0.117-0.556,0.126-0.836
				c0-0.281-0.051-0.561-0.133-0.832s-0.211-0.527-0.359-0.775c-0.146-0.248-0.327-0.475-0.523-0.69
				c-0.389-0.434-0.858-0.799-1.342-1.137C59.473,14.841,58.951,14.548,58.406,14.3z"/>
			<path d="M57.938,20.124c0,0,0.147,0.204,0.298,0.551c0.042,0.085,0.073,0.182,0.108,0.283c0.034,0.104,0.081,0.208,0.106,0.324
				c0.027,0.112,0.055,0.231,0.084,0.352c0.031,0.12,0.048,0.244,0.063,0.367c0.015,0.125,0.026,0.25,0.042,0.373
				c0.016,0.12,0.003,0.245,0.004,0.36c-0.003,0.119-0.006,0.23-0.008,0.34c0.002,0.106-0.021,0.207-0.033,0.3
				c-0.068,0.37-0.127,0.61-0.127,0.61s-0.016-0.252-0.014-0.618c0.002-0.092,0.006-0.19-0.005-0.294
				c-0.009-0.106-0.018-0.215-0.026-0.33c-0.008-0.111-0.006-0.231-0.025-0.349c-0.013-0.119-0.029-0.239-0.047-0.358
				c-0.018-0.245-0.081-0.479-0.115-0.705c-0.017-0.111-0.049-0.218-0.072-0.322c-0.025-0.1-0.039-0.201-0.066-0.288
				c-0.049-0.176-0.081-0.328-0.117-0.429C57.957,20.185,57.938,20.124,57.938,20.124z"/>
		</g>
		<g>
			<path d="M55.154,49.453c0,0,0.078-0.06,0.227-0.142c0.076-0.04,0.169-0.087,0.277-0.134c0.113-0.047,0.238-0.097,0.383-0.132
				c0.141-0.045,0.303-0.065,0.473-0.094c0.17-0.013,0.353-0.039,0.541-0.019c0.189,0,0.38,0.038,0.575,0.075
				c0.19,0.053,0.383,0.115,0.567,0.187c0.177,0.097,0.367,0.163,0.524,0.28c0.157,0.113,0.329,0.208,0.459,0.338
				c0.137,0.126,0.272,0.241,0.386,0.363c0.108,0.126,0.211,0.247,0.304,0.358c0.1,0.106,0.171,0.218,0.233,0.318
				c0.063,0.098,0.117,0.185,0.162,0.256c0.09,0.142,0.14,0.223,0.14,0.223s-0.063-0.071-0.175-0.197
				c-0.115-0.124-0.256-0.317-0.463-0.514c-0.102-0.101-0.211-0.209-0.326-0.325c-0.12-0.106-0.262-0.207-0.396-0.321
				c-0.13-0.123-0.3-0.199-0.448-0.306c-0.15-0.111-0.333-0.169-0.496-0.257c-0.173-0.072-0.352-0.133-0.528-0.183
				c-0.181-0.035-0.357-0.083-0.534-0.091c-0.177-0.023-0.346-0.015-0.512-0.017c-0.159,0.016-0.314,0.021-0.456,0.054
				c-0.282,0.047-0.513,0.117-0.671,0.176S55.154,49.453,55.154,49.453z"/>
			<path d="M61.809,47.235c0,0-0.02,0.121-0.056,0.3c-0.036,0.175-0.087,0.404-0.126,0.631c-0.024,0.111-0.034,0.226-0.048,0.333
				c-0.003,0.052-0.007,0.104-0.011,0.151c0.003,0.049,0.003,0.094,0.002,0.139c0.01,0.083,0.008,0.161,0.025,0.209
				c0.011,0.053,0.016,0.085,0.016,0.085s-0.023-0.021-0.059-0.065c-0.035-0.043-0.079-0.111-0.119-0.201
				c-0.033-0.09-0.059-0.198-0.066-0.319s0-0.247,0.021-0.371c0.044-0.246,0.141-0.478,0.236-0.639
				C61.72,47.326,61.809,47.235,61.809,47.235z"/>
			<path d="M56.814,53.757c0,0,0.422-0.107,1.076-0.103c0.325,0.011,0.709,0.03,1.111,0.124c0.202,0.04,0.406,0.107,0.609,0.173
				c0.197,0.093,0.408,0.157,0.596,0.276l0.286,0.169c0.086,0.062,0.171,0.133,0.255,0.198c0.181,0.122,0.318,0.287,0.457,0.437
				c0.15,0.138,0.24,0.316,0.348,0.471c0.111,0.151,0.174,0.313,0.241,0.456c0.063,0.151,0.138,0.277,0.162,0.407
				c0.032,0.125,0.063,0.233,0.086,0.322c0.042,0.18,0.067,0.281,0.067,0.281s-0.043-0.098-0.113-0.268
				c-0.033-0.087-0.076-0.186-0.123-0.308c-0.04-0.119-0.131-0.235-0.201-0.375c-0.074-0.137-0.149-0.286-0.267-0.423
				c-0.112-0.139-0.21-0.298-0.358-0.428c-0.137-0.135-0.273-0.281-0.443-0.396c-0.082-0.063-0.162-0.125-0.246-0.186l-0.27-0.154
				c-0.173-0.116-0.375-0.18-0.561-0.267c-0.195-0.064-0.384-0.142-0.576-0.188c-0.191-0.044-0.377-0.094-0.558-0.121
				c-0.18-0.037-0.352-0.05-0.509-0.066c-0.32-0.027-0.588-0.044-0.775-0.039C56.923,53.75,56.814,53.757,56.814,53.757z"/>
			<path d="M56.914,55.703c0,0,0.145-0.12,0.408-0.234c0.064-0.03,0.139-0.052,0.217-0.079c0.08-0.022,0.161-0.057,0.248-0.064
				c0.09-0.017,0.182-0.036,0.274-0.047c0.093-0.02,0.189-0.012,0.284-0.017c0.098,0,0.193,0,0.287,0
				c0.095,0.008,0.186,0.027,0.274,0.041c0.088,0.014,0.173,0.03,0.253,0.045c0.082,0.015,0.152,0.052,0.219,0.073
				c0.266,0.104,0.432,0.186,0.432,0.186s-0.191-0.014-0.465-0.054c-0.066-0.008-0.139-0.028-0.218-0.028
				c-0.079-0.006-0.163-0.008-0.245-0.014c-0.086-0.009-0.172-0.015-0.262-0.023c-0.089,0.004-0.178,0.006-0.268,0.009
				s-0.184-0.009-0.268,0.006c-0.09,0.013-0.176,0.02-0.26,0.025c-0.088,0.004-0.168,0.022-0.244,0.033
				c-0.076,0.014-0.152,0.02-0.219,0.035c-0.133,0.031-0.248,0.047-0.327,0.074C56.957,55.689,56.914,55.703,56.914,55.703z"/>
			<path d="M64.608,56.288c0,0-0.015,0.05-0.054,0.134c-0.037,0.084-0.098,0.196-0.177,0.335c-0.091,0.125-0.188,0.282-0.321,0.429
				c-0.066,0.075-0.131,0.153-0.201,0.228c-0.076,0.07-0.152,0.143-0.229,0.217c-0.154,0.143-0.319,0.271-0.484,0.382
				c-0.159,0.117-0.314,0.219-0.459,0.286c-0.281,0.148-0.475,0.229-0.475,0.229s0.156-0.145,0.396-0.338
				c0.124-0.095,0.26-0.212,0.404-0.339c0.149-0.124,0.309-0.252,0.453-0.393c0.156-0.131,0.301-0.275,0.438-0.409
				c0.143-0.128,0.254-0.267,0.367-0.373c0.098-0.114,0.193-0.205,0.247-0.278C64.574,56.33,64.608,56.288,64.608,56.288z"/>
			<path d="M64.507,38.765c-0.101,0.607-0.276,1.202-0.531,1.77c-0.062,0.145-0.132,0.287-0.208,0.423
				c-0.039,0.067-0.083,0.134-0.125,0.201c-0.04,0.069-0.086,0.134-0.138,0.196c-0.05,0.063-0.091,0.129-0.151,0.186
				c-0.059,0.058-0.11,0.121-0.175,0.174c-0.063,0.049-0.128,0.104-0.196,0.153l-0.227,0.118l-0.055-0.223l0.504-0.051
				c0.166-0.031,0.33-0.061,0.494-0.096c0.158-0.055,0.326-0.081,0.478-0.15l0.232-0.092l0.221-0.115
				c0.075-0.031,0.142-0.083,0.21-0.128c0.07-0.046,0.138-0.093,0.197-0.148c0.129-0.102,0.246-0.223,0.346-0.352
				c0.105-0.128,0.193-0.27,0.266-0.419c0.07-0.149,0.129-0.308,0.158-0.473c-0.002,0.17-0.041,0.336-0.096,0.5
				c-0.059,0.157-0.131,0.315-0.228,0.461c-0.097,0.144-0.21,0.277-0.337,0.397c-0.063,0.063-0.13,0.118-0.203,0.17
				c-0.07,0.053-0.137,0.111-0.214,0.153l-0.228,0.134l-0.244,0.107c-0.159,0.077-0.333,0.115-0.498,0.172
				c-0.173,0.039-0.346,0.073-0.52,0.106l-0.523,0.058l-0.605,0.063l0.553-0.287l0.188-0.099c0.059-0.04,0.115-0.088,0.174-0.132
				c0.057-0.043,0.104-0.102,0.156-0.152c0.056-0.049,0.098-0.109,0.147-0.166c0.046-0.058,0.093-0.117,0.136-0.18
				c0.039-0.064,0.086-0.122,0.123-0.188c0.077-0.131,0.158-0.259,0.227-0.395c0.141-0.27,0.267-0.548,0.379-0.833
				C64.31,39.346,64.412,39.057,64.507,38.765z"/>
			<path d="M61.611,60.277c0,0,0.188-0.061,0.482-0.106c0.293-0.046,0.689-0.073,1.088-0.038c0.199,0.024,0.399,0.05,0.58,0.104
				c0.184,0.048,0.35,0.117,0.481,0.195c0.066,0.031,0.121,0.08,0.167,0.118c0.05,0.036,0.088,0.073,0.115,0.11
				c0.057,0.066,0.083,0.104,0.083,0.104s-0.043-0.024-0.114-0.07c-0.033-0.025-0.077-0.051-0.133-0.071
				c-0.053-0.021-0.109-0.051-0.179-0.07c-0.134-0.044-0.294-0.084-0.47-0.115c-0.084-0.018-0.176-0.027-0.27-0.04
				c-0.092-0.013-0.189-0.021-0.283-0.03c-0.381-0.036-0.767-0.048-1.059-0.063C61.806,60.288,61.611,60.277,61.611,60.277z"/>
			<path d="M66.106,59.5c0,0-0.001,0.181-0.097,0.432c-0.089,0.251-0.295,0.56-0.572,0.801c-0.141,0.115-0.294,0.218-0.447,0.294
				c-0.076,0.038-0.154,0.067-0.227,0.096c-0.069,0.032-0.146,0.046-0.211,0.065c-0.129,0.04-0.244,0.042-0.322,0.055
				c-0.078,0.008-0.122,0.01-0.122,0.01s0.04-0.021,0.11-0.054s0.17-0.076,0.286-0.14c0.056-0.029,0.12-0.055,0.183-0.094
				c0.063-0.037,0.129-0.075,0.197-0.117c0.132-0.089,0.27-0.184,0.395-0.292c0.125-0.11,0.244-0.226,0.347-0.345
				c0.103-0.116,0.19-0.235,0.261-0.342C66.033,59.662,66.106,59.5,66.106,59.5z"/>
			<path d="M24.334,53.271c0,0-0.1,0.088-0.25,0.212c-0.153,0.118-0.354,0.274-0.559,0.421c-0.1,0.072-0.195,0.154-0.294,0.221
				c-0.088,0.073-0.175,0.141-0.253,0.197c-0.134,0.126-0.243,0.214-0.243,0.214s0.012-0.031,0.033-0.082
				c0.026-0.053,0.054-0.132,0.107-0.219c0.056-0.079,0.128-0.173,0.213-0.265c0.09-0.084,0.19-0.174,0.294-0.255
				c0.11-0.071,0.216-0.149,0.327-0.207c0.108-0.057,0.214-0.107,0.306-0.142C24.203,53.293,24.334,53.271,24.334,53.271z"/>
			<path d="M17.441,52.103c0,0,0.114,0.025,0.307,0.088c0.194,0.069,0.471,0.168,0.782,0.334c0.307,0.166,0.664,0.384,0.992,0.684
				c0.331,0.294,0.627,0.675,0.83,1.104c0.091,0.218,0.172,0.443,0.211,0.674c0.048,0.227,0.053,0.455,0.05,0.676
				c-0.009,0.22-0.041,0.43-0.087,0.624c-0.044,0.194-0.101,0.375-0.161,0.539c-0.061,0.161-0.121,0.308-0.19,0.431
				c-0.063,0.127-0.118,0.234-0.171,0.32c-0.107,0.171-0.167,0.269-0.167,0.269s0.045-0.105,0.125-0.289
				c0.081-0.181,0.18-0.449,0.274-0.771c0.048-0.164,0.09-0.342,0.118-0.531c0.031-0.188,0.045-0.388,0.046-0.594
				c-0.001-0.208-0.02-0.42-0.065-0.632c-0.038-0.214-0.118-0.419-0.201-0.618c-0.186-0.401-0.457-0.761-0.759-1.055
				c-0.301-0.297-0.623-0.536-0.913-0.719c-0.292-0.179-0.547-0.316-0.73-0.402C17.548,52.146,17.441,52.103,17.441,52.103z"/>
			<path d="M18.54,55.511c0,0,0.028,0.02,0.07,0.067c0.043,0.045,0.103,0.117,0.164,0.206c0.053,0.094,0.12,0.203,0.162,0.332
				c0.048,0.126,0.092,0.265,0.111,0.409c0.009,0.069,0.021,0.141,0.029,0.211c0.003,0.072,0,0.141,0,0.208
				c-0.003,0.134-0.008,0.26-0.039,0.362c-0.051,0.208-0.098,0.345-0.098,0.345s-0.027-0.146-0.041-0.351
				c-0.001-0.104-0.021-0.221-0.035-0.348c-0.006-0.063-0.017-0.126-0.02-0.194c-0.012-0.064-0.022-0.13-0.035-0.196
				c-0.014-0.133-0.049-0.263-0.074-0.387s-0.064-0.235-0.086-0.335c-0.033-0.097-0.052-0.185-0.075-0.238
				C18.55,55.543,18.54,55.511,18.54,55.511z"/>
			<path d="M16.24,59.986c0,0,0.119,0.14,0.268,0.367c0.15,0.227,0.323,0.541,0.468,0.872c0.071,0.165,0.134,0.335,0.19,0.492
				c0.053,0.16,0.09,0.315,0.121,0.446c0.028,0.134,0.031,0.249,0.044,0.328c0.006,0.078,0.007,0.121,0.007,0.121
				s-0.022-0.04-0.056-0.11c-0.03-0.073-0.074-0.174-0.128-0.298c-0.059-0.119-0.121-0.262-0.188-0.413
				c-0.073-0.149-0.137-0.313-0.212-0.475c-0.143-0.324-0.278-0.653-0.372-0.903C16.293,60.161,16.24,59.986,16.24,59.986z"/>
			<path d="M18.939,58.817c0,0,0.084,0.164,0.14,0.433c0.018,0.066,0.025,0.14,0.032,0.219c0.007,0.076,0.021,0.161,0.017,0.245
				c-0.002,0.086-0.003,0.175-0.009,0.265c-0.003,0.091-0.019,0.182-0.039,0.271c-0.02,0.092-0.04,0.179-0.06,0.267
				c-0.014,0.09-0.061,0.167-0.092,0.249c-0.031,0.079-0.064,0.155-0.098,0.227c-0.027,0.075-0.074,0.134-0.113,0.191
				c-0.161,0.227-0.278,0.361-0.278,0.361s0.054-0.178,0.154-0.42c0.025-0.062,0.054-0.125,0.071-0.198
				c0.02-0.072,0.04-0.149,0.064-0.226c0.021-0.08,0.055-0.156,0.067-0.241c0.016-0.08,0.032-0.168,0.048-0.25
				c0.049-0.169,0.045-0.34,0.075-0.501c0.009-0.081,0.009-0.16,0.015-0.233c0.001-0.076,0.012-0.146,0.009-0.212
				c0-0.132,0.007-0.243,0-0.32C18.939,58.863,18.939,58.817,18.939,58.817z"/>
			<path d="M19.07,60.162c0,0,0.048,0.018,0.128,0.04c0.08,0.028,0.201,0.05,0.339,0.086c0.068,0.02,0.147,0.027,0.226,0.043
				c0.081,0.015,0.163,0.036,0.252,0.045c0.089,0.011,0.181,0.016,0.272,0.026c0.09,0.02,0.186,0.018,0.279,0.018
				c0.094,0.002,0.188,0.004,0.281,0.008c0.093,0.002,0.184-0.014,0.271-0.02c0.088-0.01,0.175-0.014,0.257-0.02
				c0.083,0,0.156-0.021,0.228-0.033c0.281-0.051,0.482-0.074,0.482-0.074s-0.171,0.092-0.449,0.204
				c-0.068,0.026-0.142,0.067-0.228,0.078c-0.083,0.017-0.171,0.036-0.266,0.05c-0.092,0.01-0.188,0.041-0.285,0.04
				c-0.099,0-0.2,0-0.3,0c-0.101-0.003-0.2-0.003-0.298-0.023c-0.097-0.015-0.192-0.034-0.284-0.053
				c-0.094-0.014-0.177-0.052-0.26-0.076c-0.081-0.028-0.158-0.053-0.225-0.087C19.219,60.291,19.07,60.162,19.07,60.162z"/>
			<path d="M14.218,45.016c-0.1,0.204-0.17,0.424-0.214,0.643c-0.046,0.218-0.064,0.441-0.054,0.662
				c0.007,0.223,0.036,0.441,0.1,0.653c0.026,0.108,0.071,0.209,0.11,0.313c0.042,0.101,0.098,0.196,0.146,0.298l0.146,0.304
				l-0.282-0.18c-0.137-0.09-0.275-0.178-0.407-0.272c-0.121-0.109-0.248-0.211-0.359-0.328c-0.103-0.126-0.217-0.24-0.309-0.374
				c-0.085-0.136-0.185-0.265-0.26-0.406c-0.071-0.146-0.155-0.284-0.21-0.434c-0.054-0.148-0.118-0.299-0.158-0.454
				c-0.035-0.153-0.083-0.306-0.107-0.463c-0.02-0.158-0.047-0.314-0.059-0.475c-0.004-0.158-0.017-0.318-0.014-0.475
				c0.014-0.158,0.019-0.319,0.041-0.475c0.032-0.154,0.059-0.314,0.095-0.467c0.053-0.151,0.098-0.304,0.153-0.452
				c0.069-0.144,0.133-0.29,0.206-0.429c0.086-0.135,0.173-0.27,0.266-0.397l0.319-0.354l0.371-0.3l-0.333,0.334l-0.284,0.368
				l-0.228,0.403c-0.063,0.142-0.118,0.285-0.176,0.425c-0.046,0.145-0.081,0.294-0.124,0.44c-0.028,0.15-0.046,0.299-0.07,0.45
				l-0.026,0.458c-0.001,0.148,0.013,0.301,0.019,0.452c0.013,0.151,0.045,0.301,0.067,0.451c0.025,0.149,0.072,0.294,0.108,0.44
				c0.042,0.148,0.107,0.287,0.154,0.43c0.054,0.145,0.13,0.275,0.194,0.413c0.067,0.135,0.161,0.259,0.239,0.389
				c0.084,0.125,0.191,0.236,0.284,0.356c0.106,0.111,0.223,0.21,0.332,0.313l0.375,0.267l-0.136,0.124
				c-0.044-0.108-0.099-0.212-0.138-0.321c-0.035-0.111-0.075-0.223-0.099-0.336c-0.055-0.227-0.075-0.461-0.069-0.691
				c0.005-0.23,0.046-0.458,0.111-0.68C14.002,45.421,14.092,45.208,14.218,45.016z"/>
			<path d="M9.45,37.709c0,0,0.077,0.154,0.122,0.407c0.02,0.128,0.035,0.277,0.02,0.441c-0.007,0.162-0.05,0.334-0.114,0.499
				C9.436,39.134,9.405,39.22,9.35,39.29c-0.047,0.077-0.106,0.144-0.168,0.2c-0.056,0.063-0.125,0.11-0.188,0.152
				c-0.062,0.046-0.127,0.079-0.19,0.102c-0.122,0.059-0.232,0.073-0.307,0.086c-0.076,0.014-0.118,0.02-0.118,0.02
				s0.036-0.025,0.103-0.063c0.032-0.016,0.071-0.038,0.115-0.063c0.044-0.024,0.085-0.065,0.137-0.095
				c0.051-0.033,0.102-0.076,0.147-0.124c0.052-0.045,0.102-0.094,0.144-0.153c0.051-0.052,0.088-0.115,0.127-0.181
				c0.044-0.062,0.07-0.136,0.103-0.204c0.122-0.283,0.163-0.602,0.181-0.846C9.453,37.879,9.45,37.709,9.45,37.709z"/>
			<path d="M16.812,11.994c0,0,0.068,0.007,0.187,0.01c0.118,0.012,0.288-0.001,0.488,0c0.103-0.005,0.209-0.013,0.324-0.018
				c0.116,0,0.236-0.02,0.359-0.03c0.125-0.014,0.255-0.028,0.386-0.041c0.128-0.019,0.26-0.041,0.393-0.063
				c0.131-0.021,0.267-0.03,0.394-0.063c0.127-0.03,0.256-0.052,0.379-0.079c0.123-0.023,0.243-0.045,0.357-0.069
				c0.113-0.027,0.218-0.055,0.316-0.078c0.392-0.094,0.663-0.145,0.663-0.145s-0.243,0.12-0.623,0.272
				c-0.095,0.038-0.197,0.082-0.307,0.121c-0.112,0.031-0.232,0.064-0.355,0.099c-0.124,0.033-0.251,0.07-0.382,0.1
				c-0.129,0.039-0.269,0.048-0.403,0.072c-0.136,0.019-0.271,0.039-0.405,0.057c-0.135,0.013-0.269,0.013-0.397,0.019
				c-0.257,0.02-0.498-0.008-0.703-0.021c-0.207-0.027-0.373-0.057-0.491-0.087C16.876,12.021,16.812,11.994,16.812,11.994z"/>
		</g>
	</g>
	<g>
		<path style="fill:#936026;" d="M9.889,73.655c0,0,0.125-0.066,0.284-0.162c0.039-0.028,0.083-0.056,0.127-0.085
			c0.045-0.027,0.091-0.057,0.136-0.092c0.091-0.069,0.193-0.135,0.279-0.22c0.045-0.038,0.097-0.073,0.141-0.112
			c0.04-0.043,0.085-0.08,0.127-0.121s0.086-0.074,0.128-0.109c0.037-0.039,0.074-0.074,0.106-0.109
			c0.132-0.136,0.251-0.221,0.251-0.221s-0.021,0.134-0.1,0.323c-0.03,0.097-0.092,0.196-0.172,0.298
			c-0.041,0.048-0.077,0.104-0.122,0.155c-0.048,0.047-0.102,0.09-0.153,0.137c-0.056,0.042-0.107,0.088-0.167,0.122
			c-0.057,0.035-0.12,0.063-0.178,0.094c-0.115,0.062-0.239,0.086-0.339,0.108c-0.105,0.013-0.192,0.017-0.253,0.011
			C9.922,73.668,9.889,73.655,9.889,73.655z"/>
		<path style="fill:#936026;" d="M9.574,75.885c0,0-0.014-0.032-0.023-0.092c-0.013-0.063-0.015-0.152-0.004-0.261
			c0.001-0.055,0.02-0.108,0.035-0.17c0.021-0.06,0.028-0.127,0.066-0.186c0.032-0.06,0.062-0.124,0.101-0.185
			c0.033-0.064,0.092-0.11,0.137-0.17c0.054-0.053,0.104-0.105,0.156-0.155c0.06-0.043,0.124-0.078,0.18-0.113
			c0.058-0.037,0.116-0.065,0.172-0.095c0.057-0.027,0.116-0.036,0.167-0.052c0.213-0.054,0.355-0.061,0.355-0.061
			s-0.109,0.106-0.271,0.222c-0.038,0.029-0.084,0.055-0.127,0.093c-0.041,0.038-0.082,0.078-0.13,0.115
			c-0.045,0.038-0.088,0.08-0.14,0.114l-0.123,0.139c-0.039,0.046-0.095,0.083-0.124,0.137c-0.033,0.05-0.071,0.095-0.105,0.142
			c-0.039,0.046-0.062,0.096-0.093,0.143c-0.025,0.05-0.063,0.089-0.081,0.134c-0.043,0.086-0.085,0.158-0.109,0.213
			C9.585,75.852,9.574,75.885,9.574,75.885z"/>
	</g>
	<path style="opacity:0.3;fill:#A7A9AC;" d="M69.791,29.601c0,0,0.146,0.015,0.365,0.021c-2.077-1.612-2.527-4.482-2.527-4.482
		s-0.855,2.189,1.287,6.257c-3.746-3.755-4.175-6.361-3.427-11.885c-0.964,1.146-1.713,3.543-1.499,5.628
		c-1.711-1.25-1.068-3.022-0.535-6.881c-0.105-6.568-10.061-8.131-6.85-8.131s4.389,1.458,4.389,1.458s-0.32-1.77-2.782-2.501
		C64.632,7,67.961,17.72,68.765,23.983c0.479,3.742,2.048,4.854,3.233,5.146c0.072-0.084,0.127-0.18,0.154-0.295
		c-3.699-0.154-2.598-7.205-4.801-14.03c-2.203-6.823-6.611-7.434-8.735-6.438c0.63-1.532,2.124-2.299,2.124-2.299
		s-1.258-0.537-3.383,1.072c0.631-1.381-0.236-2.836-0.236-2.836S57.2,6.22,56.098,6.91c-0.383-1.486-2.309-3.812-6.74-5.133
		c2.919,1.198,5.914,3.033,6.243,5.584c-1.314-1.917-6.563-4.367-9.954-2.344c0,0,4.265-1.809,8.422,2.665
		c-4.267-2.237-8.642-0.852-11.486,2.024c0,0,7.002-4.474,11.486-0.958c-2.188-0.534-2.406,1.172-1.531,3.942
		c0.875,2.77,2.733,10.016-5.799,11.506c2.626-2.876,1.75-10.547,1.75-10.547s-2.078,4.901-4.922,8.311
		c1.75-3.837,0.33-7.034,0.33-7.034s-1.314,6.394-7.001,8.419c-3.939,1.277-5.251,1.598-5.47,2.982
		c-0.219-1.811,0.767-3.516,5.142-5.541c-3.939,0.32-4.814,1.813-6.455,3.09c-1.641,1.28-5.142,1.386-6.782,3.09
		c0.984-1.599,1.968-3.835,7.876-5.966c-3.609,0.319-8.75,2.024-10.94,6.5c-0.653-2.77,2.52-5.113,4.27-6.5
		c-5.141,2.985-6.673,3.622-7.22,6.712c-1.204-2.345-0.11-5.968,3.39-8.845c-2.953,1.385-5.906,4.049-5.906,4.049
		s0.438-5.114,7.22-7.351c2.516-0.852-6.892-1.28-9.188,4.475c-1.204,3.728-3.83,2.664-3.83,2.664
		c2.298-0.853,2.407-3.197,2.407-4.902c0-1.705,1.641-5.326,6.235-4.901c3.83,0.319,5.906-2.875,5.906-2.875
		s-2.077,1.597-6.234,1.277c2.625-0.427,5.251-3.623,8.313-5.966c3.063-2.344,10.72-4.157,10.72-4.157l0.003-0.024
		c-7.033,1.054-12.235,4.143-16.218,7.285c-4.959,3.91-5.824,1.687-5.824,1.687c0.142,0.552,1.142,1.692,2.479,1.903
		c-5.141,0.311-6.481,3.599-6.588,7.409c-0.108,3.447-3.055,2.715-3.055,2.715s0.696,0.991,1.931,1.252
		c-5.36,1.776-6.806,6.734-3.056,11.431c3.751,4.696,0.312,4.562,0.312,4.562s0.516,0.685,2.161,0.548
		c-4.604,3.383-1.458,8.187,3.848,10.428c5.306,2.241,5.212,3.156,6.2,5.123c-2.021,0.229-3.43,2.515-2.396,4.438
		c-2.771,2.284-0.704,4.663,1.597,4.663c2.3,0,5.307-1.968,4.366-4.345c0,0,2.817-1.281,2.63-3.567
		c5.728,1.416,8.64-1.188,10.565-1.509C28.09,53.055,16.277,48.269,16.751,39c0.389-3.144,0.916-5.191,0.695-6.514
		c0.482-0.297,0.877-1.324,0.877-1.324s0.307,0.683,1.312,1.623c-0.305-2.175,1.357-4.906,2.934-5.716
		c-0.832,1.578-0.394,3.327-0.394,3.327s1.017-3.518,7.929-4.926c-0.08,1.799,0.482,3.21,1.686,4.229
		c-0.641-2.35,1.369-3.524,3.459-4.072c2.088-0.548,5.304-1.88,6.587-3.757c-0.643,3.444-3.052,5.165-3.052,5.165
		s5.706-1.643,8.358-8.611c-0.885,6.733-3.938,7.751-3.938,7.751s7.315,2.897,11.011-4.854c2.091,3.054,0.724,6.654,0.724,6.654
		s3.215-1.332,3.536-3.992c0.241,1.332,1.044,1.644,1.044,1.644s-0.803,3.601,0.323,10.178c1.125,6.577-1.249,11.606-15.574,18.095
		c3.99,2.011,9.423,2.569,12.67,1.777c-1.625,3.251,2.073,4.832,4.777,4.656c-0.992,3.512,5.139,3.27,5.625,1.24
		c0.488-2.028-1.284-2.242-1.284-2.242c0.398-2.676-1.54-3.054-1.54-3.054s1.023-3.294,0.08-4.599
		c1.181-0.305,3.384-2.299,2.203-5.212c0,0,1.337,2.146,2.441,1.685c-1.575-0.535-1.184-2.759,0.549-4.981
		c1.967-3.451,0.944-6.364,0.944-6.364s0.866,1.688,0.71,3.067C75.771,33.971,69.791,29.601,69.791,29.601z M56.431,13.915
		c-0.62-1.472-0.888-1.126,1.601,0.346c2.486,1.469,4.352,2.161,3.949,4.366c-0.49,2.693-2.379,3.319-1.896,4.73
		c-1.285-0.784-0.803-3.916-2.572-5.169c0,0,0.965,3.916-0.963,5.95c0.643-3.131-1.337-7.393-2.412-9.394
		c-2-3.725-0.582-5.418-0.049-3.804C55.654,15.664,57.055,15.384,56.431,13.915z"/>
	<path style="opacity:0.3;fill:#A7A9AC;" d="M72.834,34.073c0.148,2.394-0.95,3.693-1.176,2.593
		c-0.322-1.566-1.126-2.976-3.537-4.228c3.857,5.01,0,13.311,0.482,9.239c0.48-4.072-2.251-4.542-2.251-4.542
		c-0.32,3.602-2.25,3.444-2.25,3.444s0,0,0.321-2.348c-0.739,2.595-2.165,4.793-6.903,8.305c-0.39,0.336-0.819,0.65-1.294,0.931
		c0.457-0.32,0.886-0.632,1.294-0.931c2.634-2.287,3.366-5.693,3.366-8.15c4.02-1.407,2.463-5.587,2.463-5.587
		s-1.479-0.049-3.929-0.107c0.096,0.948,0.229,1.986,0.423,3.112c1.125,6.577-1.249,11.606-15.574,18.095
		c3.99,2.011,9.423,2.569,12.67,1.777c-1.625,3.251,2.073,4.832,4.777,4.656c-0.992,3.512,5.139,3.27,5.625,1.24
		c0.488-2.028-1.284-2.242-1.284-2.242c0.398-2.676-1.54-3.054-1.54-3.054s1.023-3.294,0.08-4.599
		c1.181-0.305,3.384-2.299,2.203-5.212c0,0,1.337,2.146,2.441,1.685c-1.575-0.535-1.184-2.759,0.549-4.981
		c1.967-3.451,0.944-6.364,0.944-6.364s0.866,1.688,0.71,3.067C73.053,37.679,73.236,35.701,72.834,34.073z M62.561,53.341
		c-0.175-1.109,0.35-2.562,1.314,0.257c0.964,2.815-0.965,3.925-1.404,2.219c-0.437-1.706-1.926-2.049-1.926-2.049
		C58.879,52.658,62.736,54.45,62.561,53.341z M59.668,59.656c-3.418-0.937-2.804-4.353-1.84-3.67c0,0,1.49,1.622,3.416,1.708
		c1.929,0.085-0.086,0.599-1.4,0.511c-1.313-0.084,0.176,1.195,3.591,0.599C64.839,58.293,63.084,60.598,59.668,59.656z
		 M64.8,61.666c0.858-0.209,1.392,1.252-0.966,0.836c-2.356-0.419-2.25-2.192-1.284-1.775C62.55,60.727,63.941,61.877,64.8,61.666z"
		/>
	<g>
		<path style="opacity:0.3;fill:#A7A9AC;" d="M32.647,55.137C25.436,53.013,16.277,48.269,16.751,39
			c0.301-2.422,0.679-4.191,0.738-5.481c-2.579,0.384-4.203,0.899-4.343,1.581c-0.804,3.913,2.894,4.855,2.894,4.855
			c0.321,2.503,1.286,5.48,4.821,9.081c-5.627-3.287-4.179-7.984-5.627-7.203c-1.446,0.783-1.606,2.192-1.606,2.192
			s-0.321-2.348,1.125-4.07c-2.894,1.251-3.537,3.915-0.536,7.672c-1.982-1.252-5.734-3.603-3.481-6.89
			c2.249-3.29,0.159-5.012-1.287-7.36c1.125,3.131,0.482,5.168-1.125,5.01c1.125-1.407,0-3.757-2.732-6.263
			c-1.012-0.985-1.466-2.172-1.615-3.335c-0.25,1.874,0.395,3.986,2.042,6.05c3.751,4.696,0.312,4.562,0.312,4.562
			s0.516,0.685,2.161,0.548c-4.604,3.383-1.458,8.187,3.848,10.428c5.306,2.241,5.212,3.156,6.2,5.123
			c-2.021,0.229-3.43,2.515-2.396,4.438c-2.771,2.284-0.704,4.663,1.597,4.663c2.3,0,5.307-1.968,4.366-4.345
			c0,0,2.817-1.281,2.63-3.567C30.464,58.104,30.723,55.457,32.647,55.137z M16.512,57.829c0.367-1.251,2.202-2.233,2.11-1.339
			c0,0-0.827,1.786,0,3.218c0.826,1.428-0.827-0.27-0.827-0.895s-0.458,0.981,0.185,2.235
			C18.622,62.298,16.026,59.482,16.512,57.829z M19.675,63.321c-2.48,1.448-4.663-0.579-2.778-0.386
			c1.886,0.196,2.877-1.739,2.877-1.739C20.369,60.424,22.153,61.873,19.675,63.321z M23.246,58.201
			c-1.884,2.125-4.364,1.256-3.075,0.097c1.588-1.547,1.091-3.576,1.091-3.576c-0.297-0.674-0.496-1.835,0.497-0.579
			c0.991,1.257,0.297,3.095,0.893,2.127C23.246,55.303,25.131,56.076,23.246,58.201z"/>
	</g>
	<path style="opacity:0.6;fill:#A7A9AC;" d="M28.72,20.261c0,0,4.541-0.885,8.963-5.196c4.423-4.309,6.423-6.146,9.259-6.81
		c2.836-0.662-0.071,0.956-0.186,2.17c-0.111,1.215,1.816-1.657,3.402-2.1c1.59-0.442,0.342,1.989,1.363,5.414
		c1.021,3.427,0.113,5.747-1.703,7.404c1.703-3.203,0.795-7.734,0-9.833c-0.792-2.1-2.722,3.204-3.969,5.634
		c-1.248,2.432,0.68-1.879,0.112-5.083c-0.565-3.203-2.608,1.216-3.515,4.532c-0.907,3.315-4.652,5.523-7.374,6.188
		c4.084-2.432,4.649-4.307,4.99-6.52C40.405,13.851,35.527,20.592,28.72,20.261z"/>
	<path style="opacity:0.6;fill:#A7A9AC;" d="M23.916,8.169c0,0,9.164-8.769,22.504-6.264c0,0-8.358-0.626-13.179,2.349
		C28.9,6.76,37.58,2.844,44.01,4.097c0,0-11.091,2.35-14.146,7.202c-1.285,2.192,1.126,1.253,4.181-0.939
		c3.053-2.191,7.875-3.758,9.965-3.913c-4.502,2.19-6.75,3.13-9.805,6.576c-3.054,3.445-4.822,4.384-8.68,5.635
		c-3.857,1.252-6.75,4.23-6.75,4.23s0.642-4.542,9.644-7.674c-1.769-0.471-8.842,2.193-11.413,4.696
		c2.25-2.975,5.305-4.696,9.001-5.637c3.698-0.938,0.643-1.095-3.858-0.469c-5.303,0.628,0.321-0.157,3.858-3.444
		c3.536-3.287,4.822-5.168-0.643-2.191C19.897,11.144,23.916,8.169,23.916,8.169z"/>
	<path style="opacity:0.6;fill:#BCBEC0;" d="M17.487,14.589c0,0-3.537,0.625-4.822,4.069C11.379,22.104,11.379,13.491,17.487,14.589
		z"/>
	<path style="opacity:0.6;fill:#A7A9AC;" d="M61.048,12.239c0,0,2.894,1.724,2.894,5.637c0,2.349,0.161,0,0.322-2.662
		c0.16-2.663,0.643,0,1.607,1.721c0.963,1.723,0-2.662-1.93-5.011C62.013,9.577,65.389,14.273,61.048,12.239z"/>
	<g>
		<path style="fill:#A7A9AC;" d="M58.031,14.26c-2.488-1.472-2.221-1.818-1.601-0.346c0.624,1.469-0.776,1.75-2.343-2.975
			c-0.533-1.615-1.951,0.079,0.049,3.804c1.075,2.001,3.055,6.263,2.412,9.394c1.928-2.034,0.963-5.95,0.963-5.95
			c1.77,1.253,1.287,4.385,2.572,5.169c-0.482-1.411,1.406-2.037,1.896-4.73C62.383,16.421,60.518,15.729,58.031,14.26z"/>
		<path style="opacity:0.3;fill:#A7A9AC;" d="M57.521,46.537c-0.408,0.299-0.837,0.61-1.294,0.931
			C56.701,47.188,57.131,46.873,57.521,46.537z"/>
	</g>
	<g>
		<path d="M57.521,46.537c-0.408,0.299-0.837,0.61-1.294,0.931C56.701,47.188,57.131,46.873,57.521,46.537z"/>
	</g>
	<g>
		<path style="fill:#A7A9AC;" d="M19.774,61.196c0,0-0.992,1.936-2.877,1.739c-1.884-0.193,0.298,1.834,2.778,0.386
			C22.153,61.873,20.369,60.424,19.774,61.196z"/>
		<path style="fill:#A7A9AC;" d="M17.98,61.049c-0.643-1.254-0.185-2.86-0.185-2.235s1.653,2.322,0.827,0.895
			c-0.827-1.432,0-3.218,0-3.218c0.092-0.895-1.743,0.088-2.11,1.339C16.026,59.482,18.622,62.298,17.98,61.049z"/>
		<path style="fill:#A7A9AC;" d="M22.651,56.27c-0.596,0.968,0.098-0.87-0.893-2.127c-0.993-1.256-0.794-0.095-0.497,0.579
			c0,0,0.497,2.029-1.091,3.576c-1.289,1.159,1.191,2.028,3.075-0.097C25.131,56.076,23.246,55.303,22.651,56.27z"/>
		<path style="opacity:0.3;fill:#A7A9AC;" d="M13.259,49.66c-7.216-3.202-6.942-7.029-5.297-8.275
			c1.644-1.245,1.644-3.024,1.644-3.024c-0.074,0.738-0.744,1.392-1.528,1.914c-3.987,3.36-0.873,7.932,4.263,10.103
			c5.306,2.241,5.212,3.156,6.2,5.123C18.703,53.951,16.457,51.263,13.259,49.66z"/>
	</g>
	<g>
		<path style="fill:#A7A9AC;" d="M63.834,62.502c2.357,0.416,1.824-1.045,0.966-0.836c-0.858,0.211-2.25-0.939-2.25-0.939
			C61.584,60.31,61.478,62.083,63.834,62.502z"/>
		<path style="fill:#A7A9AC;" d="M63.435,58.804c-3.415,0.597-4.903-0.683-3.591-0.599c1.314,0.088,3.329-0.426,1.4-0.511
			c-1.926-0.086-3.416-1.708-3.416-1.708c-0.964-0.683-1.578,2.733,1.84,3.67C63.084,60.598,64.839,58.293,63.435,58.804z"/>
		<path style="fill:#A7A9AC;" d="M60.545,53.768c0,0,1.489,0.343,1.926,2.049c0.439,1.706,2.368,0.597,1.404-2.219
			c-0.965-2.818-1.489-1.366-1.314-0.257C62.736,54.45,58.879,52.658,60.545,53.768z"/>
		<path style="fill:#A7A9AC;" d="M57.521,46.537c-0.408,0.299-0.837,0.61-1.294,0.931C56.701,47.188,57.131,46.873,57.521,46.537z"
			/>
		<path style="opacity:0.3;fill:#A7A9AC;" d="M50.332,51.694c5.105-2.686,7.295-5.587,8.209-7.801
			c-2.023,3.228-6.292,6.391-14.271,10.006c3.99,2.011,9.423,2.569,12.67,1.777c-0.031,0.063-0.057,0.119-0.08,0.176
			c0.154-0.103,0.314-0.207,0.486-0.31C49.936,56.793,46.182,53.425,50.332,51.694z"/>
		<path style="opacity:0.3;fill:#A7A9AC;" d="M72.841,36.988c-0.242,0.467-0.526,0.891-0.862,1.19
			c-0.32-1.564-1.499-2.399-1.499-2.399s0.964,4.175-1.715,8.037c-1.501,2.088-0.75,3.236-0.75,3.236s-1.501-1.148-1.501-2.296
			c0,0-0.75,0.834-0.43,2.296c0.322,1.462,0.107,3.968-2.785,4.279c0.858,1.043,1.501,1.566,1.607,3.026
			c0.002,0.025,0.007,0.045,0.011,0.07c0.132-0.979,0.146-2.105-0.319-2.75c1.181-0.305,3.384-2.299,2.203-5.212
			c0,0,1.337,2.146,2.441,1.685c-1.575-0.535-1.184-2.759,0.549-4.981c1.967-3.451,0.944-6.364,0.944-6.364s0.866,1.688,0.71,3.067
			C72.188,38.861,72.621,37.896,72.841,36.988z"/>
	</g>
	<g>
		<g>
			<g>
				<path style="fill:#A7A9AC;" d="M16.396,64.329c0,0,3.534,0.08,4.026,0.563c0.492,0.477-1.492,3.545-2.696,3.545
					C16.523,68.437,14.6,64.065,16.396,64.329z"/>
				<path style="fill:#A7A9AC;" d="M17.726,68.592c-1,0-2.224-2.364-2.224-3.529c0-0.265,0.054-0.475,0.164-0.626
					c0.157-0.22,0.408-0.311,0.753-0.262c0.581,0.013,3.605,0.105,4.116,0.604c0.182,0.176,0.166,0.526-0.055,1.042
					C20,66.949,18.688,68.592,17.726,68.592z M16.244,64.475c-0.146,0-0.246,0.043-0.314,0.14c-0.07,0.097-0.107,0.252-0.107,0.448
					c0,1.173,1.21,3.217,1.903,3.217c0.721,0,1.975-1.442,2.458-2.577c0.195-0.463,0.167-0.66,0.125-0.7
					c-0.325-0.319-2.576-0.485-3.918-0.515C16.325,64.478,16.284,64.475,16.244,64.475z"/>
			</g>
			<g>
				<path style="fill:#A7A9AC;" d="M15.555,63.717c0,0-1.313-2.662-2.517-2.559c-0.984,0.108-1.968,3.623-1.421,4.584
					C12.163,66.7,15.445,64.89,15.555,63.717z"/>
				<path style="fill:#A7A9AC;" d="M12.214,66.17L12.214,66.17c-0.445,0-0.646-0.194-0.737-0.352
					c-0.425-0.743-0.028-2.737,0.583-3.891c0.306-0.577,0.628-0.888,0.961-0.923C13.053,61.002,13.082,61,13.109,61
					c1.271,0,2.538,2.543,2.59,2.651l0.02,0.036l-0.003,0.046C15.618,64.76,13.398,66.17,12.214,66.17z M13.109,61.312
					c-0.018,0-0.037,0.003-0.055,0.003c-0.206,0.024-0.465,0.298-0.708,0.755c-0.617,1.166-0.92,3.015-0.587,3.596
					c0.071,0.126,0.225,0.188,0.456,0.188c1.01,0,3.036-1.244,3.176-2.109C15.03,63.029,13.979,61.312,13.109,61.312z"/>
			</g>
		</g>
		<g style="opacity:0.4;">
			<path style="fill:#A7A9AC;" d="M14.896,62.607c0.021,1.032-1.93,2.195-2.553,2.195c-0.368,0-0.457-1.069-0.457-2.073
				c-0.397,1.099-0.58,2.469-0.269,3.013c0.546,0.958,3.828-0.853,3.938-2.025C15.555,63.717,15.292,63.188,14.896,62.607z"/>
		</g>
		<g style="opacity:0.4;">
			<path style="fill:#A7A9AC;" d="M16.725,66.24c-0.391-1.268-0.477-1.69,1.128-1.817c0.047-0.003,0.094-0.007,0.142-0.012
				c-0.854-0.064-1.599-0.082-1.599-0.082c-1.796-0.264,0.128,4.107,1.33,4.107c0.89,0,2.206-1.676,2.634-2.742
				c-0.061,0.066-0.114,0.139-0.163,0.209C19.024,67.636,17.117,67.508,16.725,66.24z"/>
		</g>
		<g>
			<path style="fill:#A7A9AC;" d="M15.474,63.85c0,0-0.82,0.692-0.274,1.172c0.548,0.482,1.259-0.213,1.205-0.692
				C16.348,63.85,15.801,63.585,15.474,63.85z"/>
			<path style="fill:#A7A9AC;" d="M15.607,65.341c-0.188,0-0.363-0.069-0.514-0.204c-0.162-0.138-0.243-0.314-0.243-0.507
				c0.005-0.461,0.497-0.881,0.519-0.9c0.116-0.093,0.256-0.141,0.407-0.141c0.347,0,0.735,0.269,0.788,0.724
				c0.025,0.224-0.076,0.485-0.269,0.695C16.098,65.22,15.849,65.341,15.607,65.341z M15.775,63.902
				c-0.076,0-0.143,0.024-0.199,0.067c-0.109,0.093-0.402,0.4-0.403,0.664c-0.001,0.101,0.043,0.192,0.135,0.271
				c0.224,0.196,0.521,0.14,0.747-0.104c0.13-0.142,0.204-0.32,0.19-0.455C16.21,64.071,15.976,63.902,15.775,63.902z"/>
		</g>
		<g>
			<path style="opacity:0.7;fill:#A7A9AC;" d="M12.581,62.489c0,0,0.215-1.025,0.937-0.379c0.721,0.646,1.054,0.664,0.605,0.038
				c-0.45-0.63-0.82-0.837-1.229-0.572C12.483,61.843,12.278,63.283,12.581,62.489z"/>
			
				<ellipse transform="matrix(0.9871 0.1601 -0.1601 0.9871 10.2574 -1.1677)" style="opacity:0.7;fill:#A7A9AC;" cx="12.376" cy="63.083" rx="0.055" ry="0.132"/>
		</g>
		<g>
			<path style="opacity:0.7;fill:#A7A9AC;" d="M19.487,66.068c0,0,0.597-0.757-0.29-0.854c-0.888-0.098-1.099-0.309-0.387-0.382
				c0.71-0.074,1.079,0.05,1.135,0.483C20.001,65.748,19.105,66.745,19.487,66.068z"/>
			
				<ellipse transform="matrix(-0.7952 -0.6063 0.6063 -0.7952 -5.906 131.1234)" style="opacity:0.7;fill:#A7A9AC;" cx="19.191" cy="66.559" rx="0.049" ry="0.122"/>
		</g>
		<path style="opacity:0.7;fill:#A7A9AC;" d="M16.055,64.149c0.066,0.121,0.063,0.249-0.006,0.287
			c-0.07,0.034-0.18-0.033-0.248-0.153c-0.065-0.12-0.063-0.246,0.007-0.284C15.878,63.964,15.989,64.03,16.055,64.149z"/>
	</g>
	<path style="opacity:0.3;fill:#A7A9AC;" d="M15.02,19.597c0,0-2.6,2.719-0.979,5.755c0.425-1.358,1.471-1.683,1.471-1.683
		s-2.059,2.569-0.399,4.363c1.658,1.795,2.966,3.319,1.391,4.576c-0.01-1.703,0.175-2.421-2.405-4.306S10.783,23.995,15.02,19.597z"
		/>
	<g>
		<g>
			<g>
				<path style="fill:#A7A9AC;" d="M66.242,62.936c0,0,2.32-2.599,3.014-2.662c0.693-0.064,1.85,3.381,1.082,4.285
					C69.568,65.459,64.887,64.112,66.242,62.936z"/>
				<path style="fill:#A7A9AC;" d="M69.314,65.011c-1.162,0-3.117-0.588-3.432-1.398c-0.076-0.196-0.097-0.492,0.251-0.794
					c0.382-0.429,2.388-2.636,3.108-2.701l0.031-0.002c0.277,0,0.563,0.3,0.848,0.891c0.521,1.083,0.932,2.956,0.34,3.653
					C70.263,64.892,69.877,65.011,69.314,65.011z M69.273,60.428c-0.461,0.042-2.029,1.623-2.91,2.611
					c-0.244,0.212-0.219,0.365-0.184,0.462c0.225,0.57,1.864,1.194,3.135,1.194c0.447,0,0.767-0.082,0.897-0.237
					c0.439-0.515,0.155-2.207-0.382-3.32C69.559,60.577,69.348,60.428,69.273,60.428z"/>
			</g>
			<g>
				<path style="fill:#A7A9AC;" d="M65.222,63.174c0,0-2.942-0.718-3.626,0.254c-0.545,0.807,1.605,3.789,2.713,3.992
					C65.416,67.621,66.078,64.004,65.222,63.174z"/>
				<path style="fill:#A7A9AC;" d="M64.396,67.584L64.396,67.584c-0.039,0-0.076-0.003-0.119-0.011
					c-0.857-0.157-2.179-1.728-2.701-2.922c-0.26-0.597-0.299-1.037-0.115-1.31c0.271-0.385,0.851-0.58,1.725-0.58
					c0.997,0,2.032,0.248,2.076,0.26l0.041,0.012l0.033,0.029c0.623,0.604,0.537,2.418,0.046,3.573
					C65.119,67.256,64.779,67.584,64.396,67.584z M63.186,63.075c-0.75,0-1.254,0.153-1.459,0.439
					c-0.113,0.169-0.061,0.54,0.146,1.014c0.527,1.208,1.792,2.614,2.466,2.735c0.261,0.047,0.525-0.229,0.745-0.745
					c0.424-0.998,0.527-2.677,0.055-3.202C64.929,63.268,64.028,63.075,63.186,63.075z"/>
			</g>
		</g>
		<g style="opacity:0.4;">
			<path style="fill:#A7A9AC;" d="M63.925,62.96c0.83,0.643,0.503,2.848,0.104,3.316c-0.235,0.275-1.136-0.344-1.93-0.982
				c0.616,0.998,1.58,2.01,2.21,2.126c1.107,0.201,1.77-3.416,0.913-4.246C65.222,63.174,64.635,63.03,63.925,62.96z"/>
		</g>
		<g style="opacity:0.4;">
			<path style="fill:#A7A9AC;" d="M67.961,63.906c-1.25-0.516-1.638-0.723-0.713-2.004c0.025-0.04,0.054-0.076,0.082-0.114
				c-0.599,0.599-1.088,1.147-1.088,1.147c-1.355,1.177,3.326,2.523,4.096,1.623c0.566-0.668,0.082-2.723-0.486-3.725
				c0.016,0.086,0.034,0.174,0.06,0.255C70.532,63.074,69.214,64.425,67.961,63.906z"/>
		</g>
		<g>
			<path style="fill:#A7A9AC;" d="M65.275,63.319c0,0,0.021,1.059,0.752,0.952c0.727-0.103,0.634-1.076,0.219-1.344
				C65.833,62.663,65.273,62.904,65.275,63.319z"/>
			<path style="fill:#A7A9AC;" d="M65.928,64.438L65.928,64.438c-0.622,0-0.805-0.703-0.814-1.114c0-0.168,0.066-0.325,0.189-0.443
				c0.253-0.248,0.71-0.29,1.033-0.084c0.295,0.19,0.455,0.645,0.367,1.035c-0.075,0.33-0.314,0.548-0.654,0.596
				C66.008,64.435,65.969,64.438,65.928,64.438z M65.868,62.976c-0.13,0-0.255,0.046-0.337,0.126
				c-0.045,0.042-0.096,0.114-0.096,0.218c0,0,0.025,0.807,0.492,0.807l0,0c0.023,0,0.049-0.003,0.074-0.009
				c0.262-0.037,0.355-0.213,0.386-0.354c0.061-0.259-0.048-0.587-0.229-0.707C66.07,63.002,65.971,62.976,65.868,62.976z"/>
		</g>
		<g>
			<path style="opacity:0.7;fill:#A7A9AC;" d="M62.354,64.619c0,0-0.673-0.816,0.297-0.944c0.971-0.13,1.197-0.365,0.417-0.43
				c-0.783-0.063-1.185,0.079-1.235,0.557C61.779,64.276,62.79,65.353,62.354,64.619z"/>
			
				<ellipse transform="matrix(0.7704 -0.6376 0.6376 0.7704 -27.144 54.9295)" style="opacity:0.7;fill:#A7A9AC;" cx="62.692" cy="65.151" rx="0.055" ry="0.133"/>
		</g>
		<g>
			<path style="opacity:0.7;fill:#A7A9AC;" d="M69.59,61.724c0,0-0.217-0.927-0.859-0.324c-0.643,0.602-0.945,0.623-0.551,0.047
				c0.398-0.581,0.729-0.777,1.107-0.546C69.666,61.136,69.883,62.445,69.59,61.724z"/>
			
				<ellipse transform="matrix(-0.9802 0.198 -0.198 -0.9802 150.5244 109.4729)" style="opacity:0.7;fill:#A7A9AC;" cx="69.789" cy="62.263" rx="0.049" ry="0.122"/>
		</g>
		
			<ellipse transform="matrix(0.2015 -0.9795 0.9795 0.2015 -9.3276 114.9844)" style="opacity:0.7;fill:#A7A9AC;" cx="65.856" cy="63.213" rx="0.141" ry="0.253"/>
	</g>
	<path style="fill:#58595B;" d="M68.758,68.138c3.048,1.365,3.088,3.108,2.178,2.35c-0.907-0.76-2.84-1.445-1.473-0.361
		c1.365,1.085,1.12,3.083,1.12,3.083c0.147,1.021,3.464-1.201,1.699-3.711C70.52,66.987,67.281,67.777,68.758,68.138z"/>
	<path style="fill:#A7A9AC;" d="M12.77,71.445c-2.246-0.969-2.116-2.344-1.478-1.777c0.636,0.567,2.076,1.04,1.113,0.232
		s-0.586-2.395-0.586-2.395c-0.021-0.8-2.806,1.073-1.665,2.99C11.292,72.416,13.885,71.678,12.77,71.445z"/>
</g>
<g id="Layer_1">
</g>
</svg>
