<?xml version="1.0" encoding="iso-8859-1"?>
<!-- Generator: Adobe Illustrator 15.0.0, SVG Export Plug-In . SVG Version: 6.00 Build 0)  -->
<!DOCTYPE svg PUBLIC "-//W3C//DTD SVG 1.1//EN" "http://www.w3.org/Graphics/SVG/1.1/DTD/svg11.dtd">
<svg version="1.1" xmlns="http://www.w3.org/2000/svg" xmlns:xlink="http://www.w3.org/1999/xlink" x="0px" y="0px" width="80px"
	 height="80px" viewBox="0 0 80 80" style="enable-background:new 0 0 80 80;" xml:space="preserve">
<g id="Layer_1_1_">
	<g>
		<g>
			<defs>
				<rect id="SVGID_1_" width="80" height="80"/>
			</defs>
			<clipPath id="SVGID_2_">
				<use xlink:href="#SVGID_1_"  style="overflow:visible;"/>
			</clipPath>
			<g style="clip-path:url(#SVGID_2_);">
				<path style="fill:none;" d="M0,20.253v39.493C0,70.932,9.066,80,20.254,80h39.492C70.932,80,80,70.932,80,59.746V20.253
					C80,9.066,70.932,0,59.746,0H20.254C9.066,0,0,9.066,0,20.253z"/>
			</g>
		</g>
	</g>
	<path style="fill:#A7A9AC;" d="M59.53,68.869c1.766,2.175,2.409,2.849,1.931,4.113c0,0,0.654-0.44,0.479-1.265
		c0,0,0.862-0.028,1.208,1.705c0.346,1.737,1.608,4.323,3.633,3.601c0,0-1.505-0.313-1.091-2.486
		c0.417-2.174,1.905-1.684,2.113-3.311c0.207-1.635-1.091-2.357-1.091-2.357s1.245,0.287,1.349-1.834c0,0-0.881,1.139-1.644-0.131
		c-0.762-1.271-0.173-2.764,0.416-4.168c1.196-2.848,0.634-8.521-2.739-10.127c-0.256,0.599-0.676,1.207-1.345,1.744
		c-1.344,1.072-2.208,0.789-2.642,0.469l-0.479,0.436c0,0-1.309,1.715-0.697,4.025c0.612,2.311,0.586,2.113,0.131,3.852
		C58.608,64.873,57.765,66.693,59.53,68.869z M60.928,55.62c0.241,2.51,1.457,2.741,1.457,2.741
		c-0.155-2.104,0.623-3.311,0.623-3.311c0.087,1.452,1.367,2.561,1.367,2.561c-0.691-1.553-0.537-3.571-0.537-3.571
		c1.143,0.207,1.471,2.099,1.471,2.099c0.226-1.629-0.535-2.691-0.535-2.691s1.557,1.039,2.093,3.674
		c0.535,2.637,0.087,4.113-1.28,6.676s0.692,4.014,1.593,4.039c0,0-0.9,0.932-1.956-0.207c0,0,0.209,1.039,1.333,1.732
		c1.125,0.695,0.795,1.683-0.295,2.615c-1.09,0.93-1.298,1.967-1.142,2.793c0,0-0.891-0.896-0.345-2.535
		c0.38-1.139,0.086-1.838-0.313-2.406c0,0,0.189,0.854-0.415,1.525c0,0,0.381-2.121-0.45-3.648c-0.831-1.525-1.713-3.08-1.038-5.121
		c0,0-1.645-0.443-2.182-2.643C59.842,57.742,60.929,55.621,60.928,55.62z"/>
	<path style="opacity:0.8;fill:#A7A9AC;enable-background:new    ;" d="M59.073,58.218c-0.369,1.975-4.18,2.744-4.18,5.408
		c0,2.666,2.549,2.308,2.549,2.308c-1.132-0.334-2.015-1.685-0.41-3.627c0.897-1.083,2.407-2.045,2.876-3.854
		c0.468-1.813-1.068-3.34-1.068-3.34S59.439,56.253,59.073,58.218z"/>
	<path style="opacity:0.8;fill:#A7A9AC;enable-background:new    ;" d="M74.698,16.462c-1.906,0.631-4.422-2.333-6.755-1.044
		c-2.333,1.289-0.787,3.347-0.787,3.347c-0.255-1.152,0.5-2.578,2.977-2.112c1.382,0.262,2.953,1.119,4.765,0.654
		c1.813-0.466,2.407-2.55,2.407-2.55S76.596,15.833,74.698,16.462z"/>
	<g>
		<g>
			<g>
				<path style="fill:#A7A9AC;" d="M18.329,50.419c-4.257-4.198-5.628-7.285-5.328-10.389c0.3-3.105,0.954-6.252,0.954-6.252
					c2.557,1.941,0.629,2.674,0.348,4.777c-0.347,2.636,2.813,3.105,2.813,3.105c-1.357-0.855-1.306-2.953,0.801-4.076
					c2.106-1.127,1.606-3.145-0.201-5.514c-1.803-2.369-1.101-5.357,3.412-7.183c4.515-1.823,3.748-3.014,7.511-4.645
					c3.762-1.633,5.731-0.945,5.731-0.945s2.804-0.148,13.022,0.099c7.642,0.184,7.845,4.404,6.641,7.24
					c-1.204,2.833,0.049,4.192,3.109,5.771c2.681,1.384,3.412,3.427,2.86,4.359c-0.567,0.959-1.381,1.768-0.277,3.242
					c1.104,1.477,2.76,1.128,2.76,1.128c-1.403-0.507-1.48-1.922,0.326-3.649c1.806-1.729,0.853-3.399-0.252-4.562
					c-1.102-1.165-1.652-1.942-0.852-2.952c0.802-1.007,1.153-2.213,1.153-2.213s3.264,2.021,1.806,6.911
					c-1.426,4.8,0.703,6.638,0.804,10.209c0.101,3.57-4.825,7.381-4.825,7.381S73.92,46.791,75.39,32.92
					C76.861,19.05,64.879,5.414,51.895,1.882c-13.643-3.71-21.938,0.634-21.938,0.634S18.588,0.964,10.025,13.179
					C1.486,25.36,2.014,43.439,18.329,50.419z"/>
			</g>
			<g>
				<path style="fill:#A7A9AC;" d="M59.027,21.894c0.273,0.124,0.668,0.303,1.104,0.56c0.431,0.263,0.925,0.583,1.384,0.982
					c0.225,0.204,0.458,0.416,0.655,0.654c0.205,0.235,0.389,0.486,0.548,0.747c0.156,0.263,0.28,0.538,0.372,0.812
					c0.096,0.275,0.139,0.558,0.163,0.827c0.017,0.271-0.005,0.531-0.049,0.778c-0.029,0.122-0.056,0.237-0.08,0.354
					c-0.04,0.11-0.077,0.218-0.114,0.322c-0.08,0.204-0.168,0.387-0.265,0.543c-0.102,0.156-0.175,0.295-0.259,0.399
					c-0.16,0.213-0.26,0.328-0.26,0.328s0.068-0.127,0.184-0.357c0.065-0.11,0.115-0.254,0.185-0.413
					c0.066-0.161,0.121-0.348,0.186-0.546c0.021-0.102,0.046-0.207,0.07-0.317c0.014-0.11,0.027-0.223,0.042-0.339
					c0.019-0.235,0.009-0.478-0.015-0.733c-0.021-0.125-0.044-0.252-0.069-0.379c-0.044-0.127-0.065-0.257-0.119-0.385
					c-0.089-0.258-0.21-0.509-0.359-0.756c-0.284-0.495-0.692-0.948-1.102-1.35c-0.419-0.399-0.853-0.75-1.251-1.028
					c-0.4-0.276-0.743-0.503-0.997-0.647c-0.25-0.15-0.398-0.232-0.398-0.232S58.75,21.774,59.027,21.894z"/>
			</g>
			<g>
				<path style="fill:#A7A9AC;" d="M14.592,26.548c-0.242,0.181-0.563,0.453-0.91,0.798c-0.352,0.342-0.695,0.778-0.977,1.271
					c-0.268,0.496-0.465,1.055-0.469,1.624c-0.014,0.283,0.029,0.569,0.088,0.844c0.039,0.137,0.08,0.275,0.125,0.408
					c0.055,0.13,0.101,0.263,0.164,0.388c0.066,0.124,0.131,0.249,0.193,0.368c0.076,0.118,0.146,0.235,0.217,0.345
					c0.16,0.218,0.303,0.427,0.472,0.606c0.157,0.183,0.302,0.348,0.444,0.49c0.137,0.147,0.262,0.272,0.371,0.368
					c0.207,0.201,0.332,0.317,0.332,0.317s-0.147-0.1-0.396-0.275c-0.128-0.084-0.272-0.197-0.429-0.328
					c-0.084-0.067-0.168-0.139-0.26-0.212c-0.084-0.079-0.172-0.164-0.264-0.252c-0.186-0.171-0.355-0.377-0.545-0.592
					c-0.084-0.113-0.172-0.229-0.26-0.345c-0.084-0.121-0.149-0.251-0.23-0.381c-0.139-0.263-0.26-0.546-0.344-0.841
					c-0.066-0.297-0.121-0.602-0.105-0.911c0.004-0.308,0.066-0.615,0.16-0.909c0.088-0.294,0.239-0.571,0.389-0.829
					c0.326-0.515,0.746-0.94,1.138-1.271c0.387-0.337,0.774-0.569,1.039-0.728c0.271-0.156,0.438-0.226,0.438-0.226
					S14.827,26.371,14.592,26.548z"/>
			</g>
			<g>
				<g>
					<path style="fill:#A7A9AC;" d="M52.837,26.363c-0.184-0.33-0.379-0.654-0.603-0.97c-0.436-0.632-0.944-1.235-1.51-1.801
						c-0.563-0.564-1.199-1.082-1.889-1.551c-0.178-0.112-0.349-0.23-0.529-0.341l-0.549-0.317
						c-0.375-0.199-0.755-0.398-1.151-0.568c-0.193-0.093-0.396-0.173-0.6-0.251c-0.204-0.076-0.404-0.161-0.613-0.225l-0.625-0.205
						l-0.638-0.173c-0.211-0.064-0.43-0.105-0.646-0.153c-0.218-0.04-0.431-0.099-0.653-0.129c-0.44-0.072-0.878-0.149-1.32-0.189
						c-0.442-0.058-0.888-0.09-1.333-0.115c-0.446-0.041-0.891-0.027-1.337-0.041c-0.446-0.001-0.891,0.019-1.337,0.029
						l-1.329,0.092l-0.135,0.01l-0.063-0.098c-0.098-0.142-0.226-0.292-0.354-0.432c-0.137-0.141-0.279-0.278-0.434-0.405
						c-0.155-0.126-0.319-0.249-0.492-0.36c-0.166-0.12-0.352-0.219-0.534-0.321c-0.187-0.097-0.38-0.186-0.583-0.264
						c-0.195-0.084-0.406-0.146-0.614-0.21c-0.212-0.056-0.421-0.117-0.646-0.15c-0.211-0.044-0.434-0.079-0.657-0.1
						c-0.878-0.083-1.778,0.011-2.617,0.22c-0.423,0.109-0.829,0.242-1.222,0.406c-0.389,0.164-0.771,0.341-1.119,0.554
						c0.664-0.462,1.447-0.819,2.285-1.071c0.839-0.251,1.761-0.378,2.693-0.308c0.229,0.016,0.457,0.047,0.688,0.088
						c0.232,0.029,0.453,0.091,0.679,0.143c0.222,0.062,0.444,0.124,0.657,0.208c0.215,0.078,0.422,0.168,0.625,0.268
						c0.199,0.1,0.398,0.207,0.582,0.327c0.188,0.111,0.365,0.241,0.529,0.38c0.168,0.134,0.322,0.281,0.469,0.428
						c0.145,0.15,0.275,0.302,0.396,0.481l-0.197-0.088l1.35-0.103c0.451-0.012,0.904-0.038,1.357-0.038
						c0.457,0.011,0.909-0.004,1.366,0.032c0.457,0.023,0.912,0.048,1.367,0.11c0.454,0.043,0.904,0.127,1.352,0.202
						c0.228,0.034,0.448,0.093,0.672,0.141c0.224,0.05,0.445,0.095,0.662,0.158l0.655,0.185l0.643,0.215
						c0.216,0.067,0.42,0.156,0.628,0.238c0.209,0.082,0.418,0.165,0.617,0.26c0.405,0.178,0.792,0.385,1.176,0.594l0.554,0.336
						c0.179,0.119,0.354,0.242,0.531,0.363c0.691,0.493,1.318,1.04,1.877,1.625c0.558,0.585,1.041,1.214,1.442,1.866
						c0.402,0.651,0.742,1.33,0.954,2.026C53.187,27.027,53.014,26.693,52.837,26.363z"/>
				</g>
			</g>
		</g>
		<g style="opacity:0.5;">
			<path style="fill:#A7A9AC;" d="M18.328,50.418C14.037,46.494,12.7,43.133,13,40.029c0.3-3.105,0.954-6.252,0.954-6.252
				c2.557,1.941,0.629,2.674,0.348,4.777c-0.347,2.635,2.813,3.105,2.813,3.105c-1.357-0.856-1.307-2.953,0.801-4.076
				c2.107-1.127,1.605-3.145-0.201-5.514c-1.803-2.369-1.101-5.357,3.412-7.183c4.516-1.822,3.377-2.858,7.139-4.488
				c3.764-1.633,6.104-1.101,6.104-1.101s2.448,0.083,14.499,0.102c7.643,0.011,6.368,4.401,5.164,7.237
				c-1.204,2.833,0.049,4.192,3.109,5.771c2.681,1.384,3.412,3.427,2.86,4.359c-0.567,0.959-1.381,1.768-0.277,3.242
				c1.104,1.477,2.76,1.128,2.76,1.128c-1.403-0.507-1.48-1.922,0.326-3.649c1.806-1.729,0.853-3.399-0.252-4.562
				c-1.102-1.165-1.652-1.942-0.852-2.952c0.802-1.007,1.153-2.213,1.153-2.213s3.264,2.021,1.806,6.911
				c-1.426,4.8,0.703,6.638,0.804,10.209c0.1,3.571-2.474,5.978-2.474,5.978s10.799-3.846,12.269-17.717
				C76.737,19.271,64.879,5.414,51.895,1.882c-13.643-3.71-21.938,0.634-21.938,0.634S18.588,0.964,10.025,13.179
				C1.486,25.36,1.215,43.418,18.328,50.418z M32.825,5.597c-7.765-2.075,4.53-6.113,18.484-3.085
				C65.268,5.54,76.093,21.734,73.196,31.06c-1.554,5.01-4.413,3.767-6.422,0.156c-2.215-3.988-1.547-5.202-3.478-7.296
				c-2.607-2.837-6.42-3.108-6.42-3.108c6.321,3.209,5.753,6.625,4.481,8.074c-1.271,1.449-0.868,2.227-0.032,3.263
				c0.835,1.037,2.048,1.826,2.041,3.519c-0.01,1.692-2.81,2.484-2.81,2.484c2.271-2.951,0.902-4.879-1.656-6.277
				s-3.762-2.211-3.559-4.152c0.204-1.942,3.614-5.827-3.641-10.132c-7.254-4.305-14.086-1.101-13.117-2.264
				c0.971-1.167,5.217-1.529,5.217-1.529s-10.131,0.453-9.43-1.37c0.702-1.825,7.223-3.184,7.223-3.184s-3.913,0.117-3.411-0.97
				c0.502-1.086,2.961-1.126,2.961-1.126S37.482,6.84,32.825,5.597z M8.889,15.766c7.625-12.24,17.723-13.403,18.77-12.37
				c0.803,0.795-1.914,3.053-1.914,3.053c2.027-0.456,0.703,1.684,0.703,1.684c2.775-0.337,6.07,1.539,5.016,3.054
				c-1.057,1.515-5.969,3.456-5.969,3.456c6.27-0.663,7.973,2.833,6.621,2.21c-4.551-2.086-7.225,1.633-7.875,3.803
				c-0.655,2.176-2.459,3.068-4.516,3.651c-5.343,1.514-5.318,5.705-2.86,7.919c2.459,2.213,2.392,3.742,0.396,5.086
				c-2,1.342-2.1,2.746-2.1,2.746s-0.855-1.503,0.351-3.23c1.072-1.539,1.105-2.932-1.005-5.377c-2.107-2.445,1.057-5.83,1.057-5.83
				c-6.726,3.345-4.666,8.054-8.145,7.525C3.939,32.614,3.85,23.857,8.889,15.766z"/>
		</g>
		<g style="opacity:0.8;">
			<path style="fill:#A7A9AC;" d="M60.029,11.535c-3.035-1.979-11.362-3.765-8.453-2.33c2.909,1.438,5.469,3.728,2.811,2.562
				c-8.787-3.846-23.98,0.427-15.351,0.235c8.629-0.195,13.143,3.028,11.436,2.485c-3.099-0.991-7.433-0.08-5.314,0.076
				c9.087,0.674,12.155,4.956,11.084,2.944c-2.446-4.602-7.456-5.589-5.753-5.233c10.635,2.224,11.639,9.212,11.504,6.314
				c-0.133-2.898-3.845-6.47-3.845-6.47c6.486,2.742,8.66,9.266,8.527,7.112c-0.236-3.806-4.75-7.862-4.75-7.862
				c1.604,1.138,5.621,3.855,2.746,0.543c-10.481-12.087-26.788-9.95-26.788-9.95C55.038,2.414,63.063,13.516,60.029,11.535z"/>
		</g>
		<path style="opacity:0.8;fill:#A7A9AC;enable-background:new    ;" d="M13.848,16.28c-1.318,2.531-0.781,4.947-0.08,3.807
			c1.407-2.278,5.385-5.071,4.315-3.546c-1.071,1.528-0.969,2.148-0.135,1.667c0.837-0.484,2.063-1.633,1.472-0.416
			c-1.234,2.556-3.579,3.486-2.104,3.099c2.592-0.685,4.58-3.104,2.873-0.311c-1.287,2.109-4.815,2.977-3.945,2.821
			c3.898-0.695,5.617-1.631,6.755-4.813c1.138-3.182,7.229-3.017,5.552-3.286c-5.953-0.957-10.433,2.069-8.994,0.62
			c2.142-2.156,7.623-3.362,4.379-3.028c-6.283,0.651-8.527,4.038-8.074,2.912c1.218-3.036,6.021-4.853,4.012-4.542
			c-6.311,0.979-8.377,5.977-7.855,4.698C15.189,8.148,26.012,4.07,26.012,4.07s-9.283,0.857-15.318,9.834
			c-4.687,6.977-3.945,10.888-3.612,12.009c0.337,1.118,0.403-2.746,2.978-6.255C12.863,15.831,14.619,14.804,13.848,16.28z"/>
		<path style="opacity:0.8;fill:#A7A9AC;enable-background:new    ;" d="M59.903,26.108c1.054-2.741-2.458-4.206-2.458-4.206
			s3.16,0.931,3.813,3.719c0.499,2.133-2.811,3.964-0.754,6.254C57.395,30.09,58.848,28.85,59.903,26.108z"/>
		<path style="opacity:0.8;fill:#A7A9AC;enable-background:new    ;" d="M17.248,36.754c-1.426,1.203-2.063,2.032-2.063,2.032
			c-0.127-1.183,1.403-2.153,1.828-3.766c0.43-1.61-1.451-3.026-1.451-3.026C18.588,33.444,18.855,35.402,17.248,36.754z"/>
	</g>
	<g>
		<g>
			<path style="fill:#A7A9AC;" d="M56.454,54.822c0.838,0.32,2.508,0.603,5.104-0.469c3.646-1.51,3.467-3.582,3.173-4.488
				c-1.043,0.689-1.733,0.992-1.733,0.992S60.505,52.859,56.454,54.822z"/>
		</g>
		<g>
			<path style="fill:#A7A9AC;" d="M56.455,54.822c0.838,0.32,2.508,0.603,5.104-0.469c2.092-0.867,2.922-1.918,3.196-2.826
				c-2.449,2.547-7.761,4.113-5.137,2.063c2.104-1.648,4.202-2.764,5.22-3.262c-0.025-0.176-0.065-0.33-0.107-0.463
				c-1.043,0.689-1.733,0.992-1.733,0.992S60.505,52.859,56.455,54.822z"/>
		</g>
	</g>
	<g id="Layer_1_2_">
	</g>
</g>
<g id="Layer_1">
</g>
</svg>
