<?xml version="1.0" encoding="iso-8859-1"?>
<!-- Generator: Adobe Illustrator 15.0.0, SVG Export Plug-In . SVG Version: 6.00 Build 0)  -->
<!DOCTYPE svg PUBLIC "-//W3C//DTD SVG 1.1//EN" "http://www.w3.org/Graphics/SVG/1.1/DTD/svg11.dtd">
<svg version="1.1" xmlns="http://www.w3.org/2000/svg" xmlns:xlink="http://www.w3.org/1999/xlink" x="0px" y="0px"
	 width="79.999px" height="80px" viewBox="0 0 79.999 80" style="enable-background:new 0 0 79.999 80;" xml:space="preserve">
<g id="ico-hair-type-5">
	<g>
		<defs>
			<rect id="SVGID_1_" y="0" width="79.999" height="80"/>
		</defs>
		<clipPath id="SVGID_2_">
			<use xlink:href="#SVGID_1_"  style="overflow:visible;"/>
		</clipPath>
		<g style="clip-path:url(#SVGID_2_);">
			<path style="fill:none;" d="M59.746,0H20.253C9.067,0,0,9.066,0,20.253v39.493C0,70.932,9.067,80,20.253,80h39.493
				c11.186,0,20.253-9.068,20.253-20.254V20.253C79.999,9.066,70.932,0,59.746,0z"/>
		</g>
	</g>
	<g>
		<path style="fill:#A7A9AC;" d="M7.58,18.4c-6.252,12.742,4.625,14.965,4.625,14.965s-0.387-3.241,2.627-4.36
			c16.526-4.81,25.802-11.407,25.802-11.407s4.382,3.802,12.535,6.664c5.447,1.913,11.852,3.14,12.934,7.879
			c2.302-3.482,6.479-1.523,7.104-1.034c0,0,10.285-25.487-35.165-26.167C19.483,5.45,10.742,12.072,7.58,18.4z"/>
		<path style="opacity:0.5;fill:#A7A9AC;" d="M40.46,14.455c0,0-13.413,13.694-28.74,13.818
			C5.163,28.405,26.645,27.063,40.46,14.455z"/>
		<g style="opacity:0.5;">
			<path style="fill:#A7A9AC;" d="M38.041,4.94C19.483,5.45,10.742,12.072,7.58,18.4c-0.81,1.653-1.312,3.159-1.579,4.53
				l0.304,0.185c0,0,9.144-19.196,33.617-15.29c7.263-2.543,22.86,0.171,29.853,6.967c0.063-0.007,0.123-0.021,0.188-0.029
				C65.452,9.6,56.239,5.213,38.041,4.94z"/>
		</g>
		<g>
			<path style="fill:#A7A9AC;" d="M73.53,30.942c1.982-7.633,0.372-14.844-8.9-20.402c-8.801-5.275-23.167-6.737-34.667-5.149
				C10.967,8.012-1.645,22.4,11.657,32.96c0.244,0.193,0.652-0.426,0.411-0.617C-1.045,21.934,11.413,9.119,29.103,5.922
				c11.31-2.043,25.432-0.262,34.454,4.524c9.812,5.205,11.359,12.794,9.412,20.291c-0.064,0.242,0.018,0.455,0.405,0.339
				L73.53,30.942z"/>
		</g>
		<path style="opacity:0.5;fill:#A7A9AC;" d="M42.88,15.046c0,0,8.068,8.069,17.616,9.258c9.549,1.191,6.858,5.435,6.858,5.435
			s0.404-3.563-7.8-4.499C51.353,24.304,45.572,20.48,42.88,15.046z"/>
	</g>
	<g>
		<path style="fill:#A7A9AC;" d="M16.146,61.777c0,0-2.643,0.419-2.983,2.355c-0.341,1.938-1.406,2.431-2.603,1.821
			c0,0,0.383,1.636,2.005,1.291c-0.809,0.873-0.597,1.256,0.257,2.431c0.852,1.178,0.894,2.317-0.683,2.204
			c0,0,1.065,1.406,2.857,0.722c1.788-0.684,1.533-2.734,1.533-2.734s0.938,0.57,2.046,0.039c-1.194-0.116-1.62-0.838-0.555-1.788
			c1.065-0.947,1.408-3.037,0.214-5.163C17.381,61.7,16.784,61.7,16.146,61.777z"/>
	</g>
	<g>
		<g>
			<path style="fill:#A7A9AC;" d="M11.2,35.121c0,0-2.259,2.505,1.364,6.036c-1.406-0.379-2.856,2.011-0.639,4.938
				c-0.683,0.493-0.47,4.176,1.875,5.847c-1.363,0.95-0.342,3.417,0.938,4.255c-0.938,0.376-0.682,2.351,1.876,4.403
				c0.513,0.379,2.686,0.152,1.92-3.041c0.596-1.023,1.192-2.998-1.067-5.198c0.172-1.217,0.342-2.927-0.512-4.066
				c0.64-0.721,0.512-2.771,0.085-3.302c0.896,0.113,3.454-1.861,3.027-4.368C20.067,40.625,11.67,35.082,11.2,35.121z"/>
		</g>
	</g>
	<path style="opacity:0.4;fill:#A7A9AC;" d="M17.296,63.511c0,0,1.366,2.074-0.199,3.597C17.097,67.107,19.967,65.766,17.296,63.511
		z"/>
	<path style="opacity:0.4;fill:#A7A9AC;" d="M12.523,38.538c0,0,2.6,1.594,2.643,3.341c0.04,1.747,2.558-0.113-0.13-2.734
		C12.352,36.523,11.498,37.931,12.523,38.538z"/>
	<path style="opacity:0.4;fill:#A7A9AC;" d="M18.192,42.222c0,0-0.128,0.607-1.237,1.365c-1.109,0.76,1.237,0.685,1.789-0.493
		C19.3,41.919,18.447,41.387,18.192,42.222z"/>
	<path style="opacity:0.4;fill:#A7A9AC;" d="M15.846,46.017c0,0,0.256,0.761,0,1.405c-0.255,0.649,0.896,0.114,0.769-0.794
		C16.485,45.715,15.846,45.524,15.846,46.017z"/>
	<path style="opacity:0.4;fill:#A7A9AC;" d="M13.289,49.132c0,0,0.342,1.14,1.279,2.09c0.938,0.949-0.809,0.114-1.406-1.027
		C12.564,49.058,13.033,48.335,13.289,49.132z"/>
	<path style="opacity:0.4;fill:#A7A9AC;" d="M15.719,49.816c0,0,0.938,0.836,1.065,1.595c0.128,0.76,0.556-0.075,0.214-1.217
		C16.656,49.058,15.206,49.172,15.719,49.816z"/>
	<path style="opacity:0.4;fill:#A7A9AC;" d="M12.523,44.385c0,0,1.533,1.747,1.149,2.243C13.289,47.12,11.286,43.058,12.523,44.385z
		"/>
	<path style="fill:#A7A9AC;" d="M13.033,41.766c0,0,1.791,2.354,2.133,4.177C15.504,47.766,16.529,43.664,13.033,41.766z"/>
	<path style="fill:#A7A9AC;" d="M12.138,46.096c0,0,0.64,1.557,3.326,2.277C15.933,48.562,13.929,49.626,12.138,46.096z"/>
	<path style="fill:#A7A9AC;" d="M13.801,51.942c0,0,0.795,0.81,3.182,0.81C17.779,52.752,15.733,54.271,13.801,51.942z"/>
	<path style="fill:#A7A9AC;" d="M14.738,56.197c0,0,1.791,1.362,3.496,1.009C19.485,56.904,16.531,59.283,14.738,56.197z"/>
	<path style="opacity:0.4;fill:#A7A9AC;" d="M14.788,53.825c0,0,1.356,1.957,3.315,1.538c0.982-0.385,0.03,1.998-2.16,0.955
		C13.756,55.28,13.813,52.729,14.788,53.825z"/>
	<path style="fill:#A7A9AC;" d="M15.617,62.729c0,0,0.628,1.821-0.793,3.342c-1.423,1.52-0.456,3.291-0.456,3.291
		s-0.852-1.925,1.081-3.443C16.926,64.65,16.188,63.183,15.617,62.729z"/>
	<g>
		<path style="fill:#A7A9AC;stroke:#15927A;stroke-width:0.0815;" d="M15.337,59.828l-0.511,2.122c0,0,2.021,1.112,3.323,0.251
			l0.275-2.258C18.425,59.943,17.275,60.472,15.337,59.828z"/>
		<g>
			<path style="fill:#A7A9AC;stroke:#149787;stroke-width:0.0815;" d="M14.826,61.95l0.414-1.727l0.617,1.719l1.001-1.41
				l0.752,1.382l0.746-1.403l-0.207,1.69C16.848,63.063,14.826,61.95,14.826,61.95z"/>
		</g>
	</g>
</g>
<g id="Layer_1">
</g>
</svg>
