<?xml version="1.0" encoding="iso-8859-1"?>
<!-- Generator: Adobe Illustrator 15.0.0, SVG Export Plug-In . SVG Version: 6.00 Build 0)  -->
<!DOCTYPE svg PUBLIC "-//W3C//DTD SVG 1.1//EN" "http://www.w3.org/Graphics/SVG/1.1/DTD/svg11.dtd">
<svg version="1.1" xmlns="http://www.w3.org/2000/svg" xmlns:xlink="http://www.w3.org/1999/xlink" x="0px" y="0px"
	 width="81.888px" height="80px" viewBox="0 0 81.888 80" style="enable-background:new 0 0 81.888 80;" xml:space="preserve">
<g id="ico-hair-type-1">
	<g>
		<defs>
			<rect id="SVGID_1_" x="1.775" y="0" width="80" height="80"/>
		</defs>
		<clipPath id="SVGID_2_">
			<use xlink:href="#SVGID_1_"  style="overflow:visible;"/>
		</clipPath>
		<g style="clip-path:url(#SVGID_2_);">
			<path style="fill:none;" d="M61.521,0H22.029C10.843,0,1.775,9.066,1.775,20.253v39.493C1.775,70.932,10.843,80,22.029,80h39.493
				c11.187,0,20.254-9.068,20.254-20.254V20.253C81.775,9.066,72.708,0,61.521,0z"/>
		</g>
	</g>
	<g>
		<path style="fill:#A7A9AC;" d="M18.064,70.426C13.906,69.591,2.272,58.544,1.64,42.871C1.007,27.193,14.783,9.874,28.579,5.009
			c19.635-6.754,29.303,0.428,37.734,8.151c8.953,8.208,13.522,3.603,13.522,3.603s-1.624,6.542-5.78,6.395
			c10.704,9.61,6.54,19.93,6.54,19.93s-0.037-1.246-0.726-3.834c-1.439,26.72-20.773,34.279-20.773,34.279s8.371-7.753,6.352-16.372
			c-1.242-4.873-0.948-7.375,0.539-11.672c1.565-4.339,2.717-7.583-0.79-14.837c1.108,5.979-0.077,13.043-0.077,13.043
			s-2.094-14.039-13.765-17.981c2.304,5.351-5.122,16.773-13.303,15.978c3.509-2.26,5.764-9.244,3.392-14.341
			c-0.601,5.547-6.553,11.098-9.806,12.138c5.624-4.291,5.347-10.883,5.347-10.883S30.354,42.07,16.091,38.977
			c-2.795,6.229-3.23,11.05-2.866,12.706C14.568,57.776,11.574,56.817,18.064,70.426z"/>
		<path style="fill:#A7A9AC;" d="M59.181,74.51 M59.264,73.61c-0.914,0.366,8.037-7.991,6.063-16.414
			c-1.286-5.059-0.894-7.61,0.545-11.761c1.51-4.193,2.619-7.264-0.408-13.911c0.839,5.728-0.21,12.131-0.221,12.195
			c-0.009,0.053-0.054,0.093-0.084,0.106c-0.058,0.012-0.135-0.006-0.159-0.081c-0.008-0.022-0.012-0.045-0.005-0.066
			c-0.14-0.822-2.484-13.857-13.419-17.745c0.535,1.497,0.409,3.484-0.359,5.636c-1.492,4.17-4.971,8.001-8.653,9.527
			c-1.518,0.629-3.036,0.874-4.521,0.727c-0.053-0.002-0.098-0.048-0.109-0.106c-0.014-0.06,0.013-0.124,0.059-0.153
			c3.987-2.562,5.202-9.539,3.515-13.753c-0.813,5.084-5.999,10.241-9.363,11.637c-0.161,0.067-0.318,0.125-0.468,0.173
			c-0.058,0.02-0.122-0.013-0.146-0.076c-0.027-0.061-0.007-0.135,0.04-0.174c4.607-3.513,5.21-8.648,5.286-10.258
			c-0.881,1.546-4.183,6.742-10.037,9.171c-3.303,1.37-6.895,1.654-10.68,0.847c-4.166,5.083-4.632,7.591-4.945,9.255l-0.033,0.165
			c-0.05,0.276-0.104,0.548-0.155,0.814c-1.049,5.397-1.877,9.659,7.152,20.967c0.035,0.045,0.042,0.11,0.017,0.16
			c-0.027,0.053-0.077,0.079-0.13,0.07C14.048,69.763,2.169,59,1.517,42.877c-0.288-7.142,2.394-15.081,7.559-22.354
			C13.947,13.66,20.513,8.16,27.092,5.434c0.483-0.2,0.97-0.39,1.45-0.556c19.426-6.683,28.987,0.056,37.849,8.174
			c6.145,5.632,10.196,5.17,12.069,4.396c0.851-0.353,1.289-0.785,1.292-0.791c0.043-0.041,0.101-0.048,0.149-0.015
			c0.045,0.034,0.067,0.097,0.053,0.157c-0.05,0.202-1.26,4.95-4.283,6.205c-0.405,0.167-0.831,0.267-1.27,0.287
			c5.343,4.92,6.793,10,7.062,13.421c0.298,3.773-0.745,6.404-0.756,6.431c-0.013,0.035-0.037,0.063-0.071,0.074
			c-0.059,0.031-0.137-0.011-0.16-0.081c-0.012-0.027-0.012-0.056-0.006-0.083c-0.011-0.197-0.089-1.193-0.525-3
			c-0.662,9.64-3.846,17.701-9.466,23.978 M79.855,39.113c0.06-0.01,0.115,0.033,0.131,0.098c0.422,1.587,0.602,2.664,0.679,3.274
			c0.28-0.946,0.767-3.052,0.549-5.764c-0.271-3.418-1.746-8.528-7.234-13.456c-0.042-0.036-0.059-0.101-0.039-0.155
			c0.019-0.057,0.068-0.094,0.12-0.094c0.526,0.021,1.039-0.071,1.524-0.273c2.403-0.998,3.648-4.434,4.014-5.616
			c-0.226,0.166-0.578,0.383-1.054,0.584c-1.919,0.796-6.071,1.274-12.313-4.442c-8.806-8.072-18.31-14.766-37.619-8.127
			c-0.476,0.166-0.958,0.354-1.437,0.552c-6.538,2.711-13.064,8.182-17.909,15.004c-5.122,7.221-7.791,15.093-7.502,22.165
			c0.344,8.594,3.923,15.22,6.858,19.261c3.3,4.54,6.96,7.409,9.088,8.068c-8.84-11.169-8.004-15.464-6.952-20.885
			c0.053-0.269,0.104-0.538,0.158-0.814l0.028-0.164c0.321-1.698,0.799-4.266,5.053-9.443c0.03-0.036,0.072-0.054,0.115-0.043
			c3.763,0.815,7.333,0.54,10.616-0.82c6.797-2.821,10.11-9.422,10.145-9.486c0.025-0.055,0.082-0.083,0.134-0.07
			c0.054,0.015,0.093,0.068,0.096,0.13c0.003,0.064,0.198,6.152-4.697,10.433c3.408-1.614,8.375-6.748,8.915-11.699
			c0.005-0.06,0.046-0.11,0.099-0.12c0.054-0.01,0.108,0.021,0.131,0.074c2.366,5.081,0.26,11.795-3.106,14.291
			c1.328,0.069,2.679-0.178,4.028-0.739c3.624-1.501,7.042-5.27,8.512-9.372c0.793-2.214,0.884-4.238,0.256-5.694
			c-0.019-0.046-0.014-0.105,0.019-0.149c0.032-0.043,0.083-0.06,0.129-0.043c10.084,3.407,13.084,14.436,13.714,17.371
			c0.261-1.947,0.857-7.487-0.027-12.271c-0.014-0.066,0.02-0.135,0.077-0.159l0,0c0.057-0.025,0.119,0.001,0.149,0.063
			c3.545,7.333,2.334,10.697,0.799,14.958c-1.415,4.086-1.802,6.599-0.537,11.587c1.693,7.214-4.036,14.381-6.173,16.18
			c0.017-0.007-0.916,1.091,0.057,0.123c1.595-1.587,6.277-4.49,10.854-9.599c5.731-6.395,8.906-14.666,9.441-24.585
			c0.005-0.06,0.037-0.104,0.082-0.123C79.835,39.117,79.845,39.113,79.855,39.113z"/>
	</g>
	<g style="opacity:0.4;">
		<path style="fill:#A7A9AC;" d="M0.021,43.043c-0.635-15.446,13.52-32.521,27.685-37.327c8.048-2.664,14.463-3.133,19.814-2.257
			C22.427,4.394,16.585,23.086,16.585,23.086s4.827-3.053,7.96-2.189c-5.839,2.188-7.883,4.64-13.931,12.16
			c-4.613,5.729-0.796,8.376-0.796,8.376s-0.01-2.698,4.302-5.24c4.312-2.54,7.861-7.75,7.861-7.75s-1.161,6.511-4.715,9.02
			C29.476,37.972,35.641,24.56,35.641,24.56s3.266,2.657,1.122,9.123c2.15-1.474,4.077-7.604,3.106-9.532
			c3.874,2.713,5.688,9.766,1.978,14.654c9.951-6.277,7.305-15.75,7.305-15.75c11.036,1.62,15.202,13.734,15.202,13.734
			c-0.07-7.035-1.24-10.51-1.24-10.51c4.603,4.163,6.783,8.497,5.595,16.48c5.576-8.072,0.146-16.945,0.146-16.945
			s5.4,3.065,5.937,12.945c2.605-6.319-0.232-14.638-5.469-17.382c4.521,1.369,7.725-0.87,9.785-3.394
			c0.797-0.347,1.2-0.734,1.2-0.734s-1.672,6.447-5.938,6.306c10.979,9.458,6.695,19.629,6.695,19.629s-0.036-1.228-0.741-3.777
			c-1.501,26.326-21.45,33.953-21.45,33.953s8.696-7.809,6.632-16.298c-1.271-4.8-0.967-7.266,0.563-11.5
			c1.61-4.276,2.795-7.474-0.798-14.617c1.132,5.89-0.092,12.85-0.092,12.85s-2.137-13.83-14.113-17.703
			c2.361,5.27-5.272,16.53-13.668,15.754c3.604-2.23,5.924-9.113,3.494-14.133c-0.621,5.465-6.736,10.939-10.076,11.968
			c5.776-4.232,5.498-10.727,5.498-10.727s-6.815,13.273-21.455,10.238c-4.492,5.251-3.903,8.635-3.279,10.135
			c2.292,5.519-4.484,9.11,5.278,20.848C12.589,69.356,0.657,58.483,0.021,43.043z"/>
	</g>
	<g>
		<path style="fill:#BCBEC0;" d="M68.897,21.603c0.385,0.15,0.759,0.325,1.118,0.534c0.368,0.191,0.705,0.438,1.053,0.667
			c0.32,0.266,0.672,0.498,0.973,0.797c0.303,0.287,0.621,0.565,0.888,0.898l0.419,0.478c0.136,0.164,0.251,0.346,0.376,0.518
			c0.251,0.345,0.498,0.691,0.69,1.078c0.2,0.38,0.443,0.736,0.589,1.148c0.158,0.401,0.344,0.791,0.484,1.202l0.356,1.256
			c0.131,0.416,0.156,0.857,0.241,1.286c0.067,0.431,0.159,0.858,0.162,1.299l0.067,1.313c0.019,0.218,0.016,0.434,0,0.655
			l-0.037,0.655l-0.066,1.314l-0.379,2.601l0.203,0.018c-0.021-0.417-0.017-0.841-0.077-1.254c-0.042-0.419-0.114-0.831-0.193-1.242
			c-0.03-0.206-0.088-0.407-0.139-0.611c-0.045-0.203-0.093-0.406-0.156-0.604c-0.109-0.405-0.237-0.799-0.379-1.19
			c-0.064-0.196-0.145-0.387-0.217-0.579c-0.075-0.195-0.15-0.388-0.234-0.574c-0.162-0.381-0.338-0.754-0.518-1.126
			c-0.368-0.737-0.764-1.455-1.224-2.138c-0.041-0.062-0.121-0.073-0.178-0.029c-0.051,0.04-0.064,0.114-0.037,0.171v0.006
			c0.137,0.288,0.26,0.599,0.371,0.905c0.108,0.309,0.214,0.625,0.301,0.943c0.101,0.316,0.163,0.644,0.239,0.964
			c0.075,0.323,0.114,0.655,0.173,0.978c0.051,0.33,0.067,0.665,0.1,0.995c0.031,0.331,0.013,0.663,0.022,0.996
			c0.018,0.333-0.041,0.662-0.062,0.994c-0.015,0.334-0.076,0.657-0.146,0.981c-0.063,0.326-0.115,0.654-0.231,0.964
			c-0.105,0.313-0.189,0.634-0.315,0.937l-0.417,0.891l-0.104,0.222l-0.13,0.203l-0.266,0.411c-0.181,0.269-0.334,0.563-0.56,0.796
			l-0.627,0.731c-0.195,0.262-0.462,0.444-0.691,0.666l-0.713,0.639l0.126,0.077c0.01-0.553,0.056-1.11,0.024-1.664
			c-0.005-0.557-0.049-1.107-0.103-1.658c-0.017-0.278-0.067-0.553-0.097-0.826c-0.037-0.273-0.07-0.549-0.121-0.82l-0.147-0.816
			l-0.182-0.808c-0.055-0.27-0.13-0.532-0.197-0.799c-0.067-0.269-0.136-0.533-0.214-0.799c-0.15-0.526-0.318-1.052-0.493-1.571
			c-0.354-1.038-0.747-2.061-1.207-3.049c0.443,0.999,0.819,2.03,1.156,3.07c0.165,0.521,0.323,1.048,0.463,1.578
			c0.075,0.263,0.14,0.53,0.203,0.798c0.062,0.268,0.134,0.533,0.184,0.803c0.117,0.536,0.214,1.08,0.304,1.618
			c0.051,0.272,0.077,0.545,0.114,0.817c0.03,0.275,0.078,0.545,0.095,0.82c0.047,0.551,0.09,1.096,0.092,1.649
			c0.028,0.548-0.021,1.095-0.032,1.646v0.008c-0.004,0.048,0.032,0.088,0.075,0.09c0.019,0,0.038-0.009,0.052-0.021l0.724-0.644
			c0.234-0.225,0.506-0.406,0.706-0.668l0.644-0.743c0.228-0.234,0.387-0.533,0.573-0.804l0.271-0.417l0.138-0.208l0.108-0.227
			l0.431-0.905c0.125-0.31,0.215-0.639,0.326-0.955c0.123-0.315,0.176-0.652,0.241-0.984c0.074-0.329,0.141-0.661,0.157-1.001
			c0.021-0.338,0.086-0.674,0.07-1.015c-0.009-0.341,0.011-0.68-0.021-1.017c-0.03-0.338-0.046-0.679-0.093-1.012
			c-0.06-0.333-0.099-0.673-0.174-1.002c-0.076-0.328-0.136-0.661-0.236-0.982c-0.089-0.326-0.19-0.647-0.301-0.962
			c-0.114-0.321-0.235-0.63-0.376-0.941l-0.214,0.146c0.438,0.666,0.843,1.375,1.207,2.099c0.183,0.367,0.358,0.733,0.518,1.106
			c0.082,0.188,0.16,0.375,0.235,0.569c0.073,0.187,0.153,0.375,0.218,0.569c0.14,0.384,0.271,0.774,0.381,1.168
			c0.061,0.197,0.11,0.397,0.155,0.596c0.05,0.199,0.107,0.396,0.14,0.6c0.082,0.404,0.157,0.809,0.195,1.216
			c0.063,0.409,0.06,0.821,0.087,1.231v0.014c0.006,0.06,0.056,0.104,0.108,0.1c0.05-0.002,0.086-0.042,0.095-0.092l0.367-2.622
			l0.059-1.325l0.03-0.662c0.018-0.221,0.021-0.443-0.002-0.662l-0.078-1.324c-0.006-0.446-0.097-0.879-0.17-1.314
			c-0.086-0.431-0.116-0.88-0.251-1.298l-0.367-1.268c-0.143-0.415-0.335-0.809-0.495-1.213c-0.151-0.416-0.398-0.772-0.605-1.158
			c-0.198-0.389-0.457-0.73-0.716-1.078c-0.125-0.17-0.245-0.353-0.388-0.514l-0.429-0.473c-0.272-0.33-0.596-0.605-0.908-0.886
			c-0.307-0.298-0.664-0.521-0.99-0.784c-0.352-0.222-0.694-0.461-1.067-0.648C69.665,21.91,69.282,21.745,68.897,21.603z"/>
		<path style="fill:#BCBEC0;" d="M79.158,33.452c0,0,0.208,0.383,0.516,0.957c0.307,0.575,0.693,1.349,1.039,2.143
			c0.175,0.395,0.329,0.803,0.468,1.182c0.134,0.386,0.248,0.748,0.328,1.066c0.03,0.161,0.064,0.304,0.098,0.436
			c0.037,0.13,0.039,0.25,0.059,0.343c0.034,0.192,0.048,0.3,0.048,0.3s0-0.113,0-0.305c-0.004-0.099,0.004-0.218-0.011-0.353
			c-0.014-0.135-0.028-0.289-0.051-0.455c-0.062-0.329-0.134-0.715-0.256-1.114c-0.12-0.398-0.276-0.814-0.449-1.217
			c-0.181-0.402-0.368-0.799-0.57-1.156c-0.196-0.361-0.405-0.681-0.577-0.956C79.437,33.78,79.158,33.452,79.158,33.452z"/>
	</g>
	<path style="fill:#BCBEC0;" d="M61.141,20.477c0,0,9.468,6.939,9.55,15.791C73.225,31.557,72.026,22.224,61.141,20.477z"/>
	<path style="fill:#BCBEC0;" d="M66.887,21.079c0,0,7.514,2.023,9.169,12.606C77.742,28.336,75.938,21.63,66.887,21.079z"/>
	<path style="fill:#BCBEC0;" d="M77.846,18.803c0,0-4.688,2.188-10.045-3.568C62.441,9.481,67.965,23.85,77.846,18.803z"/>
	<path style="fill:#BCBEC0;" d="M62.392,12.165c0,0-13.854-14.588-33.445-1.938C37.574,1.935,51.759-0.908,62.392,12.165z"/>
	<path style="fill:#BCBEC0;" d="M54.043,16.354c0,0,3.705,1.57,8.668,12.1c-6.184-7.729-14.042-7.657-14.042-7.657
		s3.047,4.65-2.936,13.657c4.139-10.575-5.959-13.545-5.959-13.545s2.313,3.188-0.671,9.108c0.46-5.007-3.718-8.422-3.718-8.422
		s-4.684,10.897-14.183,13.637c7.867-6.325,5.126-12.104,5.126-12.104s-6.574,9.926-14.544,10.822
		c4.443-3.371,15.77-19.877,18.756-15c1.584,2.098,3.888-3.423,6.655-1.069c2.766,2.35,3.334-4.551,7.426-1.651
		C48.716,19.128,44.603,11.695,54.043,16.354z"/>
</g>
<g id="Layer_1">
</g>
</svg>
