<?xml version="1.0" encoding="iso-8859-1"?>
<!-- Generator: Adobe Illustrator 15.0.0, SVG Export Plug-In . SVG Version: 6.00 Build 0)  -->
<!DOCTYPE svg PUBLIC "-//W3C//DTD SVG 1.1//EN" "http://www.w3.org/Graphics/SVG/1.1/DTD/svg11.dtd">
<svg version="1.1" xmlns="http://www.w3.org/2000/svg" xmlns:xlink="http://www.w3.org/1999/xlink" x="0px" y="0px"
	 width="79.999px" height="80px" viewBox="0 0 79.999 80" style="enable-background:new 0 0 79.999 80;" xml:space="preserve">
<g id="ico-hair-type-4">
	<g>
		<defs>
			<rect id="SVGID_1_" y="0" width="79.999" height="80"/>
		</defs>
		<clipPath id="SVGID_2_">
			<use xlink:href="#SVGID_1_"  style="overflow:visible;"/>
		</clipPath>
		<g style="clip-path:url(#SVGID_2_);">
			<path style="fill:none;" d="M59.746,0H20.253C9.067,0,0,9.066,0,20.253v39.493C0,70.932,9.067,80,20.253,80h39.493
				c11.186,0,20.253-9.068,20.253-20.254V20.253C79.999,9.066,70.932,0,59.746,0z"/>
		</g>
	</g>
	<path style="fill:#A7A9AC;" d="M22.991,68.014c-3.002-2.168-7.629-6.553-8.459-17.316c-0.392-5.078-0.797-8.479-1.114-10.645
		c-0.137,0.032-0.238,0.046-0.289,0.043c-0.803-0.043-0.185-1.328-0.185-1.328c-1.956,3.943-7.894,1.536-4.613,0.536
		c3.281-1,4.066-5.644,4.066-5.644s-0.68,2.081-1.69,1.566c-1.013-0.514,1.333-5.027,1.333-5.027
		c-1.875,2.987-4.37,1.192-4.37,1.192C2.877,44.203,7.467,52.678,6.816,50.758c-0.648-1.916,0.842-6.875,0.842-6.875
		s-0.543,4.131,0.414,4.168c0.952,0.033,0.76,0.379,0.76,0.379c4.378,16.977-6.479,13.986-3.805,14.633
		c2.676,0.645,4.453-2.396,4.453-2.396c-0.013,0.039-0.028,0.072-0.043,0.111c0.682-1.23,0.848-2.369,0.848-2.369
		s-0.166,1.139-0.848,2.369c-0.727,2.025-2.64,3.182-1.169,3.178c1.502-0.006,3.049-1.727,3.049-1.727
		c-0.905,6.006,0.405,7.902,0.972,8.15c0.568,0.254,0.569-0.68,0.569-0.68c-0.191-1.293,0.065-3.256,0.065-3.256
		s-0.257,1.963-0.065,3.256c1.436,0.051,1.666-5.861,1.666-5.861c0.231,1.656,2.671,5.023,3.396,4.297
		c0.727-0.725-1.136-3.014-1.136-3.014s2.699,2.766,3.928,2.996c1.23,0.232,1.192-0.852,1.192-0.852
		C22.272,67.527,22.634,67.773,22.991,68.014z"/>
	<path style="opacity:0.51;fill:#A7A9AC;" d="M22.991,68.014c-3.002-2.168-7.629-6.553-8.459-17.316
		c-0.392-5.078-0.797-8.479-1.114-10.645c-0.06,0.01-0.104,0.022-0.147,0.027c0.146,3.226,0.285,6.704,0.538,9.979
		c1.082,14.203,8.702,18.291,6.015,16.85c-2.694-1.439-4.912-6.951-4.467-4.857c0.447,2.098,1.669,5.125,0.497,3.541
		c-1.171-1.582-1.662-5.625-1.662-5.625c-0.051,5.879-1.118,7.617-0.998,6.707c0.121-0.91,0.264-3.398,0.213-4.842
		c-0.049-1.443-0.335-0.639-0.335-0.639c-0.733,2.377-0.403,8.113-1.218,7.025c-0.707-0.941,0.146-8.33,0.394-10.328
		c-0.709,4.619-4.774,6.191-2.831,4.197c2.009-2.064,1.789-10.938,1.128-5.891c-0.659,5.045-4.286,5.73-4.286,5.73
		c7.469-6.211,2.512-20.137,2.512-20.137c-0.672,3.75-0.758,0.289-0.667-0.412c0.096-0.7-0.283-0.125-0.283-0.125
		c-0.994,2.114-1.178,7.176-1.813,3.324c-0.635-3.858,1.805-11.51,1.805-11.51c0.185-0.479,0.36-0.926,0.531-1.34
		C7.929,31.572,7.67,31.39,7.67,31.39C2.877,44.203,7.467,52.678,6.816,50.758c-0.648-1.916,0.842-6.875,0.842-6.875
		s-0.543,4.131,0.414,4.168c0.952,0.033,0.868,0.846,0.868,0.846c4.378,16.975-6.587,13.52-3.913,14.166
		c2.676,0.645,4.453-2.396,4.453-2.396c-0.013,0.039-0.028,0.072-0.043,0.111c0.682-1.23,0.848-2.369,0.848-2.369
		s-0.166,1.139-0.848,2.369c-0.727,2.025-2.64,3.182-1.169,3.178c1.502-0.006,3.049-1.727,3.049-1.727
		c-0.905,6.006,0.405,7.902,0.972,8.15c0.568,0.254,0.569-0.68,0.569-0.68c-0.191-1.293,0.065-3.256,0.065-3.256
		s-0.257,1.963-0.065,3.256c1.436,0.051,1.666-5.861,1.666-5.861c0.231,1.656,2.671,5.023,3.396,4.297
		c0.727-0.725-1.136-3.014-1.136-3.014s2.699,2.766,3.928,2.996c1.23,0.232,1.192-0.852,1.192-0.852
		C22.272,67.527,22.634,67.773,22.991,68.014z"/>
	<g>
		<path style="fill:#A7A9AC;" d="M75.881,57.021c-4.444,0.029-3.94-12.08-3.94-12.08C71.333,9.212,49.345,5.809,49.345,5.809
			c0.347-0.796,1.411-1.6,0.122-1.842c-1.286-0.243-2.228,1.45-2.228,1.45c-0.532-3.264-3.061-2.297-2.278-1.864
			c0.785,0.433,0.618,1.692,0.618,1.692C18.964-2.682,8.273,29.063,8.273,29.063c2.989-0.144,5.213-4.41,5.213-4.41
			s-2.224,4.267-5.213,4.41c0,0-0.544,0.042-1.104-0.277c-0.555-0.321-0.659,0.016-0.659,0.016C6.168,30.032,7.67,31.39,7.67,31.39
			s2.495,1.795,4.37-1.192c0,0-2.346,4.514-1.333,5.027c1.011,0.515,1.69-1.566,1.69-1.566s-0.785,4.644-4.066,5.644
			c-3.28,1,2.657,3.407,4.613-0.536c0,0-0.618,1.284,0.185,1.328c0.805,0.042,12.813-4.387,20.114-12.065
			c0,0-0.989,2.077-2.007,2.964c-1.017,0.884,1.003,2.665,3.478-1.825c0,0-1.265,2.777,0.041,3.131
			c1.304,0.349,2.844-3.055,2.844-3.055s-0.565,2.834,0.515,2.822c1.081-0.014,1.109-1.871,1.109-1.871s1.837,4.79,5.548,6.024
			c0,0,3.437,3.986,1.919,9.403c0,0-0.024,0.863,0.502,0.959c0.527,0.098,2.179-2.176,1.833-6.441c0,0,3.949,14.525-3.945,24.68
			c-4.567,5.869-7.675,4.953-7.593,6.783c0.718,0.861,1.855,0.615,1.855,0.615c3.736-0.594,6.908-6.029,6.908-6.029
			c-0.051,0.148-0.102,0.289-0.153,0.434c3.191-4.932,4.274-10.615,4.274-10.615s-1.083,5.684-4.274,10.615
			c-1.237,3.504-3.3,5.348-4.775,6.033c-1.53,0.725-1.814,1.963,0.477,1.891c1.82-0.059,3.179-0.938,3.658-1.289
			c0.065-0.064,0.13-0.117,0.187-0.146c2.256-1.189,3.367-4.648,3.367-4.648s-1.111,3.459-3.367,4.648
			c1.487,1.932,4.978-1.367,4.978-1.367c-0.967,0.969-2.678,2.588-3.381,3.391c-0.707,0.801-0.08,1.059-0.08,1.059
			c5.05,0.373,9.187-6.031,9.187-6.031c-0.438,1.068-1.223,2.928-2.068,4.348c-0.846,1.426-0.152,1.623-0.152,1.623
			c1.663,0.602,4.057-5.338,4.057-5.338s-1.81,6.051-0.48,6.441c1.329,0.393,2.461-2.77,2.461-2.77s0.924-2.014,1.854-6.367
			c-0.93,4.354-1.854,6.367-1.854,6.367c1.922,0.432,4.12-4.902,4.12-4.902c1.549-4.051,1.87-8.334,1.87-8.334
			s-0.321,4.283-1.87,8.334c1.687,0.551,2.351-2.043,2.54-3.023l-0.011-0.02c0,0,0.012-0.043,0.032-0.104
			c0.027-0.152,0.041-0.238,0.041-0.238c0.002,0.031,0.006,0.059,0.009,0.09c0.282-0.855,1.187-3.91,1.252-7.898
			c-0.065,3.988-0.97,7.043-1.252,7.898c0.1,0.891,0.932,0.514,0.932,0.514c2.128-4.805,1.09-12.252,1.09-12.252
			s1.038,7.447-1.09,12.252c-0.266,0.67,0.224,1.049,0.224,1.049c1.341,0.752,1.966-5.879,1.966-5.879s0.147,1.176,0.821,1.086
			c0.67-0.088-0.111-5.117-0.111-5.117C73.392,65.031,80.323,56.992,75.881,57.021z"/>
		<path style="opacity:0.51;fill:#A7A9AC;" d="M75.881,57.021c-4.444,0.029-3.94-12.08-3.94-12.08
			C71.333,9.212,49.345,5.809,49.345,5.809c0.347-0.796,1.411-1.6,0.122-1.842c-1.286-0.243-2.228,1.45-2.228,1.45
			c-0.532-3.264-3.061-2.297-2.278-1.864c0.785,0.433,0.618,1.692,0.618,1.692C18.964-2.682,8.273,29.063,8.273,29.063
			c2.989-0.144,5.213-4.41,5.213-4.41s-2.224,4.267-5.213,4.41c0,0-0.544,0.042-1.104-0.277c-0.555-0.321-0.659,0.016-0.659,0.016
			C6.168,30.032,7.67,31.39,7.67,31.39s2.495,1.795,4.37-1.192c0,0-2.346,4.514-1.333,5.027c1.011,0.515,1.69-1.566,1.69-1.566
			s-0.785,4.644-4.066,5.644c-3.28,1,2.657,3.407,4.613-0.536c0,0-0.618,1.284,0.185,1.328c0.805,0.042,12.813-4.387,20.114-12.065
			c0,0-0.989,2.077-2.007,2.964c-1.017,0.884,1.003,2.665,3.478-1.825c0,0-1.265,2.777,0.041,3.131
			c1.304,0.349,2.659-2.907,2.659-2.907s-0.381,2.686,0.699,2.674c1.081-0.014,1.109-1.871,1.109-1.871s1.837,4.79,5.548,6.024
			c0,0,3.437,3.986,1.919,9.403c0,0-0.024,0.863,0.502,0.959c0.527,0.098,2.179-2.176,1.833-6.441c0,0,3.949,14.525-3.945,24.68
			c-4.567,5.869-7.675,4.953-7.593,6.783c0.718,0.861,1.855,0.615,1.855,0.615c3.736-0.594,6.908-6.029,6.908-6.029
			c-0.051,0.148-0.102,0.289-0.153,0.434c3.191-4.932,4.274-10.615,4.274-10.615s-1.083,5.684-4.274,10.615
			c-1.237,3.504-3.3,5.348-4.775,6.033c-1.53,0.725-1.814,1.963,0.477,1.891c1.82-0.059,3.179-0.938,3.658-1.289
			c0.065-0.064,0.13-0.117,0.187-0.146c2.256-1.189,3.367-4.648,3.367-4.648s-1.111,3.459-3.367,4.648
			c1.487,1.932,4.978-1.367,4.978-1.367c-0.967,0.969-2.678,2.588-3.381,3.391c-0.707,0.801-0.08,1.059-0.08,1.059
			c5.05,0.373,9.187-6.031,9.187-6.031c-0.438,1.068-1.223,2.928-2.068,4.348c-0.846,1.426-0.152,1.623-0.152,1.623
			c1.663,0.602,4.057-5.338,4.057-5.338s-1.81,6.051-0.48,6.441c1.329,0.393,2.461-2.77,2.461-2.77s0.924-2.014,1.854-6.367
			c-0.93,4.354-1.854,6.367-1.854,6.367c1.922,0.432,4.12-4.902,4.12-4.902c1.549-4.051,1.87-8.334,1.87-8.334
			s-0.321,4.283-1.87,8.334c1.687,0.551,2.351-2.043,2.54-3.023l-0.011-0.02c0,0,0.012-0.043,0.032-0.104
			c0.027-0.152,0.041-0.238,0.041-0.238c0.002,0.031,0.006,0.059,0.009,0.09c0.282-0.855,1.187-3.91,1.252-7.898
			c-0.065,3.988-0.97,7.043-1.252,7.898c0.1,0.891,0.932,0.514,0.932,0.514c2.128-4.805,1.09-12.252,1.09-12.252
			s1.038,7.447-1.09,12.252c-0.266,0.67,0.224,1.049,0.224,1.049c1.341,0.752,1.966-5.879,1.966-5.879s0.147,1.176,0.821,1.086
			c0.67-0.088-0.111-5.117-0.111-5.117C73.392,65.031,80.323,56.992,75.881,57.021z M69.959,52.75
			c-1.354-10.735-1.682-8.209-1.419-1.99c0.267,6.229-0.521,7.664-1.272,1.488c-0.754-6.172-0.876,1.201-1.933,9.262
			c-1.053,8.057-3.124,11.043-2.661,5.676c0.464-5.371,0.597-5.488-1.393,1.461c-1.988,6.949-3.258,6.57-1.693,0.111
			c1.564-6.457,1.386-6.92-0.254-2.631c-1.644,4.289-2.861,5.354-1.707,1.119c1.154-4.238-2.435,4.855-7.212,6.545
			c-4.78,1.691,3.885-1.281,5.619-10.869c1.731-9.58-0.182,4.129-6.363,8.287c0,0-1.823,1.098-0.729-0.854
			c1.095-1.949,2.183-4.762,2.647-7.4s-2.807,6.801-5.967,8.932c-3.156,2.137,4.687-8.314,5.87-18.285
			c1.186-9.976-0.095-2.023-0.546-0.391c-0.457,1.639,0.769-10.48-2.235-17.792c-3.002-7.313-0.835-0.014-0.529,4.063
			c0.307,4.08-0.35-1.935-3.52-6.117c-3.172-4.185,0.512,0.671-0.969,0.967c-1.478,0.302-4.048-6.643-4.537-9.321
			c-0.49-2.676-1.165,0.645-2.622,3.529c-1.456,2.886-1.168-0.219,0.685-4.323c1.855-4.103-1.88,3.381-3.315,4.261
			c-1.436,0.879,1.388-4.191,1.562-4.59C35.637,23.489,28.193,32.72,15.743,38c0,0-3.651,1.794-1.383-1.122
			c1.143-1.467-1.24,1.923-3.38,2.67c-2.135,0.749,2.971-1.597,4.692-10.177c1.722-8.582-1.153,1.938-3.229,3.126
			c-2.075,1.193,1.461-4.751,1.461-4.751s-2.934,3.618-4.774,2.552c-1.838-1.064,4.028-0.036,5.496-7.152
			c1.471-7.123-0.89,1.769-3.346,3.103c-2.454,1.335,7.375-20.158,22.566-21.19c0,0,6.922-0.64,11.509,1.439
			c0,0,0.969,0.396,0.894-0.407c-0.074-0.802-0.121-1.385-0.416-1.872c-0.295-0.486,0.836-0.418,1.001,1.982
			c0,0-0.071,0.992,0.384,0.287c0,0,0.948-1.76,1.67-1.766c0.719-0.01-0.951,1.757-0.257,1.961c0,0,18.218,1.977,21.971,31.972
			c0,0,0.23,6.505,0.384,10.847c0.151,4.334,1.845,8.818,4.629,8.617C78.402,57.926,71.316,63.49,69.959,52.75z"/>
	</g>
	<g>
		<g>
			<path style="fill:#A7A9AC;" d="M63.033,49.488l-0.235-0.092c1.993-7.258,0.614-15.731,0.599-15.815l0.232-0.099
				c1.291,3.067,1.468,5.837,1.562,7.326c0.033,0.508,0.067,1.036,0.135,1.116c0.375-0.291,0.511-2.941,0.505-4.552
				c-0.418-13.342-6.85-19.303-6.914-19.361l0.146-0.236c0.069,0.059,6.591,6.103,7.019,19.592c0,0.727-0.021,4.358-0.644,4.793
				c-0.104,0.076-0.183,0.053-0.233,0.021c-0.181-0.112-0.206-0.5-0.259-1.35c-0.083-1.309-0.229-3.626-1.16-6.242
				C64.088,37.115,64.627,43.687,63.033,49.488L63.033,49.488z"/>
		</g>
		<path style="opacity:0.51;fill:#A7A9AC;" d="M59.423,17.739c0,0,7.932,8.592,6.777,21.908c0,0-0.773,6.125-1.513,1.27
			c-0.737-4.861,0.583,3.953-1.73,9.441c-2.313,5.486,2.14-6.728,0.076-16.647c-2.065-9.921,0.065-4.997,1.678,1.211
			c1.612,6.211-0.289-10.463-5.723-16.403C58.988,18.519,57.364,15.887,59.423,17.739z"/>
	</g>
	<path style="opacity:0.51;fill:#A7A9AC;" d="M52.931,17.573c0,0,7.713,7.499,7.116,19.771
		C59.449,49.615,61.527,29.448,52.931,17.573z"/>
	<path style="opacity:0.51;fill:#A7A9AC;" d="M51.545,25.584c0,0,6.781,8.695,4.814,20.791
		C54.391,58.467,58.709,38.773,51.545,25.584z"/>
	<path style="opacity:0.4;fill:#A7A9AC;" d="M52.285,17.995c0,0,6.381,8.569,6.313,19.222c-0.066,10.311-0.272-1.912-5.352-10.807
		c-5.217-9.126-0.223-2.817,2.335,2.413C58.138,34.05,55.666,22.724,52.285,17.995z"/>
	<path style="opacity:0.4;fill:#A7A9AC;" d="M47.448,20.653c0,0,5.332,9.154,6.074,20.474c0.737,11.322-0.531-5.36-3.482-10.421
		c-2.955-5.064,2.776,9.356-0.535,3.339c-3.311-6.018-3.894-7.203-2.354-3.035c1.541,4.167-3.154-1.27-3.814-8.458
		c-0.661-7.184,0.25-0.921,1.553,2.38c1.306,3.307,0.687-0.117-0.089-3.449c-0.779-3.334-0.313-4.997,2.128,2.595
		c2.441,7.587,1.966,2.128,0.695-1.568C46.349,18.819,46.347,18.608,47.448,20.653z"/>
	<path style="opacity:0.51;fill:#A7A9AC;" d="M43.394,8.327c0,0-3.029-1.001-5.106-0.17c-2.078,0.827,0.931,0.794,3.96,3.092
		c2.534,1.921-0.026,0.68-2.798,1.738c-2.769,1.054-0.379,0.925,2.106,1.209c2.488,0.284-1.247,5.367,0.885,3.317
		c2.132-2.049,2.354-3.203,3.913-1.26c1.838,2.281,4.2,2.833,1.524-1.135c-2.882-4.276,8.998,2.173,4.688-0.67
		c-4.313-2.841-6.625-4.613-1.304-4.157c5.318,0.455-0.498-1.66-3.994-2.276C44.124,7.458,41.475,5.358,43.394,8.327z"/>
	<path style="opacity:0.4;fill:#A7A9AC;" d="M41.663,20.525c0,0-0.133,5.146,1.316,8.29c1.446,3.142-2.684-1.51-2.565-6.081
		c0,0,0.234-3.621-1.327-0.395c-1.562,3.227-1.009,0.385,0.147-2.052c1.16-2.438-2.443,1.265-3.34,3.54
		c-0.899,2.271,0.892-4.069,1.938-5.672c1.051-1.597-9.479,11.942-18.257,15.322c-8.782,3.381,2.609-1.163,6.127-6.965
		c0,0-3.571,2.993-5.714,4.242c-2.143,1.249,5.583-5.991,7.938-8.853c2.353-2.863-5.429,2.504-7.859,6.425
		c-2.433,3.925,0.453-5.297,7.277-9.336c6.828-4.028-6.781,0.959-10.157,9.803c-3.375,8.846,0.773-11.416,11.415-14.806
		c0,0-7.082,2.766-10.244,8.132c-3.16,5.369,2.134-8.503,10.62-11.942c0,0-7.521,2.47-11.59,9.748
		c-4.073,7.279,0.195-10.637,13.373-13.289c9.609-1.934,4.989-0.07,2.151,0.978c-2.837,1.047-0.992,1.61,3.446,2.082
		c4.437,0.471-1.489,0.552-5.541,3.842c-3.089,2.51,1.149,0.362,5.44,0.591c4.29,0.227-1.96,2.147-4.914,5.469
		c-2.953,3.324,2.596,0.343,6.242-2.779c3.647-3.122-0.005,1.865,1.255,0.954c1.259-0.913,2.657-3.812,1.805-0.023
		c-0.856,3.792-0.398,2.583,0.383,1.652C41.813,18.471,41.738,19.032,41.663,20.525z"/>
	<path style="opacity:0.4;fill:#A7A9AC;" d="M56.206,17.578c0,0,4.234,3.38,5.839,8.559c1.6,5.185-4.112-7.09-2.135-1.113
		c1.978,5.971,3.559,13.159,1.491,27.128c-2.067,13.975,4.281-17.145-5.272-32.146C56.129,20.006,53.279,15.165,56.206,17.578z"/>
	<path style="opacity:0.4;fill:#A7A9AC;" d="M54.784,46.779c0,0-0.73,16.063-4.282,21.537
		C46.945,73.795,56.613,64.947,54.784,46.779z"/>
	<path style="opacity:0.4;fill:#A7A9AC;" d="M53.039,45.076c0,0-1.342,16.008-5.102,21.281
		C44.179,71.633,54.174,63.322,53.039,45.076z"/>
	<path style="opacity:0.4;fill:#A7A9AC;" d="M58.67,44.607c0,0,0.493,17.326-4.162,24.492C54.508,69.1,61.092,61.863,58.67,44.607z"
		/>
	<path style="opacity:0.4;fill:#A7A9AC;" d="M55.94,14.083c0,0,12.034,6.132,11.727,27.76c0,0,2.692-11.416-3.566-21.35
		C57.844,10.564,49.814,10.494,55.94,14.083z"/>
	<path style="opacity:0.4;fill:#A7A9AC;" d="M8.598,32.782c0,0-2.635,6.399-1.995,9.753l0.646-1.494c0,0-0.889-1.459,0.64-2.145
		C9.417,38.214,10.517,33.252,8.598,32.782z"/>
	<path style="opacity:0.4;fill:#A7A9AC;" d="M10.312,43.768c0,0,1.906,8.113,1.186,12.934c-0.719,4.814,1.686-1.193,0.895-6.836
		c0,0,0.512,5.049,0.272,8.236c-0.236,3.186,1.205-3.006,0.082-9.57c-1.12-6.564-0.925-3.941-0.818-1.982
		C12.028,48.506,11.341,44.824,10.312,43.768z"/>
	<path style="opacity:0.4;fill:#A7A9AC;" d="M60.131,57.732c0,0-0.688,5.258-1.616,7.561c-0.933,2.301,1.7-1.297,2.85-6.684
		c1.155-5.383,0.528,3.549-0.688,8.703c-1.214,5.16,1.426-2.641,2.672-9.408c1.243-6.77,0.746-1.584,0.324,2.32
		c-0.419,3.91-0.351,12.322,1.351-4.805c1.697-17.13-0.059-7.123-0.761-3.807c-0.703,3.316-1.258,5.473-0.976,2.619
		c0.285-2.855-0.346-2.865-0.815,0.063c-0.471,2.926-1.545,4.234-1.303-0.352C61.408,49.354,60.904,52.49,60.131,57.732z"/>
	<g>
		<path style="fill:#A7A9AC;" d="M55.75,50.229l-0.247-0.037c0.675-6.551,0.481-16.056-4.266-24.133
			c-0.152-0.259-0.216-0.368-0.24-0.437l0.23-0.113c0.012,0.041,0.11,0.206,0.211,0.379C56.232,34.04,56.429,43.626,55.75,50.229
			L55.75,50.229z"/>
	</g>
	<g>
		<path style="fill:#A7A9AC;" d="M59.849,41.764c-0.214-16.687-8.136-24.726-8.213-24.804l0.153-0.23
			c0.083,0.081,8.094,8.209,8.305,25.032L59.849,41.764L59.849,41.764z"/>
	</g>
</g>
<g id="Layer_1">
</g>
</svg>
