<?xml version="1.0" encoding="iso-8859-1"?>
<!-- Generator: Adobe Illustrator 15.0.0, SVG Export Plug-In . SVG Version: 6.00 Build 0)  -->
<!DOCTYPE svg PUBLIC "-//W3C//DTD SVG 1.1//EN" "http://www.w3.org/Graphics/SVG/1.1/DTD/svg11.dtd">
<svg version="1.1" xmlns="http://www.w3.org/2000/svg" xmlns:xlink="http://www.w3.org/1999/xlink" x="0px" y="0px"
	 width="79.999px" height="80px" viewBox="0 0 79.999 80" style="enable-background:new 0 0 79.999 80;" xml:space="preserve">
<g id="ico-hair-girl-4">
	<g>
		<defs>
			<rect id="SVGID_1_" width="79.999" height="80"/>
		</defs>
		<clipPath id="SVGID_2_">
			<use xlink:href="#SVGID_1_"  style="overflow:visible;"/>
		</clipPath>
		<g style="clip-path:url(#SVGID_2_);">
			<path style="fill:none;" d="M59.746,0H20.253C9.067,0,0,9.066,0,20.253v39.493C0,70.932,9.067,80,20.253,80h39.493
				c11.186,0,20.253-9.068,20.253-20.254V20.253C79.999,9.066,70.932,0,59.746,0z"/>
		</g>
	</g>
	<g>
		<g>
			<path style="fill:#A7A9AC;stroke:#282320;stroke-width:0.25;stroke-miterlimit:10;" d="M66.72,29.348
				c-6.677-14.896-13.242-15.043-13.242-15.043c-6.244-6.932-17.441-8.998-29.926,2.651C11.063,28.609,6.436,42.473,10.202,55.892
				c3.769,13.425,10.443,17.11,10.443,17.11s-1.627-3.456-2.208-6.978c-0.584,0.87-1.691,0.828-3.343-0.752
				c-2.314-2.214-2.309-6.725-0.19-8.788c1.319-1.292,2.703-0.251,3.542,1.751c-0.227-2.915-0.762-4.702-0.762-4.702l0.753,0.813
				c0,0-2.368-6.785,5.007-15.487c0,0-3.284,4.129-2.882,11.648c0,0,6.702-4.347,12.625-14.523c0,0-2.263,6.438-3.824,8.935
				c0,0,5.222-0.236,10.604-8.935c0,0-0.432,3.096,0.808,6.342c0,0,1.101-2.417,1.508-6.342c0,0,1.108,7.743,9.626,8.569
				c0,0-1.311-3.668-3.033-6.47c0,0,3.417,4.609,8.881,5.753c0,0-0.619-3.356-2.019-5.859c0,0,4.683,4.127,6.082,11.502
				c0,0,0.322-0.148,0.861-2.065c0,0-0.241,1.604,0.113,5.519c0.715-1.772,2.072-2.742,3.762-1.462
				c2.524,1.902-0.204,13.396-5.717,14.855c-0.575,2.043,0.096,4.048-0.541,4.991C69.664,64.828,73.393,44.241,66.72,29.348z"/>
			<g>
				<path style="fill:#A7A9AC;" d="M14.792,41.185c0,0-0.04,0.227-0.083,0.638c-0.028,0.203-0.044,0.452-0.068,0.74
					c-0.01,0.284-0.04,0.604-0.043,0.954c-0.004,0.178-0.009,0.358-0.013,0.548c0.004,0.189,0.007,0.384,0.013,0.585
					c-0.002,0.402,0.054,0.821,0.072,1.258c0.058,0.429,0.092,0.874,0.18,1.319c0.041,0.219,0.082,0.446,0.124,0.67
					c0.042,0.223,0.11,0.435,0.168,0.655c0.061,0.213,0.1,0.44,0.177,0.646c0.072,0.208,0.146,0.413,0.222,0.618
					c0.127,0.423,0.332,0.78,0.49,1.155c0.044,0.092,0.082,0.187,0.127,0.273c0.05,0.082,0.096,0.165,0.146,0.247
					c0.095,0.165,0.188,0.329,0.278,0.482c0.17,0.331,0.38,0.579,0.561,0.829c0.092,0.126,0.178,0.245,0.261,0.356
					c0.078,0.12,0.16,0.223,0.246,0.307c0.163,0.18,0.304,0.334,0.422,0.466c0.234,0.26,0.367,0.414,0.367,0.414
					s-0.146-0.126-0.404-0.346c-0.128-0.113-0.282-0.251-0.461-0.406c-0.187-0.14-0.353-0.379-0.556-0.607
					c-0.194-0.239-0.423-0.477-0.612-0.795c-0.102-0.156-0.205-0.313-0.31-0.471c-0.054-0.086-0.105-0.168-0.159-0.251
					c-0.049-0.088-0.092-0.184-0.139-0.279c-0.091-0.184-0.186-0.374-0.279-0.566c-0.046-0.097-0.098-0.192-0.14-0.294l-0.116-0.319
					c-0.078-0.209-0.154-0.425-0.233-0.64c-0.08-0.213-0.127-0.448-0.192-0.674c-0.055-0.227-0.125-0.448-0.166-0.683
					c-0.043-0.233-0.083-0.464-0.123-0.693c-0.048-0.228-0.072-0.461-0.093-0.696c-0.022-0.229-0.045-0.453-0.066-0.679
					c-0.014-0.446-0.047-0.883-0.024-1.296c0.005-0.203,0.009-0.4,0.014-0.596c0.013-0.192,0.026-0.38,0.038-0.553
					c0.019-0.361,0.073-0.685,0.106-0.972c0.049-0.279,0.083-0.525,0.126-0.729C14.723,41.4,14.79,41.185,14.792,41.185z"/>
			</g>
			<g>
				<path style="fill:#A7A9AC;" d="M61.981,32.554c0,0,0.119,0.232,0.303,0.662c0.178,0.434,0.432,1.055,0.678,1.838
					c0.243,0.785,0.51,1.715,0.709,2.752c0.097,0.521,0.192,1.063,0.252,1.621c0.066,0.555,0.107,1.124,0.134,1.698
					c0.014,0.574,0.016,1.151-0.023,1.717c-0.028,0.565-0.104,1.112-0.186,1.641c-0.087,0.524-0.206,1.021-0.338,1.485
					c-0.135,0.453-0.275,0.88-0.436,1.252c-0.137,0.383-0.316,0.695-0.455,0.987c-0.159,0.274-0.095,2.354-0.213,2.542
					c-0.247,0.358-0.979,0.243-0.979,0.243s0.517-1.741,0.731-2.139c0.106-0.195,0.221-0.451,0.361-0.734
					c0.061-0.156,0.124-0.313,0.192-0.48c0.07-0.167,0.141-0.341,0.2-0.532c0.141-0.374,0.261-0.799,0.376-1.253
					c0.11-0.454,0.203-0.942,0.282-1.452c0.07-0.513,0.124-1.049,0.151-1.595c0.032-0.544,0.028-1.104,0.012-1.655
					c-0.021-0.561-0.06-1.118-0.119-1.658c-0.058-0.548-0.136-1.077-0.22-1.593c-0.175-1.02-0.386-1.966-0.601-2.756
					c-0.218-0.788-0.413-1.441-0.566-1.891C62.076,32.808,61.981,32.554,61.981,32.554z"/>
			</g>
			<g>
				<path style="fill:#A7A9AC;" d="M50.448,11.613c0,0,0.188,0.103,0.505,0.32c0.159,0.108,0.345,0.252,0.563,0.411
					c0.211,0.178,0.458,0.357,0.705,0.596c0.129,0.115,0.259,0.237,0.396,0.364c0.132,0.13,0.269,0.268,0.408,0.409
					c0.288,0.275,0.563,0.607,0.856,0.941c0.275,0.358,0.576,0.71,0.851,1.115c0.27,0.399,0.556,0.799,0.804,1.243l0.379,0.659
					c0.111,0.228,0.227,0.454,0.34,0.685c0.109,0.231,0.229,0.449,0.32,0.69c0.097,0.234,0.189,0.464,0.282,0.697
					c0.087,0.231,0.193,0.444,0.26,0.681c0.07,0.229,0.142,0.459,0.211,0.681c0.066,0.217,0.131,0.432,0.194,0.64
					c0.049,0.217,0.099,0.426,0.145,0.623c0.087,0.4,0.176,0.764,0.229,1.093c0.045,0.327,0.085,0.621,0.119,0.857
					c0.059,0.479,0.093,0.754,0.093,0.754s-0.057-0.271-0.156-0.733c-0.047-0.23-0.104-0.515-0.169-0.832
					c-0.077-0.324-0.188-0.671-0.288-1.055c-0.052-0.193-0.106-0.393-0.165-0.6c-0.069-0.199-0.144-0.405-0.217-0.616
					c-0.152-0.424-0.304-0.87-0.504-1.305c-0.095-0.224-0.191-0.446-0.287-0.674c-0.097-0.227-0.219-0.438-0.325-0.661
					c-0.112-0.224-0.224-0.445-0.337-0.67l-0.374-0.634c-0.239-0.44-0.518-0.831-0.779-1.232c-0.266-0.396-0.549-0.758-0.813-1.118
					c-0.284-0.332-0.539-0.688-0.813-0.979c-0.13-0.148-0.262-0.293-0.385-0.435c-0.13-0.133-0.253-0.263-0.374-0.385
					c-0.24-0.253-0.469-0.46-0.665-0.659c-0.205-0.186-0.38-0.353-0.53-0.477C50.624,11.749,50.448,11.613,50.448,11.613z"/>
			</g>
			<path style="opacity:0.7;fill:#A7A9AC;" d="M66.72,29.348c-6.677-14.896-13.242-15.043-13.242-15.043
				c-1.29-1.434-2.794-2.653-4.474-3.589c5.099,3.545,8.582,9.934,9.103,17.418c0,0,1.024-3.286-0.323-8.67
				c-1.345-5.383,7.985,4.691,9.688,14.861c1.664,9.929-1.201,20.041-2.074,9.179c-0.825-10.25-4.87-13.491-4.87-13.491
				s2.412,5.265,1.508,12.607c-0.754,6.12-0.146-6.784-9.734-8.922c0,0,2.523,2.938,3.868,8.035c0,0-7.266-4.199-10.926-12.016
				c0,0,0.169,3.345,0.954,6.267c0.89,3.3,2.946,6.248,2.946,6.248s-6.108-0.348-7.24-10.452c0,0,0.137,4.035-0.872,6.469
				c0,0-1.09-2.544-0.121-8.236c0,0-2.06,8.019-8.842,12.22c0,0,2.665-2.817,3.674-12.056c0,0-6.338,11.658-13.645,16.578
				c0,0,0.786-8.836,6.379-13.647c0,0-9.324,1.273-11.519,16.224c0,0-2.934-4.659-0.839-13.347c0,0-4.086,5.2-1.646,16.979
				c0.687,3.304-2.386,2.158-3.679-1.858c-1.017-3.167-1.434-9.348,1.885-17.113c2.641-6.18,6.176-11.789,10.024-16.219
				C10.859,29.251,6.521,42.784,10.202,55.892c3.769,13.425,10.443,17.11,10.443,17.11s-1.627-3.456-2.208-6.978
				c-0.584,0.87-0.647,0.72-2.614,0.099c-0.946-0.3-6.46-4.237-0.919-9.639c1.319-1.292,2.703-0.251,3.542,1.751
				c-0.227-2.915-0.762-4.702-0.762-4.702l0.753,0.813c0,0-0.842-4.107,6.533-12.809c0,0-4.811,1.45-4.408,8.97
				c0,0,6.702-4.347,12.625-14.523c0,0-2.263,6.438-3.824,8.935c0,0,5.222-0.236,10.604-8.935c0,0-0.432,3.096,0.808,6.342
				c0,0,1.101-2.417,1.508-6.342c0,0,1.108,7.743,9.626,8.569c0,0-1.311-3.668-3.033-6.47c0,0,3.417,4.609,8.881,5.753
				c0,0-0.619-3.356-2.019-5.859c0,0,4.234,5.924,5.633,13.298c0,0,0.333,1.19,0.872-0.727c0,0,0.197-1.531,0.552,2.384
				c0.715-1.772,2.072-2.742,3.762-1.462c2.524,1.902-0.442,14.861-5.954,16.322c-0.263,1.813-0.76,3.111-1.09,4.114
				C68.879,65.417,73.393,44.241,66.72,29.348z"/>
			<path style="opacity:0.4;fill:#A7A9AC;" d="M66.43,28.417c-6.677-14.896-13.241-15.044-13.241-15.044
				c-6.243-6.931-17.441-8.997-29.927,2.651C10.773,27.678,6.146,41.541,9.913,54.961C13.68,68.385,20.355,72.07,20.355,72.07
				s-1.337-2.524-1.918-6.046c-0.584,0.87-1.599,1.137-3.25-0.443c-2.313-2.213-2.691-7.964-0.573-10.028
				c1.32-1.291,2.704-0.251,3.543,1.751c-0.228-2.914-0.763-4.701-0.763-4.701l0.754,0.813c0,0-1.391-4.108,5.984-12.81
				c0,0-4.262,1.451-3.86,8.971c0,0,6.702-4.348,12.626-14.524c0,0-2.265,6.438-3.824,8.935c0,0,5.221-0.235,10.604-8.935
				c0,0-0.431,3.097,0.809,6.343c0,0,1.102-2.417,1.508-6.343c0,0,1.107,7.744,9.626,8.57c0,0-1.312-3.668-3.034-6.471
				c0,0,3.418,4.61,8.881,5.754c0,0-0.619-3.356-2.019-5.861c0,0,4.58,6.572,5.979,13.947c0,0-0.146,0.404,0.393-1.513
				c0,0,0.331-1.393,0.685,2.522c0.716-1.772,2.072-2.742,3.763-1.463c2.523,1.903-0.09,15.188-5.603,16.648
				c-0.262,1.814-0.412,3.466-1.049,4.411C68.98,65.109,73.103,43.31,66.43,28.417z M50.158,24.963
				C50.121,31.291,51.761,36.1,51.761,36.1c-4.774-3.407-7.346-13.14-7.346-13.14c-1.83,7.375,0.699,13.715,0.699,13.715
				c-2.673-3.13-3.174-9.457-3.264-11.236c-0.015,1.528-0.666,4.011-0.666,4.011c-0.273-3.104-0.993-5.901-0.993-5.901
				c-1.396,11.392-5.142,12.514-5.142,12.514c2.42-7.504,0.889-10.771,0.889-10.771C34.969,31.13,27.3,37.237,27.3,37.237
				c2.334-4.527,5.005-12.274,5.005-12.274c-12.434,3.645-15.612,18.778-15.612,18.778c-1.126-5.944,0.702-11.343,0.702-11.343
				c-6.835,5.198-5.92,14.431-5.92,14.431c-2.181-10.448,4.796-27.015,20.398-35.693c0,0-6.795,4.689-8.813,10.754
				c0,0,7.582-10.659,16.375-12.606c0,0-3.785,1.846-4.87,7.04c0,0,2.798-6.121,7.534-6.935c-0.226,0.879-0.36,4.811,0.538,7.522
				c0,0,1.252-3.466,0.971-7.127c0,0,5.208,4.4,7.146,8.602c0-4.316-4.456-7.929-4.456-7.929
				c11.519,5.017,11.519,24.596,11.519,24.596C54.346,26.758,50.158,24.963,50.158,24.963z M66.645,42.499
				c-1.076-11.391-7.05-16.663-7.05-16.663c1.291-0.368,4.304,2.064,4.304,2.064c-1.291-5.164-5.326-8.997-5.326-8.997
				s0,0,1.022,0.81C68.566,26.829,66.645,42.499,66.645,42.499z"/>
			<path style="opacity:0.5;fill:#A7A9AC;" d="M34.694,14.008C26.321,19.1,21.02,27.133,21.02,27.133
				c0.432-4.83,2.33-7.52,2.33-7.52c-7.172,6.608-10.133,16.371-10.133,16.371s2.906-6.565,6.674-8.923c0,0-1.453,5.089-1.453,9.287
				C18.438,36.349,21.989,26.724,34.694,14.008z"/>
			<path style="opacity:0.5;fill:#A7A9AC;" d="M48.378,17.842c-1.09,2.491-1.214,6.418-1.214,6.418
				C45.631,21.111,45.149,15,45.149,15c-1.602,2.92-2.14,7.878-2.14,7.878c-0.121-3.321-1.05-4.537-1.05-4.537
				c-0.122,1.887-0.646,3.098-0.646,3.098c-0.443-5.087-1.899-8.406-1.899-8.406c-2.058,4.366-1.413,11.447-1.413,11.447
				c-0.786-4.424-2.563-6.139-2.563-6.139c-0.323,7.063-5.267,15.874-5.267,15.874s5.771-5.054,6.31-12.204
				c0,0,1.925,4.756,0.527,11.097c0,0,3.874-6.341,2.959-13.2c0,0,1.074,2.508,1.507,6.712c0,0,0.809-2.748,0.727-5.511
				c0,0,0.101,5.831,1.333,9.731c0,0-0.445-7.799,1.493-10.784c0,0,0.808,7.907,4.904,12.166c0,0-1.701-3.904-1.056-9.697
				c0,0,5.033,1.883,7.267,6.747c0,0-1.063-9.327-5.14-14.271c0,0,0.977,1.849,1.451,6.77C52.454,21.77,51.003,19.058,48.378,17.842
				z"/>
		</g>
		<g>
			<g>
				<path style="fill:#A7A9AC;stroke:#282320;stroke-width:0.25;stroke-miterlimit:10;" d="M16.455,12.536
					c-5.418-2.322-14.319,4.12-13.412,16.921c0.511,7.165,3.999,9.889,6.507,10.925c1.487-7.627,5.64-15.062,12.354-21.82
					C21.416,16.882,20.085,14.09,16.455,12.536z"/>
				<path style="opacity:0.4;fill:#A7A9AC;" d="M16.455,12.536c-5.418-2.322-14.319,4.12-13.412,16.921
					c0.511,7.165,3.999,9.889,6.507,10.925c1.487-7.627,5.64-15.062,12.354-21.82C21.416,16.882,20.085,14.09,16.455,12.536z
					 M17.146,17.547c-1.776,2.656-3.444,2.066-5.867,7.008c0,0-0.054-2.582,0.646-4.795c0,0-1.131,1.253-2.314,6.462
					c-0.525,2.32-1.185,1.573-1.237-1.374c-1.777,3.912-1.184,6.904-1.184,6.904c-1.725-2.168-1.994-4.69-1.994-4.69
					c-0.537,1.4-0.429,6.343-1.076,4.131C2.957,27.205,3.857,18.701,8.373,15C14.616,9.88,18.921,14.892,17.146,17.547z"/>
			</g>
			<path style="fill:#A7A9AC;stroke:#8E191C;stroke-width:0.25;stroke-miterlimit:10;" d="M21.904,17.03
				c0,0,0.517-1.326-0.345-1.914c-0.862-0.594-2.316,1.142-2.663,3.575c0,0-0.917-0.329-1.668,0.223
				c-0.756,0.55-0.756,3.135-0.756,3.135s-1.292-0.739-1.964,0.257c-0.675,0.994-0.62,2.359-0.62,2.359s-1.613-0.146-2.179,0.956
				c-0.564,1.105-0.217,2.655-0.217,2.655s-1.613,0.483-2.016,1.33c-0.405,0.847,0,2.875,0,2.875s-1.026-0.26-1.375,0.369
				c-0.349,0.625-0.241,2.396-0.241,2.396S7,35.431,6.704,36.169c-0.295,0.735-0.538,3.204,0.78,4.213c0,0,0.835,0.803,2.22-0.751
				c1.709-7.827,6.229-15.435,13.449-22.292C22.463,16.775,21.904,17.03,21.904,17.03z"/>
			<path style="fill:#A7A9AC;" d="M21.904,17.03c0,0,0.517-1.326-0.345-1.914c-0.862-0.594-2.316,1.142-2.663,3.575
				c0,0-0.917-0.329-1.668,0.223c-0.756,0.55-0.756,3.135-0.756,3.135s-1.292-0.739-1.964,0.257c-0.675,0.994-0.62,2.359-0.62,2.359
				s-1.613-0.146-2.179,0.956c-0.564,1.105-0.217,2.655-0.217,2.655s-1.613,0.483-2.016,1.33c-0.405,0.847,0,2.875,0,2.875
				s-1.026-0.26-1.375,0.369c-0.349,0.625-0.241,2.396-0.241,2.396S7,35.431,6.704,36.169c-0.295,0.735-0.538,3.204,0.78,4.213
				c0,0,0.835,0.803,2.22-0.751c1.709-7.827,6.229-15.435,13.449-22.292C22.463,16.775,21.904,17.03,21.904,17.03z M7.504,38.888
				c-0.787-0.663-0.891-2.25,0.564-2.903c0.237-0.109,1.313-0.471,1.274,0.964C9.302,38.392,8.29,39.551,7.504,38.888z
				 M11.945,31.505c-0.404,0.994-1.414,2.072-1.414,2.072c-0.059,1.827-1.25,2.021-1.603,1.354
				c-0.353-0.661-0.254-1.936,0.978-1.853c-0.563-3.234,0.243-3.815,1.23-3.93C12.127,29.04,12.349,30.511,11.945,31.505z
				 M21.049,18.286c-0.707,1.106-1.979,1.132-1.979,1.132s0.323,0.861-0.362,1.77c-0.687,0.913-1.917,1.576-1.917,1.576
				s0.08,0.998-0.688,1.881c-0.767,0.888-1.776,1.216-1.776,1.216c0.122,2.218-1.109,3.289-1.885,2.628
				c-0.483-0.41-0.775-1.584,0-2.628c0.618-0.827,1.703-0.495,1.703-0.495s-0.255-0.916,0.565-2.297
				c0.924-1.555,1.897-0.634,1.897-0.634c0.686-4.699,2.564-3.484,2.564-3.484c0.366-2.099,1.251-3.595,1.877-3.346
				C21.676,15.852,21.753,17.179,21.049,18.286z"/>
			<path style="opacity:0.5;fill:#A7A9AC;" d="M4.066,27.795c0,0,0.121-7.976,3.499-11.499c3.376-3.522,7.248-2.876,7.248-2.876
				s-5.887,1.144-7.14,8.477c0,0-0.049-2.431,0.646-4.643C8.319,17.254,4.874,19.968,4.066,27.795z"/>
		</g>
		<g>
			<g>
				<path style="fill:#A7A9AC;stroke:#282320;stroke-width:0.25;stroke-miterlimit:10;" d="M67.069,8.66
					c-6.002,0.795-8.802,5.545-9.687,7.42c2.497,1.845,5.901,5.601,9.337,13.268c1.264,2.822,2.202,5.714,2.834,8.595
					c2.227-0.631,6.415-2.607,8.223-9.188C80.601,18.471,74.579,7.666,67.069,8.66z"/>
				<path style="opacity:0.4;fill:#A7A9AC;" d="M67.069,8.66c-6.002,0.795-8.802,5.545-9.687,7.42
					c2.497,1.845,5.901,5.601,9.337,13.268c1.264,2.822,2.202,5.714,2.834,8.595c2.227-0.631,6.415-2.607,8.223-9.188
					C80.601,18.471,74.579,7.666,67.069,8.66z M77.324,25.181c-1.253,5.479-4.309,4.167-4.309,4.167
					c1.076-5.529-2.151-9.955-2.151-9.955c0.052,1.99-0.646,3.318-0.646,3.318c0.268-2.947-3.794-4.277-5.651-8.703
					c-1.857-4.425,3.537-6.955,8.342-2.619C75.568,13.792,78.883,18.341,77.324,25.181z"/>
			</g>
			<path style="fill:#A7A9AC;stroke:#8E191C;stroke-width:0.25;stroke-miterlimit:10;" d="M72.598,36.534
				c0.602-2.712-0.55-2.616-0.55-2.616s0.376-1.657,0-2.544c-0.379-0.883-1.617-0.921-1.668-1.03
				c-0.056-0.113,0.564-2.254,0.144-3.725c-0.421-1.476-1.517-1.218-1.517-1.218s0.243-2.986-0.245-3.798
				c-0.483-0.809-1.962-0.404-1.962-0.404s0.377-1.697-0.376-2.766c-0.754-1.069-2.29-0.813-2.29-0.813s0.353-2.801-0.59-3.39
				c-0.944-0.592-1.886-0.151-1.886-0.151s0.053-1.361-0.43-1.95c-0.484-0.591-1.615-0.997-2.098-0.555
				c-0.487,0.443-0.701,1.99-0.701,1.99s-0.863-0.404-1.157,0.333c-0.179,0.447-0.101,1.406-0.012,2.098
				c2.509,1.808,5.966,5.561,9.459,13.352c1.517,3.388,2.563,6.881,3.169,10.323c0.853,1.345,2.428,0.02,2.428,0.02
				C74.214,37.589,72.598,36.534,72.598,36.534z"/>
			<path style="fill:#A7A9AC;" d="M72.598,36.534c0.602-2.712-0.55-2.616-0.55-2.616s0.376-1.657,0-2.544
				c-0.379-0.883-1.617-0.921-1.668-1.03c-0.056-0.113,0.564-2.254,0.144-3.725c-0.421-1.476-1.517-1.218-1.517-1.218
				s0.243-2.986-0.245-3.798c-0.483-0.809-1.962-0.404-1.962-0.404s0.377-1.697-0.376-2.766c-0.754-1.069-2.29-0.813-2.29-0.813
				s0.353-2.801-0.59-3.39c-0.944-0.592-1.886-0.151-1.886-0.151s0.053-1.361-0.43-1.95c-0.484-0.591-1.615-0.997-2.098-0.555
				c-0.487,0.443-0.701,1.99-0.701,1.99s-0.863-0.404-1.157,0.333c-0.179,0.447-0.101,1.406-0.012,2.098
				c2.509,1.808,5.966,5.561,9.459,13.352c1.517,3.388,2.563,6.881,3.169,10.323c0.853,1.345,2.428,0.02,2.428,0.02
				C74.214,37.589,72.598,36.534,72.598,36.534z M63.909,21.937c-1.707-0.721-1.28-3.596-1.28-3.596s-0.647,0.773-1.597,0
				c-0.947-0.771-0.705-2.322-0.705-2.322s-0.968,0.886-1.535,0.387c-0.564-0.5-0.524-1.66,0.325-3.373
				c0.847-1.716,2.192-0.13,1.693,1.968c0,0,0.847-0.896,2.055,0c1.21,0.896,0.488,3.341,0.488,3.341s2.261-0.542,2.666,0.773
				C66.424,20.436,65.614,22.655,63.909,21.937z M68.254,29.718c-1.159-0.777-1.83-2.142-1.319-3.581c0,0-1.69-0.402-1.732-1.544
				c-0.042-1.144,0.249-2.045,0.845-2.473c0.786-0.563,1.77-0.956,2.395,0.256c0.624,1.216-0.404,3.454-0.404,3.454
				s0.861-0.096,1.534,0.678C70.244,27.283,69.411,30.491,68.254,29.718z M72.235,35.984c-0.245,1.855-1.291,2.505-1.911,1.436
				c-0.618-1.071,0.199-2.798,0.199-2.798c-1.563-0.113-1.8-2.548-1.14-3.173c0.7-0.663,1.317-0.625,1.963,0.331
				c0.646,0.958-0.053,2.582-0.053,2.582S72.481,34.123,72.235,35.984z"/>
			<path style="opacity:0.5;fill:#A7A9AC;" d="M65.202,11.389c0,0,6.952-0.256,8.298,9.994c0,0,0.755-2.066,0-5.825
				c0,0,4.451,3.074,2.172,13.114c0,0,4.358-8.628-1.848-15.64C70.192,8.927,65.202,11.389,65.202,11.389z"/>
		</g>
	</g>
</g>
<g id="Layer_1">
</g>
</svg>
