<?xml version="1.0" encoding="iso-8859-1"?>
<!-- Generator: Adobe Illustrator 15.0.0, SVG Export Plug-In . SVG Version: 6.00 Build 0)  -->
<!DOCTYPE svg PUBLIC "-//W3C//DTD SVG 1.1//EN" "http://www.w3.org/Graphics/SVG/1.1/DTD/svg11.dtd">
<svg version="1.1" xmlns="http://www.w3.org/2000/svg" xmlns:xlink="http://www.w3.org/1999/xlink" x="0px" y="0px" width="80px"
	 height="80px" viewBox="0 0 80 80" style="enable-background:new 0 0 80 80;" xml:space="preserve">
<g id="ico-hair-girl-2">
	<g>
		<defs>
			<rect id="SVGID_1_" width="80" height="80"/>
		</defs>
		<clipPath id="SVGID_2_">
			<use xlink:href="#SVGID_1_"  style="overflow:visible;"/>
		</clipPath>
		<g style="clip-path:url(#SVGID_2_);">
			<path style="fill:none;" d="M59.746,0H20.253C9.068,0,0,9.066,0,20.253v39.493C0,70.932,9.068,80,20.253,80h39.493
				C70.932,80,80,70.932,80,59.746V20.253C80,9.066,70.932,0,59.746,0z"/>
		</g>
	</g>
	<g>
		<g>
			<g>
				<path style="fill:#A7A9AC;" d="M57.985,28.835c-2.431-1.438-4.323-1.907-4.323-1.907c-0.822-1.425-2.419-2.923-4.674-4.2
					c0,0,0.748-2.765-1.385-5.474c-3.209-4.066-8.594-0.98-8.594-0.98s2.163-5.333,7.123-2.781c0,0-5.188-4.166-10.188-2.1
					c0,0,6.391-5.369,11.268,0.273c0,0-0.896-4.693-4.305-4.48c0,0,7.492-3.886,10.912,4.98c0,0,1.434-4.83-0.579-6.775
					c0,0,5.103,0.808,4.298,7.608c0,0,2.512-4.711,7.57-2.56c0,0-3.875-0.29-5.314,4.354c0,0,2.919-2.059,7.176-0.603
					c4.254,1.467,3.947,4.824,3.947,4.824s-2.904-2.084-6.192,0c0,0,4.696-0.635,6.856,3.912c2.165,4.535-0.158,7.029-0.158,7.029
					s-0.244-5.335-5.95-4.43c0,0,3.725,4.241,1.084,7.745c0,0,0.151-4.543-3.146-6.337C60.664,25.437,58.887,26.664,57.985,28.835z"
					/>
				<g>
					<path style="fill:#A7A9AC;" d="M58.151,28.777c-1.366-0.758-2.737-1.432-4.211-1.892c-0.849-0.264-2.853-2.955-3.677-3.541
						c-1.611-1.158-0.492-2.049-1.229-3.834c-0.798-1.918-1.766-3.172-3.548-4.053c-1.679-0.822-3.839-0.353-5.494,0.217
						c-0.286,0.099-0.605,0.247-0.872,0.376c-0.511,0.257,0.108,0.264,0.224,0.011c1.278-2.711,3.725-3.754,6.617-2.511
						c0.069,0.03,0.526,0.022,0.375-0.1c-2.124-1.638-4.611-2.519-7.204-2.734c-0.771-0.065-1.475,0.1-2.233,0.233
						c-0.593,0.097-1.015,0.676-0.259,0.123c3.297-2.388,7.381-2.415,10.37,0.623c0.058,0.06,0.468,0.106,0.44-0.03
						c-0.428-1.977-1.617-4.184-3.678-4.529c-0.541-0.081-0.727,0.123-0.135-0.117c0.775-0.305,1.58-0.458,2.393-0.55
						c3.785-0.436,6.16,2.439,7.561,5.714c0.059,0.115,0.426,0.129,0.465,0c0.568-2.049,0.762-4.256-0.129-6.216
						c-0.232-0.527-1.18-0.741,0.195-0.181c0.765,0.322,1.385,0.881,1.945,1.507c1.359,1.515,1.375,3.763,1.234,5.694
						c-0.01,0.141,0.404,0.15,0.462,0.052c0.469-0.833,1.132-1.484,1.862-2.066c1.109-0.896,7.556-1.055,4.738-0.603
						c-2.432,0.404-3.874,1.977-4.797,4.388c-0.065,0.158,0.349,0.142,0.424,0.1c3.153-2.065,8.111-1.268,10.184,2.032
						c0.332,0.527,0.451,1.194,0.509,1.813c0.025,0.238,0.654,0.386-0.103-0.032c-2.005-1.119-4.131-0.668-6.065,0.296
						c-0.16,0.074,0.221,0.156,0.259,0.146c3.898-0.418,6.461,2.552,7.389,6.272c0.354,1.426-0.013,3.032-0.742,4.234
						c-0.153,0.271,0.277,0.394,0.111-0.47c-0.658-3.202-3.43-3.983-6.115-3.724c-0.027,0-0.236,0.041-0.167,0.117
						c0.478,0.568,0.849,1.192,1.208,1.853c1.262,2.289,0.359,3.481,0.328,5.804c0.025-1.917-0.642-3.721-1.771-5.187
						c-2.177-2.822-5.771-2.189-7.258,0.791c-0.063,0.13,0.391,0.196,0.451,0.072c2.889-5.835,8.17,0.223,8.109,4.395
						c0,0.141,0.4,0.152,0.459,0.052c1.476-2.452,0.929-4.792-0.535-7.095c-1.599-2.505,3.597,0.253,4.375,1.645
						c0.345,0.609,0.521,1.367,0.573,2.065c0.009,0.164,0.383,0.142,0.461,0.051c2.336-2.756,0.641-7.162-1.534-9.376
						c-0.84-0.849-2.176-1.4-3.31-1.572c-0.509-0.082-0.993-0.141-1.503-0.149c-2.895-0.072,3.744-0.911,5.405,0.174
						c0.068,0.042,0.429,0.123,0.442-0.034c0.183-3.655-3.791-5.053-6.498-5.434c-1.439-0.195-2.941,0.165-4.279,0.709
						c-1.523,0.627,0.096-0.626,0.532-1.414c0.814-1.449,2.632-2.412,4.2-2.357c0.132,0,0.357-0.096,0.121-0.182
						c-1.664-0.575-3.047-0.723-4.735-0.195c-0.622,0.188-1.319,0.664-1.792,1.11c-0.382,0.37-0.716,0.74-1.041,1.154
						c-0.623,0.798,0.121,0.493,0.197-0.551c0.22-3.063-1.66-6.036-4.557-6.578c-0.027-0.01-0.375,0-0.287,0.105
						c1.054,1.352,1.12,2.823,1.004,4.487c-0.047,0.454-0.115,0.905-0.209,1.352c-0.221,1.226,0.097,0.582-0.209-0.134
						c-0.848-1.977-2.583-3.908-4.611-4.483c-2.07-0.598-4.324-0.464-6.283,0.516c-0.144,0.076,0.164,0.148,0.199,0.148
						c2.186,0.122,3.026,1.514,3.723,3.186c0.758,1.813-0.043,0.305-0.875-0.336c-1.057-0.815-2.367-1.037-3.627-1.155
						c-2.19-0.188-4.668,0.964-6.387,2.348c-0.156,0.13,0.301,0.165,0.367,0.141c3.195-1.045,5.516-0.371,8.115,0.963
						c0.011,0.007,2.79,1.302,1.117,0.584c-0.839-0.362-1.76-0.328-2.643-0.231c-1.728,0.182-3.227,1.869-3.912,3.449
						c-0.072,0.174,0.357,0.141,0.426,0.099c4.429-2.428,10.805,0.6,9.546,6.38c0,0.027,0.012,0.041,0.023,0.051
						c1.908,1.169,3.01,2.871,4.682,4.206c1.084,0.863,3.084,1.243,4.354,1.934C57.92,28.952,58.373,28.901,58.151,28.777z"/>
				</g>
			</g>
			<g>
				<path style="fill:#A7A9AC;" d="M56.885,21.329c0.256-0.164,0.543-0.287,0.834-0.396c0.143-0.031,0.289-0.089,0.433-0.123
					c0.159-0.023,0.303-0.072,0.444-0.09c0.16-0.016,0.311-0.052,0.461-0.052c0.144,0,0.303-0.013,0.454,0
					c0.15,0.019,0.307,0.019,0.453,0.041l0.444,0.077c0.144,0.041,0.289,0.092,0.434,0.133c0.148,0.041,0.29,0.096,0.431,0.165
					c0.136,0.064,0.274,0.111,0.413,0.194l0.395,0.224c0.265,0.146,0.497,0.361,0.748,0.533c0.12,0.101,0.231,0.206,0.348,0.316
					l0.342,0.312l0.375,0.339l-0.189-0.47c-0.158-0.373-0.329-0.709-0.535-1.03c-0.196-0.322-0.428-0.624-0.674-0.916
					c-0.127-0.136-0.259-0.27-0.389-0.411c-0.136-0.13-0.296-0.246-0.428-0.37c-0.143-0.122-0.313-0.212-0.463-0.32
					c-0.152-0.114-0.326-0.18-0.488-0.271l-0.256-0.124L60.207,19c-0.182-0.053-0.348-0.133-0.541-0.157l-0.547-0.1
					c-0.184-0.017-0.371-0.006-0.553-0.017c-0.183-0.007-0.371-0.007-0.553,0.026l-0.552,0.066c-0.181,0.023-0.355,0.099-0.533,0.14
					l-0.535,0.138l0.21,0.264c0.042-0.089,0.121-0.195,0.205-0.295c0.076-0.093,0.166-0.174,0.264-0.258
					c0.186-0.163,0.39-0.311,0.611-0.435c0.117-0.047,0.22-0.115,0.336-0.163l0.345-0.131l0.36-0.115
					c0.125-0.042,0.244-0.06,0.371-0.084c0.242-0.064,0.496-0.081,0.743-0.115c0.125-0.019,0.255-0.019,0.376-0.025l0.384-0.017
					c0.251,0.012,0.508,0.017,0.755,0.023l0.758,0.076l0.786,0.058l-0.657-0.421c-0.268-0.183-0.538-0.319-0.816-0.452
					c-0.279-0.131-0.568-0.229-0.864-0.328c-0.14-0.049-0.29-0.076-0.438-0.118c-0.147-0.041-0.305-0.064-0.456-0.088
					c-0.152-0.035-0.307-0.041-0.453-0.049c-0.156-0.018-0.307-0.026-0.457-0.018c-0.16,0-0.314-0.009-0.461,0.018l-0.457,0.055
					c-0.154,0.041-0.301,0.082-0.453,0.124c-0.149,0.027-0.293,0.082-0.433,0.149c-0.144,0.066-0.3,0.108-0.431,0.179l-0.398,0.233
					c-0.146,0.072-0.262,0.172-0.391,0.271l-0.376,0.281l0.267,0.124c-0.057-0.627-0.182-1.221-0.359-1.803
					c-0.046-0.151-0.089-0.291-0.15-0.439c-0.055-0.14-0.102-0.276-0.162-0.417c-0.063-0.141-0.117-0.28-0.198-0.422l-0.208-0.395
					l-0.258-0.368c-0.078-0.142-0.188-0.24-0.282-0.363c-0.1-0.117-0.204-0.224-0.31-0.323c-0.119-0.099-0.221-0.211-0.338-0.295
					l-0.374-0.246c-0.128-0.082-0.268-0.133-0.397-0.197l-0.199-0.1c-0.068-0.024-0.139-0.041-0.208-0.06l-0.426-0.113l-0.349-0.092
					l0.252,0.28c0.178,0.199,0.348,0.419,0.491,0.651c0.159,0.237,0.29,0.484,0.415,0.733c0.12,0.246,0.231,0.518,0.316,0.78
					c0.047,0.13,0.082,0.271,0.116,0.405c0.043,0.137,0.066,0.271,0.081,0.418c0.031,0.14,0.059,0.271,0.063,0.421
					c0.008,0.141,0.023,0.277,0.031,0.418l-0.016,0.438c0.008,0.139-0.023,0.271-0.039,0.419c-0.027,0.147-0.027,0.288-0.074,0.429
					l-0.096,0.411c-0.036,0.142-0.094,0.272-0.139,0.403l-0.148,0.405l0.163-0.399c0.054-0.128,0.116-0.259,0.151-0.4l0.127-0.41
					c0.039-0.14,0.047-0.281,0.077-0.429c0.024-0.14,0.063-0.28,0.063-0.429l0.022-0.428c0-0.15-0.012-0.287-0.012-0.438
					c-0.002-0.146-0.034-0.288-0.049-0.435c-0.024-0.14-0.039-0.281-0.078-0.421c-0.035-0.147-0.057-0.294-0.109-0.429
					c-0.076-0.277-0.182-0.551-0.298-0.813c-0.119-0.256-0.249-0.509-0.397-0.76c-0.16-0.254-0.314-0.476-0.511-0.705l-0.093,0.195
					l0.398,0.116c0.07,0.024,0.135,0.034,0.193,0.058l0.189,0.09c0.124,0.068,0.256,0.116,0.368,0.197l0.345,0.24
					c0.111,0.089,0.208,0.188,0.313,0.287c0.104,0.09,0.198,0.2,0.29,0.313c0.083,0.116,0.182,0.216,0.256,0.34l0.232,0.36
					l0.206,0.388c0.062,0.122,0.119,0.272,0.178,0.396c0.05,0.131,0.096,0.271,0.15,0.41c0.054,0.141,0.093,0.271,0.128,0.418
					c0.089,0.282,0.151,0.568,0.213,0.856c0.054,0.281,0.101,0.587,0.115,0.874l0.036,0.298l0.24-0.181l0.353-0.265
					c0.122-0.093,0.24-0.181,0.367-0.246l0.384-0.216c0.119-0.073,0.262-0.106,0.397-0.165c0.132-0.059,0.26-0.112,0.411-0.141
					c0.135-0.03,0.275-0.072,0.418-0.099l0.43-0.056c0.14-0.026,0.285-0.017,0.43-0.017c0.144-0.01,0.281,0,0.43,0.017
					c0.144,0.015,0.282,0.024,0.434,0.056c0.139,0.026,0.286,0.041,0.425,0.075c0.14,0.052,0.284,0.075,0.414,0.122
					c0.278,0.093,0.554,0.199,0.814,0.323c0.267,0.116,0.53,0.264,0.761,0.418l0.124-0.37l-0.78-0.065
					c-0.26-0.006-0.521-0.017-0.783-0.024l-0.395,0.019c-0.127,0.013-0.267,0.013-0.396,0.03c-0.259,0.041-0.521,0.058-0.78,0.123
					c-0.127,0.035-0.256,0.052-0.383,0.093l-0.385,0.123l-0.375,0.147c-0.123,0.059-0.243,0.123-0.361,0.188
					c-0.238,0.122-0.463,0.287-0.672,0.47c-0.104,0.099-0.197,0.198-0.294,0.298c-0.093,0.122-0.175,0.222-0.257,0.369l-0.195,0.37
					l0.398-0.106l0.51-0.147c0.174-0.04,0.336-0.116,0.51-0.123l0.525-0.074c0.173-0.036,0.352-0.036,0.521-0.024
					c0.17,0.006,0.344-0.012,0.526,0.006l0.51,0.093c0.176,0.014,0.337,0.096,0.505,0.137l0.248,0.083l0.243,0.109
					c0.157,0.082,0.32,0.147,0.464,0.247c0.148,0.105,0.303,0.188,0.449,0.295c0.133,0.116,0.275,0.215,0.411,0.346
					c0.128,0.133,0.259,0.257,0.376,0.388c0.242,0.27,0.463,0.562,0.67,0.856c0.199,0.311,0.375,0.639,0.521,0.972l0.186-0.134
					l-0.359-0.311c-0.125-0.101-0.232-0.217-0.361-0.307c-0.262-0.18-0.506-0.387-0.781-0.534l-0.414-0.222
					c-0.14-0.075-0.289-0.124-0.43-0.182c-0.143-0.066-0.29-0.123-0.441-0.158c-0.152-0.03-0.307-0.081-0.449-0.112l-0.465-0.069
					c-0.15-0.023-0.309-0.023-0.464-0.023c-0.151-0.017-0.311,0.01-0.466,0.018c-0.146,0.006-0.301,0.033-0.453,0.066
					c-0.15,0.016-0.297,0.063-0.452,0.107c-0.143,0.032-0.29,0.097-0.433,0.147C57.416,21.015,57.139,21.154,56.885,21.329z"/>
			</g>
			<g style="opacity:0.7;">
				<path style="fill:#A7A9AC;" d="M46.132,13.492c-4.96-2.552-7.123,2.781-7.123,2.781s5.385-3.086,8.594,0.98
					c2.133,2.709,1.385,5.474,1.385,5.474c2.255,1.277,3.852,2.775,4.674,4.2c0,0,1.893,0.469,4.323,1.907
					c0.901-2.171,2.679-3.398,5.425-1.9c3.297,1.794,3.146,6.337,3.146,6.337c2.641-3.504-1.084-7.745-1.084-7.745
					c5.706-0.905,5.95,4.43,5.95,4.43s2.323-2.494,0.158-7.029c-2.16-4.547-6.856-3.912-6.856-3.912c3.288-2.084,6.192,0,6.192,0
					s0.307-3.357-3.947-4.824c-4.257-1.456-7.176,0.603-7.176,0.603c1.439-4.644,5.314-4.354,5.314-4.354
					c-5.059-2.151-7.57,2.56-7.57,2.56c0.805-6.801-4.298-7.608-4.298-7.608c2.013,1.945,0.579,6.775,0.579,6.775
					c-3.42-8.866-10.912-4.98-10.912-4.98c3.408-0.213,4.305,4.48,4.305,4.48c-4.877-5.643-11.268-0.273-11.268-0.273
					C40.944,9.326,46.132,13.492,46.132,13.492z M39.265,9.835c6.487-1.052,10.448,4.472,10.448,4.472
					c0.313-4.929-3.512-7.592-3.512-7.592c6.029,0.404,7.409,6.178,7.409,6.178c2.165-2.552,1.724-5.807,1.724-5.807
					c2.654,2.744,1.41,7.368,1.41,7.368c1.14-3.045,5.226-3.58,5.226-3.58c-2.946,1.563-3.493,4.906-3.493,4.906
					c6.84-3.96,10.836,1.196,10.836,1.196c-3.458-0.71-6.145,2.658-6.145,2.658s3.691-0.84,5.89,1.133
					c2.632,2.381,2.731,5.756,2.731,5.756s-3.887-3.228-8.729-2.815c0,0,2.216,1.407,2.765,3.59c0,0-3.098-2.199-4.737-2.083
					c0,0,0.952-0.594,1.56-0.517c0.604,0.071-2.338-1.532-4.096-1.286c-1.762,0.247,1.041-1.276,2.699-1.418
					c0,0-3.125-1.062-4.441-0.429c0,0,0.934-1.321,2.705-1.239c1.777,0.09-2.817-1.4-4.787-0.116c0,0,0.654-2.923-0.709-4.905
					c0,0-0.465,3.109-1.684,5.035c0,0,0.484-0.979,0.216-3.34c0,0-0.673,1.174-1.882,2.459c0,0,0.559-1.374-0.328-3.053
					c0,0-0.024,1.92-0.743,2.524c-3.911-6.847-9.148-4.022-9.148-4.022s0.268-0.994,1.788-1.352
					c2.947-0.699,6.687,1.805,6.687,1.805C44.904,9.672,39.265,9.835,39.265,9.835z"/>
			</g>
			<path style="opacity:0.7;fill:#A7A9AC;" d="M62.994,20.104c0,0,6.219-1.607,7.941,4.453
				C70.936,24.558,69.37,20.514,62.994,20.104z"/>
			<path style="opacity:0.7;fill:#A7A9AC;" d="M58.877,15.955c0,0,4.746-2.868,9.064,0.318
				C67.941,16.273,62.127,14.537,58.877,15.955z"/>
			<path style="opacity:0.7;fill:#A7A9AC;" d="M56.17,15.222c0,0,1.269-3.337-0.391-6.636C55.779,8.586,56.438,11.68,56.17,15.222z"
				/>
			<path style="opacity:0.7;fill:#A7A9AC;" d="M52.492,12.354c0,0-0.933-4.066-5.629-5.095C46.863,7.26,50.387,8.2,52.492,12.354z"
				/>
			<path style="opacity:0.7;fill:#A7A9AC;" d="M49.783,15.633c0,0-2.107-4.454-6.95-5.375C42.833,10.258,46.91,11.516,49.783,15.633
				z"/>
		</g>
		<g>
			<g>
				<g>
					<path style="fill:#A7A9AC;" d="M54.493,64.193c0,0,0.256-4.94-1.462-11.173c-1.723-6.229-6.924-11.325-6.924-11.325
						s0.017,5.738,3.268,8.346c0.756,0.609-7.997,1.138-12.15-8.856c-0.388-0.921,0.081,4.553,2.976,6.431
						c0.497,0.319-7.328,0.024-11.412-8.793c-0.271-0.584,1.192,4.123-0.902,7.48c-0.254,0.422,1.158-4.213-2.859-7.622
						c-0.361-0.312,1.241,3.057-1.511,4.916c-0.278,0.183,1.286-1.671-0.792-5.474c-0.109-0.188-0.524,6.543-5.176,8.249
						c-0.356,0.131,1.598-2.727,0.441-6.364c-0.147-0.494-5.242,2.756-5.849,7.015c-0.105,0.717-0.822-1.904-0.605-3.871
						c0,0-2.299,5.65,0.701,11.294c0,0-3.457-1.489-4.677-3.818c-1.227-2.331-0.704-5.622-0.704-5.622s-1.216,1.227-1.255,2.998
						c0,0-1.371-3.22,0.875-5.279c0,0-1.014,0.908-2.593,1.079c-1.316,0.13-1.681-1.233-1.681-1.233s2.525,0.977,3.485-3.138
						c0.941-4.008,2.869-4.035,2.869-4.035s1.494-10.908,17.424-14.811c14.494-3.539,25.05,1.796,27.683,6.342
						c0,0,12.809,3.217,14.601,18.284c0,0,4.085,9.499,0.116,16.239c0,0,0.644-1.976-0.286-4.987c0,0-2.051,17.016-18.38,20.109
						c0,0,3.678-6.591,4.786-12.534"/>
					<g>
						<path style="fill:#A7A9AC;" d="M54.857,63.418c-0.108,0.833-0.149,0.997-0.128,0.497c0.02-0.545-0.003-1.104-0.021-1.646
							c-0.099-3.122-0.687-6.21-1.458-9.214c-1.092-4.265-3.925-8.354-6.936-11.359c-0.044-0.04-0.438-0.205-0.431-0.057
							c0.017,1.078,1.813,9.293,3.226,8.484c-1.758,1.015-5.16-1.134-6.542-2.089c-2.61-1.803-3.458-4.455-5.207-6.954
							c-0.063-0.084-0.38-0.192-0.438-0.059c-0.441,1.086,1.476,6.437,2.575,6.536c-2.037-0.182-4.002-1.302-5.648-2.506
							c-1.242-0.886-2.237-2.081-3.167-3.308c0.418,0.562-1.696-2.929-1.722-2.953c-0.059-0.059-0.458-0.223-0.431-0.035
							c0.155,1.21,0.284,2.389,0.259,3.615c-0.022,1.028-0.31,1.977-0.643,2.929c-0.409,1.22-0.05,0.989,0,0.199
							c0.193-2.758-1.048-5.023-2.911-6.818c-0.089-0.089-0.266-0.153-0.387-0.099c-0.025,0-0.039,0.01-0.066,0.027
							c-0.027,0.014-0.042,0.024-0.035,0.065c0.102,0.675,0.179,1.227,0.187,1.949c0.008,0.824-1.225,3.031-1.057,2.538
							c0.577-1.696-0.226-3.524-0.925-5.009c-0.047-0.095-0.369-0.23-0.438-0.106c-0.213,0.322-0.22,0.974-0.291,1.344
							c-0.387,1.854-1.13,3.538-2.256,5.012c-0.298,0.397-2.072,1.458-2.149,1.695c0.193-0.624,0.41-1.209,0.574-1.832
							c0.201-0.81,0.514-3.73-0.229-4.283c-0.619-0.476-1.529,0.388-2.009,0.716c-1.354,0.94-2.427,2.265-3.313,3.673
							c-0.361,0.568-0.505,1.068-0.736,1.696c0.071,0.963,0.013,0.979-0.163,0.049c-0.208-0.965-0.266-1.927-0.181-2.907
							c0.007-0.146-0.399-0.246-0.453-0.122c-1.065,2.805-0.995,5.851-0.338,8.742c0.129,0.552,1.654,2.717,0.461,2.083
							c-1.234-0.646-2.241-1.474-3.178-2.535c-1.404-1.572-1.44-4.324-1.172-6.307c0.015-0.146-0.364-0.24-0.445-0.141
							C6.1,45.521,5.811,46.18,5.52,46.955c-0.198,0.51,0.349,1.5-0.011-0.056c-0.377-1.641,0.161-2.873,1.184-4.094
							c0.097-0.112-0.333-0.236-0.426-0.163c-0.363,0.286-6.019,0.269-3.019,0.115c1.597-0.074,2.262-1.928,2.667-3.261
							c0.039-0.132-0.406-0.271-0.453-0.125c-0.41,1.351-1.199,3.763-3.178,3.112c-0.036-0.015-0.361-0.09-0.306,0.051
							c0.565,1.538,1.818,1.415,3.124,1.138c0.314-0.069,0.606-0.217,0.882-0.388c1.065-0.675-0.499,0.37-0.824,1.069
							c-0.469,1.027-0.166,2.617,0.217,3.613c0.039,0.1,0.426,0.229,0.448,0.09c0.175-1.158,0.402-1.885,1.108-2.83
							c-0.275,0.377-0.368,0.1-0.414,1.203c-0.066,1.338,0.108,3.076,0.828,4.196c1.184,1.829,2.908,3.027,4.809,3.895
							c0.031,0.007,0.359,0.072,0.301-0.051c-1.465-3.169-1.851-6.379-1.125-9.821c0.182-0.87-0.005-2.08-0.058-0.534
							c-0.039,0.962,0.161,2.116,0.541,2.973c0.058,0.113,0.348,0.206,0.438,0.105c0.499-0.492,1.109-2.806,1.498-3.425
							c0.731-1.151,1.788-2.083,2.829-2.897c3.255-2.561,0.392,4.974,0.767,5.491c0.068,0.108,0.29,0.157,0.395,0.108
							c2.469-1.119,3.805-3.202,4.646-5.837c0.163-0.521,0.274-1.063,0.382-1.59c0.19-0.921-0.142-0.675,0.292,0.248
							c0.627,1.318,0.695,2.874,0.196,4.229c-0.019,0.041,0.063,0.1,0.093,0.11c0.011,0.007,0.017,0.014,0.027,0.023
							c0.089,0.041,0.263,0.099,0.348,0.023c1.49-1.308,1.859-2.699,1.502-4.683c0.592,0.647,1.123,1.366,1.58,2.131
							c0.431,0.724,0.618,1.59,0.789,2.412c0.19,0.921,0.075,1.794,0.036,2.717c-0.008,0.157,0.317,0.188,0.417,0.157
							c1.517-0.446,1.228-5.146,1.099-6.423c-0.178-1.825-0.05-0.008,0.531,0.856c0.921,1.408,1.942,2.617,3.159,3.736
							c1.429,1.304,5.458,4.053,7.563,3.169c0.024-0.013,0.057-0.04,0.046-0.064c-0.629-1.168-1.785-1.901-2.376-3.233
							c-0.286-0.646-0.441-1.35-0.601-2.036c-0.177-0.773-0.734-1.843,0.007-0.194c1.138,2.524,3.097,4.923,5.401,6.32
							c0.712,0.429,6.051,3.228,6.768,1.624c0-0.027-0.005-0.045-0.025-0.052c-1.601-2.364-2.786-4.031-3.192-7.022
							c-0.159-1.134-0.643-1.532-0.09-0.945c0.752,0.791,1.44,1.654,2.107,2.518c4.173,5.369,6.098,12.538,5.819,19.468
							c-0.005,0.141,0.358,0.241,0.441,0.141"/>
						<path style="fill:#A7A9AC;" d="M54.514,65.066c0.52-0.011,0.182-0.853,0.676-1.027"/>
						<path style="fill:#A7A9AC;" d="M54.729,63.915c-0.046-0.017-0.221,0.21-0.236,0.278c-1.076,4.468-1.394,9.879-5.001,12.296
							c-0.108,0.084,0.301,0.206,0.363,0.192c6.689-1.406,12.091-5.277,15.555-11.568c1.182-2.146,2.02-4.524,2.597-6.937
							c0.122-0.521,0.213-1.049,0.296-1.564c-0.199,1.349,0.285,3.209-0.152,4.781c-0.033,0.134,0.392,0.247,0.453,0.123
							c2.574-4.912,1.934-10.66,0.093-15.724c-0.87-2.401-1.037-5.006-2.04-7.417c-0.945-2.302-2.438-4.337-4.104-6.107
							c-2.151-2.288-4.903-3.983-7.757-5.077c-1.091-0.412-1.053-0.569-1.872-1.549c-1.217-1.467-2.882-2.47-4.491-3.343
							c-9.859-5.357-23.951-3.557-32.994,2.781c-2.98,2.095-5.458,5.172-6.708,8.736c-0.786,2.223-2.497,2.874-3.267,5.555
							c-0.035,0.135,0.409,0.259,0.453,0.125c0.406-1.392,1.079-3.826,2.791-3.984c0.023,0,0.07-0.024,0.077-0.049
							c0.879-5.896,6.342-10.208,11.006-12.537c6.864-3.433,15.222-4.167,22.597-2.601c2.94,0.634,5.791,1.86,8.278,3.627
							c0.98,0.71,1.902,2.512,2.865,3.033c1.482,0.787,3.141,1.198,4.622,2.09c4.097,2.445,7.053,6.378,8.741,10.996
							c0.667,1.836,0.674,3.87,1.36,5.656c0.676,1.771,1.095,3.631,1.396,5.514c0.523,3.14,0.209,6.26-0.986,9.171
							c-0.604,1.485,0.104,0.453,0.158-0.664c0.059-1.112-0.243-2.205-0.511-3.261c-0.023-0.105-0.429-0.224-0.449-0.089
							c-0.797,6.296-4.378,12.257-9.093,16.025c-2.407,1.936-5.269,3.073-8.18,3.83c-1.056,0.27-0.465,0.27,0.147-0.175
							c0.886-0.658,1.446-1.981,1.892-2.983"/>
					</g>
				</g>
				<g>
					<path style="fill:#A7A9AC;" d="M63.412,39.59c0,0,0.174,0.096,0.473,0.317c0.136,0.109,0.316,0.24,0.496,0.404
						c0.204,0.164,0.395,0.381,0.635,0.586c0.201,0.229,0.449,0.469,0.674,0.747c0.229,0.274,0.456,0.579,0.689,0.891
						c0.243,0.306,0.434,0.674,0.674,1.004c0.193,0.363,0.421,0.727,0.606,1.096c0.174,0.396,0.396,0.758,0.535,1.145
						c0.149,0.394,0.337,0.757,0.464,1.144c0.119,0.371,0.252,0.741,0.383,1.08c0.1,0.353,0.193,0.688,0.282,0.993
						c0.093,0.315,0.169,0.585,0.226,0.849c0.066,0.247,0.111,0.478,0.158,0.658c0.094,0.363,0.141,0.576,0.141,0.576
						s-0.02-0.213-0.072-0.593c-0.021-0.182-0.053-0.412-0.088-0.676c-0.022-0.13-0.039-0.264-0.061-0.417
						c-0.025-0.141-0.059-0.298-0.095-0.456c-0.069-0.318-0.15-0.664-0.231-1.021c-0.104-0.352-0.213-0.728-0.328-1.125
						c-0.117-0.388-0.292-0.775-0.449-1.169c-0.141-0.395-0.354-0.782-0.535-1.179c-0.19-0.377-0.429-0.74-0.631-1.11
						c-0.244-0.346-0.465-0.709-0.713-1.014c-0.135-0.153-0.254-0.312-0.379-0.46c-0.127-0.147-0.256-0.279-0.375-0.411
						c-0.248-0.28-0.511-0.502-0.736-0.726c-0.252-0.195-0.472-0.387-0.686-0.516c-0.205-0.16-0.395-0.266-0.555-0.364
						C63.598,39.661,63.412,39.59,63.412,39.59z"/>
				</g>
				<g>
					<path style="fill:#A7A9AC;" d="M13.387,39.068c0,0-0.102,0.059-0.245,0.182c-0.146,0.122-0.348,0.312-0.557,0.569
						c-0.108,0.122-0.221,0.27-0.332,0.428c-0.097,0.164-0.218,0.328-0.312,0.527c-0.204,0.37-0.367,0.798-0.488,1.243
						c-0.069,0.213-0.092,0.442-0.135,0.666c-0.034,0.228-0.034,0.451-0.059,0.667c-0.011,0.212,0.014,0.418,0.02,0.616
						c-0.006,0.188,0.039,0.37,0.063,0.545c0.03,0.171,0.047,0.318,0.1,0.452c0.035,0.14,0.071,0.248,0.093,0.346
						c0.061,0.189,0.094,0.288,0.094,0.288s-0.009-0.106-0.02-0.306c-0.013-0.099-0.024-0.215-0.035-0.353
						c-0.016-0.134,0-0.29-0.012-0.455c0-0.165-0.023-0.336-0.004-0.524c0.016-0.191,0.016-0.388,0.036-0.592
						c0.027-0.206,0.05-0.405,0.085-0.621c0.055-0.205,0.069-0.418,0.138-0.624c0.058-0.215,0.113-0.411,0.193-0.608
						c0.063-0.206,0.145-0.395,0.226-0.586c0.171-0.37,0.348-0.699,0.522-0.97c0.164-0.281,0.325-0.504,0.435-0.657
						C13.316,39.152,13.387,39.068,13.387,39.068z"/>
				</g>
				<g>
					<path style="fill:#A7A9AC;" d="M56.251,27.913c0,0-0.077-0.057-0.231-0.146c-0.152-0.099-0.373-0.223-0.647-0.353
						c-0.14-0.068-0.29-0.134-0.457-0.191c-0.162-0.066-0.325-0.141-0.515-0.183c-0.182-0.054-0.367-0.105-0.564-0.154
						c-0.186-0.05-0.389-0.074-0.586-0.115c-0.203-0.024-0.398-0.049-0.596-0.083c-0.197-0.023-0.395-0.018-0.581-0.023
						c-0.185,0-0.37,0-0.544-0.01c-0.172,0-0.334,0.027-0.48,0.052c-0.299,0.03-0.554,0.082-0.721,0.105
						c-0.174,0.024-0.267,0.05-0.267,0.05s0.097,0.008,0.271,0.024c0.172,0.018,0.426,0.042,0.717,0.049
						c0.146,0,0.305,0,0.473,0.023c0.17,0.028,0.344,0.042,0.529,0.059c0.18,0.018,0.371,0.035,0.563,0.059
						c0.193,0.033,0.382,0.058,0.58,0.089c0.189,0.033,0.383,0.059,0.573,0.109c0.187,0.03,0.379,0.072,0.558,0.105
						c0.182,0.043,0.348,0.09,0.51,0.132c0.162,0.041,0.326,0.068,0.456,0.116c0.292,0.089,0.535,0.14,0.698,0.216
						C56.159,27.883,56.251,27.913,56.251,27.913z"/>
				</g>
			</g>
			<g style="opacity:0.5;">
				<path style="fill:#A7A9AC;" d="M54.493,64.193c-1.108,5.942-4.78,12.38-4.78,12.38c16.329-3.094,18.38-20.109,18.38-20.109
					c0.93,3.012,0.286,4.987,0.286,4.987c3.969-6.74-0.116-16.239-0.116-16.239c-1.792-15.067-14.601-18.284-14.601-18.284
					c-2.633-4.546-13.189-9.881-27.683-6.342C10.049,24.488,8.555,35.396,8.555,35.396s-1.928,0.027-2.869,4.035
					c-0.96,4.114-3.485,3.138-3.485,3.138s0.365,1.363,1.681,1.233c1.58-0.171,2.593-1.079,2.593-1.079
					c-2.246,2.06-0.875,5.279-0.875,5.279c0.039-1.771,1.255-2.998,1.255-2.998s-0.523,3.291,0.704,5.622
					c1.22,2.329,4.677,3.818,4.677,3.818c-3-5.644-0.701-11.294-0.701-11.294c-0.217,1.967,0.5,4.588,0.605,3.871
					c0.606-4.259,5.702-7.509,5.849-7.015c1.157,3.638-0.797,6.495-0.441,6.364c4.652-1.706,5.066-8.438,5.176-8.249
					c2.078,3.803,0.514,5.656,0.792,5.474c2.752-1.859,1.15-5.228,1.511-4.916c4.018,3.409,2.605,8.044,2.859,7.622
					c2.094-3.357,0.631-8.064,0.902-7.48c4.084,8.817,11.909,9.112,11.412,8.793c-2.895-1.878-3.364-7.352-2.976-6.431
					c4.153,9.994,12.906,9.466,12.15,8.856c-3.251-2.607-3.268-8.346-3.268-8.346s5.201,5.096,6.924,11.325
					C54.749,59.253,54.493,64.193,54.493,64.193 M47.626,29.001c0,0,8.604-0.806,14.222,4.908c2.17,2.196-1.718,1.72-4.35,0.072
					c-1.221-0.774,5.521,4.158,5.923,11c0.284,5.012-4.072-4.841-7.91-7.574c-2.624-1.877,1.905,3.227,1.337,10.866
					c-0.195,2.541-4.682-10.104-12.814-12.391c-1.377-0.395-0.883,5.884,0.523,9.105c1.405,3.22-8.098-4.042-6.608-12.182
					c0,0-2.392,0.574-3.438,6.938c-0.797,4.891-6.437-3.934-4.188-8.487c0.464-0.931-4.459,1.218-3.945,5.698
					c0.209,1.818-3.631-0.997-2.156-4.858c0.448-1.195-3.106-0.716-6.094,3.755c-0.542,0.822-0.351-6.465,6.4-7.416
					c1.854-0.276-1.531-1.132-6.412-0.028c-2.67,0.609,0-4.896,9.646-4.207c-5.125-0.855-3.414-2.056,1.909-2.359
					c9.86-0.586,15.121,5.902,13.979,3.878c-1.537-2.717-3.646-3.731-4.132-3.862c-0.485-0.14,4.411-1.119,6.583,3.91
					c0.438,1.021,0.76,0.518,0.502-0.668C46.34,23.924,48.988,26.682,47.626,29.001z"/>
			</g>
			<g style="opacity:0.8;">
				<path style="fill:#A7A9AC;" d="M54.493,64.193c-1.108,5.942-4.78,12.38-4.78,12.38c16.329-3.094,18.38-20.109,18.38-20.109
					c0.93,3.012,0.286,4.987,0.286,4.987c3.969-6.74-0.116-16.239-0.116-16.239c-1.792-15.067-14.601-18.284-14.601-18.284
					c-2.633-4.546-13.189-9.881-27.683-6.342C10.049,24.488,8.555,35.396,8.555,35.396s-1.928,0.027-2.869,4.035
					c-0.96,4.114-3.485,3.138-3.485,3.138s0.365,1.363,1.681,1.233c1.58-0.171,2.593-1.079,2.593-1.079
					c-2.246,2.06-0.875,5.279-0.875,5.279c0.039-1.771,1.255-2.998,1.255-2.998s-0.523,3.291,0.704,5.622
					c1.22,2.329,4.677,3.818,4.677,3.818c-3-5.644-0.701-11.294-0.701-11.294c-0.217,1.967,0.5,4.588,0.605,3.871
					c0.606-4.259,5.702-7.509,5.849-7.015c1.157,3.638-0.797,6.495-0.441,6.364c4.652-1.706,5.066-8.438,5.176-8.249
					c2.078,3.803,0.514,5.656,0.792,5.474c2.752-1.859,1.15-5.228,1.511-4.916c4.018,3.409,2.605,8.044,2.859,7.622
					c2.094-3.357,0.631-8.064,0.902-7.48c4.084,8.817,11.909,9.112,11.412,8.793c-2.895-1.878-3.364-7.352-2.976-6.431
					c4.153,9.994,12.906,9.466,12.15,8.856c-3.251-2.607-3.268-8.346-3.268-8.346s5.201,5.096,6.924,11.325
					C54.749,59.253,54.493,64.193,54.493,64.193 M56.03,57.434c-1.685,1.613,0.151-9.942-10.278-17.591
					c-2.183-1.597-1.615,4.464,0.427,7.468c2.048,3.006-8.547-2.996-9.725-10.678c-0.302-1.978-1.745,4.733,0.468,8.132
					c2.222,3.403-7.162-2.445-8.172-9.029c-0.406-2.652-0.886,0.311-0.829,1.523c0.086,1.902,0.542,3.316,0.426,4.618
					c-0.097,1.034-0.832-3.624-3.96-5.031c-0.654-0.289,0.345,0.955,0.171,2.938c-0.171,1.982,0.058-1.679-2.444-3.392
					c-0.754-0.517,0.852,2.271-1.908,6.314c-0.674,0.972-0.112-2.231-1.522-4.319c-0.444-0.669-4.958,2.263-5.891,4.724
					c-0.929,2.477-1.162-2.584,1.785-5.193c0.692-0.61-4.901,1.678-5.069,9.129c-0.03,1.572,0.698,3.827,0.895,4.453
					c0.19,0.624-3.557-2.223-2.276-8.612c0.129-0.61-1.386,1.021-1.758,1.778c-0.362,0.756-0.571-1.161,1.115-3.21
					c0,0-1.513,1.706-3.711,1.441c0,0,2.384,0,2.853-4.2c0.24-2.112,2.35-2.903,3.073-2.758c0,0,0.45-5.316,5.784-9.745
					c5.342-4.412,19.192-6.917,26.404-5.18c6.3,1.518,9.511,5.808,6.442,6.688c0,0,7.503-0.076,13.046,4.641
					c3.316,2.823,5.141,7.894,1.617,6.051c-3.526-1.845,2.268,2.022,4.26,6.892c1.98,4.882,1.642,10.586-0.198,7.43
					c-1.832-3.157,1.393,3.352-2.838,11.182c-1.257,2.33,0.448-5.038-3.362-13.729c-0.881-2.034,0.37,1.627-0.803,4.396
					c-1.166,2.756-1.362,0.181-1.649-1.566C58.113,51.271,58.115,55.434,56.03,57.434z"/>
			</g>
			<path style="opacity:0.7;fill:#A7A9AC;" d="M38.468,31.529c0,0-0.229,8.569,6.089,13.459
				C44.557,44.988,36.854,41.34,38.468,31.529z"/>
			<path style="opacity:0.7;fill:#A7A9AC;" d="M31.849,30.351c0,0-1.957,5.532,1.137,9.708
				C32.986,40.059,28.526,36.68,31.849,30.351z"/>
			<path style="opacity:0.7;fill:#A7A9AC;" d="M29.285,30.213c0,0-3.992,1.613-3.33,6.337C25.955,36.55,23.733,31.018,29.285,30.213
				z"/>
			<path style="opacity:0.7;fill:#A7A9AC;" d="M43.964,34.748c0,0,7.728,3.094,11.257,10.939
				C55.221,45.688,52.818,35.999,43.964,34.748z"/>
			<path style="opacity:0.7;fill:#A7A9AC;" d="M38.703,29.609c0,0-5.183-3.761-9.895-2.724
				C28.808,26.886,34.387,23.854,38.703,29.609z"/>
			<path style="opacity:0.7;fill:#A7A9AC;" d="M45.578,32.22c0,0,6.031-0.644,9.957,2.067C59.465,36.985,53.639,28.986,45.578,32.22
				z"/>
			<path style="opacity:0.7;fill:#A7A9AC;" d="M60.599,45.721c0,0,4.048,6.561,3.433,14.382c0,0,2.42-2.717,1.619-8.619
				c-0.334-2.404-0.411-0.545-0.623,2.323C64.807,56.67,65.063,49.887,60.599,45.721z"/>
			<path style="opacity:0.7;fill:#A7A9AC;" d="M13.037,37.876c0,0-4.942,4.132-3.905,10.668c0,0-2.063-4.371,0.313-8.297
				c0,0-0.839,1.045-1.738,2.396c0,0,0.388-2.981,3.311-5.434c2.927-2.436-0.155,1.678-0.155,1.678s2.105-2.195,3.51-2.519
				C15.768,36.058,13.967,36.938,13.037,37.876z"/>
		</g>
		<g>
			<g>
				<path style="fill:#A7A9AC;" d="M48.842,21.361c-0.607,0.932-0.4,2.199,0.464,2.814c0.86,0.634,2.048,0.388,2.656-0.54
					c0.604-0.933,0.395-2.2-0.465-2.826C50.642,20.187,49.446,20.432,48.842,21.361z"/>
				<g>
					<path style="fill:#A7A9AC;" d="M48.617,21.361c-0.635,1.078-0.344,2.644,0.867,3.103c0.999,0.381,2.059,0.06,2.707-0.828
						c0.734-1.031,0.258-2.676-0.872-3.115C50.328,20.144,49.26,20.463,48.617,21.361c-0.065,0.092,0.363,0.115,0.453,0
						c0.754-1.045,2.028-0.98,2.729,0.074c0.438,0.658,0.314,1.549-0.063,2.2c-0.664,1.134-2.074,0.912-2.732-0.075
						c-0.434-0.668-0.317-1.557,0.066-2.199C49.132,21.255,48.687,21.229,48.617,21.361z"/>
				</g>
			</g>
			<g style="opacity:0.7;">
				<path style="fill:#A7A9AC;" d="M48.599,21.889c-0.016,0.521,0.196,1.014,0.614,1.326c0.666,0.469,1.568,0.287,2.03-0.422
					c0.46-0.706,0.3-1.679-0.354-2.155c-0.093-0.075-0.185-0.124-0.289-0.157c0.313,0.024,0.627,0.123,0.897,0.329
					c0.859,0.626,1.069,1.894,0.465,2.826c-0.608,0.928-1.796,1.174-2.656,0.54C48.594,23.666,48.342,22.728,48.599,21.889z"/>
			</g>
			<path style="fill:#A7A9AC;" d="M49.303,21.635c-0.047,0.552,0.297,1.034,0.759,1.076c0.468,0.041,0.874-0.378,0.921-0.922
				c0.047-0.56-0.295-1.045-0.758-1.08C49.756,20.662,49.35,21.084,49.303,21.635z"/>
			<g>
				<path style="fill:#A7A9AC;" d="M56.604,25.421c-0.723,1.119-0.48,2.635,0.557,3.392c1.038,0.75,2.467,0.462,3.202-0.669
					c0.731-1.109,0.468-2.641-0.559-3.392C58.768,23.996,57.34,24.3,56.604,25.421z"/>
				<g>
					<path style="fill:#A7A9AC;" d="M56.383,25.345c-1.711,2.892,2.326,5.502,4.18,2.899c0.884-1.234,0.351-2.899-0.797-3.646
						c-1.125-0.743-2.594-0.355-3.363,0.717c-0.094,0.129,0.336,0.305,0.41,0.195c0.801-1.11,2.258-1.48,3.236-0.336
						c0.638,0.75,0.615,1.86,0.205,2.717c-0.646,1.325-2.385,1.605-3.336,0.502c-0.697-0.813-0.604-2.034-0.086-2.907
						C56.885,25.396,56.464,25.209,56.383,25.345z"/>
				</g>
			</g>
			<g style="opacity:0.7;">
				<path style="fill:#A7A9AC;" d="M56.313,26.021c-0.046,0.661,0.216,1.301,0.745,1.695c0.811,0.592,1.921,0.355,2.491-0.512
					c0.569-0.87,0.379-2.055-0.431-2.641c-0.131-0.105-0.279-0.164-0.422-0.223c0.387,0.025,0.768,0.165,1.106,0.411
					c1.026,0.751,1.29,2.282,0.559,3.392c-0.735,1.131-2.164,1.419-3.202,0.669C56.309,28.185,55.982,27.04,56.313,26.021z"/>
			</g>
			<path style="fill:#A7A9AC;" d="M57.432,26.095c-0.051,0.667,0.36,1.237,0.918,1.291c0.561,0.052,1.061-0.451,1.107-1.116
				c0.057-0.667-0.354-1.243-0.911-1.303C57.985,24.916,57.49,25.421,57.432,26.095z"/>
			<g>
				<path style="fill:#A7A9AC;" d="M52.347,22.234c-1.264,1.169-1.415,3.169-0.343,4.472c1.072,1.308,2.969,1.431,4.227,0.27
					c1.268-1.161,1.418-3.169,0.349-4.47C55.5,21.195,53.61,21.084,52.347,22.234z"/>
				<g>
					<path style="fill:#A7A9AC;" d="M52.137,22.211c-1.444,1.448-1.422,3.795,0.21,5.087c1.222,0.962,2.969,0.651,4.092-0.298
						c1.569-1.333,1.326-3.874-0.208-5.088C55.004,20.96,53.271,21.262,52.137,22.211c-0.128,0.112,0.32,0.13,0.413,0.049
						c1.528-1.276,3.552-0.652,4.31,1.183c0.512,1.228,0.041,2.629-0.829,3.51c-1.44,1.432-3.593,0.543-4.313-1.18
						c-0.505-1.225-0.038-2.634,0.833-3.513C52.678,22.136,52.23,22.129,52.137,22.211z"/>
				</g>
			</g>
			<g style="opacity:0.7;">
				<path style="fill:#A7A9AC;" d="M51.726,23.025c-0.308,0.869-0.183,1.884,0.433,2.624c0.896,1.087,2.479,1.195,3.535,0.222
					c1.051-0.962,1.179-2.633,0.283-3.727c-0.168-0.191-0.35-0.355-0.547-0.485c0.426,0.164,0.825,0.452,1.149,0.847
					c1.069,1.301,0.919,3.309-0.349,4.47c-1.258,1.161-3.154,1.038-4.227-0.27C51.141,25.66,51.072,24.17,51.726,23.025z"/>
			</g>
			<path style="fill:#A7A9AC;" d="M52.329,23.272c-0.274,0.815,0.069,1.694,0.757,1.942c0.692,0.264,1.47-0.199,1.736-1.021
				c0.274-0.822-0.065-1.695-0.755-1.942C53.383,21.987,52.601,22.457,52.329,23.272z"/>
		</g>
	</g>
</g>
<g id="Layer_1">
</g>
</svg>
