<?xml version="1.0" encoding="iso-8859-1"?>
<!-- Generator: Adobe Illustrator 15.0.0, SVG Export Plug-In . SVG Version: 6.00 Build 0)  -->
<!DOCTYPE svg PUBLIC "-//W3C//DTD SVG 1.1//EN" "http://www.w3.org/Graphics/SVG/1.1/DTD/svg11.dtd">
<svg version="1.1" xmlns="http://www.w3.org/2000/svg" xmlns:xlink="http://www.w3.org/1999/xlink" x="0px" y="0px" width="80px"
	 height="80px" viewBox="0 0 80 80" style="enable-background:new 0 0 80 80;" xml:space="preserve">
<g id="ico-hair-girl-3">
	<g>
		<defs>
			<rect id="SVGID_1_" width="80" height="80"/>
		</defs>
		<clipPath id="SVGID_2_">
			<use xlink:href="#SVGID_1_"  style="overflow:visible;"/>
		</clipPath>
		<g style="clip-path:url(#SVGID_2_);">
			<path style="fill:none;" d="M59.746,0H20.254C9.068,0,0,9.066,0,20.253v39.493C0,70.932,9.068,80,20.254,80h39.492
				C70.933,80,80,70.932,80,59.746V20.253C80,9.066,70.933,0,59.746,0z"/>
		</g>
	</g>
	<g>
		<g>
			<path style="fill:#A7A9AC;" d="M19.435,25.31c0,0,7.381-14.419,19.947-4.921C50.502,8.96,62,25.31,62,25.31
				s2.038-7.002-1.657-12.178C56.648,7.955,46.962,0.633,37.022,3.537c-9.94,2.903-18.98,11.119-18.479,15.907
				C19.224,25.946,19.435,25.31,19.435,25.31z"/>
		</g>
		<g>
			<g>
				<path style="fill:#A7A9AC;" d="M20.595,19.965c0,0,11.041-14.757,19.777-9.49C48.104,4.138,60.87,20.655,60.87,20.655
					s-3.945-6.866-6.515-9.735c-2.57-2.869-9.305-6.93-16.216-5.319s-10.521,7.292-12.848,8.818
					C22.737,16.096,20.595,19.965,20.595,19.965z"/>
			</g>
		</g>
	</g>
	<g>
		<path style="fill:#BCBEC0;" d="M19.444,37.238c-2.186,1.833-5.104,6.153-2.542,15.464c3.81,13.843-6.013,23.483-6.013,23.483
			s23.949-8.903,18.644-25.44C23.913,48.119,19.966,43.104,19.444,37.238z"/>
		<path style="fill:#BCBEC0;" d="M24.725,13.302c-0.007-0.003-0.02-0.011-0.02-0.011s-0.02-0.303,0.28-0.884l-0.001-0.001
			c0.212-0.493,0.324-1.176,0.418-1.856l0.03-0.215c0.158-1.073,0.085-1.978-0.223-2.762c-0.152-0.39-0.41-0.764-0.745-1.085
			c-0.631-0.604-1.469-0.952-2.24-0.933c-0.637,0.017-1.208,0.274-1.649,0.746c-1.128,1.204-0.436,2.923,0.559,4.387
			c-1.537-0.96-3.348-1.637-4.64-0.588c-0.508,0.411-0.79,0.946-0.816,1.546c-0.032,0.734,0.337,1.544,0.988,2.167
			c0.399,0.381,0.866,0.66,1.352,0.809c0.788,0.239,1.697,0.271,2.86,0.1c0.085-0.012,0.189-0.025,0.307-0.04
			c0.931-0.119,1.796-0.256,2.217-0.606l0.346,0.33C24.053,14.027,24.377,13.657,24.725,13.302z M21.163,6.794
			c0.298-0.319,0.663-0.486,1.082-0.497c0.558-0.014,1.178,0.252,1.659,0.713c0.257,0.246,0.454,0.53,0.568,0.819
			c0.262,0.669,0.322,1.455,0.182,2.404l-0.031,0.221c-0.04,0.293-0.124,0.896-0.256,1.362l-0.79-0.757l-0.684,0.636
			C21.681,10.288,20.025,8.007,21.163,6.794z M21.079,13.946c-0.124,0.017-0.233,0.029-0.323,0.043
			c-1.038,0.152-1.831,0.13-2.499-0.074c-0.36-0.108-0.727-0.329-1.033-0.623c-0.5-0.478-0.785-1.082-0.763-1.615
			c0.018-0.395,0.201-0.735,0.544-1.015c1.302-1.058,3.695,0.536,5.171,1.7l-0.288,0.268l0.956,0.914
			C22.538,13.759,21.526,13.89,21.079,13.946z"/>
	</g>
	<g>
		<path style="fill:#BCBEC0;" d="M61.333,35.983c2.185,1.833,5.104,6.151,2.541,15.463c-3.81,13.843,6.014,23.483,6.014,23.483
			s-23.95-8.903-18.644-25.44C56.864,46.864,60.811,41.847,61.333,35.983z"/>
	</g>
	<g>
		<g>
			<g>
				<path style="fill:#E6E7E8;" d="M22.77,19.47c0,0,10.22-8.45,18.306-5.436c7.155-3.628,18.973,5.83,18.973,5.83
					s-3.651-3.931-6.03-5.574s-8.611-3.968-15.008-3.046c-6.397,0.922-9.739,4.175-11.893,5.05
					C24.753,17.254,22.77,19.47,22.77,19.47z"/>
			</g>
		</g>
	</g>
</g>
<g id="Layer_1">
</g>
</svg>
