<?xml version="1.0" encoding="iso-8859-1"?>
<!-- Generator: Adobe Illustrator 15.0.0, SVG Export Plug-In . SVG Version: 6.00 Build 0)  -->
<!DOCTYPE svg PUBLIC "-//W3C//DTD SVG 1.1//EN" "http://www.w3.org/Graphics/SVG/1.1/DTD/svg11.dtd">
<svg version="1.1" xmlns="http://www.w3.org/2000/svg" xmlns:xlink="http://www.w3.org/1999/xlink" x="0px" y="0px"
	 width="79.999px" height="80px" viewBox="0 0 79.999 80" style="enable-background:new 0 0 79.999 80;" xml:space="preserve">
<g id="ico-hair-girl-5">
	<g>
		<defs>
			<rect id="SVGID_1_" width="79.999" height="80"/>
		</defs>
		<clipPath id="SVGID_2_">
			<use xlink:href="#SVGID_1_"  style="overflow:visible;"/>
		</clipPath>
		<g style="clip-path:url(#SVGID_2_);">
			<path style="fill:none;" d="M59.746,0H20.253C9.067,0,0,9.066,0,20.253v39.493C0,70.932,9.067,80,20.253,80h39.493
				c11.186,0,20.253-9.068,20.253-20.254V20.253C79.999,9.066,70.932,0,59.746,0z"/>
		</g>
	</g>
	<g>
		<path style="fill:#A7A9AC;" d="M56.621,6.876C44.439,0.833,28.271,5.39,25.445,9.781C22.403,10.104,7.885,14.88,4.131,29.853
			c-3.75,14.971,6.955,24.114,6.955,24.114s0.503-3.542,0.636-7.492c3.695-3.873,9.183-13.263,9.169-19.002
			c5.265,11.578,31.983,8.872,37.019,5.81c6.686,7.604,11.405,25.334,5.136,42.787c12.577-5.665,15.073-24.85,13.361-38.419
			C74.691,24.08,68.958,12.992,56.621,6.876z"/>
		<path style="fill:#A7A9AC;" d="M57.854,33.581c-0.842,0.471-2.164,0.927-3.841,1.326c-9.182,2.181-27.846,2.386-32.934-6.543
			c-0.493,5.785-5.551,14.413-9.13,18.203c-0.139,3.878-0.634,7.393-0.639,7.428c-0.01,0.084-0.069,0.159-0.146,0.194
			c-0.078,0.037-0.166,0.021-0.23-0.034C10.825,54.063,0.164,44.743,3.908,29.8C7.916,13.813,23.66,9.905,24.325,9.747
			c0.378-0.09,0.717-0.155,0.997-0.192c1.313-1.911,4.927-3.764,9.49-4.847C42.426,2.9,50.619,3.631,56.728,6.662
			c11.486,5.69,17.996,15.815,19.907,30.947 M60.142,67.222 M76.179,37.691c-1.892-14.967-8.324-24.977-19.665-30.601
			C50.493,4.104,42.412,3.39,34.896,5.174c-4.457,1.059-8.09,2.914-9.258,4.732c-0.042,0.062-0.107,0.103-0.178,0.111
			c-0.279,0.026-0.641,0.098-1.051,0.195C23.756,10.368,8.287,14.211,4.352,29.9C1.05,43.083,9.182,51.81,10.918,53.487
			c0.137-1.082,0.471-3.94,0.574-7.011c0.002-0.063,0.026-0.122,0.069-0.167c3.719-3.893,9.111-13.165,9.1-18.827
			c-0.004-0.11,0.074-0.211,0.18-0.241c0.108-0.025,0.208,0.022,0.256,0.124c4.316,9.487,23.514,9.288,32.831,7.076
			c1.746-0.414,3.085-0.884,3.872-1.365c0.023-0.013,0.044-0.022,0.067-0.026c0.078-0.02,0.159,0.003,0.216,0.066"/>
	</g>
	<path style="fill:#D1D3D4;" d="M21.65,23.813c0,0,14.493,18.264,35.321,6.225c2.877-2.523-10.061,4.058-18.276-0.588
		c-8.214-4.646,9.756-1.658,4.481-7.496c-5.275-5.83,9.23,0.6,4.792-6.479c-4.44-7.077-0.317-4.423,8.087,1.971
		c8.403,6.391-9.166-19.053-29.283-6.389c-3.218,1.983,10.785,1.113,5.553,3.904c-5.231,2.79,9.243,10.827-0.208,7.815
		C22.668,19.764,43.441,34.132,21.65,23.813z"/>
	<path style="fill:#D1D3D4;" d="M18.882,21.984c0,0-2.795,13.359-8.415,21.176c-2.483,3.226,2.752-6.688,2.77-10.405
		c0.019-3.717-4.874,7.81-3.538,0.97c1.331-6.84-3.271-2.497-4.072,3.037C4.832,42.294,1.909,29.003,17.891,16.5
		c2.32-1.737-4.517,4.935-5.914,8.611c-1.394,3.674,4.875-7.429,3.749-1.21C14.598,30.121,15.791,27.83,18.882,21.984z"/>
</g>
<g id="Layer_1">
</g>
</svg>
