<?xml version="1.0" encoding="iso-8859-1"?>
<!-- Generator: Adobe Illustrator 15.0.0, SVG Export Plug-In . SVG Version: 6.00 Build 0)  -->
<!DOCTYPE svg PUBLIC "-//W3C//DTD SVG 1.1//EN" "http://www.w3.org/Graphics/SVG/1.1/DTD/svg11.dtd">
<svg version="1.1" xmlns="http://www.w3.org/2000/svg" xmlns:xlink="http://www.w3.org/1999/xlink" x="0px" y="0px" width="80px"
	 height="80px" viewBox="0 0 80 80" style="enable-background:new 0 0 80 80;" xml:space="preserve">
<g id="ico-hair-girl-1">
	<g>
		<defs>
			<rect id="SVGID_1_" width="80" height="80"/>
		</defs>
		<clipPath id="SVGID_2_">
			<use xlink:href="#SVGID_1_"  style="overflow:visible;"/>
		</clipPath>
		<g style="clip-path:url(#SVGID_2_);">
			<path style="fill:none;" d="M59.746,0H20.253C9.068,0,0,9.066,0,20.253v39.493C0,70.932,9.068,80,20.253,80h39.493
				C70.932,80,80,70.932,80,59.746V20.253C80,9.066,70.932,0,59.746,0z"/>
		</g>
	</g>
	<path style="fill:#E6E7E8;" d="M35.61,63.313h0.004c-8.706-7.195-9.513-24.393-9.513-24.393c-3.016-0.08-1.682-0.958-1.682-0.958
		c1.532-1.94,3.53-3.53,5.706-4.829C28.545,40.688,27.137,54.699,35.61,63.313z"/>
	<g style="opacity:0.33;">
		<path style="fill:#A7A9AC;" d="M24.418,37.962c0.647-0.821,1.382-1.579,2.18-2.278c-0.409,10.939,3.62,19.621,2.077,13.087
			c-1.139-4.862-0.704-10.744-0.198-14.57c0.535-0.374,1.088-0.728,1.647-1.067c-1.579,7.556-2.988,21.566,5.485,30.18h0.004
			c-8.706-7.195-9.513-24.393-9.513-24.393C23.085,38.84,24.418,37.962,24.418,37.962z"/>
	</g>
	<path style="fill:#939598;" d="M69.104,46.172c-0.02-8.142-1.891-14.903-2.898-17.965c0.966,0.192,1.854,0.405,2.666,0.623
		c0.936,3.904,1.895,9.618,1.718,16.186C69.644,45.358,69.104,46.172,69.104,46.172z"/>
	
		<radialGradient id="SVGID_3_" cx="-437.3667" cy="1297.9121" r="0.7063" gradientTransform="matrix(-3.3412 -0.2203 -0.1806 4.0746 -1200.9603 -5345.0044)" gradientUnits="userSpaceOnUse">
		<stop  offset="0.1902" style="stop-color:#6B331F"/>
		<stop  offset="0.4391" style="stop-color:#6A321D"/>
		<stop  offset="0.587" style="stop-color:#5E2A19"/>
		<stop  offset="0.8466" style="stop-color:#43180D"/>
	</radialGradient>
	<path style="fill:url(#SVGID_3_);" d="M24.418,37.962c0.503-0.637,1.059-1.229,1.651-1.791c-0.011,1.668,0.031,2.749,0.031,2.749
		C23.085,38.84,24.418,37.962,24.418,37.962z"/>
	<path style="fill:#E82D50;" d="M24.64,28.399c0.023-0.06,0.047-0.128,0.063-0.199l-0.248-0.107l-0.06,0.179L24.64,28.399z"/>
	
		<radialGradient id="SVGID_4_" cx="-441.8477" cy="1295.0322" r="1.227" gradientTransform="matrix(-3.3412 -0.2203 -0.1806 4.0746 -1200.9603 -5345.0044)" gradientUnits="userSpaceOnUse">
		<stop  offset="0.0613" style="stop-color:#411A11"/>
		<stop  offset="0.2656" style="stop-color:#673B27"/>
		<stop  offset="0.5421" style="stop-color:#AA6E3F"/>
		<stop  offset="0.6334" style="stop-color:#9C6138"/>
		<stop  offset="0.8146" style="stop-color:#7B4227"/>
		<stop  offset="0.8973" style="stop-color:#6B331F"/>
	</radialGradient>
	<path style="fill:url(#SVGID_4_);" d="M35.744,30.528c-0.006-0.009-0.01-0.026-0.015-0.041c4.908-1.841,9.607-2.575,11.367-2.802
		c0,0.013,0.004,0.029,0.004,0.044C45.344,27.957,40.652,28.689,35.744,30.528z"/>
	
		<radialGradient id="SVGID_5_" cx="-439.0557" cy="1295.9531" r="0.4138" gradientTransform="matrix(-3.3412 -0.2203 -0.1806 4.0746 -1200.9603 -5345.0044)" gradientUnits="userSpaceOnUse">
		<stop  offset="0.0613" style="stop-color:#411A11"/>
		<stop  offset="0.2656" style="stop-color:#673B27"/>
		<stop  offset="0.5421" style="stop-color:#AA6E3F"/>
		<stop  offset="0.6334" style="stop-color:#9C6138"/>
		<stop  offset="0.8146" style="stop-color:#7B4227"/>
		<stop  offset="0.8973" style="stop-color:#6B331F"/>
	</radialGradient>
	<path style="fill:url(#SVGID_5_);" d="M33.711,31.307c0.003,0.013,0.007,0.026,0.011,0.043c-1.225,0.531-2.438,1.138-3.598,1.831
		h-0.007c0.003-0.012,0.003-0.031,0.007-0.048C31.284,32.447,32.494,31.843,33.711,31.307z"/>
	
		<radialGradient id="SVGID_6_" cx="-449.0947" cy="1294.4023" r="0.1039" gradientTransform="matrix(-3.3412 -0.2203 -0.1806 4.0746 -1200.9603 -5345.0044)" gradientUnits="userSpaceOnUse">
		<stop  offset="0.0613" style="stop-color:#411A11"/>
		<stop  offset="0.2656" style="stop-color:#673B27"/>
		<stop  offset="0.5421" style="stop-color:#AA6E3F"/>
		<stop  offset="0.6334" style="stop-color:#9C6138"/>
		<stop  offset="0.8146" style="stop-color:#7B4227"/>
		<stop  offset="0.8973" style="stop-color:#6B331F"/>
	</radialGradient>
	<path style="fill:url(#SVGID_6_);" d="M65.262,28.073c0-0.018-0.003-0.033-0.003-0.048c0.325,0.06,0.64,0.119,0.946,0.182
		c0.008,0.012,0.012,0.031,0.019,0.048c-0.007-0.004-0.011-0.004-0.019-0.004C65.898,28.183,65.584,28.128,65.262,28.073z"/>
	
		<radialGradient id="SVGID_7_" cx="1903.6152" cy="-2362.1909" r="10.1347" fx="1899.8772" fy="-2363.0027" gradientTransform="matrix(-3.2576 0.9317 0.9112 4.7394 8380.5762 9463.7666)" gradientUnits="userSpaceOnUse">
		<stop  offset="0" style="stop-color:#E2A15D"/>
		<stop  offset="0.0435" style="stop-color:#D59658"/>
		<stop  offset="0.1144" style="stop-color:#BB804D"/>
		<stop  offset="0.204" style="stop-color:#955F3C"/>
		<stop  offset="0.3076" style="stop-color:#663925"/>
		<stop  offset="0.3906" style="stop-color:#43180D"/>
		<stop  offset="0.4039" style="stop-color:#4C2013"/>
		<stop  offset="0.441" style="stop-color:#62321F"/>
		<stop  offset="0.4761" style="stop-color:#733E26"/>
		<stop  offset="0.5079" style="stop-color:#7E462A"/>
		<stop  offset="0.5337" style="stop-color:#82492B"/>
		<stop  offset="0.5766" style="stop-color:#8C5331"/>
		<stop  offset="0.6512" style="stop-color:#AB6E41"/>
		<stop  offset="0.7405" style="stop-color:#E2A15D"/>
		<stop  offset="0.7789" style="stop-color:#DA9A5A"/>
		<stop  offset="0.8218" style="stop-color:#CB8D52"/>
		<stop  offset="0.8669" style="stop-color:#B37847"/>
		<stop  offset="0.9135" style="stop-color:#955E37"/>
		<stop  offset="0.9608" style="stop-color:#724025"/>
		<stop  offset="0.9961" style="stop-color:#572815"/>
	</radialGradient>
	<path style="fill:url(#SVGID_7_);" d="M18.828,53.171c-1.298,5.892-3.919,8.894-6.128,10.42c-2.371-3.154-4.512-7.269-6.231-12.616
		c0,0,6.725,5.108,9.672-12.693c1.92-11.609,4.773-17.405,6.438-19.967c0,0,0.271-0.496,0.813-1.306
		c0.063-0.087,0.131-0.184,0.199-0.287c-0.03,0.056-3.198,6.124,0.984,11.431c0,0-1.895,5.398-0.449,10.154h0.021
		c-0.108,0.263,0.103,0.604,1.953,0.656c0,0,0.755,16.148,8.722,23.7c0.232,0.264,0.471,0.521,0.719,0.772l0,0
		c2.666,2.203,6.071,3.467,10.416,3.018c0,0,0,0.006-0.005,0.01c0,0,0,0.004-0.003,0.009c-0.011,0.025-0.034,0.076-0.06,0.141l0,0
		c-0.164,0.343-0.614,1.2-1.467,2.179c-0.245,0.276-0.518,0.554-0.824,0.839c-0.647,0.588-1.438,1.183-2.404,1.704l0,0
		c0.02,0.004,0.038,0.004,0.057,0.007c-0.041,0.025-0.08,0.049-0.125,0.068l0,0l0,0c0,0-3.196,1.416-7.752,1.757
		c-2.319-1.374-5.728-4.473-6.913-11.179c0,0,0.121,6.141,3.173,11.188c-4.958-0.35-10.751-2.308-15.729-8.082
		C17.978,60.878,18.828,53.171,18.828,53.171z"/>
	<path style="fill:#D1D3D4;" d="M18.828,53.171c-1.298,5.892-3.919,8.894-6.128,10.42c-2.371-3.154-4.512-7.269-6.231-12.616
		c0,0,6.725,5.108,9.672-12.693c1.92-11.609,4.773-17.405,6.438-19.967c0,0,0.271-0.496,0.813-1.306
		c0.063-0.087,0.131-0.184,0.199-0.287c-0.03,0.056-3.198,6.124,0.984,11.431c0,0-1.895,5.398-0.449,10.154h0.021
		c-0.108,0.263,0.103,0.604,1.953,0.656c0,0,0.755,16.148,8.722,23.7c0.232,0.264,0.471,0.521,0.719,0.772l0,0
		c2.666,2.203,6.071,3.467,10.416,3.018c0,0,0,0.006-0.005,0.01c0,0,0,0.004-0.003,0.009c-0.011,0.025-0.034,0.076-0.06,0.141l0,0
		c-0.164,0.343-0.614,1.2-1.467,2.179c-0.245,0.276-0.518,0.554-0.824,0.839c-0.647,0.588-1.438,1.183-2.404,1.704l0,0
		c0.02,0.004,0.038,0.004,0.057,0.007c-0.041,0.025-0.08,0.049-0.125,0.068l0,0l0,0c0,0-3.196,1.416-7.752,1.757
		c-2.319-1.374-5.728-4.473-6.913-11.179c0,0,0.121,6.141,3.173,11.188c-4.958-0.35-10.751-2.308-15.729-8.082
		C17.978,60.878,18.828,53.171,18.828,53.171z"/>
	<path style="fill:none;" d="M20.51,19.896c-0.114,0.112-0.236,0.231-0.369,0.368c0.038-0.058,0.072-0.122,0.106-0.178
		C20.34,20.019,20.428,19.959,20.51,19.896z"/>
	<path style="fill:none;" d="M20.51,19.896C21.344,19.093,21.654,19.041,20.51,19.896L20.51,19.896z"/>
	
		<radialGradient id="SVGID_8_" cx="-435.1934" cy="1293.2031" r="5.6756" gradientTransform="matrix(-3.3412 -0.2203 -0.1806 4.0746 -1200.9603 -5345.0044)" gradientUnits="userSpaceOnUse">
		<stop  offset="0.0613" style="stop-color:#411A11"/>
		<stop  offset="0.2656" style="stop-color:#673B27"/>
		<stop  offset="0.5421" style="stop-color:#AA6E3F"/>
		<stop  offset="0.6334" style="stop-color:#9C6138"/>
		<stop  offset="0.8146" style="stop-color:#7B4227"/>
		<stop  offset="0.8973" style="stop-color:#6B331F"/>
	</radialGradient>
	<path style="fill:url(#SVGID_8_);" d="M19.667,20.071C19.866,19.974,19.889,19.974,19.667,20.071L19.667,20.071z"/>
	
		<radialGradient id="SVGID_9_" cx="1205.2656" cy="4163.4424" r="14.5842" fx="1204.0306" fy="4163.459" gradientTransform="matrix(-3.3151 0.555 0.2891 2.5659 2840.6682 -11323.082)" gradientUnits="userSpaceOnUse">
		<stop  offset="0" style="stop-color:#E2A15D"/>
		<stop  offset="0.0654" style="stop-color:#DA9A5A"/>
		<stop  offset="0.1448" style="stop-color:#C98B51"/>
		<stop  offset="0.2315" style="stop-color:#AF7445"/>
		<stop  offset="0.3233" style="stop-color:#8E5834"/>
		<stop  offset="0.4181" style="stop-color:#693820"/>
		<stop  offset="0.4645" style="stop-color:#572815"/>
		<stop  offset="0.4874" style="stop-color:#5A2B17"/>
		<stop  offset="0.5175" style="stop-color:#65331D"/>
		<stop  offset="0.5515" style="stop-color:#774126"/>
		<stop  offset="0.5676" style="stop-color:#82492B"/>
		<stop  offset="0.5999" style="stop-color:#8C5331"/>
		<stop  offset="0.6563" style="stop-color:#AB6E41"/>
		<stop  offset="0.7239" style="stop-color:#E2A15D"/>
		<stop  offset="0.8466" style="stop-color:#43180D"/>
	</radialGradient>
	<path style="fill:url(#SVGID_9_);" d="M24.576,28.152c0.525-1.957,1.404-3.062,1.404-3.062S25.101,26.195,24.576,28.152
		c-4.183-5.307-1.014-11.375-0.984-11.431c2.687-3.889,10.726-13.557,24.029-13.05c16.628,0.631,20.888,13.552,20.888,13.552
		c-3.498-3.84-8.092-5.565-8.092-5.565s4.594,1.726,8.092,5.565c0.191,0.21,0.379,0.371,0.561,0.494
		c1.631,1.541,6.298,6.601,6.794,14.606c0,0-0.003,0.063-0.02,0.16c-0.049-0.429-0.39-0.993-1.489-1.604
		c-0.865-0.48-2.744-1.279-5.482-2.009c-0.809-0.215-1.691-0.425-2.647-0.617c-0.007-0.017-0.011-0.036-0.019-0.048
		c-0.307-0.063-0.621-0.122-0.946-0.182c-0.239-2.359-1.166-7.437-4.774-10.332c0,0,2.85,3.484,2.83,10.021
		c-4.023-0.578-8.977-0.807-14.691-0.201c-0.377-2.199-0.736-6.049,0.284-10.034c0,0-2.589,1.498-1.812,10.206
		c-1.76,0.227-6.459,0.961-11.367,2.802c-0.846-1.785-2.059-5.667-0.22-11.034c0,0-3.34,3.2-1.797,11.854
		c-1.217,0.536-2.427,1.141-3.587,1.826c-0.004,0.017-0.004,0.036-0.007,0.048c-1.752,1.046-3.373,2.279-4.741,3.722
		c-0.078,0.088-0.157,0.174-0.235,0.255c-0.075,0.088-0.15,0.171-0.229,0.257c-0.171,0.199-0.336,0.392-0.494,0.596
		c0,0-0.199,0.128-0.271,0.297h-0.021c-1.292-4.257,0.089-9.022,0.393-9.979C24.542,28.271,24.56,28.217,24.576,28.152z"/>
	<path style="fill:#A7A9AC;" d="M24.576,28.711c0.525-1.957,1.404-3.062,1.404-3.062S25.101,26.754,24.576,28.711
		c-4.183-5.307-1.014-11.375-0.984-11.431c2.687-3.89,10.726-13.556,24.029-13.05c16.628,0.631,20.888,13.552,20.888,13.552
		c-3.498-3.84-8.092-5.565-8.092-5.565s4.594,1.726,8.092,5.565c0.191,0.21,0.379,0.37,0.561,0.494
		c1.631,1.541,6.298,6.601,6.794,14.606c0,0-0.003,0.063-0.02,0.16c-0.049-0.429-0.39-0.993-1.489-1.604
		c-0.865-0.48-2.744-1.279-5.482-2.009c-0.809-0.215-1.691-0.425-2.647-0.617c-0.007-0.017-0.011-0.036-0.019-0.047
		c-0.307-0.063-0.621-0.122-0.946-0.183c-0.239-2.359-1.166-7.437-4.774-10.332c0,0,2.85,3.484,2.83,10.021
		c-4.023-0.578-8.977-0.807-14.691-0.2c-0.377-2.199-0.736-6.05,0.284-10.035c0,0-2.589,1.498-1.812,10.206
		c-1.76,0.227-6.459,0.961-11.367,2.802c-0.846-1.785-2.059-5.667-0.22-11.034c0,0-3.34,3.199-1.797,11.854
		c-1.217,0.536-2.427,1.141-3.587,1.825c-0.004,0.018-0.004,0.037-0.007,0.05c-1.752,1.045-3.373,2.278-4.741,3.721
		c-0.078,0.088-0.157,0.175-0.235,0.255c-0.075,0.088-0.15,0.172-0.229,0.257c-0.171,0.199-0.336,0.392-0.494,0.596
		c0,0-0.199,0.128-0.271,0.298h-0.021c-1.292-4.258,0.089-9.023,0.393-9.979C24.542,28.831,24.56,28.775,24.576,28.711z"/>
	
		<radialGradient id="SVGID_10_" cx="3308.7871" cy="-2461.5737" r="1.8478" gradientTransform="matrix(-2.959 1.9057 1.1383 2.6291 12665.2051 201.6653)" gradientUnits="userSpaceOnUse">
		<stop  offset="0.1902" style="stop-color:#6B331F"/>
		<stop  offset="0.4391" style="stop-color:#6A321D"/>
		<stop  offset="0.587" style="stop-color:#5E2A19"/>
		<stop  offset="0.8466" style="stop-color:#43180D"/>
	</radialGradient>
	<path style="fill:url(#SVGID_10_);" d="M68.871,28.83c2.74,0.728,4.617,1.521,5.484,2.009c1.266,0.703,1.524,1.344,1.494,1.782
		c-0.052,0.171-0.134,0.379-0.27,0.623c-0.523,0.941-1.835,2.365-5.113,3.548l-0.211,0.079C69.92,33.742,69.396,31.004,68.871,28.83
		z"/>
	<g>
		<path style="fill:#BCBEC0;" d="M68.871,28.83c2.74,0.728,4.617,1.521,5.484,2.009c1.266,0.703,1.524,1.344,1.494,1.782
			c-0.052,0.171-0.134,0.379-0.27,0.623c-0.523,0.941-1.835,2.365-5.113,3.548l-0.211,0.079
			C69.92,33.742,69.396,31.004,68.871,28.83z"/>
	</g>
	<g>
		<path style="opacity:0.28;fill:#9E5F26;" d="M49.631,15.956c2.723-1.472,1.029-0.033,1.029-0.033
			c-2.221,3.995-1.445,7.686-1.1,11.496c-0.312,0.032-0.621,0.063-0.938,0.095c-0.377-2.199-0.736-6.049,0.284-10.034
			c0,0-2.589,1.498-1.812,10.206c-0.202,0.029-0.449,0.06-0.73,0.1C45.316,21.45,47.541,17.082,49.631,15.956z"/>
		<path style="opacity:0.28;fill:#9E5F26;" d="M41.338,23.232c-0.104,1.916,0.115,3.735,0.539,5.414
			c-0.24,0.056-1.067,0.262-1.319,0.325C40.492,24.501,41.338,23.232,41.338,23.232z"/>
		<path style="opacity:0.28;fill:#9E5F26;" d="M55.236,17.816c0.063,3.319,0.609,7.123,0.973,9.348
			c-0.322-0.005-0.652-0.009-0.985-0.005C54.557,19.986,55.236,17.816,55.236,17.816z"/>
		<path style="opacity:0.28;fill:#9E5F26;" d="M24.52,28.328c-0.304,0.956-1.686,5.722-0.393,9.979h0.021
			c0.072-0.169,0.271-0.297,0.271-0.297c0.157-0.204,0.323-0.396,0.494-0.596c0.079-0.086,0.154-0.169,0.229-0.257
			c0.061-0.067,0.124-0.135,0.192-0.203c-0.696-5.294,0.972-10.196,2.357-11.47c2.064-1.902,0.11-0.562-0.324,7.231
			c-0.042,0.776-0.009,1.549,0.078,2.306c0.572-0.455,1.171-0.881,1.789-1.282c-1.05-8.723,4.535-15.247,3.362-10.361
			c-0.778,3.248-0.539,6.431-0.201,8.54c0.438-0.211,0.877-0.42,1.318-0.611c-1.542-8.653,1.797-11.854,1.797-11.854
			c-1.839,5.367-0.626,9.249,0.22,11.034c0.29-0.104,0.581-0.206,0.869-0.311c-0.816-0.877-0.997-2.707-1-4.449
			c-0.015-6.088,4.466-8.797,5.56-8.678c1.096,0.11,1.201,0.724,0.272,4.128c-0.078,0.279-0.138,0.476-0.177,0.603
			c0.398-1.05,2.701-6.198,8.441-7.313c7.629-1.486,13.496,1.986,13.496,1.986s-0.831-0.744-3.732-1.931
			c-3.805-1.563-0.115-1.809,3.571-0.263c0,0,8.888,3.886,11.864,15.639l-1.719-0.727c0,0-1.123-5.301-4.15-8.583
			c0,0,2.135,3.024,3.01,8.05c0,0-2.09-0.978-5.113-1.427c0,0-0.826-5.762-3.188-8.92c0,0,1.51,2.64,2.157,6.504
			c0,0-1.576-7.362-7.061-9.244c0,0,3.257,4.805,3.84,12.069c0.219,0.029,0.432,0.06,0.645,0.094
			c0.02-6.537-2.83-10.021-2.83-10.021c3.608,2.896,4.535,7.973,4.774,10.332c0.325,0.06,0.64,0.119,0.946,0.182
			c0.008,0.012,0.012,0.031,0.019,0.048c0.956,0.192,1.839,0.402,2.647,0.617c2.738,0.729,4.617,1.528,5.482,2.009
			c1.1,0.61,1.44,1.175,1.489,1.604c0.017-0.097,0.02-0.16,0.02-0.16c-0.496-8.006-5.163-13.065-6.794-14.606
			c-0.182-0.123-0.369-0.284-0.561-0.494c-3.498-3.84-8.092-5.565-8.092-5.565s4.594,1.726,8.092,5.565
			c0,0-4.26-12.921-20.888-13.552c-13.303-0.507-21.342,9.161-24.029,13.05c-0.03,0.056-3.198,6.124,0.984,11.431
			c0.525-1.957,1.404-3.062,1.404-3.062s-0.879,1.104-1.404,3.062C24.56,28.217,24.542,28.271,24.52,28.328z M30.582,12.061
			c-2.229-1.391,3.114-2.32,4.47-1.809c1.359,0.508,1.654,0.187,0.239-1.014c-1.412-1.193,1.386-2.041,3.833-1.73
			c2.446,0.303,1.738,0.205,0.15-0.468c-1.588-0.678-0.629-0.975-0.629-0.975C44.58,4.17,49.871,4.938,49.871,4.938
			s7.996,0.715,12.93,5.999c0,0-9.27-4.599-7.326-2.356c0,0,1.217,1.146,1.494,1.486c1.438,1.738-1.771,1.2-8.421-2.006
			c0,0,2.66,6.645-7.222,2.303c0,0-0.429-0.519,0.086,0.516c0.518,1.052,0.154,5.18-6.465,3.716
			c-7.691-1.694,4.484,4.044-6.732,3.021c0,0,0.686,1.151,1.774,1.533c2.359,0.832-3.283,6.125-5.555,2.882
			c-2.315-3.31-0.166-3.178,1.586-3.785c2.832-0.99-2.526-0.52-0.898-2.336c0,0-0.65,0.455,1.056-1.21
			C28.17,12.526,33.865,14.109,30.582,12.061z"/>
	</g>
	<g>
		<path style="fill:#602E1A;" d="M55.854,27.228l0.124-0.04c-1.038-4.53-0.737-9.086-0.735-9.124l-0.127-0.018
			C55.111,18.093,54.809,22.676,55.854,27.228L55.854,27.228z"/>
	</g>
	<g>
		<path style="fill:#602E1A;" d="M41.371,28.689l0.124-0.051c-0.734-2.702-0.102-5.356-0.095-5.384l-0.123-0.045
			C41.27,23.232,40.623,25.937,41.371,28.689L41.371,28.689z"/>
	</g>
	<g>
		<path style="fill:#602E1A;" d="M66.145,28.203l0.127,0.004c0.199-5.046-2.459-9.906-2.486-9.952l-0.107,0.084
			C63.707,18.389,66.34,23.21,66.145,28.203L66.145,28.203z"/>
	</g>
	<g style="opacity:0.29;">
		<path style="fill:#4A2015;" d="M72.334,29.97l0.127-0.024c-0.977-7.239-3.545-9.414-3.571-9.431l-0.069,0.13
			C68.844,20.667,71.363,22.804,72.334,29.97L72.334,29.97z"/>
	</g>
	<g>
		<path style="fill:#4A2015;" d="M63.248,27.715l0.131-0.005c-0.107-8.35-4.467-12.192-4.512-12.226l-0.072,0.132
			C58.838,15.65,63.144,19.448,63.248,27.715L63.248,27.715z"/>
	</g>
	<g>
		
			<radialGradient id="SVGID_11_" cx="1204.8623" cy="4162.8564" r="14.5839" fx="1203.6273" fy="4162.873" gradientTransform="matrix(-3.3151 0.555 0.2891 2.5659 2840.6682 -11323.082)" gradientUnits="userSpaceOnUse">
			<stop  offset="0" style="stop-color:#E2A15D"/>
			<stop  offset="0.062" style="stop-color:#D99959"/>
			<stop  offset="0.1439" style="stop-color:#C68850"/>
			<stop  offset="0.2369" style="stop-color:#AA7042"/>
			<stop  offset="0.3382" style="stop-color:#86512F"/>
			<stop  offset="0.4451" style="stop-color:#5E2E19"/>
			<stop  offset="0.4645" style="stop-color:#572815"/>
			<stop  offset="0.4874" style="stop-color:#5A2B17"/>
			<stop  offset="0.5175" style="stop-color:#65331D"/>
			<stop  offset="0.5515" style="stop-color:#774126"/>
			<stop  offset="0.5676" style="stop-color:#82492B"/>
			<stop  offset="0.5921" style="stop-color:#8A512F"/>
			<stop  offset="0.6348" style="stop-color:#A1653A"/>
			<stop  offset="0.6497" style="stop-color:#AA6E3E"/>
			<stop  offset="0.7031" style="stop-color:#8E5734"/>
			<stop  offset="0.8211" style="stop-color:#502416"/>
			<stop  offset="0.8466" style="stop-color:#43180D"/>
		</radialGradient>
		<path style="opacity:0.21;fill:url(#SVGID_11_);" d="M24.418,38.01c0,0-0.199,0.128-0.271,0.297h-0.021
			c-1.292-4.257,0.089-9.022,0.393-9.979c0.023-0.057,0.041-0.111,0.056-0.176c0.525-1.957,1.404-3.062,1.404-3.062
			s-0.879,1.104-1.404,3.062c-2.535-3.217-2.37-6.711-1.839-8.979c0.308,2.872,1.289,8.086,5.025,4.707
			c3.957-3.579,3.683-4.396,2.754-5.005c-0.928-0.617,2.775,0.434,4.113-0.552c1.34-0.989-0.477-2.375-0.477-2.375
			s2.837,1.705,6.5-0.589c2.706-1.69,2.486-2.799,2.189-3.261c0.547,0.526,2.164,1.601,5.504,0.495c0,0,2.025-0.471,2.09-1.882
			c0,0,4.867,1.732,10.752,1.277c1.258,0.571,3.843,1.91,6.216,4.119c-0.093-0.076-6.236-5.292-12.007-3.052
			c0,0-7.791-1.731-12.162,3.435c0,0-2.425-2.204-6.536,2.338c-2.029,2.248-2.415,5.539-1.905,8.763
			c-0.393-2.048-0.428-4.806,0.715-8.14c0,0-3.34,3.2-1.797,11.854c-0.169,0.076-0.34,0.153-0.513,0.234
			c-0.532-2.758-0.932-6.967,0.51-10.474c2.275-5.523-3.891,1.43-4.632,6.52c0.11-0.949,0.397-2.817,1.008-4.354
			c0.782-1.943-6.501,2.209-5.104,14.108c-0.022,0.026-0.045,0.048-0.068,0.073C24.741,37.613,24.576,37.806,24.418,38.01z"/>
		<g style="opacity:0.21;">
			
				<radialGradient id="SVGID_12_" cx="1204.8623" cy="4162.8564" r="14.5839" fx="1203.6273" fy="4162.873" gradientTransform="matrix(-3.3151 0.555 0.2891 2.5659 2840.6682 -11323.082)" gradientUnits="userSpaceOnUse">
				<stop  offset="0" style="stop-color:#E2A15D"/>
				<stop  offset="0.062" style="stop-color:#D99959"/>
				<stop  offset="0.1439" style="stop-color:#C68850"/>
				<stop  offset="0.2369" style="stop-color:#AA7042"/>
				<stop  offset="0.3382" style="stop-color:#86512F"/>
				<stop  offset="0.4451" style="stop-color:#5E2E19"/>
				<stop  offset="0.4645" style="stop-color:#572815"/>
				<stop  offset="0.4874" style="stop-color:#5A2B17"/>
				<stop  offset="0.5175" style="stop-color:#65331D"/>
				<stop  offset="0.5515" style="stop-color:#774126"/>
				<stop  offset="0.5676" style="stop-color:#82492B"/>
				<stop  offset="0.5921" style="stop-color:#8A512F"/>
				<stop  offset="0.6348" style="stop-color:#A1653A"/>
				<stop  offset="0.6497" style="stop-color:#AA6E3E"/>
				<stop  offset="0.7031" style="stop-color:#8E5734"/>
				<stop  offset="0.8211" style="stop-color:#502416"/>
				<stop  offset="0.8466" style="stop-color:#43180D"/>
			</radialGradient>
			<path style="fill:url(#SVGID_12_);" d="M24.418,38.01c0,0-0.199,0.128-0.271,0.297h-0.021c-1.292-4.257,0.089-9.022,0.393-9.979
				c0.023-0.057,0.041-0.111,0.056-0.176c0.525-1.957,1.404-3.062,1.404-3.062s-0.879,1.104-1.404,3.062
				c-2.535-3.217-2.37-6.711-1.839-8.979c0.308,2.872,1.289,8.086,5.025,4.707c3.957-3.579,3.683-4.396,2.754-5.005
				c-0.928-0.617,2.775,0.434,4.113-0.552c1.34-0.989-0.477-2.375-0.477-2.375s2.837,1.705,6.5-0.589
				c2.706-1.69,2.486-2.799,2.189-3.261c0.547,0.526,2.164,1.601,5.504,0.495c0,0,2.025-0.471,2.09-1.882
				c0,0,4.867,1.732,10.752,1.277c1.258,0.571,3.843,1.91,6.216,4.119c-0.093-0.076-6.236-5.292-12.007-3.052
				c0,0-7.791-1.731-12.162,3.435c0,0-2.425-2.204-6.536,2.338c-2.029,2.248-2.415,5.539-1.905,8.763
				c-0.393-2.048-0.428-4.806,0.715-8.14c0,0-3.34,3.2-1.797,11.854c-0.169,0.076-0.34,0.153-0.513,0.234
				c-0.532-2.758-0.932-6.967,0.51-10.474c2.275-5.523-3.891,1.43-4.632,6.52c0.11-0.949,0.397-2.817,1.008-4.354
				c0.782-1.943-6.501,2.209-5.104,14.108c-0.022,0.026-0.045,0.048-0.068,0.073C24.741,37.613,24.576,37.806,24.418,38.01z"/>
		</g>
	</g>
	<g style="opacity:0.5;">
		<path style="fill:#602E1A;" d="M41.604,20.629c1.415-7.523,9.813-7.748,9.898-7.748c7.357-0.282,11.609,3.603,11.652,3.641
			l0.074-0.127c-0.041-0.038-4.328-3.956-11.73-3.672c-0.085,0-8.584,0.222-10.019,7.872L41.604,20.629L41.604,20.629z"/>
	</g>
	<g style="opacity:0.29;">
		<path style="fill:#4A2015;" d="M24.562,37.141l0.131-0.01c-0.904-12.144,5.866-14.925,5.934-14.949l-0.038-0.15
			C30.52,22.059,23.65,24.868,24.562,37.141L24.562,37.141z"/>
	</g>
	<path style="fill:#602E1A;" d="M24.063,38.333c-1.3-4.288,0.101-9.112,0.397-10.046c0.018-0.036,0.03-0.07,0.044-0.114
		c-4.111-5.251-1.101-11.233-0.965-11.497c2.722-3.941,10.415-13.104,23.08-13.104c0.334,0,0.672,0.004,1.004,0.017
		c8.611,0.326,13.846,4.009,16.721,7.037c3,3.156,4.127,6.288,4.22,6.552c0.177,0.191,0.353,0.345,0.544,0.48
		c1.475,1.388,6.316,6.541,6.82,14.675c0,0-0.003,0.059-0.021,0.169l-0.129-0.009c-0.043-0.356-0.327-0.914-1.45-1.535
		c-0.911-0.511-2.827-1.299-5.472-2.005c-0.857-0.232-1.754-0.442-2.643-0.617l-0.039-0.008L66.16,28.28
		c-0.296-0.063-0.602-0.121-0.91-0.177l-0.051-0.008l-0.004-0.06c-0.256-2.521-1.162-7.067-4.328-9.922
		c0.76,1.179,2.529,4.466,2.512,9.601V27.8l-0.074-0.011c-2.576-0.363-5.271-0.556-8.006-0.556c-2.189,0-4.434,0.122-6.668,0.359
		l-0.061,0.005l-0.014-0.068c-0.408-2.406-0.696-6.05,0.232-9.866c-0.525,0.484-2.285,2.677-1.626,10.01l0.005,0.081l-0.064,0.012
		c-1.785,0.226-6.463,0.969-11.356,2.801l-0.052,0.021l-0.027-0.055c-0.852-1.808-2.009-5.572-0.336-10.766
		c-0.288,0.363-0.809,1.139-1.244,2.406c-0.579,1.707-1.103,4.67-0.311,9.115l0.012,0.065l-0.056,0.028
		c-1.285,0.563-2.476,1.168-3.549,1.809l-0.013,0.053l-0.03,0.012c-1.85,1.104-3.444,2.354-4.721,3.711
		c-0.083,0.085-0.161,0.166-0.239,0.251c-0.075,0.088-0.15,0.171-0.225,0.259c-0.191,0.217-0.349,0.405-0.494,0.59l-0.016,0.016
		c-0.053,0.03-0.194,0.14-0.242,0.255l-0.016,0.047h-0.108L24.063,38.333z M24.868,37.354c0.077-0.086,0.152-0.168,0.228-0.252
		c0.08-0.089,0.158-0.174,0.237-0.256c1.284-1.361,2.874-2.609,4.725-3.724l0.011-0.046l0.03-0.018
		c1.071-0.636,2.257-1.242,3.539-1.809c-1.502-8.55,1.797-11.831,1.834-11.862l0.198-0.187l-0.101,0.282
		c-1.797,5.256-0.667,9.073,0.19,10.907c4.83-1.801,9.439-2.534,11.267-2.783c-0.751-8.587,1.745-10.142,1.856-10.201l0.135-0.083
		l-0.047,0.182c-0.975,3.813-0.698,7.485-0.29,9.92c2.218-0.229,4.446-0.35,6.62-0.35c2.715,0,5.389,0.184,7.949,0.541
		c-0.005-6.366-2.783-9.836-2.813-9.873l0.086-0.119c3.524,2.832,4.519,7.658,4.799,10.332c0.305,0.052,0.604,0.111,0.896,0.171
		l0.039,0.009l0.016,0.046c0.879,0.179,1.761,0.384,2.615,0.61c2.652,0.71,4.577,1.503,5.496,2.011
		c0.715,0.4,1.183,0.817,1.398,1.25c-0.591-7.895-5.308-12.907-6.741-14.26c-0.203-0.14-0.39-0.306-0.579-0.51
		c-3.443-3.781-8.019-5.529-8.065-5.546l0.04-0.157c0,0,0.039,0.017,0.109,0.045c0,0,0.007,0.005,0.018,0.005
		c0.75,0.31,4.646,1.999,7.756,5.283c-0.367-0.92-1.557-3.53-4.063-6.17c-2.859-3.012-8.068-6.666-16.64-6.993
		c-0.33-0.014-0.667-0.02-0.997-0.02c-12.605,0-20.269,9.126-22.976,13.037c-0.127,0.25-3.062,6.082,0.905,11.231
		c0.526-1.873,1.375-2.954,1.386-2.964l0.094,0.112c0,0-0.003,0.002-0.005,0.007c-0.06,0.074-0.89,1.167-1.384,3.019
		c0,0.009-0.003,0.018-0.005,0.026l-0.03,0.102l-0.003-0.004c-0.007,0.021-0.014,0.042-0.019,0.058
		c-0.292,0.909-1.658,5.599-0.429,9.798c0.082-0.109,0.19-0.191,0.22-0.208C24.52,37.759,24.677,37.571,24.868,37.354z"/>
	<g style="opacity:0.34;">
		<path style="fill:#602E1A;" d="M35.329,20.233c2.096-5.124,7.415-4.658,7.468-4.651l0.008-0.153
			c-0.052-0.005-5.455-0.492-7.592,4.736L35.329,20.233L35.329,20.233z"/>
	</g>
	<g style="opacity:0.29;">
		<path style="fill:#4A2015;" d="M28.712,34.05l0.131-0.016c-0.661-8.121,2.832-12.438,2.865-12.482
			c0.023-0.035,1.85-2.98,3.932-3.085l-0.007-0.157c-2.139,0.106-3.948,3.018-4.019,3.141C31.582,21.483,28.049,25.855,28.712,34.05
			L28.712,34.05z"/>
	</g>
	<g style="opacity:0.34;">
		<path style="fill:#602E1A;" d="M59.354,11.352l0.108-0.096c-1.337-2.204-3.819-2.9-3.846-2.913l-0.025,0.155
			C55.613,8.505,58.051,9.189,59.354,11.352L59.354,11.352z"/>
	</g>
	<g style="opacity:0.21;">
		<path style="fill:#939598;" d="M20.245,44.529c0.482,16.349-5.538,20.576-5.538,20.576c5.163,6.609,12.94,6.958,12.94,6.958
			c-3.617-6.132-3.113-20.376-3.113-20.376c2.389,17.032,8.864,20.754,8.864,20.754c1.125,0.017,3.242-0.518,3.242-0.518
			c-3.749-1.983-5.453-6.517-5.453-6.517c2.364,5.05,6.852,5.963,6.852,5.963c5.297-1.399,7.852-4.758,6.754-4.388
			c-1.098,0.379-4.261-0.278-4.261-0.278C28.601,63.875,25.175,48.029,24.197,38.58c0.166,0.183,0.67,0.353,1.904,0.383
			c0,0,0.755,16.148,8.722,23.7c0.232,0.264,0.471,0.521,0.719,0.772l0,0c2.666,2.203,6.071,3.467,10.416,3.018
			c0,0,0,0.006-0.005,0.01c0,0,0,0.004-0.003,0.009c-0.011,0.025-0.034,0.076-0.06,0.141l0,0c-0.164,0.343-0.614,1.2-1.467,2.179
			c-0.245,0.276-0.518,0.554-0.824,0.839c-0.647,0.588-1.438,1.183-2.404,1.704l0,0c0.02,0.004,0.038,0.004,0.057,0.007
			c-0.041,0.025-0.08,0.049-0.125,0.068l0,0l0,0c0,0-3.196,1.416-7.752,1.757c-2.319-1.374-5.728-4.473-6.913-11.179
			c0,0,0.121,6.141,3.173,11.188c-4.958-0.35-10.751-2.308-15.729-8.082c4.073-4.215,4.923-11.922,4.923-11.922
			c-1.298,5.892-3.919,8.894-6.128,10.42c-0.202-0.269-0.401-0.54-0.599-0.821C18.393,57.23,20.245,44.529,20.245,44.529z"/>
		<path style="fill:#939598;" d="M21.121,32.592c-1.666,11.045-1.73,6.846-0.719-2.162c1.011-9.006-0.728-3.196-2.006,3.561
			c-1.274,6.755-3.682,23.859-10.619,20.63c-0.176-0.507-1.134-3.125-1.307-3.646c0,0,6.725,5.108,9.672-12.693
			c1.92-11.609,4.773-17.405,6.438-19.967c0,0,0.271-0.496,0.813-1.306c0.063-0.087,0.131-0.184,0.199-0.287
			c-0.03,0.056-3.198,6.124,0.984,11.431c0,0-0.478,1.363-0.768,3.316C24.01,27.813,22.089,26.14,21.121,32.592z"/>
		<path style="fill:#939598;" d="M24.148,38.307h-0.021c-0.718-2.367-0.61-4.893-0.319-6.838v0.008c0,0-0.045,2.924,0.389,7.104
			C24.111,38.49,24.108,38.389,24.148,38.307z"/>
	</g>
	<path style="opacity:0.31;fill:#8F5122;" d="M22.115,41.291c0,0,2.038,12.341-0.048,20.518
		C22.067,61.809,22.991,48.824,22.115,41.291z"/>
	<path style="opacity:0.4;fill:#8F5122;" d="M18.053,47.582c0,0-1.422,8.824-5.889,11.932
		C12.165,59.514,16.713,52.604,18.053,47.582z"/>
	<g>
		<path style="fill:#602E1A;" d="M38.575,72.343l0.025-0.155c-5.896-1.415-7.689-7.561-7.705-7.624l-0.124,0.058
			C30.791,64.681,32.61,70.911,38.575,72.343L38.575,72.343z"/>
	</g>
	<g style="opacity:0.63;">
		<path style="fill:#602E1A;" d="M21.121,65.028c3.428-10.093,1.078-23.618,1.056-23.754l-0.124,0.028
			c0.022,0.137,2.362,13.617-1.049,23.667L21.121,65.028L21.121,65.028z"/>
	</g>
	<g style="opacity:0.29;">
		<path style="fill:#602E1A;" d="M19.899,40.308l0.131-0.009c-0.258-8.218,2.656-16.026,2.689-16.107l-0.12-0.064
			C22.569,24.204,19.641,32.05,19.899,40.308L19.899,40.308z"/>
	</g>
	<g style="opacity:0.49;">
		<path style="fill:#602E1A;" d="M12.194,59.587c3.65-2.524,6.354-13.355,6.381-13.462l-0.124-0.049
			c-0.027,0.108-2.715,10.881-6.321,13.369L12.194,59.587L12.194,59.587z"/>
	</g>
	<g>
		<path style="fill:#A7A9AC;" d="M19.188,19.714C19.219,19.711,19.223,19.711,19.188,19.714L19.188,19.714z"/>
		<g>
			<path style="fill:#A7A9AC;" d="M13.586,19.513c0,0-3.464-1.18-7.562,0.98c-0.408-3.826,0.186-6.808,1.067-9.035
				c1.799-0.442,4.073-0.417,6.034,1.438c0,0-2.006-2.75-5.311-2.987c1.314-2.465,2.818-3.606,2.818-3.606
				c8.469,1.693,10.895,9.264,10.895,9.264l2.521,1.539l-0.105,2.328l-2.91-0.529c0,0-6.952,8.885-0.403,16.907
				c0,0-3.212,1.031-6.666-0.598c-0.738-2.073-1.238-5.364,0.3-9.648c0,0-2.42,1.878-1.911,8.684
				c-1.811-1.338-3.563-3.564-4.824-7.22c-0.431-1.256-0.765-2.444-1.015-3.572C7.544,21.681,9.583,19.662,13.586,19.513z"/>
			<g>
				<path style="opacity:0.75;fill:#A7A9AC;" d="M20.142,20.264c-1.634,2.787-4.517,9.417,0.489,15.548c0,0-1.027,0.325-2.547,0.321
					C13.942,28.314,18.013,22.484,20.142,20.264z"/>
				<path style="opacity:0.43;fill:#A7A9AC;" d="M13.125,12.896c0,0-2.006-2.75-5.311-2.987C7.91,9.734,8,9.564,8.096,9.406
					c3.238-1.354,10.389,6.584,11.235,7.037c1.265,0.688,0.633-0.666,0.633-0.666c-1.783-3.925-5.935-6.283-5.935-6.283
					c3.994,1.423,6.742,5.574,6.742,5.574c-5.126-8.658-10.745-8.193-10.768-8.19c0.379-0.384,0.628-0.575,0.628-0.575
					c8.469,1.693,10.895,9.264,10.895,9.264l2.521,1.539l-0.105,2.328l-2.91-0.529c0,0-0.333,0.433-0.786,1.182
					c-0.258,0.184-0.565,0.402-0.934,0.653c-8.011,5.42-4.542,14.811-4.542,14.811l0,0c-0.269-0.103-0.537-0.209-0.808-0.336
					c-0.738-2.073-1.238-5.364,0.3-9.648c0,0-2.42,1.878-1.911,8.684c-0.366-0.27-0.736-0.58-1.099-0.938
					c-0.904-8.559,7.177-12.682,8.412-13.239c0.222-0.098,0.199-0.098,0,0c-0.389,0.149-1.516,0.581-3.745,1.258
					c-3.924,1.204-6.11,4.691-7.307,8.284c-0.239-0.473-0.47-0.988-0.689-1.532c2.532-7.423,10.761-8.32,11.262-8.367
					c0.035-0.003,0.031-0.003,0,0c-0.128,0.008-0.733,0.047-1.988,0.038c-8.079-0.063-10.27,5.239-10.289,5.284
					c-0.148-0.542-0.281-1.068-0.396-1.579c1.029-1.776,3.068-3.795,7.071-3.944c0,0-3.464-1.18-7.562,0.98
					c-0.131-1.22-0.157-2.348-0.108-3.396c7.656-2.773,14.855,3.013,11.977,0.656c-3.415-2.801-7.875-3.389-7.875-3.389
					c4.502-0.368,8.163,2.769,8.163,2.769c-8.049-7.264-11.441-4.684-11.441-4.684c0.112-0.341,0.229-0.677,0.353-0.991
					C8.891,11.016,11.165,11.041,13.125,12.896z"/>
			</g>
			<path style="opacity:0.19;fill:#A7A9AC;" d="M15.724,26.762c0,0-1.167,3.549,0.101,7.056
				C15.825,33.817,13.897,30.996,15.724,26.762z"/>
			<path style="opacity:0.19;fill:#A7A9AC;" d="M12.763,25.046c0,0-2.2,2.739-2.13,6.564C10.632,31.61,9.739,28.104,12.763,25.046z"
				/>
			<path style="opacity:0.19;fill:#A7A9AC;" d="M12.929,21.306c0,0-3.068,0.813-4.738,4.056
				C8.191,25.361,9.027,21.831,12.929,21.306z"/>
			<path style="opacity:0.19;fill:#A7A9AC;" d="M12.658,13.955c0,0-2.846-1.425-5.769-0.501C6.89,13.454,9.286,11.837,12.658,13.955
				z"/>
			<path style="opacity:0.19;fill:#A7A9AC;" d="M13.18,15.891c0,0-3.535-0.882-6.829,0.563C6.351,16.453,8.933,14.42,13.18,15.891z"
				/>
			<path style="opacity:0.19;fill:#A7A9AC;" d="M15.523,11.626c0,0-2.345-2.428-5.362-2.649C10.161,8.977,12.85,8.338,15.523,11.626
				z"/>
		</g>
	</g>
	<g>
		<path style="opacity:0.25;fill:#A7A9AC;" d="M69.563,43.569c0.268,1.229,0.517,0.036,0.517,0.036
			c-0.278-6.799-1.438-12.528-2.001-14.98c0.271,0.068,0.539,0.138,0.793,0.205c0.936,3.904,1.895,9.618,1.718,16.186
			c-0.945,0.343-1.485,1.156-1.485,1.156c-0.02-8.142-1.891-14.903-2.898-17.965c0.2,0.04,0.396,0.08,0.585,0.121
			C68.742,33.881,69.38,42.741,69.563,43.569z"/>
	</g>
	
		<radialGradient id="SVGID_13_" cx="4002.1777" cy="-6636.7876" r="8.2437" gradientTransform="matrix(-2.4457 2.7847 1.4928 1.9506 19738.752 1835.5774)" gradientUnits="userSpaceOnUse">
		<stop  offset="0.2454" style="stop-color:#43180D"/>
		<stop  offset="0.2898" style="stop-color:#491E11"/>
		<stop  offset="0.3652" style="stop-color:#5A2C1B"/>
		<stop  offset="0.4621" style="stop-color:#774228"/>
		<stop  offset="0.4908" style="stop-color:#82492B"/>
		<stop  offset="0.5425" style="stop-color:#8C5331"/>
		<stop  offset="0.6326" style="stop-color:#AB6E41"/>
		<stop  offset="0.7405" style="stop-color:#E2A15D"/>
		<stop  offset="0.7789" style="stop-color:#DA9A5A"/>
		<stop  offset="0.8218" style="stop-color:#CB8D52"/>
		<stop  offset="0.8669" style="stop-color:#B37847"/>
		<stop  offset="0.9135" style="stop-color:#955E37"/>
		<stop  offset="0.9608" style="stop-color:#724025"/>
		<stop  offset="0.9961" style="stop-color:#572815"/>
	</radialGradient>
	<path style="fill:url(#SVGID_13_);" d="M41.199,71.29L41.199,71.29c0.135-0.073,0.264-0.147,0.389-0.218
		c-0.021,0.089-0.041,0.179-0.06,0.269C41.417,71.325,41.309,71.307,41.199,71.29z"/>
	<g>
		
			<radialGradient id="SVGID_14_" cx="4002.1777" cy="-6636.7876" r="8.2437" gradientTransform="matrix(-2.4457 2.7847 1.4928 1.9506 19738.752 1835.5774)" gradientUnits="userSpaceOnUse">
			<stop  offset="0.2454" style="stop-color:#43180D"/>
			<stop  offset="0.2898" style="stop-color:#491E11"/>
			<stop  offset="0.3652" style="stop-color:#5A2C1B"/>
			<stop  offset="0.4621" style="stop-color:#774228"/>
			<stop  offset="0.4908" style="stop-color:#82492B"/>
			<stop  offset="0.5425" style="stop-color:#8C5331"/>
			<stop  offset="0.6326" style="stop-color:#AB6E41"/>
			<stop  offset="0.7405" style="stop-color:#E2A15D"/>
			<stop  offset="0.7789" style="stop-color:#DA9A5A"/>
			<stop  offset="0.8218" style="stop-color:#CB8D52"/>
			<stop  offset="0.8669" style="stop-color:#B37847"/>
			<stop  offset="0.9135" style="stop-color:#955E37"/>
			<stop  offset="0.9608" style="stop-color:#724025"/>
			<stop  offset="0.9961" style="stop-color:#572815"/>
		</radialGradient>
		<path style="fill:url(#SVGID_14_);" d="M41.199,71.29L41.199,71.29c0.135-0.073,0.264-0.147,0.389-0.218
			c-0.021,0.089-0.041,0.179-0.06,0.269C41.417,71.325,41.309,71.307,41.199,71.29z"/>
	</g>
	<g>
		<g>
			<path style="fill:#D1D3D4;" d="M22.66,15.493c-0.281,1.763,0.651,3.467,2.08,3.804c1.431,0.339,2.819-0.813,3.097-2.583
				c0.281-1.769-0.651-3.474-2.082-3.809C24.33,12.57,22.942,13.727,22.66,15.493z"/>
			<path style="fill:#D1D3D4;" d="M19.161,19.831c-0.03,1.944,1.221,3.552,2.797,3.591c1.572,0.035,2.875-1.512,2.905-3.458
				c0.032-1.941-1.22-3.552-2.792-3.587C20.498,16.339,19.193,17.887,19.161,19.831z"/>
		</g>
		<path style="opacity:0.4;fill:#D1D3D4;" d="M21.075,18.557c-0.009,0.655,0.428,1.2,0.984,1.211
			c0.555,0.01,1.012-0.507,1.022-1.164c0.01-0.654-0.428-1.196-0.984-1.211C21.543,17.379,21.089,17.896,21.075,18.557z"/>
		<path style="opacity:0.4;fill:#D1D3D4;" d="M24.893,14.683c-0.007,0.533,0.349,0.979,0.799,0.989
			c0.456,0.008,0.824-0.416,0.834-0.95c0.01-0.533-0.349-0.972-0.801-0.987C25.275,13.727,24.902,14.148,24.893,14.683z"/>
	</g>
</g>
<g id="Layer_1">
</g>
</svg>
