<?xml version="1.0" encoding="iso-8859-1"?>
<!-- Generator: Adobe Illustrator 15.0.0, SVG Export Plug-In . SVG Version: 6.00 Build 0)  -->
<!DOCTYPE svg PUBLIC "-//W3C//DTD SVG 1.1//EN" "http://www.w3.org/Graphics/SVG/1.1/DTD/svg11.dtd">
<svg version="1.1" xmlns="http://www.w3.org/2000/svg" xmlns:xlink="http://www.w3.org/1999/xlink" x="0px" y="0px"
	 width="80.274px" height="80px" viewBox="0 0 80.274 80" style="enable-background:new 0 0 80.274 80;" xml:space="preserve">
<g id="ico-glasses-3">
	<g>
		<defs>
			<rect id="SVGID_1_" x="0.275" width="80" height="80"/>
		</defs>
		<clipPath id="SVGID_2_">
			<use xlink:href="#SVGID_1_"  style="overflow:visible;"/>
		</clipPath>
		<g style="clip-path:url(#SVGID_2_);">
			<path style="fill:none;" d="M60.021,0H20.528C9.343,0,0.275,9.066,0.275,20.253v39.493C0.275,70.932,9.343,80,20.528,80h39.492
				c11.187,0,20.254-9.068,20.254-20.254V20.253C80.274,9.066,71.207,0,60.021,0z"/>
		</g>
	</g>
	<g>
		<path style="opacity:0.7;fill:#9D9FA2;" d="M5.904,44.052c2.18,4.331,5.718,4.845,9.992,4.251
			c6.989-0.977,15.096-5.459,18.158-12.75c-0.072,2.792-0.93,6.605-3.588,9.52c-6.116,6.709-17.998,9.05-22.026,5.299
			c-1.751-1.635-2.74-4.486-3.111-7.535C5.513,43.246,5.702,43.65,5.904,44.052z"/>
		<path style="fill:#FFFFFF;" d="M11.393,34.709c1.683-1.764,5.044-3.491,13.047-3.157c3.732,0.156,6.635,1.225,7.518,1.497
			c1.946,0.596-4.003-3.678-10.057-3.931c-8.003-0.334-11.367,1.393-13.048,3.155C8.207,33.062,10.63,34.665,11.393,34.709z"/>
		
			<ellipse transform="matrix(-0.9991 -0.0417 0.0417 -0.9991 15.3516 74.5014)" style="fill:#FFFFFF;" cx="8.453" cy="37.091" rx="1.809" ry="1.963"/>
		
			<ellipse transform="matrix(-0.9991 -0.0412 0.0412 -0.9991 15.0393 83.0221)" style="fill:#FFFFFF;" cx="8.376" cy="41.356" rx="1.291" ry="1.401"/>
		<path style="opacity:0.7;fill:#9D9FA2;" d="M68.779,46.398c-2.533,4.135-6.103,4.352-10.31,3.402
			c-6.88-1.555-14.591-6.697-17.034-14.217c-0.161,2.788,0.375,6.661,2.782,9.786c5.538,7.195,17.182,10.518,21.509,7.113
			c1.883-1.48,3.104-4.239,3.728-7.248C69.239,45.626,69.016,46.016,68.779,46.398z"/>
		<path style="fill:#FFFFFF;" d="M64.09,36.63c-1.531-1.896-4.737-3.897-12.741-4.232c-3.731-0.156-6.712,0.667-7.617,0.865
			c-1.986,0.432,4.298-3.332,10.353-3.078c7.998,0.334,11.207,2.334,12.74,4.23C67.401,35.253,64.853,36.65,64.09,36.63z"/>
		<path style="fill:#FFFFFF;" d="M68.632,39.323c-0.046,1.083-0.895,1.929-1.891,1.886c-1.002-0.041-1.773-0.954-1.729-2.037
			c0.046-1.085,0.891-1.928,1.893-1.886C67.9,37.327,68.678,38.239,68.632,39.323z"/>
		
			<ellipse transform="matrix(0.9991 0.042 -0.042 0.9991 1.8856 -2.7559)" style="fill:#FFFFFF;" cx="66.542" cy="43.506" rx="1.291" ry="1.399"/>
		<path style="stroke:#000000;stroke-width:0.5876;stroke-linecap:round;stroke-linejoin:round;stroke-miterlimit:10;" d="
			M79.69,34.026c0,0,0.764-3.126-0.187-4.106c-0.946-0.98-5.361,2.43-8.747,1.727c-2.351-0.809-11.177-3.666-15.688-3.854
			c-7.063-0.295-12.633,1.445-13.996,3.652c-0.709-0.309-1.867-0.676-3.449-0.743c-1.569-0.064-2.695,0.201-3.386,0.449
			c-1.183-2.308-6.584-4.502-13.64-4.797c-4.508-0.188-7.779,0.145-10.19,0.754c-3.432,0.418-8.637,2.279-9.666,3.177
			c-1.03,0.897,0.035,2.055,0.035,2.055s3.796-2.151,4.387-1.499c0,0.002-2.597,5.355-2.597,5.355
			C1.778,41.589,2.67,48.568,5.987,51.662c4.527,4.217,17.877,1.586,24.749-5.949c2.593-2.843,3.664-6.45,3.958-9.404
			c0.423-0.598,1.24-1.216,2.822-1.15c1.477,0.062,2.262,0.437,2.683,0.806c-0.051,3.055,0.656,7.026,3.155,10.273
			c6.223,8.084,19.306,11.816,24.169,7.992c3.565-2.807,5.033-9.688,4.696-15.129c0,0-0.61-3.066-0.61-3.067
			C72.253,35.434,79.69,34.026,79.69,34.026z M29.421,45.111c-6.139,6.732-16.744,8.153-20.786,4.387
			C4.14,45.309,4.43,34.827,7.58,31.721c1.794-1.765,5.073-3.922,12.787-3.898c6.457,0.019,11.355,2.313,12.251,4.43
			C33.371,34.021,33.507,40.634,29.421,45.111z M65.065,51.853c-4.342,3.417-14.793,1.12-20.349-6.103
			c-3.698-4.802-3.012-11.381-2.117-13.082c1.071-2.033,6.147-3.912,12.58-3.393c7.688,0.62,10.777,3.041,12.416,4.951
			C70.48,37.583,69.894,48.054,65.065,51.853z"/>
	</g>
</g>
<g id="Layer_1">
</g>
</svg>
