<?xml version="1.0" encoding="iso-8859-1"?>
<!-- Generator: Adobe Illustrator 15.0.0, SVG Export Plug-In . SVG Version: 6.00 Build 0)  -->
<!DOCTYPE svg PUBLIC "-//W3C//DTD SVG 1.1//EN" "http://www.w3.org/Graphics/SVG/1.1/DTD/svg11.dtd">
<svg version="1.1" xmlns="http://www.w3.org/2000/svg" xmlns:xlink="http://www.w3.org/1999/xlink" x="0px" y="0px" width="80px"
	 height="80px" viewBox="0 0 80 80" style="enable-background:new 0 0 80 80;" xml:space="preserve">
<g id="ico-eye-shape-4">
	<g>
		<defs>
			<rect id="SVGID_1_" width="80" height="80"/>
		</defs>
		<clipPath id="SVGID_2_">
			<use xlink:href="#SVGID_1_"  style="overflow:visible;"/>
		</clipPath>
		<g style="clip-path:url(#SVGID_2_);">
			<path style="fill:none;" d="M59.746,0H20.254C9.068,0,0,9.066,0,20.253v39.493C0,70.932,9.068,80,20.254,80h39.492
				C70.932,80,80,70.932,80,59.746V20.253C80,9.066,70.932,0,59.746,0z"/>
		</g>
	</g>
	<g>
		<path style="fill:#A7A9AC;" d="M47.953,58.368c0,0,0.216-0.206,0.64-0.43c0.441-0.208,1.084-0.504,1.92-0.714
			c0.399-0.127,0.854-0.228,1.382-0.276c0.474-0.101,1.041-0.074,1.631-0.088c0.562,0.052,1.165,0.023,1.807,0.194l0.922,0.198
			c0.328,0.078,0.64,0.193,0.958,0.3c0.635,0.196,1.243,0.517,1.857,0.813c0.627,0.283,1.153,0.738,1.71,1.067
			c0.534,0.368,1.001,0.846,1.459,1.229c0.468,0.353,0.798,0.844,1.177,1.225c0.346,0.414,0.668,0.732,0.891,1.104
			c0.236,0.359,0.446,0.649,0.625,0.91c0.337,0.498,0.495,0.799,0.495,0.799s-0.254-0.247-0.657-0.666
			c-0.216-0.206-0.488-0.471-0.755-0.765c-0.287-0.313-0.667-0.578-1.022-0.905c-0.399-0.318-0.763-0.717-1.244-1.021
			c-0.451-0.313-0.905-0.679-1.429-1.003c-0.502-0.268-1.034-0.638-1.576-0.885c-0.531-0.239-1.118-0.538-1.679-0.689
			c-0.292-0.093-0.561-0.207-0.851-0.301l-0.853-0.188c-0.575-0.154-1.119-0.186-1.667-0.291c-0.521-0.011-1.073-0.11-1.547-0.069
			c-0.5-0.013-0.967,0.003-1.382,0.023c-0.853,0.069-1.568,0.126-2.057,0.257C48.223,58.288,47.953,58.368,47.953,58.368z"/>
		<g>
			<g>
				<path style="fill:#A7A9AC;" d="M67.495,21.73c0,0-8.299-7.864-18.512,2.17c-9.679,9.529-8.471,26.412,2.877,33.799
					c1.909-0.192,5.403-0.06,8.991,2.719C73.138,58.756,79.81,32.472,67.495,21.73z"/>
				<path style="fill:#A7A9AC;" d="M47.76,54.569L47.76,54.569c-7.789-8.563-7.35-22.715,0.984-30.93
					c5.36-5.229,10.194-5.568,13.325-4.895c3.409,0.702,5.518,2.681,5.605,2.775c0.489,0.411,0.934,0.868,1.391,1.371
					c4.505,4.952,6.291,12.855,4.758,21.124c-1.703,9.189-6.874,15.917-12.846,16.733l-0.134,0.008L60.71,60.67
					c-3.533-2.749-7.017-2.84-8.758-2.646l-0.118-0.007l-0.095-0.045C50.263,57.015,48.932,55.857,47.76,54.569z M68.667,23.27
					c-0.419-0.46-0.863-0.918-1.334-1.308c0,0-2.071-1.936-5.301-2.596c-4.276-0.895-8.701,0.773-12.823,4.785
					c-8.119,8.009-8.592,21.751-1.05,30.041l0,0c1.093,1.205,2.345,2.262,3.708,3.17c1.86-0.188,5.399-0.036,9.025,2.727
					c5.723-0.872,10.669-7.407,12.331-16.324C74.71,35.696,73.01,28.043,68.667,23.27z"/>
			</g>
			<g>
				<g>
					<path style="fill:#E6E7E8;" d="M47.706,28.686c-3.641,7.091-2.503,15.728,2.521,19.268c5.011,3.535,12.02,0.621,15.665-6.493
						c3.659-7.105,2.502-15.727-2.521-19.266C58.345,18.676,51.333,21.554,47.706,28.686z"/>
					<path style="fill:#A7A9AC;" d="M49.949,29.52c-2.286,4.495-1.331,10.067,2.122,12.483c3.468,2.464,8.107,0.808,10.394-3.688
						c2.287-4.456,1.313-10.049-2.141-12.467C56.886,23.419,52.235,25.064,49.949,29.52z"/>
					<path style="fill:#E6E7E8;" d="M52.462,24.712c-1.647,1.489-2.03,3.766-0.856,5.088c1.163,1.316,3.423,1.158,5.07-0.327
						c1.646-1.525,2.014-3.788,0.857-5.09C56.37,23.069,54.089,23.204,52.462,24.712z"/>
				</g>
				<g>
					<path style="opacity:0.8;fill:#A7A9AC;" d="M48.177,32.569c0,0-1.007,4.451,0.873,7.525c1.898,3.094-3.645,0.926-2.704-5.082
						C47.121,30.118,48.641,31.291,48.177,32.569z"/>
				</g>
				<path style="opacity:0.8;fill:#A7A9AC;" d="M54.593,46.282c1.142-0.03,2.246,0.108,3.336-0.164
					c1.407-0.304,2.309-1.237,3.331-2.053c0.129-0.082,0.272,0.072,0.234,0.19c-0.921,2.16-4.354,3.725-6.963,2.809
					C54.04,46.865,54.128,46.275,54.593,46.282z"/>
			</g>
			<path style="fill:#A7A9AC;" d="M67.495,21.73c0,0-2.098-1.989-5.493-2.706l0.008,0.032c0,0,11.501,3.824,9.461,20.051
				c-2.06,16.242-13.866,17.115-17.66,16.311c-3.358-0.712-12.694-7.708-10.809-20.624c-1.875,8.495,1.146,17.881,8.858,22.905
				c1.909-0.192,5.403-0.06,8.991,2.719C73.138,58.756,79.81,32.472,67.495,21.73z"/>
		</g>
	</g>
	<g>
		<path style="fill:#A7A9AC;" d="M32.046,56.817c0,0-0.215-0.206-0.639-0.43c-0.442-0.208-1.084-0.504-1.919-0.714
			c-0.4-0.127-0.855-0.228-1.382-0.276c-0.475-0.101-1.043-0.074-1.631-0.088c-0.563,0.052-1.166,0.023-1.809,0.194l-0.922,0.198
			c-0.326,0.078-0.639,0.193-0.958,0.3c-0.634,0.196-1.243,0.517-1.856,0.813c-0.627,0.283-1.153,0.738-1.711,1.067
			c-0.534,0.368-0.999,0.846-1.459,1.229c-0.467,0.353-0.796,0.844-1.176,1.224c-0.344,0.414-0.668,0.733-0.892,1.105
			c-0.236,0.359-0.444,0.649-0.624,0.91c-0.336,0.498-0.495,0.799-0.495,0.799s0.254-0.247,0.657-0.666
			c0.216-0.206,0.488-0.471,0.755-0.765c0.288-0.313,0.668-0.578,1.022-0.905c0.4-0.318,0.763-0.717,1.245-1.021
			c0.45-0.313,0.904-0.679,1.429-1.003c0.501-0.268,1.035-0.638,1.576-0.885c0.529-0.239,1.118-0.538,1.678-0.689
			c0.293-0.093,0.56-0.207,0.85-0.301l0.854-0.188c0.575-0.154,1.119-0.186,1.666-0.291c0.521-0.011,1.074-0.11,1.549-0.069
			c0.499-0.013,0.966,0.002,1.382,0.022c0.853,0.07,1.567,0.127,2.055,0.258C31.776,56.737,32.046,56.817,32.046,56.817z"/>
		<g>
			<g>
				<path style="fill:#A7A9AC;" d="M12.507,20.18c0,0,8.298-7.864,18.51,2.17c9.68,9.529,8.471,26.412-2.877,33.799
					c-1.908-0.193-5.403-0.06-8.991,2.719C6.863,57.205,0.191,30.921,12.507,20.18z"/>
				<path style="fill:#A7A9AC;" d="M28.261,56.421l-0.095,0.045l-0.118,0.007c-1.742-0.193-5.225-0.104-8.759,2.646l-0.133,0.087
					l-0.134-0.008c-5.972-0.816-11.142-7.544-12.845-16.733c-1.533-8.269,0.252-16.172,4.757-21.124
					c0.457-0.503,0.901-0.96,1.392-1.371c0.088-0.095,2.196-2.073,5.604-2.775c3.131-0.674,7.965-0.334,13.324,4.895
					c8.335,8.215,8.773,22.366,0.986,30.93l0,0C31.067,54.307,29.737,55.464,28.261,56.421z M6.776,42.214
					c1.662,8.917,6.608,15.452,12.331,16.324c3.626-2.763,7.165-2.914,9.024-2.727c1.364-0.908,2.617-1.965,3.709-3.17l0,0
					c7.543-8.29,7.07-22.032-1.051-30.041c-4.122-4.012-8.545-5.68-12.82-4.785c-3.231,0.66-5.302,2.596-5.302,2.596
					c-0.473,0.39-0.917,0.847-1.335,1.308C6.989,26.492,5.289,34.146,6.776,42.214z"/>
			</g>
			<g>
				<g>
					<path style="fill:#E6E7E8;" d="M32.296,27.135c3.639,7.091,2.501,15.728-2.522,19.268c-5.011,3.535-12.02,0.621-15.664-6.493
						c-3.66-7.105-2.502-15.727,2.52-19.266C21.655,17.125,28.666,20.003,32.296,27.135z"/>
					<path style="fill:#A7A9AC;" d="M30.051,27.968c2.286,4.496,1.33,10.068-2.121,12.484c-3.468,2.464-8.108,0.808-10.395-3.688
						c-2.286-4.455-1.313-10.048,2.142-12.466C23.113,21.868,27.765,23.514,30.051,27.968z"/>
					<path style="fill:#E6E7E8;" d="M27.539,23.161c1.646,1.489,2.028,3.766,0.855,5.088c-1.164,1.316-3.421,1.158-5.07-0.327
						c-1.646-1.525-2.014-3.788-0.857-5.09C23.63,21.518,25.91,21.653,27.539,23.161z"/>
				</g>
				<g>
					<path style="opacity:0.8;fill:#A7A9AC;" d="M31.823,31.019c0,0,1.007,4.45-0.874,7.525c-1.897,3.094,3.645,0.926,2.705-5.082
						C32.879,28.567,31.36,29.74,31.823,31.019z"/>
				</g>
				<path style="opacity:0.8;fill:#A7A9AC;" d="M25.407,44.731c-1.141-0.03-2.245,0.108-3.336-0.164
					c-1.408-0.304-2.31-1.237-3.332-2.053c-0.128-0.082-0.271,0.072-0.233,0.19c0.922,2.16,4.354,3.725,6.963,2.809
					C25.959,45.314,25.872,44.724,25.407,44.731z"/>
			</g>
			<path style="fill:#A7A9AC;" d="M12.507,20.18c0,0,2.096-1.989,5.49-2.706l-0.007,0.032c0,0-11.502,3.824-9.46,20.051
				c2.061,16.242,13.867,17.115,17.66,16.311c3.357-0.713,12.693-7.708,10.808-20.624c1.875,8.495-1.146,17.881-8.858,22.905
				c-1.908-0.193-5.403-0.06-8.991,2.719C6.863,57.205,0.191,30.921,12.507,20.18z"/>
		</g>
	</g>
</g>
<g id="Layer_1">
</g>
</svg>
