<?xml version="1.0" encoding="iso-8859-1"?>
<!-- Generator: Adobe Illustrator 15.0.0, SVG Export Plug-In . SVG Version: 6.00 Build 0)  -->
<!DOCTYPE svg PUBLIC "-//W3C//DTD SVG 1.1//EN" "http://www.w3.org/Graphics/SVG/1.1/DTD/svg11.dtd">
<svg version="1.1" xmlns="http://www.w3.org/2000/svg" xmlns:xlink="http://www.w3.org/1999/xlink" x="0px" y="0px" width="80px"
	 height="80px" viewBox="0 0 80 80" style="enable-background:new 0 0 80 80;" xml:space="preserve">
<g id="ico-eye-shape-2">
	<g>
		<defs>
			<rect id="SVGID_1_" width="80" height="80"/>
		</defs>
		<clipPath id="SVGID_2_">
			<use xlink:href="#SVGID_1_"  style="overflow:visible;"/>
		</clipPath>
		<g style="clip-path:url(#SVGID_2_);">
			<path style="fill:none;" d="M59.746,0H20.253C9.068,0,0,9.066,0,20.253v39.493C0,70.932,9.068,80,20.253,80h39.493
				C70.932,80,80,70.932,80,59.746V20.253C80,9.066,70.932,0,59.746,0z"/>
		</g>
	</g>
	<g>
		<path style="fill:#A7A9AC;stroke:#E8A26D;stroke-width:0.0811;stroke-miterlimit:10;" d="M3.118,38.023
			c1.593,6.129,6.99,13.59,17.094,13.346c10.098-0.223,13.729-2.71,15.069-1.916c1.364,0.783,1.61-0.068,1.61-0.068
			s-2.759-14.397-15.73-17.259C8.726,29.394,1.333,37.544,1.333,37.544L3.118,38.023z"/>
		<path style="fill:#A7A9AC;" d="M31.939,38.969c0.426,0.666-0.054,1.343,0.319,2.066c4.207,8.383-8.368,11.514-16.115,9.236
			C7.368,47.702,6.039,42.32,5.738,39.471c-0.282-2.838,1.611-4.554,1.611-4.554l-1.082-0.935c-3.198,1.646-4.935,3.562-4.935,3.562
			l1.786,0.479c1.593,6.129,6.99,13.59,17.094,13.346c10.098-0.223,13.729-2.71,15.069-1.916c1.364,0.783,1.61-0.068,1.61-0.068
			S35.828,43.861,31.939,38.969z"/>
		<g style="opacity:0.3;">
			<path style="fill:#A7A9AC;" d="M35.708,45.59c0.192,4.203,0.283,2.813-2.638,3.947c1.082-0.258,1.791-0.34,2.212-0.084
				c1.364,0.783,1.61-0.068,1.61-0.068S36.592,47.797,35.708,45.59z"/>
		</g>
		<g>
			<path style="fill:#E6E7E8;" d="M28.452,42.564c-0.564,7.123-12.49,11.186-17.016,1.729c-1.966-4.052-0.673-8.465,1.857-11.373
				c1.412-0.105,2.849-0.98,4.598-0.98c3.096-0.035,5.699,1.786,8.049,2.358C27.076,35.256,28.862,37.59,28.452,42.564z"/>
			<path style="fill:#A7A9AC;" d="M16.317,40.965c-0.145,2.125,1.328,4.005,3.288,4.205c1.965,0.186,3.666-1.379,3.805-3.504
				c0.162-2.125-1.323-4.006-3.271-4.192C18.174,37.287,16.479,38.852,16.317,40.965z"/>
		</g>
		<path style="fill:#A7A9AC;" d="M21.162,32.126C8.726,29.394,1.333,37.544,1.333,37.544l1.786,0.479
			c1.172-1.098,3.113-2.476,4.988-3.363c4.105-1.95,9.148-2.65,13.608-1.518c7.94,2.031,13.055,8.85,15.177,16.242
			C36.892,49.385,34.133,34.987,21.162,32.126z"/>
		<path style="fill:#A7A9AC;" d="M19.076,50.691c8.403,0.631,11.06-0.724,13.5-1.039c-2.301,0.572-6.635,1.752-12.935,1.891
			c-10.098,0.223-14.93-7.391-16.522-13.52C3.118,38.023,6.513,49.723,19.076,50.691z"/>
		<path style="fill:#A7A9AC;" d="M9.862,34.777c0,0-3.378,0.98-3.095,4.553c0.3,3.549,3.215,4.59,2.632,2.405
			C8.533,38.455,11.154,34.917,9.862,34.777z"/>
		<path style="fill:#A7A9AC;" d="M30.027,39.412c0,0,3.078,1.588,2.086,4.648c-1.003,3.034-4.069,3.351-3.06,1.551
			C30.557,42.938,28.717,39.273,30.027,39.412z"/>
	</g>
	<g>
		<path style="fill:#A7A9AC;stroke:#E8A26D;stroke-width:0.0811;stroke-miterlimit:10;" d="M74.136,38.448
			c-1.592,6.129-6.99,13.59-17.094,13.346c-10.098-0.223-13.729-2.709-15.068-1.916c-1.365,0.783-1.611-0.068-1.611-0.068
			s2.76-14.396,15.73-17.258c12.436-2.732,19.828,5.418,19.828,5.418L74.136,38.448z"/>
		<path style="fill:#A7A9AC;" d="M45.315,39.394c-0.426,0.666,0.055,1.344-0.318,2.066c-4.207,8.383,8.367,11.514,16.115,9.236
			c8.773-2.568,10.104-7.951,10.404-10.801c0.281-2.838-1.611-4.553-1.611-4.553l1.082-0.936c3.197,1.646,4.934,3.563,4.934,3.563
			l-1.785,0.479c-1.592,6.129-6.99,13.59-17.094,13.346c-10.098-0.223-13.729-2.709-15.068-1.916
			c-1.365,0.783-1.611-0.068-1.611-0.068S41.427,44.286,45.315,39.394z"/>
		<g style="opacity:0.3;">
			<path style="fill:#A7A9AC;" d="M41.546,46.015c-0.191,4.203-0.281,2.814,2.639,3.947c-1.082-0.258-1.791-0.34-2.211-0.084
				c-1.365,0.783-1.611-0.068-1.611-0.068S40.663,48.222,41.546,46.015z"/>
		</g>
		<g>
			<path style="fill:#E6E7E8;" d="M48.802,42.989c0.564,7.123,12.49,11.186,17.016,1.729c1.967-4.051,0.674-8.465-1.857-11.373
				c-1.412-0.105-2.848-0.98-4.598-0.98c-3.096-0.035-5.699,1.787-8.049,2.359C50.179,35.681,48.392,38.015,48.802,42.989z"/>
			<path style="fill:#A7A9AC;" d="M60.937,41.39c0.145,2.125-1.328,4.006-3.287,4.205c-1.965,0.186-3.666-1.379-3.805-3.504
				c-0.162-2.125,1.322-4.006,3.27-4.191C59.079,37.712,60.774,39.276,60.937,41.39z"/>
		</g>
		<path style="fill:#A7A9AC;" d="M56.093,32.552c12.436-2.732,19.828,5.418,19.828,5.418l-1.785,0.479
			c-1.172-1.098-3.113-2.475-4.988-3.363c-4.105-1.949-9.148-2.65-13.607-1.518c-7.941,2.031-13.055,8.85-15.178,16.242
			C40.362,49.81,43.122,35.413,56.093,32.552z"/>
		<path style="fill:#A7A9AC;" d="M58.179,51.116c-8.404,0.631-11.061-0.723-13.5-1.039c2.301,0.572,6.635,1.752,12.936,1.891
			c10.098,0.223,14.93-7.391,16.521-13.52C74.136,38.448,70.741,50.147,58.179,51.116z"/>
		<path style="fill:#A7A9AC;" d="M67.392,35.202c0,0,3.379,0.98,3.096,4.553c-0.299,3.549-3.215,4.59-2.633,2.406
			C68.722,38.88,66.101,35.343,67.392,35.202z"/>
		<path style="fill:#A7A9AC;" d="M47.228,39.837c0,0-3.078,1.588-2.086,4.648c1.002,3.035,4.068,3.352,3.059,1.551
			C46.698,43.364,48.538,39.698,47.228,39.837z"/>
	</g>
</g>
<g id="Layer_1">
</g>
</svg>
