<?xml version="1.0" encoding="iso-8859-1"?>
<!-- Generator: Adobe Illustrator 15.0.0, SVG Export Plug-In . SVG Version: 6.00 Build 0)  -->
<!DOCTYPE svg PUBLIC "-//W3C//DTD SVG 1.1//EN" "http://www.w3.org/Graphics/SVG/1.1/DTD/svg11.dtd">
<svg version="1.1" xmlns="http://www.w3.org/2000/svg" xmlns:xlink="http://www.w3.org/1999/xlink" x="0px" y="0px"
	 width="80.368px" height="80px" viewBox="0 0 80.368 80" style="enable-background:new 0 0 80.368 80;" xml:space="preserve">
<g id="ico-glasses-5">
	<g>
		<defs>
			<rect id="SVGID_1_" x="0.294" width="80" height="80"/>
		</defs>
		<clipPath id="SVGID_2_">
			<use xlink:href="#SVGID_1_"  style="overflow:visible;"/>
		</clipPath>
		<g style="clip-path:url(#SVGID_2_);">
			<path style="fill:none;" d="M60.041,0H20.547C9.362,0,0.294,9.066,0.294,20.253v39.493C0.294,70.932,9.362,80,20.547,80h39.494
				c11.186,0,20.253-9.068,20.253-20.254V20.253C80.294,9.066,71.227,0,60.041,0z"/>
		</g>
	</g>
	<g>
		<path style="opacity:0.7;fill:#E6E7E8;" d="M8.856,45.703c2.124,3.646,5.493,4.061,9.549,3.532
			c6.631-0.866,14.281-4.702,17.103-10.88c-0.033,2.36-0.803,5.587-3.295,8.066c-5.73,5.704-16.996,7.753-20.869,4.604
			c-1.685-1.369-2.659-3.771-3.049-6.347C8.475,45.023,8.659,45.365,8.856,45.703z"/>
		<path style="fill:#FFFFFF;" d="M14.029,36.146c1.576-1.5,4.752-2.979,12.36-2.745c3.551,0.109,6.321,0.996,7.166,1.22
			c1.856,0.492-3.852-3.084-9.607-3.261c-7.61-0.235-10.787,1.245-12.363,2.744C10.978,34.772,13.302,36.114,14.029,36.146z"/>
		<path style="fill:#FFFFFF;" d="M9.892,37.32c-0.021,0.652,0.512,1.2,1.188,1.221c0.677,0.021,1.245-0.493,1.267-1.145
			c0.021-0.653-0.512-1.199-1.19-1.221C10.482,36.155,9.914,36.667,9.892,37.32z"/>
		<path style="opacity:0.7;fill:#E6E7E8;" d="M68.842,44.316c-1.08,4.119-4.352,5.497-8.584,6.173
			c-6.921,1.103-15.739-0.345-20.368-5.448c0.718,2.252,2.429,5.125,5.654,6.775c7.424,3.802,19.354,2.48,22.34-1.669
			c1.3-1.806,1.581-4.394,1.226-6.978C69.033,43.553,68.942,43.935,68.842,44.316z"/>
		<path style="fill:#FFFFFF;" d="M64.139,37.457c-1.48-1.593-4.551-3.266-12.163-3.501c-3.546-0.109-6.37,0.604-7.229,0.776
			c-1.883,0.377,4.044-2.84,9.802-2.662c7.607,0.234,10.682,1.907,12.162,3.5C67.269,36.274,64.863,37.47,64.139,37.457z"/>
		
			<ellipse transform="matrix(0.9995 0.031 -0.031 0.9995 1.2307 -2.0553)" style="fill:#FFFFFF;" cx="66.823" cy="38.615" rx="1.227" ry="1.183"/>
		
			<path style="fill:#3C2415;stroke:#726658;stroke-width:0.5876;stroke-linecap:round;stroke-linejoin:round;stroke-miterlimit:10;" d="
			M79.923,36.652c0,0,0.528-2.541-0.389-3.363c-0.909-0.822-5.893,0.491-9.118-0.083c-2.245-0.668-10.668-3.031-14.958-3.164
			c-6.716-0.208-11.99,1.296-13.259,3.168c-0.679-0.257-1.784-0.56-3.288-0.606c-1.493-0.046-2.56,0.184-3.214,0.398
			c-1.151-1.943-6.312-3.765-13.022-3.972c-4.287-0.132-7.393,0.167-9.676,0.697c-3.257,0.373-11.211,2.423-12.178,3.188
			c-0.968,0.764-0.31,2.177-0.31,2.177s6.979-2.728,7.549-2.181c0,0.001-2.403,4.54-2.403,4.54
			c-0.684,4.562,0.248,10.455,3.438,13.05c4.354,3.535,15.008,5.127,21.446-1.281c2.432-2.418,5.407-9.365,5.651-11.863
			c0.395-0.509,1.163-1.034,2.668-0.988c1.403,0.043,2.155,0.356,2.559,0.665c-0.011,2.582-3.038,10.883-0.623,13.613
			c6.012,6.792,22.24,4.919,26.816,1.659c3.354-2.393,4.666-8.216,4.279-12.811c0,0-0.616-2.588-0.616-2.589
			C71.882,36.397,79.923,36.652,79.923,36.652z M30.667,46.938c-5.752,5.727-15.595,5.484-19.484,2.325
			C6.859,45.75,6.736,36.142,9.694,33.499c1.685-1.501,5.448-3.198,12.779-3.225c6.137-0.022,10.82,1.888,11.697,3.671
			C34.91,35.435,34.498,43.131,30.667,46.938z M65.25,50.314c-4.086,2.912-16.841,5.442-22.208-0.627
			c-3.573-4.035-0.207-14.009,0.624-15.45c0.992-1.725,5.794-3.342,11.915-2.942c7.313,0.478,10.281,2.508,11.861,4.109
			C70.226,38.224,69.795,47.074,65.25,50.314z"/>
	</g>
</g>
<g id="Layer_1">
</g>
</svg>
