<?xml version="1.0" encoding="iso-8859-1"?>
<!-- Generator: Adobe Illustrator 15.0.0, SVG Export Plug-In . SVG Version: 6.00 Build 0)  -->
<!DOCTYPE svg PUBLIC "-//W3C//DTD SVG 1.1//EN" "http://www.w3.org/Graphics/SVG/1.1/DTD/svg11.dtd">
<svg version="1.1" xmlns="http://www.w3.org/2000/svg" xmlns:xlink="http://www.w3.org/1999/xlink" x="0px" y="0px"
	 width="84.055px" height="80px" viewBox="0 0 84.055 80" style="enable-background:new 0 0 84.055 80;" xml:space="preserve">
<g id="ico-glasses-2">
	<g>
		<defs>
			<rect id="SVGID_1_" x="2.887" width="80" height="80"/>
		</defs>
		<clipPath id="SVGID_2_">
			<use xlink:href="#SVGID_1_"  style="overflow:visible;"/>
		</clipPath>
		<g style="clip-path:url(#SVGID_2_);">
			<path style="fill:none;" d="M62.633,0H23.14C11.955,0,2.887,9.066,2.887,20.253v39.493C2.887,70.932,11.955,80,23.14,80h39.493
				c11.186,0,20.254-9.068,20.254-20.254V20.253C82.887,9.066,73.818,0,62.633,0z"/>
		</g>
	</g>
	<g>
		<g>
			<defs>
				<path id="SVGID_3_" d="M82.424,39.973c-0.455,0.53-4.011,3.912-4.332,4.416l-0.771,3.301c0,0-1.022,11.375-6.145,12.353
					c-5.122,0.982-15.854,2.224-22.792-1.663c-6.941-3.893-4.984-13.424-5.413-15.176c-0.439-1.756-4.938-3.237-6.493-2.458
					c-1.57,0.781,2.009,11.638-6.405,14.263c-8.427,2.621-17.855,3.809-22.13-1.342C3.84,48.721-2.894,30.791,12.494,27.602
					c15.395-3.176,66.553-2.208,65.442,7.341"/>
			</defs>
			<clipPath id="SVGID_4_">
				<use xlink:href="#SVGID_3_"  style="overflow:visible;"/>
			</clipPath>
			<g style="clip-path:url(#SVGID_4_);">
				<g>
					<g>
						<path style="fill:#595267;" d="M0.025,36.826l8.245,5.237c0.285,0.177,0.632-0.216,0.771-0.891
							c0.14-0.669,0.023-1.366-0.266-1.552l-8.309-5.278"/>
						<path style="fill:#333074;" d="M0.491,34.218l8.312,5.276c0.315,0.21,0.443,0.975,0.292,1.715
							c-0.132,0.633-0.429,1.057-0.722,1.022c-0.044,0.003-0.089-0.01-0.131-0.035L0,36.953 M0.053,36.696l8.239,5.242
							c0.037,0.021,0.072,0.029,0.112,0.038c0.234,0.027,0.477-0.32,0.583-0.836c0.125-0.602,0.019-1.228-0.238-1.388l-8.302-5.274"
							/>
					</g>
					<g style="opacity:0.7;">
						<path style="fill:#595267;" d="M0.466,34.343l8.309,5.278c0.289,0.186,0.406,0.882,0.266,1.552
							c-0.139,0.675-0.486,1.067-0.771,0.891l-0.162-0.099c0.214-0.088,0.42-0.427,0.52-0.91c0.142-0.669,0.211-0.612-0.075-0.798
							L0.17,34.907"/>
					</g>
					<polygon style="opacity:0.7;fill:#FFFFFF;" points="7.744,41.216 0.248,36.521 0.545,36.062 7.8,40.665 					"/>
				</g>
				<g>
					<g>
						<g>
							<path style="fill:#595267;" d="M33.722,37.759c0.067-0.041,0.129-0.074,0.192-0.108l-0.017,0.043
								C33.897,37.694,33.833,37.715,33.722,37.759z"/>
							<path style="fill:#333074;" d="M33.72,37.884c0.02,0.005,0.039-0.002,0.057-0.009c0.087-0.036,0.151-0.052,0.151-0.052
								c0.05-0.015,0.081-0.04,0.099-0.076l0.017-0.044c0.023-0.061,0.008-0.113-0.038-0.146c-0.039-0.039-0.104-0.046-0.16-0.019
								l-0.075,0.042c-0.036,0.025-0.081,0.041-0.112,0.06c-0.061,0.034-0.096,0.113-0.056,0.169
								C33.625,37.855,33.67,37.881,33.72,37.884z"/>
						</g>
						<g>
							<path style="fill:#595267;" d="M33.448,40.241l-0.445-1.542c-0.046-0.259,0.053-0.451,0.194-0.602
								c0.158-0.124,0.337-0.237,0.525-0.338c0.111-0.044,0.175-0.065,0.175-0.065l0.017-0.043c1.019-0.542,2.405-0.972,4.251-0.974
								c0.04,0.003,0.084,0,0.121,0.004c5.877-0.103,7.672,2.953,7.749,3.132c0.299,0.642-0.028,1.4-0.721,1.696
								c-0.186,0.084-0.389,0.12-0.583,0.114c-0.508,0.006-0.284,0.086-0.491-0.371c-0.008-0.029-2.659-2.255-6.079-2.026
								c0,0-0.049,0.003-0.081-0.001c-2.2,0.001-3.345,0.813-3.862,1.371C33.75,40.644,33.448,40.241,33.448,40.241z"/>
							<path style="fill:#333074;" d="M44.199,41.563c-0.008-0.057-0.029-0.121-0.078-0.231c-0.184-0.161-2.422-1.961-5.389-1.988
								c-0.184-0.005-0.375,0.001-0.565,0.014l-0.031-0.005v-0.125l-0.063,0.124c-2.179,0.004-3.289,0.839-3.757,1.328
								c-0.023,0.026-0.055,0.04-0.094,0.041c-0.031,0.003-0.07,0.005-0.101,0.007l0,0c-0.477-0.005-0.784-0.394-0.792-0.418
								c-0.013-0.005-0.014-0.017-0.02-0.035l-0.44-1.561c-0.054-0.252,0.032-0.489,0.24-0.724c0.184-0.13,0.37-0.244,0.567-0.357
								c0.044-0.015,0.089-0.03,0.113-0.043c0.019-0.013,0.037-0.033,0.055-0.052c1.232-0.652,2.684-0.99,4.348-0.992l0.096,0
								c6.171-0.104,7.861,3.183,7.875,3.218c0.329,0.699-0.031,1.537-0.785,1.86c-0.213,0.098-0.428,0.137-0.654,0.14
								c-0.078-0.002-0.146,0.003-0.199,0l-0.075-0.001C44.266,41.763,44.23,41.65,44.199,41.563z M38.279,36.813l-0.074-0.007
								v-0.125l-0.046,0.122c-1.567,0.008-2.959,0.318-4.133,0.943c-0.018,0.036-0.049,0.062-0.099,0.076
								c0,0-0.063,0.016-0.125,0.044c-0.176,0.088-0.354,0.208-0.509,0.313c-0.134,0.146-0.184,0.304-0.152,0.48l0.437,1.514
								c0.046,0.067,0.258,0.286,0.558,0.295l0,0h0.005c0.531-0.54,1.704-1.373,3.982-1.378l0.031,0.004
								c0.204-0.014,0.399-0.02,0.59-0.021c3.126,0.03,5.575,2.006,5.625,2.122c0.062,0.139,0.092,0.232,0.104,0.291
								c0,0,0.007,0.004,0.009,0.012l0.05-0.004c0.05-0.004,0.114-0.002,0.203-0.002c0.185,0,0.36-0.035,0.536-0.105
								c0.617-0.267,0.9-0.946,0.629-1.511c-0.012-0.036-1.633-3.014-7.185-3.069C38.577,36.812,38.425,36.804,38.279,36.813z"/>
						</g>
						<g>
							<path style="fill:#595267;" d="M43.086,37.476c-0.12-0.052-0.198-0.082-0.198-0.082S42.99,37.404,43.086,37.476z"/>
							<path style="opacity:0.5;fill:#595267;" d="M33.455,39.955c0.16-0.118,0.328-0.229,0.527-0.337
								c0.098-0.049,0.168-0.065,0.168-0.065l0.019-0.037c1.031-0.55,2.403-0.979,4.251-0.979c0.037,0.002,0.075,0,0.12-0.003
								c1.556-0.042,2.836,0.256,3.857,0.701c0,0,0.694,0.229,0.909-0.767c0.127-0.605-0.055-0.872-0.221-0.992
								c0.359,0.167,1.129,0.527,1.745,0.892l0.552,3.107c-0.024,0.008-0.035,0.02-0.068,0.034c-0.186,0.084-0.389,0.12-0.583,0.114
								c-0.508,0.006-0.284,0.086-0.491-0.371c-0.008-0.029-2.659-2.255-6.079-2.026c0,0-0.049,0.003-0.081-0.001
								c-2.2,0.001-3.345,0.813-3.862,1.371c-0.468,0.048-0.771-0.354-0.771-0.354l-0.065-0.21
								C33.407,40.005,33.424,39.987,33.455,39.955z"/>
						</g>
					</g>
					<path style="opacity:0.7;fill:#FFFFFF;" d="M34.109,37.936c0,0,1.882-1.331,5.575-0.779c0,0,1.547,0.089,1.364,0.739
						c-0.188,0.655-1.814-0.269-4.148,0.073c-2.342,0.344-2.881,1.171-3.063,0.874C33.658,38.555,33.677,38.113,34.109,37.936z"/>
				</g>
				<g>
					<g>
						<path style="fill:#595267;" d="M83.529,35.019l-7.998,7.651c-0.357,0.348-0.385,1.077-0.048,1.634
							c0.331,0.552,0.894,0.725,1.262,0.377l7.31-6.828"/>
						<path style="fill:#333074;" d="M84.055,37.853l-7.248,6.934c-0.402,0.377-1.023,0.188-1.393-0.42
							c-0.314-0.523-0.352-1.19-0.082-1.623c0.035-0.068,0.082-0.129,0.135-0.184l8.076-7.718 M83.442,35.27l-7.847,7.497
							c-0.045,0.046-0.08,0.096-0.119,0.152c-0.215,0.346-0.184,0.894,0.071,1.317c0.3,0.496,0.808,0.652,1.13,0.34l7.15-6.84"/>
					</g>
					<g style="opacity:0.7;">
						<path style="fill:#595267;" d="M84.055,37.853l-7.31,6.828c-0.368,0.348-0.931,0.175-1.262-0.377
							c-0.337-0.557-0.31-1.286,0.048-1.634l0.202-0.199c-0.12,0.371-0.065,0.86,0.175,1.258c0.33,0.559,0.232,0.636,0.598,0.291
							l7.281-6.947"/>
					</g>
					<polygon style="opacity:0.7;fill:#FFFFFF;" points="73.727,44.988 83.159,35.889 83.218,36.578 74.051,45.353 					"/>
				</g>
				<g>
					<g>
						<path style="fill:#595267;" d="M52.738,58.918c-3.698-0.986-6.039-2.798-6.957-5.375c-1.907-5.357-1.948-14.724-1.666-18.426
							c0.305-4.038,3.938-5.613,4.088-5.678l0.125-0.043c2.691-0.764,5.698-1.14,8.959-1.103c6.18,0.055,12.119,1.573,15.331,2.857
							c4.366,1.751,4.388,5.201,4.358,5.782c0.313,6.366-1.156,12.735-2.283,16.975c-1.185,4.44-4.902,5.926-6.73,6.092
							c-0.814,0.125-1.941,0.182-3.364,0.168C60.602,60.131,55.063,59.545,52.738,58.918z M49.608,31.205
							c-0.356,0.172-2.581,1.341-2.79,3.998c-0.254,3.433-0.9,12.646,0.893,17.69c0.709,1.995,2.557,3.362,5.637,4.187
							c2.152,0.58,6.884,1.129,10.671,1.173c1.289,0.005,2.348-0.04,3.035-0.15l0.081-0.005c0.035-0.003,3.776-0.365,4.904-4.6
							c1.104-4.138,2.533-10.344,2.233-16.466l-0.011-0.078l0.016-0.062c0-0.016,0.207-2.625-3.184-3.98
							c-3.046-1.212-8.007-2.645-13.895-2.708C54.182,30.169,52.074,30.515,49.608,31.205z"/>
						<path style="fill:#333074;" d="M52.691,59.045c-3.742-1-6.111-2.834-7.041-5.459c-1.922-5.373-1.955-14.769-1.667-18.473
							c0.308-4.121,3.999-5.724,4.175-5.796l0.127-0.044c2.711-0.771,5.729-1.147,9.008-1.117
							c6.199,0.066,12.153,1.594,15.374,2.878c4.431,1.771,4.487,5.23,4.444,5.889c0.313,6.385-1.148,12.771-2.285,17.004
							c-1.201,4.52-5.012,6.043-6.852,6.203c-0.814,0.131-1.949,0.182-3.376,0.168C60.594,60.256,55.029,59.672,52.691,59.045z
							 M48.372,29.518l-0.114,0.044c-0.15,0.063-3.692,1.603-4.001,5.563c-0.282,3.691-0.251,13.027,1.661,18.367
							c0.904,2.543,3.213,4.32,6.858,5.304c2.317,0.616,7.847,1.196,11.835,1.233c1.404,0.021,2.526-0.034,3.34-0.158
							c1.771-0.162,5.451-1.63,6.605-5.996c1.123-4.229,2.586-10.573,2.283-16.945c0.029-0.639-0.029-3.95-4.289-5.656
							c-3.188-1.268-9.109-2.786-15.271-2.849C54.032,28.388,51.039,28.755,48.372,29.518z M53.307,57.208
							c-3.129-0.832-5.004-2.233-5.73-4.276c-1.847-5.188-1.127-14.634-0.893-17.738c0.209-2.698,2.426-3.891,2.895-4.112
							c2.24-0.633,4.4-1.042,7.628-1.009c6.376,0.06,11.474,1.735,13.94,2.716c3.485,1.397,3.266,4.091,3.266,4.113l-0.004,0.043
							l0.004,0.078c0.295,6.147-1.135,12.358-2.23,16.495c-1.156,4.344-5.008,4.714-5.041,4.716l-0.068,0.011
							c-0.695,0.1-1.76,0.15-3.068,0.135C60.377,58.347,55.574,57.821,53.307,57.208z M49.676,31.32
							c-0.416,0.2-2.518,1.325-2.711,3.884c-0.635,8.292-0.336,14.23,0.883,17.645c0.69,1.942,2.504,3.295,5.547,4.107
							c2.252,0.604,7.017,1.126,10.625,1.158c1.289,0.018,2.335-0.033,3.016-0.143l0.09-0.006c0.031-0.002,3.678-0.377,4.781-4.503
							c1.094-4.13,2.52-10.312,2.226-16.423l-0.003-0.09l-0.002-0.059c0.006-0.024,0.182-2.547-3.099-3.863
							c-2.446-0.977-7.511-2.636-13.837-2.693C53.995,30.3,51.865,30.713,49.676,31.32z"/>
					</g>
					<g>
						<g>
							<path style="fill:#595267;" d="M66.845,60.109C67.565,60.045,67.963,60,67.963,60C67.646,60.051,67.254,60.09,66.845,60.109z
								"/>
							<path style="fill:#333074;" d="M66.836,60.242l0.006-0.002c0.469-0.03,0.842-0.066,1.133-0.109
								c0.076-0.01,0.132-0.073,0.127-0.15c-0.015-0.064-0.068-0.114-0.15-0.109c0,0-0.397,0.049-1.119,0.115
								c-0.075,0.005-0.131,0.062-0.132,0.139C66.707,60.184,66.766,60.246,66.836,60.242z"/>
						</g>
						<path style="opacity:0.7;fill:#595267;" d="M73.963,53.902c1.02-4.246,2.348-10.611,2.114-16.977
							c0.026-0.585,0.026-4.025-3.843-5.773c0,0-2.913-1.061-7.049-2.052c3.028,0.559,5.651,1.346,7.433,2.051
							c4.366,1.751,4.388,5.201,4.358,5.782c0.313,6.366-1.156,12.735-2.283,16.975c-1.185,4.44-4.902,5.926-6.73,6.092
							C69.59,59.836,72.887,58.347,73.963,53.902z"/>
					</g>
					<path style="opacity:0.7;fill:#FFFFFF;" d="M65.248,29.822c0,0-12.453-2.198-17.755,1.249c0,0-2.083,1.093-2.171,4.991
						c-0.088,3.905-0.268,9.786-0.045,12.259c0.234,2.468-0.582-0.242-0.858-7.331l-0.029-4.938c0,0-0.257-4.083,3.661-6.096
						C54.115,26.84,70.063,30.187,65.248,29.822z"/>
					<path style="opacity:0.7;fill:#FFFFFF;" d="M72.994,53.537c0,0-1.93,5.299-7.532,5.407
						C60.465,59.057,71.865,61.64,72.994,53.537z"/>
				</g>
				<g>
					<g>
						<g>
							<path style="fill:#595267;" d="M17.558,56.181c-1.156-0.001-2.093-0.059-2.758-0.17c-1.517-0.164-4.574-1.488-5.582-5.333
								c-0.949-3.67-2.177-9.174-1.976-14.674c-0.026-0.505,0.085-3.832,3.515-5.389c2.492-1.151,6.984-2.194,11.816-2.324
								c2.551-0.065,4.924,0.227,7.064,0.873l0.104,0.042c0.121,0.051,3.389,0.921,3.898,4.828
								c0.42,3.281,1.072,11.655-0.226,16.396c-0.639,2.273-3.154,3.943-6.149,4.787C25.38,55.737,20.84,56.188,17.558,56.181z
								 M22.712,29.971c-4.625,0.118-8.496,1.417-10.863,2.5c-2.657,1.208-2.464,3.464-2.462,3.488l0.008,0.052l-0.003,0.054
								c-0.177,5.315,1.039,10.683,1.978,14.263c0.97,3.688,4.043,4.035,4.083,4.031l0.058,0.01c0.562,0.101,1.429,0.15,2.494,0.158
								c3.104-0.013,6.955-0.447,8.7-0.936c2.486-0.698,3.941-1.906,4.436-3.659c1.234-4.449,0.298-12.613-0.066-15.65
								c-0.28-2.344-2.074-3.358-2.372-3.505C26.731,30.185,25.065,29.913,22.712,29.971z"/>
							<path style="fill:#333074;" d="M14.774,56.143c-1.524-0.17-4.671-1.523-5.695-5.438c-0.941-3.646-2.175-9.144-1.975-14.686
								c-0.001-0.036-0.174-3.803,3.591-5.525c2.824-1.297,7.484-2.214,11.886-2.328c2.563-0.073,4.949,0.218,7.114,0.875
								l0.143,0.05c1.036,0.349,3.502,1.528,3.939,4.922c0.475,3.676,1.028,11.837-0.224,16.438
								c-0.604,2.134-2.943,3.965-6.252,4.895c-1.896,0.521-6.449,0.979-9.751,0.976l-0.291-0.006
								C16.228,56.305,15.388,56.244,14.774,56.143z M22.573,28.428c-4.351,0.111-8.975,1.019-11.755,2.308
								C7.214,32.369,7.379,35.965,7.382,36c-0.2,5.531,1.032,11.003,1.974,14.639c0.986,3.78,4.004,5.078,5.472,5.243
								c0.607,0.098,1.422,0.158,2.444,0.168h0.287c3.276,0.012,7.792-0.436,9.669-0.963c3.214-0.902,5.479-2.656,6.049-4.693
								c1.25-4.57,0.697-12.683,0.224-16.347c-0.419-3.246-2.777-4.373-3.76-4.702c-0.034-0.016-0.059-0.026-0.059-0.026
								l-0.095-0.035c-1.839-0.553-3.865-0.844-6.018-0.87C23.239,28.414,22.908,28.412,22.573,28.428z M15.482,54.502l-0.052-0.01
								c-0.032,0.004-3.201-0.362-4.199-4.125c-0.934-3.57-2.162-8.937-1.987-14.297l0.004-0.042l-0.009-0.059
								c-0.003-0.095-0.142-2.389,2.552-3.613c1.925-0.881,5.922-2.392,10.914-2.521c2.226-0.05,3.867,0.17,6.059,0.825
								c0.362,0.185,2.165,1.209,2.446,3.608c0.328,2.747,1.329,11.12,0.056,15.698c-0.504,1.807-1.992,3.039-4.534,3.747
								c-1.833,0.52-5.76,0.936-8.737,0.938l-0.306,0.002l0,0C16.758,54.645,15.993,54.587,15.482,54.502z M22.705,30.108
								c-4.936,0.119-8.88,1.609-10.802,2.485c-2.518,1.151-2.388,3.256-2.383,3.35l0.004,0.126
								C9.354,41.4,10.567,46.744,11.5,50.292c0.946,3.586,3.938,3.932,3.971,3.942l0.07,0.008c0.498,0.085,1.25,0.132,2.158,0.15
								l0,0l0.311-0.002c2.946-0.002,6.835-0.416,8.649-0.922c2.442-0.688,3.855-1.854,4.343-3.568
								c1.258-4.528,0.258-12.855-0.064-15.596c-0.284-2.321-2.097-3.305-2.285-3.398c-1.852-0.564-3.34-0.794-5.12-0.815
								C23.269,30.091,22.996,30.095,22.705,30.108z"/>
						</g>
						<g>
							<path style="fill:#595267;" d="M15.721,56.122c-0.595-0.073-0.921-0.111-0.921-0.111
								C15.056,56.053,15.375,56.086,15.721,56.122z"/>
							<path style="fill:#333074;" d="M15.712,56.248c0.07-0.005,0.132-0.051,0.142-0.116c0.016-0.079-0.045-0.142-0.114-0.147
								c-0.592-0.063-0.912-0.102-0.912-0.102c-0.07-0.014-0.151,0.041-0.168,0.102c-0.015,0.078,0.027,0.146,0.108,0.153
								c0.238,0.043,0.551,0.077,0.932,0.111L15.712,56.248z"/>
						</g>
					</g>
					<g style="opacity:0.7;">
						<path style="fill:#595267;" d="M32.66,50.178c0.96-2.46,1.219-12.006,0.147-16.472c-1.07-4.473-3.86-4.659-3.86-4.659
							L29.015,29c0.206,0.058,0.419,0.097,0.622,0.162l0.104,0.042c0.121,0.051,3.389,0.921,3.898,4.828
							c0.42,3.281,1.072,11.655-0.226,16.396c-0.639,2.273-3.154,3.943-6.149,4.787c-0.553,0.156-1.34,0.296-2.262,0.428
							C30.373,54.847,31.775,52.451,32.66,50.178z"/>
						<path style="fill:#595267;" d="M10.846,32.364c5.214-2.346,9.983-2.622,13.282-2.384c-0.452-0.018-0.921-0.023-1.416-0.01
							c-4.625,0.118-8.496,1.417-10.863,2.5c-2.657,1.208-2.464,3.464-2.462,3.488l0.008,0.052l-0.003,0.054
							c-0.177,5.315,1.039,10.683,1.978,14.263c0.97,3.688,4.043,4.035,4.083,4.031l0.058,0.01c0.562,0.101,1.429,0.15,2.494,0.158
							c2.574-0.007,5.658-0.311,7.63-0.688c-2.959,0.64-7.639,1.07-10.118,0.856c-3.205-0.269-4.276-2.904-4.276-2.904
							c-1.855-3.915-2.586-12.052-2.786-15.23C8.259,33.372,10.846,32.364,10.846,32.364z"/>
					</g>
					<path style="opacity:0.7;fill:#FFFFFF;" d="M32.122,46.993c0,0,0.568,6.29-6.929,7.249
						C25.193,54.242,32.517,55.116,32.122,46.993z"/>
					<path style="opacity:0.7;fill:#FFFFFF;" d="M20.465,29.363c0,0-10.323,0.34-12.301,4.17c-1.665,3.24,0.337,11.383,0.337,11.383
						s-1.69-8.759,0.354-11.541C11.279,30.068,20.465,29.363,20.465,29.363z"/>
				</g>
			</g>
			
				<radialGradient id="SVGID_5_" cx="409.6094" cy="1592.0586" r="1.551" fx="409.0284" fy="1592.1971" gradientTransform="matrix(-6.2314 -0.0636 -0.2626 5.8561 2988.1301 -9263.0322)" gradientUnits="userSpaceOnUse">
				<stop  offset="0.0789" style="stop-color:#FAF1E4"/>
				<stop  offset="0.2585" style="stop-color:#EEEBE0"/>
				<stop  offset="0.5752" style="stop-color:#D2DBD5"/>
				<stop  offset="0.9893" style="stop-color:#A4C4C5"/>
				<stop  offset="1" style="stop-color:#A3C4C5"/>
			</radialGradient>
			<path style="opacity:0.5;clip-path:url(#SVGID_4_);fill:url(#SVGID_5_);" d="M9.371,36.972c0.006-0.305,0.006-0.608,0.02-0.907
				l0.002-0.06l-0.007-0.053c0,0-0.022-0.231,0.035-0.567c0.128-0.752,0.599-2.081,2.428-2.915c2.367-1.083,6.238-2.382,10.863-2.5
				c2.353-0.058,4.02,0.214,5.988,0.807c0.298,0.147,2.092,1.162,2.372,3.505c0.159,1.264,0.405,3.415,0.555,5.821
				c-1.776,0.265-3.424-0.027-4.743-0.887c-5.977-2.259-11.801-0.874-17.339,1.429c-0.044-0.491-0.086-0.99-0.111-1.481
				C9.391,38.435,9.375,37.709,9.371,36.972z"/>
			
				<radialGradient id="SVGID_6_" cx="403.2715" cy="1592.1816" r="1.4695" fx="403.226" fy="1591.9818" gradientTransform="matrix(-6.2314 -0.0636 -0.2626 5.8561 2988.1301 -9263.0322)" gradientUnits="userSpaceOnUse">
				<stop  offset="0.0789" style="stop-color:#FAF1E4"/>
				<stop  offset="0.2585" style="stop-color:#EEEBE0"/>
				<stop  offset="0.5752" style="stop-color:#D2DBD5"/>
				<stop  offset="0.9893" style="stop-color:#A4C4C5"/>
				<stop  offset="1" style="stop-color:#A3C4C5"/>
			</radialGradient>
			<path style="opacity:0.5;clip-path:url(#SVGID_4_);fill:url(#SVGID_6_);" d="M46.527,40.864c0.056-2.336,0.203-4.394,0.291-5.661
				c0.209-2.657,2.434-3.826,2.79-3.998c2.466-0.69,4.573-1.036,7.591-1.001c5.888,0.063,10.849,1.496,13.895,2.708
				c2.324,0.932,2.965,2.449,3.125,3.32c0.068,0.395,0.059,0.65,0.059,0.661l-0.016,0.062l0.003,0.071
				c0.021,0.344,0.027,0.695,0.038,1.045c0.019,0.802,0.001,1.607-0.03,2.395c-0.69-0.103-1.391-0.143-2.046-0.153
				C63.68,38.43,54.902,41.318,46.527,40.864z"/>
		</g>
	</g>
</g>
<g id="Layer_1">
</g>
</svg>
