<?xml version="1.0" encoding="iso-8859-1"?>
<!-- Generator: Adobe Illustrator 15.0.0, SVG Export Plug-In . SVG Version: 6.00 Build 0)  -->
<!DOCTYPE svg PUBLIC "-//W3C//DTD SVG 1.1//EN" "http://www.w3.org/Graphics/SVG/1.1/DTD/svg11.dtd">
<svg version="1.1" xmlns="http://www.w3.org/2000/svg" xmlns:xlink="http://www.w3.org/1999/xlink" x="0px" y="0px" width="80px"
	 height="80px" viewBox="0 0 80 80" style="enable-background:new 0 0 80 80;" xml:space="preserve">
<g id="ico-glasses-1">
	<g>
		<defs>
			<rect id="SVGID_1_" width="80" height="80"/>
		</defs>
		<clipPath id="SVGID_2_">
			<use xlink:href="#SVGID_1_"  style="overflow:visible;"/>
		</clipPath>
		<g style="clip-path:url(#SVGID_2_);">
			<path style="fill:none;" d="M59.746,0H20.253C9.068,0,0,9.066,0,20.253v39.493C0,70.932,9.068,80,20.253,80h39.493
				C70.932,80,80,70.932,80,59.746V20.253C80,9.066,70.932,0,59.746,0z"/>
		</g>
	</g>
	<g>
		
			<path style="fill:#6B665F;stroke:#726658;stroke-width:0.5876;stroke-linecap:round;stroke-linejoin:round;stroke-miterlimit:10;" d="
			M2.21,50.488c0,0-0.746-0.385-1.833-1.244C-0.7,48.383,81.152,32.39,77.339,31.779c-1.335-3.156-12.124-4.647-17.194-4.801
			c-7.934-0.244-14.158,1.302-15.65,3.248c-0.803-0.27-2.108-0.59-3.886-0.645c-1.764-0.054-3.024,0.182-3.796,0.402
			c-1.369-2.029-7.472-3.949-15.401-4.191c-5.065-0.155-8.733,0.145-11.429,0.688c-3.847,0.375-7.001,4.6-8.14,5.394
			C0.702,32.665,77.07,52.275,77.07,52.275s-1,1.199-0.324,1.771c0,0.001-75.408-19.547-75.408-19.547
			c-0.792,4.751,0.333,10.895,4.113,13.612c5.159,3.701,17.752,5.404,25.334-1.248c2.863-2.509,6.352-9.737,6.63-12.338
			c0.464-0.529,1.37-1.074,3.148-1.019c1.659,0.051,2.548,0.38,3.026,0.703c-0.002,2.691-3.546,11.329-0.682,14.182
			c7.13,7.104,26.296,5.216,31.689,1.838c3.953-2.48,5.48-8.543,5.006-13.333c0,0-0.739-2.699-0.739-2.7
			C79.577,33.665,2.21,50.488,2.21,50.488z M30.923,44.483c-6.774,5.942-18.405,5.651-23.011,2.343
			C2.79,43.149,2.607,33.137,6.089,30.395c1.984-1.558,6.425-3.312,15.088-3.31c7.25,0.002,12.792,2.011,13.834,3.872
			C35.89,32.513,35.434,40.531,30.923,44.483z M71.797,48.14c-4.815,3.02-19.877,5.604-26.242-0.741
			c-4.238-4.22-0.3-14.599,0.676-16.098c1.167-1.793,6.832-3.459,14.066-3.019c8.643,0.528,12.156,2.655,14.03,4.33
			C77.627,35.562,77.152,44.783,71.797,48.14z"/>
	</g>
</g>
<g id="Layer_1">
</g>
</svg>
