<?xml version="1.0" encoding="iso-8859-1"?>
<!-- Generator: Adobe Illustrator 15.0.0, SVG Export Plug-In . SVG Version: 6.00 Build 0)  -->
<!DOCTYPE svg PUBLIC "-//W3C//DTD SVG 1.1//EN" "http://www.w3.org/Graphics/SVG/1.1/DTD/svg11.dtd">
<svg version="1.1" xmlns="http://www.w3.org/2000/svg" xmlns:xlink="http://www.w3.org/1999/xlink" x="0px" y="0px" width="80px"
	 height="80px" viewBox="0 0 80 80" style="enable-background:new 0 0 80 80;" xml:space="preserve">
<g id="ico-eye-shape-3">
	<g>
		<defs>
			<rect id="SVGID_1_" width="80" height="80"/>
		</defs>
		<clipPath id="SVGID_2_">
			<use xlink:href="#SVGID_1_"  style="overflow:visible;"/>
		</clipPath>
		<g style="clip-path:url(#SVGID_2_);">
			<path style="fill:none;" d="M59.746,0H20.253C9.068,0,0,9.066,0,20.253v39.493C0,70.932,9.068,80,20.253,80h39.493
				C70.932,80,80,70.932,80,59.746V20.253C80,9.066,70.932,0,59.746,0z"/>
		</g>
	</g>
	<g>
		<path style="opacity:0.7;fill:#A7A9AC;" d="M36.482,51.85c0,0-8.729,3.867-24.286,0.681c-5.517-1.253-8.409-5.863-8.003-11.183
			c0.362-4.718,2.175-10.969,6.996-13.029c3.305-1.403,7.967-0.566,11.193,0.73c7.59,3.064,16.093,12.012,14.948,20.768
			C37.251,50.354,37.105,51.57,36.482,51.85z"/>
		<path style="fill:#A7A9AC;stroke:#D37B48;stroke-width:0.0815;" d="M34.981,50.848c0,0-7.851,3.479-21.828,0.623
			c-4.966-1.124-7.568-5.27-7.206-10.059C6.282,37.16,7.905,31.533,12.24,29.7c2.973-1.267,7.155-0.517,10.062,0.644
			c6.822,2.757,14.462,10.811,13.433,18.678C35.677,49.502,35.554,50.604,34.981,50.848z"/>
		<g>
			<path style="fill:#A7A9AC;" d="M16.169,48.729c10.149,2.391,16.702,1.311,19.298-1.617c-0.174-7.109-7.018-14.033-13.18-16.518
				c-2.827-1.138-6.908-1.867-9.808-0.621c-3.784,1.604-5.445,6.148-5.981,10.064C7.267,43.668,9.783,47.211,16.169,48.729z"/>
		</g>
		<g>
			<path style="fill:#E6E7E8;" d="M29.291,40.116c-0.232-2.584-1.058-4.933-2.284-6.83c-1.544-1.138-3.175-2.075-4.755-2.713
				c-1.682-0.68-3.798-1.196-5.857-1.274c-3.872,1.762-6.401,6.766-5.894,12.421c0.377,4.389,2.472,8.067,5.307,10.001
				c3.001,0.48,5.654,0.652,7.974,0.652C27.435,50.461,29.776,45.594,29.291,40.116z"/>
		</g>
		<path style="fill:#A7A9AC;" d="M22.846,40.561c-0.029,3.1-1.718,5.605-3.784,5.591c-2.073,0-3.733-2.527-3.711-5.634
			c0.014-3.107,1.71-5.613,3.776-5.605C21.193,34.933,22.86,37.453,22.846,40.561z"/>
		<path style="fill:#A7A9AC;" d="M23.059,38.414c0.009,1.161-0.695,2.104-1.572,2.109c-0.876,0.002-1.587-0.932-1.601-2.088
			c-0.008-1.154,0.695-2.098,1.572-2.105C22.335,36.32,23.051,37.258,23.059,38.414z"/>
	</g>
	<g>
		<path style="opacity:0.7;fill:#A7A9AC;" d="M43.518,52.238c0,0,8.729,3.867,24.285,0.681c5.518-1.253,8.41-5.863,8.004-11.183
			c-0.361-4.718-2.176-10.968-6.996-13.029c-3.307-1.402-7.967-0.565-11.191,0.73c-7.592,3.064-16.094,12.012-14.949,20.768
			C42.75,50.742,42.895,51.959,43.518,52.238z"/>
		<path style="fill:#A7A9AC;stroke:#D37B48;stroke-width:0.0815;" d="M45.02,51.236c0,0,7.852,3.479,21.826,0.623
			c4.967-1.124,7.568-5.269,7.207-10.059c-0.334-4.252-1.959-9.879-6.293-11.711c-2.973-1.268-7.156-0.517-10.061,0.643
			c-6.824,2.757-14.463,10.811-13.434,18.678C44.322,49.891,44.447,50.992,45.02,51.236z"/>
		<g>
			<path style="fill:#A7A9AC;" d="M63.83,49.117c-10.148,2.391-16.701,1.311-19.297-1.617c0.174-7.109,7.018-14.032,13.18-16.517
				c2.826-1.138,6.908-1.868,9.807-0.622c3.785,1.604,5.445,6.148,5.982,10.064C72.732,44.057,70.219,47.6,63.83,49.117z"/>
		</g>
		<g>
			<path style="fill:#E6E7E8;" d="M50.709,40.506c0.232-2.585,1.059-4.934,2.283-6.83c1.545-1.139,3.176-2.076,4.756-2.714
				c1.682-0.68,3.799-1.196,5.857-1.274c3.871,1.762,6.402,6.766,5.895,12.421c-0.377,4.39-2.473,8.068-5.307,10.001
				c-3.002,0.48-5.654,0.652-7.975,0.652C52.564,50.85,50.225,45.982,50.709,40.506z"/>
		</g>
		<path style="fill:#A7A9AC;" d="M57.154,40.949c0.029,3.1,1.719,5.605,3.783,5.591c2.074,0,3.734-2.526,3.711-5.634
			c-0.012-3.107-1.709-5.613-3.775-5.605C58.809,35.322,57.139,37.842,57.154,40.949z"/>
		<path style="fill:#A7A9AC;" d="M56.361,40.65c-0.012,1.398,0.738,2.533,1.672,2.537c0.934,0,1.693-1.127,1.709-2.521
			c0.01-1.39-0.738-2.525-1.672-2.533C57.135,38.125,56.371,39.256,56.361,40.65z"/>
	</g>
</g>
<g id="Layer_1">
</g>
</svg>
