<?xml version="1.0" encoding="iso-8859-1"?>
<!-- Generator: Adobe Illustrator 15.0.0, SVG Export Plug-In . SVG Version: 6.00 Build 0)  -->
<!DOCTYPE svg PUBLIC "-//W3C//DTD SVG 1.1//EN" "http://www.w3.org/Graphics/SVG/1.1/DTD/svg11.dtd">
<svg version="1.1" id="Layer_1" xmlns="http://www.w3.org/2000/svg" xmlns:xlink="http://www.w3.org/1999/xlink" x="0px" y="0px"
	 width="80px" height="80px" viewBox="0 0 80 80" style="enable-background:new 0 0 80 80;" xml:space="preserve">
<g id="ico-eye-shape-1">
	<g>
		<g>
			<defs>
				<rect id="SVGID_1_" x="7.846" y="9.375" width="64.311" height="65.869"/>
			</defs>
			<clipPath id="SVGID_2_">
				<use xlink:href="#SVGID_1_"  style="overflow:visible;"/>
			</clipPath>
			<g style="clip-path:url(#SVGID_2_);">
				<path style="fill:none;" d="M55.875,9.375H24.126c-8.991,0-16.281,7.464-16.281,16.675v32.518
					c0,9.209,7.29,16.676,16.281,16.676h31.749c8.992,0,16.281-7.467,16.281-16.676V26.051C72.156,16.84,64.867,9.375,55.875,9.375z
					"/>
			</g>
		</g>
	</g>
	<path style="fill:#A7A9AC;" d="M37.71,41.719c-0.963,12.145-7.652,21.309-14.939,20.486c-7.292-0.82-12.425-11.32-11.463-23.444
		c0.96-12.146,7.645-21.315,14.939-20.498C33.535,19.073,38.667,29.584,37.71,41.719z"/>
	<path style="fill:#F1F2F2;" d="M33.202,40.353c-0.098,3.995-2.33,7.149-4.996,7.045c-2.662-0.094-4.739-3.412-4.647-7.399
		c0.097-3.989,2.337-7.131,4.993-7.029C31.213,33.065,33.295,36.375,33.202,40.353z"/>
	<path style="fill:#F1F2F2;" d="M17.676,35.715c0,0-0.407,15.135,7.709,14.623c8.12-0.5-2.747,14.959-8.931,3.529
		C11.59,44.881,17.269,33.187,17.676,35.715z"/>
	<path style="fill:#A7A9AC;" d="M42.292,43.879c0.963,12.143,7.653,21.307,14.94,20.486c7.291-0.82,12.424-11.32,11.463-23.443
		c-0.961-12.146-7.646-21.316-14.938-20.5C46.469,21.232,41.337,31.744,42.292,43.879z"/>
	<path style="fill:#F1F2F2;" d="M46.801,42.514c0.096,3.994,2.328,7.148,4.996,7.043c2.662-0.092,4.738-3.412,4.646-7.398
		c-0.096-3.987-2.338-7.13-4.994-7.029C48.789,35.225,46.707,38.533,46.801,42.514z"/>
	<path style="fill:#F1F2F2;" d="M62.326,37.874c0,0,0.408,15.134-7.709,14.624c-8.119-0.502,2.746,14.959,8.932,3.527
		C68.412,47.039,62.734,35.347,62.326,37.874z"/>
</g>
<g id="Layer_1_1_">
</g>
</svg>
