<?xml version="1.0" encoding="iso-8859-1"?>
<!-- Generator: Adobe Illustrator 15.0.0, SVG Export Plug-In . SVG Version: 6.00 Build 0)  -->
<!DOCTYPE svg PUBLIC "-//W3C//DTD SVG 1.1//EN" "http://www.w3.org/Graphics/SVG/1.1/DTD/svg11.dtd">
<svg version="1.1" xmlns="http://www.w3.org/2000/svg" xmlns:xlink="http://www.w3.org/1999/xlink" x="0px" y="0px" width="80px"
	 height="80px" viewBox="0 0 80 80" style="enable-background:new 0 0 80 80;" xml:space="preserve">
<g id="ico-eye-shape-1">
	<g>
		<defs>
			<rect id="SVGID_1_" width="80" height="80"/>
		</defs>
		<clipPath id="SVGID_2_">
			<use xlink:href="#SVGID_1_"  style="overflow:visible;"/>
		</clipPath>
		<g style="clip-path:url(#SVGID_2_);">
			<path style="fill:none;" d="M59.746,0H20.253C9.068,0,0,9.066,0,20.253v39.493C0,70.932,9.068,80,20.253,80h39.493
				C70.932,80,80,70.932,80,59.746V20.253C80,9.066,70.932,0,59.746,0z"/>
		</g>
	</g>
	<path style="fill:#A7A9AC;" d="M37.15,39.283c-1.198,14.749-9.518,25.878-18.584,24.882C9.495,63.168,3.11,50.416,4.307,35.691
		c1.195-14.752,9.51-25.889,18.583-24.896C31.956,11.779,38.341,24.545,37.15,39.283z"/>
	<path style="fill:#F1F2F2;" d="M31.542,37.624c-0.122,4.851-2.899,8.683-6.215,8.557c-3.311-0.115-5.895-4.146-5.781-8.986
		c0.12-4.845,2.907-8.661,6.211-8.537C29.069,28.772,31.658,32.792,31.542,37.624z"/>
	<path style="fill:#F1F2F2;" d="M12.228,31.99c0,0-0.506,18.383,9.59,17.76c10.1-0.605-3.417,18.168-11.11,4.286
		C4.657,43.123,11.722,28.92,12.228,31.99z"/>
	<path style="fill:#A7A9AC;" d="M42.85,41.906c1.197,14.747,9.52,25.877,18.584,24.882c9.072-0.997,15.457-13.749,14.26-28.474
		c-1.195-14.752-9.512-25.889-18.582-24.897C48.045,14.401,41.66,27.168,42.85,41.906z"/>
	<path style="fill:#F1F2F2;" d="M48.459,40.247c0.119,4.851,2.896,8.683,6.215,8.556c3.311-0.114,5.893-4.146,5.779-8.987
		c-0.119-4.843-2.907-8.66-6.212-8.537C50.931,31.396,48.342,35.413,48.459,40.247z"/>
	<path style="fill:#F1F2F2;" d="M67.771,34.613c0,0,0.508,18.381-9.589,17.76c-10.099-0.607,3.415,18.168,11.109,4.285
		C75.343,45.744,68.279,31.543,67.771,34.613z"/>
</g>
<g id="Layer_1">
</g>
</svg>
