<?xml version="1.0" encoding="iso-8859-1"?>
<!-- Generator: Adobe Illustrator 15.0.0, SVG Export Plug-In . SVG Version: 6.00 Build 0)  -->
<!DOCTYPE svg PUBLIC "-//W3C//DTD SVG 1.1//EN" "http://www.w3.org/Graphics/SVG/1.1/DTD/svg11.dtd">
<svg version="1.1" xmlns="http://www.w3.org/2000/svg" xmlns:xlink="http://www.w3.org/1999/xlink" x="0px" y="0px"
	 width="79.999px" height="80px" viewBox="0 0 79.999 80" style="enable-background:new 0 0 79.999 80;" xml:space="preserve">
<g id="ico-glasses-4">
	<g>
		<defs>
			<rect id="SVGID_1_" width="79.999" height="80"/>
		</defs>
		<clipPath id="SVGID_2_">
			<use xlink:href="#SVGID_1_"  style="overflow:visible;"/>
		</clipPath>
		<g style="clip-path:url(#SVGID_2_);">
			<path style="fill:none;" d="M59.746,0H20.253C9.067,0,0,9.066,0,20.253v39.493C0,70.932,9.067,80,20.253,80h39.493
				c11.186,0,20.253-9.068,20.253-20.254V20.253C79.999,9.066,70.932,0,59.746,0z"/>
		</g>
	</g>
	<g>
		<g>
			<defs>
				<path id="SVGID_3_" d="M79.273,40.2c-0.455,0.28-4.014,2.058-4.339,2.323l-0.809,1.756c0,0-1.182,6.059-6.252,6.544
					c-5.069,0.488-15.677,1.076-22.46-1.044c-6.793-2.124-4.721-7.193-5.115-8.13c-0.407-0.94-4.822-1.76-6.369-1.355
					c-1.561,0.404,1.807,6.218-6.534,7.561c-8.355,1.338-17.677,1.906-21.816-0.869C1.604,44.322-4.77,34.713,10.463,33.119
					c15.236-1.587,65.699-0.716,64.46,4.368"/>
			</defs>
			<clipPath id="SVGID_4_">
				<use xlink:href="#SVGID_3_"  style="overflow:visible;"/>
			</clipPath>
			<g style="clip-path:url(#SVGID_4_);">
				<g>
					<g>
						<path style="fill:#595267;" d="M2.225,37.253l3.551,5.579c0.154,0.244,0.559,0.295,0.903,0.105
							c0.342-0.189,0.5-0.543,0.345-0.795l-5.098-7.394"/>
						<path style="fill:#333074;" d="M1.879,34.618l5.212,7.489c0.166,0.276-0.007,0.666-0.384,0.877
							c-0.324,0.178-0.699,0.172-0.914-0.021c-0.033-0.025-0.063-0.057-0.087-0.094l-3.481-5.616 M2.255,37.018l3.58,5.776
							c0.02,0.03,0.046,0.056,0.072,0.083c0.169,0.153,0.478,0.158,0.741,0.014c0.309-0.17,0.448-0.489,0.31-0.711l-5.032-7.24"/>
					</g>
					<g style="opacity:0.7;">
						<path style="fill:#595267;" d="M1.926,34.749l5.098,7.394c0.155,0.252-0.003,0.605-0.345,0.795
							c-0.345,0.189-0.749,0.139-0.903-0.105l-0.089-0.14c0.192,0.093,0.471,0.081,0.716-0.056c0.349-0.187,0.38-0.119,0.229-0.371
							l-4.674-7.281"/>
					</g>
					<polygon style="opacity:0.7;fill:#FFFFFF;" points="5.674,42.166 2.255,37.018 2.167,36.316 5.91,41.975 					"/>
				</g>
				<g>
					<g>
						<g>
							<path style="fill:#595267;" d="M31.254,38.683c0.066-0.021,0.129-0.04,0.191-0.057l-0.018,0.023
								C31.428,38.649,31.365,38.661,31.254,38.683z"/>
							<path style="fill:#333074;" d="M31.252,38.749c0.018,0.003,0.037,0,0.054-0.004c0.087-0.019,0.15-0.027,0.15-0.027
								c0.05-0.007,0.08-0.021,0.098-0.04l0.019-0.023c0.023-0.032,0.009-0.061-0.035-0.079c-0.038-0.02-0.102-0.025-0.158-0.011
								l-0.074,0.021c-0.037,0.014-0.08,0.021-0.111,0.032c-0.061,0.018-0.098,0.06-0.059,0.09
								C31.155,38.733,31.198,38.748,31.252,38.749z"/>
						</g>
						<g>
							<path style="fill:#595267;" d="M30.946,40.004l-0.414-0.826c-0.045-0.138,0.058-0.239,0.198-0.319
								c0.158-0.066,0.336-0.125,0.523-0.176c0.111-0.022,0.174-0.034,0.174-0.034l0.018-0.023c1.015-0.282,2.387-0.501,4.209-0.49
								c0.038,0.002,0.082,0.001,0.119,0.003c5.801-0.014,7.523,1.627,7.599,1.724c0.286,0.344-0.049,0.747-0.735,0.899
								c-0.186,0.044-0.385,0.063-0.579,0.059c-0.499-0.002-0.281,0.042-0.478-0.203c-0.009-0.017-2.591-1.22-5.967-1.123
								c0,0-0.051,0.001-0.082-0.001c-2.168-0.015-3.311,0.412-3.831,0.705C31.239,40.22,30.946,40.004,30.946,40.004z"/>
							<path style="fill:#333074;" d="M41.535,40.784c-0.006-0.032-0.028-0.066-0.074-0.126c-0.179-0.085-2.362-1.061-5.287-1.097
								c-0.182-0.004-0.367-0.002-0.558,0.003l-0.029-0.002l0.001-0.066l-0.063,0.064c-2.151-0.012-3.258,0.425-3.728,0.682
								c-0.025,0.015-0.056,0.021-0.094,0.021c-0.031,0-0.068,0.002-0.098,0.004l0,0c-0.472-0.006-0.77-0.216-0.777-0.23
								c-0.012-0.001-0.012-0.009-0.018-0.018l-0.411-0.836c-0.049-0.135,0.039-0.261,0.246-0.384
								c0.185-0.068,0.37-0.128,0.566-0.187c0.044-0.007,0.088-0.016,0.113-0.023c0.018-0.007,0.036-0.017,0.054-0.026
								c1.227-0.339,2.661-0.51,4.305-0.499h0.095c6.093-0.013,7.71,1.752,7.725,1.771c0.313,0.375-0.056,0.819-0.806,0.986
								c-0.211,0.05-0.424,0.069-0.647,0.069c-0.076-0.001-0.145,0.001-0.194-0.001l-0.076,0
								C41.599,40.89,41.564,40.831,41.535,40.784z M35.768,38.209l-0.078-0.004l0.003-0.066l-0.044,0.064
								c-1.549-0.007-2.928,0.15-4.095,0.475c-0.018,0.019-0.048,0.033-0.098,0.04c0,0-0.063,0.008-0.124,0.022
								c-0.175,0.047-0.353,0.108-0.506,0.163c-0.134,0.078-0.186,0.161-0.158,0.255l0.408,0.81
								c0.046,0.037,0.251,0.155,0.548,0.162l0,0h0.006c0.53-0.285,1.7-0.72,3.947-0.708l0.034,0.002
								c0.2-0.006,0.393-0.007,0.581-0.007c3.082,0.037,5.469,1.108,5.517,1.17c0.059,0.075,0.087,0.123,0.1,0.156
								c0,0,0.006,0.002,0.007,0.005l0.053-0.001c0.049-0.002,0.111,0,0.197,0c0.183,0.001,0.357-0.016,0.532-0.052
								c0.614-0.138,0.903-0.499,0.645-0.802c-0.014-0.019-1.566-1.617-7.044-1.686C36.061,38.21,35.909,38.206,35.768,38.209z"/>
						</g>
						<g>
							<path style="fill:#595267;" d="M40.498,38.596c-0.118-0.028-0.193-0.045-0.193-0.045S40.403,38.557,40.498,38.596z"/>
							<path style="opacity:0.5;fill:#595267;" d="M30.959,39.852c0.16-0.063,0.325-0.121,0.523-0.177
								c0.099-0.025,0.167-0.033,0.167-0.033l0.02-0.02c1.024-0.287,2.386-0.506,4.209-0.494c0.039,0.002,0.075,0.001,0.118,0
								c1.534-0.011,2.794,0.156,3.797,0.401c0,0,0.681,0.126,0.906-0.403c0.137-0.321-0.039-0.465-0.201-0.531
								c0.352,0.091,1.105,0.289,1.708,0.488l0.498,1.66c-0.025,0.004-0.036,0.012-0.067,0.018
								c-0.186,0.044-0.385,0.063-0.579,0.059c-0.499-0.002-0.281,0.042-0.478-0.203c-0.009-0.017-2.591-1.22-5.967-1.123
								c0,0-0.051,0.001-0.082-0.001c-2.168-0.015-3.311,0.412-3.831,0.705c-0.461,0.022-0.754-0.194-0.754-0.194l-0.061-0.112
								C30.91,39.878,30.927,39.869,30.959,39.852z"/>
						</g>
					</g>
					<path style="opacity:0.7;fill:#FFFFFF;" d="M31.634,38.779c0,0,1.879-0.696,5.511-0.376c0,0,1.525,0.059,1.337,0.403
						c-0.198,0.348-1.788-0.156-4.096,0.01c-2.316,0.167-2.861,0.604-3.035,0.444C31.181,39.106,31.206,38.871,31.634,38.779z"/>
				</g>
				<g>
					<g>
						<path style="fill:#595267;" d="M79.791,37.979l-7.357,3.612c-0.358,0.183-0.396,0.571-0.072,0.87
							c0.317,0.297,0.87,0.394,1.239,0.211l6.21-3.122"/>
						<path style="fill:#333074;" d="M79.811,39.636l-6.151,3.094c-0.403,0.196-1.015,0.092-1.369-0.234
							c-0.303-0.281-0.329-0.638-0.056-0.867c0.035-0.036,0.082-0.067,0.137-0.096l7.415-3.724 M79.791,37.979l-7.294,3.664
							c-0.046,0.023-0.083,0.051-0.121,0.08c-0.218,0.183-0.196,0.475,0.05,0.703c0.288,0.268,0.788,0.354,1.112,0.189l6.272-3.065"
							/>
					</g>
					<g style="opacity:0.7;">
						<path style="fill:#595267;" d="M79.811,39.636l-6.21,3.036c-0.369,0.183-0.922,0.086-1.239-0.211
							c-0.324-0.299-0.286-0.688,0.072-0.87l0.201-0.104c-0.123,0.196-0.076,0.458,0.156,0.671c0.314,0.3,0.218,0.34,0.586,0.16
							l6.454-3.237"/>
					</g>
					<polygon style="opacity:0.7;fill:#FFFFFF;" points="73.435,41.398 79.799,38.171 79.811,38.544 73.747,41.594 					"/>
				</g>
				<g>
					<g>
						<path style="fill:#808285;" d="M49.696,50.097c-3.631-0.552-5.913-1.533-6.782-2.914c-1.801-2.87-1.698-7.865-1.366-9.837
							c0.365-2.15,3.972-2.965,4.122-2.999l0.121-0.022c2.669-0.388,5.643-0.568,8.855-0.526c6.098,0.073,11.938,0.924,15.083,1.63
							c4.288,0.964,4.255,2.804,4.219,3.113c0.21,3.396-1.336,6.782-2.513,9.036c-1.233,2.359-4.924,3.126-6.731,3.202
							c-0.806,0.061-1.92,0.084-3.323,0.066C57.438,50.797,51.982,50.446,49.696,50.097z M47.029,35.298
							c-0.354,0.088-2.568,0.696-2.813,2.113c-0.305,1.827-1.082,6.737,0.61,9.438c0.671,1.069,2.474,1.811,5.5,2.27
							c2.113,0.325,6.774,0.65,10.512,0.701c1.271,0.012,2.317-0.006,2.997-0.06l0.081-0.001c0.032-0.002,3.731-0.169,4.907-2.42
							c1.152-2.198,2.655-5.498,2.451-8.766l-0.009-0.04l0.018-0.033c0-0.009,0.241-1.399-3.083-2.146
							c-2.986-0.667-7.859-1.465-13.67-1.54C51.557,34.777,49.472,34.947,47.029,35.298z"/>
						<path style="fill:#333074;" d="M49.649,50.164c-3.679-0.56-5.985-1.554-6.865-2.959c-1.814-2.879-1.705-7.889-1.364-9.862
							c0.365-2.196,4.033-3.025,4.206-3.062l0.123-0.023c2.689-0.393,5.673-0.571,8.906-0.533
							c6.116,0.078,11.969,0.934,15.128,1.641c4.346,0.976,4.349,2.82,4.297,3.17c0.209,3.407-1.327,6.803-2.512,9.052
							c-1.253,2.401-5.036,3.187-6.855,3.261c-0.805,0.064-1.925,0.083-3.335,0.065C57.43,50.863,51.947,50.516,49.649,50.164z
							 M45.834,34.39l-0.113,0.022c-0.148,0.033-3.669,0.83-4.031,2.939c-0.336,1.966-0.444,6.944,1.361,9.805
							c0.853,1.362,3.104,2.326,6.686,2.875c2.278,0.346,7.724,0.693,11.661,0.74c1.385,0.021,2.491,0,3.298-0.061
							c1.75-0.075,5.404-0.831,6.607-3.152c1.172-2.247,2.711-5.619,2.509-9.02c0.039-0.341,0.029-2.107-4.146-3.045
							c-3.127-0.699-8.947-1.549-15.026-1.625C51.438,33.826,48.475,34.001,45.834,34.39z M50.286,49.188
							c-3.076-0.465-4.905-1.226-5.588-2.319c-1.745-2.779-0.895-7.812-0.614-9.465c0.245-1.437,2.45-2.057,2.916-2.172
							c2.22-0.322,4.357-0.525,7.543-0.485c6.29,0.077,11.295,1.004,13.714,1.546c3.415,0.769,3.158,2.203,3.158,2.216l-0.003,0.022
							l0.001,0.041c0.197,3.28-1.305,6.583-2.448,8.782c-1.207,2.308-5.014,2.478-5.046,2.479l-0.067,0.005
							c-0.686,0.048-1.738,0.067-3.028,0.05C57.242,49.846,52.513,49.531,50.286,49.188z M47.093,35.359
							c-0.414,0.104-2.503,0.69-2.734,2.053c-0.749,4.416-0.546,7.586,0.606,9.414c0.65,1.041,2.419,1.775,5.41,2.229
							c2.212,0.337,6.906,0.648,10.466,0.691c1.272,0.019,2.305-0.002,2.98-0.056l0.085-0.002c0.033-0.001,3.639-0.176,4.785-2.368
							c1.145-2.195,2.644-5.481,2.447-8.743l-0.002-0.048L71.135,38.5c0.006-0.013,0.218-1.357-2.998-2.082
							c-2.399-0.538-7.372-1.457-13.613-1.532C51.371,34.846,49.264,35.051,47.093,35.359z"/>
					</g>
					<g>
						<g>
							<path style="fill:#595267;" d="M63.598,50.83c0.713-0.03,1.106-0.051,1.106-0.051C64.392,50.805,64.004,50.822,63.598,50.83z
								"/>
							<path style="fill:#333074;" d="M63.587,50.9l0.007-0.001c0.464-0.013,0.831-0.029,1.119-0.05
								c0.074-0.006,0.13-0.039,0.129-0.08c-0.014-0.033-0.066-0.062-0.146-0.059c0,0-0.395,0.023-1.107,0.054
								c-0.074,0.001-0.131,0.032-0.134,0.072C63.461,50.868,63.519,50.902,63.587,50.9z"/>
						</g>
						<path style="opacity:0.7;fill:#595267;" d="M70.716,47.568c1.071-2.256,2.478-5.641,2.343-9.037
							c0.036-0.313,0.086-2.146-3.704-3.106c0,0-2.859-0.585-6.926-1.143c2.98,0.319,5.554,0.757,7.301,1.146
							c4.288,0.964,4.255,2.804,4.219,3.113c0.21,3.396-1.336,6.782-2.513,9.036c-1.233,2.359-4.924,3.126-6.731,3.202
							C66.312,50.703,69.588,49.932,70.716,47.568z"/>
					</g>
					<path style="opacity:0.7;fill:#FFFFFF;" d="M62.478,34.669c0,0-12.25-1.259-17.534,0.542c0,0-2.07,0.569-2.219,2.647
						c-0.143,2.08-0.41,5.216-0.229,6.536c0.194,1.317-0.57-0.133-0.736-3.916l0.046-2.633c0,0-0.193-2.18,3.705-3.225
						C51.542,33.002,67.225,34.896,62.478,34.669z"/>
					<path style="opacity:0.7;fill:#FFFFFF;" d="M69.766,47.368c0,0-1.983,2.812-7.513,2.831
						C57.318,50.224,68.528,51.682,69.766,47.368z"/>
				</g>
				<g>
					<g>
						<g>
							<path style="fill:#939598;" d="M15.027,48.394c-1.143-0.009-2.063-0.046-2.72-0.109c-1.493-0.099-4.491-0.825-5.425-2.883
								C6,43.438,4.871,40.496,5.152,37.564c-0.018-0.27,0.145-2.044,3.55-2.85c2.476-0.597,6.924-1.121,11.696-1.157
								c2.516-0.019,4.854,0.154,6.954,0.513l0.104,0.024c0.118,0.027,3.329,0.514,3.773,2.601c0.365,1.753,0.882,6.224-0.473,8.741
								c-0.662,1.208-3.171,2.081-6.14,2.51C22.751,48.211,18.267,48.42,15.027,48.394z M20.508,34.453
								c-4.564,0.031-8.403,0.698-10.757,1.258c-2.64,0.626-2.482,1.831-2.481,1.844l0.007,0.027l-0.005,0.029
								c-0.254,2.832,0.865,5.703,1.738,7.619c0.901,1.973,3.929,2.18,3.966,2.178l0.058,0.005c0.554,0.058,1.407,0.091,2.46,0.102
								c3.063,0.017,6.867-0.19,8.597-0.438c2.464-0.355,3.918-0.988,4.432-1.92c1.283-2.364,0.484-6.725,0.17-8.346
								c-0.239-1.252-1.993-1.806-2.287-1.886C24.473,34.596,22.832,34.439,20.508,34.453z"/>
							<path style="fill:#333074;" d="M12.281,48.354c-1.502-0.1-4.587-0.844-5.537-2.938c-0.875-1.95-2.01-4.891-1.729-7.845
								c0-0.019-0.114-2.03,3.626-2.92c2.807-0.673,7.417-1.129,11.763-1.16c2.53-0.021,4.883,0.151,7.009,0.516l0.14,0.027
								c1.018,0.195,3.434,0.84,3.813,2.653c0.412,1.964,0.838,6.318-0.469,8.762c-0.63,1.135-2.964,2.094-6.243,2.568
								c-1.879,0.265-6.377,0.477-9.636,0.451l-0.288-0.005C13.713,48.45,12.884,48.413,12.281,48.354z M20.394,33.629
								c-4.296,0.03-8.871,0.481-11.634,1.149c-3.579,0.846-3.47,2.764-3.469,2.784c-0.281,2.948,0.853,5.875,1.728,7.819
								c0.916,2.022,3.874,2.735,5.316,2.833c0.601,0.057,1.404,0.096,2.412,0.107l0.282,0.002c3.234,0.029,7.694-0.18,9.556-0.446
								c3.184-0.459,5.445-1.378,6.039-2.46c1.302-2.43,0.88-6.758,0.466-8.716c-0.362-1.734-2.671-2.351-3.636-2.533
								c-0.033-0.008-0.059-0.014-0.059-0.014l-0.095-0.019c-1.806-0.308-3.8-0.477-5.923-0.506
								C21.052,33.627,20.727,33.623,20.394,33.629z M13.003,47.483l-0.05-0.005C12.922,47.48,9.8,47.263,8.872,45.25
								c-0.866-1.91-1.997-4.78-1.744-7.638l0.006-0.022l-0.01-0.032c-0.002-0.05-0.103-1.274,2.573-1.908
								c1.914-0.457,5.88-1.235,10.808-1.269c2.196-0.011,3.813,0.117,5.965,0.482c0.355,0.101,2.117,0.66,2.358,1.939
								c0.284,1.467,1.146,5.94-0.181,8.373c-0.524,0.958-2.011,1.607-4.531,1.966c-1.814,0.265-5.695,0.459-8.632,0.439
								l-0.304-0.001l0,0C14.261,47.568,13.507,47.533,13.003,47.483z M20.5,34.527c-4.873,0.029-8.788,0.796-10.695,1.25
								c-2.503,0.598-2.406,1.72-2.403,1.771l0.003,0.066c-0.248,2.842,0.869,5.701,1.736,7.597c0.879,1.919,3.826,2.125,3.857,2.13
								l0.069,0.005c0.49,0.049,1.23,0.078,2.126,0.096l0,0H15.5c2.908,0.021,6.753-0.174,8.549-0.431
								c2.419-0.351,3.83-0.962,4.339-1.874c1.309-2.405,0.449-6.853,0.173-8.316c-0.247-1.239-2.021-1.776-2.202-1.827
								c-1.818-0.314-3.285-0.447-5.04-0.47C21.055,34.521,20.787,34.522,20.5,34.527z"/>
						</g>
						<g>
							<path style="fill:#595267;" d="M13.215,48.35c-0.586-0.043-0.907-0.065-0.907-0.065C12.56,48.308,12.875,48.328,13.215,48.35
								z"/>
							<path style="fill:#333074;" d="M13.204,48.417c0.069-0.002,0.131-0.026,0.142-0.062c0.018-0.041-0.04-0.075-0.111-0.079
								c-0.583-0.038-0.899-0.062-0.899-0.062c-0.066-0.007-0.147,0.021-0.164,0.053c-0.017,0.043,0.023,0.08,0.103,0.083
								c0.234,0.025,0.543,0.046,0.92,0.066H13.204z"/>
						</g>
					</g>
					<g style="opacity:0.7;">
						<path style="fill:#595267;" d="M30.019,45.297c0.984-1.307,1.385-6.394,0.395-8.782c-0.988-2.391-3.739-2.511-3.739-2.511
							l0.068-0.024c0.201,0.033,0.41,0.055,0.61,0.09l0.104,0.024c0.118,0.027,3.329,0.514,3.773,2.601
							c0.365,1.753,0.882,6.224-0.473,8.741c-0.662,1.208-3.171,2.081-6.14,2.51c-0.547,0.08-1.324,0.149-2.237,0.213
							C27.691,47.771,29.11,46.504,30.019,45.297z"/>
						<path style="fill:#595267;" d="M8.765,35.647c5.179-1.215,9.889-1.328,13.142-1.179c-0.447-0.013-0.909-0.019-1.398-0.015
							c-4.564,0.031-8.403,0.698-10.757,1.258c-2.64,0.626-2.482,1.831-2.481,1.844l0.007,0.027l-0.005,0.029
							c-0.254,2.832,0.865,5.703,1.738,7.619c0.901,1.973,3.929,2.18,3.966,2.178l0.058,0.005c0.554,0.058,1.407,0.091,2.46,0.102
							c2.536,0.015,5.587-0.126,7.536-0.313c-2.929,0.32-7.553,0.518-9.996,0.387c-3.155-0.166-4.176-1.58-4.176-1.58
							c-1.77-2.1-2.369-6.443-2.519-8.139C6.196,36.167,8.765,35.647,8.765,35.647z"/>
					</g>
					<path style="opacity:0.7;fill:#FFFFFF;" d="M29.536,43.596c0,0,0.466,3.357-6.947,3.817
						C22.589,47.413,29.804,47.93,29.536,43.596z"/>
					<path style="opacity:0.7;fill:#FFFFFF;" d="M18.3,34.113c0,0-10.191,0.11-12.199,2.139c-1.692,1.715,0.161,6.072,0.161,6.072
						s-1.537-4.683,0.523-6.151C9.227,34.426,18.3,34.113,18.3,34.113z"/>
				</g>
			</g>
			
				<radialGradient id="SVGID_5_" cx="417.9814" cy="1617.0029" r="1.5517" fx="417.4002" fy="1617.1416" gradientTransform="matrix(-6.1476 -0.077 -0.3475 3.1208 3146.9189 -4977.5)" gradientUnits="userSpaceOnUse">
				<stop  offset="0.0789" style="stop-color:#FAF1E4"/>
				<stop  offset="0.2585" style="stop-color:#EEEBE0"/>
				<stop  offset="0.5752" style="stop-color:#D2DBD5"/>
				<stop  offset="0.9893" style="stop-color:#A4C4C5"/>
				<stop  offset="1" style="stop-color:#A3C4C5"/>
			</radialGradient>
			<path style="opacity:0.5;clip-path:url(#SVGID_4_);fill:url(#SVGID_5_);" d="M7.24,38.094c0.01-0.162,0.015-0.323,0.031-0.482
				l0.005-0.032L7.27,37.551c0,0-0.018-0.122,0.043-0.302c0.137-0.401,0.622-1.105,2.438-1.537c2.354-0.56,6.192-1.227,10.757-1.258
				c2.324-0.014,3.965,0.143,5.896,0.472c0.294,0.08,2.048,0.634,2.287,1.886c0.138,0.675,0.35,1.824,0.46,3.107
				c-1.754,0.129-3.377-0.037-4.665-0.505c-5.864-1.247-11.632-0.547-17.131,0.642c-0.036-0.262-0.068-0.528-0.087-0.79
				C7.237,38.875,7.232,38.487,7.24,38.094z"/>
			
				<radialGradient id="SVGID_6_" cx="411.6465" cy="1617.126" r="1.4685" fx="411.6011" fy="1616.9263" gradientTransform="matrix(-6.1476 -0.077 -0.3475 3.1208 3146.9189 -4977.5)" gradientUnits="userSpaceOnUse">
				<stop  offset="0.0789" style="stop-color:#FAF1E4"/>
				<stop  offset="0.2585" style="stop-color:#EEEBE0"/>
				<stop  offset="0.5752" style="stop-color:#D2DBD5"/>
				<stop  offset="0.9893" style="stop-color:#A4C4C5"/>
				<stop  offset="1" style="stop-color:#A3C4C5"/>
			</radialGradient>
			<path style="opacity:0.5;clip-path:url(#SVGID_4_);fill:url(#SVGID_6_);" d="M43.843,40.427c0.093-1.246,0.266-2.341,0.374-3.016
				c0.244-1.417,2.459-2.024,2.813-2.113c2.442-0.352,4.527-0.521,7.502-0.482c5.811,0.075,10.684,0.873,13.67,1.54
				c2.28,0.513,2.89,1.327,3.035,1.792c0.062,0.211,0.048,0.348,0.048,0.354l-0.018,0.033l0.002,0.038
				c0.017,0.184,0.017,0.371,0.021,0.558c0.008,0.428-0.022,0.857-0.065,1.277c-0.681-0.06-1.37-0.085-2.015-0.096
				C60.802,39.249,52.098,40.727,43.843,40.427z"/>
		</g>
	</g>
</g>
<g id="Layer_1">
</g>
</svg>
