<?xml version="1.0" encoding="iso-8859-1"?>
<!-- Generator: Adobe Illustrator 15.0.0, SVG Export Plug-In . SVG Version: 6.00 Build 0)  -->
<!DOCTYPE svg PUBLIC "-//W3C//DTD SVG 1.1//EN" "http://www.w3.org/Graphics/SVG/1.1/DTD/svg11.dtd">
<svg version="1.1" xmlns="http://www.w3.org/2000/svg" xmlns:xlink="http://www.w3.org/1999/xlink" x="0px" y="0px" width="80px"
	 height="80px" viewBox="0 0 80 80" style="enable-background:new 0 0 80 80;" xml:space="preserve">
<g id="ico-eye-shape-5">
	<g>
		<defs>
			<rect id="SVGID_1_" width="80" height="80"/>
		</defs>
		<clipPath id="SVGID_2_">
			<use xlink:href="#SVGID_1_"  style="overflow:visible;"/>
		</clipPath>
		<g style="clip-path:url(#SVGID_2_);">
			<path style="fill:none;" d="M59.746,0H20.254C9.068,0,0,9.066,0,20.253v39.493C0,70.932,9.068,80,20.254,80h39.492
				C70.932,80,80,70.932,80,59.746V20.253C80,9.066,70.932,0,59.746,0z"/>
		</g>
	</g>
	<g>
		<g>
			<g>
				<path style="fill:#A7A9AC;" d="M56.95,20.789c23.356-0.165,17.288,40.7,17.288,40.7s-17.223,4.942-31.11-3.268
					C43.021,40.849,46.097,20.886,56.95,20.789z"/>
				<path style="fill:#A7A9AC;" d="M43.042,58.375c-0.021-0.028-0.065-0.084-0.08-0.14c-0.056-8.789,0.782-37.488,13.988-37.584
					c4.938-0.056,8.967,1.757,11.923,5.356c2.611,3.157,5.801,9.524,6.188,21.915c0.236,7.393-0.657,13.525-0.672,13.595
					c0,0.056-0.059,0.096-0.093,0.11c-0.088,0.028-7.17,2.021-15.778,1.356l0,0C52.659,62.527,47.455,60.977,43.042,58.375z
					 M74.762,47.923c-0.387-12.294-3.551-18.605-6.119-21.708c-2.918-3.544-6.854-5.301-11.692-5.261
					C44.095,21.053,43.221,49.335,43.291,58.14c4.359,2.575,9.487,4.083,15.257,4.54l0,0c8,0.622,14.675-1.066,15.554-1.315
					C74.209,60.561,74.954,54.789,74.762,47.923z"/>
			</g>
			<g>
				<g>
					<path style="fill:#E6E7E8;" d="M45.151,42.827c-0.606,9.345,3.901,17.223,10.089,17.596c6.154,0.348,11.644-6.907,12.23-16.266
						c0.606-9.345-3.908-17.222-10.082-17.581C51.213,26.215,45.724,33.483,45.151,42.827z"/>
					<path style="fill:#A7A9AC;" d="M47.613,42.274c-0.372,5.856,2.776,10.825,7.014,11.074c4.221,0.264,7.979-4.291,8.363-10.16
						c0.357-5.87-2.784-10.827-7.019-11.09C51.736,31.851,47.993,36.404,47.613,42.274z"/>
					<path style="fill:#E6E7E8;" d="M48.05,35.878c-0.95,2.534-0.414,5.04,1.239,5.622c1.624,0.567,3.714-1.012,4.663-3.532
						c0.931-2.504,0.395-4.995-1.222-5.578C51.091,31.809,49.002,33.387,48.05,35.878z"/>
				</g>
				<g>
					<path style="opacity:0.8;fill:#A7A9AC;" d="M65.861,39.243c0,0,2.503,4.748-0.66,12.266c-3.205,7.502-11.855,7.143-9.945,4.761
						c0,0,5.438,0.153,8.158-7.572C65.695,42.08,63.964,37.415,65.861,39.243z"/>
					<path style="opacity:0.8;fill:#A7A9AC;" d="M47.155,46.399c0,0,0.816,5.054,3.836,6.922c3.027,1.896-3.078,3.226-4.615-3.351
						C45.173,44.627,47.078,44.836,47.155,46.399z"/>
				</g>
				<path style="opacity:0.8;fill:#A7A9AC;" d="M58.685,56.021c1.101-0.734,2.188-1.302,3.119-2.229
					c1.2-1.205,1.695-2.686,2.338-4.168c0.088-0.123,0.272-0.096,0.272,0.069c0,2.713-2.61,6.438-5.46,7.13
					C58.419,56.962,58.282,56.313,58.685,56.021z"/>
			</g>
			<path style="opacity:0.7;fill:#E6E7E8;" d="M56.236,21.8c0,0,6.598-1.717,11.692,4.998c5.102,6.714,0.809,11.198-0.538,6.63
				c-1.366-4.555-6.303-9.621-12.228-8.749c0,0-3.149,0.499-5.051,2.7C48.186,29.594,49.33,23.238,56.236,21.8z"/>
			<path style="opacity:0.5;fill:#D1D3D4;" d="M69.236,49.431c0,0-0.142,6.659-7.535,9.56c-5.659,2.193,8.836,4.146,10.338-1.668
				C73.966,49.805,70.663,43.327,69.236,49.431z"/>
		</g>
		<path style="fill:#A7A9AC;" d="M44.279,44.973c0,0-1.924,12.391,2.832,13.249c4.516,0.832,1.396-1.826-0.012-4.596
			C44.781,49.085,45.052,42.704,44.279,44.973z"/>
	</g>
	<g>
		<g>
			<g>
				<path style="fill:#A7A9AC;" d="M22.074,19.176C-1.279,19.011,4.789,59.877,4.789,59.877s17.223,4.942,31.11-3.269
					C36.007,39.235,32.932,19.273,22.074,19.176z"/>
				<path style="fill:#A7A9AC;" d="M20.509,61.371L20.509,61.371C11.9,62.036,4.815,60.043,4.73,60.016
					C4.694,60,4.638,59.96,4.638,59.904c-0.015-0.069-0.908-6.202-0.672-13.595c0.385-12.391,3.577-18.758,6.188-21.915
					c2.956-3.6,6.984-5.412,11.92-5.356c13.209,0.097,14.047,28.795,13.991,37.585c-0.015,0.055-0.059,0.11-0.08,0.139
					C31.57,59.364,26.368,60.914,20.509,61.371z M4.923,59.752c0.882,0.248,7.557,1.937,15.557,1.314l0,0
					c5.767-0.457,10.897-1.965,15.255-4.54c0.073-8.805-0.802-37.087-13.66-37.186c-4.836-0.04-8.771,1.717-11.691,5.261
					c-2.569,3.103-5.73,9.415-6.117,21.708C4.073,53.176,4.815,58.947,4.923,59.752z"/>
			</g>
			<g>
				<g>
					<path style="fill:#E6E7E8;" d="M33.874,41.215c0.608,9.345-3.899,17.222-10.09,17.595c-6.151,0.348-11.641-6.907-12.228-16.265
						c-0.608-9.346,3.906-17.223,10.082-17.582C27.814,24.602,33.301,31.871,33.874,41.215z"/>
					<path style="fill:#A7A9AC;" d="M31.414,40.661c0.37,5.856-2.776,10.826-7.014,11.074c-4.221,0.264-7.979-4.291-8.363-10.16
						c-0.357-5.87,2.781-10.826,7.019-11.089C27.291,30.237,31.034,34.791,31.414,40.661z"/>
					<path style="fill:#E6E7E8;" d="M30.976,34.265c0.952,2.534,0.416,5.04-1.237,5.622c-1.624,0.567-3.714-1.011-4.666-3.531
						c-0.93-2.505-0.392-4.996,1.226-5.579C27.937,30.195,30.025,31.773,30.976,34.265z"/>
				</g>
				<g>
					<path style="opacity:0.8;fill:#A7A9AC;" d="M13.166,37.63c0,0-2.503,4.748,0.658,12.266c3.207,7.502,11.857,7.143,9.948,4.761
						c0,0-5.438,0.154-8.158-7.571C13.332,40.467,15.063,35.803,13.166,37.63z"/>
					<path style="opacity:0.8;fill:#A7A9AC;" d="M31.872,44.786c0,0-0.816,5.054-3.836,6.922c-3.027,1.896,3.076,3.226,4.615-3.35
						C33.852,43.014,31.949,43.223,31.872,44.786z"/>
				</g>
				<path style="opacity:0.8;fill:#A7A9AC;" d="M20.343,54.409c-1.101-0.735-2.188-1.303-3.119-2.229
					c-1.2-1.205-1.695-2.686-2.341-4.167c-0.085-0.124-0.27-0.097-0.27,0.069c0,2.712,2.61,6.437,5.46,7.13
					C20.608,55.35,20.745,54.699,20.343,54.409z"/>
			</g>
			<path style="opacity:0.7;fill:#E6E7E8;" d="M22.791,20.187c0,0-6.598-1.716-11.692,4.999c-5.102,6.713-0.809,11.197,0.538,6.63
				c1.366-4.556,6.303-9.622,12.228-8.75c0,0,3.149,0.499,5.051,2.7C30.842,27.98,29.694,21.626,22.791,20.187z"/>
			<path style="opacity:0.5;fill:#D1D3D4;" d="M9.789,47.818c0,0,0.144,6.658,7.534,9.559c5.66,2.194-8.833,4.146-10.335-1.668
				C5.06,48.191,8.361,41.714,9.789,47.818z"/>
		</g>
		<path style="fill:#A7A9AC;" d="M34.748,43.36c0,0,1.924,12.39-2.835,13.248c-4.515,0.832-1.396-1.826,0.015-4.595
			C34.246,47.472,33.976,41.091,34.748,43.36z"/>
	</g>
</g>
<g id="Layer_1">
</g>
</svg>
