<?xml version="1.0" encoding="iso-8859-1"?>
<!-- Generator: Adobe Illustrator 15.0.0, SVG Export Plug-In . SVG Version: 6.00 Build 0)  -->
<!DOCTYPE svg PUBLIC "-//W3C//DTD SVG 1.1//EN" "http://www.w3.org/Graphics/SVG/1.1/DTD/svg11.dtd">
<svg version="1.1" xmlns="http://www.w3.org/2000/svg" xmlns:xlink="http://www.w3.org/1999/xlink" x="0px" y="0px"
	 width="79.999px" height="80px" viewBox="0 0 79.999 80" style="enable-background:new 0 0 79.999 80;" xml:space="preserve">
<g id="ico-beard-5">
	<g>
		<defs>
			<rect id="SVGID_1_" width="79.999" height="80"/>
		</defs>
		<clipPath id="SVGID_2_">
			<use xlink:href="#SVGID_1_"  style="overflow:visible;"/>
		</clipPath>
		<g style="clip-path:url(#SVGID_2_);">
			<path style="fill:none;" d="M59.746,0H20.253C9.067,0,0,9.066,0,20.253v39.493C0,70.932,9.067,80,20.253,80h39.493
				c11.186,0,20.253-9.068,20.253-20.254V20.253C79.999,9.066,70.932,0,59.746,0z"/>
		</g>
	</g>
	<g>
		<g>
			<path style="fill:#A7A9AC;" d="M78.755,21.75c-0.548-1.29-1.472-2.443-2.364-3.51c-0.934-1.125,0.293-1.51-0.711-2.568
				c-0.107,0.333-2.313-0.124-2.43,0.204c0.349,1.567,0.208,3.188-0.257,4.737c0.025,0.195,0.039,0.391,0.049,0.588
				c1.45,6.236-2.648,13.94-7.556,17.518c-0.807,0.587-1.786,0.745-2.705,0.562c-0.42,1.205-1.206,2.303-1.995,3.31
				c0.021-1.505,0.091-3.037-0.116-4.526c-0.042-0.049-0.086-0.097-0.125-0.146c-0.107-0.133-0.203-0.272-0.302-0.41
				c0,0.073-0.004,0.145-0.008,0.219c-0.013,0.021-0.023,0.047-0.028,0.077c-0.279,1.542-0.497,3.033-0.909,4.526
				c-0.082-0.321-0.176-0.636-0.326-0.943c-0.095-0.19-0.342-0.059-0.355,0.108c-0.023,0.337-0.031,0.675-0.037,1.011
				c-0.01,0.519-0.003,1.159-0.562,0.682c-0.599-0.513-1.188-0.94-1.911-1.244c-3.223-2.927-7.564-5.308-11.612-3.67
				c0.628-0.616,1.379-1.089,2.236-1.367c0.213-0.065,0.211-0.392-0.016-0.439c-2.386-0.521-4.993,0.198-6.993,1.582
				c0.285-0.516,0.536-1.043,0.662-1.642c0.047-0.226-0.21-0.332-0.364-0.199c-1.318,1.129-2.747,2.016-4.232,2.876
				c0.066-0.096,0.129-0.194,0.208-0.284c0.11-0.136-0.004-0.325-0.18-0.285c-0.372,0.087-0.728,0.216-1.072,0.362
				c-0.035-0.032-0.09-0.052-0.138-0.023c-2.436,1.301-5.487-0.1-7.896-0.871c-0.25-0.079-0.356,0.279-0.155,0.409
				c0.253,0.156,0.478,0.333,0.695,0.521c-1.949-0.714-4.04-0.934-5.964,0.014c-0.205,0.1-0.145,0.469,0.085,0.5
				c0.328,0.045,0.647,0.103,0.966,0.169c-2.73,0.564-5.069,2.41-6.719,4.753c-0.464-0.676-0.504-1.522-0.512-2.343
				c-0.226-0.036-0.448-0.095-0.659-0.174c-0.21,0.415-0.421,0.827-0.616,1.246c-0.329-0.653-0.507-1.316-0.604-1.987
				c-0.378-0.346-0.691-0.77-0.902-1.258c-0.161-0.371-0.271-0.76-0.35-1.159c-0.056,0.142-0.115,0.28-0.158,0.427
				c-0.031-0.316-0.056-0.633-0.071-0.951c-0.466-0.484-0.909-0.984-1.339-1.495c-0.13,0.336-0.232,0.679-0.298,1.024
				c-0.094-0.518-0.133-1.036-0.133-1.555c-0.708-0.896-1.352-1.838-1.89-2.847c-0.728-1.368-1.179-2.837-1.548-4.332
				c-0.905-1.534-1.702-3.102-2.184-4.821c-0.332,0.671-0.574,1.377-0.638,2.112c-0.006,0.085,0.051,0.143,0.123,0.162
				c-1.378,1.672-2.447,3.651-3.121,5.475c-0.622,1.683-0.94,3.619-0.539,5.399c0.126,0.56,0.744,1.533,1.211,1.403
				c-0.343,0.989-0.604,1.998-0.809,2.958c-0.249,1.17-0.335,2.439,0.364,3.474c0.234,0.344,0.484,0.372,0.693,0.247
				c-0.208,1.325-0.285,3.295,0.79,4.23c0.123,0.106,0.278,0.09,0.378-0.005c0.065,1.765,0.365,4.29,2.123,5.133
				c0.161,0.074,0.373,0.004,0.411-0.184c0.048-0.235,0.063-0.469,0.069-0.705c0.429,1.765,1.207,3.453,2.23,4.919
				c0.538,0.771,1.638,2.129,2.74,1.793c0.314-0.099,0.488-0.316,0.573-0.592c0.613,1.263,1.479,2.417,2.531,3.416
				c0.559,0.529,1.535,1.161,2.226,0.54c0.039-0.04,0.063-0.087,0.091-0.133c0.323,0.455,0.684,0.884,1.084,1.276
				c0.833,0.825,2.524,2.412,3.77,1.756c0.771,0.93,1.727,1.746,2.78,2.44c0.687,0.453,2.138,1.282,2.899,0.533
				c0.278-0.271,0.405-0.62,0.438-0.992c0.162,0.323,0.33,0.645,0.517,0.959c0.929,1.571,2.448,3.622,4.149,4.467
				c0.017,0.161,0.029,0.321,0.062,0.479c0.2,1.071,1.281,3.119,2.677,2.314c0.872-0.504,1.615-1.264,2.425-1.864
				c0.95-0.707,1.804-1.467,2.619-2.33c0.122-0.13,0.242-0.265,0.361-0.4c0.568,1.188,4.133-1.721,4.439-1.974
				c0.296-0.244,0.581-0.505,0.863-0.763c0.004,0.015,0,0.03,0.005,0.046c0.871,3.107,6.205,0.855,7.92,0.003
				c0.518-0.256,0.993-0.569,1.444-0.921c0.034,0.271,0.231,0.486,0.576,0.585c0.772,0.214,1.78-0.377,2.437-0.7
				c1.048-0.514,2.057-1.257,2.936-2.135c0.049,0.147,0.15,0.271,0.286,0.358c-0.06,0.199,0.073,0.465,0.326,0.463
				c1.845-0.029,3.408-1.012,4.874-2.021c1.588-1.092,2.975-2.459,4.133-3.999c1.146-1.524,2.025-3.279,2.521-5.124
				c0.198-0.748,0.248-1.51,0.194-2.272c0.176,0.486,0.357,0.97,0.567,1.442c0.096,0.212,0.392,0.286,0.517,0.053
				c1.333-2.491,1.925-5.739,1.703-8.814c1.858-2.668,2.946-5.786,3.375-9.018c0.312-2.341,0.242-4.992-0.709-7.237
				c0.473,0.587,0.899,1.196,1.147,1.886c0.03,0.186,0.059,0.371,0.093,0.56c0.009,0.051,0.042,0.071,0.08,0.08
				c0.041,0.24,0.065,0.485,0.061,0.748c-0.001,0.09,0.122,0.089,0.146,0.015c0.208-0.608,0.184-1.227,0.015-1.829
				c0.026-2.01-0.39-4.083-0.871-6.007c-0.472-1.872-1.214-4.021-2.449-5.605c0.235,0.172,0.469,0.351,0.696,0.535
				c0.859,0.705,1.534,1.58,2.304,2.373c0.074,0.074,0.203-0.011,0.172-0.107C79.231,22.575,79.018,22.149,78.755,21.75z
				 M48.701,46.625c-1.576,0.478-3.078,1.212-4.412,2.174c0.147-0.228,0.294-0.459,0.44-0.688c0.16-0.251-0.167-0.473-0.384-0.359
				c-2.16,1.087-4.611,2.654-6.094,4.632c-1.903-1.272-4.229-2.134-6.415-2.718c-1.6-0.428-3.217-0.484-4.803-0.23
				c0.39-0.178,0.778-0.357,1.156-0.56c0.228-0.121,0.144-0.467-0.087-0.521c-2.587-0.637-5.38,0.107-7.835,1.085
				c1.098-1.381,2.459-2.583,4.098-3.259c0.188-0.077,0.232-0.407-0.018-0.443c-0.463-0.069-0.927-0.087-1.391-0.084
				c1.327-0.551,2.926-0.544,4.302-0.791c0.174-0.032,0.196-0.318,0.036-0.385c-0.411-0.17-0.828-0.337-1.254-0.482
				c0.682-0.043,1.366-0.073,2.05-0.097c1.308-0.05,2.644,0.391,3.951,0.485c0.156,0.011,0.258-0.199,0.169-0.323
				c-0.375-0.522-0.809-0.986-1.258-1.439c0.791,0.451,1.623,0.835,2.378,1.346c0.144,0.098,0.37-0.01,0.399-0.176
				c0.029-0.18,0.051-0.36,0.076-0.542c0.224,0.236,0.456,0.464,0.703,0.675c0.087,0.075,0.195,0.049,0.254-0.038
				c0.588-0.84,1.314-1.462,2.182-1.963c-0.167,0.574-0.439,1.11-0.557,1.706c-0.05,0.262,0.255,0.415,0.439,0.24
				c1.186-1.121,2.658-1.739,4.119-2.388c-0.482,0.382-0.929,0.813-1.33,1.317c-0.251,0.318,0.184,0.745,0.472,0.44
				c0.87-0.917,2.041-1.199,3.225-1.435c-0.295,0.235-0.574,0.487-0.853,0.754c-0.18,0.171,0.069,0.452,0.269,0.329
				c2.242-1.374,4.953-0.178,7.043,0.966c1.161,0.635,2.318,1.334,3.44,2.081C51.702,45.803,50.016,46.229,48.701,46.625z"/>
		</g>
		<g style="opacity:0.5;">
			<path style="fill:#A7A9AC;" d="M78.755,21.75c-0.548-1.29-1.472-2.443-2.364-3.51c-0.934-1.125,0.596-2.291-0.409-3.351
				c-0.108,0.333-2.615,0.657-2.731,0.984c0.205,0.923,0.246,1.863,0.146,2.801c1.13,1.144,1.991,2.617,2.264,3.838
				c0.03,0.14-0.047,0.264-0.182,0.293c0.818,0.818,1.579,1.979,0.947,2.557c-0.729,0.67-2.197-1.023-3.104-2.157
				c0.199,3.868-1.395,8.049-3.781,11.354c1.814,1.208,3.958,2.456,4.808,4.52c0.094,0.229-0.212,0.375-0.377,0.236
				c-0.759-0.651-1.62-0.979-2.563-1.155c1.129,1.601,2.793,3.44,2.264,5.464c-0.055,0.201-0.304,0.23-0.421,0.066
				c-0.541-0.748-1.094-1.494-1.868-1.978c1.079,1.867,2.323,3.909,1.829,6.093c-0.036,0.154-0.202,0.211-0.336,0.149
				c-2.14-0.981-2.877-3.72-5.083-4.502c1.229,1.58,2.273,3.391,2.919,5.27c0.624,1.807,1.018,3.964-0.328,5.523
				c-0.112,0.134-0.339,0.071-0.39-0.09c-0.424-1.353-0.512-2.77-0.893-4.12c0.017,2.015-0.033,4.143-0.973,5.901
				c-0.468,0.875-1.372,2.813-2.593,2.738c-1.16-0.071-0.57-2.404-0.47-3.013c0.311-1.895,0.459-3.878-0.107-5.736
				c-0.402,3.148-0.433,7.017-3.397,8.782c-0.116,0.067-0.315,0.023-0.345-0.13c-0.382-2.042,0.423-3.956,0.447-5.984
				c0.024-2.181-0.598-4.282-1.337-6.317c-0.235-0.429-0.52-0.829-0.865-1.213c-0.164-0.184,0.031-0.521,0.267-0.371
				c0.44,0.281,0.841,0.568,1.197,0.937c0.71-1.248,1.212-2.602,2.003-3.803c0.14-0.214,0.488-0.102,0.43,0.164
				c-0.144,0.665-0.297,1.324-0.448,1.987c0.751-1.602,1.374-3.256,1.988-4.919c-0.672,0.302-1.41,0.36-2.116,0.222
				c-0.42,1.205-1.206,2.303-1.995,3.31c0.021-1.505,0.091-3.037-0.116-4.526c-0.042-0.049-0.086-0.097-0.125-0.146
				c-0.107-0.133-0.203-0.272-0.302-0.41c0,0.073-0.004,0.145-0.008,0.219c-0.013,0.021-0.023,0.047-0.028,0.077
				c-0.279,1.542-0.497,3.033-0.909,4.526c-0.082-0.321-0.176-0.636-0.326-0.943c-0.095-0.19-0.342-0.059-0.355,0.108
				c-0.023,0.337-0.031,0.675-0.037,1.011c-0.01,0.519-0.003,1.159-0.562,0.682c-0.599-0.513-1.188-0.94-1.911-1.244
				c-0.175-0.161-0.357-0.318-0.54-0.475c0.31,0.422,0.601,0.861,0.859,1.319c0.111,0.196-0.093,0.44-0.304,0.325
				c-0.353-0.192-0.708-0.305-1.083-0.327c2.823,2.979,5.563,6.271,5.591,10.576c0.001,0.26-0.373,0.328-0.454,0.074
				c-1.093-3.463-3.049-6.324-5.573-8.912c-1.341-1.37-2.737-2.69-4.604-3.281c-1.563-0.492-3.174-0.603-4.8-0.639
				c-0.275-0.004-0.31-0.349-0.08-0.451c0.929-0.418,1.901-0.529,2.889-0.567c-1.946-0.455-3.937-0.374-5.857,0.328
				c-0.248,0.09-0.415-0.285-0.192-0.419c0.883-0.528,1.806-0.939,2.759-1.298c-0.074,0.028-0.149,0.048-0.223,0.076
				c0.439-0.431,0.946-0.789,1.502-1.062c-2.874,0.355-5.799,1.734-7.795,3.605c-0.219,0.205-0.523-0.084-0.341-0.317
				c0.302-0.38,0.594-0.761,0.9-1.128c-1.521,0.697-3.035,1.404-4.654,1.858c-0.254,0.067-0.412-0.273-0.192-0.421
				c1.98-1.333,4.275-2.261,5.683-4.265c-1.2,0.965-2.479,1.768-3.81,2.539c0.066-0.096,0.129-0.194,0.208-0.284
				c0.11-0.136-0.004-0.325-0.18-0.285c-0.372,0.087-0.728,0.216-1.072,0.362c-0.035-0.032-0.09-0.052-0.138-0.023
				c-2.436,1.301-5.487-0.1-7.896-0.871c-0.25-0.079-0.356,0.279-0.155,0.409c0.163,0.1,0.311,0.21,0.456,0.324
				c1.268,0.393,2.497,0.927,3.647,1.571c0.227,0.128,0.096,0.492-0.162,0.43c-1.556-0.395-3.175-0.466-4.708-0.05
				c1.121,0.235,2.185,0.609,3.056,1.407c0.212,0.194-0.034,0.462-0.266,0.373c-2.257-0.877-5.517-0.046-7.516,1.466
				c0.523-0.114,1.048-0.217,1.588-0.259c0.222-0.016,0.338,0.321,0.134,0.428c-3.438,1.78-5.7,5.552-6.332,9.313
				c-0.044,0.261-0.449,0.207-0.455-0.051c-0.041-1.368,0.076-2.595,0.534-3.885c0.205-0.571,0.591-1.058,0.979-1.539
				c-0.48,0.383-0.923,0.808-1.35,1.26c-0.188,0.196-0.479-0.036-0.374-0.269c1.168-2.608,3.146-4.677,5.597-6.06
				c-2.146,0.445-4.111,1.51-5.651,3.096c-0.181,0.188-0.504-0.036-0.375-0.268c0.678-1.216,1.34-2.582,2.302-3.633
				c-0.759,0.682-1.445,1.458-2.04,2.301c-0.464-0.676-0.504-1.522-0.512-2.343c-0.226-0.036-0.448-0.095-0.659-0.174
				c-0.21,0.415-0.421,0.827-0.616,1.246c-0.329-0.653-0.507-1.316-0.604-1.987c-0.378-0.346-0.691-0.77-0.902-1.258
				c-0.161-0.371-0.271-0.76-0.35-1.159c-0.056,0.142-0.115,0.28-0.158,0.427c-0.031-0.316-0.056-0.633-0.071-0.951
				c-0.466-0.484-0.909-0.984-1.339-1.495c-0.13,0.336-0.232,0.679-0.298,1.024c-0.094-0.518-0.133-1.036-0.133-1.555
				c-0.708-0.896-1.352-1.838-1.89-2.847c-0.262-0.494-0.479-1.006-0.679-1.52c-0.453,1.229-1.037,2.42-1.469,3.661
				c0.388-0.441,0.824-0.829,1.369-1.095c0.17-0.081,0.409,0.039,0.349,0.252c-0.139,0.518-0.388,0.982-0.615,1.459
				c0.249-0.178,0.503-0.345,0.775-0.489c0.167-0.087,0.326,0.013,0.356,0.188c0.221,1.309-0.517,2.391-0.94,3.565
				c0.469-0.41,0.964-0.764,1.592-0.949c0.147-0.043,0.289,0.063,0.302,0.212c0.083,1.081-0.449,1.987-0.828,2.951
				c0.66-0.586,1.382-1.075,2.211-1.435c0.132-0.06,0.303,0.074,0.3,0.212c-0.057,1.849-0.829,3.575-1.027,5.395
				c0.429-0.907,0.856-1.847,1.716-2.37c0.12-0.07,0.313-0.023,0.346,0.13c0.231,1.055-0.04,2.076-0.035,3.128
				c0.453-0.388,0.922-0.709,1.531-0.862c0.128-0.034,0.314,0.055,0.301,0.214c-0.205,2.188-0.906,4.326-0.959,6.529
				c-0.045,1.894,0.758,3.797,0.479,5.669c-0.016,0.115-0.167,0.215-0.277,0.171c-1.791-0.688-2.295-2.903-2.5-4.606
				c-0.178-1.508-0.219-3.074-0.061-4.606c-0.583,1.6-0.77,3.415-1.579,4.903c-0.067,0.123-0.257,0.168-0.36,0.056
				c-1.265-1.336-1.281-3.804-1.189-5.511c0.119-2.21,1.021-4.099,2.039-5.989c-2.148,1.477-3.627,3.614-4.129,6.241
				c-0.05,0.26-0.448,0.213-0.456-0.046c-0.071-3.109,0.923-6.051,2.996-8.311c-1.284,0.43-2.328,1.229-3.368,2.153
				c-0.197,0.171-0.487-0.023-0.376-0.272c0.696-1.509,2.436-2.578,2.833-4.207c-1.386,0.128-2.194,1.183-3.164,2.105
				c-0.13,0.121-0.421,0.065-0.4-0.153c0.14-1.552,0.499-3.07,1.084-4.513c0.584-1.443,1.401-2.779,1.93-4.248
				c-1.612,0.367-2.673,1.788-3.565,3.103c-0.13,0.191-0.405,0.132-0.435-0.104c-0.287-2.448,1.772-4.918,3.783-6.346
				c-0.664-1.218-1.233-2.474-1.61-3.819c-0.332,0.671-0.574,1.377-0.638,2.112c-0.006,0.085,0.051,0.143,0.123,0.162
				c-1.378,1.672-2.447,3.651-3.121,5.475c-0.622,1.683-0.94,3.619-0.539,5.399c0.126,0.56,0.744,1.533,1.211,1.403
				c-0.343,0.989-0.604,1.998-0.809,2.958c-0.249,1.17-0.335,2.439,0.364,3.474c0.234,0.344,0.484,0.372,0.693,0.247
				c-0.208,1.325-0.285,3.295,0.79,4.23c0.123,0.106,0.278,0.09,0.378-0.005c0.065,1.765,0.365,4.29,2.123,5.133
				c0.161,0.074,0.373,0.004,0.411-0.184c0.048-0.235,0.063-0.469,0.069-0.705c0.429,1.765,1.207,3.453,2.23,4.919
				c0.538,0.771,1.638,2.129,2.74,1.793c0.314-0.099,0.488-0.316,0.573-0.592c0.613,1.263,1.479,2.417,2.531,3.416
				c0.559,0.529,1.535,1.161,2.226,0.54c0.039-0.04,0.063-0.087,0.091-0.133c0.323,0.455,0.684,0.884,1.084,1.276
				c0.833,0.825,2.524,2.412,3.77,1.756c0.771,0.93,1.727,1.746,2.78,2.44c0.687,0.453,2.138,1.282,2.899,0.533
				c0.278-0.271,0.405-0.62,0.438-0.992c0.162,0.323,0.33,0.645,0.517,0.959c0.929,1.571,2.448,3.622,4.149,4.467
				c0.017,0.161,0.029,0.321,0.062,0.479c0.2,1.071,1.281,3.119,2.677,2.314c0.872-0.504,1.615-1.264,2.425-1.864
				c0.95-0.707,1.804-1.467,2.619-2.33c0.122-0.13,0.242-0.265,0.361-0.4c0.568,1.188,4.133-1.721,4.439-1.974
				c0.296-0.244,0.581-0.505,0.863-0.763c0.004,0.015,0,0.03,0.005,0.046c0.871,3.107,6.205,0.855,7.92,0.003
				c0.518-0.256,0.993-0.569,1.444-0.921c0.034,0.271,0.231,0.486,0.576,0.585c0.772,0.214,1.78-0.377,2.437-0.7
				c1.048-0.514,2.057-1.257,2.936-2.135c0.049,0.147,0.15,0.271,0.286,0.358c-0.06,0.199,0.073,0.465,0.326,0.463
				c1.845-0.029,3.408-1.012,4.874-2.021c1.588-1.092,2.975-2.459,4.133-3.999c1.146-1.524,2.025-3.279,2.521-5.124
				c0.198-0.748,0.248-1.51,0.194-2.272c0.176,0.486,0.357,0.97,0.567,1.442c0.096,0.212,0.392,0.286,0.517,0.053
				c1.333-2.491,1.925-5.739,1.703-8.814c1.858-2.668,2.946-5.786,3.375-9.018c0.312-2.341,0.242-4.992-0.709-7.237
				c0.473,0.587,0.899,1.196,1.147,1.886c0.03,0.186,0.059,0.371,0.093,0.56c0.009,0.051,0.042,0.071,0.08,0.08
				c0.041,0.24,0.065,0.485,0.061,0.748c-0.001,0.09,0.122,0.089,0.146,0.015c0.208-0.608,0.184-1.227,0.015-1.829
				c0.026-2.01-0.39-4.083-0.871-6.007c-0.472-1.872-1.214-4.021-2.449-5.605c0.235,0.172,0.469,0.351,0.696,0.535
				c0.859,0.705,1.534,1.58,2.304,2.373c0.074,0.074,0.203-0.011,0.172-0.107C79.231,22.575,79.018,22.149,78.755,21.75z
				 M24.366,46.181c0.188-0.077,0.232-0.407-0.018-0.443c-0.463-0.069-0.927-0.087-1.391-0.084c1.327-0.551,2.926-0.544,4.302-0.791
				c0.174-0.032,0.196-0.318,0.036-0.385c-0.411-0.17-0.828-0.337-1.254-0.482c0.682-0.043,1.366-0.073,2.05-0.097
				c1.308-0.05,2.644,0.391,3.951,0.485c0.156,0.011,0.258-0.199,0.169-0.323c-0.375-0.522-0.809-0.986-1.258-1.439
				c0.791,0.451,1.623,0.835,2.378,1.346c0.144,0.098,0.37-0.01,0.399-0.176c0.029-0.18,0.051-0.36,0.076-0.542
				c0.224,0.236,0.456,0.464,0.703,0.675c0.087,0.075,0.195,0.049,0.254-0.038c0.588-0.84,1.314-1.462,2.182-1.963
				c-0.167,0.574-0.439,1.11-0.557,1.706c-0.05,0.262,0.255,0.415,0.439,0.24c1.186-1.121,2.658-1.739,4.119-2.388
				c-0.482,0.382-0.929,0.813-1.33,1.317c-0.251,0.318,0.184,0.745,0.472,0.44c0.87-0.917,2.041-1.199,3.225-1.435
				c-0.295,0.235-0.574,0.487-0.853,0.754c-0.18,0.171,0.069,0.452,0.269,0.329c2.242-1.374,4.953-0.178,7.043,0.966
				c1.161,0.635,2.318,1.334,3.44,2.081c-1.512-0.132-3.198,0.294-4.513,0.69c-1.576,0.478-3.078,1.212-4.412,2.174
				c0.147-0.228,0.294-0.459,0.44-0.688c0.16-0.251-0.167-0.473-0.384-0.359c-2.16,1.087-4.611,2.654-6.094,4.632
				c-1.903-1.272-4.229-2.134-6.415-2.718c-1.6-0.428-3.217-0.484-4.803-0.23c0.39-0.178,0.778-0.357,1.156-0.56
				c0.228-0.121,0.144-0.467-0.087-0.521c-2.587-0.637-5.38,0.107-7.835,1.085C21.366,48.059,22.728,46.856,24.366,46.181z
				 M57.956,60.013c-0.14,0.166-0.379,0.032-0.401-0.154c-0.142-1.231-0.074-2.486-0.327-3.691
				c-0.308,2.106-0.723,4.163-1.818,6.022c-0.445,0.758-1.576,2.782-2.745,2.052c-0.923-0.577-0.16-2.732,0.031-3.465
				c0.249-0.958,0.537-1.901,0.757-2.866c0.103-0.447,0.245-0.96,0.261-1.453c-1.003,1.962-1.542,4.411-3.515,5.594
				c-0.135,0.08-0.366-0.007-0.354-0.19c0.171-2.238,1.084-4.358,1.195-6.587c-0.647,1.8-1.072,3.666-1.956,5.386
				c-0.76,1.489-1.593,3.102-2.861,4.225c-0.754,0.665-2.025,0.791-2.354-0.411c-0.412-1.506,0.516-3.474-0.06-4.925
				c-0.989,2.194-1.2,4.896-3.125,6.526c-0.181,0.151-0.425,0.024-0.396-0.216c0.293-2.326,1.238-4.634,1.066-6.997
				c-1.443,4.279-3.075,8.507-6.202,11.854c-0.128,0.135-0.413,0.057-0.403-0.152c0.149-2.74,1.122-5.392,0.892-8.13
				c-0.354,1.394-0.542,2.843-1.303,4.088c-0.071,0.116-0.192,0.143-0.313,0.093c-1.102-0.458-1.318-1.967-1.54-2.986
				c-0.238-1.101-0.74-2.119-1.133-3.167c0.083,2.456,0.169,4.918-0.334,7.339c-0.046,0.214-0.303,0.21-0.421,0.065
				c-2.343-2.84-3.41-6.38-4.426-9.855c-0.214,1.143-0.126,2.332-0.477,3.457c-0.039,0.126-0.204,0.241-0.333,0.15
				c-0.927-0.666-1.498-1.829-1.874-3.032c0.029,1.022,0.064,2.044,0.141,3.07c0.086,1.203,0.159,2.451-0.361,3.565
				c-0.07,0.147-0.249,0.141-0.361,0.057c-1.254-0.935-1.776-2.685-2.203-4.115c-0.252-0.832-0.514-1.655-0.563-2.532
				c-0.049-0.912-0.032-1.826-0.099-2.74c-0.906,0.948-1.405,2.179-1.672,3.472c-0.053,0.259-0.447,0.212-0.455-0.046
				c-0.044-1.393-0.012-2.851,0.491-4.145c-0.904,0.93-1.567,2.102-1.762,3.394c-0.044,0.296-0.485,0.179-0.449-0.111
				c0.376-3.027,1.222-6.036,4.2-7.388c0.008-0.004,0.016-0.003,0.023-0.004c0.642-0.499,1.321-0.967,2.028-1.424
				c0.216-0.139,0.49,0.18,0.296,0.355c-1.13,1.01-2.188,2.23-2.364,3.776c0.888-0.492,1.511-1.369,2.382-1.901
				c0.205-0.125,0.425,0.103,0.33,0.31c-0.264,0.566-0.729,1.12-0.664,1.77c0.809-0.55,1.496-1.237,2.404-1.646
				c1.25-0.559,2.565-0.854,3.895-1.169c0.266-0.063,0.393,0.255,0.193,0.418c-1.254,1.02-2.174,2.238-2.194,3.868
				c1.443-0.926,2.354-2.583,4.131-2.959c0.175-0.036,0.328,0.094,0.295,0.276c-0.209,1.12-0.839,2.095-1.077,3.194
				c1.294-1.104,2.624-2.327,4.375-2.544c1.439-0.178,2.792,0.114,4.096,0.616c2.669-2.564,6.397-2.975,9.901-1.759
				c-0.894-0.638-1.935-1.096-2.998-1.229c-0.245-0.03-0.209-0.374-0.016-0.445c2.886-1.09,5.484,0.563,8.103,1.667
				c-0.66-1.652-3.041-2.355-4.594-2.712c-0.184-0.042-0.26-0.332-0.073-0.422c1.735-0.847,3.521-0.287,5.237,0.356
				c-0.48-0.646-1.152-1.025-1.979-1.263c-0.209-0.06-0.249-0.388-0.016-0.447c1.455-0.368,2.965,0.018,4.133,0.879
				c0.067-0.021,0.145-0.014,0.213,0.059c0.134,0.144,0.258,0.297,0.381,0.45c0.552,0.554,0.985,1.233,1.232,1.999
				c0.016,0.043,0.012,0.079,0.006,0.117c0.427,1.013,0.708,2.098,0.865,3.134C59.229,56.28,59.247,58.474,57.956,60.013z"/>
			<path style="fill:#A7A9AC;" d="M65.767,38.504c0,0.891-0.109,1.77-0.242,2.645c0.17-0.456,0.349-0.908,0.567-1.347
				c0.055-0.113,0.202-0.147,0.31-0.09c0.624,0.318,1.049,0.817,1.517,1.313c0.526-1.096,0.04-2.364,0.298-3.545
				c0.039-0.179,0.25-0.218,0.382-0.113c0.429,0.35,0.721,0.813,1.138,1.158c-0.009-1.127-0.345-2.199-0.728-3.256
				C68.018,36.522,66.916,37.624,65.767,38.504z"/>
		</g>
		<path style="opacity:0.5;fill:#A7A9AC;" d="M56.114,47.684c-1.673-2.033-4.313-3.555-6.617-4.764
			c-1.89-0.993-3.828-1.471-5.763-0.903c0.217-0.164,0.439-0.317,0.686-0.447c0.195-0.104,0.082-0.411-0.127-0.405
			c-0.826,0.024-1.742,0.188-2.601,0.482c0.429-0.387,0.859-0.776,1.267-1.189c0.091-0.093-0.035-0.224-0.141-0.168
			c-0.181,0.095-0.358,0.193-0.53,0.294c-0.057-0.093-0.163-0.159-0.281-0.123c-1.698,0.507-3.583,1.304-4.972,2.497
			c0.118-0.439,0.27-0.867,0.324-1.327c0.017-0.146-0.115-0.253-0.25-0.178c-0.623,0.337-1.193,0.715-1.726,1.188
			c-0.767,0.685-0.759,1.255-1.547,0.042c-0.104-0.159-0.33-0.109-0.382,0.063c-0.053,0.178-0.106,0.353-0.157,0.529
			c-1.094-0.76-2.286-1.381-3.596-1.639c-0.057-0.011-0.104,0.059-0.055,0.103c0.121,0.1,0.247,0.195,0.375,0.287
			c0.474,0.663,1.04,1.242,1.541,1.875c-1.17-0.175-2.302-0.543-3.494-0.614c-1.286-0.076-2.646,0.09-3.916,0.298
			c-0.001,0-0.002,0-0.004,0l0,0c-0.024,0.005-0.052,0.006-0.079,0.012c-0.336,0.058-0.224,0.59,0.102,0.583
			c0.789-0.021,1.479,0.127,2.179,0.373c-1.625,0.155-3.388,0.162-4.694,1.178c-0.214,0.166-0.144,0.553,0.166,0.536
			c0.49-0.024,0.971-0.077,1.454-0.099c-1.684,0.863-3.02,2.226-4.106,3.797c-0.138,0.195,0.114,0.506,0.336,0.409
			c2.348-1.023,5.022-1.967,7.629-1.617c-0.888,0.415-1.795,0.771-2.603,1.348c-0.258,0.183-0.078,0.647,0.247,0.531
			c2.286-0.832,4.533-0.832,6.893-0.267c2.243,0.537,4.613,1.468,6.657,2.54c0.217,0.112,0.362-0.153,0.229-0.308
			c0.998-0.633,1.875-1.495,2.804-2.213c0.748-0.578,1.521-1.117,2.323-1.614c-0.26,0.407-0.52,0.808-0.793,1.206
			c-0.18,0.263,0.22,0.494,0.427,0.308c1.493-1.355,3.351-2.287,5.241-2.955c1.04-0.367,2.127-0.611,3.224-0.749
			c0.797-0.1,1.575-0.02,2.367-0.006c0.592,0.417,1.175,0.85,1.735,1.297C56.009,47.972,56.229,47.824,56.114,47.684z
			 M48.701,46.625c-1.576,0.478-3.078,1.212-4.412,2.174c0.147-0.228,0.294-0.459,0.44-0.688c0.16-0.251-0.167-0.473-0.384-0.359
			c-2.16,1.087-4.611,2.654-6.094,4.632c-1.903-1.272-4.229-2.134-6.415-2.718c-1.6-0.428-3.217-0.484-4.803-0.23
			c0.39-0.178,0.778-0.357,1.156-0.56c0.228-0.121,0.144-0.467-0.087-0.521c-2.587-0.637-5.38,0.107-7.835,1.085
			c1.098-1.381,2.459-2.583,4.098-3.259c0.188-0.077,0.232-0.407-0.018-0.443c-0.463-0.069-0.927-0.087-1.391-0.084
			c1.327-0.551,2.926-0.544,4.302-0.791c0.174-0.032,0.196-0.318,0.036-0.385c-0.411-0.17-0.828-0.337-1.254-0.482
			c0.682-0.043,1.366-0.073,2.05-0.097c1.308-0.05,2.644,0.391,3.951,0.485c0.156,0.011,0.258-0.199,0.169-0.323
			c-0.375-0.522-0.809-0.986-1.258-1.439c0.791,0.451,1.623,0.835,2.378,1.346c0.144,0.098,0.37-0.01,0.399-0.176
			c0.029-0.18,0.051-0.36,0.076-0.542c0.224,0.236,0.456,0.464,0.703,0.675c0.087,0.075,0.195,0.049,0.254-0.038
			c0.588-0.84,1.314-1.462,2.182-1.963c-0.167,0.574-0.439,1.11-0.557,1.706c-0.05,0.262,0.255,0.415,0.439,0.24
			c1.186-1.121,2.658-1.739,4.119-2.388c-0.482,0.382-0.929,0.813-1.33,1.317c-0.251,0.318,0.184,0.745,0.472,0.44
			c0.87-0.917,2.041-1.199,3.225-1.435c-0.295,0.235-0.574,0.487-0.853,0.754c-0.18,0.171,0.069,0.452,0.269,0.329
			c2.242-1.374,4.953-0.178,7.043,0.966c1.161,0.635,2.318,1.334,3.44,2.081C51.702,45.803,50.016,46.229,48.701,46.625z"/>
		<path style="opacity:0.5;fill:#A7A9AC;" d="M78.764,21.744c-0.549-1.289-0.39-2.559-1.282-3.624
			c-0.936-1.122,0.932-0.376-0.076-1.435c-0.074,0.229-3.963-1.352-4.041-1.127c1.271,1.275,2.403,2.742,3.475,4.229
			c-0.859-0.616-1.828-1.093-2.764-1.391c-0.201-0.063-0.28,0.222-0.122,0.325c0.484,0.313,0.969,0.616,1.447,0.932
			c0.002,0.016-0.003,0.028,0.005,0.043c1.09,2.09,2.117,3.992,2.696,6.301c0.367,1.452,0.563,2.934,0.769,4.414
			c-0.655-1.002-1.594-1.881-2.384-2.497c-0.166-0.126-0.427,0.051-0.294,0.246c0.189,0.279,0.403,0.548,0.624,0.813
			c1.264,2.831,1.63,5.762,1.218,8.849c-0.387,2.906-1.588,5.367-2.786,7.938c-0.16-1.29-0.464-2.533-0.931-3.656
			c-0.042-0.103-0.212-0.091-0.201,0.033c0.325,4.198,1.083,8.541-0.723,12.488c-0.595-1.459-1.007-2.991-1.757-4.388
			c-0.148-0.275-0.604-0.065-0.492,0.224c0.707,1.856,0.953,3.64,0.479,5.577c-0.444,1.832-1.449,3.567-2.571,5.059
			c-1.94,2.573-4.587,4.544-7.662,5.426c-0.136-0.006-0.271-0.019-0.403-0.038c-0.102-0.015-0.283-0.049-0.327-0.155
			c-0.028-0.076-0.016-0.179,0.012-0.283c0.938-1.05,1.688-2.257,2.121-3.508c0.053-0.147-0.169-0.208-0.244-0.095
			c-1.242,1.893-2.613,3.729-4.531,4.989c-0.532,0.35-2.907,1.836-3.239,0.925c2.145-1.926,3.524-4.801,4.692-7.32
			c0.062-0.134-0.122-0.232-0.201-0.107c-1.587,2.469-2.955,5.005-5.129,7.023c-1.197,1.114-2.835,1.68-4.382,2.11
			c-1.576,0.439-3.211,0.911-4.329-0.602c-0.048-0.066-0.109-0.104-0.174-0.118c1.259-1.176,2.42-2.445,3.602-3.702
			c0.07-0.075-0.035-0.211-0.119-0.145c-1.743,1.383-3.376,2.904-5.091,4.321c-0.903,0.744-1.883,1.576-2.984,2.015
			c-0.143,0.06-0.371,0.015-0.586-0.017c0.98-1.233,1.767-2.659,1.869-4.246c0.005-0.096-0.132-0.096-0.157-0.017
			c-1.126,3.515-4.035,5.715-6.807,7.898c-0.745,0.586-1.497,1.363-2.352,0.274c-0.515-0.654-0.561-1.583-0.563-2.377
			c-0.001-1.311,0.375-2.579,0.439-3.885c0.011-0.191-0.282-0.209-0.329-0.032c-0.317,1.252-0.725,2.642-0.759,3.992
			c-0.411-0.414-0.865-0.792-1.279-1.201c-0.791-0.777-1.466-1.653-2.09-2.566c-1.234-1.814-2.066-3.873-2.688-5.965
			c-0.019-0.063-0.127-0.047-0.118,0.021c0.134,0.936,0.337,1.847,0.611,2.734c-0.068,0.043-0.114,0.115-0.104,0.203
			c0.085,0.691,1.03,2.832-0.37,2.681c-1.012-0.109-2.048-0.99-2.809-1.601c-0.532-0.423-1.007-0.882-1.428-1.37
			c0.059-0.178-0.095-0.372-0.278-0.36c-1.095-1.407-1.766-3.055-1.993-4.941c-0.016-0.108-0.165-0.104-0.17,0.006
			c-0.118,1.981,0.484,3.702,1.528,5.165c-1.155,0.167-2.441-1.272-3.16-1.993c-0.516-0.52-0.954-1.104-1.325-1.728
			c-0.106-0.284-0.239-0.542-0.334-0.701c-0.022-0.038-0.05-0.061-0.079-0.076c-0.447-0.953-0.734-1.983-0.854-3.034
			c-0.016-0.152-0.226-0.146-0.233,0.005c-0.063,1.481,0.311,2.897,1.001,4.161c0.056,0.608-0.505,0.66-1.067,0.243
			c-0.668-0.497-1.267-1.218-1.758-1.887c-1.31-1.781-2.088-3.911-2.25-6.104c-0.01-0.136-0.199-0.125-0.206,0.006
			c-0.065,1.193,0.094,2.345,0.438,3.436c0.023,0.177,0.049,0.357,0.065,0.535c0.093,1.013-0.683,0.927-1.304,0.453
			c-0.844-0.648-1.42-1.679-1.928-2.591c-1.567-2.818-2.036-6.001-1.509-9.156c0.02-0.125-0.157-0.169-0.194-0.046
			C5.058,49.26,4.962,50.841,5.159,52.4c-0.039,0.02-0.074,0.049-0.088,0.099c-0.146,0.49-0.138,0.986-0.202,1.484
			c-1.346-1.038-1.471-3.324-1.527-4.861c-0.094-2.464,0.334-4.923,1.985-6.824c0.086-0.098-0.053-0.226-0.149-0.138
			c-1.896,1.73-2.383,4.228-2.377,6.702c-0.062-0.007-0.123,0.01-0.167,0.063c-0.739-1.079-0.527-2.782-0.358-3.98
			c0.245-1.72,1.199-3.023,2.36-4.243c0.082-0.087-0.037-0.242-0.139-0.166c-1.337,1.02-2.211,2.276-2.643,3.838
			c-0.004,0.007-0.01,0.007-0.016,0.015c-0.584,1.019-0.838-0.932-0.847-1.1c-0.024-0.513,0.064-1.025,0.153-1.528
			c0.142-0.81,0.397-1.605,0.624-2.396c0.58-2,1.524-3.644,2.686-5.345c0.07-0.103-0.084-0.188-0.161-0.118
			c-1.166,1.048-1.997,2.47-2.605,3.988c-0.074-0.022-0.165-0.002-0.216,0.071c-0.374,0.536-0.763-1.028-0.792-1.212
			c-0.126-0.753-0.092-1.533-0.001-2.288c0.186-1.591,0.796-3.111,1.505-4.528c0.747-1.49,1.71-2.793,2.822-3.966
			c-0.083-0.196-0.161-0.393-0.236-0.594c-0.191,0.189-0.378,0.386-0.56,0.59c0.14-0.329,0.278-0.647,0.418-0.968
			c-0.099-0.285-0.191-0.574-0.274-0.866c-0.327,0.668-0.567,1.37-0.631,2.101c-0.008,0.081,0.052,0.141,0.122,0.161
			c-1.378,1.669-2.444,3.651-3.119,5.474c-0.623,1.683-0.941,3.621-0.54,5.4c0.126,0.56,0.744,1.532,1.211,1.401
			c-0.343,0.99-0.604,1.999-0.809,2.959C0.34,42.799,0.252,44.065,0.954,45.1c0.236,0.345,0.483,0.374,0.692,0.246
			c-0.206,1.328-0.285,3.298,0.79,4.232c0.121,0.106,0.277,0.09,0.378-0.004c0.064,1.764,0.364,4.289,2.123,5.131
			c0.161,0.075,0.372,0.006,0.41-0.183c0.049-0.235,0.065-0.47,0.072-0.702c0.426,1.761,1.205,3.45,2.229,4.916
			c0.537,0.77,1.636,2.129,2.737,1.792c0.316-0.099,0.49-0.317,0.575-0.593c0.614,1.264,1.479,2.417,2.532,3.416
			c0.557,0.531,1.532,1.162,2.223,0.54c0.042-0.035,0.065-0.087,0.094-0.131c0.321,0.453,0.683,0.88,1.083,1.276
			c0.834,0.827,2.524,2.411,3.768,1.754c0.773,0.931,1.729,1.748,2.782,2.442c0.687,0.452,2.136,1.281,2.899,0.533
			c0.279-0.273,0.405-0.62,0.437-0.995c0.162,0.324,0.333,0.646,0.518,0.961c0.929,1.571,2.448,3.621,4.15,4.467
			c0.015,0.162,0.03,0.322,0.06,0.48c0.201,1.07,1.283,3.118,2.678,2.316c0.872-0.506,1.614-1.266,2.424-1.866
			c0.953-0.707,1.807-1.466,2.618-2.328c0.123-0.131,0.244-0.269,0.363-0.405c0.571,1.191,4.135-1.718,4.439-1.971
			c0.296-0.245,0.579-0.505,0.863-0.762c0.005,0.013,0.001,0.028,0.005,0.045c0.871,3.107,6.206,0.854,7.92,0.005
			c0.518-0.257,0.995-0.573,1.444-0.923c0.035,0.271,0.231,0.485,0.578,0.582c0.771,0.216,1.778-0.373,2.436-0.696
			c1.049-0.515,2.056-1.257,2.935-2.136c0.05,0.145,0.151,0.27,0.286,0.359c-0.06,0.195,0.073,0.465,0.326,0.459
			c1.845-0.025,3.408-1.009,4.874-2.018c1.588-1.093,2.974-2.46,4.133-4c1.146-1.523,2.025-3.276,2.521-5.123
			c0.2-0.748,0.248-1.511,0.194-2.272c0.176,0.486,0.359,0.971,0.568,1.442c0.096,0.213,0.392,0.286,0.516,0.053
			c1.334-2.492,1.926-5.739,1.706-8.813c1.856-2.669,2.943-5.788,3.373-9.018c0.313-2.345,0.242-4.994-0.709-7.238
			c0.473,0.585,0.897,1.195,1.147,1.886c0.03,0.187,0.06,0.372,0.093,0.559c0.01,0.05,0.042,0.073,0.078,0.081
			c0.043,0.238,0.069,0.486,0.063,0.745c0,0.092,0.121,0.092,0.146,0.02c0.21-0.611,0.185-1.229,0.015-1.831
			c0.027-2.013-0.39-4.084-0.872-6.008c-0.472-1.874-1.212-4.019-2.448-5.606c0.236,0.173,0.47,0.35,0.698,0.538
			c0.855,0.705,1.533,1.58,2.302,2.37c0.073,0.076,0.204-0.009,0.171-0.106C79.239,22.567,79.025,22.143,78.764,21.744z"/>
		<path style="opacity:0.5;fill:#A7A9AC;" d="M10.41,36.657c-0.13,0.332-0.23,0.673-0.295,1.013
			c-0.094-0.512-0.131-1.024-0.131-1.535c-0.238-0.302-0.473-0.609-0.694-0.925c-0.117,1.377,0.08,2.736,0.818,3.999
			c0.044,0.205,0.104,0.41,0.19,0.608c0.065,0.148,0.341,0.194,0.364-0.013c0.099-0.83,0.053-1.647,0.214-2.475
			c0.006-0.033,0.017-0.063,0.023-0.093C10.731,37.046,10.572,36.851,10.41,36.657z"/>
		<path style="opacity:0.5;fill:#A7A9AC;" d="M11.975,38.681c-0.054,0.137-0.108,0.271-0.151,0.409
			c-0.032-0.31-0.057-0.617-0.071-0.933c-0.222-0.23-0.437-0.466-0.651-0.703c-0.074,0.931,0.026,1.844,0.508,2.588
			c-0.078,0.581-0.072,1.173,0.035,1.763c0.035,0.183,0.342,0.17,0.366-0.011c0.091-0.679,0.188-1.337,0.305-1.987
			C12.159,39.446,12.053,39.066,11.975,38.681z"/>
		<path style="opacity:0.5;fill:#A7A9AC;" d="M62.786,39.28c-0.42,1.202-1.205,2.298-1.992,3.304
			c0.021-1.499,0.089-3.024-0.115-4.51c-0.046-0.051-0.091-0.102-0.134-0.157c-0.104-0.129-0.199-0.266-0.294-0.399
			c-0.002,0.067-0.004,0.134-0.008,0.203c-0.013,0.02-0.023,0.046-0.028,0.076c-0.279,1.541-0.497,3.031-0.91,4.524
			c-0.081-0.322-0.175-0.634-0.324-0.94c-0.095-0.193-0.345-0.061-0.356,0.107c-0.023,0.338-0.031,0.672-0.036,1.01
			c-0.012,0.521-0.004,1.159-0.563,0.681c-0.601-0.511-1.188-0.94-1.911-1.241c-3.222-2.929-7.563-5.312-11.612-3.672
			c0.628-0.616,1.38-1.087,2.237-1.367c0.21-0.067,0.21-0.391-0.017-0.439c-2.385-0.522-4.991,0.199-6.993,1.581
			c0.286-0.516,0.537-1.045,0.661-1.642c0.049-0.224-0.208-0.332-0.364-0.199c-1.317,1.129-2.746,2.017-4.23,2.879
			c0.065-0.098,0.127-0.194,0.207-0.284c0.11-0.139-0.005-0.327-0.179-0.286c-0.374,0.086-0.727,0.216-1.074,0.363
			c-0.036-0.034-0.089-0.054-0.14-0.025c-2.433,1.3-5.484-0.101-7.894-0.871c-0.249-0.078-0.358,0.281-0.155,0.409
			c0.253,0.156,0.479,0.335,0.694,0.521c-1.948-0.715-4.039-0.933-5.961,0.016c-0.207,0.099-0.146,0.467,0.083,0.498
			c0.328,0.046,0.648,0.102,0.966,0.169c-2.73,0.563-5.071,2.411-6.719,4.756c-0.461-0.676-0.502-1.52-0.512-2.337
			c-0.227-0.034-0.449-0.096-0.663-0.174c-0.208,0.411-0.417,0.822-0.611,1.239c-0.329-0.649-0.505-1.308-0.602-1.974
			c-0.332-0.303-0.612-0.663-0.82-1.077c0.028,1.41,0.382,2.822,1.179,3.922c0.168,0.234,0.5,0.179,0.584-0.09
			c0.135-0.445,0.295-0.872,0.473-1.293c0.007,0.826,0.088,1.666,0.662,2.246c-1.06,1.637-1.794,3.481-2.095,5.29
			c-0.056,0.321,0.416,0.443,0.496,0.119c0.147-0.584,0.433-1.118,0.811-1.578c-0.549,1.513-0.525,3.205,0.231,4.725
			c0.051,0.105,0.234,0.05,0.216-0.063c-0.37-2.233-0.115-4.244,0.722-6.338c0.043-0.103-0.091-0.228-0.174-0.124
			c-0.203,0.262-0.385,0.54-0.548,0.828c-0.249,0.201-0.474,0.422-0.68,0.659c1.506-4.091,4.758-8.174,9.315-8.408
			c0.29-0.015,0.306-0.397,0.047-0.489c-0.415-0.141-0.825-0.261-1.243-0.363c1.939-0.571,3.918,0.039,5.812,0.759
			c0.238,0.091,0.376-0.251,0.219-0.406c-0.192-0.19-0.39-0.377-0.587-0.558c1.726,0.654,3.594,1.382,5.29,0.977
			c-0.089,0.072-0.185,0.136-0.271,0.212c-0.059,0.052,0.021,0.142,0.083,0.104c0.802-0.496,1.6-0.988,2.513-1.219
			c-0.111,0.168-0.209,0.342-0.301,0.539c-0.08,0.171,0.095,0.334,0.261,0.244c1.512-0.821,2.994-1.717,4.35-2.781
			c-0.252,0.645-0.631,1.218-0.964,1.834c-0.121,0.229,0.174,0.41,0.346,0.254c1.719-1.559,4.297-2.489,6.659-2.244
			c-1.01,0.484-1.865,1.229-2.552,2.131c-0.182,0.236,0.064,0.566,0.341,0.412c2.628-1.495,5.418-1.037,8.04,0.28
			c1.657,0.832,2.929,2.067,4.262,3.257c-0.179-0.042-0.359-0.066-0.542-0.084c-0.381-0.187-0.771-0.332-1.185-0.416
			c-0.079-0.016-0.122,0.09-0.05,0.135c2.655,1.61,4.13,3.962,5.98,6.351c0.055,0.069,0.195,0.024,0.154-0.068
			c-0.684-1.532-1.739-3.385-3.121-4.722c0.026,0.018,0.059,0.029,0.086,0.048c0.794,0.47,1.586,1.181,2.119,1.938
			c0.083,0.119,0.249,0.012,0.187-0.115c-0.336-0.685-0.822-1.334-1.413-1.864c-0.009-0.055-0.024-0.104-0.063-0.146
			c-0.346-0.392-0.719-0.785-1.107-1.173c0.488,0.377,0.959,0.778,1.425,1.194c0.079,0.067,0.222,0.06,0.266-0.046
			c0.203-0.449,0.269-0.901,0.301-1.364c0.049,0.227,0.087,0.457,0.129,0.688c0.033,0.186,0.325,0.201,0.398,0.042
			c0.22-0.493,0.434-1.018,0.62-1.557c0.012,0.576,0.047,1.146,0.128,1.713c0.033,0.212,0.325,0.405,0.49,0.185
			c1.008-1.353,2.024-2.676,2.661-4.247C63.179,39.341,62.98,39.32,62.786,39.28z"/>
		<path style="opacity:0.5;fill:#A7A9AC;" d="M4.735,31.45c0.491-0.019,0.924-0.314,1.34-0.552c0.116-0.066,0.621-0.395,0.904-0.369
			c-0.058-0.185-0.12-0.366-0.17-0.552c-0.638,0.181-1.435,0.68-1.872,0.926c0.055-0.648,0.469-1.1,0.854-1.623
			c0.043-0.057-0.034-0.134-0.081-0.077c-0.533,0.636-1.072,1.135-1.188,1.987C4.505,31.325,4.588,31.457,4.735,31.45z"/>
		<path style="opacity:0.5;fill:#A7A9AC;" d="M6.794,35.121c-0.465,0.25-0.849,0.61-1.283,0.898
			c0.141-1.518,1.387-2.708,1.966-4.075c-0.123-0.31-0.243-0.619-0.349-0.936c-0.077,0.305-0.233,0.6-0.366,0.878
			c-0.697,1.46-1.816,2.854-1.726,4.558c0.01,0.187,0.202,0.271,0.356,0.19c0.603-0.308,1.075-0.776,1.615-1.177
			C7.214,35.306,7.021,34.998,6.794,35.121z"/>
		<path style="opacity:0.5;fill:#A7A9AC;" d="M7.885,39.479c-0.665,0.372-1.233,0.932-1.977,1.137
			c0.506-1.159,1.743-1.892,1.689-3.282c-0.043-1.11-1.359-0.525-1.871-0.207c-0.064,0.04-0.003,0.131,0.063,0.1
			c0.377-0.181,0.802-0.37,1.23-0.292c0.793,0.149-0.035,1.609-0.249,1.896c-0.469,0.617-1.143,1.146-1.259,1.96
			c-0.017,0.107,0.078,0.236,0.197,0.186c0.826-0.338,1.563-0.802,2.26-1.362C8.049,39.549,7.975,39.426,7.885,39.479z"/>
		<path style="opacity:0.5;fill:#A7A9AC;" d="M9.295,41.421c-1.46,0.771-2.52,1.87-3.234,3.206c0.183-0.633,0.39-1.257,0.683-1.871
			c0.414-0.863,0.986-1.611,1.227-2.553c0.022-0.088-0.106-0.139-0.146-0.06c-0.985,2.034-2.574,3.588-2.537,6.024
			c0,0.069,0.036,0.118,0.087,0.144c-0.102,0.341-0.194,0.687-0.263,1.049c-0.027,0.135,0.164,0.176,0.207,0.05
			c0.782-2.288,2.104-4.42,4.044-5.882C9.429,41.477,9.368,41.382,9.295,41.421z"/>
		<path style="opacity:0.5;fill:#A7A9AC;" d="M9.196,43.583c-1.72,2.32-2.183,5.635-1.254,8.383c0.038,0.106,0.223,0.086,0.202-0.03
			c-0.484-2.9,0.035-5.563,1.271-8.195C9.477,43.607,9.291,43.452,9.196,43.583z"/>
		<path style="opacity:0.5;fill:#A7A9AC;" d="M12.791,46.638c0.059-0.1-0.095-0.212-0.167-0.12
			c-2.028,2.553-2.817,6.631-0.953,9.547c0.078,0.123,0.266,0.033,0.227-0.104c-0.431-1.521-0.717-2.892-0.635-4.48
			C11.35,49.781,11.935,48.083,12.791,46.638z"/>
		<path style="opacity:0.5;fill:#A7A9AC;" d="M10.716,45.859c-0.029-0.098-0.151-0.118-0.218-0.052
			c-0.841,0.846-1.096,2.001-1.33,3.132c-0.009,0.046,0.057,0.063,0.07,0.019c0.268-0.969,0.599-2.027,1.278-2.788
			c0.04,0.273,0.028,0.549,0.036,0.828c0.001,0.091,0.139,0.104,0.16,0.014C10.807,46.615,10.837,46.254,10.716,45.859z"/>
		<path style="opacity:0.5;fill:#A7A9AC;" d="M19.877,52.093c-2.127,1.326-3.65,4.109-3.265,6.66
			c0.014,0.087,0.126,0.082,0.134-0.006c0.229-2.762,1.386-4.523,3.332-6.412C20.211,52.206,20.029,51.996,19.877,52.093z"/>
		<path style="opacity:0.5;fill:#A7A9AC;" d="M19.265,55.11c-0.608,1.036-1.1,2.307-0.902,3.533c0.018,0.106,0.191,0.15,0.206,0.021
			c0.155-1.235,0.297-2.34,0.806-3.494C19.404,55.1,19.305,55.043,19.265,55.11z"/>
		<path style="opacity:0.5;fill:#A7A9AC;" d="M25.771,53.106c-0.378,0.271-0.695,0.604-0.958,0.979
			c-0.021-0.058-0.113-0.091-0.169-0.039c-1.472,1.354-2.41,3.26-2.598,5.262c-0.063,0.693-0.099,1.464-0.051,2.237
			c-0.715-2.602-0.963-5.203,0.082-7.9c0.066-0.172-0.158-0.385-0.286-0.207c-2.186,2.94-1.521,7.865,0.762,10.648
			c0.002,0.006,0.009,0.006,0.013,0.009c0.136,0.299,0.297,0.58,0.495,0.839c0.087,0.113,0.24,0.011,0.181-0.115
			c-0.719-1.541-0.696-3.497-0.604-5.164c0.102-1.801,0.865-3.398,1.789-4.896c-0.794,1.663-0.7,3.841,0.234,5.386
			c0.047,0.078,0.138,0.063,0.189,0.012c0.05,0.255,0.12,0.508,0.236,0.755c0.063,0.138,0.26,0.083,0.225-0.067
			c-0.311-1.319-0.219-2.566-0.171-3.904c0.001-0.034-0.054-0.041-0.062-0.005c-0.161,0.923-0.379,1.881-0.291,2.813
			c-0.67-2.179-0.663-4.834,1.144-6.446C26.038,53.206,25.887,53.022,25.771,53.106z"/>
		<path style="opacity:0.5;fill:#A7A9AC;" d="M29.886,59.312c0.016-0.083-0.103-0.112-0.126-0.031
			c-0.329,1.104-0.353,2.465-0.142,3.786c-1.004-2.662-1.629-5.334-0.651-8.229c0.048-0.139-0.164-0.21-0.231-0.088
			c-1.748,3.167-0.716,7.435,1.381,10.274c0.176,0.492,0.386,0.959,0.622,1.369c0.069,0.121,0.237,0.025,0.208-0.095
			C30.411,63.939,29.45,61.787,29.886,59.312z"/>
		<path style="opacity:0.5;fill:#A7A9AC;" d="M36.896,57.998c-0.004-0.088-0.009-0.172-0.011-0.242
			c-0.001-0.047-0.033-0.078-0.072-0.097c-0.207-0.821-0.463-1.635-0.717-2.445c-0.027-0.088-0.15-0.047-0.134,0.041
			c0.223,1.098,0.445,2.18,0.584,3.276c-0.036,0.323-0.083,0.646-0.157,0.963c-0.236,1.005-0.941-0.033-1.087-0.569
			c-0.132-0.488-0.188-0.982-0.362-1.46c-0.064-0.17-0.318-0.221-0.406-0.04c-0.744,1.528-0.182,3.698-1.271,5.029
			c-1.069-1.392-1.029-3.369-2.339-4.638c-0.112-0.107-0.266-0.011-0.273,0.122c-0.119,1.764,0.19,3.504,0.141,5.267
			c-0.002,0.05,0.083,0.06,0.088,0.01c0.182-1.599-0.098-3.218,0.048-4.816c0.901,1.495,0.909,3.392,2.124,4.722
			c0.114,0.121,0.309,0.091,0.419-0.014c1.317-1.245,0.854-3.169,1.232-4.796c0.233,1.009,0.627,2.528,1.595,2.098
			c0.166-0.074,0.286-0.213,0.38-0.387c0.01,0.305,0.016,0.611,0.006,0.922c-0.066,1.993-0.798,3.897-0.856,5.881
			c-0.004,0.113,0.172,0.158,0.219,0.052c0.751-1.697,1.056-3.674,1.186-5.52C37.308,60.208,37.153,59.095,36.896,57.998z"/>
		<path style="opacity:0.5;fill:#A7A9AC;" d="M43.221,55.119c-0.044-0.098-0.201-0.06-0.164,0.049
			c0.475,1.466,0.416,2.878,0.085,4.253c0.044-1.364-0.306-2.739-0.98-3.965c-0.05-0.089-0.219-0.074-0.23,0.038
			c-0.06,0.633-0.129,1.411-0.615,1.868c-0.456-1.085-0.907-2.153-1.828-2.943c-0.089-0.074-0.242,0.038-0.162,0.138
			c0.131,0.164,0.249,0.336,0.361,0.511c0.822,2.396,0.381,4.798-0.374,7.137c-0.078,0.241-0.167,0.477-0.259,0.707
			c0.246-1.615,0.175-3.278-0.115-4.934c-0.007-0.032-0.063-0.023-0.062,0.013c0.188,2.464-0.143,4.682-0.81,6.968
			c-0.695,1.244-1.49,2.431-2.183,3.7c-0.08,0.147,0.123,0.295,0.236,0.172c0.706-0.768,1.333-1.657,1.894-2.599
			c0.005-0.008,0.012-0.013,0.017-0.022c0.007-0.014,0.012-0.027,0.019-0.04c0.778-1.315,1.421-2.729,1.942-4.078
			c0.667-1.729,0.918-3.635,0.505-5.425c0.161,0.378,0.314,0.767,0.48,1.153c0.08,0.179,0.268,0.224,0.414,0.097
			c0.564-0.487,0.722-1.17,0.768-1.879c0.768,1.766,0.67,3.611,0.299,5.463c-0.309,0.765-0.66,1.517-1.01,2.261
			c-0.064,0.14,0.13,0.244,0.211,0.116C43.284,61.321,44.591,58.087,43.221,55.119z"/>
		<path style="opacity:0.5;fill:#A7A9AC;" d="M50.767,51.648c-0.188-0.135-0.39-0.262-0.621-0.369
			c-0.094-0.043-0.158,0.084-0.075,0.141c0.901,0.598,1.369,1.408,1.561,2.315c-0.056-0.105-0.118-0.202-0.189-0.301
			c-0.271-0.525-0.684-0.918-1.288-0.888c-0.099,0.007-0.193,0.094-0.184,0.196c0.023,0.261,0.116,0.509,0.188,0.757
			c0.044,0.137,0.285,1.088-0.044,0.844c-0.432-0.317-0.711-0.885-1.225-1.082c-0.121-0.043-0.248,0.132-0.163,0.232
			c0.07,0.087,0.157,0.215,0.261,0.357c0.408,0.807,0.554,1.481,0.333,2.39c-0.073,0.302-0.17,0.605-0.26,0.901
			c-0.199,0.641-0.504-0.32-0.605-0.553c-0.511-1.161-0.746-2.222-1.852-2.971c-0.105-0.074-0.2,0.087-0.123,0.168
			c0.241,0.261,0.426,0.545,0.588,0.847c0.297,1.548,0.425,3.057,0.129,4.621c-0.052,0.262-0.117,0.519-0.188,0.77
			c0.06-2.177-1.056-4.721-2.991-5.422c-0.132-0.05-0.186,0.146-0.081,0.215c0.102,0.063,0.197,0.136,0.292,0.21
			c0.886,1.445,0.872,3.098,0.866,4.751c0,0.14,0.229,0.167,0.246,0.025c0.173-1.482,0.104-2.986-0.591-4.287
			c1.409,1.557,1.854,4.213,1.674,6.13c-0.32,0.743-0.676,1.474-1.003,2.219c-0.063,0.139,0.129,0.308,0.232,0.17
			c1.764-2.396,2.516-5.248,1.976-8.096c0.101,0.273,0.197,0.545,0.308,0.807c0.162,0.398,0.545,1.376,1.128,1.156
			c0.537-0.203,0.626-1.589,0.694-2.037c0.058-0.405,0.034-0.804-0.068-1.18c0.222,0.185,0.451,0.297,0.678,0.227
			c0.802-0.248,0.226-1.347,0.033-1.963c1.244,1.537,1.14,3.362,0.752,5.17c-0.15,0.494-0.313,0.969-0.466,1.401
			c-0.025,0.078,0.022,0.135,0.088,0.152c-0.009,0.032-0.017,0.063-0.022,0.094c-0.023,0.085,0.104,0.134,0.144,0.056
			c0.129-0.261,0.263-0.559,0.393-0.883c0.835-1.756,1.374-4.15,0.607-5.893c0.651,0.905,0.96,1.991,1.066,3.26
			c0.012,0.137,0.204,0.127,0.209-0.007C53.236,54.424,52.487,52.501,50.767,51.648z"/>
		<path style="opacity:0.5;fill:#A7A9AC;" d="M53.524,53.105c-0.06-0.071-0.166,0.027-0.12,0.101
			c0.354,0.581,0.478,1.188,0.54,1.855c0.017,0.147,0.233,0.143,0.233-0.008C54.178,54.332,53.991,53.667,53.524,53.105z"/>
		<path style="opacity:0.5;fill:#A7A9AC;" d="M55.442,51.231c-0.042-0.092-0.192-0.054-0.155,0.048
			c0.301,0.787,0.448,1.598,0.494,2.419c-0.141-0.84-0.433-1.651-0.955-2.41c-0.703-1.026-1.938-2.306-3.295-2.125
			c-0.079,0.013-0.074,0.116,0.002,0.12c1.351,0.102,2.31,1.637,2.979,2.659c0.949,1.445,0.944,3.332,1.019,4.982
			c0,0.025,0.013,0.044,0.025,0.056c-0.031,0.189-0.06,0.378-0.094,0.563c-0.02,0.107,0.133,0.143,0.162,0.039
			C56.183,55.566,56.336,53.186,55.442,51.231z"/>
		<path style="opacity:0.5;fill:#A7A9AC;" d="M54.233,48.127c-0.102-0.025-0.163,0.129-0.066,0.174
			c1.829,0.84,2.521,2.427,3.414,4.099c0.043,0.079,0.192,0.04,0.178-0.056C57.441,50.483,56.114,48.617,54.233,48.127z"/>
		<path style="opacity:0.5;fill:#A7A9AC;" d="M24.904,40.045c-3.305-0.335-6.005,1.529-7.895,4.053
			c-0.032,0.042,0.02,0.095,0.062,0.059c1.065-1.075,2.163-2.099,3.534-2.761c1.396-0.676,2.845-0.793,4.349-1.065
			C25.132,40.299,25.054,40.061,24.904,40.045z"/>
		<path style="opacity:0.5;fill:#A7A9AC;" d="M22.876,41.473c-1.235-0.072-2.579,0.34-3.391,1.301
			c-0.058,0.063,0.037,0.155,0.1,0.09c0.909-0.909,2.084-1.041,3.298-1.211C22.997,41.637,22.995,41.477,22.876,41.473z"/>
		<path style="opacity:0.5;fill:#A7A9AC;" d="M19.784,43.959c-0.831,0.307-1.51,0.849-1.93,1.635
			c-0.055,0.102,0.095,0.217,0.164,0.121c0.499-0.675,1.074-1.235,1.843-1.594C19.954,44.078,19.879,43.922,19.784,43.959z"/>
		<path style="opacity:0.5;fill:#A7A9AC;" d="M27.907,39.975c-1.247-0.864-2.813-0.938-4.271-0.824
			c-0.094,0.007-0.088,0.144,0.007,0.146c1.48,0.05,2.791,0.249,4.121,0.938C27.942,40.326,28.059,40.081,27.907,39.975z"/>
		<path style="opacity:0.5;fill:#A7A9AC;" d="M38.139,38.424c-0.799,0.516-1.598,0.989-2.475,1.365
			c-0.106,0.047-0.061,0.211,0.053,0.174c0.933-0.299,1.842-0.694,2.523-1.415C38.302,38.481,38.217,38.374,38.139,38.424z"/>
		<path style="opacity:0.5;fill:#A7A9AC;" d="M43.834,37.071c-1.7-0.082-3.276,0.994-4.589,1.945
			c-0.072,0.056-0.003,0.167,0.075,0.122c1.477-0.868,2.842-1.577,4.547-1.877C43.98,37.241,43.937,37.076,43.834,37.071z"/>
		<path style="opacity:0.5;fill:#A7A9AC;" d="M51.214,39.376c-2.484-1.817-6.223-1.121-8.767,0.128
			c-0.026,0.015-0.005,0.057,0.021,0.045c2.689-1.033,5.987-1.254,8.666-0.061C51.202,39.52,51.285,39.426,51.214,39.376z"/>
		<path style="opacity:0.5;fill:#A7A9AC;" d="M54.724,41.633c-1.58-1.66-4.085-1.951-6.24-1.859c-0.053,0-0.049,0.081,0.002,0.081
			c2.235,0.025,4.265,0.62,6.078,1.95C54.686,41.893,54.83,41.746,54.724,41.633z"/>
		<path style="opacity:0.5;fill:#A7A9AC;" d="M63.383,46.619c-0.025-0.084-0.168-0.066-0.156,0.023
			c0.162,1.244,0.631,2.63,0.094,3.791c-0.262-1.933-0.848-3.977-2.463-5.179c-0.099-0.074-0.225,0.052-0.134,0.142
			c1.55,1.559,1.92,3.648,2.205,5.735c0.032,0.242,0.31,0.302,0.444,0.106C64.318,49.87,63.826,48.093,63.383,46.619z"/>
		<path style="opacity:0.5;fill:#A7A9AC;" d="M65.243,42.18c-0.091-0.026-0.146,0.114-0.057,0.156
			c0.568,0.275,1.085,0.655,1.554,1.11c-0.036,0.032-0.057,0.082-0.024,0.143c0.367,0.715,0.875,1.425,0.923,2.224
			c-0.66-0.765-1.316-1.518-2.228-2.003c-0.155-0.08-0.406,0.031-0.375,0.233c0.159,1.013,0.567,1.975,0.906,2.936
			c0.376,1.066,1.081,2.763,0.432,3.842c-1.334-1.415-1.225-3.687-2.67-5.085c-0.053-0.051-0.147,0.022-0.099,0.08
			c1.328,1.625,1.101,4.061,2.639,5.543c0.091,0.086,0.252,0.085,0.335-0.012c1.538-1.772-0.331-4.693-0.907-6.766
			c0.772,0.569,1.322,1.343,2.004,2.037c0.122,0.123,0.399,0.067,0.417-0.126c0.078-0.807-0.176-1.521-0.575-2.176
			c1.479,1.904,2.365,4.551,2.818,6.62c0.016,0.078,0.147,0.056,0.14-0.025C70.172,47.7,68.778,43.139,65.243,42.18z"/>
		<path style="opacity:0.5;fill:#A7A9AC;" d="M70.64,39.404c-0.113-0.142-0.344-0.01-0.244,0.155
			c0.341,0.549,0.744,1.037,0.982,1.628c-0.555-0.286-1.107-0.563-1.706-0.76c-0.12-0.039-0.234,0.096-0.196,0.21
			c0.348,1.007,0.978,1.89,0.997,2.95c-1.044-0.96-1.986-2.254-3.508-2.235c-0.099,0.002-0.115,0.152-0.018,0.169
			c1.57,0.268,2.392,1.867,3.568,2.773c0.135,0.104,0.397,0.084,0.421-0.123c0.142-1.232-0.453-2.239-0.982-3.297
			c0.572,0.213,1.096,0.514,1.638,0.811c0.144,0.077,0.275-0.061,0.247-0.203C71.668,40.666,71.149,40.047,70.64,39.404z"/>
		<path style="opacity:0.5;fill:#A7A9AC;" d="M71.572,38.157c-0.344-0.487-0.706-0.905-1.182-1.27
			c-0.068-0.05-0.16,0.042-0.092,0.102c0.429,0.361,0.745,0.841,1.076,1.29C71.462,38.398,71.656,38.28,71.572,38.157z"/>
	</g>
</g>
<g id="Layer_1">
</g>
</svg>
