<?xml version="1.0" encoding="iso-8859-1"?>
<!-- Generator: Adobe Illustrator 15.0.0, SVG Export Plug-In . SVG Version: 6.00 Build 0)  -->
<!DOCTYPE svg PUBLIC "-//W3C//DTD SVG 1.1//EN" "http://www.w3.org/Graphics/SVG/1.1/DTD/svg11.dtd">
<svg version="1.1" xmlns="http://www.w3.org/2000/svg" xmlns:xlink="http://www.w3.org/1999/xlink" x="0px" y="0px" width="80px"
	 height="80px" viewBox="0 0 80 80" style="enable-background:new 0 0 80 80;" xml:space="preserve">
<g id="ico-hair-1">
	<g>
		<defs>
			<rect id="SVGID_1_" width="80" height="80"/>
		</defs>
		<clipPath id="SVGID_2_">
			<use xlink:href="#SVGID_1_"  style="overflow:visible;"/>
		</clipPath>
		<g style="clip-path:url(#SVGID_2_);">
			<path style="fill:none;" d="M59.746,0H20.253C9.068,0,0,9.066,0,20.253v39.493C0,70.932,9.068,80,20.253,80h39.493
				C70.932,80,80,70.932,80,59.746V20.253C80,9.066,70.932,0,59.746,0z"/>
		</g>
	</g>
	<g>
		<g>
			<path style="fill:#A7A9AC;" d="M75.955,44.036c1.76,0.352,3.178,1.162,3.178,1.162s-0.674-7.613-5.682-13.076
				c-5.007-5.464-9.807-6.159-9.807-6.159s3.244-1.802,1.418-2.151c-1.825-0.349-3.586,0.642-3.586,0.642
				c-0.066-2.325-1.892-5.001-2.027-3.606c-0.136,1.398-0.475,2.56-0.475,2.56c-17.182-11.159-42.143-1.046-48.77,5.928
				c-6.632,6.974-8.187,9.675-8.187,9.675c1.927-0.117,3.417-0.523,3.417-0.523c-2.875,1.105-3.249,3.722-3.249,3.722
				c0.948-1.134,2.741-1.134,2.741-1.134C2.12,43.31,0.867,46.43,0.867,46.43c4.059,3.063,7.709,11.139,7.709,11.139
				s4.045-2.615,5.322,1.966c-0.127-0.914-0.295-2.059-0.323-2.863c-0.112-3.197-2.292-7.115-2.292-7.115s1.708,2.225,4.093-5.968
				c0,0,0.103,1.918,0.914,1.918c0.812,0,3.603-7.585,3.603-7.585s0.1,1.653,1.167,3.092c1.064,1.44-0.872-2.823,4.657-5.698
				c0,0,4.321,2.169,11.477-0.489c0,0-1.522,1.57-4.822,2.181c0,0,6.174,1.51,10.368-2.181c0,0,1.691,1.89,3.992,2.644
				c0,0,0.271-0.87,0-2.906c0,0,3.195,2.527,8.625,3.314c0,0,0.66-2.004,0.455-3.314c0,0,2.639,3.923,5.379,5.448
				c0,0,0.252-1.829,0-3.18c0,0,6.646,6.886,7.558,11.374c0.46,2.253,0.294,5.337-0.063,8.181c0.004-0.003,2.129-2.034,4.479-0.334
				c2.23-6.58,4.364-7.407,4.16-7.934c-0.205-0.522-1.572-1.61-1.572-1.61c1.42,0.349,2.57,0.375,2.57,0.375
				C77.51,46.304,75.955,44.036,75.955,44.036z"/>
			<g>
				<path style="fill:#030303;" d="M75.917,44.081c1.095,0.269,2.135,0.604,3.124,1.144c0.026,0.015,0.223,0.055,0.216-0.014
					c-0.798-8.342-6.615-16.833-14.912-19.145c-1.107-0.308,0.091-0.453,0.813-1.023c0.569-0.45,0.882-1.188-0.09-1.282
					c-0.768-0.074-1.515-0.116-2.267,0.112c-0.363,0.11-0.694,0.196-1.037,0.355c-0.512,0.238-0.281-0.69-0.386-1.165
					c-0.134-0.603-0.765-2.661-1.7-2.652c-1.111,0.011,0.109,3.423-1.236,2.574c-2.446-1.544-5.17-2.61-7.945-3.388
					c-4.8-1.345-9.889-1.446-14.816-0.924c-8.645,0.916-18.583,4.104-25.083,10.125c-3.101,2.873-6.53,6.489-8.697,10.184
					c-0.041,0.069,0.147,0.077,0.177,0.075c1.008-0.087,1.995-0.216,2.985-0.419c0.585-0.14,0.452-0.102-0.4,0.116
					c-0.398,0.182-0.73,0.482-1.066,0.753c-0.772,0.623-1.364,1.705-1.534,2.687c-0.013,0.078,0.206,0.072,0.243,0.038
					c0.655-0.642,1.422-1.003,2.303-1.084c-0.321,0.335-0.649,0.661-0.986,0.979c-0.667,0.649-1.214,1.422-1.736,2.188
					c-0.446,0.654-0.837,1.37-1.143,2.102c0,0.012,0.005,0.021,0.015,0.027c3.475,2.781,5.871,7.118,7.698,11.125
					c0.027,0.061,0.178,0.064,0.226,0.035c2.126-1.323,4.306-0.417,5.096,1.931c0.02,0.059,0.254,0.072,0.246,0.012
					c-0.459-3.298-0.651-7.557-2.819-9.943c0.402,0.442,1.126,0.303,1.523-0.062c0.999-0.915,1.498-2.269,1.978-3.503
					c0.188-0.508,0.363-1.021,0.524-1.539c0.306-0.935-0.016-0.997,0.128-0.17c0.056,0.322,0.207,0.925,0.536,1.096
					c1.302,0.679,2.191-2.683,2.531-3.473c0.528-1.225,1.011-2.47,1.481-3.718c0.187-0.496-0.085,0.093,0.047,0.68
					c0.169,0.751,0.568,1.74,1.131,2.279c0.731,0.702,0.832-1.65,0.939-1.964c0.365-1.066,2.67-4.278,3.845-3.784
					c0.997,0.419,2.095,0.583,3.162,0.695c1.876,0.199,3.766-0.067,5.597-0.463c0.548-0.119,3.277-1.455,1.846-0.388
					c-1.221,0.91-2.72,1.349-4.185,1.671c-0.094,0.021,0.007,0.08,0.046,0.089c1.953,0.454,4.208,0.48,6.148-0.022
					c0.341-0.088,4.581-1.723,4.209-2.124c1.102,1.186,2.479,2.018,3.974,2.6c0.04,0.016,0.176,0.038,0.191-0.024
					c0.179-0.68,0.12-1.412,0.086-2.104c-0.037-0.732-0.558-0.965-0.058-0.609c0.253,0.181,0.521,0.343,0.786,0.506
					c2.32,1.427,4.981,2.206,7.648,2.648c0.04,0.006,0.146,0.023,0.162-0.032c0.215-0.684,0.35-1.376,0.455-2.084
					c0.048-0.324-0.296-1.313-0.11-1.047c0.208,0.299,0.43,0.589,0.65,0.879c1.293,1.702,2.795,3.277,4.623,4.4
					c0.035,0.021,0.208,0.055,0.216-0.014c0.103-0.826,0.116-1.645,0.088-2.476c-0.025-0.748-0.438-0.835,0.207-0.136
					c1.36,1.475,2.629,3.033,3.817,4.648c1.18,1.604,2.234,3.316,2.934,5.186c1.041,2.784,0.537,6.258,0.2,9.127
					c-0.01,0.08,0.204,0.072,0.242,0.038c1.144-1.018,2.664-1.264,4.269-0.333c0.045,0.025,0.192,0.054,0.216-0.014
					c1.03-2.923,2.45-5.145,4.105-7.661c0.294-0.446-0.594-1.08-0.822-1.301c-0.898-0.867-0.26-0.41,0.661-0.268
					c0.369,0.058,0.745,0.083,1.118,0.099c0.028,0.002,0.136-0.02,0.082-0.065c-0.937-0.793-1.66-1.829-2.356-2.833
					c-0.043-0.063-0.277-0.048-0.242,0.002c0.44,0.636,0.907,1.25,1.393,1.852c1.196,1.483-0.072,0.865-1.437,0.574
					c-0.023-0.005-0.224-0.002-0.148,0.06c0.903,0.732,1.941,1.354,1.072,2.399c-0.996,1.197-1.75,2.531-2.42,3.933
					c-0.177,0.371-1.004,3.191-1.734,2.767c-0.425-0.246-0.926-0.253-1.394-0.297c-0.904-0.086-1.861,0.44-2.536,0.98
					c0.753-0.604,0.488-3.349,0.519-4.219c0.044-1.3-0.057-2.588-0.275-3.868c-0.283-1.657-1.259-3.211-2.138-4.608
					c-1.536-2.438-3.438-4.713-5.434-6.792c-0.028-0.029-0.243-0.068-0.234,0.001c0.111,0.896,0.117,1.756,0.056,2.656
					c-0.062,0.888-2.026-1.17-2.435-1.568c-1.024-1.001-1.945-2.16-2.755-3.344c-0.028-0.042-0.25-0.087-0.245-0.012
					c0.065,0.999-0.084,1.92-0.329,2.887c-0.219,0.863-3.33-0.37-3.922-0.563c-1.587-0.519-3.259-1.295-4.595-2.325
					c-0.028-0.021-0.243-0.073-0.234,0.001c0.101,0.947,0.202,1.909,0.014,2.853c-0.029,0.148-3.268-2.049-3.771-2.591
					c-0.047-0.05-0.178-0.052-0.229-0.011c-2.834,2.291-6.541,2.888-10.065,2.194c1.105,0.218,3.724-1.136,4.755-2.143
					c0.056-0.055-0.173-0.08-0.203-0.069c-3.357,1.171-6.983,1.814-10.469,0.815c-0.199-0.057-0.798-0.448-1.028-0.318
					c-1.806,1.024-3.281,2.302-3.969,4.31c-0.174,0.508-0.211,1.044-0.316,1.566c0.005-0.023-0.851-1.424-0.922-1.583
					c-0.214-0.477-0.335-1.095-0.387-1.637c-0.007-0.076-0.224-0.094-0.249-0.025c-0.5,1.353-1.034,2.692-1.593,4.021
					c-0.437,1.034-0.895,2.072-1.482,3.031c-0.713,1.165-1.15-0.799-1.192-1.359c-0.006-0.074-0.228-0.096-0.249-0.025
					c-0.138,0.458-2.461,7.666-3.848,5.979c-0.039-0.047-0.28-0.066-0.242,0.002c0.747,1.369,1.321,2.821,1.788,4.307
					c0.435,1.382,0.469,2.764,0.625,4.186c0.171,1.57,0.193,0.398-0.352-0.199c-1.247-1.368-2.909-1.257-4.476-0.475
					c-0.362,0.182-0.011,0.273-0.171-0.07c-0.222-0.475-0.459-0.942-0.696-1.41c-0.95-1.867-2.024-3.667-3.211-5.394
					c-0.246-0.357-3.643-4.14-3.654-4.112c0.863-2.066,2.344-3.849,4.031-5.29c0.053-0.046-0.131-0.077-0.147-0.077
					c-0.77,0.025-1.795,0.195-2.38,0.74c-0.187,0.463-0.242,0.549-0.167,0.259c0.094-0.434,0.298-0.845,0.5-1.234
					c0.563-1.088,1.608-1.771,2.689-2.265c0.089-0.041-0.148-0.091-0.189-0.08c-0.475,0.122-3.007,0.25-3.19,0.554
					c0.163-0.271,0.349-0.53,0.531-0.789c1.255-1.777,2.699-3.424,4.136-5.054c3.612-4.093,7.204-7.149,12.13-9.536
					c12.221-5.919,28.015-7.703,39.925-0.185c0.041,0.025,0.197,0.053,0.216-0.014c0.232-0.842,0.365-1.695,0.475-2.56
					c0.565,0.093,0.925,0.4,1.079,0.919c0.444,0.817,0.61,1.749,0.7,2.662c0.007,0.078,0.181,0.074,0.229,0.049
					c1.026-0.537,4.94-0.986,3.339,0.504c-0.396,0.368-0.908,0.666-1.38,0.934c-0.063,0.035,0.038,0.076,0.066,0.081
					c5.451,0.869,10.244,5.856,12.724,10.463c1.239,2.302,2.021,4.877,2.495,7.44c0.069,0.376,0.075,1.084,0.286,1.199
					c-0.979-0.534-2.041-0.854-3.118-1.119C75.888,43.966,75.752,44.04,75.917,44.081z"/>
			</g>
		</g>
		<g>
			<path style="fill:#A7A9AC;" d="M75.955,44.036c1.76,0.352,3.178,1.162,3.178,1.162s-0.674-7.613-5.682-13.076
				c-5.007-5.464-9.807-6.159-9.807-6.159s3.244-1.802,1.418-2.151c-1.825-0.349-3.586,0.642-3.586,0.642
				c-0.066-2.325-1.892-5.001-2.027-3.606c-0.136,1.398-0.475,2.56-0.475,2.56c-17.182-11.159-42.143-1.046-48.77,5.928
				c-6.632,6.974-8.187,9.675-8.187,9.675c1.927-0.117,3.417-0.523,3.417-0.523c-2.875,1.105-3.249,3.722-3.249,3.722
				c0.948-1.134,2.741-1.134,2.741-1.134C2.12,43.31,0.867,46.43,0.867,46.43c4.059,3.063,7.709,11.139,7.709,11.139
				s4.045-2.615,5.322,1.966c-0.127-0.914-0.279-1.816-0.449-2.598c-0.676-3.078-2.166-7.381-2.166-7.381s1.708,2.225,4.093-5.968
				c0,0,0.103,1.918,0.914,1.918c0.812,0,3.603-7.585,3.603-7.585s0.1,1.653,1.167,3.092c1.064,1.44-0.872-2.823,4.657-5.698
				c0,0,4.321,2.169,11.477-0.489c0,0-1.522,1.57-4.822,2.181c0,0,6.174,1.51,10.368-2.181c0,0,1.691,1.89,3.992,2.644
				c0,0,0.271-0.87,0-2.906c0,0,3.195,2.527,8.625,3.314c0,0,0.66-2.004,0.455-3.314c0,0,2.639,3.923,5.379,5.448
				c0,0,0.252-1.829,0-3.18c0,0,6.646,6.886,7.558,11.374c0.46,2.253,0.177,7.368-0.181,10.213c0.004-0.003,2.379-2.896,4.728-1.199
				c2.231-6.579,4.232-8.574,4.028-9.101c-0.205-0.522-1.572-1.61-1.572-1.61c1.42,0.349,2.57,0.375,2.57,0.375
				C77.51,46.304,75.955,44.036,75.955,44.036z"/>
			<g>
				<path style="fill:#030303;" d="M75.869,44.078c1.102,0.271,2.156,0.607,3.158,1.153c0.037,0.021,0.237,0.034,0.23-0.043
					c-0.799-8.342-6.713-17.066-15.116-19.183c-0.354-0.089-0.487,0.035-0.175-0.149c0.521-0.306,1.006-0.659,1.448-1.07
					c0.96-0.892-0.472-1.079-1.097-1.1c-0.715-0.024-1.396,0.162-2.071,0.366c-0.247,0.075-0.521,0.208-0.759,0.318
					c0.366-0.17-0.258-1.779-0.328-1.995c-0.13-0.395-0.796-2.179-1.521-1.951c-0.247,0.078-0.279,0.147-0.315,0.431
					c-0.088,0.697-0.197,1.375-0.347,2.062c-0.103,0.472-1.681-0.611-1.789-0.672c-2.507-1.408-5.263-2.338-8.052-2.991
					c-4.842-1.133-9.915-1.062-14.815-0.4c-8.298,1.12-18.217,4.311-24.226,10.463c-2.864,2.932-6.105,6.12-8.198,9.688
					c-0.031,0.053,0.104,0.056,0.125,0.054c1.01-0.087,1.998-0.214,2.992-0.418c0.805-0.165-1.064,0.597-1.409,0.875
					c-0.791,0.637-1.372,1.707-1.543,2.701c-0.012,0.069,0.206,0.033,0.234,0.007c0.715-0.699,1.56-1.064,2.533-1.098
					c-0.447,0.28-0.846,0.617-1.197,1.011c-0.52,0.506-0.959,1.099-1.392,1.677c-0.593,0.795-1.11,1.695-1.493,2.612
					c-0.008,0.019,0.001,0.026,0.016,0.037c3.48,2.786,5.868,7.12,7.695,11.128c0.029,0.064,0.188,0.02,0.229-0.006
					c2.205-1.371,4.309-0.36,5.088,1.959c0.023,0.069,0.259,0.05,0.249-0.02c-0.38-2.544-1.026-4.987-1.785-7.442
					c-0.237-0.767-0.489-1.528-0.745-2.288c-0.072-0.214-0.452-0.306-0.21-0.104c0.623,0.521,1.392-0.072,1.812-0.535
					c1.121-1.236,1.629-3.124,2.132-4.662c0.406-1.239-0.108-0.525,0.245,0.281c0.208,0.474,0.286,0.619,0.734,0.774
					c0.926,0.321,2.191-3.543,2.408-4.058c0.477-1.131,0.921-2.277,1.351-3.427c-0.041,0.108-0.023,0.836,0.196,1.518
					c0.193,0.603,0.553,1.274,1.014,1.717c0.492,0.472,0.962-2.348,1.019-2.481c0.476-1.124,2.541-3.799,3.825-3.3
					c0.937,0.363,1.993,0.558,2.989,0.626c1.898,0.129,3.715-0.061,5.573-0.462c0.605-0.131,2.273-0.659,2.353-0.731
					c-1.253,1.132-2.992,1.659-4.596,2.012c-0.038,0.008-0.144,0.065-0.049,0.087c2.011,0.468,4.137,0.388,6.148-0.018
					c0.434-0.087,4.554-1.787,4.248-2.117c1.095,1.179,2.476,2.018,3.964,2.597c0.039,0.015,0.192,0.02,0.207-0.038
					c0.124-0.473,0.117-0.968,0.122-1.453c0.012-1.394-0.688-1.58,0.681-0.739c2.319,1.426,4.976,2.203,7.642,2.645
					c0.038,0.006,0.164,0.008,0.181-0.044c0.152-0.484,0.262-0.976,0.365-1.473c0.206-0.986-0.51-2.293,0.364-1.106
					c1.349,1.833,2.929,3.546,4.878,4.742c0.046,0.028,0.221,0.033,0.23-0.042c0.105-0.86,0.442-2.432-0.221-3.124
					c0.328,0.343,0.646,0.696,0.964,1.049c1.474,1.638,2.842,3.368,4.09,5.183c3.26,4.745,2.945,9.803,2.294,15.318
					c-0.009,0.077,0.217,0.028,0.246-0.006c1.042-1.204,2.695-2.195,4.501-1.17c0.044,0.025,0.204,0.035,0.227-0.029
					c1.06-3.039,2.489-5.761,3.919-8.618c0.33-0.661-0.294-1.064-0.756-1.51c-0.45-0.435-1.066-0.577-0.075-0.366
					c0.582,0.124,1.192,0.18,1.788,0.205c0.014,0,0.201-0.028,0.148-0.073c-0.94-0.797-1.669-1.839-2.367-2.847
					c-0.041-0.06-0.279-0.015-0.238,0.045c0.44,0.636,0.907,1.249,1.393,1.852c0.188,0.234,0.63,0.901,0.992,0.917
					c-0.818-0.035-1.611-0.197-2.409-0.367c-0.035-0.008-0.245,0.017-0.165,0.081c1.336,1.086,1.77,1.521,0.938,2.986
					c-1.081,1.908-1.986,3.885-2.78,5.93c-0.815,2.099-1.347,0.771-2.844,1.279c-0.531,0.181-0.965,0.394-1.436,0.696
					c-0.324,0.209-0.605,0.491-0.878,0.761c-0.365,0.362,0.064,0.054,0.111-0.344c0.499-4.229,0.94-8.799-1.083-12.679
					c-1.601-3.069-3.976-5.872-6.365-8.362c-0.036-0.038-0.253-0.045-0.244,0.032c0.111,0.896,0.118,1.756,0.057,2.656
					c-0.064,0.937-1.955-1.139-2.425-1.598c-1.03-1.006-1.954-2.168-2.767-3.358c-0.032-0.048-0.249-0.041-0.244,0.032
					c0.073,1.103-0.11,2.127-0.415,3.186c-0.104,0.358-3.875-0.911-4.479-1.132c-1.371-0.5-2.791-1.199-3.956-2.097
					c-0.036-0.028-0.237-0.029-0.23,0.042c0.153,1.438,0.783,3.23-1.201,2.226c-0.949-0.48-1.826-1.219-2.547-1.995
					c-0.048-0.051-0.18-0.035-0.229,0.005c-2.832,2.289-6.532,2.875-10.052,2.182c1.352,0.267,3.779-1.225,4.725-2.148
					c0.074-0.072-0.145-0.066-0.176-0.055c-3.36,1.172-6.983,1.803-10.469,0.804c-0.22-0.063-0.782-0.447-1.032-0.305
					c-1.819,1.03-3.286,2.284-3.98,4.31c-0.157,0.459-0.217,0.951-0.289,1.429c0.007-0.046-1.255-2.23-1.339-3.114
					c-0.006-0.07-0.225-0.051-0.246,0.005c-0.5,1.352-1.034,2.691-1.594,4.02c-0.398,0.945-0.823,1.881-1.323,2.776
					c-0.737,1.322-1.29-0.29-1.354-1.135c-0.005-0.068-0.229-0.052-0.246,0.006c-0.141,0.466-2.435,7.674-3.853,5.949
					c-0.035-0.042-0.266-0.031-0.244,0.032c0.52,1.511,0.993,3.037,1.441,4.571c0.349,1.197,0.644,2.404,0.888,3.627
					c0.402,2.014,0.159,0.533-0.582-0.28c-1.094-1.2-3.083-0.681-4.295-0.02c-0.178,0.098,0.108,0.133-0.038-0.18
					c-0.223-0.476-0.459-0.943-0.697-1.41c-0.95-1.867-2.024-3.668-3.211-5.394c-0.278-0.404-3.676-4.05-3.655-4.101
					c0.862-2.063,2.342-3.852,4.025-5.29c0.066-0.056-0.088-0.067-0.113-0.066c-0.866,0.028-1.636,0.296-2.377,0.735
					c-0.13,0.076-0.206,0.205-0.226,0.387c0.061-0.35,0.2-0.674,0.336-0.998c0.539-1.28,1.649-2.075,2.87-2.634
					c0.122-0.056-0.115-0.077-0.157-0.066c-0.584,0.15-3.193,0.507-3.175,0.477c0.2-0.323,0.423-0.631,0.646-0.939
					c1.224-1.699,2.608-3.285,3.992-4.853c3.764-4.265,7.475-7.342,12.643-9.771c12.138-5.702,27.641-7.342,39.396,0.078
					c0.04,0.025,0.209,0.034,0.227-0.029c0.161-0.583,0.271-1.174,0.377-1.77c0.398-2.25,1.81,2.118,1.879,2.822
					c0.007,0.071,0.181,0.038,0.216,0.019c0.994-0.52,5.037-1.039,3.361,0.52c-0.4,0.373-0.902,0.665-1.375,0.933
					c-0.06,0.034-0.021,0.068,0.031,0.076c5.229,0.833,9.873,5.489,12.405,9.846c1.374,2.364,2.231,5.043,2.768,7.715
					c0.106,0.531,0.19,1.069,0.248,1.607c-0.056-0.521-2.382-1.041-2.965-1.185C75.98,43.979,75.745,44.048,75.869,44.078z"/>
			</g>
		</g>
		<g>
			<path style="fill:#A7A9AC;" d="M30.095,32.705c-0.096,0.093-0.217,0.165-0.33,0.247l-0.375,0.201
				c-0.128,0.065-0.266,0.108-0.401,0.162c-0.135,0.047-0.263,0.119-0.409,0.147c-0.283,0.068-0.565,0.145-0.851,0.21l-0.874,0.121
				c-0.294,0.055-0.589,0.045-0.882,0.059c-0.295,0.004-0.591,0.018-0.885,0.021c-0.587-0.04-1.174-0.081-1.759-0.128l0.201-0.252
				c0.105,0.161,0.244,0.327,0.386,0.48s0.295,0.304,0.456,0.444s0.336,0.273,0.512,0.398l0.275,0.182
				c0.089,0.065,0.189,0.112,0.284,0.169c0.097,0.057,0.197,0.109,0.299,0.153c0.104,0.048,0.203,0.104,0.311,0.142l0.317,0.122
				c0.105,0.044,0.22,0.069,0.33,0.106c0.111,0.031,0.219,0.075,0.333,0.097l0.341,0.075c0.115,0.028,0.232,0.037,0.348,0.058
				l0.352,0.055c-0.237-0.009-0.478,0-0.717-0.03l-0.357-0.042c-0.121-0.008-0.235-0.042-0.354-0.063
				c-0.117-0.027-0.237-0.042-0.35-0.084l-0.341-0.103c-0.115-0.038-0.223-0.089-0.333-0.13c-0.111-0.043-0.221-0.086-0.325-0.141
				c-0.105-0.056-0.217-0.101-0.317-0.159l-0.305-0.176c-0.193-0.129-0.381-0.263-0.56-0.407c-0.179-0.144-0.348-0.294-0.503-0.456
				c-0.157-0.168-0.299-0.332-0.434-0.527c-0.053-0.078-0.022-0.183,0.069-0.229c0.036-0.019,0.076-0.025,0.115-0.022h0.019
				c0.574,0.038,1.146,0.085,1.719,0.129h0.86h0.431c0.146,0.006,0.287-0.013,0.429-0.024l0.857-0.066
				c0.283-0.048,0.56-0.104,0.841-0.153c0.142-0.025,0.273-0.072,0.412-0.107c0.135-0.04,0.277-0.072,0.407-0.121l0.392-0.156
				C29.849,32.84,29.982,32.783,30.095,32.705z"/>
		</g>
		<g>
			<path style="fill:#A7A9AC;" d="M11.572,44.719c0,0-0.035,0.085-0.095,0.233c-0.062,0.143-0.139,0.353-0.237,0.601
				c-0.19,0.501-0.44,1.165-0.569,1.839c-0.067,0.334-0.095,0.673-0.071,0.986c0.022,0.153,0.042,0.302,0.09,0.436
				c0.043,0.139,0.108,0.257,0.178,0.363c0.075,0.107,0.153,0.201,0.237,0.275c0.076,0.078,0.167,0.129,0.232,0.179
				c0.15,0.089,0.234,0.139,0.234,0.139s-0.099-0.022-0.271-0.079c-0.08-0.038-0.188-0.072-0.294-0.141
				c-0.109-0.063-0.224-0.146-0.328-0.258c-0.103-0.108-0.204-0.24-0.27-0.39c-0.081-0.151-0.128-0.317-0.164-0.49
				c-0.063-0.348-0.037-0.716,0.025-1.077c0.142-0.721,0.467-1.384,0.756-1.86c0.143-0.235,0.287-0.423,0.382-0.552
				C11.508,44.791,11.572,44.719,11.572,44.719z"/>
		</g>
		<g>
			<path style="fill:#A7A9AC;" d="M68.547,39.71c0,0,0.086,0.122,0.197,0.354c0.062,0.111,0.113,0.256,0.175,0.419
				c0.065,0.166,0.146,0.352,0.188,0.561c0.053,0.21,0.107,0.437,0.169,0.677c0.042,0.239,0.081,0.495,0.112,0.762
				c0.033,0.266,0.081,0.539,0.076,0.821c0.007,0.277,0.012,0.561,0.02,0.846c0,0.144,0.006,0.284,0,0.425
				c-0.01,0.142-0.021,0.282-0.033,0.42c-0.023,0.279-0.049,0.555-0.073,0.819c-0.025,0.266-0.04,0.522-0.095,0.761
				c-0.047,0.24-0.091,0.466-0.135,0.676c-0.08,0.42-0.172,0.765-0.225,1.006c-0.058,0.244-0.094,0.382-0.094,0.382
				s0.002-0.144,0.016-0.392c0.021-0.243,0.033-0.598,0.076-1.018c0.022-0.209,0.045-0.438,0.068-0.68
				c0.029-0.238,0.015-0.495,0.035-0.758c0.01-0.26,0.025-0.533,0.035-0.809c0.01-0.138,0.02-0.275,0.025-0.417
				c0.002-0.138-0.004-0.275-0.005-0.416c-0.001-0.279-0.006-0.562-0.007-0.834c0.007-0.278-0.018-0.549-0.039-0.809
				c-0.018-0.259-0.035-0.514-0.053-0.755c-0.035-0.237-0.068-0.46-0.1-0.671c-0.023-0.209-0.073-0.394-0.107-0.563
				c-0.035-0.17-0.064-0.317-0.105-0.433C68.602,39.849,68.547,39.71,68.547,39.71z"/>
		</g>
		<g style="opacity:0.4;">
			<path style="fill:#A7A9AC;" d="M75.955,44.036c1.76,0.352,3.178,1.162,3.178,1.162s-0.674-7.613-5.682-13.076
				c-5.007-5.464-9.807-6.159-9.807-6.159s3.244-1.802,1.418-2.151c-1.825-0.349-3.586,0.642-3.586,0.642
				c-0.066-2.325-1.892-5.001-2.027-3.606c-0.136,1.398-0.475,2.56-0.475,2.56c-5.049-3.277-10.77-4.722-16.498-4.946
				c11.767,1.423,16.77,6.513,16.77,6.513c-0.137-1.102,0.607-4.095,1.113-2.584c0.51,1.51,0.475,2.964,0.475,2.964
				c1.221-1.367,4.264-1.278,3.486-0.436c-0.779,0.843-2.231,1.538-2.231,1.538c15.254,2.936,16.37,17.96,15.115,15.927
				c-1.249-2.036-3.313-2.093-3.313-2.093c1.592,1.891,1.354,4.126,0.17,3.367c-1.186-0.754-1.354-2.699-1.354-2.699
				c-0.304,3.312-2.366,3.978-2.436,2.12c-0.144-3.919-2.806-7.64-2.806-7.64c1.251,3.631,0.979,8.571-2.302,3.833
				c-3.279-4.736-5.275-6.152-5.275-6.152c0.848,2.102,0.756,6.557-1.285,3.305s-6.395-6.566-6.395-6.566s4.469,6.335,0.578,5.956
				c-3.892-0.375-7.272-3.107-7.272-3.107s1.288,4.382-0.239,3.398c-1.525-0.983-2.568-4.066-2.568-4.066
				c-1.219,3.951-6.698,4.969-4.905,3.021c1.794-1.946,1.385-3.08,1.385-3.08c-5.514,5.232-14.714,2.992-11.262,2.149
				c3.45-0.842,4.702-3.428,4.702-3.428c-7.676,4.011-10.554,1.251-10.554,1.251c0.609,3.073-0.709,6.863-1.42,5.73
				c-0.711-1.132-0.56-3.683-0.56-3.683c-0.988,3.531-3.194,9.631-3.879,8.76c-0.685-0.871,0-3.778,0-3.778
				c-0.963,2.851-3.171,8.253-3.946,6.975c-0.777-1.282,0.47-4.997,0.47-4.997c-1.827,2.847-5.512,6.625-6.325,4.241
				c-0.812-2.385,2.438-5.867,2.438-5.867s-2.031,1.626-2.236,0c-0.202-1.629,2.099-3.838,2.099-3.838s-4.775,3.045-2.234-0.931
				c3.384-5.287,9.113-9.258,9.144-9.282c-2.329,1.355-4.192,2.756-5.42,4.054c-6.632,6.974-8.187,9.675-8.187,9.675
				c1.927-0.117,3.417-0.523,3.417-0.523c-2.875,1.105-3.249,3.722-3.249,3.722c0.948-1.134,2.741-1.134,2.741-1.134
				C2.12,43.31,0.867,46.43,0.867,46.43c4.059,3.063,7.709,11.139,7.709,11.139s4.045-2.615,5.322,1.966
				c-0.127-0.914-0.385-1.795-0.449-2.598c-0.248-3.117-2.166-7.381-2.166-7.381s1.708,2.225,4.093-5.968
				c0,0,0.103,1.918,0.914,1.918c0.812,0,3.603-7.585,3.603-7.585s0.1,1.653,1.167,3.092c1.064,1.44-0.872-2.823,4.657-5.698
				c0,0,4.321,2.169,11.477-0.489c0,0-1.522,1.57-4.822,2.181c0,0,6.174,1.51,10.368-2.181c0,0,1.691,1.89,3.992,2.644
				c0,0,0.271-0.87,0-2.906c0,0,3.195,2.527,8.625,3.314c0,0,0.66-2.004,0.455-3.314c0,0,2.639,3.923,5.379,5.448
				c0,0,0.252-1.829,0-3.18c0,0,6.646,6.886,7.558,11.374c0.46,2.253,0.294,5.337-0.063,8.181c-0.492,2.354,2.195-0.67,4.543,1.028
				c2.232-6.58,4.3-8.77,4.096-9.296c-0.205-0.522-1.572-1.61-1.572-1.61c1.42,0.349,2.57,0.375,2.57,0.375
				C77.51,46.304,75.955,44.036,75.955,44.036z"/>
		</g>
		<path style="opacity:0.5;fill:#A7A9AC;" d="M25.321,28.256c0,0-5.275,4.434-5.732,3.911c-0.458-0.521,1.216-2.833,1.216-2.833
			c-2.334,1.482-6.188,7.409-6.444,5.971c-0.252-1.438,1.678-3.965,1.678-3.965c-2.031,1.437-4.619,5.143-5.33,4.098
			C10,34.39,11.572,31.95,11.572,31.95c-4.21,2.439-0.76-5.536,12.836-10.201c13.597-4.664,22.679-2.092,22.679-2.092
			s-10.317-1.44-22.103,3.314c-11.788,4.752-12.887,8.482-9.912,6.246c0,0-1.284,1.335-0.776,1.917
			c0.506,0.58,3.178-1.948,3.178-1.948s-0.914,1.253-0.472,1.978c0.439,0.726,1.42-1.918,5.412-3.455c0,0-1.557,1.886-1.557,2.583
			C20.856,30.99,23.665,29.361,25.321,28.256z"/>
		<path style="opacity:0.5;fill:#A7A9AC;" d="M40.897,25.148c-2.167,4.736-7.17,7.105-6.191,5.888
			c2.059-2.563,0.88-6.687,0.88-6.687c-3.145,4.565-9.421,6.93-9.421,6.93s4.905-0.276,7.915-3.774c0,0,0.035,3.803-2.671,5.78
			c-2.706,1.976,7.767-0.376,8.748-4.97c0,0,0.095,3.154-0.732,5.464c-0.134,0.379,2.199-0.721,3.282-4.166
			c0,0,0.879,3.088,2.129,4.166c0.779,0.668,0.544-1.453,0-2.937c0,0,3.348,2.849,6.665,3.024c3.651,0.19-0.851-5.624-2.22-6.582
			c0,0,2.164,2.778,1.42,4.166c-0.693,1.294-4.73-0.331-6.709-3.382c0,0-0.152,1.089-0.051,1.963c0.1,0.868-1.117-1.7-1.318-3.707
			c0,0-0.261,1.981-1.016,2.999C40.491,30.838,41.505,28.779,40.897,25.148z"/>
		<path style="opacity:0.5;fill:#A7A9AC;" d="M66.52,28.332c9.281,3.835,9,12.709,8,10.961c-0.988-1.732-2.676-2.703-2.676-2.703
			c1.168,3.377-0.607,5.297-1.318,3.12c-1.379-4.217-4.717-7.005-4.717-7.005c2.129,3.587,1.571,9.529-0.256,5.477
			c-1.827-4.055-7.25-8.021-7.25-8.021c1.124,3.009,0.758,5.58,0,4.402c-2.362-3.68-6.802-5.707-6.802-5.707s3.747,0.707,5.53,2.963
			c0.861,1.091,0.66-1.962-0.205-3.749c0,0,5.156,3.135,7.561,6.233c1.319,1.7,0.813-1.874-0.303-3.839c0,0,3.803,1.899,6.238,7.084
			c1.121,2.388,1.168-1.93-1.402-4.489c-1.068-1.062,1.453-0.149,3.433,1.983C74.33,37.178,72.759,31.34,66.52,28.332z"/>
		<g style="opacity:0.7;">
			<path style="fill:#A7A9AC;" d="M9.136,51.333c-1.043-2.535,0.062-4.882,0.544-5.718c-0.953,1.281-4.445,4.055-5.771,1.628
				c-1.453-2.662,1.016-6.17,1.016-6.17C2.12,43.31,0.867,46.43,0.867,46.43c4.059,3.063,7.629,11.139,7.629,11.139
				s4.125-2.615,5.402,1.966c-0.127-0.914-0.011-1.926-0.212-2.695c-0.795-3.057-2.171-7.804-2.171-7.804
				S10.438,54.496,9.136,51.333z"/>
		</g>
		<g style="opacity:0.7;">
			<path style="fill:#A7A9AC;" d="M70.852,47.552c-1.146-0.436-1.557-3.52-1.557-3.52c0.037,2.61-0.531,4.243-0.531,4.243
				l-0.002,0.003c0.439,2.242-0.215,7.645-0.568,10.461c0.003-0.003,1.916-3.396,4.265-1.697c2.231-6.579,5.07-8.397,4.866-8.924
				c-0.205-0.522-1.572-1.61-1.572-1.61c1.42,0.349,2.57,0.375,2.57,0.375c-0.127-0.09-0.272-0.224-0.428-0.382
				c-3.236-0.338-5.052-1.566-5.052-1.566C72.809,46.652,71.996,47.987,70.852,47.552z"/>
		</g>
	</g>
</g>
<g id="Layer_1">
</g>
</svg>
