<?xml version="1.0" encoding="iso-8859-1"?>
<!-- Generator: Adobe Illustrator 15.0.0, SVG Export Plug-In . SVG Version: 6.00 Build 0)  -->
<!DOCTYPE svg PUBLIC "-//W3C//DTD SVG 1.1//EN" "http://www.w3.org/Graphics/SVG/1.1/DTD/svg11.dtd">
<svg version="1.1" xmlns="http://www.w3.org/2000/svg" xmlns:xlink="http://www.w3.org/1999/xlink" x="0px" y="0px"
	 width="79.999px" height="80px" viewBox="0 0 79.999 80" style="enable-background:new 0 0 79.999 80;" xml:space="preserve">
<g id="ico-hair-4">
	<g>
		<defs>
			<rect id="SVGID_1_" width="79.999" height="80"/>
		</defs>
		<clipPath id="SVGID_2_">
			<use xlink:href="#SVGID_1_"  style="overflow:visible;"/>
		</clipPath>
		<g style="clip-path:url(#SVGID_2_);">
			<path style="fill:none;" d="M59.746,0H20.253C9.067,0,0,9.066,0,20.253v39.493C0,70.932,9.067,80,20.253,80h39.493
				c11.186,0,20.253-9.068,20.253-20.254V20.253C79.999,9.066,70.932,0,59.746,0z"/>
		</g>
	</g>
	<g>
		<path style="fill:#A7A9AC;stroke:#010101;stroke-width:0.25;stroke-miterlimit:10;" d="M53.862,9.563
			c0,0-10.127-9.217-28.597-2.843C6.801,13.09-0.151,34.986,0.644,44.283c0.793,9.301,9.396,22.307,16.216,24.333
			c6.82,2.026,11.733-1.553,11.733-1.553s-7.761-2.041-12.659-6.421c-3.332-2.979-4.214-5.354-4.269-7.842
			c-4.111,2.97-7.84-5.214-4.56-8.208c2.613-2.386,4.543-0.638,5.379,0.45c0.148-1.909-0.028-3.643-1.116-6.034
			c0,0,17.604-4.317,26.343-12.485c0,0-1.456,2.417-3.575,4.511c-2.116,2.09,5.825,0,10.196-8.106c0,0,1.561,6.845,4.632,10.722
			c1.191,1.501-0.461-5.884-0.461-5.884s3.107,8.823,12.973,12.873c0,0,0.288,1.046,0.615,2.669
			c2.161-1.796,5.882-1.747,6.929,2.499c1.121,4.545-3.909,9.542-6.984,6.48c-1.667,4.888-6.574,11.348-19.195,14.432
			c0,0,8.538,4.71,17.327,1.67c8.786-3.041,16.686-14.812,17.262-27.227C78.484,18.287,58.827,10.053,53.862,9.563z"/>
	</g>
	<path style="opacity:0.5;fill:#A7A9AC;" d="M53.862,9.563c0,0-10.127-9.217-28.597-2.843C6.801,13.09-0.151,34.986,0.644,44.283
		c0.793,9.301,9.396,22.307,16.216,24.333c6.82,2.026,11.733-1.553,11.733-1.553s-7.761-2.041-12.659-6.421
		c-3.332-2.979-4.214-5.354-4.269-7.842c-4.111,2.97-7.84-5.214-4.56-8.208c2.613-2.386,4.543-0.638,5.379,0.45
		c0.148-1.909-0.028-3.643-1.116-6.034c0,0,17.604-4.317,26.343-12.485c0,0-1.456,2.417-3.575,4.511
		c-2.116,2.09,5.825,0,10.196-8.106c0,0,1.561,6.845,4.632,10.722c1.191,1.501-0.461-5.884-0.461-5.884s3.107,8.823,12.973,12.873
		c0,0,0.288,1.046,0.615,2.669c2.161-1.796,5.882-1.747,6.929,2.499c1.121,4.545-3.909,9.542-6.984,6.48
		c-1.667,4.888-6.574,11.348-19.195,14.432c0,0,8.538,4.71,17.327,1.67c8.786-3.041,16.686-14.812,17.262-27.227
		C78.484,18.287,58.827,10.053,53.862,9.563z M8.188,42.132c0,0-2.779-1.036-3.672,2.616c-1.219,4.978,1.403,8.041,4.269,11.642
		c2.865,3.599-2.282,0.332-3.676-2.181c0,0-4.863-6.973-2.978-17.867C4.017,25.443,11.173,13.11,26.459,7.438
		C36.586,3.68,47.59,6.724,49.868,8.483c-7.735-2.074-14.275-0.392-8.367,0.132c5.909,0.522,8.926,3.364,4.199,2.698
		c-4.729-0.667-22.092-3.968-33.216,8.931C1.368,33.145,8.188,42.132,8.188,42.132z M57.567,36.621
		c-6.028-3.43-10.804-14.511-10.804-14.511s2.233,9.904,0.346,6.374c-1.885-3.53-2.926-8.873-2.926-8.873
		c-0.697,4.803-7.551,9.854-6.606,8.586c2.201-2.962,2.318-6.339,2.318-6.339c-4.258,7.819-32.153,19.813-28.024,9.818
		c4.745-11.493,19.321-17.131,30.913-14.445c0,0-3.373-0.071-6.57,1.399c-3.202,1.471,3.5,1.323,6.132-0.489
		c0,0-0.199,0.685-0.549,2.351c-0.346,1.67,1.441-0.588,2.435-3.186c0,0,0.763,2.125,1.322,3.597
		c0.563,1.471,0.763,0.197,0.763,0.197s1.884,2.251,3.108,3.362c1.229,1.112,2.454,1.013,0.911-0.831
		C60.616,28.531,63.591,40.054,57.567,36.621z M62.787,20.248c-2.9-0.128-2.463-0.512-3.299-3.26
		c-1.193-3.929-4.683-6.305-3.046-5.759c0,0,10.256,2.78,14.896,10.629C72.857,24.432,71.042,20.62,62.787,20.248z M60.967,60.573
		c4.585-1.512,9.577-6.467,9.974-12.562c0.396-6.098-1.932-6.602-4.104-8.29c-3.574-2.78,3.707-5.543,5.497,0
		c0.982,3.048,1.916,0.396-0.467-5.234c-3.031-7.167,3.969-8.485,4.803,2.454C78.521,61.255,56.376,62.08,60.967,60.573z"/>
	<path style="fill:#FEE9A7;" d="M12.484,33.471c0,0,0.448-7.011,9.803-12.438c8.343-4.838,14.792-3.661,14.792-3.661
		S20.811,18.418,12.484,33.471z"/>
	<path style="fill:#FEE9A7;" d="M12.484,17.526c0,0,8.313-12.866,28.173-11.003C40.657,6.523,23.936,6.764,12.484,17.526z"/>
	<path style="fill:#FEE9A7;" d="M49.868,26.424c0,0,3.797,8.237,9.556,9.705C59.424,36.129,54.181,31.945,49.868,26.424z"/>
	<path style="opacity:0.6;fill:#FEE9A7;" d="M54.165,19.357c-4.404-0.11-7.078-1.021-7.184-2.791
		c-0.131,0.113-0.268,0.222-0.408,0.32c-2.872,2.042,1.748,6.214,7.698,5.987c-0.295-0.557,0.073-0.971,0.859-1.917
		c0.676-0.809,1.266-1.739,2.391-1.582c-0.013-0.273-0.036-0.596-0.086-0.956C56.643,19.02,55.588,19.389,54.165,19.357z"/>
	<path style="opacity:0.5;fill:#FEE9A7;" d="M8.833,30.936c0,0,2.731-13.385,21.297-17.724C30.13,13.212,14.344,18.093,8.833,30.936
		z"/>
</g>
<g id="Layer_1">
</g>
</svg>
