<?xml version="1.0" encoding="iso-8859-1"?>
<!-- Generator: Adobe Illustrator 15.0.0, SVG Export Plug-In . SVG Version: 6.00 Build 0)  -->
<!DOCTYPE svg PUBLIC "-//W3C//DTD SVG 1.1//EN" "http://www.w3.org/Graphics/SVG/1.1/DTD/svg11.dtd">
<svg version="1.1" xmlns="http://www.w3.org/2000/svg" xmlns:xlink="http://www.w3.org/1999/xlink" x="0px" y="0px" width="80px"
	 height="80px" viewBox="0 0 80 80" style="enable-background:new 0 0 80 80;" xml:space="preserve">
<g id="ico-hair-2">
	<g>
		<defs>
			<rect id="SVGID_1_" width="80" height="80"/>
		</defs>
		<clipPath id="SVGID_2_">
			<use xlink:href="#SVGID_1_"  style="overflow:visible;"/>
		</clipPath>
		<g style="clip-path:url(#SVGID_2_);">
			<path style="fill:none;" d="M59.746,0H20.253C9.068,0,0,9.066,0,20.253v39.493C0,70.932,9.068,80,20.253,80h39.493
				C70.932,80,80,70.932,80,59.746V20.253C80,9.066,70.932,0,59.746,0z"/>
		</g>
	</g>
	<g>
		<path style="fill:#A7A9AC;" d="M76.34,47.208c5.642-7.266-1.848-10.897-1.848-10.897s2.333-0.726,1.264-2.281
			c-1.264,1.556-3.406,1.349-3.99-2.183c-0.582-3.529-5.738-5.085-5.738-5.085s2.823-0.726,1.265-2.698
			c-1.265,2.698-4.767,0.934-7.197-1.451c-2.435-2.386-7.295-5.605-11.967-3.219c-5.058-6.746-13.034-2.491-17.119,0.518
			c-4.084,3.011-5.155-0.518-4.572-1.97c-1.458,0.621-2.917,3.216-1.362,4.566c-1.556-0.831-5.349-0.727-8.365,2.282
			c-3.112,3.112-4.475,0.519-4.475,0.519s0,3.009,2.334,2.801c-6.321,3.947-5.057,6.645-4.667,9.238
			c0.388,2.595-2.724,3.424-3.893,1.869c-0.098,1.349,0.876,2.074,0.876,2.074c-8.561,3.428-4.233,9.44-4.233,9.44
			s0.057-1.512,0.963-2.657c-0.735,1.089-0.454,2.476,0.339,3.018c-0.113,3.688,3.644,3.83,3.383,6.045
			c-0.259,2.218-2.721,1.104-2.721,1.104c2.004,3.243,3.944,1.194,6.408,2.726c1.587,0.991,1.977,3.188,1.673,5.539
			c0.843-3.159,0.506-5.017,0.003-8.354c-0.527-3.486,0.815-5.417,1.749-6.349c1.342,1.805,3.908,0,5.426-1.932
			c-0.409,1.554-0.409,1.554-0.409,1.554s6.533-0.931,6.302-5.848c3.148,2.613,4.607,3.797,1.982,4.419
			c2.392,1.244,4.785,0.684,4.958-2.863c0.701,1.433,3.1,2.551,4.436,3.174c1.865,0.873,1.924,2.054,1.05,2.428
			c2.917-0.185,3.792-4.232,2.8-5.353c1.692,0.935,3.792,1.058,4.375,0.996c-1.749-0.562-2.331-3.362-1.283-5.041
			c0,0,1.635,4.356,6.944,3.549c-1.343-1.247,0.173-4.173,0.173-4.173s0.583,0.997,4.084,2.866c2.393,1.429,2.51,2.675,1.692,3.607
			c1.981-0.373,3.091-1.06,3.326-3.176c-0.409,3.611,1.282,5.481,3.501,5.541c2.217,0.062,3.031,1.433,1.574,3.487
			c0.816,0.061,0.992-0.251,0.992-0.251s0.387,4.13,0.783,7.103c0.299-0.258,1.855-1.473,6.167-2.853
			c5.155-2.281,0.876-5.916,0.876-5.916s2.141,0.726,2.334-1.348C73.909,51.151,73.909,49.388,76.34,47.208z"/>
		<path style="fill:#A7A9AC;" d="M12.884,66.562l-0.38-0.084c0.197-1.502,0.247-4.193-1.579-5.331
			c-0.949-0.591-1.822-0.624-2.667-0.657c-1.311-0.055-2.552-0.104-3.804-2.132L4.1,57.787l0.591,0.265
			c0.005,0.003,0.589,0.263,1.189,0.263c0.758,0,1.17-0.395,1.266-1.204c0.102-0.87-0.504-1.386-1.272-2.034
			C4.92,54.271,3.734,53.271,3.759,51.2c-0.369-0.291-0.633-0.758-0.727-1.292c-0.007-0.046-0.014-0.093-0.021-0.139
			c-0.147,0.551-0.165,0.962-0.165,0.97l-0.021,0.575l-0.329-0.457c-0.066-0.092-1.653-2.338-0.959-4.927
			c0.525-1.954,2.197-3.536,4.979-4.709c-0.31-0.335-0.772-1.018-0.701-2.021l0.036-0.525l0.31,0.412
			c0.337,0.449,0.884,0.704,1.505,0.704c0.655,0,1.276-0.283,1.658-0.76c0.346-0.437,0.48-1.005,0.383-1.65
			c-0.039-0.253-0.083-0.509-0.132-0.769c-0.417-2.288-0.89-4.874,4.337-8.322c-1.469-0.286-1.872-2.022-1.872-2.981v-0.783
			l0.365,0.684c0.019,0.035,0.495,0.908,1.519,0.908c0.779,0,1.671-0.499,2.65-1.476c2.519-2.516,5.271-2.789,6.338-2.789
			c0.56,0,1.085,0.069,1.541,0.192c-0.216-0.408-0.289-0.886-0.214-1.414c0.168-1.18,1.101-2.448,2.124-2.882l0.437-0.188
			l-0.186,0.462c-0.204,0.509-0.198,1.413,0.22,2.087c0.219,0.355,0.636,0.774,1.397,0.774c0.739,0,1.635-0.383,2.666-1.144
			c2.105-1.551,6.25-4.154,10.343-4.154c2.792,0,5.125,1.194,6.941,3.55c1.078-0.522,2.228-0.79,3.42-0.79
			c4.114,0,7.64,3.148,8.622,4.112c1.733,1.701,3.65,2.758,5.005,2.758c0.865,0,1.502-0.419,1.889-1.244l0.131-0.284l0.191,0.242
			c0.457,0.58,0.61,1.127,0.457,1.628c-0.189,0.61-0.795,0.99-1.259,1.2c1.38,0.523,4.832,2.108,5.319,5.054
			c0.304,1.837,1.096,2.936,2.118,2.933c0.533,0,1.091-0.312,1.532-0.853l0.156-0.197l0.146,0.21
			c0.304,0.44,0.389,0.867,0.262,1.276c-0.186,0.582-0.791,0.961-1.205,1.159c0.891,0.53,3.002,2.023,3.543,4.533
			c0.434,2.005-0.25,4.182-2.022,6.469c-1.293,1.16-1.898,2.203-1.728,2.95c0.136,0.588,0.761,1.029,1.814,1.279l0.166,0.04
			l-0.017,0.182c-0.097,1.072-0.711,1.66-1.725,1.66l0,0c-0.063,0-0.129-0.002-0.192-0.006c0.568,0.623,1.395,1.78,1.23,3.035
			c-0.146,1.115-1.035,2.037-2.643,2.749c-4.32,1.384-5.854,2.593-6.116,2.822l-0.269,0.23l-0.05-0.363
			c-0.325-2.451-0.648-5.721-0.751-6.772c-0.178,0.076-0.438,0.128-0.846,0.095l-0.357-0.025l0.219-0.306
			c0.63-0.886,0.838-1.678,0.588-2.233c-0.252-0.563-0.968-0.89-2.014-0.919c-1.114-0.031-2.055-0.486-2.727-1.31
			c-0.588-0.727-0.927-1.703-1.006-2.866c-0.572,1.103-1.631,1.538-3.054,1.807L56.44,49.5l0.397-0.455
			c0.315-0.36,0.447-0.735,0.392-1.117c-0.099-0.683-0.806-1.432-2.038-2.171c-2.527-1.348-3.557-2.257-3.942-2.675
			c-0.321,0.727-1.074,2.732-0.092,3.646l0.319,0.299l-0.42,0.063c-0.446,0.068-0.882,0.104-1.303,0.104
			c-3.561,0-5.188-2.474-5.678-3.418c-0.376,0.814-0.424,1.864-0.115,2.784c0.283,0.831,0.803,1.408,1.466,1.618l0.94,0.303
			l-0.977,0.104c-0.084,0.007-0.199,0.015-0.338,0.015c-0.21,0-1.93-0.022-3.6-0.761c0.213,0.684,0.157,1.654-0.184,2.567
			c-0.565,1.524-1.681,2.448-3.063,2.536l-1.202,0.075l1.118-0.475c0.269-0.114,0.421-0.312,0.425-0.552
			c0.003-0.384-0.381-0.979-1.481-1.492c-1.256-0.586-3.262-1.523-4.215-2.768c-0.258,1.965-1.302,3.076-2.924,3.076
			c-0.699,0-1.48-0.215-2.262-0.624l-0.5-0.263l0.544-0.127c0.74-0.174,1.146-0.397,1.2-0.657c0.118-0.563-1.211-1.694-2.942-3.134
			c-0.153,4.674-6.41,5.622-6.475,5.632l-0.293,0.041l0.269-1.021c-1,1.074-2.371,2.098-3.592,2.098
			c-0.572,0-1.053-0.218-1.439-0.651c-0.996,1.07-2.006,2.953-1.545,6.016l0.06,0.403C13.421,61.618,13.703,63.485,12.884,66.562z
			 M5.116,58.627c1.022,1.36,2.019,1.4,3.157,1.448c0.85,0.031,1.813,0.07,2.846,0.712c1.038,0.646,1.659,1.819,1.823,3.402
			c0.193-1.832-0.042-3.402-0.375-5.603l-0.061-0.402c-0.511-3.396,0.703-5.427,1.812-6.536l0.151-0.152l0.132,0.176
			c0.328,0.441,0.756,0.666,1.274,0.666c1.332,0,2.907-1.4,3.85-2.6L20.306,49l-0.568,2.166c1.251-0.257,6.029-1.498,5.836-5.579
			l-0.021-0.454l0.429,0.359c2.245,1.864,3.482,2.892,3.305,3.737c-0.072,0.349-0.372,0.607-0.949,0.813
			c0.555,0.23,1.098,0.349,1.59,0.349c1.564,0,2.484-1.161,2.588-3.269l0.037-0.759l0.33,0.673c0.668,1.366,3.057,2.48,4.34,3.08
			c1.099,0.516,1.723,1.2,1.712,1.881c-0.002,0.148-0.034,0.286-0.095,0.412c1.277-0.39,1.862-1.596,2.069-2.155
			c0.399-1.07,0.375-2.245-0.054-2.731l-0.786-0.888l1.016,0.563c1.291,0.712,2.734,0.912,3.479,0.965
			c-0.422-0.346-0.758-0.851-0.967-1.466c-0.393-1.161-0.264-2.527,0.329-3.476l0.204-0.328l0.138,0.363
			c0.054,0.146,1.377,3.521,5.487,3.521c0.285,0,0.578-0.019,0.88-0.05c-0.967-1.438,0.341-3.997,0.4-4.116l0.159-0.308l0.178,0.301
			c0,0,0.636,0.992,4.004,2.786c1.368,0.819,2.119,1.648,2.238,2.471c0.051,0.35-0.01,0.691-0.179,1.02
			c1.538-0.363,2.466-1.027,2.677-2.87v-0.002l0,0h0.001l0.386,0.03l0,0l0,0l0,0c-0.196,1.771,0.106,3.194,0.871,4.14
			c0.597,0.735,1.441,1.138,2.441,1.165c1.2,0.033,2.035,0.445,2.355,1.153c0.204,0.454,0.281,1.214-0.41,2.335
			c0.355-0.032,0.455-0.16,0.455-0.16l0.305-0.539l0.05,0.635c0.004,0.041,0.362,3.848,0.739,6.752
			c0.64-0.467,2.353-1.525,5.961-2.678c1.454-0.646,2.264-1.462,2.389-2.415c0.211-1.604-1.559-3.126-1.574-3.139l-0.824-0.699
			l1.002,0.335c0,0,0.342,0.115,0.743,0.115c0.751,0,1.189-0.372,1.315-1.106c-1.117-0.299-1.764-0.814-1.934-1.542
			c-0.211-0.924,0.422-2.078,1.83-3.342c1.67-2.153,2.322-4.207,1.922-6.08c-0.632-2.937-3.693-4.453-3.725-4.469l-0.477-0.232
			l0.502-0.158c0.012-0.001,1.148-0.364,1.369-1.063c0.068-0.215,0.041-0.438-0.081-0.683c-0.483,0.516-1.063,0.795-1.646,0.795
			c-1.228,0-2.164-1.223-2.501-3.276c-0.557-3.358-5.551-4.905-5.602-4.922l-0.709-0.212l0.716-0.189
			c0.013-0.004,1.308-0.348,1.548-1.132c0.088-0.294,0.018-0.621-0.213-0.987c-0.465,0.779-1.18,1.19-2.086,1.19
			c-1.469,0-3.439-1.073-5.268-2.867c-0.957-0.938-4.389-4.003-8.359-4.003c-1.186,0-2.326,0.275-3.391,0.82l-0.139,0.071
			l-0.098-0.129c-1.75-2.337-4.018-3.522-6.734-3.522c-3.989,0-8.054,2.559-10.124,4.083c-1.094,0.807-2.065,1.214-2.885,1.217
			c-0.933,0-1.453-0.521-1.724-0.962c-0.383-0.621-0.475-1.389-0.379-1.997c-0.743,0.5-1.38,1.47-1.506,2.353
			c-0.066,0.471-0.021,1.139,0.574,1.65l1.374,1.194l-1.584-0.846c-0.513-0.274-1.25-0.424-2.074-0.424
			c-1.019,0-3.654,0.26-6.071,2.674c-1.054,1.052-2.034,1.586-2.917,1.586c-0.656,0-1.13-0.293-1.434-0.578
			c0.141,0.813,0.601,2.08,2.064,1.953l0.855-0.076l-0.74,0.462c-5.581,3.48-5.139,5.903-4.711,8.245
			c0.047,0.26,0.094,0.522,0.134,0.78c0.116,0.77-0.047,1.453-0.472,1.983c-0.455,0.57-1.186,0.909-1.954,0.909
			c-0.549,0-1.057-0.172-1.448-0.491c0.127,0.909,0.77,1.401,0.776,1.404l0.303,0.227l-0.347,0.137
			c-2.838,1.138-4.533,2.67-5.039,4.562c-0.466,1.729,0.205,3.335,0.616,4.098c0.101-0.568,0.346-1.452,0.938-2.204l0.306,0.255
			c-0.331,0.49-0.458,1.072-0.358,1.636c0.083,0.47,0.317,0.867,0.645,1.088l0.093,0.065l-0.004,0.115
			c-0.059,1.942,1.017,2.85,1.966,3.654c0.794,0.672,1.547,1.306,1.417,2.408c-0.118,1.012-0.706,1.567-1.652,1.567
			C5.604,58.729,5.337,58.681,5.116,58.627z"/>
	</g>
	<g>
		<g>
			<path style="fill:#808285;" d="M20.417,40.819c-0.341,0.033-0.68,0.097-1.015,0.174c-0.336,0.079-0.665,0.185-0.982,0.307
				c-0.164,0.053-0.317,0.128-0.473,0.2c-0.158,0.065-0.307,0.15-0.454,0.239c-0.149,0.084-0.296,0.171-0.431,0.278
				c-0.134,0.106-0.282,0.193-0.4,0.322c-0.119,0.124-0.253,0.228-0.368,0.355l-0.323,0.401c-0.103,0.138-0.176,0.298-0.268,0.441
				c-0.04,0.078-0.094,0.147-0.127,0.227l-0.095,0.243c-0.059,0.165-0.144,0.318-0.181,0.492l-0.116,0.516
				c-0.05,0.166-0.05,0.348-0.071,0.526l-0.049,0.53V46.05c0.049,0.563,0.223,1.109,0.447,1.642
				c0.225,0.533,0.506,1.049,0.718,1.619c0.101,0.287,0.196,0.594,0.174,0.924c-0.009,0.335-0.177,0.646-0.403,0.847
				c-0.111,0.104-0.235,0.189-0.358,0.263c-0.129,0.07-0.258,0.138-0.386,0.191c-0.261,0.117-0.534,0.193-0.805,0.268
				c0.259-0.113,0.52-0.222,0.765-0.358c0.124-0.065,0.242-0.146,0.356-0.223c0.111-0.082,0.217-0.175,0.31-0.274
				c0.181-0.204,0.303-0.453,0.295-0.72c0.005-0.271-0.094-0.542-0.203-0.802c-0.229-0.522-0.538-1.026-0.781-1.576
				c-0.254-0.542-0.452-1.136-0.511-1.765V46.07v-0.009l0.049-0.568c0.017-0.186,0.017-0.377,0.073-0.559l0.135-0.558
				c0.04-0.186,0.134-0.354,0.198-0.53c0.069-0.178,0.141-0.356,0.252-0.51c0.101-0.158,0.188-0.328,0.304-0.474l0.365-0.425
				c0.125-0.131,0.27-0.247,0.407-0.368c0.132-0.127,0.296-0.213,0.441-0.314c0.15-0.105,0.308-0.189,0.469-0.265
				c0.157-0.086,0.318-0.163,0.487-0.22c0.163-0.066,0.325-0.133,0.495-0.178c0.336-0.104,0.68-0.17,1.026-0.217
				C19.726,40.827,20.073,40.803,20.417,40.819z"/>
		</g>
		<g>
			<path style="fill:#808285;" d="M12.356,47.471c0,0-0.153,0.109-0.413,0.308c-0.257,0.194-0.611,0.497-1.019,0.876
				c-0.403,0.378-0.845,0.87-1.182,1.464c-0.163,0.301-0.285,0.63-0.324,0.97c-0.042,0.344,0.032,0.69,0.188,0.998
				c0.155,0.293,0.407,0.612,0.622,0.896c0.223,0.287,0.456,0.569,0.682,0.836c0.455,0.531,0.911,1.039,1.17,1.591
				c0.128,0.271,0.183,0.552,0.205,0.796c0.014,0.241,0.005,0.451-0.012,0.622c-0.01,0.173-0.052,0.302-0.064,0.392
				c-0.015,0.091-0.026,0.139-0.026,0.139s0.004-0.048,0.007-0.141c0-0.089,0.014-0.223,0.005-0.394
				c0.001-0.169-0.012-0.371-0.054-0.597c-0.047-0.224-0.125-0.466-0.254-0.709c-0.261-0.482-0.744-0.925-1.224-1.447
				c-0.24-0.264-0.49-0.531-0.723-0.832c-0.12-0.148-0.235-0.303-0.346-0.451c-0.11-0.145-0.234-0.319-0.329-0.504
				c-0.188-0.375-0.278-0.824-0.219-1.239c0.05-0.42,0.217-0.796,0.405-1.117c0.395-0.64,0.901-1.089,1.334-1.452
				c0.438-0.358,0.841-0.598,1.119-0.765C12.188,47.547,12.356,47.471,12.356,47.471z"/>
		</g>
		<g>
			<path style="fill:#808285;" d="M3.954,51.092c0,0-0.021-0.347,0.076-0.857c0.046-0.253,0.125-0.547,0.23-0.854
				c0.061-0.147,0.107-0.311,0.186-0.459c0.069-0.154,0.142-0.309,0.228-0.46c0.08-0.15,0.174-0.293,0.268-0.434
				c0.087-0.146,0.199-0.266,0.296-0.395c0.094-0.126,0.208-0.231,0.308-0.337c0.096-0.107,0.2-0.197,0.297-0.275
				c0.188-0.167,0.362-0.277,0.487-0.352c0.121-0.075,0.193-0.115,0.193-0.115s-0.052,0.067-0.144,0.182
				C6.281,46.844,6.144,47,5.998,47.192c-0.08,0.097-0.16,0.2-0.24,0.315c-0.08,0.111-0.17,0.227-0.254,0.356
				c-0.168,0.252-0.344,0.522-0.495,0.809c-0.167,0.28-0.301,0.576-0.435,0.854c-0.125,0.278-0.242,0.543-0.331,0.778
				C4.061,50.769,3.954,51.092,3.954,51.092z"/>
		</g>
		<g>
			<path style="fill:#808285;" d="M22.021,31.118c-0.127,0.186-0.277,0.356-0.442,0.511c-0.16,0.157-0.337,0.295-0.527,0.417
				c-0.09,0.068-0.195,0.111-0.293,0.165c-0.101,0.056-0.212,0.076-0.32,0.117c-0.106,0.042-0.225,0.042-0.337,0.063
				c-0.111,0.026-0.228,0.002-0.344,0c-0.118,0-0.228-0.035-0.342-0.066l-0.166-0.051c-0.056-0.023-0.104-0.054-0.157-0.079
				c-0.1-0.062-0.215-0.101-0.302-0.179l-0.271-0.229c-0.094-0.071-0.158-0.171-0.238-0.256l-0.224-0.268l-0.372-0.593l0.344-0.049
				l-0.083,0.44c-0.037,0.144-0.024,0.296-0.039,0.442c-0.018,0.148-0.01,0.297,0,0.441c0.004,0.148,0.018,0.298,0.05,0.441
				c0.028,0.141,0.051,0.288,0.104,0.426c0.047,0.137,0.082,0.281,0.151,0.409c0.063,0.13,0.118,0.268,0.202,0.387
				c0.078,0.121,0.153,0.247,0.25,0.353c0.09,0.11,0.182,0.223,0.292,0.315l0.156,0.146l0.176,0.124
				c0.113,0.088,0.238,0.153,0.367,0.212c0.123,0.073,0.263,0.106,0.396,0.147c0.134,0.054,0.275,0.054,0.414,0.085
				c0.143,0.026,0.286,0.004,0.428,0.012c0.142-0.015,0.281-0.053,0.426-0.075l0.415-0.147c-0.13,0.069-0.26,0.147-0.395,0.215
				c-0.142,0.041-0.283,0.097-0.431,0.128c-0.147,0.013-0.297,0.054-0.448,0.045c-0.149-0.01-0.308,0.007-0.454-0.043
				c-0.148-0.033-0.299-0.062-0.438-0.13c-0.146-0.052-0.289-0.115-0.417-0.202l-0.202-0.12l-0.184-0.148
				c-0.128-0.093-0.238-0.208-0.343-0.326c-0.114-0.116-0.203-0.249-0.293-0.383c-0.098-0.13-0.167-0.278-0.24-0.423
				c-0.082-0.138-0.128-0.299-0.182-0.453c-0.061-0.152-0.09-0.315-0.12-0.477c-0.04-0.162-0.057-0.324-0.063-0.487
				c-0.014-0.164-0.026-0.33-0.007-0.493c0.02-0.161,0.011-0.33,0.051-0.487l0.095-0.479l0.094-0.466l0.254,0.419l0.337,0.557
				l0.198,0.25c0.066,0.082,0.124,0.181,0.206,0.24l0.229,0.211c0.075,0.07,0.167,0.112,0.252,0.171
				c0.042,0.026,0.084,0.055,0.129,0.08l0.139,0.051c0.094,0.036,0.189,0.077,0.287,0.08c0.098,0.007,0.199,0.042,0.301,0.023
				c0.098-0.012,0.202,0,0.301-0.034c0.098-0.028,0.202-0.037,0.297-0.085c0.096-0.037,0.196-0.065,0.289-0.119
				c0.191-0.093,0.377-0.208,0.55-0.341C21.697,31.423,21.865,31.277,22.021,31.118z"/>
		</g>
		<g>
			<path style="fill:#808285;" d="M25.737,45.518c0,0-0.038-0.024-0.107-0.082c-0.068-0.059-0.171-0.142-0.283-0.27
				c-0.117-0.125-0.242-0.288-0.377-0.489c-0.129-0.202-0.267-0.442-0.367-0.727c-0.112-0.281-0.19-0.604-0.242-0.949
				c-0.056-0.349-0.066-0.718-0.042-1.103c0.024-0.189,0.049-0.381,0.073-0.574c0.042-0.193,0.085-0.386,0.129-0.581
				c0.059-0.21,0.122-0.377,0.182-0.566c0.068-0.185,0.169-0.373,0.25-0.563c0.096-0.178,0.211-0.346,0.315-0.519
				c0.12-0.16,0.242-0.316,0.367-0.469c0.266-0.285,0.553-0.542,0.857-0.746c0.299-0.212,0.61-0.38,0.915-0.5
				c0.303-0.13,0.598-0.22,0.875-0.282c0.278-0.071,0.534-0.104,0.761-0.118c0.228-0.021,0.428-0.016,0.593-0.008
				c0.162,0.004,0.289,0.025,0.376,0.041c0.086,0.014,0.131,0.021,0.131,0.021s-0.046,0-0.136,0
				c-0.085-0.004-0.212,0.008-0.372,0.02c-0.159,0.013-0.354,0.028-0.573,0.079c-0.219,0.043-0.465,0.105-0.724,0.191
				c-0.26,0.081-0.54,0.188-0.817,0.334c-0.143,0.067-0.283,0.147-0.42,0.236c-0.143,0.083-0.278,0.185-0.418,0.284
				c-0.277,0.203-0.528,0.457-0.773,0.723c-0.113,0.14-0.225,0.287-0.333,0.434c-0.093,0.159-0.198,0.314-0.282,0.482
				c-0.076,0.165-0.163,0.322-0.232,0.5c-0.063,0.179-0.136,0.379-0.183,0.537c-0.047,0.183-0.092,0.364-0.136,0.543
				c-0.029,0.182-0.057,0.359-0.084,0.538c-0.029,0.355-0.049,0.701-0.019,1.026c0.026,0.328,0.08,0.636,0.168,0.906
				c0.163,0.552,0.398,0.976,0.595,1.244C25.598,45.386,25.737,45.518,25.737,45.518z"/>
		</g>
		<g>
			<path style="fill:#808285;" d="M32.658,47.104c0,0-0.248-0.265-0.429-0.794c-0.049-0.129-0.082-0.278-0.117-0.434
				c-0.022-0.16-0.055-0.326-0.054-0.505c-0.011-0.178,0.002-0.358,0.021-0.549c0.022-0.182,0.068-0.368,0.108-0.551
				c0.064-0.175,0.114-0.355,0.193-0.521c0.08-0.164,0.155-0.329,0.249-0.473c0.092-0.142,0.188-0.277,0.274-0.406
				c0.103-0.116,0.2-0.222,0.292-0.32c0.172-0.203,0.359-0.326,0.473-0.428c0.121-0.093,0.191-0.146,0.191-0.146
				s-0.049,0.076-0.136,0.206c-0.082,0.132-0.228,0.294-0.36,0.523c-0.067,0.106-0.141,0.226-0.222,0.349
				c-0.07,0.132-0.14,0.271-0.217,0.409c-0.082,0.138-0.127,0.299-0.202,0.448c-0.069,0.152-0.108,0.318-0.164,0.478
				c-0.039,0.164-0.083,0.327-0.109,0.492c-0.02,0.164-0.05,0.327-0.05,0.487c-0.011,0.16-0.002,0.315,0,0.461
				c0.017,0.147,0.023,0.288,0.044,0.419C32.522,46.769,32.658,47.104,32.658,47.104z"/>
		</g>
		<g>
			<path style="fill:#808285;" d="M53.076,28.738c0.176,0.154,0.361,0.291,0.548,0.428c0.187,0.134,0.382,0.253,0.58,0.361
				c0.102,0.051,0.194,0.114,0.3,0.156c0.104,0.044,0.201,0.098,0.306,0.133l0.315,0.104l0.317,0.065
				c0.106,0.016,0.212,0.013,0.318,0.021c0.105,0.018,0.209-0.015,0.312-0.021c0.107-0.002,0.204-0.036,0.304-0.072
				c0.099-0.032,0.202-0.056,0.29-0.119c0.09-0.056,0.185-0.1,0.271-0.156l0.243-0.214c0.167-0.138,0.282-0.338,0.429-0.504
				l0.406-0.448l-0.056,0.582l-0.033,0.364c-0.007,0.12-0.04,0.24-0.06,0.361c-0.017,0.122-0.054,0.239-0.088,0.359
				c-0.031,0.117-0.076,0.234-0.133,0.346c-0.045,0.114-0.107,0.225-0.174,0.327c-0.059,0.11-0.145,0.203-0.227,0.298
				c-0.072,0.1-0.18,0.168-0.27,0.25c-0.104,0.068-0.213,0.126-0.318,0.18c-0.113,0.035-0.225,0.094-0.344,0.103
				c-0.115,0.022-0.232,0.044-0.348,0.037c-0.116,0.004-0.232-0.002-0.344-0.021c-0.115-0.016-0.226-0.042-0.334-0.079
				c-0.109-0.029-0.215-0.07-0.318-0.118c-0.104-0.045-0.207-0.091-0.304-0.153c-0.096-0.057-0.198-0.103-0.289-0.171l-0.272-0.203
				l0.301,0.146c0.096,0.054,0.202,0.084,0.303,0.13c0.099,0.044,0.205,0.077,0.309,0.104c0.104,0.03,0.207,0.057,0.313,0.07
				c0.103,0.021,0.209,0.039,0.313,0.039c0.104,0.011,0.206,0.011,0.31-0.004c0.104-0.004,0.205-0.031,0.3-0.056
				c0.103-0.015,0.19-0.077,0.283-0.111c0.088-0.052,0.172-0.111,0.25-0.17c0.066-0.078,0.155-0.131,0.213-0.217
				c0.064-0.084,0.131-0.162,0.178-0.258c0.056-0.091,0.102-0.183,0.139-0.287c0.041-0.097,0.08-0.195,0.104-0.304
				c0.028-0.104,0.061-0.209,0.073-0.321c0.018-0.109,0.047-0.217,0.052-0.327l0.027-0.335l0.349,0.133l-0.235,0.29
				c-0.079,0.097-0.151,0.197-0.253,0.271l-0.287,0.243c-0.105,0.068-0.219,0.124-0.327,0.183c-0.104,0.069-0.229,0.094-0.349,0.127
				c-0.117,0.036-0.235,0.069-0.361,0.066c-0.121,0.003-0.243,0.034-0.363,0.009c-0.119-0.019-0.242-0.023-0.359-0.054l-0.341-0.1
				l-0.331-0.141c-0.105-0.047-0.205-0.112-0.311-0.168c-0.104-0.054-0.198-0.126-0.297-0.188c-0.191-0.14-0.374-0.292-0.549-0.451
				C53.388,29.093,53.222,28.927,53.076,28.738z"/>
		</g>
		<g>
			<path style="fill:#808285;" d="M66.093,38.386c0.292,0.292,0.595,0.56,0.929,0.782c0.162,0.111,0.333,0.21,0.504,0.298
				l0.264,0.118l0.27,0.085c0.09,0.03,0.182,0.03,0.271,0.047c0.091,0.02,0.181,0.005,0.271,0.005c0.043-0.004,0.09,0,0.133-0.004
				l0.13-0.034c0.087-0.024,0.177-0.035,0.253-0.087c0.079-0.043,0.16-0.078,0.238-0.123l0.217-0.174
				c0.148-0.111,0.254-0.285,0.39-0.42l0.242-0.242l0.09,0.293l0.093,0.308c0.023,0.105,0.07,0.202,0.077,0.312l0.037,0.33
				c0.019,0.107-0.007,0.225-0.013,0.336c-0.008,0.056-0.011,0.111-0.02,0.167l-0.051,0.163c-0.038,0.108-0.066,0.219-0.132,0.31
				c-0.063,0.091-0.104,0.198-0.187,0.271c-0.074,0.077-0.143,0.166-0.228,0.227c-0.083,0.062-0.165,0.128-0.249,0.182l-0.269,0.146
				c-0.185,0.076-0.37,0.146-0.561,0.19c-0.378,0.085-0.765,0.135-1.144,0.115c0.372-0.07,0.744-0.16,1.09-0.306
				c0.176-0.068,0.343-0.151,0.505-0.242l0.229-0.153c0.072-0.057,0.137-0.119,0.207-0.176c0.068-0.058,0.114-0.136,0.174-0.203
				c0.062-0.063,0.09-0.152,0.135-0.227c0.053-0.073,0.066-0.163,0.092-0.247l0.035-0.125c0.006-0.046,0.006-0.091,0.009-0.134
				c-0.003-0.092,0.02-0.18,0.003-0.27l-0.037-0.273c-0.004-0.093-0.049-0.182-0.072-0.271l-0.086-0.271l0.332,0.05l-0.219,0.247
				c-0.074,0.082-0.141,0.17-0.233,0.233l-0.265,0.201c-0.094,0.055-0.196,0.098-0.297,0.145c-0.1,0.057-0.209,0.069-0.317,0.093
				l-0.161,0.029c-0.054,0.007-0.107,0-0.163,0c-0.11,0-0.22,0.007-0.323-0.021c-0.104-0.027-0.213-0.038-0.31-0.08
				c-0.101-0.039-0.2-0.077-0.296-0.119l-0.275-0.154c-0.175-0.116-0.344-0.237-0.5-0.378c-0.154-0.14-0.299-0.291-0.438-0.447
				C66.332,38.727,66.204,38.563,66.093,38.386z"/>
		</g>
		<g>
			<path style="fill:#808285;" d="M59.09,43.506c0,0,0.17,0.113,0.363,0.355c0.197,0.229,0.412,0.583,0.567,0.973
				c0.057,0.199,0.143,0.389,0.167,0.587c0.029,0.197,0.065,0.377,0.057,0.536c-0.01,0.319-0.052,0.523-0.052,0.523
				s-0.089-0.196-0.167-0.482c-0.042-0.141-0.117-0.3-0.168-0.475c-0.023-0.088-0.061-0.171-0.096-0.262
				c-0.034-0.088-0.068-0.18-0.103-0.27c-0.027-0.097-0.072-0.182-0.106-0.271c-0.039-0.089-0.064-0.182-0.1-0.263
				c-0.077-0.167-0.131-0.335-0.189-0.472C59.158,43.706,59.09,43.506,59.09,43.506z"/>
		</g>
		<g>
			<path style="fill:#808285;" d="M67.129,47.519c0,0,0.084,0.094,0.206,0.279c0.124,0.178,0.295,0.445,0.465,0.786
				c0.085,0.171,0.172,0.355,0.253,0.564c0.074,0.207,0.166,0.422,0.221,0.659c0.068,0.234,0.123,0.483,0.156,0.738
				c0.051,0.253,0.038,0.521,0.059,0.785l-0.035,0.397c-0.006,0.131-0.02,0.262-0.055,0.389c-0.057,0.259-0.118,0.507-0.233,0.729
				c-0.052,0.115-0.097,0.227-0.147,0.332c-0.069,0.096-0.133,0.191-0.199,0.283c-0.063,0.09-0.126,0.179-0.186,0.262
				c-0.072,0.073-0.146,0.144-0.215,0.208c-0.138,0.128-0.258,0.256-0.383,0.337c-0.129,0.081-0.238,0.151-0.33,0.208
				c-0.186,0.111-0.287,0.169-0.287,0.169s0.086-0.089,0.243-0.235c0.079-0.072,0.173-0.159,0.28-0.26
				c0.107-0.102,0.198-0.248,0.314-0.384c0.057-0.068,0.114-0.141,0.176-0.215c0.047-0.085,0.098-0.175,0.147-0.264
				c0.051-0.092,0.101-0.182,0.154-0.274c0.037-0.101,0.077-0.204,0.118-0.309c0.033-0.107,0.088-0.209,0.107-0.322
				c0.022-0.115,0.047-0.23,0.07-0.345c0.061-0.227,0.041-0.475,0.073-0.712c-0.018-0.242,0-0.486-0.046-0.727
				c-0.013-0.12-0.031-0.239-0.045-0.354c-0.021-0.119-0.048-0.229-0.068-0.342c-0.092-0.456-0.228-0.868-0.348-1.224
				c-0.127-0.35-0.232-0.647-0.324-0.847C67.182,47.634,67.129,47.519,67.129,47.519z"/>
		</g>
	</g>
	<g style="opacity:0.7;">
		<path style="fill:#939598;" d="M47.525,21.105c-2.001-1.832-6.15-2.288-8.008-0.456c1.429-0.46,4.86,0,6.576,1.677
			c-5.289-1.068-5.718,1.677-5.718,1.677c5.575-1.677,10.153,0.309,11.579,4.427c0-3.356-1.715-4.884-1.715-4.884
			s2.859-2.288,5.435,0.457c-2.861-3.966-5.435-2.897-5.435-2.897s4.16-1.938,8.761,0.525c-2.627-2.165-6.823-4.306-10.873-2.237
			c-2.47-3.298-5.642-3.964-8.715-3.434C42.461,16.135,45.563,17.399,47.525,21.105z"/>
		<path style="fill:#939598;" d="M76.34,47.208c5.642-7.266-1.848-10.897-1.848-10.897s2.333-0.726,1.264-2.281
			c-1.264,1.556-3.406,1.349-3.99-2.183c-0.582-3.529-5.738-5.085-5.738-5.085s2.18-0.563,1.648-2.039
			c-0.582,1.788-3.852,2.332-5.282,2.941c3.861-0.764,8.293,2.594,8.151,4.579c-0.144,1.979,0.715,3.661,3.146,3.966
			c-1.144,1.371-2.146,1.067-2.146,1.067c2.573,0.763,6.435,5.644,3.004,8.084c-3.432,2.44-1.431,4.729-0.145,6.254
			c-0.714-0.151-2.572,0.457-3.574-1.981c-1-2.44-4.289-3.509-4.289-3.509c2.145,3.05,0.572,5.947,0.572,5.947
			s-0.287-2.743-3.861-3.657c-3.574-0.919-1-3.51-4.574-6.256c1.285,2.438,0,4.422,0,4.422s-0.145-2.441-3.719-3.509
			c-3.572-1.067-3.144-3.966-3.144-3.966s-3.863,3.053-2.576,5.95c-1.856-0.155-5.146-2.289-4.432-5.95
			c-1.858,1.526-4.432,4.12-2.288,7.78c-0.715-0.306-2.717-0.763-3.43-3.507c-1.575,1.525,1.572,5.49-1.431,4.422
			c-3.001-1.067-5.577-3.965-2.859-6.862c-4.576,0.151-3.289,5.795-6.148,3.506c-4.434-3.356-1.86-7.324,3.003-8.237
			c-5.865-1.067-8.868,3.662-7.864,6.56c2.429,4.426-4.003,7.476-2.717,6.103c1.289-1.374,0.572-5.033,0.572-5.033
			s-4.004,2.593-4.004,5.338c-2.286-2.288-2.286-5.187,1-8.235c-5.718,1.525-5.291,7.169-4.43,8.694
			c-2.574-1.832-1.431-2.747-1.431-2.747s-3.576,1.067-3.719,5.186c-3.146-4.271,2.146-9.456,2.146-9.456s-3.002,0.764-4.146,2.44
			c0.286-3.509,6.72-3.509,5.433-7.627c-1.856-6.255,1.287-7.171,5.293-10.221c-2.806,0.401-4.451-0.107-5.411-0.897
			c0.214,0.854,0.769,1.927,2.194,1.799c-6.321,3.947-5.057,6.645-4.667,9.238c0.388,2.595-2.724,3.424-3.893,1.869
			c-0.098,1.349,0.876,2.074,0.876,2.074c-8.561,3.428-4.233,9.44-4.233,9.44s0.057-1.512,0.963-2.657
			c-0.735,1.089-0.454,2.476,0.339,3.018c-0.113,3.688,3.644,3.83,3.383,6.045c-0.259,2.218-2.721,1.104-2.721,1.104
			c2.004,3.243,3.944,1.194,6.408,2.726c1.587,0.991,1.977,3.188,1.673,5.539c0.843-3.159,0.506-5.017,0.003-8.354
			c-0.527-3.486,0.815-5.417,1.749-6.349c1.342,1.805,3.908,0,5.426-1.932c-0.409,1.554-0.409,1.554-0.409,1.554
			s6.533-0.931,6.302-5.848c3.148,2.613,4.607,3.797,1.982,4.419c2.392,1.244,4.785,0.684,4.958-2.863
			c0.701,1.433,3.1,2.551,4.436,3.174c1.865,0.873,1.924,2.054,1.05,2.428c2.917-0.185,3.792-4.232,2.8-5.353
			c1.692,0.935,3.792,1.058,4.375,0.996c-1.749-0.562-2.331-3.362-1.283-5.041c0,0,1.635,4.356,6.944,3.549
			c-1.343-1.247,0.173-4.173,0.173-4.173s0.583,0.997,4.084,2.866c2.393,1.429,2.51,2.675,1.692,3.607
			c1.981-0.373,3.091-1.06,3.326-3.176c-0.409,3.611,1.282,5.481,3.501,5.541c2.217,0.062,3.031,1.433,1.574,3.487
			c0.816,0.061,0.992-0.251,0.992-0.251s0.387,4.13,0.783,7.103c0.299-0.258,1.855-1.473,6.167-2.853
			c5.155-2.281,0.876-5.916,0.876-5.916s2.141,0.726,2.334-1.348C73.909,51.151,73.909,49.388,76.34,47.208z"/>
	</g>
	<g>
		<path style="fill:#FEE9A7;" d="M17.848,30.569c0,0,0.744,5.418,5.637,2.807C22.397,36.132,16.419,36.9,17.848,30.569z"/>
	</g>
	<g>
		<path style="opacity:0.7;fill:#FEE9A7;" d="M57.768,29.043c0,0,0.113,3.609-5.462,1C55.571,33.376,57.516,32.833,57.768,29.043z"
			/>
	</g>
	<g>
		<path style="fill:#808285;" d="M65.766,40.338c0,0,3.801,1.98,4.35-1.329C71.476,42.08,66.99,43.094,65.766,40.338z"/>
	</g>
	<g style="opacity:0.7;">
		<path style="fill:#FEE9A7;" d="M35.483,24.756c0,0-3.501,5.536-10.118,4.842C28.738,30.704,32.89,30.983,35.483,24.756z"/>
	</g>
	<g>
		<path style="fill:#D1D3D4;" d="M25.881,20.601c0,0,2.076,4.152,7.005-0.693c4.667-4.288,8.948-2.213,10.375-1.105
			c-4.67-0.969-8.171-0.555-9.729,3.597c2.465-1.938,3.891-2.075,3.891-2.075s-2.464,0.968-4.02,4.29
			c-1.558,3.322-6.874,5.119-9.986,2.628c-3.113-2.488-5.967-1.104-5.967-1.104s2.854-3.461,6.875-0.971
			c3.244,1.801,7.003-2.213,7.003-2.213S25.881,25.028,25.881,20.601z"/>
	</g>
	<g>
		<path style="fill:#FEE9A7;" d="M55.068,21.434c0,0,1.816-0.136,3.761,1.8c1.946,1.937,4.409,3.322,6.356,2.907
			c-3.242,0.967-4.801,0.552-7.006-1.799C55.977,21.987,55.068,21.434,55.068,21.434z"/>
	</g>
	<g>
		<path style="fill:#D1D3D4;" d="M44.49,25.049c0,0-4.768-0.821-7.536,2.623c-2.768,3.446-6.765,6.563-12.455,3.775
			c3.23,3.115,8.613,3.772,12.149,1.475c0,0-7.998,3.772-6.459,9.683c0.308-3.122,5.076-5.251,8.917-6.236
			c-3.842,3.774-3.999,4.266-2.768,7.054c-0.768-3.939,3.383-5.741,3.383-5.741s-1.384,2.625,0,4.1
			c1.385-5.578,5.999-7.546,9.225-8.366c-3.843,2.46-4.61,5.908-2.152,8.86c-0.306-4.43,1.999-8.368,7.382-9.679
			c-3.845-1.478-7.535-2.297-10.61,0c-3.076,2.295-1.076-1.478,3.537-3.445c4.615-1.97-2.153-2.792-5.688,0.328
			C37.877,32.596,38.031,27.181,44.49,25.049z"/>
	</g>
	<g>
		<path style="fill:#FEE9A7;" d="M56.176,33.906c0,0-2.768,3.118,1.537,8.204C54.177,42.767,52.023,36.039,56.176,33.906z"/>
	</g>
	<g>
		<path style="fill:#D1D3D4;" d="M63.992,29.332c0,0,3.526,0,4.649,2.908c1.122,2.907,0.963,3.934,3.688,3.764
			c0,0-2.565,1.881-4.327-1.881c-1.765-3.766-2.564,2.565,0.479,4.104c-2.087,0.343-3.528-1.538-3.528-3.762
			c-1.602,2.737-0.961,7.186,1.926,10.094c-3.848-0.516-6.896-4.789-6.896-10.436c0-5.646-0.16-4.278,0.964-0.687
			c1.121,3.595,1.762,0.174,1.441-1.537C62.068,30.188,67.68,33.096,63.992,29.332z"/>
	</g>
	<g>
		<path style="fill:#FEE9A7;" d="M71.938,39.703c0,0,3.24,2.105,1.126,5.414C71.799,46.771,78.279,42.261,71.938,39.703z"/>
	</g>
	<g>
		<path style="fill:#FEE9A7;" d="M16.575,29.771c0,0-3.154,1.466-2.33,7.175C12.188,36.067,11.773,30.65,16.575,29.771z"/>
	</g>
	<g>
		<path style="fill:#FEE9A7;" d="M20.214,38.456c0,0-5.582,0.383-7.126,5.83C11.662,42.893,14.391,36.557,20.214,38.456z"/>
	</g>
</g>
<g id="Layer_1">
</g>
</svg>
