<?xml version="1.0" encoding="iso-8859-1"?>
<!-- Generator: Adobe Illustrator 15.0.0, SVG Export Plug-In . SVG Version: 6.00 Build 0)  -->
<!DOCTYPE svg PUBLIC "-//W3C//DTD SVG 1.1//EN" "http://www.w3.org/Graphics/SVG/1.1/DTD/svg11.dtd">
<svg version="1.1" xmlns="http://www.w3.org/2000/svg" xmlns:xlink="http://www.w3.org/1999/xlink" x="0px" y="0px" width="80px"
	 height="80px" viewBox="0 0 80 80" style="enable-background:new 0 0 80 80;" xml:space="preserve">
<g id="ico-hair-3">
	<g>
		<defs>
			<rect id="SVGID_1_" width="80" height="80"/>
		</defs>
		<clipPath id="SVGID_2_">
			<use xlink:href="#SVGID_1_"  style="overflow:visible;"/>
		</clipPath>
		<g style="clip-path:url(#SVGID_2_);">
			<path style="fill:none;" d="M59.746,0H20.253C9.068,0,0,9.066,0,20.253v39.493C0,70.932,9.068,80,20.253,80h39.493
				C70.932,80,80,70.932,80,59.746V20.253C80,9.066,70.932,0,59.746,0z"/>
		</g>
	</g>
	<g>
		<g>
			<path style="fill:#A7A9AC;" d="M2.941,33.057c0.748-2.691,1.868-5.176,3.373-7.192c1.702-2.275,3.979-4.146,6.473-5.293
				c1.257-0.579,0.948-0.558,2.208-1.133c0.245-0.112,2.969-1.685,4.319-3.15c0.654-0.715,1.458-1.272,2.25-1.812
				c1.626-1.102,3.412-1.854,5.27-2.354c12.11-3.282,25.122,1.392,34.75,9.333c2.783,2.292,5.572,4.897,7.916,7.705
				c5.625,6.724,9.23,15.865,5.922,24.773c-0.805,2.153-1.986,4.567-3.414,6.329c-2.385,2.947-5.053,4.815-8.238,6.294
				c-0.006-0.48,0.004-0.964,0.021-1.458c0.104-3.722,1.467-7.262,1.748-10.965c0.146-1.855-0.162-4.07-0.652-6.092
				c-0.047,0.662-0.16,1.32-0.363,1.972c-0.004,0.025-0.027,0.044-0.053,0.054c0.004,0.008,0.008,0.02,0.016,0.035
				c0.035,0.102-0.117,0.188-0.184,0.105c-0.355-0.468-0.543-1.102-0.822-1.625c-0.41-0.784-0.889-1.524-1.377-2.251
				c-1.053-1.581-2.398-3.062-3.777-4.31c-2.195-1.983-4.717-3.33-7.383-4.299c0.893,1.004,1.668,2.131,2.229,3.391
				c0.752,1.716,0.742,3.253,0.6,5.112c-0.004,0.054-0.035,0.087-0.064,0.111c0.008,0.033,0.012,0.066,0.02,0.099
				c0.006,0.118-0.143,0.118-0.178,0.028c-1.602-4.721-6.217-6.38-10.213-7.89c-1.715-0.651-3.49-1.164-5.243-1.722
				c0.455,0.286,0.919,0.55,1.373,0.798c1.904,1.059,4.197,1.526,6.261,2.121c0.197,0.054,0.25,0.39,0.051,0.491
				c-1.248,0.643-2.982,0.632-4.34,0.742c-1.824,0.146-3.644,0.011-5.431-0.375c-2.381-0.514-4.462-1.933-6.271-3.668
				c0.861,1.204,1.88,2.276,3.059,3.158c1.939,1.448,4.017,2.795,6.335,3.293c0.34,0.071,0.255,0.555-0.004,0.66
				c-0.734,0.304-1.722,0.229-2.5,0.258c-1.103,0.041-2.218-0.048-3.308-0.219c-2.299-0.36-4.498-1.024-6.558-2.191
				c-2.76-1.554-5.478-3.933-7.082-6.902c-0.21,3.491-1.648,6.818-4.195,9.166c-0.066,0.074-0.138,0.147-0.214,0.205
				c-0.004,0.001-0.01,0.007-0.013,0.009l0,0c-0.015,0.017-0.035,0.032-0.053,0.043c-0.238,0.166-0.513-0.229-0.299-0.425
				c0.104-0.096,0.206-0.193,0.304-0.292c0.393-0.5,0.665-1.405,0.823-1.866c0.372-1.064,0.501-2.203,0.529-3.324
				c0.012-0.615-0.037-1.211-0.127-1.792c-0.19,1.129-0.671,2.136-1.362,3.102c-2.117,2.99-6.375,6.622-3.944,10.7
				c0.126,0.211-0.096,0.553-0.327,0.447c-0.607-0.268-1.122-0.88-1.615-1.339c-0.318-0.29-0.58-0.645-0.818-1.018
				c-0.017,0.754-0.012,1.504,0.021,2.232c0.115,2.604,0.298,5.199,0.393,7.8c0.009,0.277,0.018,0.559,0.016,0.836
				c-1.88-1.134-3.502-2.744-4.426-4.876c-0.557-1.282-0.926-2.667-1.338-4.005C1.443,45.49,1.35,38.798,2.941,33.057z"/>
			<path style="fill:#A7A9AC;" d="M2.548,34.824l-0.102,0.439l-0.069,0.447l-0.142,0.893l-0.143,0.893l-0.082,0.902
				c-0.038,0.599-0.133,1.199-0.13,1.805l-0.042,1.813l0.072,1.806c0.009,0.604,0.11,1.198,0.164,1.8l0.103,0.9l0.163,0.88
				c0.116,0.594,0.194,1.189,0.369,1.765c0.156,0.579,0.295,1.168,0.468,1.737l0.53,1.72l0.616,1.679
				c0.207,0.555,0.488,1.078,0.799,1.575c0.309,0.497,0.667,0.958,1.058,1.39c0.387,0.431,0.813,0.817,1.257,1.181
				c0.222,0.18,0.457,0.345,0.688,0.518l0.714,0.464L8.712,59.51c-0.006-0.91-0.075-1.808-0.115-2.715l-0.146-2.718L8.31,51.356
				c-0.037-0.447-0.029-0.906-0.039-1.357l-0.015-1.367l-0.002-0.364l0.206,0.301l0.34,0.486c0.127,0.154,0.279,0.299,0.409,0.448
				c0.278,0.276,0.576,0.569,0.864,0.833c0.156,0.113,0.282,0.259,0.456,0.352l0.263,0.151l0.062,0.035
				c-0.011-0.007,0.018,0.001,0.018,0.001c0.028-0.002,0.051-0.002,0.073-0.017c0.044-0.029,0.083-0.099,0.088-0.156
				c-0.002-0.008,0-0.014,0.006-0.016c0.002-0.021-0.018-0.052-0.023-0.071c0-0.008-0.042-0.085-0.061-0.127l-0.281-0.565
				c-0.092-0.191-0.143-0.404-0.212-0.607c-0.078-0.197-0.105-0.416-0.135-0.633c-0.033-0.212-0.067-0.426-0.049-0.643
				c0.012-0.221-0.015-0.44,0.036-0.647c0.037-0.215,0.058-0.43,0.112-0.642l0.183-0.617c0.152-0.394,0.313-0.79,0.522-1.155
				c0.184-0.375,0.417-0.725,0.639-1.072c0.229-0.346,0.468-0.683,0.723-1.013c0.493-0.659,1.018-1.289,1.521-1.929
				c0.255-0.321,0.506-0.635,0.745-0.966c0.254-0.329,0.448-0.674,0.672-1.017c0.178-0.36,0.386-0.711,0.504-1.101
				c0.169-0.369,0.23-0.777,0.332-1.17l0.229-0.901l0.104,0.901l0.104,0.929l0.028,0.914c-0.021,0.306-0.026,0.613-0.051,0.918
				l-0.045,0.457c-0.022,0.151-0.032,0.305-0.065,0.457c-0.061,0.302-0.094,0.625-0.191,0.911l-0.12,0.434l-0.068,0.225
				l-0.075,0.213c-0.093,0.284-0.188,0.576-0.315,0.858c-0.066,0.141-0.118,0.285-0.203,0.421l-0.244,0.411l-0.006,0.002
				l-0.017,0.021l-0.226,0.214l-0.054,0.051l-0.025,0.032l0,0.004c0,0-0.018,0.004-0.007,0.007c0.001,0.004,0.001,0.004-0.003,0.006
				c0.002,0.006,0.003,0.021,0.018,0.037c0,0.015,0.008,0.014,0.014,0.021c0.005,0.011,0.014,0.013,0.02,0.013
				c0,0,0.013,0.013,0,0.002c-0.004-0.006-0.031,0.023-0.017,0.015l0.07-0.029l0.012-0.001l0-0.003
				c-0.066,0.034-0.019,0.01-0.034,0.019l0,0l0,0l0-0.002l0.002-0.003l0.017-0.01l0.023-0.022l0.31-0.261l-0.008,0.437l0,0
				l-0.302-0.174l-0.01,0.005l-0.003,0.007l0.023-0.023l0.191-0.18l0-0.004l0.015-0.011l0.864-0.891l0.782-0.981
				c0.23-0.351,0.455-0.704,0.687-1.059c0.193-0.372,0.38-0.756,0.573-1.131l0.476-1.188l0.362-1.227l0.246-1.267l0.136-1.282
				l0.063-0.586l0.295,0.494l0.574,0.966c0.201,0.312,0.432,0.605,0.646,0.905c0.453,0.591,0.937,1.161,1.463,1.675l0.386,0.396
				l0.416,0.364c0.274,0.246,0.542,0.491,0.838,0.709c0.568,0.464,1.167,0.874,1.773,1.271l0.939,0.562l0.972,0.487l0.488,0.24
				c0.157,0.076,0.331,0.13,0.5,0.197l1.006,0.389c0.34,0.125,0.687,0.196,1.033,0.295c0.346,0.091,0.681,0.216,1.037,0.271
				c0.719,0.13,1.417,0.297,2.118,0.354c0.358,0.036,0.708,0.096,1.063,0.112l1.084,0.021c0.175-0.001,0.368,0.01,0.535,0.006
				l0.542-0.01c0.361,0.001,0.716-0.011,1.041-0.051c0.171-0.009,0.35-0.066,0.522-0.114l0.233-0.069
				c0.034-0.022,0.074-0.049,0.088-0.104c0.027-0.05,0.029-0.101,0.013-0.121c0.003-0.02-0.003-0.007,0.006-0.011
				c0.005-0.011-0.071-0.032-0.102-0.053l-0.501-0.132c-0.712-0.18-1.4-0.468-2.068-0.777c-1.325-0.649-2.567-1.49-3.747-2.369
				l-0.875-0.707c-0.278-0.254-0.544-0.521-0.823-0.784l-0.758-0.843L29.59,37.08l0.269-0.264c0.401,0.373,0.809,0.745,1.235,1.086
				c0.424,0.344,0.86,0.678,1.315,0.961c0.227,0.158,0.461,0.299,0.695,0.423c0.235,0.131,0.468,0.271,0.712,0.376
				c0.484,0.24,0.979,0.416,1.483,0.582l0.781,0.2l0.784,0.146c0.525,0.11,1.058,0.145,1.589,0.206
				c0.528,0.058,1.058,0.046,1.59,0.074c0.535-0.022,1.084-0.038,1.61-0.075c1.076-0.079,2.152-0.102,3.17-0.379l0.369-0.109
				c0.127-0.047,0.25-0.104,0.373-0.155c0.17-0.084,0.152-0.057,0.158-0.11c-0.015-0.059,0.004-0.069-0.115-0.105l-1.564-0.431
				l-1.563-0.44l-1.557-0.536l-1.481-0.688c-0.502-0.277-0.962-0.556-1.434-0.833l-1.37-0.798l1.498,0.479l2.265,0.706
				c0.761,0.243,1.5,0.514,2.25,0.777c0.369,0.119,0.753,0.251,1.125,0.396l1.11,0.428c0.737,0.294,1.478,0.595,2.201,0.936
				c1.446,0.68,2.863,1.483,4.068,2.617c0.151,0.136,0.296,0.283,0.433,0.437c0.137,0.151,0.291,0.295,0.418,0.461
				c0.26,0.329,0.514,0.656,0.725,1.021c0.242,0.339,0.408,0.742,0.604,1.12l0.23,0.58l0.057,0.146
				c0.012,0.038,0.057,0.129,0.033,0.083c-0.014,0.004-0.006-0.026-0.051,0.034c-0.012,0.047-0.012-0.026-0.021-0.078l0.057-0.13
				c-0.01-0.006-0.016,0.044-0.006,0.016l0.01-0.033l0.012-0.016c-0.002-0.011-0.02,0.057-0.014,0.027v-0.002l0.002-0.01v-0.003
				l0.016-0.152l0.014-0.296c0.018-0.192,0.029-0.394,0.033-0.587c0.018-0.396,0.027-0.789,0-1.175
				c-0.012-0.202-0.021-0.393-0.051-0.586c-0.025-0.194-0.037-0.392-0.082-0.579c-0.045-0.191-0.068-0.386-0.135-0.565
				c-0.055-0.184-0.092-0.371-0.166-0.554l-0.209-0.545l-0.258-0.521c-0.088-0.169-0.16-0.354-0.27-0.512l-0.295-0.493
				c-0.193-0.341-0.436-0.633-0.652-0.949c-0.11-0.162-0.241-0.296-0.355-0.445l-0.371-0.441l-0.287-0.351l0.399,0.163l1.081,0.446
				c0.361,0.156,0.732,0.281,1.082,0.46l1.051,0.538c0.35,0.182,0.701,0.351,1.033,0.576l0.998,0.643
				c0.166,0.109,0.336,0.211,0.494,0.325l0.465,0.373l0.924,0.747c0.314,0.236,0.596,0.542,0.889,0.807
				c0.295,0.273,0.574,0.558,0.842,0.859c0.275,0.295,0.559,0.573,0.811,0.893c0.25,0.314,0.52,0.621,0.764,0.942l0.709,0.981
				l0.674,1.025c0.217,0.346,0.406,0.702,0.617,1.056c0.213,0.348,0.369,0.738,0.531,1.109c0.094,0.176,0.154,0.363,0.271,0.532
				c0.055,0.07,0.127,0.192,0.152,0.228c0,0,0.027,0.002,0.043-0.009c0,0,0.002-0.014-0.002,0.002
				c0.008,0.003,0.004-0.018,0.004-0.028c0.002,0.016-0.01-0.019-0.01-0.019l0.053-0.113c-0.02-0.001-0.012,0.025,0-0.007
				c-0.002,0.021,0.008-0.031,0.01-0.041l0.035-0.126l0.059-0.252l0.121-0.5c0.021-0.082,0.018-0.173,0.039-0.258l0.029-0.255
				l0.063-0.512l0.059-0.444l0.092,0.426l0.24,1.147c0.094,0.378,0.139,0.765,0.197,1.155c0.053,0.389,0.139,0.771,0.148,1.169
				l0.086,1.171l-0.02,1.173c0.01,0.394-0.072,0.791-0.102,1.176c-0.035,0.389-0.098,0.777-0.168,1.163
				c-0.063,0.383-0.125,0.771-0.207,1.15c-0.303,1.534-0.67,3.048-0.928,4.581c-0.072,0.384-0.119,0.767-0.17,1.155
				c-0.057,0.386-0.098,0.771-0.117,1.159c-0.021,0.389-0.064,0.785-0.063,1.17l-0.018,1.167l-0.104-0.068
				c1.164-0.554,2.297-1.169,3.383-1.872c1.072-0.728,2.082-1.542,3.027-2.45c0.92-0.917,1.809-1.913,2.545-3.017
				c0.094-0.136,0.191-0.269,0.279-0.404l0.25-0.434l0.502-0.868c0.328-0.583,0.592-1.198,0.885-1.796
				c1.119-2.448,1.811-5.104,1.93-7.816c0.141-2.71-0.316-5.425-1.139-7.981c-0.402-1.289-0.938-2.518-1.502-3.726
				c-0.611-1.189-1.246-2.358-1.99-3.46l-0.547-0.831l-0.584-0.795c-0.379-0.541-0.809-1.041-1.217-1.564
				c-0.414-0.503-0.873-0.985-1.307-1.477l-0.652-0.732l-0.691-0.703l-1.383-1.394l-1.441-1.316
				c-0.473-0.455-0.975-0.869-1.467-1.293c-0.502-0.41-0.992-0.865-1.502-1.245c-2.012-1.646-4.164-3.086-6.385-4.384
				c-2.225-1.285-4.531-2.418-6.925-3.289c-2.392-0.877-4.852-1.553-7.342-1.981c-2.505-0.412-5.041-0.545-7.575-0.396
				c-0.625,0.063-1.263,0.058-1.887,0.163l-1.875,0.278l-1.866,0.419c-0.313,0.068-0.616,0.154-0.916,0.252l-0.917,0.285
				c-0.586,0.243-1.2,0.432-1.763,0.732c-0.285,0.142-0.573,0.276-0.857,0.428l-0.832,0.504c-0.551,0.318-1.077,0.715-1.593,1.103
				c-0.511,0.39-0.959,0.868-1.439,1.327c-0.968,0.9-2.056,1.626-3.157,2.311c-0.557,0.346-1.143,0.623-1.711,0.913l-1.726,0.875
				C10.057,22.005,8,23.707,6.399,25.823c-1.609,2.115-2.703,4.636-3.439,7.242L2.548,34.824z M6.34,25.773
				c1.601-2.126,3.662-3.856,5.963-5.023l1.719-0.883c0.573-0.303,1.155-0.577,1.697-0.925c1.092-0.683,2.174-1.409,3.126-2.301
				c0.468-0.452,0.923-0.946,1.447-1.348c0.522-0.396,1.04-0.791,1.604-1.121l0.826-0.509c0.286-0.15,0.58-0.292,0.867-0.437
				c0.575-0.308,1.188-0.504,1.786-0.754l0.919-0.289c0.302-0.099,0.615-0.191,0.926-0.256l1.859-0.433l1.899-0.29
				c0.63-0.113,1.262-0.114,1.902-0.177c2.538-0.159,5.096-0.046,7.619,0.354c2.512,0.421,4.988,1.087,7.401,1.957
				c2.416,0.861,4.744,1.991,6.99,3.276c2.244,1.281,4.412,2.737,6.426,4.4c0.523,0.404,1,0.846,1.504,1.265
				c0.494,0.426,0.996,0.844,1.469,1.299l1.445,1.338l1.391,1.4l0.691,0.706l0.654,0.743c0.439,0.499,0.887,0.977,1.309,1.496
				c0.41,0.518,0.834,1.021,1.219,1.577l0.588,0.809l0.553,0.839c0.738,1.113,1.385,2.295,1.992,3.5
				c0.57,1.22,1.111,2.464,1.51,3.765c0.82,2.593,1.281,5.344,1.123,8.087c-0.123,2.747-0.84,5.448-1.977,7.89
				c-0.293,0.608-0.57,1.234-0.898,1.815l-0.506,0.877l-0.256,0.436c-0.092,0.141-0.197,0.274-0.293,0.411
				c-0.75,1.12-1.635,2.104-2.574,3.034c-0.955,0.91-1.979,1.733-3.068,2.455c-1.088,0.706-2.234,1.32-3.396,1.868l-0.102,0.048
				l0.004-0.118l0.02-1.173c-0.002-0.395,0.045-0.78,0.064-1.176c0.018-0.386,0.072-0.773,0.123-1.164
				c0.057-0.387,0.104-0.779,0.182-1.161c0.264-1.544,0.641-3.051,0.932-4.582c0.082-0.383,0.133-0.769,0.203-1.155
				c0.064-0.378,0.125-0.763,0.164-1.151c0.025-0.393,0.102-0.77,0.09-1.16l0.02-1.174l-0.09-1.155
				c-0.016-0.39-0.1-0.771-0.152-1.158c-0.059-0.383-0.104-0.769-0.201-1.145l-0.236-1.138l0.143-0.017l-0.068,0.526l-0.027,0.258
				c-0.012,0.089-0.016,0.179-0.039,0.264l-0.123,0.511l-0.057,0.257l-0.037,0.128c-0.008,0.03,0.008,0.026-0.031,0.081
				c0.002,0.012-0.031,0.054-0.076,0.076l0.049-0.112c0,0.02,0,0.008,0.01,0.054c0.01,0.017,0.006,0.021,0.006,0.043
				c-0.002,0.071-0.031,0.111-0.057,0.14c-0.059,0.053-0.152,0.079-0.234,0.017c-0.092-0.112-0.117-0.179-0.189-0.268
				c-0.111-0.163-0.189-0.371-0.289-0.553c-0.17-0.377-0.313-0.752-0.527-1.094c-0.205-0.348-0.4-0.711-0.621-1.051l-0.662-1.004
				l-0.711-0.983c-0.24-0.322-0.502-0.613-0.758-0.925c-0.246-0.316-0.531-0.595-0.803-0.89c-0.268-0.292-0.551-0.575-0.838-0.844
				c-0.297-0.272-0.563-0.56-0.879-0.793l-0.926-0.746L56.6,40.764c-0.158-0.113-0.322-0.214-0.49-0.315l-0.986-0.629
				c-0.322-0.226-0.676-0.389-1.027-0.568l-1.039-0.532c-0.346-0.178-0.715-0.297-1.074-0.449l-1.077-0.438l0.113-0.186l0.372,0.442
				c0.12,0.152,0.254,0.292,0.365,0.457c0.217,0.319,0.475,0.614,0.666,0.955l0.305,0.503c0.109,0.166,0.182,0.353,0.279,0.525
				l0.262,0.532l0.215,0.551c0.076,0.183,0.117,0.384,0.182,0.574c0.064,0.192,0.092,0.395,0.135,0.59
				c0.049,0.199,0.07,0.399,0.094,0.598c0.033,0.2,0.041,0.399,0.051,0.601c0.027,0.396,0.02,0.803,0.012,1.204
				c-0.014,0.198-0.018,0.401-0.035,0.596l-0.02,0.299l-0.008,0.149v0.006l0.002,0.011l-0.002,0.001l-0.01,0.033l-0.006,0.019
				l-0.008,0.036c-0.006,0.019-0.053,0.095-0.098,0.118l0.059-0.123l0.008,0.079l0.006,0.021c-0.002,0.059-0.002,0.026-0.004,0.047
				l0.002,0.016c-0.006,0.019-0.016,0.049-0.023,0.073c-0.109,0.148-0.23,0.11-0.314,0.052c-0.102-0.111-0.076-0.142-0.107-0.191
				l-0.059-0.146l-0.232-0.581c-0.191-0.357-0.346-0.737-0.584-1.07c-0.209-0.354-0.459-0.671-0.711-0.987
				c-0.123-0.157-0.275-0.293-0.403-0.446c-0.136-0.148-0.275-0.295-0.429-0.428c-1.172-1.094-2.57-1.882-4.002-2.55
				c-0.722-0.332-1.451-0.625-2.189-0.913l-1.112-0.421c-0.368-0.147-0.745-0.267-1.114-0.397c-0.754-0.25-1.5-0.518-2.255-0.752
				l-2.266-0.699l0.129-0.326l1.408,0.812l1.479,0.679l1.521,0.513l1.555,0.439l1.568,0.426l0.045,0.013l0.012,0.002l0.007,0.005
				l0.037,0.013l0.022,0.014c0.016,0.007,0.028,0.007,0.051,0.024c0.031,0.021,0.058,0.048,0.084,0.074
				c0.082,0.1,0.117,0.211,0.117,0.335c0.008,0.113-0.047,0.253-0.152,0.329c-0.023,0.025-0.039,0.037-0.082,0.059l-0.046,0.027
				L45.7,40.5c-0.128,0.058-0.246,0.111-0.373,0.159l-0.409,0.128c-1.082,0.287-2.175,0.313-3.238,0.392
				c-0.549,0.036-1.079,0.052-1.619,0.075c-0.551-0.025-1.094-0.017-1.636-0.074c-0.54-0.063-1.086-0.101-1.616-0.209l-0.801-0.143
				l-0.793-0.209c-0.519-0.168-1.052-0.361-1.543-0.604c-0.258-0.11-0.493-0.248-0.735-0.386c-0.247-0.127-0.481-0.27-0.71-0.426
				c-0.474-0.299-0.913-0.638-1.354-0.986c-0.436-0.35-0.843-0.727-1.258-1.107l0.269-0.266l0.687,0.881l0.735,0.824
				c0.266,0.257,0.526,0.515,0.795,0.765L32.951,40c1.187,0.876,2.393,1.696,3.691,2.331c0.654,0.302,1.323,0.579,2.008,0.75
				l0.553,0.146c0.047,0.029,0.064,0.021,0.134,0.068c0.083,0.062,0.148,0.146,0.166,0.221c0.058,0.155,0.035,0.31-0.019,0.436
				c-0.054,0.129-0.155,0.236-0.283,0.305c-0.135,0.047-0.188,0.057-0.282,0.081c-0.179,0.051-0.345,0.109-0.542,0.122
				c-0.391,0.048-0.751,0.059-1.117,0.066l-0.534,0.004c-0.199,0.006-0.368-0.004-0.552-0.006l-1.082-0.021
				c-0.362-0.019-0.726-0.077-1.089-0.107c-0.734-0.062-1.445-0.231-2.15-0.361c-0.356-0.054-0.706-0.184-1.061-0.275
				c-0.35-0.101-0.711-0.18-1.057-0.303l-1.031-0.392c-0.173-0.069-0.345-0.125-0.509-0.205l-0.5-0.242l-0.987-0.493l-0.952-0.569
				c-0.622-0.408-1.237-0.831-1.818-1.301c-0.299-0.218-0.576-0.477-0.855-0.723l-0.425-0.373l-0.396-0.401
				c-0.54-0.525-1.03-1.11-1.496-1.711c-0.219-0.313-0.459-0.612-0.662-0.935l-0.593-0.99l0.358-0.095l-0.142,1.321l-0.254,1.302
				L19.1,38.923l-0.48,1.223c-0.205,0.393-0.394,0.778-0.6,1.169c-0.234,0.365-0.468,0.735-0.703,1.097l-0.81,1.014l-0.894,0.918
				l0.013-0.012l-0.242,0.226l0.022-0.018l-0.043,0.038l-0.313,0.278l0.012-0.46l0,0l0.3,0.182l-0.034,0.021l-0.014,0.012
				l-0.004,0.011h-0.005l-0.038,0.017l-0.004,0.003l-0.071,0.034c-0.025,0.004-0.105,0.013-0.16,0.012
				c-0.065-0.004-0.099-0.031-0.139-0.048c-0.044-0.024-0.074-0.046-0.104-0.079c-0.026-0.032-0.061-0.059-0.081-0.101
				c-0.047-0.07-0.068-0.164-0.078-0.264c0.002-0.046,0.018-0.101,0.032-0.148c0.007-0.05,0.044-0.088,0.067-0.126l0.049-0.059
				l0.03-0.026l0.051-0.052l0.226-0.214l-0.025,0.024l0.216-0.348c0.072-0.119,0.124-0.261,0.187-0.392
				c0.119-0.26,0.212-0.539,0.31-0.824l0.074-0.21l0.062-0.208l0.132-0.432c0.093-0.294,0.114-0.571,0.183-0.862
				c0.05-0.284,0.071-0.59,0.106-0.883c0.023-0.294,0.035-0.593,0.048-0.89l-0.015-0.896l-0.097-0.875l0.333,0.004
				c-0.107,0.41-0.177,0.843-0.349,1.233c-0.136,0.417-0.353,0.779-0.543,1.152c-0.227,0.351-0.449,0.726-0.7,1.043
				c-0.24,0.331-0.505,0.653-0.76,0.976c-0.512,0.635-1.035,1.266-1.526,1.909c-0.25,0.326-0.492,0.654-0.716,0.992
				c-0.216,0.342-0.452,0.68-0.633,1.045c-0.197,0.353-0.356,0.733-0.508,1.115l-0.176,0.584c-0.056,0.198-0.077,0.4-0.113,0.601
				c-0.05,0.195-0.021,0.404-0.034,0.605c-0.019,0.205,0.01,0.409,0.044,0.605c0.028,0.203,0.05,0.404,0.122,0.594
				c0.067,0.193,0.106,0.397,0.198,0.572l0.266,0.549l0.071,0.156c0.013,0.025,0.02,0.045,0.029,0.076
				c0.012,0.045,0.009,0.093,0.011,0.137c-0.017,0.153-0.095,0.279-0.214,0.358c-0.056,0.045-0.135,0.058-0.21,0.059
				c-0.037-0.013-0.063-0.014-0.118-0.037l-0.064-0.035l-0.262-0.15c-0.17-0.09-0.327-0.259-0.49-0.383
				c-0.304-0.291-0.577-0.556-0.877-0.858c-0.135-0.148-0.275-0.295-0.407-0.454l-0.362-0.524l0.208-0.063l0.003,1.359
				c0.007,0.447,0.001,0.899,0.029,1.354l0.128,2.717l0.128,2.719c0.041,0.907,0.107,1.811,0.106,2.717l-0.002,0.169l-0.125-0.085
				L8.03,59.111c-0.232-0.175-0.464-0.346-0.69-0.523c-0.448-0.373-0.88-0.771-1.275-1.205C5.68,56.94,5.311,56.47,5.001,55.966
				c-0.312-0.505-0.597-1.041-0.807-1.605l-0.607-1.69l-0.526-1.727c-0.171-0.579-0.304-1.161-0.458-1.742
				c-0.181-0.573-0.254-1.183-0.369-1.773l-0.158-0.892L1.98,45.633c-0.054-0.602-0.153-1.2-0.162-1.805l-0.061-1.812L1.804,40.2
				c0.005-0.606,0.101-1.208,0.145-1.81l0.083-0.901l0.15-0.897l0.142-0.893l0.075-0.443l0.104-0.442l0.42-1.76
				C3.649,30.445,4.731,27.905,6.34,25.773z"/>
		</g>
		<path style="opacity:0.5;fill:#A7A9AC;" d="M41.635,28.704c-2.048-0.431-4.124-1.007-5.912-2.209
			c-0.257-0.167-0.495-0.346-0.732-0.538c0.934,0.481,1.92,0.852,2.954,1.098c3.393,0.807,6.889,0.174,10.271,1.063
			c3.588,0.944,7,3.033,9.549,5.926c0.697,0.792,1.385,1.688,1.941,2.659c-1.535-1.726-3.383-3.191-5.396-4.313
			C50.339,30.17,45.971,29.612,41.635,28.704z"/>
		<path style="opacity:0.5;fill:#A7A9AC;" d="M74.186,41.497C72.633,34.682,68.172,29.81,62.5,26.71
			c2.504,0.998,4.918,2.345,6.852,4.352c2.217,2.311,4.078,5.357,5.072,8.51c0.959,3.05,0.988,6.226,0.098,9.271
			C74.828,46.423,74.742,43.937,74.186,41.497z"/>
		<path style="opacity:0.5;fill:#A7A9AC;" d="M33.101,28.062c2.225,0.944,4.52,1.869,6.584,3.162
			c2.155,1.352,4.133,3.244,5.77,5.442c-1.539-1.178-3.244-2.119-4.934-2.858c-2.635-1.142-5.198-2.193-7.511-4.006
			c-1.55-1.218-3.064-2.608-4.219-4.275C30.044,26.664,31.552,27.41,33.101,28.062z"/>
		<path style="opacity:0.5;fill:#A7A9AC;" d="M25.273,23.626c0.057,1.336,0.561,2.61,1.189,3.782
			c0.866,1.612,1.827,3.172,2.974,4.574c1.073,1.304,2.273,2.747,3.604,3.982c-1.826-1.079-3.549-2.437-5.001-3.935
			C25.908,29.835,23.928,26.725,25.273,23.626z"/>
		<path style="opacity:0.5;fill:#A7A9AC;" d="M20.25,23.645c-0.682,1.584-0.292,3.36,0.308,4.979c0.731,1.968,1.708,3.9,2.806,5.654
			c0.521,0.824,1.076,1.626,1.658,2.4c-1.229-1.084-2.372-2.261-3.377-3.582c-1.26-1.666-2.336-3.538-2.923-5.605
			c-0.238-0.839-0.531-1.987-0.035-2.792C19.062,24.102,19.635,23.819,20.25,23.645z"/>
		<path style="opacity:0.5;fill:#A7A9AC;" d="M65.232,33.41c1.139,1.239,2.16,2.594,3.016,4.088c0.568,0.993,1.086,2.04,1.52,3.129
			c0.576,1.588,0.963,3.248,1.152,4.938c0.014,0.291,0.023,0.591,0.021,0.887c-0.035,2.685-0.703,5.244-1.584,7.724
			c0.148-1.206,0.199-2.437,0.164-3.674c0.188-2.761-0.092-5.558-0.951-8.294c-0.666-2.123-1.385-4.283-2.248-6.323
			c-0.406-0.966-0.875-1.941-1.441-2.822C65.002,33.177,65.111,33.294,65.232,33.41z"/>
		<path style="opacity:0.5;fill:#A7A9AC;" d="M5.716,38.318c0.67-2.111,1.495-4.384,2.948-6.038
			c0.851-0.966,1.946-1.849,3.247-1.819c0.731,0.021,1.444,0.186,2.166,0.318c-3.451,0.618-5.899,4.768-7.25,7.907
			c-1.531,3.556-2.353,7.385-2.722,11.266C3.67,46.049,4.512,42.103,5.716,38.318z"/>
		<path style="opacity:0.5;fill:#A7A9AC;" d="M11.286,25.303c-4.36,2.639-7.409,7.041-9.197,11.992
			c0.191-1.444,0.475-2.864,0.852-4.238c0.236-0.849,0.515-1.676,0.828-2.48c0.254-0.35,0.517-0.694,0.802-1.025
			C6.249,27.608,8.691,25.44,11.286,25.303z"/>
		<path style="opacity:0.5;fill:#A7A9AC;" d="M42.597,18.146c1.28,0.212,2.553,0.462,3.812,0.777
			c2.627,0.742,5.178,1.768,7.523,3.246c2.307,1.455,4.48,3.277,6.17,5.52c1.178,1.57,2.234,3.235,3.309,4.885
			c-0.609-0.591-1.225-1.171-1.82-1.785c-1.338-1.388-2.607-2.826-4.064-4.085c-2.518-2.174-5.387-3.852-8.443-4.985
			c-6.701-2.479-13.684-2.596-20.681-2.687c2.018-0.463,4.012-1.023,6.065-1.23C37.165,17.536,39.928,17.719,42.597,18.146z"/>
		<path style="opacity:0.5;fill:#A7A9AC;" d="M66.789,26.575c-0.055-0.048-0.107-0.09-0.172-0.137
			c-3.473-2.919-7.143-5.604-11.1-7.709c-3.996-2.131-8.227-3.674-12.563-4.795c-4.774-1.232-9.771-1.994-14.683-1.475
			c-1.675,0.175-3.347,0.475-4.958,0.995c1.129-0.573,2.303-1.008,3.519-1.333c12.11-3.282,25.122,1.392,34.75,9.333
			c2.408,1.986,4.822,4.205,6.947,6.584C67.953,27.538,67.381,27.05,66.789,26.575z"/>
		<path style="opacity:0.5;fill:#A7A9AC;" d="M66.166,39.486c-0.779-1.044-1.631-2.031-2.537-2.954
			c-3.166-3.231-6.881-6.104-10.723-8.331c-9.498-5.516-20.717-5.751-31.264-4.914c1.785-0.767,3.627-1.395,5.5-1.85
			C41.939,17.846,60.398,23.18,66.166,39.486z"/>
		<path style="opacity:0.5;fill:#A7A9AC;" d="M35.584,16.485c-4.2,0.197-8.379,0.724-12.552,1.222
			c5.899-3.112,12.756-4.135,19.217-2.939c5.791,1.072,11.191,3.701,15.883,7.441c-3.01-1.803-6.217-3.236-9.577-4.217
			C44.305,16.744,39.991,16.286,35.584,16.485z"/>
		<path style="opacity:0.5;fill:#A7A9AC;" d="M71.891,45.009c-0.428-2.071-1.041-4.021-1.867-5.876
			c-2.027-5.1-5.48-9.41-9.775-12.497c1.697,0.241,3.412,1.369,4.805,2.363c1.32,0.937,2.559,2.007,3.641,3.232
			c2.371,2.682,4.334,5.914,5.209,9.518c0.129,0.522,0.238,1.057,0.34,1.592c0.32,3.889-0.604,7.619-2.34,10.919
			C72.572,51.187,72.529,48.139,71.891,45.009z"/>
		<path style="opacity:0.5;fill:#A7A9AC;" d="M2.416,35.688c1.517-3.268,4.33-6.878,7.958-7.036
			c-3.76,2.992-5.707,8.151-6.667,12.921c-0.612,3.041-0.928,6.304-0.559,9.434c-0.04-0.129-0.082-0.256-0.117-0.383
			c-1.324-4.289-1.609-9.665-0.736-14.659C2.338,35.872,2.372,35.783,2.416,35.688z"/>
		<path style="opacity:0.5;fill:#A7A9AC;" d="M11.326,23.392c-2.119,0.734-4.022,1.938-5.692,3.466
			c0.22-0.342,0.451-0.674,0.68-0.993c0.711-0.953,1.529-1.827,2.418-2.614C9.598,23.159,10.467,23.194,11.326,23.392z"/>
		<path style="opacity:0.5;fill:#A7A9AC;" d="M48.676,37.438c-0.77-0.681-1.581-1.294-2.432-1.836
			c1.176-0.061,2.317-0.266,3.52-0.021c1.521,0.311,2.947,0.873,4.273,1.729c2.363,1.527,4.672,3.439,6.404,5.77
			c1.215,1.638,2.178,3.426,2.936,5.315c-0.387-0.716-0.828-1.392-1.275-2.063c-1.053-1.581-2.398-3.062-3.777-4.31
			c-2.195-1.983-4.717-3.33-7.383-4.299c0.893,1.004,1.668,2.131,2.229,3.391c0.752,1.716,0.742,3.253,0.6,5.112
			c-0.004,0.054-0.035,0.087-0.064,0.111c0.008,0.033,0.012,0.066,0.02,0.099c0,0.036-0.01,0.052-0.031,0.068
			c0.01-0.026,0.002-0.057-0.006-0.091c-0.445-1.909-0.865-3.714-1.942-5.349C50.863,39.725,49.855,38.486,48.676,37.438z"/>
		<path style="opacity:0.5;fill:#A7A9AC;" d="M29.734,36.963c0.861,1.204,1.88,2.276,3.059,3.158
			c1.939,1.448,4.017,2.795,6.335,3.293c0.022,0.007,0.038,0.019,0.059,0.023c-1.719,0.055-3.52-0.671-4.983-1.494
			c-1.688-0.951-3.233-2.177-4.508-3.707c-1.394-1.669-2.47-3.581-3.222-5.635c1.65,2.416,4.092,4.235,6.599,5.491
			c2.991,1.501,6.265,2.614,9.589,2.826c-0.43,0.034-0.846,0.055-1.227,0.087c-1.824,0.146-3.644,0.011-5.431-0.375
			C33.624,40.117,31.543,38.698,29.734,36.963z"/>
		<path style="opacity:0.5;fill:#A7A9AC;" d="M19.026,32.588c0.349,0.703,0.74,1.384,1.1,2.053c1.031,1.912,2.376,3.569,3.839,5.113
			c0.307,0.332,0.63,0.666,0.956,0.997c-2.083-1.479-4-3.43-5.244-5.731c-0.177,2.977-1.253,5.838-3.146,8.069
			c0.66-1.131,1.204-2.342,1.566-3.684C18.696,37.173,18.994,34.883,19.026,32.588z"/>
		<path style="opacity:0.5;fill:#A7A9AC;" d="M66.838,60.198c0.701,0.292,1.555,0.417,2.176,0.879
			c0.664,0.493,0.645,0.991,0.709,1.61c-1.789,1.635-3.75,2.85-5.955,3.869c-0.006-0.48,0.004-0.964,0.021-1.458
			c0.068-2.527,0.715-4.965,1.217-7.437C65.15,58.758,65.758,59.749,66.838,60.198z"/>
		<path style="opacity:0.5;fill:#A7A9AC;" d="M4.376,53.448c0.7-0.104,1.246-0.203,1.893,0.177c0.162,0.093,0.409,0.184,0.597,0.142
			c0.966-0.203,1.185-1.56,1.281-2.43c0.07-0.611,0.088-1.229,0.093-1.842c0.026-0.187,0.053-0.372,0.074-0.551
			c0.016-0.051,0.034-0.099,0.054-0.142c-0.018,0.699-0.004,1.395,0.02,2.065c0.115,2.604,0.298,5.199,0.393,7.8
			c0.009,0.277,0.018,0.559,0.016,0.836c-1.88-1.134-3.502-2.744-4.426-4.876c-0.166-0.379-0.315-0.765-0.445-1.157
			C4.069,53.479,4.22,53.475,4.376,53.448z"/>
		<path style="opacity:0.5;fill:#A7A9AC;" d="M10.555,49.202c-0.242-0.4-0.438-0.834-0.563-1.316
			c-0.638-2.481,0.371-5.266,2.241-6.839c1.374-1.151,3.252-2.008,3.957-3.848c0.054-0.14,0.099-0.285,0.135-0.43
			c0.022,0.085,0.038,0.171,0.055,0.254c-0.221,1.021-0.678,1.938-1.309,2.821C13.187,42.503,9.618,45.67,10.555,49.202z"/>
		<path style="opacity:0.5;fill:#A7A9AC;" d="M2.713,49.498c0.1,0.382,0.202,0.759,0.319,1.125c0.412,1.338,0.781,2.723,1.338,4.005
			c0.924,2.132,2.545,3.742,4.426,4.876c0.001-0.277-0.007-0.559-0.016-0.836c-0.094-2.601-0.277-5.196-0.393-7.8
			c-0.033-0.729-0.039-1.479-0.021-2.232c0.239,0.373,0.5,0.728,0.818,1.018c0.493,0.459,1.008,1.071,1.615,1.339
			c0.23,0.105,0.453-0.236,0.327-0.447c-2.431-4.078,1.827-7.71,3.944-10.7c0.691-0.966,1.171-1.973,1.362-3.102
			c0.09,0.581,0.139,1.177,0.127,1.792c-0.027,1.121-0.157,2.26-0.529,3.324c-0.158,0.461-0.431,1.366-0.823,1.866
			c-0.098,0.099-0.2,0.196-0.304,0.292c-0.214,0.195,0.061,0.591,0.299,0.425c0.019-0.011,0.039-0.026,0.053-0.043
			c0.002-0.002,0.009-0.008,0.013-0.009c0.076-0.058,0.148-0.131,0.214-0.205c2.547-2.348,3.984-5.675,4.195-9.166
			c1.604,2.97,4.322,5.349,7.082,6.902c2.06,1.167,4.259,1.831,6.558,2.191c1.09,0.171,2.205,0.26,3.308,0.219
			c0.778-0.028,1.767,0.046,2.5-0.258c0.26-0.105,0.345-0.589,0.004-0.66c-2.319-0.498-4.396-1.845-6.335-3.293
			c-1.179-0.882-2.198-1.954-3.059-3.158c1.809,1.735,3.89,3.154,6.271,3.668c1.787,0.386,3.606,0.521,5.431,0.375
			c1.357-0.11,3.092-0.1,4.34-0.742c0.199-0.102,0.146-0.438-0.051-0.491c-2.064-0.595-4.357-1.063-6.261-2.121
			c-0.453-0.248-0.918-0.512-1.373-0.798c1.753,0.558,3.528,1.07,5.243,1.722c3.996,1.51,8.611,3.169,10.213,7.89
			c0.035,0.09,0.184,0.09,0.178-0.028c-0.008-0.032-0.012-0.065-0.02-0.099c0.029-0.024,0.061-0.058,0.064-0.111
			c0.143-1.859,0.152-3.396-0.6-5.112c-0.561-1.26-1.336-2.387-2.229-3.391c2.666,0.969,5.188,2.315,7.383,4.299
			c1.379,1.248,2.725,2.729,3.777,4.31c0.488,0.727,0.967,1.467,1.377,2.251c0.279,0.523,0.467,1.157,0.822,1.625
			c0.066,0.082,0.219-0.004,0.184-0.105c-0.008-0.016-0.012-0.027-0.016-0.035c0.025-0.01,0.049-0.028,0.053-0.054
			c0.203-0.651,0.316-1.31,0.363-1.972c0.49,2.021,0.799,4.236,0.652,6.092c-0.281,3.703-1.645,7.243-1.748,10.965
			c-0.018,0.494-0.027,0.978-0.021,1.458c3.186-1.479,5.854-3.347,8.238-6.294c0.766-0.945,1.465-2.082,2.063-3.262
			c-1.281,0.822-2.834,0.999-4.191-0.12c-0.951-0.781-1.215-2.201-1.346-3.408c-0.195-1.764-0.158-3.5-0.52-5.241
			c-0.916-4.335-3.332-8.764-6.949-11.091c0.4,2.277,1.525,4.379,1.275,6.756c-0.016,0.191-0.199,0.266-0.334,0.14
			c-1.42-1.315-2.178-3.222-3.328-4.782c-1.389-1.857-3.148-3.266-5.092-4.381c-3.75-2.154-8.325-4.065-12.663-3.786
			c2.081,2.268,5.103,3.639,5.983,6.912c0.049,0.19-0.146,0.313-0.293,0.233c-1.67-0.916-3.021-2.277-4.773-3.052
			c-1.623-0.724-3.3-1.311-4.934-2.014c-2.271-0.967-4.783-2.163-5.882-4.641c-1.479,2.269,1.159,6.009,2.21,7.922
			c0.089,0.163-0.068,0.353-0.223,0.306c-3.535-0.995-5.831-4.325-8.07-7.197c-1.374,3.621,1.188,7.481,3.617,9.811
			c0.142,0.139-0.011,0.422-0.195,0.346c-1.329-0.544-2.6-1.301-3.751-2.194c-2.202-1.696-4.088-3.8-5.574-6.228
			c-0.636-1.045-1.357-2.118-1.773-3.285c-0.332-0.935-0.409-2.537,0.274-3.357c0.424-0.512,0.943-0.859,1.472-1.203
			c-0.708,0.308-1.52,0.599-2.238,0.378c-1.445-0.441,0.334-2.966,0.827-3.475c0.053-0.057,0.115-0.108,0.169-0.164
			c-0.924,0.28-1.952,0.255-2.124-1.021c-0.003-0.027-0.002-0.051-0.001-0.078c-0.655,0.336-1.289,0.699-1.944,1.033
			c0.457,0.455,0.504,1.193-0.141,1.958c-0.229,0.269-0.482,0.517-0.745,0.75c1.238-0.01,2.163,0.78,1.337,2.434
			c-0.512,1.034-1.507,1.813-2.625,2.334c0.449-0.205,1.46,0.256,1.917,0.384c0.617,0.172,1.246,0.343,1.723,0.826
			c0.489,0.497,0.939,1.364,1.133,2.054c0.709,2.466-1.592,5.145-3.106,6.692c-1.128,1.162-2.353,1.982-3.085,3.525
			c-0.672,1.408-0.89,3.053-1.35,4.546c-0.049,0.177-0.267,0.203-0.356,0.042c-0.554-0.988-0.795-2.156-1.286-3.189
			c-0.409-0.875-0.619-0.287-0.792,0.404c-0.226,0.909-0.226,1.849-0.24,2.786c-0.03,1.229-0.312,5.693-2.517,4.531
			C3.251,50.025,2.966,49.787,2.713,49.498z"/>
		<path style="opacity:0.5;fill:#A7A9AC;" d="M14.765,25.923c0.442-0.954,0.644-2.982-0.464-3.441
			c0.108-0.152,0.212-0.312,0.3-0.483c0.334-0.661,0.229-1.658-0.222-2.239c0.227-0.121,0.454-0.245,0.681-0.365
			c0.06,0.663,0.462,1.138,1.007,1.423c-0.583,1.139-0.704,2.569,0.561,3.276c0.057,0.03,0.111,0.052,0.168,0.082
			c-0.753,0.623-1.055,1.711-0.984,2.792c0.05,0.754,0.301,1.477,0.665,2.142c-0.003,0.008-0.01,0.021-0.007,0.028
			c-0.005-0.004-0.008-0.006-0.008-0.006c-0.599-1.032-1.351-1.701-2.254-2.254C14.427,26.569,14.62,26.244,14.765,25.923z"/>
	</g>
</g>
<g id="Layer_1">
</g>
</svg>
