<?xml version="1.0" encoding="iso-8859-1"?>
<!-- Generator: Adobe Illustrator 15.0.0, SVG Export Plug-In . SVG Version: 6.00 Build 0)  -->
<!DOCTYPE svg PUBLIC "-//W3C//DTD SVG 1.1//EN" "http://www.w3.org/Graphics/SVG/1.1/DTD/svg11.dtd">
<svg version="1.1" xmlns="http://www.w3.org/2000/svg" xmlns:xlink="http://www.w3.org/1999/xlink" x="0px" y="0px" width="80px"
	 height="80px" viewBox="0 0 80 80" style="enable-background:new 0 0 80 80;" xml:space="preserve">
<g id="ico-beard-3">
	<g>
		<defs>
			<rect id="SVGID_1_" width="80" height="80"/>
		</defs>
		<clipPath id="SVGID_2_">
			<use xlink:href="#SVGID_1_"  style="overflow:visible;"/>
		</clipPath>
		<g style="clip-path:url(#SVGID_2_);">
			<path style="fill:none;" d="M59.746,0H20.253C9.068,0,0,9.066,0,20.253v39.493C0,70.932,9.068,80,20.253,80h39.493
				C70.932,80,80,70.932,80,59.746V20.253C80,9.066,70.932,0,59.746,0z"/>
		</g>
	</g>
	<g>
		<g>
			<path style="fill:#A7A9AC;" d="M77.006,32.137c0,0-1.781-4.241-1.807-7.915c-0.002-0.223-0.002-0.442-0.004-0.658
				c-0.533,1.483-1.41,3.673-2.588,5.82c-2.063,3.766-3.92,8.074-8.01,7.857c-4.084-0.217-3.006,1.901-8.275-2.589
				c-1.762-1.499-9.295-3.26-14.447,1.823c0,0,0.645-1.666,1.438-2.209c0.79-0.545-3.848-0.183-6.216,3.669
				c0,0-2.602-3.377-6.661-4.134c-1.261-0.234-0.05,1.937-0.05,1.937s-2.056-1.185-4.951,1.604
				c-2.898,2.788-6.175,1.407-10.672-0.205c-4.498-1.612-5.833-1.034-7.728-3.191c-2.104-2.397-3.406-9.041-3.406-9.041
				l-0.007-0.003c0.296,2.272,0.328,5.08,0.24,8.395c-0.054,2.02-1.309,1.001-1.309,1.001c-0.339,2.521,0.897,3.145,0.897,3.145
				s-3.014,2.557-2.889,6.056c0.125,3.502,1.862,1.771,1.862,1.771s-0.319,1.767,0.406,5.23c0.727,3.464,3.963,2.796,3.963,2.796
				c1.309,4.07,3.291,3.37,3.291,3.37c0.609,5.772,5.527,5.473,5.527,5.473c2.485,1.868,5.615,1.092,5.615,1.092
				c0.352,3.156,4.029,4.386,3.646,3.405c-0.382-0.979-1.245-2.399-1.245-2.399c3.529,3.644,7.827,4.108,7.27,3.528
				s-0.681-1.094-0.681-1.094c4.875,3.357,3.101,0.781,3.101,0.781s3.343,3.05,6.116,3.338c2.774,0.29,5.216-3.358,5.216-3.358
				s-1.789,3.72,0.703,2.334c2.491-1.388,4.408-3.812,4.408-3.812s-2.541,3.322-0.895,2.882c4.008-1.071,7.682-4.76,7.682-4.76
				c5.406-1.75,7.355-5.896,7.355-5.896s-1.393,3.109,0.432,2.271c5.336-2.456,6.783-5.792,6.783-5.792
				c4.389-2.061,2.547-7.543,2.547-7.543s1.543,3.376,2.787,1.795c1.764-2.244,0.672-8.913,0.672-8.913s1.139,2.289,2.26,1.136
				S77.006,32.137,77.006,32.137z"/>
			<g>
				<path style="fill:#A7A9AC;" d="M77.32,32.183c-1.123-2.705-1.799-5.617-1.807-8.539c-0.002-0.185-0.566-0.345-0.633-0.162
					c-0.84,2.297-1.873,4.482-3.033,6.635c-1.035,1.93-2.037,3.916-3.617,5.481c-1.582,1.572-3.377,1.347-5.414,1.534
					c-1.615,0.148-2.402,0.392-3.875-0.62c-1.209-0.829-2.193-1.999-3.555-2.579c-1.197-0.514-2.471-0.785-3.764-0.922
					c-3.713-0.388-7.354,0.808-10.045,3.352c0.204,0.064,0.409,0.128,0.613,0.192c0.239-0.596,0.543-1.151,0.917-1.681
					c0.079-0.114,0.661-0.494,0.606-0.664c-0.094-0.287-0.602-0.292-0.839-0.29c-2.478,0.029-4.835,2.013-6.097,3.933
					c0.201,0.029,0.4,0.059,0.605,0.088c-1.283-1.635-3.097-2.879-4.999-3.697c-0.379-0.163-2.31-1.032-2.687-0.49
					c-0.396,0.568,0.083,1.405,0.373,1.94c0.167-0.009,0.335-0.017,0.502-0.022c-1.501-0.809-3.288-0.069-4.552,0.805
					c-0.935,0.644-1.579,1.448-2.636,1.938c-1.052,0.485-2.263,0.416-3.376,0.24c-2.181-0.347-4.223-1.366-6.319-2.017
					c-1.566-0.484-3.299-0.715-4.788-1.41c-1.463-0.684-2.303-2.186-2.935-3.572c-0.961-2.112-1.575-4.438-2.025-6.707
					c-0.015-0.071-0.14-0.125-0.198-0.143c-0.002-0.001-0.005-0.004-0.007-0.003c-0.081-0.026-0.453-0.127-0.432,0.056
					c0.22,1.792,0.276,3.593,0.282,5.398c0.001,0.401,0.064,4.659-0.788,4.008c-0.066-0.049-0.546-0.228-0.564-0.049
					c-0.104,1.083-0.111,2.656,1.01,3.282c-0.766-0.427-2.453,3.094-2.671,3.699c-0.409,1.13-0.813,3.807,0.565,4.527
					c0.537,0.282,1.177,0.044,1.582-0.344c-0.204-0.064-0.408-0.129-0.614-0.194c-0.537,3.238,0.36,9.108,4.886,8.254
					c-0.171-0.063-0.343-0.126-0.514-0.192c0.495,1.426,1.786,4.205,3.864,3.549c-0.192-0.059-0.382-0.117-0.572-0.177
					c0.388,2.972,2.135,5.243,5.233,5.631c0.24,0.031,0.484,0.044,0.726,0.036c0.087-0.002,1.258,0.787,1.661,0.898
					c1.323,0.367,2.742,0.49,4.092,0.176c-0.189-0.06-0.38-0.118-0.57-0.176c0.291,1.812,1.554,3.338,3.356,3.862
					c1.987,0.58,0.031-2.174-0.326-2.769c-0.202-0.016-0.404-0.033-0.604-0.051c1.767,1.75,3.888,3.133,6.333,3.745
					c0.387,0.097,1.02,0.269,1.415,0.108c0.564-0.228-0.442-1.006-0.556-1.367c-0.186-0.006-0.374-0.011-0.561-0.014
					c0.707,0.479,2.71,2.236,3.771,1.818c0.458-0.18,0.044-0.799-0.133-1.061c-0.193-0.005-0.387-0.009-0.581-0.014
					c1.792,1.614,4.016,3.121,6.46,3.485c2.237,0.332,4.326-1.726,5.458-3.388c-0.202-0.065-0.407-0.128-0.61-0.193
					c-0.33,0.693-1.281,2.662,0.069,2.854c1.037,0.148,2.15-0.875,2.892-1.434c1.017-0.773,1.963-1.711,2.762-2.704
					c-0.197-0.076-0.396-0.148-0.593-0.224c-0.347,0.459-2.094,2.573-1.267,3.029c0.598,0.328,1.25,0.008,1.843-0.194
					c1.616-0.552,3.101-1.515,4.466-2.512c0.799-0.583,1.563-1.229,2.275-1.914c0.471-0.456,1.693-0.694,2.307-1.014
					c0.658-0.338,1.266-0.755,1.855-1.194c1.307-0.971,2.566-2.309,3.273-3.782c-0.209-0.055-0.416-0.108-0.629-0.163
					c-0.338,0.772-1.094,2.613,0.361,2.646c1.117,0.022,2.641-1.198,3.514-1.782c1.217-0.813,2.303-1.83,3.191-2.983
					c0.293-0.379,0.568-0.793,0.771-1.227c0.148-0.317,1.277-0.821,1.582-1.125c0.412-0.407,0.689-0.938,0.922-1.456
					c0.668-1.495,0.551-3.478,0.049-5.015c-0.211-0.028-0.42-0.057-0.629-0.087c0.672,1.432,2.467,3.64,3.715,1.452
					c1.32-2.311,0.777-5.961,0.373-8.481c-0.209-0.028-0.418-0.058-0.625-0.088c0.877,1.695,3.34,2.458,3.07-0.153
					C79.613,37.204,78.375,34.553,77.32,32.183c-0.08-0.177-0.697-0.239-0.627-0.09c0.682,1.536,1.291,3.105,1.822,4.698
					c0.363,1.075,0.707,2.203,0.773,3.341c0.014,0.301-0.012,0.64-0.203,0.89c-0.631,0.827-1.475-0.648-1.648-0.982
					c-0.066-0.135-0.664-0.311-0.625-0.088c0.283,1.796,0.391,3.632,0.287,5.444c-0.063,1.166-0.258,2.425-0.945,3.402
					c-0.764,1.082-1.926-1.107-2.176-1.643c-0.074-0.152-0.693-0.271-0.629-0.087c0.354,1.091,0.441,2.276,0.33,3.414
					c-0.102,1.093-0.551,2.088-1.268,2.923c-0.432,0.504-1.396,0.734-1.664,1.275c-0.756,1.533-2.146,2.769-3.496,3.784
					c-0.533,0.403-1.105,0.75-1.682,1.087c-0.506,0.297-1.945,1.443-1.834,0.274c0.047-0.532,0.271-1.082,0.48-1.566
					c0.07-0.152-0.543-0.344-0.629-0.163c-0.5,1.033-1.293,1.935-2.102,2.74c-0.965,0.966-2.115,1.725-3.33,2.348
					c-0.705,0.365-1.578,0.474-2.156,1.018c-1.639,1.552-3.529,2.876-5.578,3.843c-0.137,0.064-1.762,0.735-1.781,0.703
					c-0.154-0.263,0.26-0.896,0.373-1.111c0.291-0.552,0.664-1.072,1.043-1.572c0.126-0.164-0.482-0.363-0.593-0.224
					c-1.011,1.259-2.236,2.354-3.558,3.283c-0.346,0.245-1.547,1.213-1.561,0.382c-0.006-0.288,0.096-0.589,0.178-0.862
					c0.112-0.388,0.268-0.768,0.441-1.133c0.068-0.145-0.524-0.323-0.61-0.191c-0.913,1.336-2.183,2.547-3.711,3.149
					c-2.325,0.915-5.388-1.524-7.036-3.011c-0.097-0.085-0.739-0.248-0.581-0.014c0.116,0.173,0.21,0.36,0.271,0.56
					c0.13,0.424-2.56-1.179-2.835-1.366c-0.063-0.043-0.626-0.226-0.562-0.015c0.141,0.448,0.412,0.775,0.705,1.133
					c0.024,0.029-1.574-0.233-1.696-0.271c-1.913-0.626-3.583-1.85-4.993-3.242c-0.083-0.085-0.699-0.212-0.603-0.053
					c0.164,0.276,0.322,0.554,0.479,0.832c0.179,0.318,1.408,2.215,0.072,1.594c-1.325-0.618-2.104-1.969-2.323-3.344
					c-0.03-0.181-0.443-0.206-0.573-0.176c-1.758,0.407-3.635,0.017-5.112-0.989c-0.251-0.172-0.49-0.111-0.764-0.125
					c-2.91-0.14-4.36-2.709-4.695-5.272c-0.021-0.176-0.448-0.218-0.569-0.178c-1.45,0.456-2.413-2.306-2.722-3.192
					c-0.052-0.155-0.377-0.217-0.514-0.189c-3.833,0.723-4.274-5.251-3.85-7.802c0.031-0.188-0.502-0.298-0.615-0.189
					c-1.502,1.437-1.136-3.069-0.917-3.8c0.422-1.434,1.405-2.822,2.539-3.807c0.078-0.067-0.063-0.152-0.11-0.179
					c-0.948-0.529-0.853-2.137-0.769-2.994c-0.188-0.018-0.377-0.035-0.564-0.052c0.593,0.454,1.398,0.571,1.756-0.175
					c0.264-0.552,0.131-1.408,0.143-1.994c0.02-0.946,0.019-1.894,0.008-2.837c-0.018-1.463-0.102-2.924-0.281-4.376
					c-0.143,0.02-0.285,0.037-0.429,0.056c-0.33-0.106-0.144,0.089-0.065,0.452c0.113,0.508,0.238,1.013,0.368,1.518
					c0.4,1.563,0.894,3.107,1.533,4.593c1.002,2.339,2.541,3.769,5.012,4.433c2.157,0.58,4.254,1.236,6.363,1.979
					c1.538,0.543,3.099,1.01,4.734,1.108c1.47,0.092,2.797-0.43,3.932-1.316c1.183-0.924,3.085-2.895,4.815-1.961
					c0.047,0.024,0.597,0.149,0.503-0.024c-0.226-0.415-0.4-0.845-0.504-1.307c-0.271-1.184,3.826,0.963,4.09,1.14
					c0.935,0.631,1.822,1.428,2.518,2.313c0.097,0.127,0.5,0.249,0.608,0.087c1.141-1.739,2.775-2.99,4.787-3.61
					c0.275-0.086,0.558-0.139,0.839-0.175c0.329,0.004,0.32-0.02-0.026-0.073c-0.191,0.141-0.358,0.307-0.5,0.497
					c-0.426,0.492-0.713,1.144-0.953,1.741c-0.067,0.171,0.508,0.292,0.614,0.191c3.3-3.121,8.176-4.191,12.507-2.65
					c2.377,0.846,3.934,3.86,6.689,3.762c1.137-0.039,2.199-0.35,3.359-0.305c1.75,0.064,3.168-0.65,4.383-1.855
					c1.363-1.353,2.262-3.184,3.152-4.848c1.229-2.294,2.355-4.601,3.25-7.045c-0.213-0.053-0.422-0.106-0.633-0.162
					c0.008,2.952,0.682,5.881,1.813,8.611C76.764,32.271,77.387,32.339,77.32,32.183z"/>
			</g>
		</g>
		<g>
			<g>
				<path style="fill:#A7A9AC;" d="M5.191,41.765c0,0-0.351,0.296-0.775,0.785c-0.215,0.242-0.445,0.537-0.66,0.87
					c-0.113,0.16-0.211,0.339-0.309,0.521c-0.112,0.173-0.186,0.37-0.275,0.56c-0.088,0.188-0.15,0.388-0.227,0.579
					c-0.055,0.198-0.118,0.393-0.175,0.582c-0.038,0.194-0.081,0.381-0.122,0.562c-0.039,0.178-0.052,0.354-0.083,0.514
					c-0.062,0.321-0.07,0.596-0.099,0.789c-0.028,0.194-0.044,0.309-0.044,0.309s-0.034-0.108-0.085-0.301
					c-0.045-0.189-0.133-0.467-0.149-0.806c-0.01-0.17-0.04-0.356-0.027-0.553c0.01-0.196,0.017-0.405,0.042-0.619
					c0.043-0.214,0.076-0.436,0.135-0.658c0.078-0.214,0.14-0.439,0.232-0.654c0.107-0.207,0.2-0.425,0.328-0.615
					c0.112-0.2,0.256-0.376,0.395-0.545c0.128-0.177,0.294-0.314,0.431-0.457c0.152-0.131,0.293-0.255,0.44-0.351
					C4.731,41.868,5.191,41.765,5.191,41.765z"/>
			</g>
			<g>
				<path style="fill:#A7A9AC;" d="M6.694,49.794c0,0,0.046,0.368,0.092,0.895c0.051,0.529,0.106,1.221,0.206,1.896
					c0.092,0.678,0.241,1.34,0.394,1.838c0.08,0.246,0.145,0.461,0.207,0.604c0.056,0.147,0.084,0.24,0.084,0.24
					s-0.071-0.058-0.19-0.17c-0.125-0.107-0.28-0.281-0.44-0.515c-0.157-0.231-0.314-0.522-0.434-0.854
					c-0.128-0.325-0.206-0.689-0.269-1.054c-0.041-0.368-0.069-0.735-0.048-1.08c0.012-0.344,0.061-0.661,0.117-0.929
					C6.523,50.127,6.694,49.794,6.694,49.794z"/>
			</g>
			<g>
				<path style="fill:#A7A9AC;" d="M9.945,53.755c0,0,0.078,0.39,0.167,0.958c0.078,0.559,0.185,1.307,0.291,2.054
					c0.055,0.37,0.13,0.733,0.175,1.081c0.087,0.334,0.152,0.653,0.201,0.936c0.183,0.521,0.267,0.926,0.267,0.926
					s-0.27-0.28-0.615-0.787c-0.134-0.264-0.274-0.581-0.411-0.933c-0.104-0.355-0.193-0.743-0.264-1.128
					c-0.033-0.391-0.096-0.781-0.08-1.148c0-0.367,0.016-0.709,0.061-0.999C9.805,54.129,9.945,53.755,9.945,53.755z"/>
			</g>
			<g>
				<path style="fill:#A7A9AC;" d="M14.27,60.245c0,0,0.237,0.25,0.587,0.584c0.173,0.169,0.385,0.353,0.599,0.553
					c0.116,0.095,0.24,0.183,0.353,0.286c0.108,0.106,0.238,0.197,0.372,0.279c0.125,0.094,0.249,0.186,0.373,0.276
					c0.123,0.094,0.261,0.159,0.385,0.236c0.128,0.072,0.248,0.153,0.363,0.228c0.112,0.082,0.234,0.128,0.341,0.186
					c0.433,0.209,0.729,0.411,0.729,0.411s-0.339,0.011-0.854-0.063c-0.129-0.019-0.274-0.028-0.41-0.09
					c-0.138-0.052-0.287-0.102-0.436-0.168c-0.145-0.07-0.317-0.11-0.455-0.212c-0.141-0.096-0.286-0.191-0.431-0.288
					c-0.142-0.1-0.278-0.205-0.397-0.329c-0.124-0.116-0.234-0.244-0.346-0.358c-0.111-0.116-0.188-0.257-0.275-0.375
					c-0.085-0.12-0.16-0.235-0.213-0.354C14.311,60.592,14.27,60.245,14.27,60.245z"/>
			</g>
			<g>
				<path style="fill:#A7A9AC;" d="M5.33,36.522c0,0-0.174,0.164-0.429,0.362c-0.124,0.103-0.273,0.212-0.431,0.324
					c-0.152,0.124-0.335,0.223-0.494,0.352c-0.171,0.114-0.345,0.229-0.506,0.334c-0.16,0.109-0.33,0.191-0.463,0.282
					c-0.27,0.172-0.504,0.257-0.504,0.257s0.064-0.224,0.24-0.519c0.08-0.157,0.212-0.302,0.356-0.456
					c0.077-0.072,0.143-0.163,0.236-0.227l0.269-0.202c0.186-0.13,0.391-0.23,0.583-0.316c0.095-0.048,0.199-0.069,0.292-0.099
					c0.092-0.03,0.18-0.056,0.268-0.067C5.088,36.479,5.33,36.522,5.33,36.522z"/>
			</g>
			<g>
				<path style="fill:#A7A9AC;" d="M22.325,61.923c0,0,0.213,0.239,0.492,0.596c0.135,0.181,0.304,0.38,0.462,0.606
					c0.075,0.118,0.177,0.219,0.257,0.34c0.086,0.114,0.166,0.239,0.259,0.351c0.087,0.114,0.177,0.231,0.265,0.345
					c0.089,0.109,0.159,0.236,0.254,0.334c0.091,0.1,0.169,0.206,0.247,0.306c0.083,0.095,0.143,0.209,0.221,0.284
					c0.3,0.32,0.483,0.593,0.483,0.593s-0.299-0.088-0.728-0.313c-0.113-0.051-0.205-0.136-0.315-0.217
					c-0.106-0.082-0.221-0.17-0.333-0.27c-0.231-0.189-0.413-0.443-0.62-0.68c-0.177-0.257-0.35-0.517-0.481-0.776
					c-0.126-0.264-0.241-0.508-0.303-0.733C22.334,62.246,22.325,61.923,22.325,61.923z"/>
			</g>
			<g>
				<path style="fill:#A7A9AC;" d="M32.364,65.867c0,0,0.2,0.217,0.47,0.522c0.13,0.158,0.297,0.327,0.447,0.521
					c0.081,0.096,0.178,0.182,0.257,0.284c0.084,0.096,0.157,0.205,0.26,0.29l0.262,0.284c0.086,0.097,0.167,0.194,0.264,0.269
					c0.183,0.157,0.327,0.353,0.485,0.475c0.307,0.252,0.509,0.483,0.509,0.483s-0.285-0.028-0.71-0.168
					c-0.213-0.06-0.419-0.212-0.653-0.354c-0.12-0.072-0.237-0.153-0.334-0.259c-0.102-0.098-0.204-0.199-0.309-0.3
					c-0.388-0.431-0.671-0.938-0.803-1.347C32.359,66.166,32.364,65.867,32.364,65.867z"/>
			</g>
			<g>
				<path style="fill:#A7A9AC;" d="M57.559,60.946c0,0,0.037,0.087,0.059,0.25c0.035,0.167,0.031,0.399,0.018,0.686
					c-0.049,0.276-0.084,0.617-0.23,0.94c-0.07,0.164-0.125,0.343-0.213,0.509c-0.098,0.157-0.197,0.321-0.295,0.48
					c-0.111,0.153-0.203,0.324-0.332,0.453c-0.123,0.141-0.26,0.267-0.379,0.394c-0.121,0.126-0.246,0.244-0.365,0.35
					c-0.131,0.097-0.258,0.182-0.377,0.258c-0.473,0.312-0.813,0.465-0.813,0.465s0.207-0.327,0.557-0.735
					c0.086-0.104,0.18-0.214,0.283-0.324c0.09-0.123,0.18-0.258,0.277-0.388c0.104-0.129,0.199-0.269,0.313-0.397
					c0.121-0.126,0.191-0.286,0.287-0.428c0.098-0.143,0.193-0.286,0.293-0.428c0.082-0.147,0.16-0.293,0.236-0.435
					c0.076-0.143,0.164-0.274,0.215-0.415c0.059-0.135,0.119-0.264,0.178-0.383c0.082-0.245,0.182-0.456,0.217-0.604
					C57.537,61.042,57.559,60.946,57.559,60.946z"/>
			</g>
			<g>
				<path style="fill:#A7A9AC;" d="M71.645,51.147c0,0,0.148,0.351,0.201,0.905c0.029,0.276,0.039,0.602,0.008,0.949
					c-0.021,0.348-0.096,0.716-0.197,1.078c-0.113,0.355-0.25,0.711-0.439,1.014c-0.168,0.312-0.381,0.573-0.576,0.774
					c-0.195,0.206-0.383,0.351-0.529,0.437c-0.137,0.089-0.217,0.134-0.217,0.134s0.045-0.085,0.123-0.225
					c0.039-0.065,0.096-0.146,0.148-0.24c0.049-0.1,0.104-0.208,0.168-0.323c0.068-0.109,0.117-0.246,0.184-0.378
					c0.068-0.131,0.123-0.278,0.184-0.428c0.07-0.144,0.113-0.304,0.174-0.46c0.064-0.156,0.102-0.323,0.154-0.487
					c0.104-0.328,0.178-0.663,0.256-0.98c0.068-0.321,0.131-0.623,0.186-0.881C71.58,51.505,71.645,51.147,71.645,51.147z"/>
			</g>
			<g>
				<path style="fill:#A7A9AC;" d="M74.68,40.359c0,0,0.445,0.176,0.969,0.645c0.27,0.229,0.547,0.533,0.807,0.892
					c0.26,0.355,0.49,0.771,0.666,1.209c0.098,0.214,0.146,0.448,0.221,0.666c0.068,0.223,0.088,0.451,0.131,0.664
					c0.037,0.219,0.031,0.432,0.047,0.633c0.02,0.196-0.01,0.387-0.02,0.561c-0.02,0.348-0.098,0.629-0.146,0.826
					c-0.051,0.193-0.086,0.302-0.086,0.302s-0.016-0.112-0.045-0.312c-0.01-0.101-0.021-0.22-0.037-0.355
					c-0.004-0.134-0.047-0.286-0.066-0.45c-0.025-0.164-0.039-0.341-0.088-0.523c-0.043-0.183-0.072-0.378-0.125-0.573
					c-0.055-0.196-0.105-0.397-0.17-0.599c-0.076-0.198-0.129-0.408-0.225-0.603c-0.148-0.404-0.35-0.785-0.541-1.143
					c-0.203-0.353-0.408-0.678-0.602-0.949C74.99,40.705,74.68,40.359,74.68,40.359z"/>
			</g>
			<g>
				<path style="fill:#A7A9AC;" d="M75.527,36.402c0,0,0.273,0.246,0.58,0.688c0.311,0.438,0.652,1.067,0.895,1.734
					c0.057,0.168,0.113,0.337,0.168,0.501c0.063,0.164,0.086,0.336,0.127,0.5c0.063,0.326,0.139,0.628,0.139,0.897
					c0.039,0.536,0,0.896,0,0.896s-0.182-0.324-0.363-0.81c-0.086-0.246-0.223-0.52-0.33-0.823c-0.111-0.3-0.232-0.62-0.354-0.942
					c-0.102-0.326-0.242-0.638-0.334-0.949c-0.113-0.301-0.203-0.592-0.283-0.84C75.611,36.756,75.527,36.402,75.527,36.402z"/>
			</g>
		</g>
		<path style="opacity:0.6;fill:#A7A9AC;" d="M77.006,32.137c0,0-1.781-4.241-1.807-7.915c-0.002-0.223-0.002-0.442-0.004-0.658
			c-0.533,1.483-1.41,3.673-2.588,5.82c-2.063,3.766-3.92,8.074-8.01,7.857c-4.084-0.217-3.006,1.901-8.275-2.589
			c-1.762-1.499-9.295-3.26-14.447,1.823c0,0,0.645-1.666,1.438-2.209c0.79-0.545-3.848-0.183-6.216,3.669
			c0,0-2.602-3.377-6.661-4.134c-1.261-0.234-0.05,1.937-0.05,1.937s-2.056-1.185-4.951,1.604
			c-2.898,2.788-6.175,1.407-10.672-0.205c-4.498-1.612-5.833-1.034-7.728-3.191c-2.104-2.397-3.406-9.041-3.406-9.041l-0.007-0.003
			c0.296,2.272,0.328,5.08,0.24,8.395c-0.054,2.02-1.309,1.001-1.309,1.001c-0.339,2.521,0.897,3.145,0.897,3.145
			s-3.014,2.557-2.889,6.056c0.125,3.502,1.862,1.771,1.862,1.771s-0.319,1.767,0.406,5.23c0.727,3.464,3.963,2.796,3.963,2.796
			c1.309,4.07,3.291,3.37,3.291,3.37c0.609,5.772,5.527,5.473,5.527,5.473c2.485,1.868,5.615,1.092,5.615,1.092
			c0.352,3.156,4.029,4.386,3.646,3.405c-0.382-0.979-1.245-2.399-1.245-2.399c3.529,3.644,7.827,4.108,7.27,3.528
			s-0.681-1.094-0.681-1.094c4.875,3.357,3.101,0.781,3.101,0.781s3.343,3.05,6.116,3.338c2.774,0.29,5.216-3.358,5.216-3.358
			s-1.789,3.72,0.703,2.334c2.491-1.388,4.408-3.812,4.408-3.812s-2.541,3.322-0.895,2.882c4.008-1.071,7.682-4.76,7.682-4.76
			c5.406-1.75,7.355-5.896,7.355-5.896s-1.393,3.109,0.432,2.271c5.336-2.456,6.783-5.792,6.783-5.792
			c4.389-2.061,2.547-7.543,2.547-7.543s1.543,3.376,2.787,1.795c1.764-2.244,0.672-8.913,0.672-8.913s1.139,2.289,2.26,1.136
			S77.006,32.137,77.006,32.137z M76.879,36.518c-1.484-1.95-3.084-2.583-3.084-2.583s0.309,0.653,0.971,3.201
			c0.994,3.82-1.703,1.783-1.703,1.783c2.047,2.96,2.465,5.771,1.279,5.2c-1.188-0.57-2.395-2.861-2.395-2.861
			c1,2.822,0.436,6.789-0.15,5.643c-0.584-1.145-1.213-3.044-1.213-3.044c-0.471,6.282-3.131,11.106-4.479,10.532
			c-1.35-0.575-1.35-4.124-1.35-4.124c-0.691,5.954-5.262,8.577-5.93,7.105c-0.67-1.471-1.049-4.439-1.049-4.439
			c-0.113,6.292-6.459,9.835-6.034,8.313c0.644-2.327,0.763-4.149,0.763-4.149c-1.866,4.576-6.379,8.061-7,6.913
			c-0.628-1.15-0.155-2.423-0.155-2.423s-4.594,5.643-7.737,4.852c-3.333-0.841-5.342-5.254-5.342-5.254s0.748,2.71-1.086,1.908
			c-1.833-0.804-3.888-2.95-3.888-2.95s2.247,5.165-0.968,2.928c-3.212-2.236-6.053-6.994-6.053-6.994s0.345,4.313-1.795,3.073
			c-3.079-1.786-4.599-5.805-4.599-5.805s1.288,6.953-1.263,4.41s-1.896-9.698-1.896-9.698s-1.51,6.489-2.95,3.598
			c-1.44-2.89-0.449-5.806-0.449-5.806c-1.167,3.108-2.891,3.888-3.088,0.566c-0.2-3.317,2.372-6.628,2.372-6.628
			c-2.612,1.813-5.337,3.784-4.149,0.426c1.186-3.357,3.417-3.675,3.417-3.675c2.634-1.624,7.294,0.558,10.255,3.018
			c2.96,2.46,6.816,2.118,10.341-1.217c3.524-3.336,6.429-0.273,6.429-0.273c-1.596-1.978-2.033-4.171,0.597-2.446
			c2.63,1.728,3.42,4.046,3.42,4.046c1.078-2.472,4.745-4.538,4.307-3.501c-0.437,1.036-0.838,3.475,0.943,1.556
			c3.755-4.034,9.836-4.794,14.484-1.118c4.648,3.674,7.287,2.882,7.287,2.882c-1.248-0.246-2.746-1.363-0.338-1.19
			c2.404,0.17,4.463-0.204,5.238-0.829c5.531-4.475,3.346-10.777,6.186-7.098S78.363,38.469,76.879,36.518z"/>
		<g style="opacity:0.7;">
			<path style="fill:#A7A9AC;" d="M32.737,51.94c0,0,2.329,2.612,6.133,3.133c3.806,0.521,6.458-2.58,6.458-2.58
				s-1.096,4.056-6.415,4.238C34.511,56.884,32.737,51.94,32.737,51.94z"/>
		</g>
		<g style="opacity:0.6;">
			<path style="fill:#A7A9AC;" d="M64.139,47.361c-1.057,4.806-3.748,8.599-5.154,7.027c-1.402-1.569-0.844-6.074-0.98-5.109
				c-0.775,5.548-5.313,10.106-4.781,7.537c0.531-2.568,0.506-3.644,0.217-3.06c-1.154,2.343-4.62,7.652-6.142,7.368
				c-1.519-0.281-0.06-3.793-0.524-3.16c0,0-5.104,6.401-9.247,6.289c-3.053-0.081-5.777-5.06-5.777-5.06
				c-0.577-0.859,0.104,0.516-0.358,2.072c-0.369,1.241-3.497-1.184-6.109-4.399c0,0,1.088,2.169,1.173,3.561
				c0.085,1.396-5.261-2.177-7.128-7.312c0,0,0.882,3.735-0.394,4.065c-1.276,0.329-4.437-3.408-5.738-6.758
				c0,0,0.513,3.243,0.244,5.12c-0.267,1.875-3.148-3.03-2.076-10.544c0,0-1.358,3.376-2.555,4.259
				c-1.195,0.883-1.718-4.081,0.158-7.932c0,0-0.822,2.198-0.038,3.436c0.785,1.238,2.923-2.225,3.361-3.347
				c0,0-1.267,6.637-0.4,7.87c0.867,1.235,1.132-3.575,1.132-3.575s0.578,3.89,3.166,6.058c2.587,2.168,2.06-2.593,2.06-2.593
				s2.394,5.342,4.283,7.13c1.887,1.789,0.688-2.3,0.688-2.3s2.854,3.405,5.286,4.278c2.43,0.873,1.126-2.423,0.827-3.466
				c-0.298-1.038,3.246,6.157,8.614,6.3c5.368,0.145,9.831-5.962,10.263-6.445c0.729-0.82-0.891,2.688,0.179,3.495
				c1.069,0.809,4.326-5.279,4.998-7.507c0.676-2.228,0.621-0.211,0.887,2.138c0.262,2.345,2.549-1.299,4.088-7.688
				c0.23-0.954-0.377,4.998,1.021,6.268C60.777,52.648,63.428,50.48,64.139,47.361z"/>
		</g>
		<g style="opacity:0.6;">
			<path style="fill:#A7A9AC;" d="M60.338,39.549c-4.619-0.994-5.711-4.676-10.617-4.803c-4.288-0.11-8.473,4.721-8.473,4.721
				c-0.67,0.618-1.638,0.04-0.891-1.769c0.747-1.81-2.354,0.636-3.063,2.851c0,0-1.409-2.971-3.164-3.662
				c-1.755-0.693-0.063,2.39-0.063,2.39s-2.375-3.343-6.378-0.544c-4.002,2.798-4.631,3.319-7.605,2.89c0,0,2.887,1.947,7.753-1.757
				c3.622-2.755,6.931,1.801,6.931,1.801s0.238-1.286,0.057-2.138c-0.181-0.853,1.561,0.837,2.479,2.124
				c0,0,0.219-0.479,1.364-2.062c1.147-1.585-0.013,2.598,2.018,1.05c3.576-2.73,8.008-6.33,12.629-3.726
				C59.004,40.118,60.338,39.549,60.338,39.549z"/>
		</g>
	</g>
</g>
<g id="Layer_1">
</g>
</svg>
