<?xml version="1.0" encoding="iso-8859-1"?>
<!-- Generator: Adobe Illustrator 15.0.0, SVG Export Plug-In . SVG Version: 6.00 Build 0)  -->
<!DOCTYPE svg PUBLIC "-//W3C//DTD SVG 1.1//EN" "http://www.w3.org/Graphics/SVG/1.1/DTD/svg11.dtd">
<svg version="1.1" xmlns="http://www.w3.org/2000/svg" xmlns:xlink="http://www.w3.org/1999/xlink" x="0px" y="0px"
	 width="79.999px" height="80px" viewBox="0 0 79.999 80" style="enable-background:new 0 0 79.999 80;" xml:space="preserve">
<g id="ico-beard-4">
	<g>
		<defs>
			<rect id="SVGID_1_" width="79.999" height="80"/>
		</defs>
		<clipPath id="SVGID_2_">
			<use xlink:href="#SVGID_1_"  style="overflow:visible;"/>
		</clipPath>
		<g style="clip-path:url(#SVGID_2_);">
			<path style="fill:none;" d="M59.746,0H20.253C9.067,0,0,9.066,0,20.253v39.493C0,70.932,9.067,80,20.253,80h39.493
				c11.186,0,20.253-9.068,20.253-20.254V20.253C79.999,9.066,70.932,0,59.746,0z"/>
		</g>
	</g>
	<g>
		<g style="opacity:0.7;">
			<path style="fill:#A7A9AC;" d="M67.04,42.787c-0.671-5.044-7.894-6.594-12.874-7.89c-3.759-0.974-7.618-2.241-11.575-2.568
				c-4.17-0.347-7.885,1.081-11.549,2.514c-0.023,0.01-0.038,0.023-0.06,0.037c-3.177,0.843-6.268,1.862-9.4,2.901
				c-3.806,1.26-6.737,2.699-8.55,5.752c-0.743,1.251-1.323,2.784-1.03,4.185c0.384,1.825,1.942,3.146,3.457,4.464
				c1.427,1.244,2.849,2.479,4.737,3.262c1.109,0.462,2.277,0.83,3.402,1.265c1.025,0.397,1.941,0.955,3.016,1.277
				c2.12,0.644,4.343,0.542,6.573,0.494c2.691-0.057,5.227,0.034,7.899,0.303c2.021,0.203,3.821,0.262,5.705-0.413
				c2.222-0.796,4.162-2.09,6.385-2.932c2.018-0.763,4.151-1.354,6.061-2.287c1.589-0.777,2.991-1.802,4.227-2.905
				C65.724,48.228,67.406,45.56,67.04,42.787z M59.877,46.437c-0.565,0.274-0.349,1.147-0.754,1.651
				c-0.369,0.457-1.083,0.756-1.691,0.955c-0.956,0.313-2.073,0.475-2.963,0.902c-1.112,0.541-2.104,1.203-3.327,1.59
				c-1.219,0.382-2.602,0.902-3.871,1.089c-0.359,0.052-0.667-0.168-0.954-0.298c-0.183-0.081-0.634,0.06-0.879,0.102
				c-1.697,0.275-2.824-0.497-3.493-1.619c-0.547,0.84-1.057,1.84-1.992,2.361c-0.357,0.195-0.831,0.394-1.282,0.299
				c-0.979-0.205-1.746,0.278-2.684,0.424c-2.355,0.357-5.544-1.341-6.835-2.933c-1.277,0.722-1.985-0.697-2.631-1.548
				c-0.605-0.804-1.159,0.178-2.112-0.051c-0.601-0.142-0.868-0.992-1.157-1.501c-1.11,0.544-2.271,0.467-2.158-0.924
				c0.152-1.865,1.437-3.75,3.573-4.591c0.05-0.021,0.101-0.027,0.147-0.029c2.295-1.137,5.268-1.046,7.656-2.096
				c0.725-0.314,1.426-0.564,2.236-0.697c0.828-0.139,1.806,0.066,2.603-0.152c0.432-0.112,1.255-0.531,1.725-0.403
				c1.227,0.334,2.12,0.654,3.476,0.408c1.918-0.345,3.932-1.09,5.938-0.976c1.771,0.102,2.899,1.021,4.555,1.394
				c1.271,0.286,4.001,0.894,2.895,2.196c0.868,0.523,1.677,1.105,2.628,1.531c0.222,0.102,0.222,0.373,0,0.47
				c-0.146,0.068-0.304,0.159-0.462,0.252c0.732,0.604,1.605,1.061,1.974,1.89C60.085,46.246,60.001,46.378,59.877,46.437z"/>
		</g>
		<g>
			<path style="fill:#A7A9AC;" d="M79.171,35.492c0.104-1.148-0.163-2.615-0.815-3.733c0.341,0.047,0.639-0.129,0.73-0.687
				c0.364-2.201-1.706-4.636-2.545-6.641c-0.019-0.046-0.063-0.067-0.114-0.082c-0.009-0.059-0.018-0.118-0.028-0.176
				c-0.021-0.098-0.204-0.069-0.207,0.021c-0.01,0.276-0.069,0.546-0.151,0.811c-0.042,0.001-0.082,0.017-0.094,0.053
				c-0.315,1.01-0.941,2.377-2.125,2.988c-0.057-0.025-0.133-0.02-0.183,0.034c-0.023,0.023-0.044,0.054-0.065,0.078
				c-0.166,0.065-0.34,0.121-0.525,0.154c-0.139,0.028-0.1,0.187,0.032,0.19c0.074,0.004,0.141-0.001,0.209-0.002
				c-0.654,0.806-1.181,1.664-1.713,2.529c-0.42,0.685-1.372,2.742-2.523,1.466c-0.104-0.117-0.315-0.019-0.239,0.11
				c0.036,0.058,0.071,0.1,0.107,0.153c-0.13,0.844-0.05,1.709-0.383,2.528c-0.271,0.666-1.044,0.937-1.877,1.033
				c-0.211-0.429-1.17-1.072-1.475-1.216c-1.344-0.623-3.226-1.27-4.988-1.389c1.033-0.187,2.153-0.591,1.069-1.282
				c-1.755-1.12-4.431-0.893-6.681-0.6c0.073-0.062,0.138-0.134,0.183-0.21c0.051-0.01,0.1-0.032,0.137-0.071
				c0.837-0.89-1.517-1.155-2.112-1.181c-0.787-0.033-1.69-0.05-2.577,0.023c0.309-0.231,0.539-0.513,0.427-0.842
				c-0.217-0.63-0.957-0.595-1.608-0.482c-1.714,0.298-3.467,0.902-4.913,1.783c0.259-0.411,0.421-0.847,0.307-1.291
				c-0.023-0.099-0.167-0.189-0.295-0.18c-2.132,0.177-3.514,1.667-5.163,2.602c-1.818-0.877-3.595-2.407-5.839-2.123
				c-0.154,0.021-0.273,0.194-0.217,0.309c0.072,0.144,0.158,0.255,0.257,0.348c-0.309-0.063-0.617-0.09-0.874-0.015
				c-0.196,0.057-0.306,0.319-0.065,0.402c0.065,0.023,0.137,0.039,0.208,0.059c-0.411-0.031-0.822-0.052-1.229-0.069
				c-0.871-0.041-1.799-0.155-2.653,0.017c-0.542,0.109-0.794,0.557-0.6,0.95c0.054,0.108,0.141,0.196,0.248,0.273
				c-0.276,0.008-0.547,0.025-0.797,0.033c-1.589,0.043-2.981,0.283-4.534,0.525c-0.688,0.11-1.707,0.273-1.759,0.957
				c-1.785,0.185-3.979,0.517-5.139,1.57c-0.13,0.116-0.156,0.286-0.07,0.418c-0.549,0.1-1.084,0.233-1.598,0.411
				c-0.42,0.144-1.335,0.493-1.888,0.935c-0.615,0.195-1.292,0.365-1.941,0.408c0.001-0.067-0.036-0.127-0.145-0.142
				c-0.73-0.102-2.053-1.875-2.295-2.53c-0.4-1.066-0.439-2.386,0.053-3.433c0.036-0.075-0.037-0.12-0.116-0.127
				c0.023-0.032,0.047-0.063,0.066-0.092c0.039-0.053-0.024-0.131-0.103-0.109c-0.279,0.08-0.513,0.226-0.817,0.252
				c-0.223,0.02-0.144-0.429-0.133-0.558c0.036-0.479,0.355-0.92,0.396-1.391c0.009-0.098-0.126-0.137-0.222-0.108
				c0.07-0.085,0.134-0.168,0.181-0.246c0.075-0.121-0.13-0.215-0.229-0.104c-0.287,0.324-0.82,0.758-1.096,0.19
				c-0.107-0.219-0.19-0.45-0.292-0.669c-0.285-0.632-0.648-1.318-1.073-1.902c-0.015-0.1-0.023-0.199-0.06-0.299
				c-0.019-0.056-0.135-0.064-0.146,0c-0.18,0.976-0.957,1.812-1.403,2.716c-0.401,0.817-0.886,1.687-1.084,2.556
				c-0.195,0.857,0.807,0.656,1.535,0.354c-1.449,1.903-4.233,6.268-1.667,6.574c-0.313,1.033-0.451,2.097-0.286,3.159
				c0.104,0.663,0.51,0.887,0.92,0.737c-0.27,1.11-0.376,2.234-0.076,3.409c0.141,0.559,0.655,2.012,1.419,1.658
				c-0.114,1.324,0.184,2.629,1.224,3.735c0.835,0.882,1.429,0.686,1.764,0.064c-0.006,1.54,0.578,3.255,2.325,3.647
				c0.053,0.014,0.101,0.012,0.146,0.004c0.246,0.418,0.52,0.823,0.792,1.218c0.605,0.87,1.57,2.044,2.996,1.761
				c0.013-0.004,0.018-0.01,0.028-0.015c0.318,0.54,0.694,1.06,1.143,1.543c0.632,0.678,2.02,1.905,3.132,1.14
				c0.298,0.361,0.658,0.705,1.139,1.022c1.501,0.989,3.156,1.795,5.158,1.722c0.287,0.212,0.607,0.404,0.982,0.569
				c1.315,0.577,3.11,0.581,4.626,0.512c0.748,0.484,1.601,0.885,2.625,1.198c1.332,0.406,1.932-0.042,2.134-0.762
				c0.341,0.523,0.759,0.978,1.32,1.283c0.992,0.539,2.578,0.022,3.209-0.767c-0.034,0.286-0.019,0.58,0.182,0.819
				c0.388,0.466,1.114,0.126,1.592-0.184c0.175,0.232,0.519,0.257,0.84,0.142c0.602-0.211,1.18-0.598,1.66-1.048
				c0.308,0.518,1.009,0.376,1.653,0.178c2.217-0.675,4.771-1.403,6.751-2.608c-0.031,0.154,0.014,0.315,0.174,0.446
				c0.519,0.414,1.27,0.037,1.781-0.185c0.826-0.364,1.571-0.806,2.249-1.3c0.036,0.615,2.171-0.012,2.556-0.173
				c1.238-0.515,2.342-1.294,3.282-2.191c-0.059,0.151,0.162,0.272,0.326,0.197c0.519-0.231,1.104-0.557,1.607-0.945
				c-0.188,0.654-0.182,1.195,0.396,1.199c0.926,0.006,1.79-0.854,2.381-1.331c0.744-0.597,1.317-1.279,1.777-2.017
				c0.024,0.398,0.302,0.75,0.881,0.519c0.657-0.264,1.023-1.103,1.301-1.639c-0.029,0.266-0.005,0.531,0.122,0.801
				c0.083,0.18,0.351,0.256,0.536,0.114c1.386-1.059,2.55-2.371,3.07-3.843c0.01,0.017,0.013,0.036,0.02,0.053
				c0.165,0.357,0.695,0.42,1.017,0.161c0.806-0.646,0.901-2.023,1.056-2.87c0.071-0.391,0.121-0.782,0.162-1.18
				c0.063,0.065,0.161,0.097,0.284,0.057c2.181-0.721,2.176-3.332,1.794-5.238c0.863,0.044,0.904-1.758,0.922-2.141
				c0.034-0.629-0.001-1.26-0.022-1.891c-0.048-1.111-0.369-1.93-0.807-2.825C78.555,36.447,79.116,36.1,79.171,35.492z
				 M57.793,42.417c1.35,0.314,2.591,1.092,3.401,2.007c0.246,0.28,0.446,0.587,0.63,0.897c0.229,0.385,0.321,0.702,0.066,0.86
				c-0.368-0.252-0.817-0.423-1.295-0.51c-0.168-0.029-0.29,0.17-0.121,0.234c0.269,0.102,0.489,0.241,0.69,0.395
				c-0.105,0.047-0.102,0.188,0.024,0.224c0.102,0.027,0.195,0.047,0.282,0.062c0.185,0.203,0.336,0.432,0.438,0.686
				c0.097,0.243,0.099,0.537,0.096,0.792c-0.012,0.223-0.114,0.419-0.312,0.587c-0.251,0.226-0.532-0.296-0.584-0.375
				c-0.136-0.207-0.526-0.063-0.459,0.155c0.027,0.09,0.071,0.197,0.13,0.305c-0.054,0.005-0.105,0.027-0.125,0.084
				c-0.232,0.649-0.744,2.42-1.863,2.439c0.056-0.712,0.557-1.367,0.848-2.025c0.076-0.175-0.233-0.257-0.353-0.119
				c-0.021,0.026-0.047,0.054-0.066,0.081c-0.076-0.038-0.172-0.045-0.249,0.016c-1.007,0.812-1.894,1.676-2.98,2.424
				c-0.631,0.436-1.647,1.102-2.56,1.237c0.076-0.515,0.347-0.975,0.703-1.419c0.138-0.174-0.156-0.325-0.333-0.209
				c-0.023,0.017-0.04,0.039-0.066,0.057c-0.037-0.008-0.079-0.007-0.12,0.019c-1.46,0.893-2.875,1.781-4.428,2.569
				c-0.528,0.267-1.055,0.526-1.581,0.795c-0.147,0.075-1.157,0.584-1.202,0.145c-0.032-0.319,0.248-0.868,0.415-1.153
				c0.076-0.131-0.138-0.293-0.266-0.164c-0.018,0.019-0.037,0.038-0.055,0.061c-0.039-0.1-0.186-0.168-0.293-0.069
				c-0.521,0.475-0.901,1.033-1.465,1.481c-0.127,0.1-0.261,0.188-0.416,0.255c-0.005-0.015-0.01-0.034-0.01-0.066
				c-0.021-0.48,0.368-0.991,0.479-1.462c0.03-0.134-0.195-0.229-0.286-0.099c-0.291,0.42-0.77,0.864-0.902,1.352
				c-0.538,0.369-1.004,0.803-1.608,1.115c-0.552,0.28-0.696,0.025-0.91-0.406c-0.172-0.355-0.298-0.718-0.427-1.083
				c-0.05-0.147-0.344-0.121-0.336,0.037c0.003,0.099,0.008,0.219,0.015,0.353c-0.068,0-0.141,0.027-0.173,0.086
				c-0.147,0.297-0.184,0.598-0.249,0.907c-0.036,0.189-0.097,0.372-0.197,0.546c-0.105,0.184-0.744-0.041-0.881-0.086
				c-1.307-0.389-2.297-1.085-3.228-1.896c-0.125-0.107-0.321,0.029-0.245,0.154c0.219,0.35,0.523,0.713,0.881,1.054
				c-1.461,0.337-4.399-0.326-5.821-1.358c-0.146-0.24-0.337-0.469-0.493-0.664c-0.048-0.063-0.129-0.082-0.204-0.077
				c-0.045-0.091-0.083-0.179-0.099-0.274c-0.025-0.132-0.275-0.09-0.281,0.033c-0.017,0.373,0.183,0.734,0.522,1.072
				c0.155,0.306,0.229,0.58-0.16,0.508c-0.575-0.104-1.083-0.389-1.618-0.578c-1.565-0.554-2.669-1.741-3.473-2.894
				c-0.066-0.098-0.265-0.053-0.261,0.059c0.015,0.506,0.219,0.971,0.534,1.391c0.018,0.217-0.041,0.398-0.246,0.491
				c-0.924-0.296-1.682-0.91-2.364-1.479c-0.896-0.746-1.81-1.501-2.384-2.438c-0.004-0.008-0.015-0.008-0.021-0.012
				c-0.021-0.114-0.194-0.11-0.235-0.01c-0.028,0.021-0.048,0.052-0.046,0.087c0,0.01,0.004,0.019,0.007,0.029
				c-0.074,0.261-0.27,0.514-0.446,0.73c-0.024,0.035-0.058,0.064-0.086,0.094c-1.418-0.871,0.091-4.551,1.166-5.223
				c0.143-0.091,0.017-0.275-0.14-0.275c-0.246,0.003-0.462,0.071-0.656,0.18c-0.421,0.105-0.831,0.251-1.243,0.374
				c-0.327,0.101-0.669,0.183-1.02,0.208c-0.383,0.027,0.041-0.516,0.158-0.68c0.996-1.411,3.188-2.201,5.074-2.484
				c0.108-0.015,0.104-0.153,0-0.17c-0.83-0.151-1.726-0.039-2.574,0.239c-0.063-0.418,0.206-0.636,0.808-0.656
				c0.274-0.067,0.549-0.13,0.83-0.185c0.799-0.166,1.599-0.337,2.401-0.49c1.894-0.366,3.796-0.451,5.732-0.478
				c0.173,0.059,0.354,0.081,0.522,0.029c0.187-0.055,0.172-0.296-0.047-0.286c-0.44,0.016-0.999-0.763-1.141-1.036
				c-0.015-0.024-0.015-0.036-0.02-0.052c0.052,0.021,0.102,0.045,0.141,0.062c0.296,0.119,0.571,0.274,0.842,0.427
				c0.279,0.162,0.546,0.337,0.826,0.499c0.144,0.086,0.316,0.223,0.508,0.257c0.188,0.149,0.457,0.223,0.829,0.169
				c0.147-0.02,0.133-0.198,0-0.227c-0.756-0.175-0.598-0.999-0.319-1.438c0.168-0.264,0.524-0.492,0.887-0.323
				c0.408,0.192,0.583,0.596,0.998,0.775c0.002,0.002,0.006,0.002,0.013,0.004c0.005,0.014,0.006,0.028,0.013,0.043
				c0.051,0.13,0.307,0.112,0.302-0.034c-0.025-0.594-0.115-1.199-0.107-1.798c0.481,0.395,0.773,0.957,1.421,1.177
				c0.266,0.088,0.494-0.09,0.381-0.306c-0.138-0.26-0.307-0.547-0.303-0.838c0.627,0.268,1.077,0.813,1.692,1.104
				c0.043,0.02,0.081,0.014,0.115-0.002c0.007,0.061,0.012,0.125,0.022,0.188c0.025,0.187,0.334,0.187,0.358,0
				c0.115-0.833,0.177-1.683,0.439-2.495c0.027-0.076,0.27-0.758,0.527-0.568c0.251,0.185,0.464,0.428,0.685,0.638
				c0.449,0.423,0.738,0.897,1.088,1.37c0.09,0.125,0.275,0.117,0.384,0.039c0.058,0,0.119-0.017,0.159-0.063
				c0.48-0.57,0.792-1.202,1.345-1.74c0.215-0.205,0.481-0.434,0.8-0.533c0.192-0.058,0.194,0.289,0.202,0.373
				c0.075,0.819-0.347,1.572-0.45,2.37c0,0.006,0.006,0.01,0.006,0.01c-0.031,0.028-0.063,0.051-0.096,0.074
				c-0.08,0.054,0.022,0.154,0.109,0.114c0.031-0.018,0.061-0.038,0.094-0.051c0.087,0.042,0.206,0.051,0.274-0.021
				c0.062-0.063,0.102-0.137,0.148-0.208c0.932-0.513,1.719-1.134,2.584-1.733c0.593-0.414,1.239-0.778,1.896-1.125
				c0.422-0.223,1.228-0.771,1.787-0.7c0.842,0.109-0.972,3.059-1.033,3.387c-0.008,0.036-0.004,0.074,0.011,0.103
				c-0.021,0.024-0.046,0.046-0.068,0.067c-0.098,0.093,0.028,0.259,0.175,0.182c0.429-0.229,0.829-0.481,1.228-0.741
				c0.291-0.188,1.006-0.655,1.414-0.596c0.075,0.012-0.246,1.075-0.231,1.238c0.007,0.05,0.045,0.093,0.09,0.127
				c-0.024,0.006-0.053,0.014-0.076,0.019c-0.173,0.044-0.142,0.25,0.042,0.257c1.376,0.02,2.737-0.134,4.115-0.108
				c0.325,0.005,3.127,0.308,1.766,0.595c-0.109,0.025-0.139,0.128-0.094,0.195c-0.404-0.059-0.813-0.101-1.216-0.142
				c-0.205-0.023-0.244,0.248-0.049,0.282c2.596,0.443,4.643,1.598,6.487,3.084c-0.351,0.119-1.557-0.159-1.722-0.199
				c-0.41-0.1-0.816-0.215-1.227-0.324c-0.282-0.096-0.572-0.163-0.865-0.213c-0.016-0.002-0.031-0.009-0.051-0.011
				c-0.007-0.003-0.01,0.002-0.017,0.002c-0.12-0.021-0.238-0.048-0.358-0.058C57.616,42.086,57.585,42.368,57.793,42.417z"/>
		</g>
		<path style="fill:#A7A9AC;" d="M79.171,35.492c0.104-1.148-0.163-2.615-0.815-3.733c0.341,0.047,0.639-0.129,0.73-0.687
			c0.364-2.201-1.706-4.636-2.545-6.641c-0.019-0.046-0.063-0.067-0.114-0.082c-0.009-0.059-0.018-0.118-0.028-0.176
			c-0.021-0.098-0.204-0.069-0.207,0.021c-0.01,0.276-0.069,0.546-0.151,0.811c-0.042,0.001-0.082,0.017-0.094,0.053
			c-0.315,1.01-0.941,2.377-2.125,2.988c-0.057-0.025-0.133-0.02-0.183,0.034c-0.023,0.023-0.044,0.054-0.065,0.078
			c-0.166,0.065-0.34,0.121-0.525,0.154c-0.139,0.028-0.1,0.187,0.032,0.19c0.074,0.004,0.141-0.001,0.209-0.002
			c-0.654,0.806-1.181,1.664-1.713,2.529c-0.42,0.685-1.372,2.742-2.523,1.466c-0.104-0.117-0.315-0.019-0.239,0.11
			c0.036,0.058,0.071,0.1,0.107,0.153c-0.13,0.844-0.05,1.709-0.383,2.528c-0.271,0.666-1.044,0.937-1.877,1.033
			c-0.211-0.429-1.17-1.072-1.475-1.216c-1.344-0.623-3.226-1.27-4.988-1.389c1.033-0.187,2.153-0.591,1.069-1.282
			c-1.755-1.12-4.431-0.893-6.681-0.6c0.073-0.062,0.138-0.134,0.183-0.21c0.051-0.01,0.1-0.032,0.137-0.071
			c0.837-0.89-1.517-1.155-2.112-1.181c-0.787-0.033-1.69-0.05-2.577,0.023c0.309-0.231,0.539-0.513,0.427-0.842
			c-0.217-0.63-0.957-0.595-1.608-0.482c-1.714,0.298-3.467,0.902-4.913,1.783c0.259-0.411,0.421-0.847,0.307-1.291
			c-0.023-0.099-0.167-0.189-0.295-0.18c-2.132,0.177-3.514,1.667-5.163,2.602c-1.818-0.877-3.595-2.407-5.839-2.123
			c-0.154,0.021-0.273,0.194-0.217,0.309c0.072,0.144,0.158,0.255,0.257,0.348c-0.309-0.063-0.617-0.09-0.874-0.015
			c-0.196,0.057-0.306,0.319-0.065,0.402c0.065,0.023,0.137,0.039,0.208,0.059c-0.411-0.031-0.822-0.052-1.229-0.069
			c-0.871-0.041-1.799-0.155-2.653,0.017c-0.542,0.109-0.794,0.557-0.6,0.95c0.054,0.108,0.141,0.196,0.248,0.273
			c-0.276,0.008-0.547,0.025-0.797,0.033c-1.589,0.043-2.981,0.283-4.534,0.525c-0.688,0.11-1.707,0.273-1.759,0.957
			c-1.785,0.185-3.979,0.517-5.139,1.57c-0.13,0.116-0.156,0.286-0.07,0.418c-0.549,0.1-1.084,0.233-1.598,0.411
			c-0.42,0.144-1.335,0.493-1.888,0.935c-0.615,0.195-1.292,0.365-1.941,0.408c0.001-0.067-0.036-0.127-0.145-0.142
			c-0.73-0.102-2.053-1.875-2.295-2.53c-0.4-1.066-0.439-2.386,0.053-3.433c0.036-0.075-0.037-0.12-0.116-0.127
			c0.023-0.032,0.047-0.063,0.066-0.092c0.039-0.053-0.024-0.131-0.103-0.109c-0.279,0.08-0.513,0.226-0.817,0.252
			c-0.223,0.02-0.144-0.429-0.133-0.558c0.036-0.479,0.355-0.92,0.396-1.391c0.009-0.098-0.126-0.137-0.222-0.108
			c0.07-0.085,0.134-0.168,0.181-0.246c0.075-0.121-0.13-0.215-0.229-0.104c-0.287,0.324-0.82,0.758-1.096,0.19
			c-0.107-0.219-0.19-0.45-0.292-0.669c-0.285-0.632-0.648-1.318-1.073-1.902c-0.015-0.1-0.023-0.199-0.06-0.299
			c-0.019-0.056-0.135-0.064-0.146,0c-0.18,0.976-0.957,1.812-1.403,2.716c-0.401,0.817-0.886,1.687-1.084,2.556
			c-0.195,0.857,0.807,0.656,1.535,0.354c-1.449,1.903-4.233,6.268-1.667,6.574c-0.313,1.033-0.451,2.097-0.286,3.159
			c0.104,0.663,0.51,0.887,0.92,0.737c-0.27,1.11-0.376,2.234-0.076,3.409c0.141,0.559,0.655,2.012,1.419,1.658
			c-0.114,1.324,0.184,2.629,1.224,3.735c0.835,0.882,1.429,0.686,1.764,0.064c-0.006,1.54,0.578,3.255,2.325,3.647
			c0.053,0.014,0.101,0.012,0.146,0.004c0.246,0.418,0.52,0.823,0.792,1.218c0.605,0.87,1.57,2.044,2.996,1.761
			c0.013-0.004,0.018-0.01,0.028-0.015c0.318,0.54,0.694,1.06,1.143,1.543c0.632,0.678,2.02,1.905,3.132,1.14
			c0.298,0.361,0.658,0.705,1.139,1.022c1.501,0.989,3.156,1.795,5.158,1.722c0.287,0.212,0.607,0.404,0.982,0.569
			c1.315,0.577,3.11,0.581,4.626,0.512c0.748,0.484,1.601,0.885,2.625,1.198c1.332,0.406,1.932-0.042,2.134-0.762
			c0.341,0.523,0.759,0.978,1.32,1.283c0.992,0.539,2.578,0.022,3.209-0.767c-0.034,0.286-0.019,0.58,0.182,0.819
			c0.388,0.466,1.114,0.126,1.592-0.184c0.175,0.232,0.519,0.257,0.84,0.142c0.602-0.211,1.18-0.598,1.66-1.048
			c0.308,0.518,1.009,0.376,1.653,0.178c2.217-0.675,4.771-1.403,6.751-2.608c-0.031,0.154,0.014,0.315,0.174,0.446
			c0.519,0.414,1.27,0.037,1.781-0.185c0.826-0.364,1.571-0.806,2.249-1.3c0.036,0.615,2.171-0.012,2.556-0.173
			c1.238-0.515,2.342-1.294,3.282-2.191c-0.059,0.151,0.162,0.272,0.326,0.197c0.519-0.231,1.104-0.557,1.607-0.945
			c-0.188,0.654-0.182,1.195,0.396,1.199c0.926,0.006,1.79-0.854,2.381-1.331c0.744-0.597,1.317-1.279,1.777-2.017
			c0.024,0.398,0.302,0.75,0.881,0.519c0.657-0.264,1.023-1.103,1.301-1.639c-0.029,0.266-0.005,0.531,0.122,0.801
			c0.083,0.18,0.351,0.256,0.536,0.114c1.386-1.059,2.55-2.371,3.07-3.843c0.01,0.017,0.013,0.036,0.02,0.053
			c0.165,0.357,0.695,0.42,1.017,0.161c0.806-0.646,0.901-2.023,1.056-2.87c0.071-0.391,0.121-0.782,0.162-1.18
			c0.063,0.065,0.161,0.097,0.284,0.057c2.181-0.721,2.176-3.332,1.794-5.238c0.863,0.044,0.904-1.758,0.922-2.141
			c0.034-0.629-0.001-1.26-0.022-1.891c-0.048-1.111-0.369-1.93-0.807-2.825C78.555,36.447,79.116,36.1,79.171,35.492z
			 M77.943,35.646c-0.042-0.045-0.104-0.048-0.16-0.032c-0.072-0.141-0.142-0.284-0.219-0.432c-0.031-0.068-0.178-0.067-0.168,0.02
			c0.079,0.851,0.465,1.642,0.576,2.495c0.087,0.663,0.097,1.333,0.185,1.994c0.112,0.837,0.479,2.254-0.247,2.991
			c-0.081-0.341-0.169-0.656-0.257-0.914c-0.027-0.076-0.188-0.063-0.178,0.021c0.166,1.113,0.087,2.222-0.054,3.334
			c-0.053,0.43-0.14,0.853-0.259,1.273c-0.088,0.31-0.855,1.432-0.861,1.422c-0.054-0.104-0.271-0.104-0.34-0.009
			c0.05-0.719,0.046-1.438-0.04-2.152c-0.019-0.131-0.259-0.136-0.266,0c-0.08,1.503-0.184,2.969-0.594,4.44
			C75,50.32,74.256,51.96,74.19,51.837c-0.163-0.314-0.22-0.772-0.235-1.236c0.001-0.064,0.013-0.124,0.01-0.186
			c0-0.012-0.009-0.023-0.016-0.036c-0.005-0.384,0.01-0.762,0.003-1.052c-0.003-0.094-0.195-0.123-0.214-0.023
			c-0.107,0.548-0.25,1.195-0.247,1.815c-0.565,1.586-1.476,2.95-2.932,4.146c-0.113-0.999,0.712-2.019,0.249-3.039
			c-0.045-0.096-0.222-0.059-0.193,0.045c0.063,0.255,0.053,0.507,0.002,0.757c-0.047,0.003-0.09,0.015-0.117,0.046
			c-0.72,0.815-1.048,1.846-1.731,2.69c-0.127,0.161-0.273,0.345-0.47,0.456c0.093-0.053,0.035-0.581,0.054-0.742
			c0.023-0.243,0.073-0.481,0.133-0.719c0.022-0.053,0.047-0.101,0.066-0.154c0.018-0.041,0.011-0.078-0.005-0.107
			c0.053-0.208,0.103-0.413,0.136-0.618c0.013-0.083-0.145-0.091-0.173-0.02c-0.068,0.177-0.146,0.354-0.224,0.533
			c-0.052,0.01-0.102,0.031-0.136,0.078c-0.715,0.905-1.292,1.881-2.118,2.735c-0.527,0.544-1.194,1.027-1.838,1.483
			c-0.503,0.354-0.521,0.223-0.48-0.184c0.027-0.274,0.094-0.547,0.165-0.817c0.217-0.249,0.385-0.512,0.47-0.786
			c0.032-0.104-0.098-0.183-0.208-0.151c0.054-0.186,0.105-0.375,0.135-0.563c0.013-0.074-0.139-0.09-0.161-0.017
			c-0.042,0.14-0.249,0.536-0.465,1.005c-0.242,0.248-0.474,0.505-0.738,0.735c-0.342,0.292-0.726,0.548-1.121,0.787
			c0.027-0.099,0.063-0.191,0.109-0.286c0.705-0.772,1.301-1.61,1.758-2.431c0.088-0.155-0.156-0.271-0.281-0.133
			c-1.315,1.421-2.468,2.884-4.126,4.077c-0.407,0.291-3.022,1.856-3.358,1.144c0.908-0.726,1.698-1.549,2.418-2.417
			c0.036-0.043-0.046-0.075-0.082-0.04c-0.947,1.052-1.959,1.913-3.27,2.677c-0.545,0.318-1.123,0.587-1.719,0.84
			c-0.09,0.041-1.473,0.611-1.452,0.265c0.01-0.134,0.014-0.175-0.019-0.283c0.604-0.421,1.144-0.893,1.575-1.436
			c0.113-0.145-0.133-0.275-0.278-0.175c-1.719,1.212-3.354,2.208-5.445,2.979c-1.081,0.403-2.209,0.73-3.321,1.072
			c-1.143,0.353-0.196-1.168-0.223-1.119c0.313-0.599,0.655-1.179,1.018-1.756c0.074-0.125-0.126-0.213-0.224-0.106
			c-0.521,0.539-1.825,1.628-2.112,2.556c-0.291,0.324-0.597,0.633-0.952,0.919c-0.067,0.054-1.013,0.689-1.093,0.49
			c-0.088-0.225,0.04-0.534,0.092-0.759c0.035-0.148-0.212-0.2-0.28-0.059c-0.098,0.193-0.252,0.461-0.292,0.704
			c-0.208,0.072-0.414,0.147-0.628,0.204c-0.44,0.121-0.38-0.201-0.386-0.47c-0.022-0.859,0.123-1.681-0.086-2.533
			c-0.016-0.068-0.162-0.054-0.157,0.017c0.058,0.651-0.127,1.281-0.289,1.914c-0.057-0.02-0.123-0.02-0.174,0.027
			c-0.493,0.431-0.98,0.789-1.704,0.949c-1.071,0.237-1.658-0.784-2.037-1.381c-0.629-0.996-1.269-1.999-2.123-2.886
			c-0.113-0.115-0.314,0.03-0.243,0.149c0.41,0.654,0.719,1.517,1.111,2.333c-0.002,0.19,0.014,0.383,0.014,0.575
			c0,1.296-2.698,0.019-3.131-0.17c-1.441-0.638-2.698-1.701-3.703-2.729c-0.082-0.085-0.243,0.022-0.18,0.109
			c0.693,0.946,1.437,1.742,2.333,2.398c-1.225-0.052-2.398-0.226-3.589-0.548c-1.212-0.33-2.154-1.206-2.967-1.963
			c-0.086-0.082-0.252,0.024-0.181,0.112c0.406,0.514,0.795,0.985,1.277,1.393c-1.943-0.208-3.313-1.128-4.771-2.17
			c-1.128-0.812-1.694-2.14-2.392-3.192c-0.066-0.098-0.267-0.029-0.229,0.078c0.344,0.903,0.621,1.727,1.139,2.464
			c-1.327,0.182-2.299-1.245-2.844-2.021c-0.87-1.239-1.688-2.603-2.218-3.957c-0.034-0.09-0.227-0.076-0.213,0.025
			c0.143,1.058,0.46,2.104,0.966,3.096c-2.441-0.865-3.637-3.658-4.092-5.599c-0.034-0.149-0.287-0.094-0.307,0.038
			c-0.097,0.681,0.044,1.347,0.301,1.988c-0.484-0.487-0.836-0.99-1.078-1.681c-0.301-0.856-0.34-1.736-0.37-2.62
			c-0.005-0.097-0.175-0.117-0.208-0.024c-0.078,0.211-0.14,0.452-0.187,0.71c-0.095-0.015-0.203,0.005-0.248,0.082
			c-0.082,0.131-0.418,0.999-0.649,0.833c-0.672-0.479-0.986-1.242-1.21-1.91c-0.549-1.657-0.02-3.688,0.35-5.33
			c0.021-0.103-0.146-0.14-0.196-0.043c-0.464,0.928-0.862,1.951-1.044,2.983c-0.018,0.005-0.033,0.012-0.047,0.023
			c-0.42,0.31-0.585-0.692-0.61-0.798c-0.207-0.874-0.275-1.633-0.203-2.517c0.133-1.565,0.707-3.054,0.851-4.606
			c0.014-0.137-0.249-0.158-0.29-0.032c-0.314,0.977-0.692,1.938-0.971,2.906c-0.591,0.153-0.324-1.501-0.314-1.786
			c0.035-1.181,0.289-2.4,0.55-3.562c0.016-0.067-0.112-0.125-0.15-0.051c-0.291,0.549-0.545,1.116-0.747,1.695
			c-0.833-0.571-0.04-1.999,0.238-2.664c0.607-1.466,1.341-2.821,2.255-4.182c0.089-0.132-0.146-0.296-0.277-0.167
			c-0.046,0.043-0.108,0.113-0.184,0.203c-0.011,0-0.02-0.008-0.03-0.008c-0.453,0.032-0.82,0.261-1.24,0.392
			c0.064-0.021,0.623-1.685,0.697-1.85c0.386-0.852,1.076-1.698,1.24-2.586c0.146,0.385,0.299,0.769,0.432,1.163
			c0.127,0.382,0.304,0.811,0.571,1.146c0.337,0.42,0.744,0.355,1.088,0.137c-0.1,0.154-0.17,0.325-0.23,0.453
			c-0.178,0.368-0.329,0.795-0.272,1.19c0.05,0.339,0.312,0.665,0.784,0.616c0.235-0.024,0.457-0.154,0.643-0.31
			c-0.768,1.222-0.754,2.719-0.138,3.981c0.123,0.255,0.37,0.43,0.612,0.609c0.45,0.327,0.23,0.517,0.306,0.785
			c-0.073-0.023-0.166,0.039-0.114,0.099c0.736,0.901,2.308,1.099,3.643,0.795c0.018,0.113,0.076,0.226,0.185,0.341
			c0.146,0.155,0.395,0.128,0.488-0.052c1.068-2.075,5.501-1.956,7.698-2.17c0.165-0.017,0.232-0.221,0.04-0.251
			c-0.874-0.146-1.784-0.202-2.695-0.169c-0.205-0.027-0.408-0.057-0.606-0.097c1.173-0.75,2.833-0.923,4.252-1.31
			c0.356,0.197,1.044,0.157,1.354,0.104c0.216-0.039,0.212-0.303,0-0.342c-0.91-0.179-0.135-0.354,0.409-0.45
			c0.625-0.106,1.23-0.194,1.847-0.341c1.221-0.29,4.002-0.62,5.269-0.297c0.121,0.029,0.217-0.104,0.124-0.173
			c-0.225-0.17-0.499-0.268-0.791-0.331c-0.356-0.213-0.87-0.564-0.362-0.612c0.454-0.043,0.932,0.009,1.39,0.028
			c1.354,0.063,2.805,0.133,4.158,0.093c0.06-0.005,0.099-0.032,0.124-0.068c0.159,0.063,0.313,0.131,0.478,0.186
			c0.138,0.047,0.279-0.049,0.207-0.166c-0.271-0.429-0.874-0.666-1.394-0.852c-0.033-0.014-0.071-0.026-0.108-0.041
			c-0.002-0.018-0.002-0.039-0.021-0.059c-0.049-0.06-0.146-0.17-0.242-0.282c1.825,0.368,3.219,1.574,5.049,1.888
			c0.069,0.089,0.209,0.143,0.365,0.074c0.012-0.005,0.021-0.013,0.031-0.015c0.029,0.002,0.054,0.009,0.082,0.01
			c0.094,0.009,0.142-0.057,0.142-0.12c1.535-0.75,2.643-1.999,4.438-2.345c0.059,0.565-0.437,1.119-0.791,1.638
			c-0.334,0.273-0.65,0.555-0.924,0.866c-0.081,0.092,0.085,0.169,0.179,0.111c0.228-0.145,0.458-0.277,0.691-0.412
			c0.057,0,0.108-0.015,0.142-0.058c0.012-0.015,0.027-0.03,0.037-0.046c0.998-0.562,2.045-1.042,3.152-1.48
			c0.677-0.268,1.39-0.462,2.111-0.629c0.264-0.055,0.521-0.111,0.777-0.174c1.136-0.27,0.462,0.439,0.142,0.744
			c-0.854,0.135-1.649,0.375-2.252,0.813c-0.112,0.081,0.007,0.263,0.154,0.213c0.477-0.161,6.482-1.048,7.124-0.2
			c-0.054,0.133-0.1,0.243-0.239,0.354c-0.151,0.118-0.327,0.217-0.521,0.286c-0.233,0.032-0.464,0.065-0.685,0.091
			c-0.137,0.018-0.096,0.183,0.033,0.188c2.026,0.07,4.028-0.117,6.039,0.212c0.613,0.103,1.219,0.203,1.794,0.415
			c0.424,0.153-1.679,0.683-1.783,0.71c-0.094,0.022-0.123,0.097-0.112,0.158c-0.369,0.038-0.726,0.105-1.063,0.213
			c-0.15,0.047-0.095,0.217,0.069,0.194c1.494-0.203,3.011,0.268,4.391,0.679c0.57,0.17,1.137,0.348,1.714,0.509
			c0.047,0.014,1.914,0.85,1.903,1.043c-0.361,0.007-0.714-0.009-1.018-0.033c-0.194-0.014-0.238,0.209-0.085,0.273l-0.012,0.009
			c1.055,0.516,3.009,0.305,3.737-0.553c0.756-0.887,0.722-1.997,0.563-3.029c0.494,0.476,1.125,0.511,1.776-0.145
			c0.473-0.48,0.761-1.116,1.081-1.661c0.544-0.929,1.095-1.856,1.688-2.767c1.078-0.167,1.688-0.903,2.036-1.748
			c0.049-0.009,0.095-0.025,0.131-0.068c0.281-0.318,0.447-0.707,0.533-1.112c0.232,0.866,0.628,1.685,1.01,2.551
			c0.333,0.764,0.684,1.503,0.931,2.292c0.276,0.889-0.121,0.919-0.82,0.369c-0.15-0.118-0.373,0.032-0.282,0.174
			c0.096,0.154,0.219,0.298,0.352,0.425c0.333,0.777,0.671,1.528,0.854,2.348c0.08,0.369,0.099,0.733,0.126,1.106
			C78.591,35.041,78.784,36.504,77.943,35.646z"/>
		<path style="fill:#A7A9AC;" d="M62.334,46.567c-0.021-0.026-0.051-0.044-0.073-0.07c0.464-0.278,0.386-1.008,0.075-1.594
			c-0.295-0.553-0.776-1.083-1.36-1.535c0.342,0.078,0.688,0.123,1.037,0.112c0.769-0.021,1.021-0.611,0.478-1.002
			c-0.031-0.022-0.063-0.032-0.095-0.04c-0.659-0.747-1.902-1.331-2.739-1.863c-0.628-0.399-1.357-0.631-2.125-0.781
			c0.276,0,0.54-0.055,0.792-0.213c0.369-0.23,0.071-0.739-0.257-0.867c-1.908-0.747-4.563-0.527-6.592-0.073
			c0.375-0.42,0.767-1.431,0.149-1.743c-0.419-0.217-0.907,0.009-1.292,0.167c-0.208,0.086-0.401,0.194-0.583,0.316
			c0.105-0.246,0.19-0.489,0.269-0.676c0.214-0.536,0.604-1.528,0.074-2.032c-0.707-0.674-2.073,0.234-2.677,0.544
			c-1.537,0.787-2.655,1.866-3.938,2.851c0.091-0.282,0.146-0.578,0.2-0.84c0.106-0.504,0.246-1.156-0.086-1.627
			c-0.345-0.484-1.139-0.169-1.517,0.098c-0.63,0.438-1.317,1.191-1.527,1.914c-0.272-0.484-0.691-0.919-1.105-1.331
			c-0.357-0.351-0.825-0.974-1.488-0.662c-0.555,0.262-0.698,1.036-0.787,1.487c-0.111,0.572-0.093,1.138-0.029,1.704
			c-0.589-0.494-1.071-1.114-1.912-1.349c-0.125-0.034-0.252,0.039-0.289,0.132c-0.057,0.137-0.067,0.26-0.054,0.377
			c-0.33-0.338-0.685-0.653-1.162-0.825c-0.197-0.073-0.525,0.007-0.494,0.226c0.072,0.499,0.112,0.989,0.203,1.477
			c-0.242-0.236-0.538-0.435-0.845-0.531c-0.565-0.172-1.195,0.248-1.447,0.613c-0.176,0.257-0.277,0.646-0.253,1.01
			c-0.563-0.404-2.317-1.598-2.617-0.738c-0.139,0.397,0.248,0.842,0.562,1.119c0.06,0.05,0.133,0.113,0.213,0.175
			c-2.827-0.352-5.907,0.29-8.582,0.93c-0.773,0.183-1.416,0.42-1.657,1.058c-0.082,0.227,0.032,0.373,0.221,0.465
			c-1.176,0.555-2.167,1.409-2.605,2.292c-0.662,1.341,1.12,0.921,2.406,0.481c-0.531,0.757-0.768,1.883-0.896,2.435
			c-0.101,0.447-0.298,1.987,0.273,2.557c-0.01,0.029-0.013,0.058-0.006,0.088c0.047,0.204,0.298,0.338,0.55,0.325
			c0.279-0.016,0.476-0.184,0.635-0.35c0.153-0.158,0.284-0.362,0.374-0.58c0.387,0.924,1.402,1.721,2.194,2.397
			c0.94,0.801,2.243,1.8,3.733,1.528c0.139-0.024,0.208-0.101,0.223-0.186c0.832,0.612,1.867,1.095,2.759,1.435
			c0.438,0.169,1.452,0.55,1.822,0.082c0.099-0.125,0.142-0.256,0.148-0.392c1.942,1.195,5.44,1.837,6.005,1.025
			c0.727,0.581,1.621,1.025,2.581,1.072c0.973,0.043,1.17-0.649,1.225-1.326c0.14,0.577,0.46,1.084,1.219,0.978
			c0.526-0.073,1.009-0.594,1.33-0.891c0.194-0.176,0.396-0.351,0.594-0.525c0.099,0.395,0.581,0.581,1.038,0.379
			c0.488-0.217,0.826-0.697,1.131-1.053c0.053-0.062,0.095-0.125,0.144-0.187c-0.218,0.627-0.063,1.198,1.108,1.011
			c0.999-0.16,2.134-1.027,2.939-1.464c1-0.543,2.027-1.141,2.939-1.809c-0.146,0.291-0.237,0.599-0.242,0.929
			c-0.003,0.172,0.175,0.284,0.376,0.3c1.066,0.076,2.09-0.64,2.882-1.124c0.83-0.509,1.683-1.141,2.396-1.827
			c-0.134,0.305-0.216,0.622-0.209,0.951c0.001,0.129,0.104,0.232,0.256,0.271c1.664,0.419,2.618-1.685,2.624-2.77
			c0.135,0.14,0.312,0.239,0.543,0.229c0.639-0.034,1.032-0.461,1.226-0.917C62.966,47.786,62.706,47.014,62.334,46.567z
			 M61.693,48.65c-0.251,0.226-0.532-0.296-0.584-0.375c-0.136-0.207-0.526-0.063-0.459,0.155c0.027,0.09,0.071,0.197,0.13,0.305
			c-0.054,0.005-0.105,0.027-0.125,0.084c-0.232,0.649-0.744,2.42-1.863,2.439c0.056-0.712,0.557-1.367,0.848-2.025
			c0.076-0.175-0.233-0.257-0.353-0.119c-0.021,0.026-0.047,0.054-0.066,0.081c-0.076-0.038-0.172-0.045-0.249,0.016
			c-1.007,0.812-1.894,1.676-2.98,2.424c-0.631,0.436-1.647,1.102-2.56,1.237c0.076-0.515,0.347-0.975,0.703-1.419
			c0.138-0.174-0.156-0.325-0.333-0.209c-0.023,0.017-0.04,0.039-0.066,0.057c-0.037-0.008-0.079-0.007-0.12,0.019
			c-1.46,0.893-2.875,1.781-4.428,2.569c-0.528,0.267-1.055,0.526-1.581,0.795c-0.147,0.075-1.157,0.584-1.202,0.145
			c-0.032-0.319,0.248-0.868,0.415-1.153c0.076-0.131-0.138-0.293-0.266-0.164c-0.018,0.019-0.037,0.038-0.055,0.061
			c-0.039-0.1-0.186-0.168-0.293-0.069c-0.521,0.475-0.901,1.033-1.465,1.481c-0.127,0.1-0.261,0.188-0.416,0.255
			c-0.005-0.015-0.01-0.034-0.01-0.066c-0.021-0.48,0.368-0.991,0.479-1.462c0.03-0.134-0.195-0.229-0.286-0.099
			c-0.291,0.42-0.77,0.864-0.902,1.352c-0.538,0.369-1.004,0.803-1.608,1.115c-0.552,0.28-0.696,0.025-0.91-0.406
			c-0.172-0.355-0.298-0.718-0.427-1.083c-0.05-0.147-0.344-0.121-0.336,0.037c0.003,0.099,0.008,0.219,0.015,0.353
			c-0.068,0-0.141,0.027-0.173,0.086c-0.147,0.297-0.184,0.598-0.249,0.907c-0.036,0.189-0.097,0.372-0.197,0.546
			c-0.105,0.184-0.744-0.041-0.881-0.086c-1.307-0.389-2.297-1.085-3.228-1.896c-0.125-0.107-0.321,0.029-0.245,0.154
			c0.219,0.35,0.523,0.713,0.881,1.054c-1.461,0.337-4.399-0.326-5.821-1.358c-0.146-0.24-0.337-0.469-0.493-0.664
			c-0.048-0.063-0.129-0.082-0.204-0.077c-0.045-0.091-0.083-0.179-0.099-0.274c-0.025-0.132-0.275-0.09-0.281,0.033
			c-0.017,0.373,0.183,0.734,0.522,1.072c0.155,0.306,0.229,0.58-0.16,0.508c-0.575-0.104-1.083-0.389-1.618-0.578
			c-1.565-0.554-2.669-1.741-3.473-2.894c-0.066-0.098-0.265-0.053-0.261,0.059c0.015,0.506,0.219,0.971,0.534,1.391
			c0.018,0.217-0.041,0.398-0.246,0.491c-0.924-0.296-1.682-0.91-2.364-1.479c-0.896-0.746-1.81-1.501-2.384-2.438
			c-0.004-0.008-0.015-0.008-0.021-0.012c-0.021-0.114-0.194-0.11-0.235-0.01c-0.028,0.021-0.048,0.052-0.046,0.087
			c0,0.01,0.004,0.019,0.007,0.029c-0.074,0.261-0.27,0.514-0.446,0.73c-0.024,0.035-0.058,0.064-0.086,0.094
			c-1.418-0.871,0.091-4.551,1.166-5.223c0.143-0.091,0.017-0.275-0.14-0.275c-0.246,0.003-0.462,0.071-0.656,0.18
			c-0.421,0.105-0.831,0.251-1.243,0.374c-0.327,0.101-0.669,0.183-1.02,0.208c-0.383,0.027,0.041-0.516,0.158-0.68
			c0.996-1.411,3.188-2.201,5.074-2.484c0.108-0.015,0.104-0.153,0-0.17c-0.83-0.151-1.726-0.039-2.574,0.239
			c-0.063-0.418,0.206-0.636,0.808-0.656c0.274-0.067,0.549-0.13,0.83-0.185c0.799-0.166,1.599-0.337,2.401-0.49
			c1.894-0.366,3.796-0.451,5.732-0.478c0.173,0.059,0.354,0.081,0.522,0.029c0.187-0.055,0.172-0.296-0.047-0.286
			c-0.44,0.016-0.999-0.763-1.141-1.036c-0.015-0.024-0.015-0.036-0.02-0.052c0.052,0.021,0.102,0.045,0.141,0.062
			c0.296,0.119,0.571,0.274,0.842,0.427c0.279,0.162,0.546,0.337,0.826,0.499c0.144,0.086,0.316,0.223,0.508,0.257
			c0.188,0.149,0.457,0.223,0.829,0.169c0.147-0.02,0.133-0.198,0-0.227c-0.756-0.175-0.598-0.999-0.319-1.438
			c0.168-0.264,0.524-0.492,0.887-0.323c0.408,0.192,0.583,0.596,0.998,0.775c0.002,0.002,0.006,0.002,0.013,0.004
			c0.005,0.014,0.006,0.028,0.013,0.043c0.051,0.13,0.307,0.112,0.302-0.034c-0.025-0.594-0.115-1.199-0.107-1.798
			c0.481,0.395,0.773,0.957,1.421,1.177c0.266,0.088,0.494-0.09,0.381-0.306c-0.138-0.26-0.307-0.547-0.303-0.838
			c0.627,0.268,1.077,0.813,1.692,1.104c0.043,0.02,0.081,0.014,0.115-0.002c0.007,0.061,0.012,0.125,0.022,0.188
			c0.025,0.187,0.334,0.187,0.358,0c0.115-0.833,0.177-1.683,0.439-2.495c0.027-0.076,0.27-0.758,0.527-0.568
			c0.251,0.185,0.464,0.428,0.685,0.638c0.449,0.423,0.738,0.897,1.088,1.37c0.09,0.125,0.275,0.117,0.384,0.039
			c0.058,0,0.119-0.017,0.159-0.063c0.48-0.57,0.792-1.202,1.345-1.74c0.215-0.205,0.481-0.434,0.8-0.533
			c0.192-0.058,0.194,0.289,0.202,0.373c0.075,0.819-0.347,1.572-0.45,2.37c0,0.006,0.006,0.01,0.006,0.01
			c-0.031,0.028-0.063,0.051-0.096,0.074c-0.08,0.054,0.022,0.154,0.109,0.114c0.031-0.018,0.061-0.038,0.094-0.051
			c0.087,0.042,0.206,0.051,0.274-0.021c0.062-0.063,0.102-0.137,0.148-0.208c0.932-0.513,1.719-1.134,2.584-1.733
			c0.593-0.414,1.239-0.778,1.896-1.125c0.422-0.223,1.228-0.771,1.787-0.7c0.842,0.109-0.972,3.059-1.033,3.387
			c-0.008,0.036-0.004,0.074,0.011,0.103c-0.021,0.024-0.046,0.046-0.068,0.067c-0.098,0.093,0.028,0.259,0.175,0.182
			c0.429-0.229,0.829-0.481,1.228-0.741c0.291-0.188,1.006-0.655,1.414-0.596c0.075,0.012-0.246,1.075-0.231,1.238
			c0.007,0.05,0.045,0.093,0.09,0.127c-0.024,0.006-0.053,0.014-0.076,0.019c-0.173,0.044-0.142,0.25,0.042,0.257
			c1.376,0.02,2.737-0.134,4.115-0.108c0.325,0.005,3.127,0.308,1.766,0.595c-0.109,0.025-0.139,0.128-0.094,0.195
			c-0.404-0.059-0.813-0.101-1.216-0.142c-0.205-0.023-0.244,0.248-0.049,0.282c2.596,0.443,4.643,1.598,6.487,3.084
			c-0.351,0.119-1.557-0.159-1.722-0.199c-0.41-0.1-0.816-0.215-1.227-0.324c-0.282-0.096-0.572-0.163-0.865-0.213
			c-0.016-0.002-0.031-0.009-0.051-0.011c-0.007-0.003-0.01,0.002-0.017,0.002c-0.12-0.021-0.238-0.048-0.358-0.058
			c-0.229-0.018-0.26,0.265-0.052,0.313c1.35,0.314,2.591,1.092,3.401,2.007c0.246,0.28,0.446,0.587,0.63,0.897
			c0.229,0.385,0.321,0.702,0.066,0.86c-0.368-0.252-0.817-0.423-1.295-0.51c-0.168-0.029-0.29,0.17-0.121,0.234
			c0.269,0.102,0.489,0.241,0.69,0.395c-0.105,0.047-0.102,0.188,0.024,0.224c0.102,0.027,0.195,0.047,0.282,0.062
			c0.185,0.203,0.336,0.432,0.438,0.686c0.097,0.243,0.099,0.537,0.096,0.792C61.993,48.286,61.891,48.482,61.693,48.65z"/>
		<g style="opacity:0.5;">
			<path style="fill:#A7A9AC;" d="M79.171,35.492c0.104-1.148-0.163-2.615-0.815-3.733c0.341,0.047,0.639-0.129,0.73-0.687
				c0.364-2.201-1.706-4.636-2.545-6.641c-0.019-0.046-0.063-0.067-0.114-0.082c-0.009-0.059-0.018-0.118-0.028-0.176
				c-0.021-0.098-0.204-0.069-0.207,0.021c-0.01,0.276-0.069,0.546-0.151,0.811c-0.042,0.001-0.082,0.017-0.094,0.053
				c-0.315,1.01-0.941,2.377-2.125,2.988c-0.057-0.025-0.133-0.02-0.183,0.034c-0.023,0.023-0.044,0.054-0.065,0.078
				c-0.166,0.065-0.34,0.121-0.525,0.154c-0.139,0.028-0.1,0.187,0.032,0.19c0.074,0.004,0.141-0.001,0.209-0.002
				c-0.654,0.806-1.181,1.664-1.713,2.529c-0.42,0.685-1.372,2.742-2.523,1.466c-0.104-0.117-0.315-0.019-0.239,0.11
				c0.036,0.058,0.071,0.1,0.107,0.153c-0.13,0.844-0.05,1.709-0.383,2.528c-0.271,0.666-1.044,0.937-1.877,1.033
				c-0.211-0.429-1.17-1.072-1.475-1.216c-1.344-0.623-3.226-1.27-4.988-1.389c1.033-0.187,2.153-0.591,1.069-1.282
				c-1.755-1.12-4.431-0.893-6.681-0.6c0.073-0.062,0.138-0.134,0.183-0.21c0.051-0.01,0.1-0.032,0.137-0.071
				c0.837-0.89-1.517-1.155-2.112-1.181c-0.787-0.033-1.69-0.05-2.577,0.023c0.309-0.231,0.539-0.513,0.427-0.842
				c-0.217-0.63-0.957-0.595-1.608-0.482c-1.714,0.298-3.467,0.902-4.913,1.783c0.259-0.411,0.421-0.847,0.307-1.291
				c-0.023-0.099-0.167-0.189-0.295-0.18c-2.132,0.177-3.514,1.667-5.163,2.602c-1.818-0.877-3.595-2.407-5.839-2.123
				c-0.154,0.021-0.273,0.194-0.217,0.309c0.072,0.144,0.158,0.255,0.257,0.348c-0.309-0.063-0.617-0.09-0.874-0.015
				c-0.196,0.057-0.306,0.319-0.065,0.402c0.065,0.023,0.137,0.039,0.208,0.059c-0.411-0.031-0.822-0.052-1.229-0.069
				c-0.871-0.041-1.799-0.155-2.653,0.017c-0.542,0.109-0.794,0.557-0.6,0.95c0.054,0.108,0.141,0.196,0.248,0.273
				c-0.276,0.008-0.547,0.025-0.797,0.033c-1.589,0.043-2.981,0.283-4.534,0.525c-0.688,0.11-1.707,0.273-1.759,0.957
				c-0.027,0.004-0.057,0.006-0.084,0.01c0.945-0.019,1.903,0.064,2.834,0.184c1.081-0.472,2.559-0.51,3.737-0.495
				c1.169,0.014,2.407,0.056,3.629,0.177c-0.011-0.02-0.025-0.037-0.035-0.06c-0.231-0.471,0.362-1.067,0.975-1.025
				c0.778,0.053,1.511,0.19,2.219,0.378c0.334-0.12,0.742-0.111,1.091,0.133c0.17,0.116,0.328,0.234,0.481,0.355
				c0.106,0.038,0.212,0.077,0.316,0.115c-0.146-0.101-0.29-0.205-0.42-0.322c-0.866-0.772,0.491-1.884,1.428-1.148
				c0.186,0.148,0.388,0.279,0.584,0.416c0.39,0.229,0.831,0.397,1.282,0.546c0.452-0.575,1.114-1.041,1.877-1.36
				c0.798-0.332,1.53,0.237,1.524,0.777c1.06-0.502,2.202-0.9,3.327-1.321c0.909-0.336,1.725,0.425,1.501,0.989
				c1.465-0.566,3.248-0.785,4.651-0.736c0.791,0.026,1.1,0.644,0.925,1.106c1.581-0.152,3.291,0.078,4.758,0.281
				c0.753,0.106,0.873,0.682,0.593,1.107c1.19,0.11,2.371,0.349,3.472,0.612c0.832,0.203,0.863,0.964,0.423,1.359
				c0.688,0.153,1.356,0.359,1.993,0.605c0.233,0.021,0.415,0.101,0.541,0.221c0.015,0.003,0.029,0.01,0.042,0.015
				c0.166,0.022,0.334,0.04,0.499,0.063c0.426,0.064,0.641,0.279,0.701,0.533c1.071,0.27,2.473,0.72,3.48,1.285
				c-0.249-0.278-0.498-0.558-0.764-0.825c-0.343-0.345-0.422-0.805,0-1.146c0.246-0.194,0.668-0.282,1.021-0.204
				c0.277-0.032,0.587,0.02,0.859,0.204c1.222,0.826,1.796,1.982,2.29,3.167c0.38,0.903-1.248,1.374-1.846,0.625
				c-0.083-0.107-0.177-0.212-0.263-0.318c-0.015,0.168-0.078,0.34-0.211,0.516c-0.887,1.156-2.716,0.761-3.977,0.289
				c-0.365-0.137-0.733-0.312-1.105-0.486c1.753,1.196,3.084,2.717,3.565,4.628c0.142,0.562-0.32,0.966-0.907,0.999
				c0.047,0.27,0.062,0.554,0.041,0.846c-0.017,0.188-0.096,0.351-0.219,0.481c0.135,0.63,0.086,1.298-0.043,1.909
				c-0.099,0.458-0.542,0.625-0.983,0.575c0,0.067,0.003,0.136,0.003,0.203c0.007,1.045-2.001,1.045-2.019,0
				c-0.01-0.427-0.044-0.856-0.068-1.288c-0.11-1-0.401-1.952-1.149-2.829c-0.739-0.865,1.014-1.676,1.744-0.819
				c0.114,0.135,0.212,0.271,0.309,0.408c0.026-0.009,0.057-0.012,0.083-0.017c-0.174-0.319-0.407-0.615-0.694-0.887
				c-0.783-0.545-1.543-1.12-2.433-1.565c-1.104-0.55-0.095-1.948,1.019-1.399c0.525,0.259,1.048,0.544,1.54,0.858
				c-1.045-0.972-2.415-1.731-3.912-2.355c-0.593-0.247-0.612-0.729-0.34-1.084c-0.266-0.081-0.529-0.172-0.788-0.277
				c-0.457-0.18-0.596-0.67-0.411-1.037c-1.288-0.132-2.579-0.262-3.862-0.419c-0.658-0.082-0.84-0.62-0.65-1.05
				c-0.537-0.092-1.076-0.189-1.607-0.308c-0.593-0.134-0.853-0.664-0.666-1.076c-0.831,0.023-1.653,0.008-2.493-0.103
				c-0.511-0.064-0.712-0.365-0.708-0.691c-1.212,0.416-2.417,0.857-3.721,1.055c-0.686,0.104-1.53-0.368-1.241-0.998
				c0.069-0.158,0.162-0.305,0.263-0.447c-1.146,0.489-2.252,1.047-3.536,1.264c-0.448,0.076-0.858-0.096-1.092-0.355
				c-0.288,0.421-0.947,0.454-1.401,0.229c-0.151,0.048-0.312,0.062-0.472,0.048c-0.062,0.464-0.676,0.927-1.382,0.764
				c-0.18,0.257-0.522,0.445-0.888,0.432c-0.459-0.02-0.95-0.085-1.443-0.198c-0.179,0.057-0.391,0.061-0.63-0.011
				c-0.99-0.299-2.064-0.469-3.139-0.582c0.834,0.384,0.703,1.606-0.43,1.516c-0.867-0.07-1.926-0.282-2.832-0.137
				c0.772,0.066,1.55,0.198,2.311,0.354c1.261,0.26,0.726,1.824-0.538,1.563c-1.275-0.264-2.743-0.539-4.03-0.272
				c0.153,0.398-0.005,0.896-0.622,1.088c-2.738,0.843-6.546,0.856-8.98,2.337c0.018,0.07,0.025,0.146,0.018,0.23
				c-0.011,0.097-0.028,0.193-0.041,0.289c0.282-0.167,0.577-0.318,0.891-0.445c1.157-0.468,2.185,0.93,1.019,1.403
				c-1.473,0.593-2.729,1.843-2.885,3.191c-0.005,0.037-0.017,0.074-0.024,0.108c0.322,0.045,0.631,0.223,0.79,0.471
				c0.424,0.103,0.803,0.402,0.813,0.781c0.036,1.264,0.493,2.745,0.198,4.05c0.04-0.031,0.068-0.065,0.107-0.095
				c0.595-0.446,1.374-0.169,1.646,0.279c0.155,0.063,0.294,0.173,0.394,0.336c0.401,0.655,0.802,1.373,0.95,2.108
				c0.178-0.252,0.523-0.426,0.887-0.426c0.545,0,0.942,0.334,1.002,0.752c0.007,0.025,0.014,0.056,0.027,0.084
				c0.003,0.011,0.004,0.017,0.007,0.022c0.002,0.003,0.002,0.003,0.005,0.004l0.002,0.004c0.333,0.065,0.616,0.233,0.721,0.544
				c0.134,0.389-0.161,0.929-0.706,0.997c-0.697,0.087-1.235-0.111-1.64-0.569c-0.119-0.136-0.212-0.286-0.281-0.445
				c-0.02,0.119-0.041,0.24-0.081,0.358c-0.178,0.54-0.905,0.7-1.484,0.484c-1.362-0.513-2.38-1.817-2.306-3.025
				c-0.324,0.303-0.843,0.445-1.306,0.218c-1.918-0.946-1.888-3.438-1.272-5.282c-0.058,0.045-0.112,0.085-0.19,0.12
				c-0.102,0.043-0.199,0.084-0.304,0.123c-0.369,0.396-0.757,0.773-1.184,1.108c-0.359,0.278-1.087,0.352-1.427,0
				c-0.448-0.454-0.706-0.958-0.843-1.481c-0.099,0.054-0.199,0.108-0.306,0.159c-0.609,0.287-1.25-0.005-1.483-0.485
				c-0.791-1.618,0.12-3.657,1.093-5.14c-0.272,0.199-0.554,0.384-0.85,0.553c-0.531,0.299-1.339-0.003-1.484-0.484
				c-0.167-0.553-0.072-1.264,0.23-1.923c-0.036,0.015-0.067,0.038-0.1,0.052c-0.888,0.381-1.898-0.385-1.385-1.108
				c0.249-0.351,0.521-0.693,0.841-0.99c0.085-0.258,0.292-0.477,0.668-0.56c0.063-0.014,0.133-0.022,0.203-0.023
				c0.347-0.156,0.734-0.264,1.191-0.278c0.552-0.015,1.011,0.382,1.011,0.813c0,0.075-0.015,0.141-0.039,0.208
				c0.063-0.001,0.123-0.009,0.178-0.005c0.301-0.093,0.626-0.138,0.995-0.108c0.59,0.042,1.234,0.489,0.977,1.025
				c-0.11,0.224-0.238,0.44-0.376,0.658c0.406-0.303,0.844-0.578,1.307-0.823c-0.13-0.285-0.059-0.637,0.201-0.896
				c1.475-1.464,3.904-2.123,6.437-2.422c-0.436-0.098-0.858-0.222-1.268-0.381c-0.693-0.271-0.622-1.109,0-1.399
				c0.072-0.032,0.148-0.061,0.22-0.09c-0.703,0.228-1.335,0.529-1.798,0.949c-0.13,0.116-0.156,0.286-0.07,0.418
				c-0.549,0.1-1.084,0.233-1.598,0.411c-0.42,0.144-1.335,0.493-1.888,0.935c-0.615,0.195-1.292,0.365-1.941,0.408
				c0.001-0.067-0.036-0.127-0.145-0.142c-0.73-0.102-2.053-1.875-2.295-2.53c-0.4-1.066-0.439-2.386,0.053-3.433
				c0.036-0.075-0.037-0.12-0.116-0.127c0.023-0.032,0.047-0.063,0.066-0.092c0.039-0.053-0.024-0.131-0.103-0.109
				c-0.279,0.08-0.513,0.226-0.817,0.252c-0.223,0.02-0.144-0.429-0.133-0.558c0.036-0.479,0.355-0.92,0.396-1.391
				c0.009-0.098-0.126-0.137-0.222-0.108c0.07-0.085,0.134-0.168,0.181-0.246c0.075-0.121-0.13-0.215-0.229-0.104
				c-0.287,0.324-0.82,0.758-1.096,0.19c-0.107-0.219-0.19-0.45-0.292-0.669c-0.285-0.632-0.648-1.318-1.073-1.902
				c-0.015-0.1-0.023-0.199-0.06-0.299c-0.019-0.056-0.135-0.064-0.146,0c-0.18,0.976-0.957,1.812-1.403,2.716
				c-0.401,0.817-0.886,1.687-1.084,2.556c-0.195,0.857,0.807,0.656,1.535,0.354c-1.449,1.903-4.233,6.268-1.667,6.574
				c-0.313,1.033-0.451,2.097-0.286,3.159c0.104,0.663,0.51,0.887,0.92,0.737c-0.27,1.11-0.376,2.234-0.076,3.409
				c0.141,0.559,0.655,2.012,1.419,1.658c-0.114,1.324,0.184,2.629,1.224,3.735c0.835,0.882,1.429,0.686,1.764,0.064
				c-0.006,1.54,0.578,3.255,2.325,3.647c0.053,0.014,0.101,0.012,0.146,0.004c0.246,0.418,0.52,0.823,0.792,1.218
				c0.605,0.87,1.57,2.044,2.996,1.761c0.013-0.004,0.018-0.01,0.028-0.015c0.318,0.54,0.694,1.06,1.143,1.543
				c0.632,0.678,2.02,1.905,3.132,1.14c0.298,0.361,0.658,0.705,1.139,1.022c1.501,0.989,3.156,1.795,5.158,1.722
				c0.287,0.212,0.607,0.404,0.982,0.569c1.315,0.577,3.11,0.581,4.626,0.512c0.748,0.484,1.601,0.885,2.625,1.198
				c1.332,0.406,1.932-0.042,2.134-0.762c0.341,0.523,0.759,0.978,1.32,1.283c0.992,0.539,2.578,0.022,3.209-0.767
				c-0.034,0.286-0.019,0.58,0.182,0.819c0.388,0.466,1.114,0.126,1.592-0.184c0.175,0.232,0.519,0.257,0.84,0.142
				c0.602-0.211,1.18-0.598,1.66-1.048c0.308,0.518,1.009,0.376,1.653,0.178c2.217-0.675,4.771-1.403,6.751-2.608
				c-0.031,0.154,0.014,0.315,0.174,0.446c0.519,0.414,1.27,0.037,1.781-0.185c0.826-0.364,1.571-0.806,2.249-1.3
				c0.036,0.615,2.171-0.012,2.556-0.173c1.238-0.515,2.342-1.294,3.282-2.191c-0.059,0.151,0.162,0.272,0.326,0.197
				c0.519-0.231,1.104-0.557,1.607-0.945c-0.188,0.654-0.182,1.195,0.396,1.199c0.926,0.006,1.79-0.854,2.381-1.331
				c0.744-0.597,1.317-1.279,1.777-2.017c0.024,0.398,0.302,0.75,0.881,0.519c0.657-0.264,1.023-1.103,1.301-1.639
				c-0.029,0.266-0.005,0.531,0.122,0.801c0.083,0.18,0.351,0.256,0.536,0.114c1.386-1.059,2.55-2.371,3.07-3.843
				c0.01,0.017,0.013,0.036,0.02,0.053c0.165,0.357,0.695,0.42,1.017,0.161c0.806-0.646,0.901-2.023,1.056-2.87
				c0.071-0.391,0.121-0.782,0.162-1.18c0.063,0.065,0.161,0.097,0.284,0.057c2.181-0.721,2.176-3.332,1.794-5.238
				c0.863,0.044,0.904-1.758,0.922-2.141c0.034-0.629-0.001-1.26-0.022-1.891c-0.048-1.111-0.369-1.93-0.807-2.825
				C78.555,36.447,79.116,36.1,79.171,35.492z M4.976,37.957c-0.523,0-1.042-0.368-1.009-0.811c0.034-0.447,0.255-0.792,0.634-1.115
				c0.377-0.323,1.05-0.305,1.429,0c0.397,0.318,0.376,0.824,0,1.145c-0.024,0.023-0.043,0.034-0.055,0.047
				C5.904,37.627,5.52,37.957,4.976,37.957z M26.15,57.829c-0.137,0.399-0.729,0.723-1.242,0.565
				c-0.693-0.206-1.122-0.553-1.384-1.108c-0.191-0.415,0.211-0.889,0.708-0.998c0.545-0.121,1.011,0.136,1.217,0.525h0.003
				c0,0-0.002-0.004,0.002,0c0.032,0.009,0.101,0.048,0.018,0.024l0,0c0.004,0.002,0.004,0.002,0.007,0.006
				C25.975,57.007,26.304,57.384,26.15,57.829z M54.712,55.487c-0.095,0.103-0.191,0.204-0.289,0.306
				c-0.305,0.595-0.894,1.044-1.404,1.598c-0.491,0.53-1.327,0.429-1.695,0.034c-0.651,0.04-1.146-0.491-1.06-0.967
				c-1.052,1.406-2.813,3.373-5.111,3.236c-0.594-0.034-1.233-0.503-0.975-1.026c0.019-0.044,0.046-0.084,0.067-0.125
				c-0.178-0.335-0.108-0.753,0.396-0.994c0.722-0.343,1.34-0.761,1.938-1.232c0.465-0.359,1.046-0.262,1.403,0.018
				c0.228-0.272,0.421-0.541,0.584-0.76c0.593-0.803,2.046-0.234,1.873,0.538c0.075-0.073,0.172-0.14,0.293-0.193
				c0.697-0.314,1.336-0.664,1.93-1.075c0.146-0.347,0.548-0.528,0.952-0.544C54.394,54.185,55.277,54.864,54.712,55.487z
				 M58.407,55.33c-0.434,0.569-1.007,1.256-1.8,1.535c-0.597,0.21-1.284,0.061-1.483-0.483c-0.446-1.216,0.634-2.197,1.817-2.818
				c0.06-0.031,0.118-0.055,0.174-0.073c0.037-0.808,1.662-1.077,1.988-0.166C59.343,53.994,58.833,54.774,58.407,55.33z
				 M58.792,51.259c0.056-0.712,0.557-1.367,0.848-2.025c0.076-0.175-0.233-0.257-0.353-0.119c-0.021,0.026-0.047,0.054-0.066,0.081
				c-0.076-0.038-0.172-0.045-0.249,0.016c-1.007,0.812-1.894,1.676-2.98,2.424c-0.631,0.436-1.647,1.102-2.56,1.237
				c0.076-0.515,0.347-0.975,0.703-1.419c0.138-0.174-0.156-0.325-0.333-0.209c-0.023,0.017-0.04,0.039-0.066,0.057
				c-0.037-0.008-0.079-0.007-0.12,0.019c-1.46,0.893-2.875,1.781-4.428,2.569c-0.528,0.267-1.055,0.526-1.581,0.795
				c-0.147,0.075-1.157,0.584-1.202,0.145c-0.032-0.319,0.248-0.868,0.415-1.153c0.076-0.131-0.138-0.293-0.266-0.164
				c-0.018,0.019-0.037,0.038-0.055,0.061c-0.039-0.1-0.186-0.168-0.293-0.069c-0.521,0.475-0.901,1.033-1.465,1.481
				c-0.127,0.1-0.261,0.188-0.416,0.255c-0.005-0.015-0.01-0.034-0.01-0.066c-0.021-0.48,0.368-0.991,0.479-1.462
				c0.03-0.134-0.195-0.229-0.286-0.099c-0.291,0.42-0.77,0.864-0.902,1.352c-0.538,0.369-1.004,0.803-1.608,1.115
				c-0.552,0.28-0.696,0.025-0.91-0.406c-0.172-0.355-0.298-0.718-0.427-1.083c-0.05-0.147-0.344-0.121-0.336,0.037
				c0.003,0.099,0.008,0.219,0.015,0.353c-0.068,0-0.141,0.027-0.173,0.086c-0.147,0.297-0.184,0.598-0.249,0.907
				c-0.036,0.189-0.097,0.372-0.197,0.546c-0.105,0.184-0.744-0.041-0.881-0.086c-1.307-0.389-2.297-1.085-3.228-1.896
				c-0.125-0.107-0.321,0.029-0.245,0.154c0.219,0.35,0.523,0.713,0.881,1.054c-1.461,0.337-4.399-0.326-5.821-1.358
				c-0.146-0.24-0.337-0.469-0.493-0.664c-0.048-0.063-0.129-0.082-0.204-0.077c-0.045-0.091-0.083-0.179-0.099-0.274
				c-0.025-0.132-0.275-0.09-0.281,0.033c-0.017,0.373,0.183,0.734,0.522,1.072c0.155,0.306,0.229,0.58-0.16,0.508
				c-0.575-0.104-1.083-0.389-1.618-0.578c-1.565-0.554-2.669-1.741-3.473-2.894c-0.066-0.098-0.265-0.053-0.261,0.059
				c0.015,0.506,0.219,0.971,0.534,1.391c0.018,0.217-0.041,0.398-0.246,0.491c-0.924-0.296-1.682-0.91-2.364-1.479
				c-0.896-0.746-1.81-1.501-2.384-2.438c-0.004-0.008-0.015-0.008-0.021-0.012c-0.021-0.114-0.194-0.11-0.235-0.01
				c-0.028,0.021-0.048,0.052-0.046,0.087c0,0.01,0.004,0.019,0.007,0.029c-0.074,0.261-0.27,0.514-0.446,0.73
				c-0.024,0.035-0.058,0.064-0.086,0.094c-1.418-0.871,0.091-4.551,1.166-5.223c0.143-0.091,0.017-0.275-0.14-0.275
				c-0.246,0.003-0.462,0.071-0.656,0.18c-0.421,0.105-0.831,0.251-1.243,0.374c-0.327,0.101-0.669,0.183-1.02,0.208
				c-0.383,0.027,0.041-0.516,0.158-0.68c0.996-1.411,3.188-2.201,5.074-2.484c0.108-0.015,0.104-0.153,0-0.17
				c-0.83-0.151-1.726-0.039-2.574,0.239c-0.063-0.418,0.206-0.636,0.808-0.656c0.274-0.067,0.549-0.13,0.83-0.185
				c0.799-0.166,1.599-0.337,2.401-0.49c1.894-0.366,3.796-0.451,5.732-0.478c0.173,0.059,0.354,0.081,0.522,0.029
				c0.187-0.055,0.172-0.296-0.047-0.286c-0.44,0.016-0.999-0.763-1.141-1.036c-0.015-0.024-0.015-0.036-0.02-0.052
				c0.052,0.021,0.102,0.045,0.141,0.062c0.296,0.119,0.571,0.274,0.842,0.427c0.279,0.162,0.546,0.337,0.826,0.499
				c0.144,0.086,0.316,0.223,0.508,0.257c0.188,0.149,0.457,0.223,0.829,0.169c0.147-0.02,0.133-0.198,0-0.227
				c-0.756-0.175-0.598-0.999-0.319-1.438c0.168-0.264,0.524-0.492,0.887-0.323c0.408,0.192,0.583,0.596,0.998,0.775
				c0.002,0.002,0.006,0.002,0.013,0.004c0.005,0.014,0.006,0.028,0.013,0.043c0.051,0.13,0.307,0.112,0.302-0.034
				c-0.025-0.594-0.115-1.199-0.107-1.798c0.481,0.395,0.773,0.957,1.421,1.177c0.266,0.088,0.494-0.09,0.381-0.306
				c-0.138-0.26-0.307-0.547-0.303-0.838c0.627,0.268,1.077,0.813,1.692,1.104c0.043,0.02,0.081,0.014,0.115-0.002
				c0.007,0.061,0.012,0.125,0.022,0.188c0.025,0.187,0.334,0.187,0.358,0c0.115-0.833,0.177-1.683,0.439-2.495
				c0.027-0.076,0.27-0.758,0.527-0.568c0.251,0.185,0.464,0.428,0.685,0.638c0.449,0.423,0.738,0.897,1.088,1.37
				c0.09,0.125,0.275,0.117,0.384,0.039c0.058,0,0.119-0.017,0.159-0.063c0.48-0.57,0.792-1.202,1.345-1.74
				c0.215-0.205,0.481-0.434,0.8-0.533c0.192-0.058,0.194,0.289,0.202,0.373c0.075,0.819-0.347,1.572-0.45,2.37
				c0,0.006,0.006,0.01,0.006,0.01c-0.031,0.028-0.063,0.051-0.096,0.074c-0.08,0.054,0.022,0.154,0.109,0.114
				c0.031-0.018,0.061-0.038,0.094-0.051c0.087,0.042,0.206,0.051,0.274-0.021c0.062-0.063,0.102-0.137,0.148-0.208
				c0.932-0.513,1.719-1.134,2.584-1.733c0.593-0.414,1.239-0.778,1.896-1.125c0.422-0.223,1.228-0.771,1.787-0.7
				c0.842,0.109-0.972,3.059-1.033,3.387c-0.008,0.036-0.004,0.074,0.011,0.103c-0.021,0.024-0.046,0.046-0.068,0.067
				c-0.098,0.093,0.028,0.259,0.175,0.182c0.429-0.229,0.829-0.481,1.228-0.741c0.291-0.188,1.006-0.655,1.414-0.596
				c0.075,0.012-0.246,1.075-0.231,1.238c0.007,0.05,0.045,0.093,0.09,0.127c-0.024,0.006-0.053,0.014-0.076,0.019
				c-0.173,0.044-0.142,0.25,0.042,0.257c1.376,0.02,2.737-0.134,4.115-0.108c0.325,0.005,3.127,0.308,1.766,0.595
				c-0.109,0.025-0.139,0.128-0.094,0.195c-0.404-0.059-0.813-0.101-1.216-0.142c-0.205-0.023-0.244,0.248-0.049,0.282
				c2.596,0.443,4.643,1.598,6.487,3.084c-0.351,0.119-1.557-0.159-1.722-0.199c-0.41-0.1-0.816-0.215-1.227-0.324
				c-0.282-0.096-0.572-0.163-0.865-0.213c-0.016-0.002-0.031-0.009-0.051-0.011c-0.007-0.003-0.01,0.002-0.017,0.002
				c-0.12-0.021-0.238-0.048-0.358-0.058c-0.229-0.018-0.26,0.265-0.052,0.313c1.35,0.314,2.591,1.092,3.401,2.007
				c0.246,0.28,0.446,0.587,0.63,0.897c0.229,0.385,0.321,0.702,0.066,0.86c-0.368-0.252-0.817-0.423-1.295-0.51
				c-0.168-0.029-0.29,0.17-0.121,0.234c0.269,0.102,0.489,0.241,0.69,0.395c-0.105,0.047-0.102,0.188,0.024,0.224
				c0.102,0.027,0.195,0.047,0.282,0.062c0.185,0.203,0.336,0.432,0.438,0.686c0.097,0.243,0.099,0.537,0.096,0.792
				c-0.012,0.223-0.114,0.419-0.312,0.587c-0.251,0.226-0.532-0.296-0.584-0.375c-0.136-0.207-0.526-0.063-0.459,0.155
				c0.027,0.09,0.071,0.197,0.13,0.305c-0.054,0.005-0.105,0.027-0.125,0.084C60.423,49.469,59.911,51.239,58.792,51.259z
				 M63.975,52.571c-0.504,0.973-1.103,2.104-2.288,2.663c-0.72,0.34-1.438-0.112-1.521-0.699c-0.226-1.58,0.436-3.639,2.419-4.324
				c0.038-0.012,0.081-0.016,0.12-0.028c-0.004-0.048-0.008-0.102-0.021-0.143c-0.344-1.01,1.604-1.438,1.947-0.428
				C64.948,50.546,64.413,51.717,63.975,52.571z M72.638,36.797c-0.071-0.036-0.146-0.077-0.218-0.116
				c-0.216-0.015-0.42-0.087-0.559-0.229c-0.083-0.079-0.158-0.164-0.239-0.247c-0.494-0.341-0.938-0.731-1.276-1.185
				c-0.28-0.379-0.108-0.887,0.363-1.108c0.242-0.116,0.498-0.124,0.739-0.071c0.104-0.081,0.236-0.148,0.406-0.192
				c0.308-0.076,0.58-0.083,0.822-0.045c-0.021-0.046-0.048-0.086-0.063-0.135c-0.114-0.433,0.153-0.876,0.706-0.996
				c0.466-0.103,1.024,0.101,1.2,0.468c0.078,0.066,0.154,0.13,0.234,0.192c0.389,0.313,0.389,0.835,0,1.146
				c-0.231,0.185-0.55,0.249-0.858,0.213c0.331,0.554,0.47,1.242,0.478,1.751C74.385,37.045,73.199,37.228,72.638,36.797z
				 M71.435,47.622c-1.675,0.316-2.142-1.21-2.182-2.221c-0.018-0.532-0.061-1.293,0.096-1.96c-0.002-0.003-0.005-0.009-0.006-0.012
				c-0.231-0.553-0.261-0.916,0.103-1.439c0.265-0.383,0.915-0.515,1.382-0.292c1.252,0.603,1.617,2.015,1.773,3.087
				C72.722,45.634,72.84,47.358,71.435,47.622z M73.971,43.452c-0.473,0.106-0.866-0.077-1.142-0.372
				c-0.209-0.229-0.385-0.459-0.545-0.697c-0.051-0.055-0.098-0.107-0.131-0.175c0.027,0.054,0.041,0.077-0.003-0.001
				c0,0,0,0,0.003,0.001c-0.059-0.105-0.189-0.345-0.114-0.214c0.006,0,0.009-0.004,0.013-0.004c-0.036-0.065-0.08-0.125-0.115-0.19
				c-0.208-0.409,0.222-0.89,0.707-0.996c0.368-0.083,0.842,0.03,1.067,0.296c0.289,0.089,0.521,0.286,0.627,0.542
				c0.113,0.271,0.226,0.542,0.337,0.814C74.851,42.875,74.479,43.34,73.971,43.452z M75.003,40.11
				c-0.45,0.212-1.143,0.105-1.383-0.289c-0.166-0.272-0.397-0.63-0.363-0.949c0.044-0.439,0.439-0.842,1.034-0.834
				c0.37,0.006,0.653,0.147,0.916,0.348c0.281,0.216,0.352,0.542,0.235,0.826C75.545,39.557,75.417,39.914,75.003,40.11z"/>
		</g>
		<path style="fill:#A7A9AC;" d="M27.433,34.828c-0.624-0.021-1.348-0.13-2.06-0.161c-0.284-0.046-0.575-0.083-0.869-0.098
			c-0.715-0.037-1.726-0.028-2.034,0.576c-0.07,0.143,0.041,0.361,0.215,0.422c0.032,0.013,0.064,0.018,0.096,0.023
			c0.019,0.081,0.067,0.152,0.173,0.189c0.014,0.007,0.028,0.013,0.043,0.015c-1.033-0.142-2.071-0.253-3.123-0.29
			c-1.191-0.044-1.422,1.2-0.684,1.664c-1.715-0.109-3.531,0.123-4.557,1.117c-0.353,0.337-0.347,0.854,0.174,1.093
			c1.286,0.588,2.784,0.158,4.116-0.247c0.317-0.027,0.611-0.111,0.942-0.287c0.278-0.148,0.4-0.372,0.402-0.593
			c0.518-0.002,1-0.015,1.401-0.075c0.413-0.061,0.346-0.521,0-0.613c-0.336-0.088-0.707-0.166-1.098-0.231
			c1.965-0.02,3.911,0.008,5.848-0.307c0.413-0.068,0.403-0.589,0-0.662c-0.319-0.06-0.639-0.115-0.955-0.17
			c0.01-0.052,0.008-0.104-0.006-0.152c0.17-0.005,0.34-0.009,0.508-0.012c0.178-0.006,0.265-0.206,0.094-0.279
			c-0.497-0.208-1.053-0.226-1.602-0.272c0.018,0,0.031-0.005,0.046-0.005c0.724-0.036,1.478,0.036,2.147,0.258
			c0.346,0.111,0.557-0.212,0.441-0.436c0.113,0.003,0.229,0.005,0.34,0.005C27.818,35.3,27.813,34.839,27.433,34.828z"/>
		<path style="fill:#A7A9AC;" d="M10.386,40.512c0.005-0.022,0.014-0.043,0.02-0.066c0.078-0.467-0.521-0.812-0.999-0.467
			c-0.659,0.47-1.599,1.014-1.75,1.763c-0.1,0.487,0.253,0.981,0.93,0.981c0.479,0,0.814-0.261,0.92-0.589
			c0.003,0.007,0.008,0.013,0.013,0.02c0.031-0.066,0.056-0.136,0.077-0.209c0.025-0.027,0.047-0.056,0.062-0.092
			c0.159-0.391,0.53-0.693,0.779-1.049C10.516,40.693,10.475,40.585,10.386,40.512z"/>
		<path style="fill:#A7A9AC;" d="M15.212,39.849c-0.046-0.015-0.096-0.021-0.15-0.011c-0.586,0.1-1.134,0.313-1.645,0.598
			c-0.026-0.02-0.066-0.03-0.102-0.043c0.153-0.098,0.187-0.23,0.143-0.341c0.063-0.191-0.162-0.447-0.453-0.379
			c-0.445,0.101-0.864,0.255-1.16,0.543c-0.074,0.072-0.094,0.166-0.075,0.248c-0.002,0.002-0.008,0.005-0.011,0.006
			c-0.347,0.241-0.763,0.509-0.955,0.846c-0.061,0.104-0.058,0.206-0.021,0.292c-0.098,0.105-0.149,0.226-0.146,0.345
			c-1.093,0.688-2.073,1.523-2.212,2.453c-0.088,0.588,0.929,1.036,1.514,0.703c-0.153,0.579-0.232,1.141-0.197,1.638
			c0.018,0.273,0.528,0.355,0.612,0.067c0.01-0.033,0.021-0.071,0.033-0.106c0.07,0.07,0.159,0.133,0.269,0.184
			c0.261,0.123,0.5,0.123,0.79,0.084c0.361-0.048,0.601-0.32,0.714-0.574c0.374-0.84,0.674-1.913,1.379-2.563
			c0.245-0.225,0.125-0.508-0.203-0.616c-0.756-0.248-1.491,0.52-1.875,0.926c-0.077,0.078-0.157,0.165-0.242,0.254
			c0.141-0.313,0.292-0.626,0.462-0.93c0.462-0.389,0.985-0.764,1.444-1.066c1.033-0.676,2.198-1.693,3.587-1.82
			c0.149-0.017,0.237-0.102,0.211-0.223C16.78,39.705,16.036,39.669,15.212,39.849z"/>
		<path style="fill:#A7A9AC;" d="M30.796,34.409c-0.749-0.868-2.814-0.569-3.926-0.451c-0.611,0.063-0.616,0.704,0,0.764
			c0.598,0.059,1.191,0.072,1.79,0.11c0.613,0.038,1.231,0.264,1.837,0.163C30.799,34.948,30.972,34.61,30.796,34.409z"/>
		<path style="fill:#A7A9AC;" d="M35.605,34.752c-0.501-0.254-1.207-0.365-1.773-0.514c-0.631-0.164-1.287-0.271-1.938-0.153
			c-0.256,0.045-0.166,0.311,0.053,0.333c0.688,0.073,1.274,0.226,1.912,0.436c0.492,0.16,1.046,0.423,1.587,0.374
			C35.751,35.201,35.889,34.9,35.605,34.752z"/>
		<path style="fill:#A7A9AC;" d="M38.025,34.713c-0.418-1.211-3.102-1.497-4.377-1.313c-0.392,0.055-0.371,0.546,0,0.612
			c0.546,0.101,1.094,0.258,1.606,0.441c0.635,0.228,0.961,0.508,1.43,0.885C37.252,35.799,38.243,35.333,38.025,34.713z"/>
		<path style="fill:#A7A9AC;" d="M38.733,32.923c-0.488-0.166-0.959,0.257-0.577,0.602c0.165,0.147,0.374,0.256,0.587,0.361
			c0.021,0.214,0.186,0.327,0.433,0.397c0.106,0.03,0.207,0.011,0.295-0.032c0.294,0.146,0.638,0.265,0.896,0.053
			C41.109,33.71,39.195,33.08,38.733,32.923z"/>
		<path style="fill:#A7A9AC;" d="M46.86,32.278c-0.403-1.176-4.542,1.102-5.154,1.463c-0.344,0.206-0.049,0.646,0.344,0.472
			c0.961-0.429,2.016-0.771,3.037-1.089C45.552,32.98,47.076,32.907,46.86,32.278z"/>
		<path style="fill:#A7A9AC;" d="M55.592,33.386c-1.068-0.681-2.675-0.216-3.896-0.13c-0.037,0.003-0.069,0.009-0.103,0.014
			c0.147-0.234,0.068-0.564-0.316-0.619c-0.128-0.02-0.255-0.026-0.385-0.031c-0.017-0.316-0.396-0.619-0.84-0.518
			c-1.412,0.326-2.714,0.818-4.152,1.084c-0.526,0-0.698,0.781,0.041,0.854c0.266,0.028,0.533,0.02,0.799-0.004
			c0.086,0.261,0.396,0.475,0.86,0.408c1.095-0.159,2.471-0.389,3.489-0.844c-0.129,0.319,0.135,0.74,0.606,0.732v0.003
			c1.095,0.035,2.116-0.192,3.192,0.018C55.532,34.475,56.19,33.772,55.592,33.386z"/>
		<path style="fill:#A7A9AC;" d="M58.923,34.951c-0.208-0.244-0.542-0.271-0.883-0.308c-0.22-0.024-0.409-0.044-0.597-0.092
			c-0.052-0.048-0.12-0.092-0.212-0.106c-0.069-0.016-0.14-0.027-0.211-0.041c-0.381-0.063-0.855,0.284-0.564,0.589
			c0.262,0.28,0.628,0.398,1.052,0.448c0.34,0.042,0.808,0.086,1.145,0.039C58.93,35.443,59.076,35.13,58.923,34.951z"/>
		<g>
			<path style="fill:#A7A9AC;" d="M62.438,36.149c-0.322-0.164-0.719-0.228-1.081-0.298c-0.2-0.039-0.422-0.045-0.628-0.065
				c-0.086-0.011-0.17-0.023-0.255-0.028c-0.029,0.003-0.058,0.005-0.087,0.01c0.013,0.002,0.022,0.003,0.056,0.013v0.006
				c-0.026-0.009-0.057-0.016-0.087-0.014c-0.008,0-0.017,0-0.024,0.003c0.009-0.003,0.013-0.003,0.021-0.004
				c-0.003,0-0.005-0.001-0.005-0.001c-0.269,0.026-0.459,0.233-0.315,0.44c0.171,0.244,0.652,0.238,0.947,0.277
				c0.441,0.057,0.881,0.044,1.326,0.057C62.576,36.554,62.652,36.258,62.438,36.149z"/>
			<path style="fill:#A7A9AC;" d="M60.387,35.768c-0.009,0-0.026,0-0.035,0.004c0.002,0,0.003,0.001,0.004,0.001
				C60.368,35.771,60.378,35.77,60.387,35.768z"/>
		</g>
		<path style="fill:#A7A9AC;" d="M68.362,39.091c-1.494-1.693-4.177-1.9-6.517-2.256c-0.444-0.068-0.705,0.39-0.311,0.592
			c1.326,0.678,2.991,0.769,4.24,1.555c0.679,0.429,0.979,1.38,2.075,1.114C68.344,39.979,68.692,39.462,68.362,39.091z"/>
		<path style="fill:#A7A9AC;" d="M65.887,39.614c-0.465-0.442-1.221-0.699-1.865-0.938c-0.316-0.116-0.593,0.242-0.276,0.382
			c0.62,0.274,1.174,0.657,1.802,0.908C65.84,40.085,66.095,39.81,65.887,39.614z"/>
		<path style="fill:#A7A9AC;" d="M65.06,40.095c-0.29-0.176-0.556-0.233-0.823-0.353c-0.594-0.264-1.34,0.278-0.957,0.766
			c0.158,0.201,0.35,0.38,0.547,0.554c0.008,0.009,0.007,0.009,0.015,0.015c0.034,0.05,0.037,0.05,0.024,0.023
			c0.003,0.002,0.01,0.008,0.01,0.008c0.114,0.197,0.241,0.327,0.474,0.465c0.367,0.217,0.966,0.057,1.17-0.247
			C65.846,40.843,65.561,40.399,65.06,40.095z"/>
		<path style="fill:#A7A9AC;" d="M70.35,38.758c-0.378-0.141-0.775-0.247-1.148-0.398c-0.457-0.191-1.018,0.311-0.576,0.599
			c0.393,0.253,0.82,0.487,1.33,0.556c0.229,0.029,0.456-0.018,0.579-0.19C70.666,39.142,70.604,38.855,70.35,38.758z"/>
		<path style="fill:#A7A9AC;" d="M73.72,35.954c-0.105-0.08-0.22-0.145-0.345-0.206c-0.096-0.044-0.149-0.152-0.113-0.062
			c-0.174-0.438-0.884-0.319-0.945,0.103c-0.067,0.471,0.484,0.866,1.046,0.859C73.786,36.644,74.06,36.198,73.72,35.954z"/>
		<path style="fill:#A7A9AC;" d="M13.912,44.86c-0.593,0.485-1.792,1.622-0.972,2.284c0.222,0.177,0.551,0.159,0.772,0
			c0.333-0.234,0.313-0.636,0.439-0.963c0.128-0.328,0.342-0.649,0.512-0.97C14.845,44.863,14.206,44.623,13.912,44.86z"/>
		<path style="fill:#A7A9AC;" d="M71.98,43.303c-0.063-0.374-0.478-0.691-0.9-0.926c-0.104-0.081-0.224-0.147-0.36-0.182
			c-0.036-0.018-0.072-0.034-0.104-0.049c-0.245-0.106-0.481,0.024-0.535,0.197c-0.028,0.034-0.058,0.073-0.071,0.119
			c-0.116,0.434,0.15,1.267,0.656,1.479c0.438,0.182,0.909,0.033,1.119-0.257C71.919,43.609,72.008,43.469,71.98,43.303z"/>
		<path style="fill:#A7A9AC;" d="M68.967,45.212c-0.16-0.656-0.668-1.364-1.086-1.938c-0.343-0.469-0.997-1.183-1.772-0.816
			c-0.14,0.067-0.245,0.2-0.238,0.335c0.004,0.048,0.008,0.101,0.012,0.149c0.004,0.089,0.073,0.187,0.189,0.204
			c0.05,0.005,0.103,0.01,0.154,0.016l0,0c0.063,0.058,0.108,0.104,0.156,0.173c0.175,0.24,0.303,0.499,0.417,0.763
			c0.233,0.532,0.355,1.116,0.659,1.625C67.89,46.437,69.138,45.91,68.967,45.212z"/>
		<path style="fill:#A7A9AC;" d="M66.763,45.522c-0.307-0.407-0.61-0.823-1.055-1.147c-0.337-0.249-0.767,0.121-0.491,0.397
			c0.368,0.369,0.544,0.833,0.774,1.263c0.205,0.385,0.465,0.982,1.041,1.067c0.262,0.039,0.623-0.098,0.584-0.356
			C67.55,46.306,67.049,45.9,66.763,45.522z"/>
		<path style="fill:#A7A9AC;" d="M65.778,47.454c-0.306-0.488-0.914-0.688-1.464-0.554c-0.375,0.093-0.547,0.594-0.12,0.738
			c0.004,0.003,0.017,0.007,0.03,0.017c0.009,0.022,0.016,0.066,0.019,0.079c0.005,0.036,0.005,0.074,0.01,0.109
			c0.005,0.056,0.001,0.111-0.002,0.167l0,0c-0.003,0.01-0.005,0.018-0.01,0.029c-0.028,0.109-0.081,0.216-0.123,0.321
			c-0.323,0.819,1.159,1.279,1.693,0.572C66.135,48.504,66.051,47.892,65.778,47.454z"/>
		<path style="fill:#A7A9AC;" d="M73.46,38.963c0.039,0.012,0.087,0.005,0.129,0.005c0.125,0.254,0.595,0.254,0.694-0.021
			c0.142-0.394-0.059-0.661-0.565-0.729c-0.473-0.062-0.657,0.263-0.56,0.506c-0.223-0.168-0.447-0.332-0.627-0.54
			c-0.208-0.242-0.774-0.098-0.628,0.215c0.137,0.293,0.316,0.573,0.475,0.859c0.159,0.286,0.408,0.546,0.503,0.852
			c0.042,0.144,0.152,0.253,0.295,0.331c-0.275-0.131-0.731,0.015-0.741,0.327c-0.011,0.313,0.168,0.534,0.402,0.77
			c0.259,0.254,0.806,0.29,1.077,0.037c0.136-0.13,0.182-0.295,0.072-0.449c-0.092-0.123-0.217-0.208-0.372-0.274
			c-0.154-0.067-0.206-0.028-0.244-0.185c-0.027-0.106-0.099-0.183-0.19-0.226c0.228,0.119,0.534,0.139,0.779,0.022
			c0.428-0.2,0.462-0.643,0.15-0.927C73.893,39.344,73.685,39.148,73.46,38.963z"/>
		<path style="fill:#A7A9AC;" d="M8.021,38.988c-0.44,0.119-0.895,0.274-0.926,0.693c-0.019,0.288,0.42,0.478,0.718,0.33
			c0.213-0.104,0.329-0.276,0.54-0.393C8.729,39.409,8.508,38.857,8.021,38.988z"/>
		<path style="fill:#A7A9AC;" d="M16.007,50.503c-0.114-0.142-0.158-0.33-0.165-0.497c-0.017-0.307-0.482-0.388-0.691-0.149
			c-0.239,0.275-0.355,0.579-0.361,0.912c-0.003,0.341,0.421,0.595,0.827,0.505C16.009,51.188,16.24,50.789,16.007,50.503z"/>
		<path style="fill:#A7A9AC;" d="M18.584,52.901c-0.03-0.105-0.203-0.267-0.173-0.35c0.127-0.329-0.345-0.588-0.698-0.428
			c-0.621,0.272-0.616,1.035-0.017,1.324C18.167,53.675,18.705,53.305,18.584,52.901z"/>
	</g>
</g>
<g id="Layer_1">
</g>
</svg>
