<?xml version="1.0" encoding="iso-8859-1"?>
<!-- Generator: Adobe Illustrator 15.0.0, SVG Export Plug-In . SVG Version: 6.00 Build 0)  -->
<!DOCTYPE svg PUBLIC "-//W3C//DTD SVG 1.1//EN" "http://www.w3.org/Graphics/SVG/1.1/DTD/svg11.dtd">
<svg version="1.1" xmlns="http://www.w3.org/2000/svg" xmlns:xlink="http://www.w3.org/1999/xlink" x="0px" y="0px"
	 width="79.999px" height="80px" viewBox="0 0 79.999 80" style="enable-background:new 0 0 79.999 80;" xml:space="preserve">
<g id="ico-hair-5">
	<g>
		<defs>
			<rect id="SVGID_1_" width="79.999" height="80"/>
		</defs>
		<clipPath id="SVGID_2_">
			<use xlink:href="#SVGID_1_"  style="overflow:visible;"/>
		</clipPath>
		<g style="clip-path:url(#SVGID_2_);">
			<path style="fill:none;" d="M59.746,0H20.253C9.067,0,0,9.066,0,20.253v39.493C0,70.932,9.067,80,20.253,80h39.493
				c11.186,0,20.253-9.068,20.253-20.254V20.253C79.999,9.066,70.932,0,59.746,0z"/>
		</g>
	</g>
	<path style="fill:none;" d="M17.62,60.891c-0.107-0.105-0.212-0.205-0.322-0.3C17.467,60.773,17.589,60.867,17.62,60.891z"/>
	<path style="fill:#CD7E5B;" d="M17.633,61.031c-0.046,0-0.096-0.016-0.122-0.047L17.5,60.976c-0.056-0.052-0.052-0.129,0.013-0.176
		c0.058-0.047,0.15-0.053,0.213-0.008c0.052,0.032,0.086,0.094,0.068,0.145c-0.019,0.045-0.066,0.082-0.124,0.092
		C17.655,61.029,17.645,61.031,17.633,61.031z"/>
	<g>
		<path style="fill:#E6E7E8;" d="M77.395,45.311c1.643-1.43,2.465-3.938-0.654-5.064c1.642-0.39,1.53-1.557,1.53-1.557
			s-3.337,0.906-2.844-2.686c0.328-2.771-2.99-4.004-5.338-4.801c-4.351-1.476-37.685-4.722-62.995,9.844
			c0,0-3.766,2.065-4.002,4.404c-0.234,2.341,2.021,1.635,1.457,3.12c-0.562,1.485-2.441,0.668-2.441,0.668s0.378,1.041,1.83,1.374
			c-3.006,1.224-3.99,4.678,0.05,5.275c-1.081-0.967,0.421-2.154,0.421-2.154s-0.785,1.921,2.279,3.221
			c3.064,1.297,2.247,2.207,1.532,2.596c1.587-0.173,1.861-0.691,1.861-0.691s1.202,1.384,3.829,1.081
			c2.04-0.234,2.76,0.104,3.388,0.65c-0.541-0.581-1.535-2.068-1.32-5.019c0.653-2.899,0.535-4.862,0.12-6.219
			c2.424-0.513,5.322-3.364,6.147-5.654c0.06,1.87-0.65,2.524-0.65,2.524s3.78-0.983,4.612-3.601
			c0.591,1.638,2.362,2.104,2.362,2.104s-0.117-1.774,0.886-3.085c0.236,1.729,0.532,2.337,0.532,2.337s-0.151-0.315,1.71-1.267
			c1.861-0.953,6.567-3.721,18.498-4.587c7.007-0.434,6.785,1.125,6.785,3.115s3.396,3.984,3.396,3.984l-0.329-1.819
			c0,0,0.395,0.767,2.421,1.761c2.03,0.991,3.382,2.33,2.464,4.048c1.015-0.496,1.545-1.146,1.643-1.831c0,0-0.07,1.735,0.295,3.524
			c0.364,1.789,1.678,4.157-1.132,7.301c1.314,0.087,1.628-0.348,1.995-1.404c0.575,0.694,1.757,0.431,1.757,0.431
			s-1.546-0.646,0.848-1.727c2.396-1.08,8.699-5.134,5.632-7.992c1.317,0.477,2.084-0.259,2.084-0.259S75.755,46.74,77.395,45.311z"
			/>
		<path style="fill:#C17739;" d="M17.298,60.721c-0.043,0-0.089-0.013-0.12-0.042c-0.486-0.423-1.006-0.685-2.099-0.685
			c-0.334,0-0.71,0.025-1.145,0.074c-0.258,0.03-0.514,0.044-0.76,0.044c-1.743,0-2.74-0.727-3.085-1.041
			C9.872,59.26,9.36,59.557,8.241,59.68c-0.077,0.013-0.147-0.025-0.176-0.081c-0.023-0.058,0-0.121,0.063-0.155
			c0.282-0.154,0.614-0.412,0.59-0.76c-0.024-0.34-0.411-0.896-2.109-1.614c-2.197-0.934-2.48-2.2-2.445-2.886
			c-0.33,0.391-0.681,1.034-0.078,1.595c0.043,0.023,0.073,0.063,0.073,0.11c0,0.069-0.076,0.141-0.171,0.128c0,0-0.019,0-0.031,0
			c-1.603-0.235-2.587-0.934-2.778-1.962c-0.23-1.225,0.775-2.648,2.366-3.415c-1.236-0.417-1.578-1.323-1.594-1.366
			c-0.019-0.049,0.003-0.104,0.056-0.135c0.052-0.035,0.122-0.039,0.182-0.014c0.006,0.002,0.485,0.209,1.006,0.209
			c0.597,0,0.996-0.268,1.199-0.801c0.229-0.603-0.042-0.774-0.446-1.034c-0.513-0.327-1.15-0.732-1.018-2.058
			c0.24-2.375,3.915-4.416,4.072-4.499c16.997-9.782,37.14-11.243,47.639-11.243c7.885,0,13.819,0.81,15.514,1.386
			c2.023,0.687,5.787,1.963,5.437,4.931c-0.145,1.052,0.03,1.801,0.517,2.229c0.313,0.276,0.749,0.415,1.307,0.415
			c0.446,0,0.803-0.095,0.803-0.095c0.053-0.012,0.104-0.007,0.146,0.017c0.042,0.022,0.07,0.06,0.072,0.097
			c0,0.012,0.087,1.095-1.284,1.585c0.984,0.429,1.603,1.047,1.799,1.804c0.326,1.255-0.522,2.544-1.431,3.33
			c-0.449,0.393-0.625,0.738-0.518,1.029c0.176,0.493,1.089,0.706,1.089,0.706c0.063,0.014,0.104,0.047,0.121,0.087
			c0.016,0.043,0.006,0.088-0.03,0.122c-0.019,0.02-0.495,0.467-1.345,0.467l0,0c-0.139,0-0.276-0.012-0.418-0.036
			c0.482,0.598,0.646,1.272,0.479,2.011c-0.545,2.455-4.6,4.996-6.479,5.839c-1.042,0.473-1.258,0.827-1.254,1.041
			c0.002,0.287,0.399,0.458,0.399,0.458c0.062,0.025,0.099,0.078,0.091,0.131c-0.008,0.051-0.054,0.096-0.118,0.109
			c-0.021,0.005-1.053,0.237-1.733-0.283c-0.313,0.847-0.688,1.353-2.077,1.262c-0.061-0.003-0.108-0.032-0.133-0.075
			c-0.024-0.042-0.022-0.09,0.013-0.129c2.337-2.614,1.774-4.674,1.325-6.328c-0.086-0.307-0.162-0.598-0.223-0.877
			c-0.208-1.022-0.272-2.035-0.295-2.716c-0.289,0.426-0.76,0.804-1.393,1.113c-0.06,0.027-0.138,0.024-0.194-0.012
			c-0.056-0.036-0.069-0.099-0.043-0.15c0.76-1.428-0.043-2.737-2.399-3.888c-1.092-0.535-1.72-1.008-2.073-1.336l0.222,1.226
			c0.009,0.016,0.015,0.037,0.015,0.059c0,0.071-0.072,0.119-0.165,0.127c-0.047,0.006-0.075-0.008-0.102-0.024
			c-0.145-0.082-3.462-2.053-3.462-4.087v-0.176c0.004-0.875,0.006-1.63-0.637-2.141c-0.839-0.664-2.708-0.871-5.972-0.67
			c-11.227,0.813-16.033,3.322-18.084,4.393l-0.339,0.174c-1.599,0.821-1.636,1.138-1.636,1.138c0.03,0.07-0.016,0.13-0.102,0.157
			c-0.087,0.024-0.182-0.023-0.213-0.09c-0.015-0.023-0.261-0.545-0.485-1.955c-0.641,1.095-0.628,2.376-0.618,2.61
			c0.003,0.015,0.009,0.031,0.009,0.046c0,0.073-0.077,0.135-0.169,0.129c-0.019,0-0.037-0.001-0.056-0.007
			c-0.07-0.017-1.585-0.433-2.302-1.806c-1.056,2.366-4.416,3.265-4.566,3.302c-0.072,0.019-0.149-0.003-0.188-0.051
			c-0.043-0.049-0.04-0.112,0.009-0.154c0.006-0.008,0.464-0.455,0.584-1.629c-1.076,2.034-3.534,4.38-5.759,4.934
			c0.457,1.6,0.404,3.669-0.152,6.148c-0.204,2.812,0.691,4.266,1.267,4.895c0.036,0.025,0.065,0.062,0.065,0.103
			c0,0.073-0.078,0.127-0.17,0.13H17.298z M15.079,59.734c0.702,0,1.197,0.104,1.594,0.28c-0.514-0.835-1.018-2.24-0.855-4.45
			c0.563-2.523,0.606-4.599,0.12-6.179c-0.018-0.069,0.034-0.137,0.117-0.156c2.451-0.521,5.257-3.42,6.033-5.566
			c0.021-0.062,0.095-0.101,0.181-0.093c0.076,0.007,0.139,0.063,0.139,0.126c0.04,1.184-0.225,1.896-0.44,2.27
			c0.997-0.343,3.446-1.375,4.079-3.375c0.019-0.056,0.084-0.097,0.154-0.099c0.064-0.009,0.141,0.04,0.164,0.097
			c0.436,1.209,1.555,1.755,2.035,1.938c0-0.513,0.086-1.874,0.916-2.953c0.035-0.047,0.107-0.069,0.176-0.058
			c0.068,0.011,0.121,0.057,0.127,0.112c0.138,1.022,0.301,1.65,0.406,1.987c0.227-0.226,0.686-0.553,1.584-1.012l0.335-0.174
			c2.073-1.082,6.928-3.614,18.239-4.435c3.394-0.211,5.31,0.019,6.229,0.747c0.742,0.585,0.737,1.43,0.735,2.322v0.176
			c0,1.548,2.175,3.128,3.008,3.68l-0.271-1.494c-0.013-0.066,0.04-0.13,0.12-0.147c0.08-0.015,0.163,0.018,0.197,0.078
			c0.003,0.007,0.408,0.747,2.354,1.698c2.303,1.127,3.208,2.412,2.704,3.824c0.673-0.419,1.073-0.938,1.152-1.513
			c0.011-0.069,0.087-0.122,0.173-0.114c0.093,0.004,0.157,0.063,0.153,0.134c0,0.016-0.061,1.746,0.292,3.501
			c0.06,0.273,0.136,0.561,0.216,0.866c0.455,1.662,1.015,3.722-1.206,6.336l0,0c0.92,0,1.19-0.329,1.533-1.32
			c0.014-0.048,0.07-0.086,0.131-0.092c0.065-0.009,0.13,0.012,0.166,0.057c0.324,0.392,0.874,0.438,1.226,0.417
			c-0.133-0.113-0.257-0.276-0.262-0.482c-0.007-0.415,0.47-0.844,1.42-1.272c1.838-0.825,5.794-3.296,6.32-5.659
			c0.181-0.801-0.065-1.519-0.727-2.137c-0.05-0.046-0.053-0.114-0.006-0.162c0.045-0.05,0.128-0.064,0.199-0.039
			c0.273,0.099,0.538,0.149,0.794,0.149l0,0c0.422,0,0.729-0.136,0.911-0.242c-0.343-0.116-0.904-0.368-1.062-0.808
			c-0.139-0.386,0.058-0.813,0.591-1.273c1.069-0.933,1.599-2.152,1.351-3.107c-0.197-0.768-0.856-1.357-1.954-1.756
			c-0.062-0.021-0.098-0.073-0.098-0.125c0.005-0.052,0.05-0.101,0.119-0.114c1.142-0.271,1.366-0.951,1.406-1.266
			c-0.165,0.03-0.409,0.063-0.687,0.063c-0.643,0-1.178-0.173-1.553-0.502c-0.552-0.485-0.754-1.303-0.598-2.428
			c0.302-2.563-2.544-3.753-5.239-4.667c-1.667-0.565-7.545-1.366-15.384-1.366c-10.456,0-30.525,1.454-47.448,11.194
			c-0.04,0.021-3.709,2.059-3.938,4.309c-0.116,1.191,0.421,1.534,0.896,1.836c0.436,0.281,0.849,0.541,0.556,1.313
			c-0.307,0.814-0.993,0.985-1.513,0.985c-0.293,0-0.566-0.054-0.776-0.11c0.21,0.312,0.668,0.799,1.566,1.006
			c0.064,0.014,0.114,0.058,0.12,0.11c0.007,0.055-0.03,0.104-0.09,0.129c-1.654,0.674-2.734,2.089-2.51,3.288
			c0.151,0.823,0.896,1.406,2.107,1.671c-0.508-0.777,0.185-1.653,0.684-2.045c0.052-0.043,0.132-0.051,0.199-0.021
			c0.065,0.031,0.092,0.094,0.071,0.151c-0.031,0.074-0.698,1.837,2.2,3.066c1.47,0.623,2.239,1.238,2.278,1.828
			c0.016,0.233-0.083,0.463-0.289,0.67c0.967-0.194,1.175-0.528,1.175-0.53c0.024-0.044,0.076-0.073,0.137-0.078
			c0.058-0.004,0.115,0.018,0.149,0.055c0.01,0.012,0.96,1.069,2.959,1.069c0.231,0,0.471-0.014,0.711-0.04
			C14.338,59.761,14.729,59.734,15.079,59.734z"/>
	</g>
	<g style="opacity:0.5;">
		<path style="fill:#BCBEC0;" d="M73.18,39.77c-3.063-0.693-0.763,0.519,1.317,1.213c2.077,0.692-3.839,0.566-6.567,0.086
			c-2.957-0.52-3.612-0.865-2.957,1.472c0.655,2.339-5.364,0.173-2.189-1.472s9.083-1.904,9.193-5.452
			c0.078-2.432,1.022-3.035,2.068-2.535c-1.107-0.876-2.673-1.443-3.956-1.878c-4.351-1.476-37.685-4.722-62.995,9.844
			c0,0-3.766,2.065-4.002,4.404c-0.04,0.43,0,0.754,0.092,1.012c0.037-0.158,0.056-0.338,0.056-0.548
			c0-3.547,12.914-9.087,12.477-6.319c-0.437,2.772,3.067-0.778,6.679,0.607c3.612,1.385,0.984,3.896,0.984,3.896s0-1.73-1.639-3.03
			c0.325,4.157-5.036,7.012-5.036,7.012s2.187-2.854,1.092-4.503c-0.655,3.553-4.267,5.024-3.393,3.637
			c0.876-1.384,0.987-5.539-0.656-2.077c-1.643,3.465-7.987,7.445-7.333,5.801c0.658-1.646,1.531-4.416,0.328-2.597
			c-1.565,1.927-3.133,1.908-4.259,1.466c0.272,0.3,0.731,0.641,1.454,0.807c-3.006,1.224-3.99,4.678,0.05,5.275
			c-1.081-0.967,0.421-2.154,0.421-2.154s-0.785,1.921,2.279,3.221c3.064,1.297,2.247,2.207,1.532,2.596
			c1.587-0.173,1.861-0.691,1.861-0.691s1.202,1.384,3.829,1.081c2.04-0.234,2.76,0.104,3.388,0.65
			c-0.541-0.581-1.535-2.068-1.32-5.019c0.653-2.899,0.535-4.862,0.12-6.219c2.424-0.513,5.322-3.364,6.147-5.654
			c0.06,1.87-0.65,2.524-0.65,2.524s3.78-0.983,4.612-3.601c0.591,1.638,2.362,2.104,2.362,2.104s-0.117-1.774,0.886-3.085
			c0.236,1.729,0.532,2.337,0.532,2.337s-0.151-0.315,1.71-1.267c1.861-0.953,6.567-3.721,18.498-4.587
			c7.007-0.434,6.785,1.125,6.785,3.115s3.396,3.984,3.396,3.984l-0.329-1.819c0,0,0.395,0.767,2.421,1.761
			c2.03,0.991,3.382,2.33,2.464,4.048c1.015-0.496,1.545-1.146,1.643-1.831c0,0-0.07,1.735,0.295,3.524
			c0.364,1.789,1.678,4.157-1.132,7.301c1.314,0.087,1.628-0.348,1.995-1.404c0.575,0.694,1.757,0.431,1.757,0.431
			s-1.546-0.646,0.848-1.727c2.396-1.08,8.699-5.134,5.632-7.992c1.317,0.477,2.084-0.259,2.084-0.259s-2.299-0.518-0.659-1.947
			c1.643-1.43,2.465-3.938-0.654-5.064c1.642-0.39,1.53-1.557,1.53-1.557s-0.104,0.027-0.278,0.054
			C77.134,39.526,75.653,40.205,73.18,39.77z"/>
	</g>
	<path style="fill:#C17739;" d="M15.972,49.232c-0.517,0.005-1.006-0.038-1.502-0.093c1.471-0.549,2.778-2.325,2.849-3.38
		c0.007-0.085-0.115,0.015-0.123,0.055c-0.212,1.108-1.774,3.21-3.393,3.252c-0.113,0.001-0.283,0.226-0.132,0.243
		c0.732,0.087,1.427,0.208,2.172,0.156C15.953,49.457,16.104,49.23,15.972,49.232z"/>
	<path style="opacity:0.5;fill:#BCBEC0;" d="M11.274,40.8c0,0-5.189,1.271-6.116,4.793c0,0,0.373-0.638,2.532-1.614
		c2.163-0.978-0.804,2.15,0.434,1.025c1.236-1.125,0.246,2.003,1.855,0.195c1.605-1.808,0.615,2.104-1.547,3.813
		c4.327-3.518,5.131-4.643,5.438-7.479c-1.05,1.712-2.101,2.396-1.545,0.783c0.558-1.613-2.285,1.124-1.483-0.146
		C11.646,40.898,7.752,43.099,11.274,40.8z"/>
	<path style="opacity:0.5;fill:#F1AC6E;" d="M16.185,42.686c0,0,0.265,1.812-0.615,3.621C15.218,47.353,18.3,44.287,16.185,42.686z"
		/>
	<path style="opacity:0.5;fill:#F1AC6E;" d="M18.826,41.223c0,0,0.969,1.883-0.176,4.737c2.024-1.603,2.289-3.063,2.024-4.526
		C20.411,39.971,20.235,43.173,18.826,41.223z"/>
	<g>
		<g>
			<g>
				<path style="fill:#A7A9AC;" d="M50.938,17.48c-24.813,2.56-39.289,9.955-47.111,15.574c-3.056,2.7-4.584,4.692,1.439,6.112
					c0,0,9.373-7.517,32.491-10.556c23.057-3.026,32.362-1.334,33.752-0.406c-0.024-0.019-0.045-0.039-0.071-0.058
					C79.438,23.17,75.755,14.92,50.938,17.48z"/>
				<path style="fill:#A7A9AC;" d="M5.267,39.297c-0.016,0-0.031-0.001-0.047-0.005c-2.51-0.593-3.833-1.3-4.162-2.224
					c-0.441-1.234,1.064-2.703,2.646-4.101c7.977-5.731,22.631-13.08,47.214-15.616c3.104-0.32,5.998-0.482,8.607-0.482
					c8.552,0,14.229,1.767,15.581,4.85c0.917,2.096-0.372,4.504-3.452,6.458c0.01,0.038,0,0.081-0.037,0.11
					c-0.061,0.049-0.145,0.063-0.213,0.018c-0.667-0.442-3.868-1.286-11.209-1.286c-6.173,0-13.714,0.578-22.411,1.722
					c-22.803,2.996-32.306,10.444-32.4,10.52C5.353,39.282,5.309,39.297,5.267,39.297z M59.525,17.128
					c-2.595,0-5.476,0.162-8.564,0.481c-24.5,2.526-39.094,9.845-47.023,15.54C2.095,34.781,1.019,36,1.372,37
					c0.289,0.809,1.55,1.47,3.848,2.022c0.924-0.693,10.645-7.665,32.51-10.538c8.719-1.144,16.274-1.727,22.466-1.727
					c6.888,0,10.183,0.732,11.22,1.237c2.989-1.887,4.253-4.196,3.377-6.19C74.18,20.396,71.46,17.128,59.525,17.128z"/>
			</g>
		</g>
		<g>
			<path style="fill:#A7A9AC;" d="M16.316,36.646c0,0,10.313,6.181,32.418,5.624c19.28-0.861,25.027-7.437,21.354-11.066
				C62.509,28.993,33.869,29.752,16.316,36.646z"/>
			<path style="fill:#A7A9AC;" d="M45.939,42.434L45.939,42.434c-10.45,0-17.965-1.542-22.437-2.838
				c-4.849-1.404-7.264-2.831-7.285-2.848c-0.046-0.025-0.07-0.07-0.064-0.115c0.006-0.044,0.039-0.086,0.092-0.103
				c12.333-4.845,29.926-6.563,41.245-6.563c5.614,0,10.227,0.408,12.656,1.115c0.028,0.008,0.053,0.022,0.071,0.042
				c1.205,1.19,1.415,2.657,0.584,4.128c-2.63,4.659-13.12,6.748-22.059,7.147C47.801,42.423,46.86,42.434,45.939,42.434z
				 M16.636,36.665c1.542,0.826,11.081,5.509,29.302,5.509h0.002c0.917,0,1.854-0.01,2.788-0.034
				c8.841-0.394,19.205-2.438,21.773-6.993c0.771-1.366,0.588-2.726-0.512-3.832c-2.405-0.689-6.954-1.087-12.499-1.087
				C46.284,30.228,28.911,31.917,16.636,36.665z"/>
		</g>
		<g style="opacity:0.4;">
			<path style="fill:#A7A9AC;" d="M70.089,31.203c-6.248-1.82-26.793-1.623-43.651,2.358l0.612,0.12c0,0,28.516-4.992,37.532-1.518
				c9.017,3.479-10.822,9.362-29.646,6.331c-5.823-0.831-10.776-2.72-13.111-3.72c-1.918,0.566-3.771,1.188-5.509,1.87
				c0,0,10.313,6.181,32.418,5.624C68.015,41.408,73.762,34.833,70.089,31.203z"/>
		</g>
		<g>
			<path style="fill:#A7A9AC;" d="M37.758,28.611C14.64,31.65,5.267,39.167,5.267,39.167c-0.182,0.997,0.72,1.565,1.35,2.205
				c0,0,8.362-6.612,32.006-9.599c23.647-2.987,31.467-0.57,31.467-0.57s2.777-1.852,1.421-2.998
				C70.12,27.277,60.814,25.585,37.758,28.611z"/>
			<path style="fill:#A7A9AC;" d="M6.616,41.504c0,0-0.008,0-0.012-0.001c-0.05-0.004-0.089-0.021-0.116-0.052
				c-0.117-0.114-0.24-0.229-0.363-0.343c-0.578-0.534-1.179-1.087-1.019-1.958c0-0.029,0.019-0.056,0.044-0.074
				c0.095-0.075,9.674-7.582,32.579-10.592c8.719-1.144,16.274-1.727,22.466-1.727c7.42,0,10.672,0.849,11.422,1.35
				c0.314,0.263,0.452,0.568,0.428,0.915c-0.083,1.088-1.778,2.231-1.851,2.28c-0.044,0.031-0.108,0.039-0.164,0.021
				c-0.03-0.009-3.063-0.912-10.801-0.912c-5.823,0-12.748,0.501-20.584,1.49c-23.32,2.945-31.832,9.496-31.915,9.562
				C6.699,41.489,6.657,41.504,6.616,41.504z M5.421,39.229c-0.105,0.731,0.405,1.208,0.952,1.714
				c0.091,0.079,0.177,0.159,0.259,0.24c1.173-0.838,10.108-6.777,31.966-9.538c7.851-0.992,14.793-1.494,20.632-1.494
				c7.146,0,10.253,0.748,10.825,0.906c0.317-0.227,1.6-1.19,1.662-2.049c0.021-0.277-0.087-0.51-0.326-0.713
				c-0.653-0.433-3.854-1.276-11.195-1.276c-6.173,0-13.714,0.578-22.411,1.722C15.716,31.641,6.104,38.709,5.421,39.229z"/>
		</g>
		<path style="opacity:0.5;fill:#A7A9AC;" d="M71.51,28.205c-0.781-0.519-4.052-1.28-10.845-1.313
			c0.463,1.104,0.754,2.263,0.829,3.416c6.182,0.153,8.595,0.896,8.595,0.896S72.866,29.352,71.51,28.205z"/>
		<path style="opacity:0.5;fill:#A7A9AC;" d="M17.185,33.335c-8.292,2.928-11.918,5.832-11.918,5.832
			c-0.182,0.997,0.72,1.565,1.35,2.205c0,0,3.216-2.54,11.285-5.182C17.402,35.266,17.129,34.297,17.185,33.335z"/>
		<g style="opacity:0.5;">
			<path style="fill:#A7A9AC;" d="M52.754,17.31c5.406-0.344,13.745-0.782,13.53,2.809c-0.216,3.722-3.062,4.415-12.367,5.107
				c-9.302,0.691-20.577,1.301-33.602,5.281c-10.186,3.112-10.509,0.866-7.552-1.296c2.516-1.849,8.937-5.076,10.77-5.989
				c-9.017,3.077-15.378,6.724-19.706,9.833c-3.056,2.7-4.584,4.692,1.439,6.112c0,0,9.373-7.517,32.491-10.556
				c23.057-3.026,32.362-1.334,33.752-0.406c-0.024-0.019-0.045-0.039-0.071-0.058C79.24,23.293,75.924,15.332,52.754,17.31z"/>
		</g>
		<g style="opacity:0.5;">
			<path style="fill:#A7A9AC;" d="M71.513,18.841c0.615,0.938,0.671,2.063,0.404,3.107c-0.576,2.26-2.603,3.94-5.129,4.989
				c-0.16,0.069-0.328,0.127-0.492,0.191c3.058,0.274,4.691,0.729,5.214,1.076c-0.024-0.019-0.045-0.039-0.071-0.058
				C76.14,25.221,76.801,21.169,71.513,18.841z"/>
			<path style="fill:#A7A9AC;" d="M5.706,35.462c-0.791-0.776-1.325-1.771-1.351-2.778c-0.175,0.122-0.356,0.246-0.528,0.371
				c-3.056,2.7-4.584,4.692,1.439,6.112c0,0,0.987-0.788,3.098-1.955C7.333,36.743,6.416,36.166,5.706,35.462z"/>
		</g>
		<path style="fill:#A7A9AC;" d="M59.423,17.948c-3.104-0.576-6.919-0.054-10.015,0.352c-3.784,0.492-7.575,1.222-11.248,2.082
			c-6.752,1.585-13.046,3.988-19.303,6.462c-0.04,0.017-0.076,0.126-0.016,0.104c6.089-2.12,12.04-4.387,18.427-5.946
			c7.008-1.714,14.511-2.774,21.857-2.438C59.423,18.578,59.786,18.016,59.423,17.948z"/>
		<path style="fill:#A7A9AC;" d="M63.111,18.26c-0.282-0.252-0.55-0.288-0.956-0.348c-0.375-0.055-0.803-0.048-1.188,0.004
			c-0.206,0.028-0.494,0.421-0.213,0.493c0.136,0.036,0.262,0.096,0.385,0.145c0.163,0.067,0.342,0.077,0.505,0.137
			c0.304,0.108,0.625,0.173,0.948,0.234C62.884,18.982,63.313,18.441,63.111,18.26z"/>
		<g>
			<path style="fill:#A7A9AC;" d="M60.592,36.696c-5.722,1.157-11.824,1.54-17.722,1.482c-2.646-0.028-5.285-0.309-7.917-0.486
				c-2.911-0.194-5.732-0.376-8.239-1.683c-0.108-0.056-0.289,0.171-0.182,0.231c2.248,1.226,4.759,1.61,7.421,1.899
				c2.838,0.309,5.674,0.634,8.539,0.736c5.809,0.209,12.349,0.009,17.878-1.478C60.676,37.318,61.079,36.598,60.592,36.696z"/>
			<path style="fill:#A7A9AC;" d="M64.496,36.01c-0.542,0.1-1.096,0.53-1.67,0.383c-0.203-0.051-0.508,0.304-0.308,0.39
				c0.667,0.283,1.308-0.102,1.892-0.33C64.562,36.394,64.816,35.949,64.496,36.01z"/>
		</g>
		<path style="fill:#A7A9AC;" d="M56.884,28.058c-5.71-0.359-11.656,0.225-17.286,0.983c-5.298,0.715-10.805,1.621-15.554,3.684
			c-0.087,0.039-0.213,0.306-0.046,0.25c10.372-3.405,21.563-3.643,32.573-4.348C56.83,28.61,57.233,28.08,56.884,28.058z"/>
	</g>
</g>
<g id="Layer_1">
</g>
</svg>
