<?xml version="1.0" encoding="iso-8859-1"?>
<!-- Generator: Adobe Illustrator 15.0.0, SVG Export Plug-In . SVG Version: 6.00 Build 0)  -->
<!DOCTYPE svg PUBLIC "-//W3C//DTD SVG 1.1//EN" "http://www.w3.org/Graphics/SVG/1.1/DTD/svg11.dtd">
<svg version="1.1" xmlns="http://www.w3.org/2000/svg" xmlns:xlink="http://www.w3.org/1999/xlink" x="0px" y="0px" width="80.04px"
	 height="80px" viewBox="0 0 80.04 80" style="enable-background:new 0 0 80.04 80;" xml:space="preserve">
<g id="ico-hair-boy-5">
	<g>
		<defs>
			<rect id="SVGID_1_" x="0.041" width="80" height="80"/>
		</defs>
		<clipPath id="SVGID_2_">
			<use xlink:href="#SVGID_1_"  style="overflow:visible;"/>
		</clipPath>
		<g style="clip-path:url(#SVGID_2_);">
			<path style="fill:none;" d="M59.787,0H20.293C9.108,0,0.041,9.066,0.041,20.253v39.493C0.041,70.932,9.108,80,20.293,80h39.494
				c11.186,0,20.253-9.068,20.253-20.254V20.253C80.04,9.066,70.973,0,59.787,0z"/>
		</g>
	</g>
	<path style="fill:#A7A9AC;stroke:#A29C77;stroke-width:0.0814;stroke-linecap:round;stroke-linejoin:round;" d="M77.728,52.408
		c0.155-0.289-0.325-1.132-0.223-1.442C82.626,35.188,54.096,6.12,23.096,19.572C-4.032,31.345-1.237,45.137,2.147,55.603
		c4.088,1.355,4.049,3.311,4.049,3.311C8.14,42.307,22.542,41.916,22.542,41.916c12.27-2.465,18.352-5.089,26.561-2.673
		c6.757,1.989,9.22,3.323,15.393,5.125c5.596,1.634,1.608,0.569,10.616,5.881c0.24,0.142,0.882,0.605,0.858,0.87
		c-0.004,0.056,0.573,1.273,0.566,1.331c-0.025,0.245,1.606,0.788,1.567,1.024"/>
	<path style="opacity:0.58;fill:#BCBEC0;" d="M4.554,53.78c-1.12-0.453-2.367,0.118-2.367,0.118s-6.172-11.431,9.254-25.943
		C30.947,9.604,68.931,17.298,76.536,42.09c0,0-2.082-6.844-12.037-1.954c-9.395,4.609-15.307-9.486-40.739-0.015
		C7.59,46.144,7.367,55.466,7.367,55.466S6.991,54.77,4.554,53.78z"/>
	<g>
		<g>
			<path style="fill:#9A9383;" d="M5.191,42.09c0,0-0.572,1.247-0.712,1.736L5.191,42.09z"/>
		</g>
		<path style="fill:#827E69;" d="M4.454,43.998c-0.007-0.004-0.012-0.003-0.019-0.01c-0.11-0.024-0.183-0.127-0.153-0.214
			c0.136-0.498,0.688-1.709,0.714-1.759c0.033-0.091,0.156-0.123,0.264-0.084c0.106,0.038,0.163,0.143,0.119,0.225
			c-0.003,0.017-0.564,1.246-0.697,1.724C4.656,43.966,4.559,44.016,4.454,43.998L4.454,43.998z"/>
	</g>
	<g>
		<g>
			<path style="fill:#9A9383;" d="M5.041,41.384c0,0-1.294,0.598-1.322,0.802L5.041,41.384z"/>
		</g>
		<path style="fill:#827E69;" d="M3.687,42.362c-0.113-0.021-0.188-0.119-0.176-0.212c0.029-0.187,0.506-0.493,1.42-0.917
			c0.092-0.045,0.221-0.012,0.282,0.073c0.064,0.08,0.038,0.188-0.058,0.233c-0.546,0.248-1.175,0.592-1.242,0.702
			C3.899,42.337,3.805,42.385,3.687,42.362L3.687,42.362z"/>
	</g>
	<g>
		<g>
			<path style="fill:#9A9383;" d="M14.147,38.563c0,0-0.621,0.768-0.65,0.968L14.147,38.563z"/>
		</g>
		<path style="fill:#827E69;" d="M13.469,39.698L13.469,39.698c-0.113-0.022-0.193-0.113-0.181-0.202
			c0.035-0.224,0.534-0.852,0.683-1.04c0.065-0.075,0.191-0.095,0.285-0.03c0.101,0.054,0.131,0.163,0.063,0.236
			c-0.283,0.358-0.603,0.805-0.621,0.906C13.683,39.658,13.579,39.716,13.469,39.698L13.469,39.698z"/>
	</g>
	<g>
		<g>
			<path style="fill:#9A9383;" d="M13.996,37.909c0,0-0.838,0.106-0.895,0.459L13.996,37.909z"/>
		</g>
		<path style="fill:#827E69;" d="M13.074,38.54c-0.109-0.024-0.191-0.111-0.179-0.207c0.068-0.455,0.95-0.58,1.048-0.596
			c0.111-0.014,0.225,0.051,0.249,0.144c0.032,0.095-0.036,0.182-0.147,0.199c-0.283,0.037-0.714,0.165-0.742,0.325
			C13.29,38.498,13.188,38.559,13.074,38.54L13.074,38.54z"/>
	</g>
	<g>
		<g>
			<path style="fill:#9A9383;" d="M12.756,32.706c0,0-0.655,0.559-0.809,0.733L12.756,32.706z"/>
		</g>
		<path style="fill:#827E69;" d="M11.92,33.607c-0.027-0.006-0.059-0.018-0.091-0.035c-0.092-0.058-0.118-0.164-0.054-0.24
			c0.161-0.187,0.798-0.73,0.827-0.754c0.077-0.063,0.208-0.059,0.29,0.008c0.086,0.07,0.095,0.182,0.016,0.242
			c-0.177,0.155-0.671,0.582-0.79,0.721C12.079,33.605,12,33.622,11.92,33.607L11.92,33.607z"/>
	</g>
	<g>
		<g>
			<path style="fill:#9A9383;" d="M12.646,31.335l-0.995,0.757L12.646,31.335z"/>
		</g>
		<path style="fill:#827E69;" d="M11.624,32.258c-0.045-0.006-0.087-0.027-0.121-0.057c-0.079-0.076-0.083-0.185,0-0.247
			l1.001-0.752c0.078-0.062,0.209-0.051,0.289,0.025c0.08,0.073,0.079,0.179,0,0.237l-1,0.758
			C11.746,32.258,11.684,32.267,11.624,32.258L11.624,32.258z"/>
	</g>
	<g>
		<g>
			<path style="fill:#9A9383;" d="M37.127,25.72l0.52-0.481L37.127,25.72z"/>
		</g>
		<path style="fill:#827E69;" d="M37.103,25.884c-0.037-0.007-0.074-0.02-0.106-0.044c-0.084-0.065-0.101-0.175-0.023-0.244
			l0.514-0.476c0.073-0.071,0.201-0.07,0.288-0.003c0.089,0.065,0.105,0.177,0.03,0.244l-0.516,0.477
			C37.244,25.883,37.17,25.895,37.103,25.884L37.103,25.884z"/>
	</g>
	<g>
		<g>
			<path style="fill:#9A9383;" d="M38.186,26.686c0,0,0.191-0.434,0.346-0.611L38.186,26.686z"/>
		</g>
		<path style="fill:#827E69;" d="M38.161,26.855c-0.019-0.005-0.028-0.012-0.047-0.014c-0.106-0.038-0.162-0.144-0.122-0.226
			c0.021-0.05,0.206-0.461,0.37-0.648c0.061-0.076,0.189-0.084,0.284-0.027c0.094,0.059,0.121,0.167,0.058,0.242
			c-0.114,0.135-0.27,0.463-0.323,0.575C38.346,26.833,38.254,26.869,38.161,26.855L38.161,26.855z"/>
	</g>
	<g>
		<g>
			<path style="fill:#9A9383;" d="M61.275,31.09l0.382-0.447L61.275,31.09z"/>
		</g>
		<path style="fill:#827E69;" d="M61.245,31.261c-0.028-0.005-0.062-0.016-0.082-0.036c-0.1-0.059-0.123-0.167-0.066-0.239
			l0.386-0.45c0.066-0.071,0.191-0.082,0.292-0.026c0.096,0.061,0.116,0.168,0.052,0.239L61.444,31.2
			C61.4,31.254,61.323,31.273,61.245,31.261L61.245,31.261z"/>
	</g>
	<g>
		<g>
			<path style="fill:#9A9383;" d="M61.931,31.78l0.846-0.574L61.931,31.78z"/>
		</g>
		<path style="fill:#827E69;" d="M61.902,31.946c-0.048-0.006-0.092-0.027-0.131-0.065c-0.072-0.071-0.068-0.18,0.025-0.24
			l0.84-0.573c0.084-0.055,0.213-0.041,0.292,0.034c0.078,0.075,0.069,0.183-0.013,0.24l-0.85,0.579
			C62.019,31.95,61.959,31.958,61.902,31.946L61.902,31.946z"/>
	</g>
	<g>
		<g>
			<path style="fill:#9A9383;" d="M63.572,38.875l0.5-0.326L63.572,38.875z"/>
		</g>
		<path style="fill:#827E69;" d="M63.549,39.045c-0.047-0.011-0.091-0.035-0.127-0.067c-0.076-0.075-0.071-0.181,0.013-0.24
			l0.499-0.327c0.084-0.055,0.213-0.039,0.287,0.037c0.076,0.075,0.065,0.183-0.019,0.242l-0.489,0.324
			C63.664,39.042,63.606,39.051,63.549,39.045L63.549,39.045z"/>
	</g>
	<g>
		<g>
			<path style="fill:#9A9383;" d="M64.361,39.95c0.202-0.066,1.482-0.198,1.482-0.198L64.361,39.95z"/>
		</g>
		<path style="fill:#827E69;" d="M64.337,40.115c-0.066-0.007-0.127-0.047-0.155-0.104c-0.056-0.087-0.012-0.186,0.087-0.222
			c0.213-0.072,1.317-0.186,1.537-0.21c0.112-0.014,0.218,0.052,0.245,0.147c0.027,0.098-0.047,0.184-0.155,0.193
			c-0.626,0.065-1.333,0.152-1.441,0.188C64.418,40.124,64.377,40.126,64.337,40.115L64.337,40.115z"/>
	</g>
	<g>
		<g>
			<path style="fill:#9A9383;" d="M53.746,37.264l0.895-0.877L53.746,37.264z"/>
		</g>
		<path style="fill:#827E69;" d="M53.721,37.436c-0.036-0.009-0.07-0.022-0.101-0.048c-0.092-0.062-0.104-0.172-0.035-0.237
			l0.894-0.878c0.068-0.07,0.197-0.076,0.29-0.01c0.095,0.065,0.107,0.173,0.035,0.241l-0.897,0.878
			C53.859,37.43,53.79,37.446,53.721,37.436L53.721,37.436z"/>
	</g>
	<g>
		<g>
			<path style="fill:#9A9383;" d="M54.379,38.104c0.21-0.118,0.923-0.664,0.923-0.664L54.379,38.104z"/>
		</g>
		<path style="fill:#827E69;" d="M54.359,38.272c-0.058-0.01-0.109-0.036-0.144-0.072c-0.068-0.084-0.057-0.188,0.042-0.237
			c0.154-0.095,0.706-0.506,0.898-0.653c0.082-0.062,0.214-0.052,0.295,0.021c0.081,0.074,0.083,0.179,0,0.241
			c-0.074,0.053-0.733,0.559-0.943,0.679C54.461,38.273,54.407,38.283,54.359,38.272L54.359,38.272z"/>
	</g>
	<g>
		<g>
			<path style="fill:#9A9383;" d="M24.091,28.981l1.017-0.854L24.091,28.981z"/>
		</g>
		<path style="fill:#827E69;" d="M24.063,29.146c-0.041-0.007-0.077-0.022-0.113-0.051c-0.081-0.063-0.089-0.176-0.012-0.24
			l1.015-0.856c0.079-0.062,0.209-0.058,0.293,0.011c0.085,0.07,0.09,0.181,0.013,0.242l-1.016,0.854
			C24.199,29.146,24.13,29.162,24.063,29.146L24.063,29.146z"/>
	</g>
	<g>
		<g>
			<path style="fill:#9A9383;" d="M27.157,29.223l0.927-0.667L27.157,29.223z"/>
		</g>
		<path style="fill:#827E69;" d="M27.135,29.389c-0.047-0.008-0.091-0.029-0.124-0.058c-0.08-0.08-0.079-0.186,0.001-0.245
			l0.93-0.665c0.083-0.058,0.208-0.048,0.286,0.026c0.083,0.074,0.08,0.182-0.002,0.244l-0.927,0.665
			C27.253,29.39,27.195,29.398,27.135,29.389L27.135,29.389z"/>
	</g>
	<g>
		<g>
			<path style="fill:#9A9383;" d="M23.337,22.254l0.216-0.584L23.337,22.254z"/>
		</g>
		<path style="fill:#827E69;" d="M23.313,22.418c-0.011,0.003-0.024,0.001-0.033,0c-0.107-0.041-0.173-0.139-0.141-0.229
			l0.216-0.583c0.032-0.089,0.149-0.13,0.257-0.093c0.113,0.034,0.171,0.131,0.141,0.221l-0.216,0.582
			C23.509,22.395,23.412,22.439,23.313,22.418L23.313,22.418z"/>
	</g>
	<g>
		<g>
			<path style="fill:#9A9383;" d="M25.712,22.887c0.147-0.127,1.312-0.698,1.312-0.698L25.712,22.887z"/>
		</g>
		<path style="fill:#827E69;" d="M25.687,23.058c-0.037-0.009-0.079-0.022-0.108-0.051c-0.087-0.065-0.1-0.177-0.024-0.245
			c0.158-0.137,1.153-0.626,1.349-0.724c0.097-0.047,0.226-0.018,0.286,0.067c0.066,0.085,0.042,0.188-0.05,0.232
			c-0.561,0.276-1.191,0.602-1.268,0.676C25.821,23.054,25.752,23.066,25.687,23.058L25.687,23.058z"/>
	</g>
	<g>
		<g>
			<path style="fill:#9A9383;" d="M44.449,22.153l0.275-0.987L44.449,22.153z"/>
		</g>
		<path style="fill:#827E69;" d="M44.424,22.326c-0.01-0.007-0.014-0.006-0.019-0.007c-0.11-0.028-0.182-0.127-0.158-0.218
			l0.274-0.991c0.028-0.088,0.135-0.139,0.249-0.107c0.112,0.032,0.183,0.125,0.159,0.215l-0.28,0.986
			C44.625,22.295,44.53,22.342,44.424,22.326L44.424,22.326z"/>
	</g>
	<g>
		<g>
			<path style="fill:#9A9383;" d="M45.377,22.268l0.251-0.369L45.377,22.268z"/>
		</g>
		<path style="fill:#827E69;" d="M45.358,22.439c-0.025-0.004-0.054-0.016-0.071-0.025c-0.104-0.053-0.145-0.16-0.092-0.238
			l0.25-0.368c0.051-0.08,0.175-0.104,0.279-0.056c0.101,0.058,0.14,0.159,0.086,0.24l-0.246,0.373
			C45.524,22.424,45.439,22.449,45.358,22.439L45.358,22.439z"/>
	</g>
	<path style="opacity:0.23;fill:#808285;" d="M65.369,33.837c-3.507,1.314-8.365,5.183-16.285-0.225s-17.832,0.489-25.2,3.055
		C5.654,43.014,6.099,56.063,6.099,56.063c-4.237-1.919-1.881-2.756-3.11-1.768c0.11,0.243-0.111,2.035,0,2.261
		c5.105-1.958,3.781,1.519,3.781,1.519c-0.391-16.706,14.699-16.69,14.699-16.69c13.322-7.56,18.104-8.484,24.159-4.997
		c6.056,3.484,12.409,1.262,18.085,2.627c6.464,1.557,10.119-7.145,10.996-0.429c0.035,0.268,0.057,0.528,0.069,0.794
		c0.004,0.055,0.008,0.112,0.009,0.172c0.008,0.246,0.008,0.492,0.003,0.732c-0.001,0.005-0.004,0.01-0.001,0.015
		c-0.019,0.545,0.938,2.143,0.84,2.66c0.112-0.307,0.85-0.547,0.907-0.868c0.183-1.051-1.412-3.28-1.456-4.371
		C73.489,31.505,68.108,32.813,65.369,33.837z"/>
</g>
<g id="Layer_1">
</g>
</svg>
