<?xml version="1.0" encoding="iso-8859-1"?>
<!-- Generator: Adobe Illustrator 15.0.0, SVG Export Plug-In . SVG Version: 6.00 Build 0)  -->
<!DOCTYPE svg PUBLIC "-//W3C//DTD SVG 1.1//EN" "http://www.w3.org/Graphics/SVG/1.1/DTD/svg11.dtd">
<svg version="1.1" xmlns="http://www.w3.org/2000/svg" xmlns:xlink="http://www.w3.org/1999/xlink" x="0px" y="0px" width="80px"
	 height="80px" viewBox="0 0 80 80" style="enable-background:new 0 0 80 80;" xml:space="preserve">
<g id="ico-hair-boy-1">
	<g>
		<defs>
			<rect id="SVGID_1_" width="80" height="80"/>
		</defs>
		<clipPath id="SVGID_2_">
			<use xlink:href="#SVGID_1_"  style="overflow:visible;"/>
		</clipPath>
		<g style="clip-path:url(#SVGID_2_);">
			<path style="fill:none;" d="M59.746,0H20.253C9.068,0,0,9.066,0,20.253v39.493C0,70.932,9.068,80,20.253,80h39.493
				C70.932,80,80,70.932,80,59.746V20.253C80,9.066,70.932,0,59.746,0z"/>
		</g>
	</g>
	<g>
		<g>
			<g>
				<path style="fill:#A7A9AC;" d="M73.143,36.778c-1.872-12.901-7.477-18.11-7.477-18.11c-0.266-2.318-4.885-7.312-11.082-8.79
					c-6.199-1.469-17.268-3.611-27.282,6.041C20.879,22.116,14.59,28.124,8.861,33.988C3.137,39.857,2.944,47.92,2.944,47.92
					s0,0,1.822,1.248c1.053-2.958,5.076-6.743,5.076-6.743s-3.31,4.056-3.851,9.221c2.796,2.564,6.359,4.081,6.359,4.081
					s0.59-2.959,3.285-7.393c-2.485,5.105-1.992,9.258-1.992,9.258l2.224,0.975c0,0,0.204-2.903,1.638-5.04
					c-1.337,3.879-0.833,6.195-0.833,6.195l8.449,5.383c0,0,0.943-0.366,1.755-0.922c0,0-6.299-4.724-4.202-13.217
					c-3.73,0.79-4.539-6.03-2.606-8.126c2.051-1.636,3.211-0.675,3.81,0.365c0.308-3.97,0.084-6.707,0.084-6.707l2.268,0.498
					c0,0,2.277-8.288,8.74-11.278c-3.942,3.94-5.975,9.878-5.975,9.878s3.063,2.534,10.459,3.204
					c2.114-3.806,3.659-7.992,3.659-7.992l-2.351,7.997c0,0,2.435,0.799,4.563,0.723c5.089-5.265,6.813-8.225,6.813-8.225
					s-1.399,5.677-3.784,8.223c4.694,1.417,6.743,1.069,6.743,1.069s2.772-3.394,4.624-6.591c-1.412,4.749-2.994,7.334-2.994,7.334
					l4.778,0.637l2.017-2.886c-0.318,3.818-0.797,6.916-1.021,10.677c0.717-1.054,1.83-2.09,3.278-1.409
					c2.188,1.27,2.438,4.657,0.983,7.935c-1.139,2.569-3.072,3.165-4.504,1.678c-0.221,3.637-1.003,7.174-4.043,10.565
					c3.565-2.119,4.713-4.559,4.713-4.559l-0.031,5.178c0,0,0,0,2.611-0.887c2.125-1.007,2.09-6.479,2.09-6.479
					s0.484,3.037,0.458,6.221c2.756-0.332,4.554-2.071,4.554-2.071S75.017,49.694,73.143,36.778z"/>
				<path style="fill:#A7A9AC;" d="M25.101,65.325c-0.017,0.003-0.031-0.005-0.048-0.015l-8.45-5.396
					c-0.042-0.022-0.076-0.079-0.086-0.135c-0.022-0.088-0.357-1.731,0.31-4.543c-0.591,1.513-0.761,2.983-0.788,3.293
					c-0.006,0.029,0,0.052-0.001,0.084c-0.016,0.116-0.104,0.176-0.197,0.179l-0.03-0.016l-2.22-0.973
					c-0.057-0.029-0.103-0.104-0.113-0.182c-0.017-0.144-0.32-2.88,0.897-6.643c-1.474,2.929-1.859,4.779-1.863,4.798
					c-0.016,0.056-0.039,0.116-0.081,0.136c-0.034,0.024-0.084,0.033-0.126,0.011c-0.038-0.009-3.62-1.546-6.406-4.106
					c-0.046-0.045-0.08-0.123-0.072-0.214c0.328-3.091,1.646-5.811,2.652-7.51c-1.247,1.369-2.949,3.439-3.563,5.172
					C4.9,49.322,4.86,49.363,4.82,49.383c-0.04,0.012-0.086,0.01-0.126-0.021L2.867,48.12c-0.059-0.049-0.091-0.13-0.086-0.223
					c0-0.072,0.258-8.215,5.979-14.073c5.09-5.224,10.528-10.464,16.29-16.01l2.16-2.077c9.136-8.812,19.121-7.893,25.835-6.433
					c0.55,0.116,1.074,0.236,1.563,0.354c6.011,1.435,10.813,6.26,11.203,8.884c0.611,0.61,5.734,6.062,7.496,18.207
					c1.861,12.815-0.51,29.074-0.535,29.237c-0.004,0.062-0.027,0.102-0.063,0.139c-0.07,0.066-1.866,1.776-4.634,2.102
					c-0.048,0.008-0.099-0.01-0.129-0.057c-0.038-0.039-0.06-0.104-0.052-0.172c0.01-1.615-0.112-3.216-0.23-4.372
					c-0.186,1.734-0.691,4.158-2.094,4.841l-2.629,0.896c-0.055,0.025-0.104,0.01-0.148-0.046c-0.035-0.037-0.061-0.093-0.063-0.17
					l0.029-4.517c-0.545,0.856-1.876,2.56-4.469,4.098c-0.074,0.059-0.163,0.023-0.205-0.083c-0.052-0.089-0.042-0.21,0.025-0.289
					c3.166-3.538,3.789-7.248,3.983-10.421c-0.001-0.07,0.04-0.146,0.094-0.169c0.058-0.032,0.13-0.018,0.173,0.027
					c0.362,0.384,0.768,0.622,1.195,0.716c1.157,0.25,2.309-0.621,3.063-2.334c0.836-1.89,1.1-3.824,0.715-5.326
					c-0.26-1.034-0.816-1.831-1.615-2.295c-0.15-0.066-0.311-0.115-0.471-0.145c-1.147-0.256-2.059,0.677-2.615,1.497
					c-0.059,0.075-0.131,0.092-0.196,0.058c-0.063-0.043-0.108-0.142-0.106-0.224c0.139-2.174,0.35-4.104,0.572-6.12
					c0.131-1.238,0.275-2.523,0.395-3.884l-1.666,2.393c-0.037,0.045-0.085,0.072-0.14,0.066l-4.772-0.632
					c-0.061-0.01-0.114-0.059-0.139-0.146c-0.027-0.064-0.016-0.153,0.023-0.217c0.008-0.028,1.26-2.09,2.51-5.836
					c-1.76,2.765-3.877,5.363-3.9,5.384c-0.031,0.037-0.059,0.045-0.094,0.067c-0.047,0.004-1.371,0.215-4.293-0.429
					c-0.786-0.162-1.641-0.383-2.508-0.65c-0.063-0.012-0.109-0.075-0.127-0.159c-0.014-0.079,0.006-0.163,0.05-0.225
					c1.683-1.791,2.876-5.21,3.421-6.988c-0.886,1.259-2.809,3.79-6.231,7.342c-0.028,0.037-0.059,0.043-0.089,0.047
					c-1.117,0.043-2.313-0.161-3.12-0.337c-0.869-0.185-1.492-0.379-1.499-0.383c-0.045-0.022-0.087-0.063-0.111-0.118
					c-0.019-0.063-0.02-0.126-0.003-0.19l1.381-4.712c-0.635,1.447-1.461,3.228-2.4,4.909c-0.042,0.063-0.088,0.089-0.145,0.093
					c-1.377-0.122-2.707-0.324-3.94-0.602c-4.547-0.979-6.518-2.563-6.598-2.636c-0.07-0.055-0.1-0.177-0.064-0.272
					c0.022-0.063,1.798-5.181,5.163-9.041c-5.539,3.268-7.601,10.536-7.622,10.609c-0.024,0.092-0.099,0.16-0.177,0.139
					l-2.065-0.445c0.051,0.789,0.145,3.2-0.091,6.392c0.002,0.022,0,0.043,0,0.072c-0.013,0.13-0.104,0.186-0.19,0.185
					c-0.045-0.013-0.087-0.046-0.11-0.089c-0.821-1.403-2.061-1.516-3.591-0.296c-0.846,0.913-1.173,2.949-0.77,4.816
					c0.457,2.105,1.689,3.231,3.251,2.905c0.063-0.021,0.12,0.008,0.161,0.072c0.039,0.06,0.034,0.146,0.033,0.204
					c-0.14,8.119,2.806,11.067,2.848,11.129c0.733,1.061,1.523,2.007,1.52,2.078c-0.008,0.068-0.216,0.251-0.27,0.282l-1.73,0.784
					C25.172,65.329,25.136,65.332,25.101,65.325z M16.816,59.578l8.304,5.284l1.404-0.587c-0.963-1.059-5.763-5.662-4.09-13.046
					c-0.296,0.035-0.589,0.022-0.863-0.039l0,0c-1.199-0.268-2.109-1.436-2.504-3.224c-0.432-2.041-0.063-4.257,0.895-5.299
					c1.563-1.247,2.869-1.201,3.787,0.001c0.246-3.624,0.05-6.119,0.052-6.158c-0.006-0.067,0.011-0.13,0.049-0.174
					c0.037-0.044,0.085-0.063,0.134-0.057l2.137,0.46c0.369-1.181,2.839-8.478,8.796-11.228c0.08-0.045,0.164-0.002,0.202,0.103
					c0.042,0.093,0.02,0.219-0.046,0.277c-3.474,3.472-5.479,8.596-5.857,9.615c0.513,0.366,2.504,1.651,6.336,2.48
					c1.202,0.263,2.479,0.456,3.819,0.58c2.054-3.718,3.577-7.816,3.592-7.871c0.038-0.093,0.138-0.14,0.22-0.087
					c0.081,0.053,0.119,0.177,0.086,0.275l-2.278,7.761c0.243,0.086,0.705,0.218,1.278,0.345c0.781,0.16,1.924,0.349,2.996,0.327
					c4.972-5.177,6.726-8.124,6.736-8.149c0.048-0.089,0.14-0.118,0.215-0.057c0.075,0.049,0.108,0.159,0.08,0.261
					c-0.058,0.231-1.34,5.384-3.582,8.034c0.748,0.215,1.477,0.412,2.16,0.553c2.557,0.56,3.887,0.45,4.151,0.421
					c0.343-0.429,2.864-3.579,4.557-6.511c0.062-0.084,0.148-0.101,0.218-0.056c0.074,0.068,0.104,0.181,0.078,0.269
					c-1.125,3.813-2.371,6.245-2.834,7.072l4.393,0.597l1.968-2.816c0.044-0.071,0.12-0.083,0.189-0.048
					c0.058,0.051,0.109,0.14,0.091,0.235c-0.131,1.624-0.295,3.117-0.459,4.556c-0.195,1.847-0.389,3.573-0.522,5.493
					c0.962-1.181,2.042-1.533,3.132-1.018c0.9,0.524,1.531,1.402,1.814,2.563c0.416,1.624,0.139,3.695-0.738,5.69
					c-0.828,1.871-2.103,2.819-3.402,2.539c-0.387-0.097-0.764-0.291-1.107-0.579c-0.2,2.853-0.804,6.116-3.21,9.289
					c2.659-1.872,3.595-3.786,3.601-3.812c0.045-0.075,0.111-0.113,0.19-0.08c0.063,0.032,0.114,0.118,0.124,0.219l-0.049,4.887
					l2.404-0.815c1.982-0.947,1.973-6.207,1.966-6.265c0.003-0.11,0.074-0.208,0.152-0.211c0.087-0.021,0.167,0.064,0.187,0.179
					c0.006,0.022,0.461,2.933,0.457,6.014c2.322-0.345,3.936-1.699,4.236-1.962c0.18-1.289,2.299-16.751,0.519-28.979
					c-1.837-12.665-7.354-17.931-7.407-17.98c-0.033-0.038-0.059-0.095-0.074-0.15c-0.235-2.12-4.681-7.105-10.938-8.605
					c-0.49-0.115-1.01-0.236-1.557-0.352C46.34,8.3,36.441,7.385,27.405,16.095l-2.156,2.08C19.49,23.724,14.05,28.952,8.965,34.161
					c-5.187,5.327-5.787,12.541-5.85,13.638l1.575,1.068c1.155-2.937,4.894-6.481,5.051-6.629c0.075-0.069,0.168-0.04,0.23,0.043
					c0.052,0.101,0.046,0.232-0.013,0.308c-0.033,0.035-3.219,3.997-3.786,8.953c2.402,2.171,5.36,3.576,6.065,3.907
					c0.194-0.777,0.963-3.456,3.269-7.253c0.05-0.093,0.147-0.103,0.227-0.042c0.067,0.074,0.087,0.203,0.042,0.304
					c-2.172,4.463-2.038,8.233-1.98,8.973l1.93,0.846c0.086-0.772,0.446-3.086,1.659-4.909c0.052-0.075,0.144-0.092,0.213-0.025
					c0.072,0.06,0.103,0.179,0.062,0.285C16.517,56.937,16.74,59.098,16.816,59.578z"/>
			</g>
			<g style="opacity:0.3;">
				<path style="fill:#A7A9AC;" d="M73.143,36.778c-1.872-12.901-7.477-18.11-7.477-18.11c-0.266-2.318-4.885-7.312-11.082-8.79
					c-4.371-1.034-11.155-2.396-18.287,0.262l0.011,0.006c0,0,22.845-3.532,28.079,8.002c-1.523-1.721-2.799-2.167-2.799-2.167
					s2.775,2.333,4.537,6.873c-0.046-2.081-0.046-2.081-0.046-2.081s6.423,9.014,7.017,22.148
					c0.508,8.951-0.076,10.731-0.076,10.731l-1.797,0.824c0,0-0.049-19.596-5.785-27.607c0.254,3.87-2.173,8.201-2.173,8.201
					l-0.694-0.846c0,0,1.227-6.672-0.754-10.407c-1.188,5.128-5.32,9.431-5.32,9.431l-1.551-1.539c0,0,2.667-5.327-0.846-10.766
					c-1.373,5.604-7.025,10.613-7.025,10.613l-1.36-0.816c0,0,1.094-7.91,1.246-11.854c-3.725,5.422-5.934,10.15-5.934,10.15
					l0.761-5.913l-4.512,7.872l-1.856-1.098c0,0,2.625-6.187,5.93-10.151c-5.026,0.294-12.504,7.684-12.504,7.684
					s0.696-6.612,10.259-10.078c-6.675-2.844-12.03-3.14-20.073,10.901c-2.801,5.457-3.834,10.265-5.134,11.363
					c-1.299,1.108-3.982,9.196-3.982,9.196l-1.933-1.641c0,0,0.555-4.029,5.484-9.721c-4.051,1.035-6.965,6.299-6.965,6.299
					l-0.763-2.776c0,0,5.291-7.876,10.286-12.855c4.118-4.113,9.611-10.277,11.408-12.32c-0.036,0.034-0.085,0.079-0.131,0.12
					C20.879,22.116,14.59,28.124,8.861,33.988C3.137,39.857,2.944,47.92,2.944,47.92s0,0,1.822,1.248
					c1.053-2.958,5.076-6.743,5.076-6.743s-3.31,4.056-3.851,9.221c2.796,2.564,6.359,4.081,6.359,4.081s0.59-2.959,3.285-7.393
					c-2.485,5.105-1.992,9.258-1.992,9.258l2.224,0.975c0,0,0.204-2.903,1.638-5.04c-1.337,3.879-0.833,6.195-0.833,6.195
					l8.449,5.383c0,0,1.446-0.282,2.256-0.838c0,0-4.859-4.961-4.703-13.301c-3.73,0.79-4.539-6.03-2.606-8.126
					c2.051-1.636,3.211-0.675,3.81,0.365c0.308-3.97,0.084-6.707,0.084-6.707l2.268,0.498c0,0,2.277-8.288,8.74-11.278
					c-3.942,3.94-5.975,9.878-5.975,9.878s3.063,2.534,10.459,3.204c2.114-3.806,3.659-7.992,3.659-7.992l-2.351,7.997
					c0,0,2.435,0.799,4.563,0.723c5.089-5.265,6.813-8.225,6.813-8.225s-1.399,5.677-3.784,8.223
					c4.694,1.417,6.743,1.069,6.743,1.069s2.772-3.394,4.624-6.591c-1.412,4.749-2.994,7.334-2.994,7.334l4.778,0.637l2.017-2.886
					c-0.318,3.818-0.797,6.916-1.021,10.677c0.717-1.054,1.83-2.09,3.278-1.409c2.188,1.27,2.438,4.657,0.983,7.935
					c-1.139,2.569-3.072,3.165-4.504,1.678c-0.221,3.637-1.003,7.174-4.043,10.565c3.565-2.119,4.713-4.559,4.713-4.559
					l-0.031,5.178c0,0,0,0,2.611-0.887c2.125-1.007,2.09-6.479,2.09-6.479s0.484,3.037,0.458,6.221
					c2.756-0.332,4.554-2.071,4.554-2.071S75.017,49.694,73.143,36.778z"/>
			</g>
			<g style="opacity:0.5;">
				<path style="fill:#A7A9AC;" d="M61.813,39.334l-2.157-0.785c0,0,2.066-3.905,1.991-9.991c-1.621,4.162-6.17,9.4-6.17,9.4
					l-3.768-1.139c0,0,3.217-5.976,2.442-12.059c-3.484,6.247-8.753,11.627-8.753,11.627l-2.109-0.151l2.057-12.913l-6.435,11.971
					l1.576-9.452l-3.222,9.4l-4.494-2.067c0,0,1.525-5.566,5.879-11.148c-8.077,0.586-11.756,10.976-11.756,10.976l-0.783-0.33
					c0,0,0.928-5.542,4.478-10.218c-5.395,3.186-8.55,9.649-8.55,9.649s0,0-1.168-0.104c1.272-9.816,13.831-15.029,13.258-15.144
					c-0.58-0.142-6.563-1.431-11.962,7.355c-5.404,8.767-4.542,14.079-7.162,17.71c-3.832,4.604-4.802,9.441-4.941,12.632
					c1.318,0.75,2.288,1.174,2.288,1.174s0.59-2.959,3.285-7.393c-2.485,5.105-1.992,9.258-1.992,9.258l2.224,0.975
					c0,0,0.204-2.903,1.638-5.04c-1.337,3.879-0.833,6.195-0.833,6.195l8.449,5.383c0,0,1.446-0.282,2.256-0.838
					c0,0-6.801-4.808-4.703-13.301c-3.73,0.79-4.539-6.03-2.606-8.126c2.051-1.636,3.211-0.675,3.81,0.365
					c0.308-3.97,0.084-6.707,0.084-6.707l2.268,0.498c0,0,2.277-8.288,8.74-11.278c-3.942,3.94-5.975,9.878-5.975,9.878
					s3.063,2.534,10.459,3.204c2.114-3.806,3.659-7.992,3.659-7.992l-2.351,7.997c0,0,2.435,0.799,4.563,0.723
					c5.089-5.265,6.813-8.225,6.813-8.225s-1.399,5.677-3.784,8.223c4.694,1.417,6.743,1.069,6.743,1.069s2.772-3.394,4.624-6.591
					c-1.412,4.749-2.994,7.334-2.994,7.334l4.778,0.637l2.017-2.886c-0.318,3.818-0.797,6.916-1.021,10.677
					c0.717-1.054,1.83-2.09,3.278-1.409c2.188,1.27,2.438,4.657,0.983,7.935c-1.139,2.569-3.072,3.165-4.504,1.678
					c-0.221,3.637-1.003,7.174-4.043,10.565c3.565-2.119,4.713-4.559,4.713-4.559l-0.031,5.178c0,0,0,0,2.611-0.887
					c2.125-1.007,2.09-6.479,2.09-6.479s0.484,3.037,0.458,6.221c0.432-0.049,0.843-0.141,1.227-0.248
					c1.458-25.003-3.271-35.915-3.271-35.915C65.254,36.804,61.813,39.334,61.813,39.334z"/>
			</g>
		</g>
		<path style="fill:#A7A9AC;" d="M30.996,17.203c-0.85,0.251-1.683,0.618-2.485,1.054c-0.407,0.218-0.803,0.466-1.188,0.713
			c-0.389,0.264-0.767,0.529-1.142,0.817c-0.376,0.296-0.743,0.61-1.097,0.932l-0.531,0.49l-0.513,0.528
			c-0.335,0.363-0.657,0.73-0.97,1.134c-0.155,0.19-0.312,0.393-0.46,0.609c-0.148,0.195-0.308,0.396-0.441,0.62l-0.423,0.647
			l-0.392,0.67c-0.262,0.459-0.521,0.921-0.742,1.403l-0.343,0.722l-0.309,0.761c-0.212,0.496-0.388,1.013-0.567,1.55
			c-0.155,0.535-0.328,1.041-0.459,1.603c-0.065,0.268-0.139,0.535-0.208,0.812l-0.174,0.83c-0.126,0.554-0.191,1.125-0.289,1.679
			c-0.082,0.564-0.143,1.141-0.21,1.702l-0.159-0.25l3.608,0.265l-0.161,0.159c0.092-0.487,0.204-0.951,0.328-1.4
			c0.119-0.461,0.252-0.914,0.397-1.363c0.144-0.438,0.298-0.881,0.466-1.304c0.093-0.217,0.17-0.438,0.265-0.639l0.281-0.631
			l0.308-0.594c0.107-0.208,0.22-0.387,0.34-0.578c0.218-0.388,0.474-0.74,0.723-1.09l0.418-0.477
			c0.124-0.175,0.285-0.313,0.434-0.456c0.147-0.135,0.291-0.289,0.454-0.393l0.49-0.356c0.048-0.036,0.108-0.006,0.139,0.053
			c0.019,0.051,0.015,0.11-0.013,0.149l-0.006,0.008c-0.187,0.313-0.38,0.597-0.548,0.931c-0.177,0.325-0.332,0.654-0.479,0.987
			c-0.085,0.155-0.148,0.351-0.222,0.512c-0.071,0.181-0.151,0.349-0.209,0.529c-0.13,0.353-0.253,0.715-0.368,1.085
			c-0.12,0.357-0.223,0.734-0.319,1.112c-0.1,0.375-0.184,0.752-0.278,1.144c-0.157,0.764-0.292,1.543-0.379,2.331
			c0.067-0.79,0.187-1.587,0.328-2.357c0.079-0.398,0.152-0.781,0.245-1.162c0.086-0.381,0.187-0.759,0.292-1.125
			c0.104-0.374,0.226-0.749,0.345-1.118c0.065-0.177,0.135-0.357,0.202-0.541c0.074-0.172,0.128-0.354,0.208-0.522
			c0.152-0.352,0.308-0.698,0.483-1.014c0.163-0.347,0.366-0.651,0.545-0.968l0.126,0.203l-0.465,0.357
			c-0.157,0.107-0.292,0.255-0.44,0.399c-0.132,0.143-0.29,0.282-0.416,0.437l-0.385,0.49c-0.241,0.336-0.491,0.678-0.699,1.07
			c-0.105,0.179-0.225,0.368-0.318,0.57l-0.301,0.588l-0.265,0.605c-0.096,0.211-0.17,0.436-0.252,0.634
			c-0.169,0.426-0.317,0.861-0.456,1.288c-0.141,0.443-0.274,0.896-0.386,1.34c-0.121,0.451-0.227,0.909-0.312,1.365
			c-0.012,0.088-0.078,0.148-0.159,0.149l-3.598-0.24l-0.005-0.003c-0.09,0.007-0.156-0.102-0.156-0.214l0.004-0.03
			c0.065-0.583,0.123-1.157,0.21-1.73c0.103-0.576,0.179-1.151,0.301-1.693l0.188-0.854c0.063-0.281,0.141-0.557,0.208-0.833
			c0.134-0.562,0.309-1.087,0.479-1.624c0.709-2.126,1.665-4.122,2.859-5.825c0.143-0.211,0.304-0.408,0.459-0.622
			c0.15-0.194,0.308-0.408,0.466-0.596c0.327-0.396,0.665-0.757,1.009-1.123l0.525-0.515l0.538-0.495
			c0.365-0.315,0.743-0.612,1.121-0.899c0.384-0.283,0.771-0.533,1.172-0.787c0.404-0.233,0.803-0.464,1.211-0.663
			C29.293,17.759,30.136,17.407,30.996,17.203z"/>
		<path style="fill:#A7A9AC;" d="M60.99,15.069c0,0-5.387-5.335-14.943-4.526C47.697,8.664,56.719,9.491,60.99,15.069z"/>
		<path style="fill:#A7A9AC;" d="M66.843,22.903c0,0,4.44,8.642,4.669,16.868C72.535,36.95,70.313,25.74,66.843,22.903z"/>
		<path style="fill:#A7A9AC;" d="M52.752,18.405c0,0-1.07,5.531-4.611,9.251C50.562,26.569,52.509,23.004,52.752,18.405z"/>
		<path style="fill:#A7A9AC;" d="M60.674,21.564c0,0-1.065,5.531-4.611,9.251C58.477,29.733,60.431,26.16,60.674,21.564z"/>
		<path style="fill:#A7A9AC;" d="M46.346,17.812c0,0-2.841,3.589-3.703,6.279C41.783,26.772,43.317,19.066,46.346,17.812z"/>
		<path style="fill:#A7A9AC;" d="M17.105,27.466c0,0-4.577,4.586-7.119,9.277C9.382,37.638,10.181,32.394,17.105,27.466z"/>
	</g>
</g>
<g id="Layer_1">
</g>
</svg>
