<?xml version="1.0" encoding="iso-8859-1"?>
<!-- Generator: Adobe Illustrator 15.0.0, SVG Export Plug-In . SVG Version: 6.00 Build 0)  -->
<!DOCTYPE svg PUBLIC "-//W3C//DTD SVG 1.1//EN" "http://www.w3.org/Graphics/SVG/1.1/DTD/svg11.dtd">
<svg version="1.1" xmlns="http://www.w3.org/2000/svg" xmlns:xlink="http://www.w3.org/1999/xlink" x="0px" y="0px"
	 width="79.999px" height="80px" viewBox="0 0 79.999 80" style="enable-background:new 0 0 79.999 80;" xml:space="preserve">
<g id="ico-hair-boy-4">
	<g>
		<defs>
			<rect id="SVGID_1_" width="79.999" height="80"/>
		</defs>
		<clipPath id="SVGID_2_">
			<use xlink:href="#SVGID_1_"  style="overflow:visible;"/>
		</clipPath>
		<g style="clip-path:url(#SVGID_2_);">
			<path style="fill:none;" d="M59.746,0H20.253C9.067,0,0,9.066,0,20.253v39.493C0,70.932,9.067,80,20.253,80h39.493
				c11.186,0,20.253-9.068,20.253-20.254V20.253C79.999,9.066,70.932,0,59.746,0z"/>
		</g>
	</g>
	<g>
		<g>
			<path style="fill:#939598;" d="M75.007,44.146c0.034-17.921-7.396-21.005-7.396-21.005s0.652-0.429,3.275-0.871
				c0,0-3.012-1.886-5.906-0.492c-0.022-3.811-1.35-5.709-1.35-5.709s0,0-0.721,4.136C55.896,7.119,48.311,7.8,37.544,9.242
				C9.836,13.435,6.353,23.683,6.353,23.683s0.189-0.574,3.031-1.021c-6.679,4.904-3.781,12.893-3.781,12.893l1.125-2.008
				c0,0-1.714,4.027,0.082,7.663c1.792,3.636,1.628,1.537,1.628,1.537c1.387-3.368,1.824-5.494,2.646-8.994
				c1.128,0.205,1.128,0.205,1.128,0.205s4.922-6.805,11.762-7.058c-7.097,4.065-8.95,7.358-8.95,7.358s6.753,1.443,8.729,2.807
				c1.948-3.294,6.428-5.968,6.428-5.968s-3.354,3.092-4.643,6.591c3.562,0.19,5.818,1.553,5.818,1.553s2.313-4.354,6.24-5.967
				c-3.073,3.091-4.364,6.696-4.364,6.696l5.543,2.402c0,0,2.886-3.089,5.964-5.118c-2.973,3.829-3.896,6.375-3.896,6.375
				l3.852,1.775c0,0,3.081-2.348,4.934-5.219c-1.942,3.931-2.684,4.995-2.684,4.995l3.723-3.729l-0.061,5.083l2.506-3.615
				c0,0,2.362,13.511-0.128,20.621c2.416-3.3,3.848-3.891,5.487-2.446c1.787,1.579,1.822,7.085-2.097,9.542
				c-3.455,2.032-4.225-1.139-4.229-2.195c-1.104,3.604-3.209,6.511-3.209,6.511c10.612-0.771,13.459-8.895,13.459-8.895
				s0.363,1.356-0.122,2.963c4.094-2.186,7.809-8.206,7.364-11.163c1.14,1.194,1.504,2.549,1.504,2.549
				c2.774-9.376,0.057-13.758,0.057-13.758s1.495,1.271,1.855,2.307c0.535-5.043-1.247-6.95-1.247-6.95S73.152,42.239,75.007,44.146
				z"/>
			<path style="fill:#939598;" d="M48.521,75.195l0.271-0.379c0.022-0.027,2.102-2.919,3.175-6.446l0.358-1.166l0.009,1.235
				c0.004,0.429,0.133,1.098,0.426,1.63c0.662,1.215,1.889,1.346,3.531,0.381c2.611-1.64,3.065-4.364,3.142-5.456
				c0.105-1.598-0.259-3.096-1.021-3.769c-0.377-0.328-0.686-0.631-1.187-0.83c-0.88-0.348-1.429-0.717-3.18,1.674l-0.677,0.769
				l0.275-2.458c-0.82-6.622-0.569-14.153-0.688-16.887l-2.543,3.666l0.063-5.23l-3.407,3.41l-0.271-0.291
				c0,0,0.491-0.718,1.67-2.98c-1.722,2.021-3.641,3.494-3.666,3.513l-0.081,0.063l-4.122-1.898l0.072-0.195
				c0.036-0.097,0.804-2.176,3.154-5.405c-2.625,1.938-4.893,4.354-4.922,4.379l-0.087,0.093l-5.827-2.524l0.07-0.201
				c0.012-0.033,1.121-3.078,3.647-5.956c-3.242,1.81-5.169,5.376-5.19,5.416l-0.09,0.172l-0.16-0.096
				c-0.02-0.014-2.265-1.343-5.741-1.526l-0.265-0.016l0.104-0.278c0.775-2.104,2.261-4.039,3.354-5.278
				c-1.47,1.072-3.627,2.854-4.81,4.854l-0.101,0.169l-0.151-0.107c-1.928-1.326-8.601-2.763-8.668-2.778l-0.273-0.058l0.148-0.266
				c0.074-0.129,1.817-3.135,8.213-6.959c-6.203,0.769-10.675,6.844-10.721,6.91l-0.068,0.093l-1.064-0.195
				c-0.309,1.419-0.393,3.133-0.489,4.945c-0.135,2.601-3.422,5.081-4.24,7.069L6.312,47.27l-0.534-1.692
				c0.005-0.021-0.142-2.687,0.194-5.423c0.354-2.874,0.548-4.673,0.536-5.822l-0.94,1.682l-0.139-0.379
				C5.4,35.556,2.746,27.98,8.612,23.014c-1.828,0.365-2.083,0.747-2.098,0.767L6.18,23.604v-0.001l0,0l0,0
				c0.152-0.445,3.907-10.422,31.341-14.571c2.988-0.4,5.666-0.734,8.187-0.749c9.42-0.056,13.831,5.361,17.11,11.35l0.708-4.055
				l0.256,0.362c0.053,0.08,1.292,1.896,1.38,5.528c0.648-0.268,1.351-0.41,2.087-0.417c2.036-0.011,3.66,0.992,3.728,1.035
				l0.482,0.306l-0.548,0.089c-1.539,0.259-2.394,0.514-2.825,0.676c1.595,0.943,7.137,5.355,7.108,20.989l0.001,0.479l-0.314-0.323
				c-1.097-1.13-2.015-1.659-2.56-1.9c0.51,0.894,1.307,2.934,0.917,6.582l-0.087,0.833l-0.272-0.782
				c-0.174-0.513-0.66-1.098-1.082-1.539c0.656,1.775,1.592,5.995-0.479,12.979l-0.183,0.63l-0.174-0.635
				c-0.004-0.015-0.285-1.035-1.097-2.058c-0.029,3.313-3.774,8.806-7.51,10.799l-0.402,0.214l0.144-0.476
				c0.27-0.881,0.268-1.693,0.219-2.218c-0.918,1.908-4.448,7.785-13.365,8.432L48.521,75.195z M9.507,38.788
				c0.101-1.914,1.047-3.598,1.397-5.091l0.043-0.185l1.19,0.218c0.629-0.829,5.426-6.806,11.828-7.043l0.848-0.032l-0.755,0.433
				c-5.831,3.34-8.111,6.178-8.708,7.027c1.302,0.289,6.438,1.478,8.346,2.667c1.996-3.223,6.218-5.765,6.396-5.874l0.207,0.353
				c-0.03,0.028-3.154,2.934-4.484,6.23c2.931,0.208,4.917,1.174,5.476,1.476c0.474-0.819,2.735-4.451,6.24-5.892l0.92-0.378
				l-0.729,0.733c-2.597,2.61-3.918,5.63-4.237,6.421l5.25,2.276c0.507-0.528,3.145-3.234,5.912-5.056l0.996-0.661l-0.76,0.982
				c-2.456,3.161-3.513,5.462-3.786,6.124l3.577,1.648c0.498-0.393,3.16-2.557,4.806-5.104l0.316,0.228
				c-0.843,1.706-1.459,2.871-1.888,3.646l2.956-2.961l-0.063,4.933l2.467-3.556l0.033,0.554c0.006,0.14,2.292,11.706,0.222,19.063
				c1.684-2.022,1.958-1.614,3.466-1.62c0.615-0.006,1.154,0.189,1.597,0.581c0.871,0.767,1.342,2.336,1.22,4.095
				c-0.168,2.459-1.386,4.569-3.34,5.797c-1.836,1.08-3.266,0.865-4.025-0.53c-0.178-0.322-0.299-0.679-0.372-1.004
				c-0.888,2.506-2.178,4.593-2.728,5.418c10.023-0.929,12.854-8.646,12.883-8.725l0.199-0.563l0.155,0.578
				c0.014,0.055,0.308,1.184-0.003,2.615c3.374-2.049,7.349-7.595,6.879-10.724l-0.095-0.609l0.41,0.42
				c0.716,0.756,1.135,1.566,1.352,2.088c2.452-8.79-0.053-12.977-0.075-13.019l-0.677-1.091l0.943,0.802
				c0.051,0.045,1.043,0.896,1.611,1.796c0.312-4.396-1.229-6.098-1.243-6.117l-0.435-0.463l0.59,0.102
				c0.056,0.008,1.273,0.236,2.981,1.879c-0.048-8.881-1.991-13.924-3.629-16.6c-1.801-2.938-3.626-3.73-3.643-3.737l-0.373-0.156
				l0.343-0.228c0.023-0.017,0.605-0.384,2.728-0.783c-0.629-0.293-1.74-0.701-2.99-0.694c-0.785,0.005-1.526,0.173-2.201,0.495
				l-0.26,0.126L64.79,21.78c-0.014-2.678-0.693-4.402-1.067-5.149l-0.726,4.15l-0.251-0.467
				c-5.19-9.689-10.565-11.647-17.038-11.607c-2.499,0.014-5.167,0.346-8.139,0.746C14.465,12.948,8.245,20.735,6.868,23.078
				c0.461-0.201,1.224-0.428,2.487-0.627l0.836-0.132l-0.704,0.52c-5.705,4.187-4.323,10.574-3.839,12.237l1.381-2.46l-0.115,0.957
				c-0.002,0.03-0.328,2.987,1.408,6.509"/>
		</g>
		<path style="fill:#939598;" d="M15.648,24.197c-0.412,0.226-0.817,0.46-1.21,0.728c-0.199,0.124-0.39,0.266-0.58,0.396
			c-0.198,0.13-0.382,0.279-0.573,0.419c-0.191,0.138-0.369,0.297-0.554,0.448c-0.185,0.144-0.36,0.312-0.536,0.469
			c-0.178,0.153-0.356,0.313-0.522,0.485c-0.169,0.172-0.345,0.333-0.5,0.512L10.697,28.2c-0.155,0.186-0.292,0.383-0.441,0.576
			c-0.15,0.192-0.286,0.391-0.416,0.597c-0.128,0.206-0.282,0.397-0.39,0.621l-0.347,0.652c-0.113,0.216-0.194,0.454-0.292,0.682
			c-0.101,0.228-0.188,0.462-0.253,0.702l-0.227,0.72l-0.103-0.184l0.739,0.219c0.244,0.083,0.501,0.124,0.735,0.244l0.711,0.314
			c0.227,0.135,0.462,0.243,0.669,0.408c-0.225-0.131-0.471-0.207-0.7-0.316l-0.728-0.231c-0.24-0.09-0.492-0.117-0.735-0.18
			l-0.736-0.167l-0.144-0.033l0.037-0.147l0.195-0.758c0.033-0.126,0.057-0.257,0.104-0.378l0.136-0.359
			c0.101-0.238,0.179-0.489,0.292-0.719l0.35-0.684c0.109-0.231,0.263-0.432,0.393-0.652c0.134-0.212,0.262-0.431,0.426-0.622
			c0.154-0.192,0.302-0.397,0.465-0.586l0.496-0.547c0.166-0.184,0.352-0.342,0.522-0.515c0.176-0.173,0.361-0.329,0.545-0.486
			c0.185-0.156,0.372-0.309,0.569-0.446c0.196-0.14,0.383-0.286,0.585-0.415c0.396-0.265,0.799-0.521,1.219-0.731
			C14.79,24.559,15.211,24.354,15.648,24.197z"/>
		<g style="opacity:0.6;">
			<path style="fill:#939598;" d="M50.956,36.685c-2.104,3.968-5.961,6.532-5.961,6.532l-1.877-0.977l4.073-8.07l-8.459,5.98
				l-2.884-1.396c0,0,2.596-4.815,5.202-7.515c-6.497-0.102-9.958,5.849-9.958,5.849l-3.38-1.108c0,0,2.597-4.391,6.701-7.238
				c-6.115,0.741-10.958,5.992-10.958,5.992l-4.886-2.228c0,0,3.475-4.256,9.705-6.832c-6.888-2.36-16.581,5.464-16.581,5.464
				s0,0-1.629-0.839c2.347-4.249,8.573-7.674,8.573-7.674s-5.996,0.459-9.716,4.858c2.456-6.649,8.812-9.792,8.812-9.792
				s-2.628-0.409-7.104,2.724c2.978-3.406,8.081-5.979,8.081-5.979l-0.06-0.251c-10.587,4.456-12.3,9.497-12.3,9.497
				s0.189-0.574,3.031-1.021c-6.679,4.904-3.781,12.893-3.781,12.893l1.125-2.008c0,0,0.133,2.743,1.436,6.64
				c0.801,2.396,2.098-0.161,2.098-0.161c1.388-3.369,0.001-2.772,0.823-6.272c1.128,0.205,1.128,0.205,1.128,0.205
				s4.922-6.805,11.762-7.058c-7.097,4.065-8.95,7.358-8.95,7.358s6.753,1.443,8.729,2.807c1.948-3.294,6.428-5.968,6.428-5.968
				s-3.354,3.092-4.643,6.591c3.562,0.19,5.818,1.553,5.818,1.553s2.313-4.354,6.24-5.967c-3.073,3.091-4.364,6.696-4.364,6.696
				l5.543,2.402c0,0,2.886-3.089,5.964-5.118c-2.973,3.829-3.896,6.375-3.896,6.375l3.852,1.775c0,0,3.081-2.348,4.934-5.219
				l0.229-0.27C50.079,39.553,50.447,38.699,50.956,36.685z"/>
			<path style="fill:#939598;" d="M75.007,44.146c0.034-17.921-7.396-21.005-7.396-21.005s0.652-0.429,3.275-0.871
				c0,0-3.012-1.886-5.906-0.492c-0.022-3.811-1.35-5.709-1.35-5.709s0,0-0.721,4.136C55.896,7.119,48.311,7.8,37.544,9.242
				c-0.662,0.098-1.306,0.204-1.938,0.313c0.066-0.009,0.126-0.013,0.19-0.02c19.85-2.098,25.659,7.89,25.189,12.549
				c-1.165-6.202-8.795-8.133-12.278-5.57c7.613-0.892,13.275,5.707,9.808,10.245c6.466-4.557,9.387,3.191,9.387,3.191
				s0.232-3.25-3.036-6.053c5.761,2.226,6.172,8.15,7.22,15.766c-1.514-2.531-3.897-3.787-3.897-3.787l2.297,8.031l-3.159-6.191
				c0,0,1.907,5.775,1.708,14.531c-0.15-4.942-4.799-9.149-4.799-9.149s0.293,6.916-0.792,13.557
				c-0.282-5.784-3.432-9.438-3.432-9.438l-0.96,6.218l-1.552-8.602c-0.476,7.456-0.941,7.4-2.3,12.014
				c0.824-8.335-0.616-18.911-0.616-18.911l-2.468,4.955l0.462-6.213l-2.719,3.238c-0.147,0.25-0.229,0.27-0.229,0.27
				c-1.942,3.931-2.684,4.995-2.684,4.995l3.723-3.729l-0.061,5.083l2.506-3.615c0,0,2.716,12.375,0.226,19.485
				c2.416-3.299,3.494-2.755,5.134-1.311c1.787,1.579,1.822,7.085-2.097,9.542c-3.455,2.032-4.225-1.139-4.229-2.195
				c-1.104,3.604-3.209,6.511-3.209,6.511c10.612-0.771,13.459-8.895,13.459-8.895s0.363,1.356-0.122,2.963
				c4.094-2.186,7.809-8.206,7.364-11.163c1.14,1.194,1.504,2.549,1.504,2.549c2.774-9.376,0.057-13.758,0.057-13.758
				s1.495,1.271,1.855,2.307c0.535-5.043-1.247-6.95-1.247-6.95S73.152,42.239,75.007,44.146z"/>
			<path style="fill:#939598;" d="M49.858,39.916l-0.229,0.27C49.629,40.186,49.711,40.166,49.858,39.916z"/>
		</g>
		<path style="opacity:0.7;fill:#939598;" d="M57.753,24.929c0,0-3.466,5.527-9.168,12.618c-2.977,3.406-0.875-0.276,1.214-5.653
			c2.091-5.377-4.231,2.564-2.512-2.244c1.721-4.811-4.483,2.145-2.887-2.24c1.597-4.386-5.247,0.314-9.099,3.161
			c-3.855,2.848,4.074-7.93,14.919-11.807c3.241-1.007-3.975,4.118-0.234,2.397c3.734-1.711-4.082,6.946,2.135,2.39
			C58.342,18.997,45.823,35.446,57.753,24.929z"/>
		<path style="opacity:0.7;fill:#939598;" d="M59.584,28.164c0,0-2.046,2.342-3.108,12.935c-0.336,6.142,1.482-2.55,2.959-6.368
			c1.478-3.821-0.694,9.109,1.892,2.527c2.582-6.578,1.663-3.82,3.947,2.518c2.288,6.339,0.928-1.699-0.043-7.624
			c-0.974-5.923-2.404,5.31-3.009-1.462C61.616,23.918,57.198,36.649,59.584,28.164z"/>
		<path style="opacity:0.7;fill:#939598;" d="M42.344,19.639c0,0-1.362,0.171-9.383,6.149c-5.604,3.424-2.623,0.013,1.477-3.399
			c4.103-3.413-8.796,1.957-5.632-1.66c3.163-3.618-0.211-4.234-9.003-1.639c-8.793,2.595-2.275-4.435,16.627-7.934
			c15.357-1.577-6.916,2.579,4.323,2.089c11.243-0.492-8.582,6.193,2.266,2.74C53.866,12.531,46.076,17.287,42.344,19.639z"/>
	</g>
</g>
<g id="Layer_1">
</g>
</svg>
