<?xml version="1.0" encoding="iso-8859-1"?>
<!-- Generator: Adobe Illustrator 15.0.0, SVG Export Plug-In . SVG Version: 6.00 Build 0)  -->
<!DOCTYPE svg PUBLIC "-//W3C//DTD SVG 1.1//EN" "http://www.w3.org/Graphics/SVG/1.1/DTD/svg11.dtd">
<svg version="1.1" xmlns="http://www.w3.org/2000/svg" xmlns:xlink="http://www.w3.org/1999/xlink" x="0px" y="0px"
	 width="80.125px" height="80px" viewBox="0 0 80.125 80" style="enable-background:new 0 0 80.125 80;" xml:space="preserve">
<g id="ico-hair-boy-2">
	<g>
		<defs>
			<rect id="SVGID_1_" x="0.125" width="80" height="80"/>
		</defs>
		<clipPath id="SVGID_2_">
			<use xlink:href="#SVGID_1_"  style="overflow:visible;"/>
		</clipPath>
		<g style="clip-path:url(#SVGID_2_);">
			<path style="fill:none;" d="M59.871,0H20.378C9.193,0,0.125,9.066,0.125,20.253v39.493C0.125,70.932,9.193,80,20.378,80h39.493
				c11.186,0,20.254-9.068,20.254-20.254V20.253C80.125,9.066,71.057,0,59.871,0z"/>
		</g>
	</g>
	<g>
		<g>
			<g>
				<path style="fill:#A7A9AC;" d="M76.338,45.246c1.785,0.43,3.227,1.425,3.227,1.425s-0.686-9.32-5.768-16.011
					c-5.081-6.689-9.954-7.542-9.954-7.542s3.294-2.207,1.439-2.635c-1.853-0.427-3.641,0.785-3.641,0.785
					c-0.065-2.848-1.918-6.12-2.058-4.414c-0.137,1.709-0.48,3.132-0.48,3.132c-17.439-13.661-42.774-1.28-49.501,7.259
					c-6.731,8.538-8.31,11.847-8.31,11.847c1.957-0.142,3.469-0.64,3.469-0.64c-2.919,1.351-3.298,4.555-3.298,4.555
					c0.962-1.388,2.782-1.388,2.782-1.388c-2.848,2.738-4.12,6.561-4.12,6.561c4.12,3.752,5.99,9.685,5.99,9.685
					s1.291-1.659,5.725,2.365c0.452-1.366,0.238-1.033,0.065-1.99c-0.687-3.771-1.208-6.229-1.208-6.229s1.734,2.72,4.154-7.311
					c0,0,0.104,2.347,0.927,2.347c0.824,0,3.658-9.286,3.658-9.286s0.101,2.027,1.184,3.787c1.081,1.763-0.884-3.456,4.727-6.979
					c0,0,4.386,2.655,11.648-0.6c0,0-1.546,1.922-4.894,2.67c0,0,6.266,1.85,10.523-2.67c0,0,1.718,2.313,4.053,3.238
					c0,0,0.274-1.066,0-3.559c0,0,3.242,3.095,8.754,4.056c0,0,0.67-2.454,0.463-4.056c0,0,2.678,4.804,5.459,6.671
					c0,0,0.256-2.239,0-3.895c0,0,6.745,8.431,7.671,13.93c0.466,2.757,3.144,7.562,2.78,11.047
					c0.004-0.007,2.477-3.473,5.251-2.697c2.265-8.055,0.88-7.814,0.673-8.456c-0.208-0.641-1.596-1.976-1.596-1.976
					c1.439,0.426,2.607,0.464,2.607,0.464C77.918,48.024,76.338,45.246,76.338,45.246z"/>
				<g>
					<path style="fill:#030303;" d="M76.274,45.288c1.137,0.329,2.194,0.752,3.182,1.407c0.033,0.021,0.239,0.054,0.233-0.023
						c-0.704-8.94-5.24-18.55-13.494-22.753c-0.377-0.192-2.012-0.934-2.182-0.818c0.609-0.417,2.5-1.627,1.75-2.488
						c-0.502-0.577-2.215-0.243-2.78-0.036c-0.377,0.138-0.702,0.239-1.052,0.435c-0.55,0.309-0.255-0.697-0.33-1.176
						c-0.18-1.127-0.642-2.322-1.316-3.24c-0.081-0.111-0.464-0.393-0.625-0.219c-0.518,0.556-0.369,1.947-0.492,2.683
						c-0.121,0.722,0.062,0.916-0.561,0.442c-0.788-0.601-1.63-1.128-2.476-1.642c-4.236-2.574-9.16-3.752-14.071-3.991
						c-9.686-0.471-19.751,3.153-27.563,8.744c-3.744,2.68-6.357,6.242-9.054,9.933c-1.511,2.068-3.147,4.214-4.272,6.532
						c-0.03,0.063,0.125,0.066,0.153,0.063c1.074-0.106,2.108-0.271,3.153-0.542c0.697-0.182-1.104,0.604-1.386,0.913
						c-0.892,0.979-1.569,2.166-1.755,3.495c-0.011,0.076,0.212,0.053,0.246,0.016c0.58-1.118,1.244-1.404,1.992-0.856
						c-0.345,0.375-0.669,0.766-0.974,1.173c-0.564,0.717-1.022,1.516-1.466,2.31C0.688,46.45,0.299,47.309,0,48.178
						c0.001,0.012,0.007,0.021,0.017,0.026c2.733,2.615,4.81,6.055,5.974,9.659c0.024,0.074,0.201,0.066,0.246,0.016
						c1.273-1.464,4.571,1.567,5.496,2.375c0.045,0.039,0.212,0.047,0.233-0.023c0.62-2.014-0.396-4.493-0.796-6.519
						c-0.143-0.723-0.297-1.253-0.587-1.683c0.052,0.077,0.123,0.14,0.194,0.198c0.755,0.618,1.574-0.425,1.925-0.961
						c1.07-1.637,1.549-3.778,2.043-5.635c0.269-1.009-0.042-0.986,0.058-0.191c0.025,0.202,0.12,0.69,0.2,0.875
						c0.18,0.415,0.273,0.665,0.712,0.772c0.97,0.24,2.123-4.097,2.326-4.684c0.482-1.391,0.941-2.788,1.38-4.192
						c0.234-0.749-0.089-0.159,0.015,0.482c0.173,1.071,0.598,2.15,1.188,3.055c0.642,0.983,0.912-2.189,0.953-2.337
						c0.303-1.087,2.7-5.309,3.884-4.703c1.069,0.547,2.293,0.756,3.473,0.882c1.866,0.198,3.744-0.138,5.539-0.62
						c0.585-0.157,1.151-0.381,1.718-0.591c0.753-0.279,0.823-0.555,0.391-0.116c-1.215,1.232-2.906,1.899-4.542,2.329
						c-0.074,0.02-0.076,0.065-0.001,0.086c2.146,0.605,4.494,0.471,6.617-0.135c0.527-0.15,4.308-1.968,3.899-2.5
						c1.063,1.385,2.458,2.464,4.034,3.195c0.045,0.021,0.198,0.037,0.214-0.033c0.194-0.874,0.123-1.806,0.079-2.69
						c-0.038-0.76-0.541-1.039-0.073-0.635c0.327,0.283,0.681,0.536,1.032,0.788c2.235,1.598,4.852,2.545,7.527,3.076
						c0.046,0.009,0.172,0.024,0.188-0.041c0.236-0.904,0.381-1.818,0.478-2.747c0.122-1.173-0.442-1.562,0.369-0.249
						c1.302,2.104,2.832,4.161,4.842,5.633c0.04,0.029,0.226,0.053,0.233-0.022c0.109-1.052,0.124-2.101,0.08-3.158
						c-0.021-0.5-0.51-0.962-0.168-0.526c0.215,0.274,0.424,0.551,0.633,0.829c1.513,2.009,2.904,4.109,4.166,6.285
						c1.542,2.66,2.251,5.335,3.135,8.234c0.945,3.104,2.533,6.087,2.355,9.415c-0.004,0.075,0.213,0.06,0.245,0.016
						c1.169-1.595,2.964-3.041,5.097-2.664c0.043,0.008,0.145,0.008,0.159-0.047c0.578-2.104,2.029-5.642,1.054-7.859
						c-0.203-0.463-0.609-1.024-0.892-1.406c-0.802-1.088-1.394-1.092,0.267-0.777c0.371,0.07,0.753,0.104,1.13,0.124
						c0.014,0.001,0.164-0.019,0.122-0.062c-0.987-1.001-1.707-2.277-2.402-3.49c-0.037-0.063-0.277-0.039-0.242,0.023
						c0.381,0.664,0.785,1.313,1.202,1.954c0.286,0.442,0.601,0.858,0.934,1.266c0.354,0.433-2.004-0.208-2.156-0.247
						c-0.019-0.005-0.237,0.002-0.185,0.054c1.983,1.947,2.416,3.319,1.963,6.055c-0.1,0.603-0.616,4.365-1.475,4.214
						c-0.299-0.054-0.967,0.025-1.253,0.125c-0.913,0.316-1.618,0.762-2.355,1.389c-0.229,0.195-0.441,0.429-0.649,0.646
						c-0.566,0.593-0.321,0.854-0.279,0.062c0.136-2.528-1.128-5.23-1.967-7.554c-0.876-2.428-1.27-4.877-2.371-7.232
						c-1.596-3.41-3.809-6.633-6.15-9.575c-0.032-0.04-0.254-0.065-0.246,0.01c0.125,1.144,0.122,2.265,0.045,3.412
						c-0.049,0.715-2.131-1.704-2.592-2.262c-1.005-1.215-1.892-2.564-2.666-3.937c-0.028-0.05-0.251-0.061-0.246,0.01
						c0.077,1.245-0.095,2.434-0.361,3.647c-0.188,0.854-3.661-0.693-4.399-1.008c-1.492-0.637-3.024-1.545-4.223-2.661
						c-0.032-0.029-0.24-0.048-0.233,0.022c0.105,1.161,0.216,2.351,0.012,3.508c-0.01,0.052-3.471-2.745-3.818-3.198
						c-0.046-0.06-0.192-0.051-0.241-0.003c-2.721,2.672-6.531,3.57-10.213,2.676c1.175,0.286,3.908-1.563,4.825-2.646
						c0.051-0.061-0.181-0.063-0.208-0.051c-3.364,1.419-8.023,2.604-11.452,0.612c-0.058-0.033-0.159-0.042-0.216-0.002
						c-1.965,1.334-3.386,2.98-4.031,5.293c-0.059,0.213-0.478,1.726-0.343,1.89c-0.854-1.041-1.205-2.635-1.304-3.964
						c-0.006-0.076-0.229-0.071-0.25-0.003c-0.571,1.865-1.184,3.717-1.844,5.553c-0.37,1.028-0.761,2.055-1.252,3.032
						c-0.726,1.442-1.199-0.977-1.239-1.643c-0.004-0.074-0.232-0.073-0.25-0.004c-0.088,0.354-2.655,9.158-3.909,7.301
						c-0.03-0.045-0.26-0.057-0.246,0.01c0.257,1.22,0.494,2.442,0.729,3.666c0.211,1.094,0.355,2.212,0.66,3.284
						c0.439,1.545-1.637-0.08-1.978-0.325c-0.952-0.685-2.679-1.654-3.861-0.899c-0.248,0.159,0.089,0.048,0.101,0.083
						c-0.126-0.379-0.268-0.751-0.413-1.123c-0.705-1.806-1.632-3.513-2.689-5.134c-0.675-1.036-1.478-1.974-2.329-2.867
						c-0.671-0.705-0.424-0.861-0.113-1.591c0.873-2.044,2.133-3.883,3.685-5.468c0.042-0.044-0.105-0.065-0.12-0.064
						c-0.819,0.032-1.88,0.273-2.445,0.909c-0.318,0.357-0.252,0.683-0.138,0.139c0.099-0.476,0.284-0.924,0.476-1.366
						c0.542-1.247,1.557-2.141,2.731-2.772c0.087-0.046-0.157-0.075-0.195-0.063c-0.696,0.218-3.138,0.447-3.219,0.607
						c0.152-0.3,0.323-0.591,0.493-0.881c1.014-1.737,2.177-3.389,3.345-5.024c3.52-4.929,6.992-9.073,12.168-12.281
						c12.387-7.676,29.346-10.118,41.534-0.827c0.044,0.034,0.217,0.051,0.233-0.022c0.238-1.033,0.374-2.079,0.48-3.132
						c0.072-0.718,1.104,1.145,1.053,1.035c0.489,1.063,0.672,2.224,0.755,3.376c0.006,0.078,0.192,0.053,0.232,0.028
						c1.097-0.691,4.897-1.041,3.389,0.651c-0.391,0.438-0.917,0.813-1.402,1.146c-0.046,0.031,0.014,0.063,0.044,0.069
						c5.993,1.141,10.655,7.684,12.942,12.835c1.278,2.881,2.058,6.003,2.531,9.112c0.078,0.514,0.062,1.301,0.335,1.482
						c-0.977-0.647-2.067-1.063-3.187-1.387C76.328,45.183,76.118,45.243,76.274,45.288z"/>
				</g>
			</g>
			<g>
				<path style="fill:#A7A9AC;" d="M76.338,45.246c1.785,0.43,3.227,1.425,3.227,1.425s-0.686-9.32-5.768-16.011
					c-5.081-6.689-9.954-7.542-9.954-7.542s3.294-2.207,1.439-2.635c-1.853-0.427-3.641,0.785-3.641,0.785
					c-0.065-2.848-1.918-6.12-2.058-4.414c-0.137,1.709-0.48,3.132-0.48,3.132c-17.439-13.661-42.774-1.28-49.501,7.259
					c-6.731,8.538-8.31,11.847-8.31,11.847c1.957-0.142,3.469-0.64,3.469-0.64c-2.919,1.351-3.298,4.555-3.298,4.555
					c0.962-1.388,2.782-1.388,2.782-1.388c-2.848,2.738-4.12,6.561-4.12,6.561c4.12,3.752,5.99,9.685,5.99,9.685
					s1.939-1.594,5.753,2.758c-0.13-1.119,0.482-1.983,0.31-2.938c-0.686-3.771-1.481-5.674-1.481-5.674s1.734,2.72,4.154-7.311
					c0,0,0.104,2.347,0.927,2.347c0.824,0,3.658-9.286,3.658-9.286s0.101,2.027,1.184,3.787c1.081,1.763-0.884-3.456,4.727-6.979
					c0,0,4.386,2.655,11.648-0.6c0,0-1.546,1.922-4.894,2.67c0,0,6.266,1.85,10.523-2.67c0,0,1.718,2.313,4.053,3.238
					c0,0,0.274-1.066,0-3.559c0,0,3.242,3.095,8.754,4.056c0,0,0.67-2.454,0.463-4.056c0,0,2.678,4.804,5.459,6.671
					c0,0,0.256-2.239,0-3.895c0,0,6.745,8.431,7.671,13.93c0.466,2.757,3.087,7.555,2.724,11.04c0.004-0.005,1.695-3.1,5.308-2.69
					c2.265-8.055,0.88-7.814,0.673-8.456c-0.208-0.641-1.596-1.976-1.596-1.976c1.439,0.426,2.607,0.464,2.607,0.464
					C77.918,48.024,76.338,45.246,76.338,45.246z"/>
				<g>
					<path style="fill:#030303;" d="M76.252,45.288c1.133,0.327,2.222,0.763,3.207,1.416c0.037,0.025,0.236,0.032,0.23-0.043
						c-0.71-9.008-5.359-18.899-13.844-22.915c-0.398-0.188-1.734-0.72-1.83-0.655c0.589-0.403,2.497-1.628,1.747-2.489
						c-0.649-0.745-2.641-0.07-3.338,0.185c-1.217,0.444-0.612,0.37-0.824-0.962c-0.179-1.127-0.639-2.318-1.316-3.239
						c-0.215-0.292-0.515-0.317-0.741-0.074c-0.368,0.395-0.28,1.993-0.375,2.559c-0.126,0.751,0.063,0.899-0.563,0.421
						c-0.788-0.601-1.629-1.128-2.476-1.642c-4.423-2.687-9.594-3.854-14.722-4.002c-9.482-0.273-19.262,3.298-26.912,8.774
						c-3.75,2.684-6.353,6.239-9.053,9.934c-1.511,2.068-3.147,4.214-4.271,6.532c-0.026,0.054,0.101,0.056,0.125,0.054
						c0.937-0.093,1.868-0.206,2.782-0.444c1.328-0.346-0.472,0.365-0.974,0.811c-0.96,0.854-1.589,2.246-1.766,3.508
						c-0.011,0.077,0.216,0.027,0.246-0.006c2.651-1.642,3.318-1.924,2.002-0.848c-0.177,0.194-0.35,0.393-0.519,0.594
						c-0.626,0.718-1.134,1.538-1.625,2.351c-0.579,0.959-1.074,2.008-1.439,3.068c-0.005,0.009-0.005,0.018,0.002,0.026
						c2.739,2.621,4.818,6.061,5.985,9.672c0.024,0.074,0.189,0.041,0.234,0.007c1.785-1.339,4.538,1.691,5.525,2.764
						c0.039,0.042,0.242,0.047,0.244-0.032c0.031-1.372,0.402-2.459,0.137-3.842c-0.245-1.277-0.574-2.54-0.959-3.782
						c-0.166-0.535-0.414-0.691-0.587-0.948c0.05,0.074,0.121,0.146,0.195,0.196c0.801,0.54,1.531-0.381,1.923-0.98
						c1.068-1.633,1.578-3.771,2.042-5.635c0.358-1.438-0.104-0.135,0.26,0.705c0.165,0.379,0.277,0.699,0.715,0.768
						c1.079,0.168,2.241-4.464,2.479-5.15c0.45-1.298,0.871-2.607,1.279-3.919c0.143-0.459-0.119,0.199-0.041,0.682
						c0.173,1.076,0.594,2.143,1.188,3.055c0.637,0.976,1.09-2.766,1.1-2.794c0.388-1.146,2.602-4.787,3.875-4.184
						c1.018,0.483,2.219,0.742,3.338,0.812c1.898,0.118,3.705-0.136,5.538-0.627c0.479-0.128,1.269-0.404,1.718-0.593
						c0.973-0.411,0.513-0.216,0.167,0.104c-1.203,1.115-2.767,1.714-4.326,2.123c-0.047,0.012-0.086,0.061-0.019,0.08
						c1.95,0.55,4.066,0.474,6.025,0.035c1.566-0.351,2.937-1.178,4.151-2.197c0.707-0.593,0.757,0.034,1.464,0.746
						c0.845,0.849,1.835,1.476,2.916,1.977c0.053,0.025,0.213,0.036,0.23-0.042c0.193-0.874,0.123-1.806,0.078-2.69
						c-0.037-0.74-0.553-1.031-0.084-0.625c0.229,0.198,0.473,0.379,0.715,0.561c2.305,1.736,5.053,2.753,7.86,3.309
						c0.035,0.007,0.167,0.007,0.181-0.044c0.18-0.687,0.304-1.381,0.411-2.082c0.106-0.697,0.195-1.275-0.161-1.907
						c0.191,0.339,0.397,0.67,0.602,1.001c1.302,2.104,2.834,4.16,4.844,5.632c0.043,0.032,0.223,0.03,0.23-0.042
						c0.109-1.053,0.124-2.101,0.08-3.158c-0.02-0.479-0.505-0.937-0.166-0.505c0.214,0.274,0.423,0.552,0.633,0.829
						c1.513,2.009,2.904,4.109,4.166,6.285c1.544,2.664,2.257,5.336,3.128,8.234c0.933,3.103,2.485,6.086,2.304,9.408
						c-0.004,0.072,0.219,0.041,0.246-0.006c1.059-1.822,3.008-2.758,5.157-2.644c0.031,0.002,0.139-0.003,0.15-0.047
						c0.594-2.159,2.039-5.638,1.056-7.873c-0.203-0.464-0.606-1.021-0.891-1.406c-0.401-0.543-1.539-1.104-0.444-0.896
						c0.604,0.114,1.2,0.221,1.813,0.255c0.018,0.001,0.198-0.023,0.148-0.073c-0.987-1-1.706-2.277-2.402-3.49
						c-0.035-0.062-0.276-0.021-0.238,0.045c0.381,0.663,0.785,1.313,1.201,1.954c0.287,0.441,0.602,0.857,0.934,1.266
						c0.595,0.728-2.058-0.238-2.135-0.258c-0.024-0.006-0.264,0.007-0.205,0.064c1.985,1.948,2.414,3.32,1.962,6.055
						c-0.169,1.015-0.391,4.183-1.621,4.268c-0.634,0.044-1.282,0.092-1.874,0.354c-0.777,0.344-1.396,0.751-2.013,1.34
						c-0.165,0.158-0.328,0.364-0.474,0.542c-0.469,0.571-0.129,0.667-0.087-0.096c0.149-2.753-1.26-5.63-2.139-8.171
						c-0.768-2.222-1.139-4.456-2.146-6.608c-1.595-3.41-3.809-6.633-6.15-9.575c-0.034-0.043-0.252-0.042-0.244,0.032
						c0.125,1.145,0.123,2.265,0.045,3.412c-0.065,0.964-0.955-0.49-1.249-0.77c-0.489-0.464-0.916-0.996-1.345-1.514
						c-1.005-1.215-1.891-2.564-2.666-3.937c-0.029-0.052-0.248-0.038-0.244,0.032c0.068,1.091-0.058,2.125-0.262,3.195
						c-0.287,1.506-4.311-0.485-5.09-0.851c-1.282-0.603-2.579-1.406-3.621-2.375c-0.037-0.035-0.251-0.048-0.244,0.032
						c0.083,0.909,0.136,1.802,0.104,2.714c-0.027,0.762,0.099,0.789-0.554,0.487c-1.303-0.604-2.484-1.774-3.358-2.912
						c-0.039-0.051-0.188-0.036-0.229,0.005c-2.719,2.67-6.523,3.573-10.202,2.679c1.154,0.281,3.899-1.589,4.803-2.658
						c0.051-0.06-0.189-0.042-0.212-0.032c-3.362,1.418-8.023,2.587-11.452,0.595c-0.06-0.035-0.161-0.021-0.215,0.016
						c-1.902,1.292-3.504,2.984-4.029,5.295c-0.051,0.222-0.476,1.709-0.345,1.869c-0.826-1.007-1.206-2.666-1.303-3.965
						c-0.005-0.068-0.228-0.052-0.246,0.005c-0.525,1.713-1.087,3.416-1.684,5.106c-0.383,1.087-0.791,2.168-1.277,3.214
						c-0.786,1.687-1.319-0.407-1.378-1.387c-0.004-0.074-0.232-0.049-0.249,0.02c-0.054,0.217-2.591,9.234-3.911,7.278
						c-0.034-0.051-0.266-0.023-0.244,0.032c0.417,1.03,0.69,2.12,0.96,3.196c0.329,1.308,0.658,2.547,0.382,3.885
						c-0.324,1.568-0.891,0.377-1.691-0.228c-1.114-0.84-2.608-1.769-4.038-1.135c-0.301,0.133,0.028,0.036,0.042,0.08
						c-0.123-0.379-0.268-0.751-0.413-1.123c-0.621-1.59-1.419-3.102-2.309-4.556c-0.755-1.232-3.497-3.402-2.982-4.679
						c0.877-2.178,2.191-4.149,3.831-5.825c0.06-0.061-0.083-0.067-0.113-0.066c-0.807,0.031-1.883,0.292-2.442,0.92
						c-0.7,0.787-0.017-0.349,0.165-0.846c0.517-1.419,1.577-2.458,2.889-3.163c0.118-0.063-0.113-0.081-0.157-0.066
						C4.26,38.55,1.437,39.05,1.456,39.013c0.152-0.3,0.323-0.591,0.493-0.882c1.014-1.737,2.177-3.389,3.345-5.024
						c3.646-5.105,7.244-9.314,12.644-12.565c12.351-7.436,29.016-9.705,41.061-0.522c0.048,0.037,0.214,0.027,0.23-0.042
						c0.103-0.446,0.656-3.488,0.817-3.347c1.118,0.979,1.371,3.26,1.471,4.647c0.006,0.08,0.199,0.03,0.234,0.008
						c1.545-0.975,5.011-0.879,3.087,0.955c-0.336,0.32-0.723,0.599-1.104,0.861c-0.049,0.034,0.025,0.06,0.05,0.065
						c5.733,1.092,10.318,7.274,12.638,12.16c1.402,2.954,2.246,6.192,2.773,9.409c0.104,0.636,0.188,1.277,0.243,1.919
						c-0.05-0.577-2.269-1.233-3.014-1.449C76.363,45.187,76.128,45.252,76.252,45.288z"/>
				</g>
			</g>
			<g>
				<path style="fill:#A7A9AC;" d="M29.791,31.372c-0.098,0.115-0.22,0.203-0.334,0.303l-0.381,0.245
					c-0.13,0.081-0.271,0.135-0.407,0.2c-0.137,0.06-0.267,0.146-0.415,0.18c-0.287,0.087-0.574,0.18-0.865,0.258l-0.886,0.151
					c-0.297,0.064-0.597,0.051-0.896,0.068c-0.299,0.009-0.599,0.023-0.897,0.025c-0.596-0.049-1.191-0.098-1.787-0.157l0.205-0.306
					c0.107,0.195,0.248,0.397,0.392,0.585c0.145,0.189,0.3,0.374,0.462,0.546c0.163,0.173,0.34,0.333,0.52,0.487l0.28,0.225
					c0.09,0.078,0.193,0.136,0.288,0.207c0.099,0.069,0.2,0.134,0.304,0.188c0.105,0.057,0.206,0.125,0.315,0.173l0.322,0.148
					c0.107,0.054,0.224,0.083,0.335,0.129c0.112,0.039,0.222,0.095,0.338,0.119l0.346,0.094c0.117,0.035,0.235,0.047,0.354,0.07
					l0.357,0.066c-0.241-0.012-0.484,0-0.728-0.036l-0.362-0.053c-0.123-0.011-0.239-0.053-0.359-0.076
					c-0.119-0.033-0.241-0.054-0.356-0.102l-0.346-0.129c-0.116-0.044-0.226-0.105-0.338-0.157c-0.113-0.052-0.224-0.106-0.33-0.171
					c-0.108-0.067-0.22-0.122-0.322-0.197l-0.309-0.216c-0.197-0.154-0.387-0.319-0.568-0.496c-0.181-0.178-0.354-0.361-0.511-0.562
					c-0.159-0.204-0.303-0.405-0.44-0.645c-0.054-0.097-0.023-0.222,0.07-0.28c0.037-0.021,0.078-0.031,0.117-0.026h0.019
					c0.583,0.045,1.164,0.104,1.745,0.158l0.874-0.001l0.437,0.001c0.148,0.008,0.291-0.016,0.435-0.029l0.87-0.084
					c0.288-0.057,0.568-0.123,0.853-0.187c0.145-0.029,0.278-0.089,0.418-0.131c0.138-0.05,0.281-0.087,0.413-0.148l0.398-0.193
					C29.542,31.536,29.676,31.47,29.791,31.372z"/>
			</g>
			<g>
				<path style="fill:#A7A9AC;" d="M10.991,46.083c0,0-0.036,0.104-0.097,0.285c-0.063,0.176-0.141,0.432-0.241,0.737
					c-0.192,0.613-0.446,1.425-0.577,2.252c-0.069,0.411-0.097,0.824-0.073,1.207c0.023,0.187,0.042,0.369,0.091,0.532
					c0.044,0.17,0.111,0.316,0.181,0.447c0.076,0.129,0.156,0.243,0.241,0.336c0.078,0.098,0.17,0.158,0.237,0.22
					c0.152,0.108,0.238,0.167,0.238,0.167s-0.101-0.024-0.277-0.094c-0.081-0.049-0.19-0.091-0.297-0.175
					c-0.111-0.073-0.228-0.18-0.333-0.314c-0.104-0.132-0.208-0.295-0.274-0.479c-0.082-0.183-0.13-0.384-0.167-0.598
					c-0.063-0.425-0.037-0.879,0.026-1.32c0.145-0.882,0.474-1.695,0.768-2.275c0.144-0.291,0.29-0.521,0.387-0.678
					C10.925,46.171,10.991,46.083,10.991,46.083z"/>
			</g>
			<g>
				<path style="fill:#A7A9AC;" d="M68.818,39.951c0,0,0.088,0.148,0.201,0.432c0.063,0.139,0.113,0.314,0.178,0.516
					c0.066,0.201,0.146,0.429,0.189,0.688c0.054,0.255,0.109,0.533,0.172,0.827c0.043,0.292,0.082,0.605,0.115,0.932
					c0.033,0.325,0.082,0.662,0.076,1.005c0.008,0.341,0.013,0.688,0.021,1.036c0,0.177,0.005,0.348,0,0.523
					c-0.009,0.169-0.022,0.343-0.034,0.514c-0.023,0.342-0.049,0.677-0.074,0.998c-0.025,0.326-0.04,0.643-0.096,0.936
					c-0.047,0.293-0.092,0.57-0.137,0.828c-0.082,0.513-0.174,0.936-0.228,1.231c-0.06,0.297-0.096,0.466-0.096,0.466
					s0.001-0.175,0.017-0.478c0.02-0.301,0.033-0.735,0.078-1.248c0.021-0.257,0.043-0.536,0.068-0.831
					c0.029-0.294,0.014-0.605,0.035-0.929c0.01-0.319,0.025-0.654,0.037-0.991c0.009-0.166,0.018-0.338,0.025-0.508
					c0.002-0.169-0.004-0.34-0.006-0.512c-0.002-0.342-0.006-0.686-0.008-1.021c0.008-0.34-0.016-0.669-0.039-0.986
					c-0.018-0.321-0.035-0.633-0.053-0.926c-0.035-0.29-0.068-0.565-0.102-0.821c-0.024-0.257-0.074-0.484-0.11-0.691
					c-0.034-0.205-0.064-0.389-0.106-0.53C68.875,40.118,68.818,39.951,68.818,39.951z"/>
			</g>
			<g style="opacity:0.4;">
				<path style="fill:#A7A9AC;" d="M76.338,45.246c1.785,0.43,3.227,1.425,3.227,1.425s-0.686-9.32-5.768-16.011
					c-5.081-6.689-9.954-7.542-9.954-7.542s3.294-2.207,1.439-2.635c-1.853-0.427-3.641,0.785-3.641,0.785
					c-0.065-2.848-1.918-6.12-2.058-4.414c-0.137,1.709-0.48,3.132-0.48,3.132c-5.125-4.012-10.93-5.778-16.745-6.054
					c11.942,1.738,17.021,7.974,17.021,7.974c-0.139-1.351,0.617-5.016,1.131-3.166c0.517,1.852,0.481,3.63,0.481,3.63
					c1.237-1.674,4.327-1.565,3.538-0.532c-0.792,1.029-2.265,1.883-2.265,1.883c15.481,3.595,16.614,21.99,15.341,19.502
					c-1.268-2.493-3.361-2.562-3.361-2.562c1.615,2.311,1.373,5.05,0.172,4.124c-1.203-0.927-1.373-3.31-1.373-3.31
					c-0.31,4.057-2.402,4.873-2.473,2.6c-0.146-4.801-2.849-9.357-2.849-9.357c1.27,4.445,0.994,10.495-2.335,4.694
					c-3.33-5.797-5.356-7.532-5.356-7.532c0.86,2.572,0.769,8.029-1.305,4.046c-2.071-3.981-6.488-8.041-6.488-8.041
					s4.534,7.757,0.585,7.294c-3.949-0.461-7.381-3.807-7.381-3.807s1.307,5.366-0.242,4.163c-1.549-1.205-2.607-4.98-2.607-4.98
					c-1.236,4.837-6.798,6.084-4.979,3.697c1.821-2.381,1.407-3.77,1.407-3.77c-5.597,6.407-14.935,3.665-11.431,2.634
					c3.501-1.032,4.772-4.2,4.772-4.2c-7.791,4.911-10.712,1.531-10.712,1.531c0.619,3.764-0.72,8.404-1.441,7.016
					c-0.722-1.385-0.568-4.507-0.568-4.507c-1.003,4.323-3.242,11.795-3.938,10.727c-0.693-1.067,0-4.625,0-4.625
					c-0.977,3.489-3.218,10.104-4.004,8.537c-0.789-1.567,0.477-6.119,0.477-6.119c-1.854,3.489-5.595,8.114-6.42,5.195
					c-0.824-2.918,2.474-7.187,2.474-7.187s-2.061,1.991-2.268,0c-0.206-1.992,2.129-4.696,2.129-4.696s-4.846,3.728-2.267-1.14
					c3.435-6.475,9.25-11.337,9.281-11.365c-2.363,1.659-4.255,3.375-5.502,4.962c-6.731,8.538-8.31,11.847-8.31,11.847
					c1.957-0.142,3.469-0.64,3.469-0.64c-2.919,1.351-3.298,4.555-3.298,4.555c0.962-1.388,2.782-1.388,2.782-1.388
					c-2.848,2.738-4.12,6.561-4.12,6.561c4.12,3.752,5.99,9.685,5.99,9.685s4.458-2.851,5.753,2.758
					c-0.13-1.119,0.459-2.08,0.287-3.036c-0.687-3.771-1.458-5.576-1.458-5.576s1.734,2.72,4.154-7.311c0,0,0.104,2.347,0.927,2.347
					c0.824,0,3.658-9.286,3.658-9.286s0.101,2.027,1.184,3.787c1.081,1.763-0.884-3.456,4.727-6.979c0,0,4.386,2.655,11.648-0.6
					c0,0-1.546,1.922-4.894,2.67c0,0,6.266,1.85,10.523-2.67c0,0,1.718,2.313,4.053,3.238c0,0,0.274-1.066,0-3.559
					c0,0,3.242,3.095,8.754,4.056c0,0,0.67-2.454,0.463-4.056c0,0,2.678,4.804,5.459,6.671c0,0,0.256-2.239,0-3.895
					c0,0,6.745,8.431,7.671,13.93c0.466,2.757,3.087,7.555,2.724,11.04c0.004-0.005,2.377-3.337,5.308-2.69
					c2.265-8.055,0.88-7.814,0.673-8.456c-0.208-0.641-1.596-1.976-1.596-1.976c1.439,0.426,2.607,0.464,2.607,0.464
					C77.918,48.024,76.338,45.246,76.338,45.246z"/>
			</g>
			<path style="opacity:0.5;fill:#A7A9AC;" d="M24.946,25.926c0,0-5.354,5.426-5.818,4.787c-0.465-0.638,1.234-3.468,1.234-3.468
				c-2.369,1.813-6.281,9.071-6.54,7.311c-0.255-1.76,1.702-4.856,1.702-4.856c-2.062,1.761-4.688,6.299-5.409,5.019
				c-0.72-1.282,0.876-4.271,0.876-4.271c-4.273,2.988-0.772-6.777,13.028-12.49c13.801-5.71,23.018-2.561,23.018-2.561
				s-10.471-1.765-22.434,4.057c-11.965,5.822-13.08,10.388-10.06,7.648c0,0-1.303,1.638-0.788,2.349
				c0.514,0.712,3.225-2.385,3.225-2.385s-0.927,1.533-0.479,2.419c0.446,0.891,1.442-2.346,5.493-4.23c0,0-1.581,2.311-1.581,3.166
				C20.414,29.273,23.264,27.278,24.946,25.926z"/>
			<path style="opacity:0.5;fill:#A7A9AC;" d="M40.756,22.122c-2.201,5.799-7.28,8.698-6.285,7.206
				c2.089-3.14,0.894-8.187,0.894-8.187c-3.193,5.589-9.563,8.486-9.563,8.486s4.979-0.339,8.034-4.624c0,0,0.035,4.66-2.711,7.08
				c-2.746,2.42,7.884-0.463,8.879-6.085c0,0,0.097,3.861-0.743,6.689c-0.136,0.463,2.231-0.881,3.331-5.104
				c0,0,0.893,3.785,2.161,5.104c0.79,0.818,0.552-1.778,0-3.592c0,0,3.398,3.483,6.765,3.699c3.707,0.235-0.863-6.887-2.252-8.061
				c0,0,2.196,3.403,1.439,5.104c-0.703,1.583-4.801-0.405-6.809-4.144c0,0-0.156,1.337-0.053,2.404
				c0.102,1.064-1.133-2.082-1.338-4.538c0,0-0.264,2.425-1.029,3.673C40.343,29.087,41.371,26.567,40.756,22.122z"/>
			<path style="opacity:0.5;fill:#A7A9AC;" d="M66.762,26.018c9.42,4.695,9.135,15.563,8.12,13.422
				c-1.003-2.119-2.718-3.309-2.718-3.309c1.188,4.136-0.615,6.484-1.336,3.82c-1.4-5.165-4.789-8.579-4.789-8.579
				c2.162,4.395,1.596,11.67-0.258,6.708c-1.855-4.964-7.359-9.822-7.359-9.822c1.141,3.686,0.768,6.832,0,5.391
				c-2.398-4.509-6.904-6.991-6.904-6.991s3.803,0.869,5.613,3.629c0.875,1.335,0.669-2.401-0.208-4.591c0,0,5.233,3.84,7.673,7.632
				c1.34,2.084,0.826-2.293-0.307-4.695c0,0,3.86,2.321,6.332,8.673c1.139,2.923,1.186-2.365-1.422-5.497
				c-1.086-1.302,1.475-0.187,3.482,2.429C74.689,36.851,73.094,29.699,66.762,26.018z"/>
			<g style="opacity:0.7;">
				<path style="fill:#A7A9AC;" d="M8.518,54.182c-1.058-3.104,0.063-5.977,0.553-7.002c-0.968,1.569-4.512,4.965-5.857,1.995
					c-1.474-3.261,1.031-7.556,1.031-7.556c-2.848,2.738-4.12,6.561-4.12,6.561c4.12,3.752,5.99,9.685,5.99,9.685
					s2.244-1.42,5.753,2.758c0.307-0.947,0.424-3.154-0.001-4.217c-1.382-3.468-1.17-4.396-1.17-4.396S9.839,58.055,8.518,54.182z"
					/>
			</g>
			<g style="opacity:0.7;">
				<path style="fill:#A7A9AC;" d="M71.158,49.551c-1.162-0.533-1.58-4.308-1.58-4.308c0.039,3.198-0.539,5.196-0.539,5.196
					l-0.002,0.002c0.446,2.749,3.07,7.503,2.711,10.953c0.002,0.201,2.85-4.788,5.233-2.711c2.265-8.057,0.954-7.794,0.747-8.436
					c-0.208-0.641-1.596-1.976-1.596-1.976c1.439,0.426,2.607,0.464,2.607,0.464c-0.127-0.114-0.275-0.275-0.434-0.47
					c-3.285-0.415-5.127-1.918-5.127-1.918C73.145,48.45,72.32,50.086,71.158,49.551z"/>
			</g>
		</g>
	</g>
</g>
<g id="Layer_1">
</g>
</svg>
