<?xml version="1.0" encoding="iso-8859-1"?>
<!-- Generator: Adobe Illustrator 15.0.0, SVG Export Plug-In . SVG Version: 6.00 Build 0)  -->
<!DOCTYPE svg PUBLIC "-//W3C//DTD SVG 1.1//EN" "http://www.w3.org/Graphics/SVG/1.1/DTD/svg11.dtd">
<svg version="1.1" xmlns="http://www.w3.org/2000/svg" xmlns:xlink="http://www.w3.org/1999/xlink" x="0px" y="0px" width="80px"
	 height="80px" viewBox="0 0 80 80" style="enable-background:new 0 0 80 80;" xml:space="preserve">
<g id="ico-hair-boy-3">
	<g>
		<defs>
			<rect id="SVGID_1_" width="80" height="80"/>
		</defs>
		<clipPath id="SVGID_2_">
			<use xlink:href="#SVGID_1_"  style="overflow:visible;"/>
		</clipPath>
		<g style="clip-path:url(#SVGID_2_);">
			<path style="fill:none;" d="M59.746,0H20.253C9.068,0,0,9.066,0,20.253v39.493C0,70.932,9.068,80,20.253,80h39.493
				C70.932,80,80,70.932,80,59.746V20.253C80,9.066,70.932,0,59.746,0z"/>
		</g>
	</g>
	<g>
		<path style="fill:#A7A9AC;" d="M76.693,49.806c5.752-7.148-1.883-10.721-1.883-10.721s2.379-0.714,1.287-2.245
			c-1.287,1.531-3.475,1.326-4.068-2.146c-0.596-3.472-5.854-5.003-5.854-5.003s2.879-0.715,1.291-2.653
			c-1.291,2.653-4.863,0.918-7.342-1.429c-2.481-2.348-7.439-5.515-12.205-3.166c-5.158-6.638-13.293-2.452-17.46,0.508
			c-4.165,2.962-5.257-0.508-4.664-1.938c-1.487,0.612-2.975,3.165-1.388,4.493c-1.587-0.817-5.456-0.717-8.533,2.243
			c-3.174,3.063-4.564,0.513-4.564,0.513s0,2.96,2.382,2.755c-6.447,3.884-5.158,6.536-4.761,9.088
			c0.395,2.553-2.779,3.369-3.97,1.839c-0.1,1.328,0.893,2.04,0.893,2.04c-8.731,3.373-4.317,9.29-4.317,9.29
			s0.059-1.487,0.982-2.616c-0.75,1.072-0.463,2.437,0.346,2.97c-0.115,3.628,3.717,3.769,3.451,5.947
			c-0.264,2.18-2.775,1.085-2.775,1.085c2.045,3.192,4.024,1.176,6.536,2.684c1.619,0.974,2.016,3.135,1.707,5.448
			c0.86-3.107,0.516-4.936,0.003-8.219c-0.537-3.431,0.832-5.33,1.784-6.247c1.369,1.775,3.987,0,5.535-1.898
			c-0.417,1.528-0.417,1.528-0.417,1.528s6.664-0.916,6.428-5.754c3.211,2.571,4.699,3.735,2.021,4.349
			c2.44,1.224,4.88,0.673,5.057-2.817c0.715,1.41,3.162,2.51,4.523,3.122c1.903,0.858,1.964,2.021,1.071,2.388
			c2.976-0.181,3.867-4.163,2.857-5.265c1.725,0.92,3.867,1.039,4.461,0.979c-1.784-0.552-2.378-3.308-1.31-4.959
			c0,0,1.668,4.285,7.083,3.491c-1.368-1.226,0.177-4.104,0.177-4.104s0.596,0.979,4.166,2.818c2.438,1.404,2.559,2.632,1.725,3.55
			c2.023-0.366,3.154-1.042,3.395-3.124c-0.416,3.553,1.307,5.392,3.57,5.451c2.26,0.061,3.092,1.408,1.604,3.431
			c0.834,0.061,1.016-0.246,1.016-0.246s1.166,4.862,1.57,7.787c0.305-0.255,1.119-2.249,5.516-3.608
			c5.258-2.243,0.895-5.817,0.895-5.817s2.182,0.713,2.381-1.328C74.215,53.686,74.215,51.949,76.693,49.806z"/>
		<path style="fill:#D1D3D4;" d="M11.974,68.847l-0.388-0.082c0.2-1.479,0.194-3.848-1.667-4.967
			c-0.968-0.583-1.801-0.894-2.663-0.927c-1.337-0.052-2.603-0.102-3.88-2.096l-0.361-0.562l0.603,0.261
			c0.005,0.003,0.602,0.259,1.213,0.259c0.773,0,1.193-0.388,1.291-1.184c0.104-0.856-0.514-1.365-1.297-2.003
			c-0.972-0.792-2.182-1.775-2.157-3.813c-0.375-0.286-0.645-0.745-0.741-1.271c-0.007-0.046-0.014-0.092-0.021-0.138
			c-0.151,0.543-0.168,0.948-0.168,0.955l-0.021,0.566l-0.335-0.449C1.312,53.306-0.307,51.095,0.4,48.55
			c0.536-1.923,2.241-3.48,5.079-4.634c-0.316-0.33-0.787-1.001-0.714-1.988l0.037-0.517l0.316,0.404
			c0.344,0.442,0.903,0.695,1.536,0.695c0.668,0,1.301-0.28,1.691-0.749c0.353-0.429,0.49-0.988,0.39-1.623
			c-0.039-0.25-0.085-0.501-0.134-0.757c-0.427-2.252-0.909-4.795,4.424-8.188c-1.499-0.281-1.91-1.99-1.91-2.933v-0.771
			l0.372,0.671c0.02,0.034,0.506,0.895,1.55,0.895c0.794,0,1.704-0.49,2.702-1.452c2.569-2.475,5.376-2.744,6.465-2.744
			c0.571,0,1.106,0.069,1.571,0.188c-0.22-0.401-0.294-0.87-0.218-1.39c0.171-1.161,1.123-2.408,2.167-2.836l0.445-0.185
			l-0.19,0.453c-0.208,0.501-0.202,1.393,0.225,2.055c0.224,0.349,0.649,0.761,1.426,0.761c0.753,0,1.667-0.376,2.719-1.125
			c2.147-1.525,6.375-4.087,10.548-4.087c2.849,0,5.228,1.175,7.08,3.493c1.1-0.515,2.271-0.778,3.488-0.778
			c4.196,0,7.791,3.099,8.793,4.046c1.771,1.674,3.725,2.713,5.105,2.713c0.883,0,1.531-0.412,1.926-1.224l0.135-0.279l0.195,0.237
			c0.465,0.571,0.623,1.109,0.465,1.602c-0.191,0.602-0.809,0.976-1.281,1.182c1.406,0.515,4.928,2.074,5.422,4.974
			c0.311,1.806,1.117,2.887,2.164,2.885c0.541,0,1.109-0.308,1.563-0.839l0.158-0.195l0.148,0.207
			c0.311,0.433,0.398,0.854,0.268,1.255c-0.191,0.573-0.809,0.944-1.23,1.142c0.91,0.522,3.063,1.989,3.611,4.459
			c0.445,1.974-0.25,4.114-2.059,6.363c-1.32,1.143-1.938,2.168-1.764,2.904c0.139,0.579,0.775,1.013,1.85,1.258l0.172,0.04
			l-0.016,0.178c-0.102,1.056-0.727,1.634-1.762,1.634l0,0c-0.064,0-0.133-0.002-0.195-0.007c0.578,0.615,1.424,1.753,1.256,2.986
			c-0.152,1.098-0.848,4.333-2.488,5.032c-2.246-0.562-3.713,0.004-3.98,0.23l-1.934,1.462l-0.357-1.391
			c-0.328-2.41-1.16-5.611-1.266-6.646c-0.182,0.075-0.447,0.126-0.861,0.093l-0.365-0.024l0.223-0.299
			c0.643-0.874,0.855-1.651,0.6-2.198c-0.258-0.554-0.988-0.876-2.053-0.904c-1.137-0.032-2.096-0.479-2.779-1.288
			c-0.602-0.717-0.947-1.676-1.027-2.82c-0.584,1.084-1.665,1.514-3.117,1.779l-0.584,0.107l0.404-0.45
			c0.322-0.354,0.457-0.723,0.4-1.099c-0.102-0.673-0.822-1.408-2.078-2.135c-2.578-1.327-3.627-2.221-4.022-2.632
			c-0.327,0.715-1.095,2.688-0.093,3.585l0.326,0.295l-0.43,0.063c-0.454,0.066-0.898,0.102-1.328,0.102
			c-3.632,0-5.291-2.435-5.791-3.364c-0.383,0.802-0.434,1.836-0.117,2.74c0.289,0.818,0.82,1.386,1.494,1.594l0.96,0.296
			l-0.996,0.104c-0.085,0.007-0.202,0.015-0.345,0.015c-0.215,0-1.968-0.021-3.67-0.748c0.216,0.67,0.158,1.627-0.188,2.524
			c-0.577,1.502-1.715,2.41-3.125,2.496l-1.226,0.072l1.141-0.466c0.273-0.112,0.429-0.307,0.432-0.544
			c0.003-0.377-0.388-0.964-1.511-1.467c-1.28-0.577-3.326-1.498-4.298-2.722c-0.263,1.932-1.328,3.025-2.982,3.025
			c-0.713,0-1.509-0.213-2.307-0.613l-0.51-0.26l0.554-0.124c0.756-0.172,1.169-0.391,1.224-0.646c0.12-0.555-1.236-1.667-3-3.084
			c-0.157,4.6-6.538,5.531-6.604,5.54l-0.3,0.041l0.274-1.005c-1.019,1.057-2.418,2.064-3.663,2.064
			c-0.584,0-1.075-0.214-1.469-0.64c-1.015,1.052-2.045,2.904-1.576,5.917l0.062,0.396C12.521,63.982,12.809,65.82,11.974,68.847z
			 M69.803,62.814c1.482-0.636,6.064-3.002,6.193-3.938c0.213-1.579-1.592-3.075-1.607-3.087l-0.84-0.69l1.021,0.33
			c0,0,0.35,0.114,0.758,0.114c0.766,0,1.215-0.367,1.342-1.09c-1.139-0.294-1.799-0.801-1.971-1.516
			c-0.217-0.909,0.43-2.044,1.865-3.288c1.703-2.118,2.369-4.14,1.959-5.98c-0.645-2.891-3.768-4.383-3.797-4.398l-0.486-0.228
			l0.512-0.155c0.012-0.002,1.172-0.361,1.396-1.046c0.07-0.213,0.043-0.431-0.082-0.673c-0.494,0.51-1.084,0.785-1.678,0.785
			c-1.256,0-2.211-1.205-2.555-3.226c-0.564-3.303-5.66-4.824-5.711-4.842l-0.725-0.21l0.73-0.186
			c0.016-0.003,1.334-0.341,1.578-1.113c0.09-0.288,0.018-0.612-0.215-0.971c-0.475,0.766-1.205,1.171-2.129,1.171
			c-1.498,0-3.508-1.057-5.371-2.819c-0.979-0.925-4.477-3.939-8.527-3.939c-1.209,0-2.373,0.27-3.457,0.807l-0.143,0.068
			l-0.099-0.125c-1.786-2.3-4.099-3.464-6.87-3.464c-4.067,0-8.213,2.517-10.325,4.014c-1.117,0.796-2.107,1.196-2.942,1.198
			c-0.952,0-1.482-0.513-1.759-0.946c-0.39-0.61-0.484-1.365-0.386-1.965c-0.757,0.493-1.408,1.446-1.537,2.314
			c-0.067,0.464-0.021,1.12,0.585,1.625l1.401,1.175l-1.616-0.833c-0.523-0.27-1.275-0.418-2.116-0.418
			c-1.038,0-3.727,0.258-6.192,2.633c-1.074,1.033-2.074,1.559-2.975,1.559c-0.67,0-1.153-0.286-1.462-0.568
			c0.143,0.799,0.611,2.048,2.104,1.921l0.872-0.074l-0.755,0.455c-5.691,3.424-5.241,5.808-4.805,8.111
			c0.048,0.258,0.096,0.515,0.137,0.768c0.119,0.758-0.048,1.43-0.48,1.952c-0.464,0.562-1.209,0.893-1.993,0.893
			c-0.56,0-1.078-0.168-1.477-0.479c0.13,0.893,0.786,1.377,0.792,1.379l0.309,0.224l-0.354,0.135
			c-2.894,1.119-4.623,2.626-5.139,4.487c-0.476,1.7,0.208,3.28,0.627,4.03c0.103-0.559,0.354-1.428,0.957-2.168l0.313,0.251
			c-0.337,0.481-0.467,1.055-0.366,1.61c0.085,0.462,0.325,0.852,0.658,1.068l0.094,0.065l-0.004,0.114
			c-0.06,1.91,1.038,2.802,2.006,3.595c0.81,0.66,1.579,1.283,1.445,2.369c-0.121,0.995-0.72,1.542-1.685,1.542
			c-0.28,0-0.553-0.049-0.779-0.101c1.043,1.339,2.059,1.378,3.221,1.426c0.867,0.03,1.849,0.068,2.902,0.699
			c1.059,0.636,1.692,1.791,1.86,3.347c0.197-1.801-0.042-3.347-0.383-5.511l-0.062-0.396c-0.521-3.341,0.716-5.341,1.848-6.431
			l0.154-0.15l0.135,0.174c0.335,0.435,0.771,0.655,1.3,0.655c1.358,0,2.965-1.378,3.926-2.56l0.592-0.725l-0.58,2.131
			c1.276-0.253,6.149-1.476,5.953-5.489l-0.021-0.445l0.438,0.351c2.289,1.837,3.551,2.847,3.37,3.678
			c-0.074,0.344-0.379,0.599-0.967,0.801c0.565,0.226,1.118,0.343,1.62,0.343c1.596,0,2.534-1.144,2.641-3.216l0.037-0.746
			l0.337,0.663c0.681,1.342,3.117,2.439,4.426,3.029c1.121,0.506,1.757,1.18,1.746,1.851c-0.001,0.145-0.035,0.28-0.097,0.404
			c1.304-0.383,1.899-1.569,2.111-2.122c0.408-1.051,0.382-2.207-0.056-2.684L39.7,49.241l1.035,0.554
			c1.318,0.7,2.791,0.896,3.548,0.949c-0.431-0.34-0.772-0.837-0.986-1.442c-0.4-1.144-0.268-2.486,0.336-3.418l0.209-0.322
			l0.141,0.357c0.055,0.142,1.404,3.463,5.596,3.463c0.291,0,0.592-0.018,0.897-0.05c-0.985-1.413,0.348-3.932,0.407-4.049
			l0.164-0.303l0.18,0.296c0,0,0.65,0.977,4.085,2.743c1.396,0.804,2.161,1.62,2.284,2.43c0.049,0.345-0.01,0.68-0.183,1.002
			c1.567-0.358,2.515-1.011,2.728-2.822v-0.002l0,0h0.002l0.393,0.028l0,0l0,0l0,0c-0.197,1.743,0.109,3.143,0.891,4.072
			c0.607,0.725,1.471,1.12,2.488,1.147c1.227,0.032,2.078,0.438,2.402,1.135c0.211,0.446,0.289,1.193-0.418,2.296
			c0.365-0.031,0.465-0.156,0.465-0.156l0.311-0.529l0.051,0.624"/>
	</g>
	<g>
		<g>
			<path style="fill:#939598;" d="M19.658,43.521c-0.348,0.032-0.694,0.094-1.036,0.171c-0.342,0.077-0.678,0.181-1.002,0.301
				c-0.167,0.054-0.322,0.127-0.482,0.197c-0.161,0.063-0.314,0.147-0.463,0.234c-0.152,0.083-0.302,0.169-0.439,0.274
				c-0.137,0.104-0.287,0.189-0.408,0.317c-0.123,0.122-0.259,0.223-0.376,0.349l-0.33,0.397c-0.104,0.134-0.179,0.291-0.273,0.433
				c-0.041,0.077-0.096,0.145-0.129,0.224l-0.098,0.239c-0.06,0.162-0.147,0.314-0.184,0.482l-0.119,0.508
				c-0.051,0.165-0.051,0.343-0.073,0.518l-0.049,0.523v-0.022c0.049,0.553,0.227,1.09,0.456,1.615
				c0.228,0.523,0.516,1.031,0.731,1.592c0.104,0.283,0.201,0.585,0.178,0.909c-0.009,0.328-0.181,0.637-0.412,0.832
				c-0.113,0.103-0.24,0.187-0.365,0.26c-0.131,0.068-0.262,0.135-0.393,0.188c-0.267,0.114-0.544,0.188-0.822,0.262
				c0.265-0.11,0.53-0.216,0.781-0.352c0.126-0.064,0.247-0.144,0.363-0.218c0.114-0.081,0.222-0.172,0.316-0.272
				c0.184-0.199,0.309-0.444,0.301-0.708c0.005-0.266-0.096-0.531-0.208-0.786c-0.233-0.516-0.548-1.012-0.795-1.553
				c-0.259-0.532-0.461-1.116-0.522-1.733v-0.017V48.68l0.049-0.561c0.019-0.182,0.019-0.372,0.076-0.551l0.138-0.548
				c0.041-0.182,0.136-0.348,0.203-0.521c0.07-0.175,0.144-0.349,0.257-0.502c0.103-0.155,0.192-0.324,0.311-0.466l0.372-0.418
				c0.128-0.129,0.275-0.242,0.415-0.363c0.135-0.124,0.302-0.207,0.451-0.309c0.152-0.104,0.313-0.186,0.479-0.26
				c0.16-0.084,0.325-0.162,0.497-0.216c0.167-0.065,0.332-0.132,0.506-0.174c0.342-0.103,0.693-0.169,1.046-0.215
				C18.952,43.528,19.306,43.505,19.658,43.521z"/>
		</g>
		<g>
			<path style="fill:#939598;" d="M11.434,50.064c0,0-0.156,0.107-0.42,0.305c-0.262,0.188-0.623,0.487-1.039,0.86
				c-0.412,0.373-0.862,0.855-1.206,1.439c-0.167,0.296-0.291,0.621-0.33,0.954c-0.042,0.338,0.033,0.68,0.192,0.982
				c0.157,0.287,0.415,0.602,0.634,0.881c0.228,0.283,0.465,0.561,0.696,0.823c0.464,0.521,0.928,1.021,1.193,1.565
				c0.131,0.267,0.186,0.543,0.209,0.783c0.014,0.237,0.005,0.443-0.012,0.611c-0.011,0.169-0.054,0.297-0.065,0.385
				c-0.016,0.09-0.027,0.137-0.027,0.137s0.004-0.047,0.008-0.14c0-0.086,0.014-0.218,0.005-0.386
				c0.001-0.164-0.013-0.365-0.056-0.587c-0.048-0.22-0.127-0.46-0.259-0.698c-0.266-0.474-0.759-0.91-1.248-1.422
				c-0.245-0.26-0.5-0.522-0.738-0.819c-0.123-0.146-0.239-0.298-0.354-0.444c-0.111-0.143-0.239-0.313-0.334-0.496
				C8.093,54.43,8,53.987,8.061,53.579c0.05-0.412,0.221-0.782,0.413-1.098c0.402-0.631,0.918-1.071,1.36-1.43
				c0.448-0.353,0.858-0.587,1.142-0.751C11.263,50.14,11.434,50.064,11.434,50.064z"/>
		</g>
		<g>
			<path style="fill:#939598;" d="M2.865,53.627c0,0-0.021-0.342,0.078-0.844c0.047-0.249,0.125-0.538,0.234-0.84
				c0.062-0.146,0.109-0.305,0.189-0.451c0.071-0.152,0.146-0.304,0.232-0.454c0.081-0.147,0.177-0.286,0.273-0.426
				c0.089-0.143,0.202-0.261,0.301-0.388c0.096-0.124,0.213-0.228,0.314-0.33c0.098-0.106,0.204-0.195,0.303-0.271
				c0.191-0.164,0.369-0.274,0.497-0.347c0.124-0.073,0.197-0.113,0.197-0.113s-0.054,0.066-0.147,0.179
				c-0.097,0.105-0.237,0.26-0.387,0.449c-0.081,0.096-0.163,0.197-0.244,0.31c-0.082,0.11-0.174,0.224-0.259,0.351
				c-0.171,0.248-0.351,0.516-0.505,0.797c-0.17,0.274-0.307,0.567-0.443,0.839c-0.127,0.272-0.247,0.534-0.337,0.768
				C2.975,53.309,2.865,53.627,2.865,53.627z"/>
		</g>
		<g>
			<path style="fill:#939598;" d="M21.292,33.977c-0.129,0.183-0.282,0.351-0.451,0.504c-0.162,0.152-0.344,0.288-0.538,0.408
				c-0.092,0.068-0.198,0.11-0.299,0.163c-0.103,0.055-0.216,0.074-0.326,0.114c-0.108,0.042-0.229,0.042-0.344,0.062
				c-0.113,0.026-0.232,0.002-0.351,0c-0.121,0-0.232-0.034-0.35-0.064l-0.168-0.05c-0.057-0.023-0.106-0.054-0.159-0.078
				c-0.103-0.06-0.22-0.099-0.309-0.176l-0.276-0.227c-0.096-0.068-0.162-0.166-0.244-0.251l-0.229-0.263l-0.379-0.585l0.351-0.047
				l-0.084,0.433c-0.037,0.143-0.025,0.292-0.039,0.437c-0.018,0.147-0.01,0.292,0,0.434c0.003,0.146,0.018,0.293,0.052,0.434
				c0.028,0.141,0.05,0.285,0.106,0.418c0.048,0.137,0.083,0.278,0.154,0.404c0.064,0.129,0.12,0.263,0.206,0.381
				c0.08,0.118,0.156,0.244,0.255,0.346c0.093,0.108,0.186,0.221,0.298,0.312l0.16,0.145l0.179,0.12
				c0.115,0.089,0.242,0.151,0.374,0.21c0.126,0.07,0.268,0.104,0.404,0.144c0.137,0.052,0.281,0.052,0.422,0.085
				c0.146,0.025,0.292,0.004,0.437,0.01c0.146-0.014,0.287-0.051,0.434-0.072l0.424-0.146c-0.133,0.069-0.266,0.146-0.402,0.213
				c-0.146,0.04-0.29,0.095-0.44,0.126c-0.151,0.013-0.303,0.053-0.458,0.043c-0.152-0.008-0.314,0.008-0.463-0.041
				c-0.15-0.033-0.305-0.061-0.447-0.128c-0.149-0.053-0.294-0.112-0.426-0.2l-0.206-0.117l-0.188-0.147
				c-0.131-0.091-0.243-0.203-0.35-0.32c-0.117-0.114-0.207-0.244-0.299-0.376c-0.1-0.127-0.171-0.273-0.245-0.416
				c-0.083-0.135-0.131-0.294-0.186-0.444c-0.063-0.151-0.092-0.312-0.122-0.471c-0.041-0.157-0.059-0.317-0.064-0.479
				c-0.015-0.161-0.027-0.324-0.007-0.485c0.019-0.158,0.01-0.325,0.051-0.478l0.098-0.473l0.096-0.459l0.258,0.413l0.344,0.548
				l0.202,0.247c0.067,0.079,0.126,0.176,0.209,0.233l0.234,0.21c0.076,0.068,0.17,0.108,0.256,0.166
				c0.043,0.026,0.085,0.054,0.132,0.079l0.142,0.05c0.096,0.037,0.193,0.076,0.292,0.08c0.1,0.008,0.203,0.041,0.307,0.022
				c0.1-0.012,0.206,0,0.306-0.032c0.101-0.03,0.207-0.036,0.304-0.086c0.099-0.036,0.201-0.063,0.295-0.115
				c0.195-0.092,0.384-0.205,0.56-0.337C20.962,34.276,21.134,34.135,21.292,33.977z"/>
		</g>
		<g>
			<path style="fill:#939598;" d="M25.083,48.143c0,0-0.039-0.023-0.109-0.081c-0.069-0.056-0.174-0.139-0.289-0.265
				c-0.119-0.122-0.246-0.283-0.385-0.481c-0.131-0.198-0.271-0.436-0.374-0.714c-0.114-0.277-0.193-0.596-0.247-0.935
				c-0.057-0.343-0.067-0.706-0.042-1.084c0.025-0.187,0.05-0.376,0.075-0.566c0.042-0.189,0.087-0.38,0.13-0.57
				c0.061-0.206,0.125-0.371,0.187-0.557c0.07-0.183,0.173-0.368,0.256-0.555c0.097-0.176,0.214-0.339,0.32-0.51
				c0.123-0.158,0.247-0.313,0.375-0.462c0.271-0.28,0.564-0.532,0.874-0.733c0.305-0.21,0.623-0.374,0.933-0.491
				c0.309-0.129,0.61-0.216,0.893-0.279c0.283-0.069,0.544-0.103,0.777-0.116c0.231-0.02,0.436-0.015,0.604-0.007
				c0.165,0.003,0.294,0.025,0.383,0.039c0.088,0.015,0.134,0.022,0.134,0.022s-0.047,0-0.138,0
				c-0.087-0.005-0.216,0.008-0.379,0.018c-0.164,0.014-0.362,0.03-0.585,0.079c-0.224,0.042-0.474,0.104-0.737,0.188
				c-0.267,0.079-0.552,0.184-0.834,0.328c-0.145,0.065-0.289,0.146-0.428,0.233c-0.146,0.08-0.284,0.182-0.426,0.279
				c-0.284,0.199-0.538,0.449-0.789,0.712c-0.115,0.138-0.229,0.281-0.338,0.426c-0.096,0.156-0.203,0.31-0.288,0.474
				c-0.078,0.162-0.167,0.318-0.237,0.492c-0.064,0.176-0.139,0.373-0.187,0.53c-0.048,0.179-0.094,0.356-0.138,0.533
				c-0.031,0.178-0.059,0.354-0.087,0.529c-0.031,0.351-0.05,0.688-0.02,1.011c0.026,0.319,0.082,0.624,0.172,0.89
				c0.167,0.544,0.406,0.96,0.606,1.225C24.941,48.014,25.083,48.143,25.083,48.143z"/>
		</g>
		<g>
			<path style="fill:#939598;" d="M32.143,49.704c0,0-0.253-0.262-0.438-0.781c-0.05-0.128-0.083-0.273-0.119-0.428
				c-0.023-0.158-0.057-0.321-0.055-0.497c-0.011-0.175,0.001-0.354,0.021-0.54c0.023-0.179,0.069-0.359,0.11-0.541
				c0.065-0.172,0.117-0.35,0.196-0.513c0.082-0.161,0.159-0.324,0.254-0.464c0.094-0.141,0.191-0.273,0.279-0.399
				c0.105-0.115,0.204-0.218,0.299-0.316c0.175-0.2,0.366-0.32,0.482-0.421c0.125-0.089,0.196-0.143,0.196-0.143
				s-0.05,0.074-0.14,0.202c-0.083,0.13-0.231,0.289-0.366,0.516c-0.069,0.105-0.144,0.222-0.227,0.342
				c-0.071,0.131-0.142,0.268-0.222,0.404c-0.083,0.136-0.129,0.294-0.206,0.441c-0.07,0.148-0.11,0.312-0.167,0.469
				c-0.039,0.161-0.085,0.321-0.111,0.484c-0.021,0.162-0.052,0.322-0.052,0.479c-0.011,0.157-0.002,0.311,0,0.455
				c0.017,0.145,0.024,0.283,0.045,0.411C32.004,49.373,32.143,49.704,32.143,49.704z"/>
		</g>
		<g>
			<path style="fill:#939598;" d="M52.967,31.636c0.178,0.15,0.368,0.286,0.558,0.422c0.191,0.131,0.39,0.247,0.594,0.354
				c0.103,0.052,0.196,0.113,0.304,0.155s0.207,0.095,0.313,0.129l0.319,0.102l0.326,0.066c0.107,0.016,0.216,0.012,0.324,0.019
				c0.107,0.019,0.213-0.014,0.316-0.019c0.111-0.002,0.211-0.036,0.311-0.072c0.101-0.032,0.206-0.056,0.295-0.118
				c0.092-0.054,0.189-0.098,0.278-0.152l0.248-0.212c0.171-0.136,0.288-0.332,0.438-0.494l0.415-0.442l-0.059,0.574l-0.033,0.356
				c-0.007,0.119-0.041,0.237-0.061,0.355c-0.017,0.121-0.053,0.236-0.091,0.354c-0.031,0.115-0.077,0.23-0.134,0.34
				c-0.047,0.113-0.109,0.221-0.177,0.323c-0.06,0.107-0.149,0.199-0.23,0.292c-0.075,0.099-0.185,0.167-0.277,0.246
				c-0.104,0.067-0.216,0.123-0.323,0.177c-0.116,0.035-0.23,0.093-0.35,0.102c-0.119,0.021-0.239,0.043-0.355,0.035
				c-0.119,0.005-0.238-0.002-0.352-0.021c-0.117-0.014-0.23-0.039-0.341-0.076c-0.11-0.029-0.22-0.07-0.323-0.117
				c-0.107-0.044-0.211-0.089-0.311-0.15c-0.098-0.056-0.202-0.102-0.295-0.169l-0.278-0.198l0.308,0.143
				c0.097,0.053,0.205,0.082,0.308,0.129c0.102,0.043,0.21,0.075,0.316,0.103c0.104,0.029,0.21,0.057,0.317,0.069
				c0.105,0.02,0.215,0.038,0.32,0.038c0.107,0.011,0.211,0.011,0.316-0.005c0.105-0.003,0.209-0.03,0.305-0.054
				c0.106-0.015,0.194-0.076,0.291-0.109c0.088-0.052,0.174-0.11,0.254-0.169c0.067-0.077,0.158-0.127,0.217-0.213
				c0.065-0.082,0.133-0.159,0.182-0.253c0.056-0.089,0.104-0.18,0.142-0.282c0.042-0.095,0.081-0.193,0.106-0.299
				c0.027-0.102,0.063-0.207,0.076-0.316c0.016-0.106,0.045-0.213,0.051-0.323l0.028-0.328l0.354,0.133l-0.238,0.283
				c-0.081,0.096-0.154,0.194-0.26,0.268l-0.292,0.239c-0.105,0.066-0.222,0.122-0.333,0.18c-0.105,0.067-0.234,0.092-0.355,0.124
				c-0.119,0.036-0.241,0.069-0.367,0.065c-0.125,0.004-0.25,0.034-0.373,0.01c-0.121-0.018-0.246-0.023-0.365-0.053l-0.348-0.099
				l-0.338-0.139c-0.109-0.045-0.209-0.109-0.316-0.164c-0.107-0.054-0.204-0.125-0.304-0.187c-0.195-0.136-0.382-0.287-0.56-0.443
				C53.283,31.984,53.115,31.819,52.967,31.636z"/>
		</g>
		<g>
			<path style="fill:#939598;" d="M66.242,41.127c0.297,0.286,0.607,0.552,0.949,0.769c0.164,0.111,0.338,0.208,0.512,0.293
				l0.27,0.116l0.275,0.084c0.092,0.03,0.186,0.03,0.277,0.047c0.092,0.021,0.184,0.005,0.277,0.005c0.043-0.002,0.09,0,0.137-0.002
				l0.129-0.036c0.09-0.023,0.182-0.036,0.262-0.087c0.078-0.042,0.16-0.076,0.242-0.119l0.221-0.171
				c0.15-0.11,0.26-0.28,0.396-0.413l0.246-0.239l0.092,0.289l0.096,0.301c0.023,0.105,0.07,0.199,0.078,0.309l0.039,0.324
				c0.018,0.105-0.008,0.221-0.014,0.33c-0.008,0.055-0.01,0.109-0.02,0.164l-0.053,0.16c-0.039,0.108-0.068,0.217-0.135,0.306
				c-0.064,0.089-0.105,0.194-0.189,0.267c-0.078,0.074-0.145,0.161-0.23,0.223c-0.088,0.06-0.17,0.125-0.258,0.179l-0.271,0.144
				c-0.189,0.072-0.379,0.144-0.572,0.187c-0.385,0.084-0.779,0.133-1.166,0.113c0.379-0.07,0.758-0.156,1.111-0.3
				c0.18-0.069,0.348-0.148,0.514-0.238l0.236-0.152c0.074-0.055,0.139-0.116,0.209-0.173c0.07-0.058,0.117-0.134,0.178-0.199
				c0.064-0.063,0.092-0.149,0.139-0.223c0.053-0.073,0.066-0.159,0.094-0.245l0.035-0.122c0.006-0.045,0.006-0.089,0.01-0.131
				c-0.004-0.091,0.02-0.177,0.004-0.265l-0.039-0.271c-0.004-0.091-0.051-0.179-0.076-0.266l-0.086-0.268l0.34,0.05l-0.225,0.244
				c-0.074,0.079-0.143,0.167-0.238,0.229l-0.268,0.197c-0.098,0.055-0.201,0.097-0.305,0.143c-0.102,0.056-0.213,0.069-0.322,0.091
				l-0.164,0.03c-0.057,0.006-0.111,0-0.168,0c-0.111,0-0.223,0.006-0.33-0.023c-0.105-0.025-0.215-0.037-0.314-0.078
				c-0.104-0.038-0.203-0.075-0.303-0.116l-0.281-0.15c-0.178-0.117-0.35-0.234-0.51-0.374c-0.158-0.136-0.305-0.286-0.445-0.438
				C66.488,41.463,66.355,41.301,66.242,41.127z"/>
		</g>
		<g>
			<path style="fill:#939598;" d="M59.1,46.164c0,0,0.176,0.112,0.371,0.349c0.203,0.227,0.42,0.574,0.58,0.957
				c0.057,0.197,0.143,0.384,0.168,0.578c0.031,0.194,0.068,0.37,0.061,0.527c-0.012,0.313-0.053,0.515-0.053,0.515
				s-0.094-0.193-0.172-0.475c-0.043-0.139-0.119-0.296-0.17-0.467c-0.025-0.087-0.064-0.168-0.1-0.257
				c-0.033-0.089-0.07-0.178-0.105-0.266c-0.027-0.095-0.072-0.178-0.107-0.266c-0.039-0.089-0.066-0.179-0.102-0.259
				c-0.076-0.165-0.135-0.328-0.193-0.465C59.168,46.36,59.1,46.164,59.1,46.164z"/>
		</g>
		<g>
			<path style="fill:#939598;" d="M67.301,50.112c0,0,0.084,0.092,0.207,0.274c0.127,0.174,0.303,0.438,0.477,0.773
				c0.084,0.167,0.176,0.35,0.258,0.555c0.074,0.204,0.17,0.415,0.225,0.647c0.07,0.232,0.125,0.477,0.16,0.729
				c0.051,0.248,0.039,0.512,0.059,0.772l-0.035,0.389c-0.006,0.13-0.02,0.258-0.057,0.385c-0.057,0.254-0.121,0.497-0.238,0.717
				c-0.053,0.112-0.098,0.222-0.15,0.326c-0.07,0.096-0.137,0.189-0.201,0.28c-0.066,0.087-0.129,0.175-0.189,0.258
				c-0.076,0.069-0.148,0.139-0.221,0.202c-0.141,0.127-0.264,0.253-0.391,0.332c-0.131,0.079-0.242,0.148-0.336,0.205
				c-0.188,0.109-0.293,0.166-0.293,0.166s0.09-0.087,0.25-0.231c0.078-0.07,0.176-0.157,0.283-0.254
				c0.111-0.103,0.203-0.245,0.322-0.38c0.059-0.067,0.115-0.137,0.18-0.211c0.047-0.084,0.098-0.171,0.148-0.258
				c0.053-0.091,0.104-0.18,0.158-0.271c0.039-0.099,0.078-0.201,0.119-0.304c0.033-0.104,0.09-0.206,0.109-0.317
				c0.023-0.113,0.047-0.226,0.074-0.339c0.061-0.224,0.041-0.467,0.072-0.701c-0.016-0.237,0-0.478-0.045-0.714
				c-0.014-0.118-0.031-0.234-0.045-0.348c-0.021-0.117-0.051-0.227-0.072-0.336c-0.094-0.448-0.23-0.854-0.354-1.204
				c-0.129-0.344-0.236-0.638-0.33-0.833C67.354,50.225,67.301,50.112,67.301,50.112z"/>
		</g>
	</g>
	<g style="opacity:0.7;">
		<path style="fill:#BCBEC0;" d="M47.395,24.239c-2.045-1.843-6.284-2.302-8.183-0.46c1.46-0.462,4.968,0,6.721,1.686
			c-5.405-1.074-5.844,1.686-5.844,1.686c5.698-1.686,10.376,0.311,11.832,4.449c0-3.373-1.751-4.906-1.751-4.906
			s2.922-2.303,5.553,0.457c-2.924-3.985-5.553-2.911-5.553-2.911s4.251-1.95,8.951,0.526c-2.683-2.175-6.972-4.326-11.109-2.247
			c-2.525-3.315-5.766-3.984-8.907-3.451C42.219,19.243,45.391,20.514,47.395,24.239z"/>
		<path style="fill:#BCBEC0;" d="M76.84,50.471c5.766-7.302-1.889-10.952-1.889-10.952s2.383-0.728,1.291-2.292
			c-1.291,1.564-3.479,1.354-4.076-2.192c-0.594-3.548-5.865-5.111-5.865-5.111s2.229-0.565,1.688-2.049
			c-0.598,1.797-3.938,2.342-5.4,2.957c3.945-0.77,8.475,2.605,8.328,4.601c-0.145,1.99,0.73,3.68,3.217,3.984
			c-1.17,1.38-2.193,1.075-2.193,1.075c2.631,0.766,6.576,5.671,3.07,8.123c-3.506,2.454-1.461,4.755-0.146,6.286
			c-0.73-0.153-2.631,0.459-3.654-1.992c-1.02-2.451-4.381-3.526-4.381-3.526c2.189,3.065,0.582,5.978,0.582,5.978
			s-0.291-2.758-3.943-3.676c-3.654-0.923-1.023-3.528-4.676-6.286c1.314,2.449,0,4.443,0,4.443s-0.146-2.454-3.801-3.526
			c-3.65-1.072-3.212-3.986-3.212-3.986s-3.946,3.069-2.632,5.98c-1.898-0.157-5.259-2.301-4.528-5.98
			c-1.899,1.535-4.529,4.141-2.339,7.818c-0.73-0.306-2.777-0.766-3.505-3.522c-1.61,1.531,1.606,5.517-1.462,4.444
			c-3.067-1.074-5.699-3.985-2.922-6.898c-4.676,0.153-3.361,5.824-6.282,3.523c-4.53-3.372-1.9-7.359,3.068-8.279
			c-5.992-1.072-9.061,3.684-8.035,6.594c2.481,4.449-4.092,7.513-2.777,6.133c1.317-1.38,0.585-5.058,0.585-5.058
			s-4.092,2.606-4.092,5.364c-2.336-2.301-2.336-5.213,1.021-8.277c-5.843,1.532-5.406,7.205-4.527,8.738
			c-2.63-1.84-1.462-2.762-1.462-2.762s-3.654,1.074-3.8,5.213c-3.216-4.291,2.192-9.503,2.192-9.503s-3.068,0.768-4.237,2.452
			c0.292-3.527,6.867-3.527,5.552-7.666c-1.897-6.286,1.315-7.206,5.407-10.271c-2.867,0.403-4.548-0.107-5.528-0.902
			c0.219,0.859,0.786,1.938,2.243,1.809c-6.46,3.968-5.169,6.679-4.771,9.285c0.397,2.606-2.784,3.438-3.978,1.878
			c-0.1,1.355,0.895,2.084,0.895,2.084c-8.747,3.444-4.326,9.488-4.326,9.488s0.059-1.518,0.984-2.671
			c-0.751,1.095-0.463,2.487,0.346,3.033c-0.115,3.707,3.725,3.85,3.458,6.075c-0.265,2.228-2.781,1.11-2.781,1.11
			c2.049,3.258,1.47-0.493,5.862,1.948c1.605,0.892,2.721,2.759,2.41,5.124c0.862-3.176,0.503-3.81-0.011-7.163
			c-0.538-3.505,0.834-5.443,1.788-6.381c1.371,1.813,3.994,0,5.545-1.941c-0.418,1.563-0.418,1.563-0.418,1.563
			s6.677-0.936,6.44-5.878c3.217,2.627,4.708,3.817,2.025,4.443c2.444,1.25,4.889,0.686,5.067-2.879
			c0.715,1.438,3.167,2.563,4.532,3.189c1.905,0.877,1.966,2.063,1.073,2.44c2.982-0.186,3.875-4.255,2.863-5.38
			c1.727,0.94,3.874,1.063,4.469,1.002c-1.787-0.566-2.383-3.38-1.311-5.067c0,0,1.67,4.379,7.096,3.565
			c-1.373-1.252,0.178-4.192,0.178-4.192s0.594,1.001,4.174,2.88c2.443,1.436,2.562,2.688,1.729,3.626
			c2.023-0.374,3.158-1.063,3.398-3.191c-0.418,3.63,1.311,5.509,3.576,5.568c2.268,0.063,3.1,1.439,1.609,3.505
			c0.834,0.063,1.014-0.252,1.014-0.252s0.926,4.576,1.332,7.564c0.305-0.26,1.365-1.905,5.771-3.294
			c5.268-2.292,0.895-5.943,0.895-5.943s2.188,0.729,2.383-1.356C74.355,54.435,74.355,52.662,76.84,50.471z"/>
	</g>
	<g>
		<path style="fill:#BCBEC0;" d="M17.036,33.437c0,0,0.759,5.33,5.749,2.762C21.677,38.91,15.579,39.665,17.036,33.437z"/>
	</g>
	<g>
		<path style="fill:#BCBEC0;" d="M65.91,43.048c0,0,3.875,1.947,4.434-1.309C71.732,44.762,67.156,45.759,65.91,43.048z"/>
	</g>
	<g style="opacity:0.7;">
		<path style="fill:#BCBEC0;" d="M35.024,27.718c0,0-3.571,5.444-10.32,4.763C28.144,33.569,32.378,33.843,35.024,27.718z"/>
	</g>
	<g>
		<path style="fill:#212121;" d="M25.23,23.629c0,0,2.118,4.084,7.145-0.682c4.76-4.22,9.127-2.177,10.582-1.088
			c-4.763-0.952-8.334-0.546-9.923,3.539c2.514-1.908,3.968-2.043,3.968-2.043s-2.513,0.952-4.1,4.222
			c-1.589,3.269-7.011,5.036-10.185,2.586s-6.086-1.087-6.086-1.087s2.912-3.406,7.011-0.957c3.309,1.773,7.143-2.176,7.143-2.176
			S25.23,27.985,25.23,23.629z"/>
	</g>
	<g>
		<path style="fill:#212121;" d="M54.999,24.448c0,0,1.853-0.135,3.837,1.771c1.982,1.906,4.496,3.27,6.482,2.86
			c-3.309,0.952-4.896,0.544-7.146-1.771C55.925,24.993,54.999,24.448,54.999,24.448z"/>
	</g>
	<g>
		<path style="fill:#212121;" d="M44.209,28.005c0,0-4.862-0.808-7.685,2.582c-2.824,3.39-6.9,6.456-12.704,3.714
			c3.294,3.064,8.785,3.71,12.392,1.45c0,0-8.157,3.712-6.588,9.525c0.314-3.07,5.176-5.167,9.095-6.135
			c-3.919,3.714-4.079,4.196-2.823,6.938c-0.784-3.874,3.451-5.646,3.451-5.646s-1.411,2.581,0,4.033
			c1.413-5.488,6.118-7.424,9.409-8.231c-3.92,2.42-4.703,5.813-2.195,8.717c-0.313-4.358,2.039-8.232,7.528-9.522
			c-3.919-1.453-7.685-2.261-10.821,0c-3.137,2.26-1.098-1.453,3.607-3.388c4.707-1.94-2.196-2.749-5.801,0.321
			C37.465,35.43,37.621,30.102,44.209,28.005z"/>
	</g>
	<g>
		<path style="fill:#212121;" d="M56.129,36.72c0,0-2.824,3.066,1.567,8.071C54.089,45.437,51.895,38.818,56.129,36.72z"/>
	</g>
	<g>
		<path style="fill:#212121;" d="M64.102,32.22c0,0,3.596,0,4.74,2.861c1.146,2.859,0.982,3.87,3.762,3.703
			c0,0-2.615,1.85-4.412-1.852c-1.801-3.704-2.617,2.524,0.488,4.037c-2.127,0.337-3.598-1.513-3.598-3.7
			c-1.637,2.692-0.98,7.068,1.963,9.93c-3.926-0.507-7.033-4.712-7.033-10.267s-0.162-4.208,0.982-0.674s1.799,0.169,1.473-1.515
			C62.139,33.061,67.861,35.923,64.102,32.22z"/>
	</g>
	<g>
		<path style="fill:#212121;" d="M15.738,32.651c0,0-3.217,1.442-2.376,7.058C11.263,38.845,10.841,33.516,15.738,32.651z"/>
	</g>
	<g>
		<path style="fill:#212121;" d="M19.45,41.195c0,0-5.694,0.378-7.268,5.735C10.728,45.562,13.511,39.327,19.45,41.195z"/>
	</g>
</g>
<g id="Layer_1">
</g>
</svg>
