<?xml version="1.0" encoding="utf-8"?>
<!-- Generator: Adobe Illustrator 15.0.0, SVG Export Plug-In . SVG Version: 6.00 Build 0)  -->
<!DOCTYPE svg PUBLIC "-//W3C//DTD SVG 1.1//EN" "http://www.w3.org/Graphics/SVG/1.1/DTD/svg11.dtd">
<svg version="1.1" id="Capa_1" xmlns="http://www.w3.org/2000/svg" xmlns:xlink="http://www.w3.org/1999/xlink" x="0px" y="0px"
	 width="1000px" height="1000px" viewBox="0 0 1000 1000" enable-background="new 0 0 1000 1000" xml:space="preserve">
<path fill="#32A852" d="M992.734,167.505c-5.938-7.125-14.75-11.25-24-11.25H209.997c-9.687,0-18.875,4.5-24.812,12.188
	c-5.875,7.75-7.875,17.75-5.375,27.125l99.999,373.744c3.688,13.75,16.062,23.188,30.187,23.188c0.5,0,1.063,0,1.563-0.063
	l596.241-30c14.437-0.75,26.562-11.313,29.187-25.563l62.499-343.744C1001.172,183.942,998.672,174.567,992.734,167.505z"/>
<g>
	<path fill="#FAFAFA" d="M781.238,468.75c-17.25,0-31.25-13.999-31.25-31.249V312.503c0-17.25,14-31.25,31.25-31.25
		c17.249,0,31.249,14,31.249,31.25v124.998C812.487,454.751,798.487,468.75,781.238,468.75z"/>
	<path fill="#FAFAFA" d="M593.74,468.75c-17.249,0-31.249-13.999-31.249-31.249V312.503c0-17.25,14-31.25,31.249-31.25
		c17.25,0,31.25,14,31.25,31.25v124.998C624.99,454.751,610.99,468.75,593.74,468.75z"/>
	<path fill="#FAFAFA" d="M406.244,468.75c-17.25,0-31.25-13.999-31.25-31.249V312.503c0-17.25,14-31.25,31.25-31.25
		c17.249,0,31.249,14,31.249,31.25v124.998C437.493,454.751,423.493,468.75,406.244,468.75z"/>
</g>
<g>
	<circle fill="#455A64" cx="406.244" cy="874.994" r="93.749"/>
	<circle fill="#455A64" cx="781.238" cy="874.994" r="93.749"/>
	<path fill="#455A64" d="M843.736,718.746H343.744c-14.187,0-26.562-9.499-30.187-23.187L152.873,93.756H31.25
		C14,93.756,0,79.757,0,62.507s14-31.25,31.25-31.25h145.623c14.188,0,26.563,9.5,30.187,23.187l160.685,601.804h475.992
		c17.25,0,31.25,13.999,31.25,31.249S860.986,718.746,843.736,718.746z"/>
</g>
</svg>
