<?xml version="1.0" encoding="utf-8"?>
<!-- Generator: Adobe Illustrator 15.0.0, SVG Export Plug-In . SVG Version: 6.00 Build 0)  -->
<!DOCTYPE svg PUBLIC "-//W3C//DTD SVG 1.1//EN" "http://www.w3.org/Graphics/SVG/1.1/DTD/svg11.dtd">
<svg version="1.1" id="Layer_1" xmlns="http://www.w3.org/2000/svg" xmlns:xlink="http://www.w3.org/1999/xlink" x="0px" y="0px"
	 width="478px" height="478px" viewBox="0 0 478 478" enable-background="new 0 0 478 478" xml:space="preserve">
<path fill="#305F72" d="M173.604,204.529c-13.243,0-23.98,10.737-23.98,23.979c0,13.243,10.737,23.98,23.98,23.98
	c13.243,0,23.98-10.737,23.98-23.98C197.581,215.266,186.848,204.533,173.604,204.529z M323.48,204.529
	c-13.244,0-23.981,10.737-23.981,23.979c0,13.243,10.737,23.98,23.981,23.98c13.242,0,23.979-10.737,23.979-23.98
	C347.455,215.266,336.723,204.533,323.48,204.529z M323.48,123.698h85.928l26.176,300.846c0.969,11.171-2.797,22.235-10.377,30.498
	s-18.277,12.97-29.488,12.966H101.263c-11.205,0.016-21.903-4.688-29.471-12.958c-7.564-8.271-11.303-19.339-10.292-30.506
	l26.177-300.846H323.48z"/>
<path fill="#083863" d="M419.342,122.797c-0.438-5.176-4.797-9.141-9.992-9.09h-75.938V84.93
	c-0.031-46.89-38.036-84.897-84.928-84.929c-46.902,0.008-84.921,38.027-84.929,84.929v28.777H87.619
	c-5.171,0.02-9.488,3.946-9.992,9.09L51.45,423.748c-1.19,13.953,3.524,27.77,13.004,38.085
	c9.477,10.312,22.844,16.178,36.852,16.166H395.76c14.008,0.012,27.375-5.854,36.852-16.166c9.48-10.315,14.199-24.132,13.01-38.085
	L419.342,122.797z M183.539,84.93c0-35.868,29.077-64.945,64.946-64.945c35.869,0,64.945,29.077,64.945,64.945v28.777H183.539V84.93
	z M417.842,448.325c-5.65,6.221-13.68,9.745-22.082,9.691H101.205c-8.403,0.004-16.419-3.521-22.103-9.711
	c-5.679-6.194-8.5-14.488-7.771-22.86L96.709,133.69h66.847v62.346c-16.069,4.945-26.104,20.896-23.602,37.523
	c2.498,16.623,16.783,28.917,33.593,28.917c16.811,0,31.091-12.294,33.593-28.917c2.498-16.627-7.537-32.578-23.602-37.523v-62.448
	H313.43v62.448c-16.067,4.945-26.104,20.896-23.602,37.523c2.499,16.623,16.783,28.917,33.594,28.917s31.09-12.294,33.592-28.917
	c2.498-16.627-7.535-32.578-23.602-37.523v-62.448h66.746l25.377,291.756C426.355,433.751,423.557,442.107,417.842,448.325z
	 M172.048,214.622c0.995,0.133,2.002,0.133,2.998,0c7.388,0.796,12.868,7.236,12.47,14.656c-0.402,7.423-6.538,13.239-13.969,13.239
	c-7.435,0-13.57-5.815-13.969-13.239C159.18,221.858,164.656,215.418,172.048,214.622z M321.922,214.622
	c0.996,0.133,2.004,0.133,2.998,0c7.389,0.796,12.869,7.236,12.471,14.656c-0.402,7.423-6.537,13.239-13.969,13.239
	c-7.436,0-13.57-5.815-13.969-13.239C309.055,221.858,314.531,215.418,321.922,214.622z"/>
</svg>
